<svg width="25" height="25" viewBox="0 0 25 25" fill="none" xmlns="http://www.w3.org/2000/svg">
<path d="M0.274588 0.274584C-0.0582495 0.607422 -0.0884997 1.12825 0.183813 1.49526L0.274588 1.60041L5.3178 6.64362C2.91531 8.33046 1.11971 10.8499 0.373601 13.8305C0.247876 14.3327 0.553125 14.8419 1.05539 14.9676C1.55766 15.0932 2.06675 14.7881 2.19249 14.2857C2.85433 11.6419 4.4889 9.42433 6.6677 7.99315L8.92974 10.2554C8.04535 11.1572 7.5 12.3929 7.5 13.7557C7.5 16.5172 9.73857 18.7557 12.5 18.7557C13.863 18.7557 15.0985 18.2104 16.0005 17.326L23.3996 24.7254C23.7657 25.0915 24.3592 25.0915 24.7254 24.7254C25.0582 24.3926 25.0885 23.8717 24.8161 23.5047L24.7254 23.3996L17.0835 15.7569L17.085 15.755L8.39846 7.07227L8.4 7.07L6.9834 5.65686L1.60041 0.274584C1.2343 -0.0915281 0.6407 -0.0915281 0.274588 0.274584ZM12.5 4.375C11.2496 4.375 10.0364 4.56008 8.88886 4.90625L10.4351 6.45148C11.1049 6.31915 11.7955 6.25 12.5 6.25C17.4039 6.25 21.6374 9.60032 22.8089 14.2915C22.9344 14.7937 23.4432 15.0992 23.9456 14.9739C24.448 14.8484 24.7535 14.3395 24.628 13.8371C23.2492 8.3159 18.2694 4.375 12.5 4.375ZM12.7434 8.7616L17.495 13.5125C17.3677 10.9414 15.309 8.88455 12.7434 8.7616Z" fill="#747474"/>
</svg>
