<svg width="25" height="15" viewBox="0 0 25 15" fill="none" xmlns="http://www.w3.org/2000/svg">
<path d="M12.1562 4.38078C14.9176 4.38078 17.1562 6.61936 17.1562 9.38078C17.1562 12.1422 14.9176 14.3808 12.1562 14.3808C9.39479 14.3808 7.15621 12.1422 7.15621 9.38078C7.15621 6.61936 9.39479 4.38078 12.1562 4.38078ZM12.1562 0C17.9231 0 22.9013 3.93751 24.2826 9.45548C24.4083 9.95775 24.1031 10.4668 23.6008 10.5926C23.0986 10.7183 22.5895 10.4131 22.4637 9.91079C21.2901 5.22245 17.0579 1.875 12.1562 1.875C7.25238 1.875 3.01884 5.22533 1.84729 9.91644C1.72183 10.4188 1.21291 10.7243 0.710568 10.5988C0.20823 10.4734 -0.0972962 9.96447 0.028157 9.46213C1.40702 3.9409 6.38682 0 12.1562 0Z" fill="#747474"/>
</svg>
