<svg width="802" height="831" viewBox="0 0 802 831" fill="none" xmlns="http://www.w3.org/2000/svg">
<path d="M12 0H802V831H21.3637L72.3702 680.065C85.3687 641.601 86.3527 600.092 75.1916 561.055L52.3342 481.111C41.7679 444.154 42.0747 404.936 53.2179 368.15L95.0073 230.192C117.189 156.966 95.6493 77.5025 39.5246 25.502L12 0Z" fill="#4699FF"/>
<path d="M285.63 496.786L276.727 476.751L258.51 484.807L266.878 503.633C271.345 513.732 272.453 524.998 270.031 535.766L260.368 578.79C259.863 581.039 260.094 583.392 261.026 585.499L261.031 585.511C263.43 590.936 269.766 593.398 275.187 591.001L344.335 560.419C349.75 558.024 352.2 551.683 349.798 546.253C348.861 544.134 347.267 542.376 345.257 541.24L305.625 518.839C296.767 513.829 289.755 506.098 285.636 496.784L285.63 496.786Z" fill="url(#paint0_linear_293_158)"/>
<path opacity="0.49" d="M274.095 588.548C270.042 590.34 265.275 588.497 263.476 584.43C262.776 582.848 262.597 581.057 262.978 579.386L272.64 536.362C275.166 525.111 273.991 513.105 269.323 502.551L262.047 486.179L275.362 480.29L283.173 497.873C287.494 507.641 294.996 515.925 304.293 521.178L343.925 543.579C345.426 544.425 346.636 545.76 347.336 547.342C349.132 551.403 347.297 556.173 343.238 557.969L274.089 588.55L274.095 588.548Z" fill="white"/>
<path d="M278.861 480.112L259.584 488.637C258.029 489.325 256.204 488.622 255.512 487.058C254.849 485.559 255.473 483.801 256.933 483.056L275.751 473.492C277.326 472.69 279.25 473.377 279.968 475L280.427 476.039C281.116 477.597 280.417 479.424 278.856 480.114L278.861 480.112Z" fill="#7D97F4"/>
<path d="M262.984 579.383C262.612 581.058 262.783 582.845 263.482 584.427C265.278 588.488 270.042 590.34 274.101 588.545L343.25 557.963C347.303 556.171 349.147 551.404 347.348 547.337C346.651 545.761 345.441 544.426 343.937 543.574L326.235 533.57L267.431 559.576L262.981 579.377L262.984 579.383Z" fill="#7D97F4"/>
<path d="M580.175 566.41C560.743 563.99 541.377 558.83 522.085 550.645C519.731 549.648 518.796 546.805 520.1 544.603L522.295 540.888C522.983 539.728 524.317 539.118 525.637 539.369C545.741 543.142 565.163 547.625 582.646 554.141C583.824 554.583 584.668 555.633 584.831 556.878L585.397 561.161C585.798 564.203 583.215 566.79 580.175 566.41Z" fill="url(#paint1_linear_293_158)"/>
<path d="M572.683 478.638L570.797 507.308C570.774 507.674 570.967 508.018 571.295 508.18C572.045 508.558 573.54 509.073 575.499 508.54C575.876 508.434 576.152 508.108 576.176 507.72L578.125 478.854L572.688 478.639L572.683 478.638Z" fill="url(#paint2_linear_293_158)"/>
<path d="M572.42 459.56L569.503 503.952C569.466 504.514 569.769 505.048 570.272 505.302C571.434 505.888 573.75 506.686 576.781 505.862C577.366 505.704 577.788 505.194 577.83 504.592L580.845 459.895L572.427 459.556L572.42 459.56Z" fill="url(#paint3_linear_293_158)"/>
<path d="M571.481 448.482L568.367 499.923C568.317 500.682 568.718 501.401 569.398 501.744C570.962 502.535 574.088 503.613 578.168 502.497C578.956 502.285 579.523 501.596 579.581 500.782L582.833 448.938L571.481 448.482Z" fill="url(#paint4_linear_293_158)"/>
<path d="M570.574 448.073L570.74 448.736C570.848 449.182 571.236 449.504 571.692 449.529L582.491 450.173C582.985 450.203 583.438 449.878 583.567 449.398L583.795 448.543C583.97 447.892 583.497 447.25 582.824 447.225L571.631 446.772C570.93 446.744 570.401 447.398 570.573 448.079L570.574 448.073Z" fill="url(#paint5_linear_293_158)"/>
<path d="M571.133 457.773L582.437 458.473L583.244 458.764C583.63 458.901 583.91 459.24 583.98 459.642C583.849 460.127 583.528 460.539 583.086 460.781L582.248 461.243L570.95 460.545L569.688 459.629C569.505 459.5 569.38 459.306 569.337 459.083C569.239 458.599 569.549 458.121 570.029 458.015L571.128 457.772L571.133 457.773Z" fill="url(#paint6_linear_293_158)"/>
<path d="M566.55 479.204L568.369 466.725C568.5 465.81 569.321 465.155 570.244 465.225L582.186 466.165C583.064 466.234 583.715 467.003 583.639 467.882L581.364 493.512C581.364 493.512 573.615 494.594 564.785 492.228C564.785 492.228 564.115 488.313 561.635 487.934C559.155 487.556 550.801 488.767 548.116 504.138C545.431 519.508 556.638 520.503 556.638 520.503L555.657 542.366C555.657 542.366 533.584 532.132 538.209 505.792C541.063 489.534 553.503 482.007 558.223 479.696C559.327 479.156 560.552 478.912 561.777 478.966L566.564 479.196L566.55 479.204Z" fill="url(#paint7_linear_293_158)"/>
<path d="M537.827 541.937L546.128 527.477C547.272 525.489 549.6 524.516 551.811 525.109L554.247 525.761C556.437 526.348 557.951 528.35 557.918 530.624L557.678 547.273C557.66 548.339 556.65 549.104 555.622 548.828L538.826 544.328C537.792 544.051 537.299 542.866 537.834 541.934L537.827 541.937Z" fill="url(#paint8_linear_293_158)"/>
<path d="M555.17 532.909C554.653 534.836 552.68 535.978 550.756 535.463C548.832 534.947 547.694 532.972 548.21 531.044C548.727 529.117 550.701 527.975 552.624 528.491C554.548 529.006 555.686 530.982 555.17 532.909Z" fill="url(#paint9_linear_293_158)"/>
<path d="M588.659 527.223C586.217 523.828 580.671 520.482 573.765 518.632C566.859 516.781 560.385 516.901 556.57 518.625L554.284 518.012L553.207 522.032C551.977 526.624 559.186 532.543 569.311 535.256C579.435 537.969 588.638 536.447 589.868 531.856L590.945 527.836L588.659 527.223Z" fill="url(#paint10_linear_293_158)"/>
<path d="M570.387 531.236C580.51 533.949 589.714 532.426 590.944 527.836C592.175 523.245 584.965 517.325 574.841 514.612C564.718 511.899 555.514 513.422 554.284 518.012C553.053 522.603 560.263 528.524 570.387 531.236Z" fill="url(#paint11_linear_293_158)"/>
<path d="M570.962 529.09C579.462 531.367 587.107 530.393 588.039 526.914C588.972 523.435 582.837 518.768 574.338 516.491C565.839 514.214 558.194 515.188 557.261 518.667C556.329 522.146 562.463 526.813 570.962 529.09Z" fill="url(#paint12_linear_293_158)"/>
<path d="M574.051 517.564C582.108 519.723 588.036 524.029 587.837 527.438C587.921 527.271 587.991 527.096 588.038 526.919C588.971 523.439 582.836 518.774 574.337 516.496C565.838 514.219 558.193 515.192 557.26 518.672C557.212 518.854 557.186 519.036 557.176 519.222C558.707 516.171 565.994 515.405 574.051 517.564Z" fill="#91B3FA"/>
<path d="M574.51 477.314C573.597 480.72 569.922 482.693 566.304 481.724C562.685 480.754 560.489 477.207 561.402 473.801C562.314 470.395 565.99 468.422 569.608 469.392C573.226 470.361 575.423 473.908 574.51 477.314Z" fill="url(#paint13_linear_293_158)"/>
<path d="M570.562 479.706C572.601 478.211 573.046 475.345 571.555 473.303C570.064 471.262 567.202 470.82 565.163 472.315C563.124 473.811 562.679 476.677 564.17 478.718C565.661 480.759 568.523 481.202 570.562 479.706Z" fill="url(#paint14_linear_293_158)"/>
<path d="M571.137 557.426C570.828 557.343 570.615 557.051 570.641 556.72C570.671 556.351 570.997 556.072 571.366 556.102C572.467 556.191 573.569 556.258 574.639 556.293C575.01 556.312 575.3 556.618 575.285 556.992C575.271 557.366 574.959 557.655 574.586 557.64C573.5 557.601 572.376 557.534 571.257 557.446C571.218 557.442 571.174 557.436 571.137 557.426Z" fill="white"/>
<path d="M553.593 554.287C537.197 549.894 524.418 542.785 524.254 542.695C523.932 542.511 523.813 542.102 523.997 541.779C524.18 541.456 524.589 541.337 524.911 541.521C525.114 541.638 545.744 553.099 568.122 555.782C568.494 555.819 568.751 556.163 568.71 556.529C568.667 556.901 568.329 557.16 567.963 557.119C563.022 556.527 558.165 555.512 553.593 554.287Z" fill="#91B3FA"/>
<path d="M579.738 491.354C579.429 491.271 579.212 490.973 579.245 490.638L579.442 488.603C579.478 488.235 579.808 487.962 580.175 487.998C580.542 488.033 580.814 488.364 580.778 488.732L580.581 490.767C580.545 491.135 580.215 491.408 579.848 491.372C579.809 491.367 579.77 491.363 579.738 491.354Z" fill="#91B3FA"/>
<path d="M580.253 485.976C579.944 485.894 579.727 485.595 579.76 485.261L581.402 468.134C581.407 468.073 581.365 468.016 581.3 468.004L580.123 467.855C579.753 467.807 579.496 467.469 579.542 467.104C579.59 466.733 579.928 466.475 580.292 466.521L581.469 466.67C582.259 466.768 582.813 467.471 582.738 468.264L581.096 485.39C581.06 485.758 580.73 486.03 580.363 485.994C580.324 485.99 580.285 485.985 580.253 485.976Z" fill="#91B3FA"/>
<path d="M422.261 288.562C422.031 289.002 407.438 299.756 407.438 299.756C407.438 299.756 410.661 322.849 423.743 331.968C438.126 341.993 458.444 323.709 458.444 323.709C458.444 323.709 474.61 327.558 483.21 293.844C485.181 286.109 473.798 285.455 460.055 286.88C442.336 288.717 422.261 288.562 422.261 288.562Z" fill="url(#paint15_linear_293_158)"/>
<path d="M394.993 367.346C400.701 363.413 407.012 360.449 413.7 358.625C416.211 357.942 429.782 361.891 438.169 361.699C449.681 361.434 461.403 356.185 470.89 358.554C480.319 360.906 488.031 363.984 492.488 367.157C505.821 376.658 513.651 394.376 518.422 411.927C509.387 421.218 498.021 425.347 498.021 425.347L495.92 510.651L445.572 536.462L388.105 507.557L390.164 424.194C390.164 424.194 371.914 415.679 370.575 412.585C369.235 409.487 378.89 378.444 394.993 367.35V367.346Z" fill="url(#paint16_linear_293_158)"/>
<path d="M371.424 412.208C371.424 412.208 346.972 480.129 402.735 508.048C414.315 506.505 409.862 487.244 409.862 487.244C409.862 487.244 385.632 481.873 392.909 425.209C386.209 419.687 371.428 412.208 371.428 412.208H371.424Z" fill="url(#paint17_linear_293_158)"/>
<path d="M517.245 412.208C517.245 412.208 534.073 483.11 485.934 508.048C474.355 506.505 478.807 487.244 478.807 487.244C478.807 487.244 498.334 477.609 495.76 425.209C502.46 419.687 517.241 412.208 517.241 412.208H517.245Z" fill="url(#paint18_linear_293_158)"/>
<path d="M494.555 438.114H390.733C388.914 438.114 387.439 439.592 387.439 441.414V509.515C387.439 511.338 388.914 512.815 390.733 512.815H494.555C496.374 512.815 497.849 511.338 497.849 509.515V441.414C497.849 439.592 496.374 438.114 494.555 438.114Z" fill="url(#paint19_linear_293_158)"/>
<path d="M546.276 534.961C533.642 532.055 504.436 533.619 504.436 533.619L503.247 536.843L501.28 552.863C501.28 552.863 529.093 557.886 542.798 557.874C544.196 557.874 545.477 557.664 546.644 557.299C547.063 556.922 547.469 556.532 547.858 556.113C553.675 549.748 551.993 540.399 546.272 534.969L546.276 534.961Z" fill="url(#paint20_linear_293_158)"/>
<path d="M496.045 532.718L500.992 532.927C503.649 533.04 506.152 534.336 507.938 536.524C509.725 538.713 510.642 541.606 510.487 544.558C510.362 546.91 509.399 549.107 507.813 550.671C506.223 552.23 504.143 553.023 502.025 552.872L494.459 552.331L496.045 532.718Z" fill="url(#paint21_linear_293_158)"/>
<path d="M329.768 533.422C342.469 530.906 371.625 533.363 371.625 533.363L372.73 536.621L374.299 552.696C374.299 552.696 346.373 556.859 332.672 556.427C331.274 556.381 330.002 556.134 328.843 555.731C328.433 555.341 328.035 554.939 327.658 554.507C322.005 547.966 323.913 538.675 329.772 533.422H329.768Z" fill="url(#paint22_linear_293_158)"/>
<path d="M380.032 532.722L375.086 532.78C372.428 532.814 369.892 534.03 368.051 536.164C366.209 538.298 365.222 541.162 365.301 544.113C365.368 546.469 366.276 548.696 367.825 550.306C369.373 551.916 371.436 552.771 373.554 552.683L381.133 552.377L380.032 532.722Z" fill="url(#paint23_linear_293_158)"/>
<path d="M549.808 484.745C544.079 471.534 530.064 469.387 518.133 475.567C517.924 475.84 442.383 514.63 375.76 531.632C377.668 537.757 378.647 544.277 378.861 550.683C378.898 552.109 378.877 553.517 378.794 554.909C429.883 552.281 485.328 535.212 532.973 520.211C547.745 515.435 556.157 499.398 549.804 484.753L549.808 484.745Z" fill="url(#paint24_linear_293_158)"/>
<path d="M496.41 551.685C496.209 544.302 497.644 537.426 500.707 531.061C500.795 530.768 500.9 530.491 500.992 530.202C497.188 529.02 492.275 527.422 485.818 525.229C438.512 509.008 402.422 492.631 367.976 473.777C354.597 466.452 339.381 471.362 335.095 487.223C331.27 501.386 339.669 513.473 352.412 517.72C390.541 530.433 370.688 526.902 383.142 530.915C416.583 541.275 458.198 550.713 496.485 553.287C496.456 552.75 496.422 552.214 496.405 551.681L496.41 551.685Z" fill="url(#paint25_linear_293_158)"/>
<path d="M413.699 358.625C413.699 358.625 418.788 380.712 443.487 380.255C468.647 379.798 470.89 358.554 470.89 358.554L454.456 355.032L453.083 336.685L428.363 338.522L427.907 355.95L413.703 358.63L413.699 358.625Z" fill="url(#paint26_linear_293_158)"/>
<path d="M431.833 284.704C431.833 284.704 403.501 339.683 437.11 353.024C460.813 362.432 475.677 316.514 471.246 304.075C464.391 284.843 459.88 287.128 459.88 287.128L431.837 284.704H431.833Z" fill="url(#paint27_linear_293_158)"/>
<path d="M478.058 279.698C492.053 283.551 480.092 313.961 459.022 306.77C437.951 299.58 429.669 299.685 426.388 305.479C423.103 311.278 422.4 331.864 415.273 321.688C407.464 310.531 403.107 288.142 412.682 280.923C421.24 274.47 423.237 264.471 433.506 264.819C447.132 265.28 457.67 259.226 463.822 263.59C470.886 268.6 467.764 276.86 478.058 279.694V279.698Z" fill="url(#paint28_linear_293_158)"/>
<path d="M425.091 310.213C425.091 310.213 419.048 303.701 418.081 311.55C417.114 319.399 420.219 329.511 423.856 323.969C427.493 318.426 425.091 310.213 425.091 310.213Z" fill="url(#paint29_linear_293_158)"/>
<path d="M449.158 458.344C449.743 462.306 447.622 465.903 443.667 466.49C439.712 467.077 436.03 464.339 435.444 460.377C434.858 456.415 436.67 452.478 440.625 451.891C444.579 451.304 448.572 454.382 449.158 458.344Z" fill="#91B3FA"/>
<path d="M258.052 706.588H587.61V640.503H258.052C265.107 640.503 265.107 706.588 258.052 706.588Z" fill="#91B3FA"/>
<path d="M587.606 690.052V659.81C587.606 649.148 581.095 640.507 573.06 640.507H259.437C253.118 640.507 248 635.375 248 629.044C248 627.12 249.557 625.56 251.478 625.56H594.244C602.103 625.56 614.586 637.941 614.586 653.215V695.452C614.586 709.854 602.471 721.526 595.06 721.526H253.285C250.369 721.526 248.008 719.157 248.008 716.239C248.008 710.906 252.323 706.584 257.642 706.584H575.152C582.036 706.584 587.615 699.179 587.615 690.048L587.606 690.052Z" fill="url(#paint30_linear_293_158)"/>
<path d="M578.466 654.46H269.46C269.242 654.46 269.066 654.284 269.066 654.066C269.066 653.848 269.242 653.672 269.46 653.672H578.466C578.684 653.672 578.86 653.848 578.86 654.066C578.86 654.284 578.684 654.46 578.466 654.46Z" fill="url(#paint31_linear_293_158)"/>
<path d="M578.466 664.271H269.46C269.242 664.271 269.066 664.095 269.066 663.877C269.066 663.659 269.242 663.483 269.46 663.483H578.466C578.684 663.483 578.86 663.659 578.86 663.877C578.86 664.095 578.684 664.271 578.466 664.271Z" fill="url(#paint32_linear_293_158)"/>
<path d="M578.466 674.078H269.46C269.242 674.078 269.066 673.902 269.066 673.684C269.066 673.466 269.242 673.29 269.46 673.29H578.466C578.684 673.29 578.86 673.466 578.86 673.684C578.86 673.902 578.684 674.078 578.466 674.078Z" fill="url(#paint33_linear_293_158)"/>
<path d="M578.466 683.889H269.46C269.242 683.889 269.066 683.712 269.066 683.494C269.066 683.276 269.242 683.1 269.46 683.1H578.466C578.684 683.1 578.86 683.276 578.86 683.494C578.86 683.712 578.684 683.889 578.466 683.889Z" fill="url(#paint34_linear_293_158)"/>
<path d="M578.466 693.695H269.46C269.242 693.695 269.066 693.519 269.066 693.301C269.066 693.083 269.242 692.907 269.46 692.907H578.466C578.684 692.907 578.86 693.083 578.86 693.301C578.86 693.519 578.684 693.695 578.466 693.695Z" fill="url(#paint35_linear_293_158)"/>
<path d="M298.545 625.262H579.199C583.585 625.262 587.142 621.7 587.142 617.305V561.509C587.142 557.114 583.585 553.551 579.199 553.551H298.545C294.158 553.551 290.602 557.114 290.602 561.509V617.305C290.602 621.7 294.158 625.262 298.545 625.262Z" fill="url(#paint36_linear_293_158)"/>
<path d="M550.762 561.794H521.652C520.072 561.794 518.79 563.078 518.79 564.662V614.156C518.79 615.74 520.072 617.024 521.652 617.024H550.762C552.343 617.024 553.625 615.74 553.625 614.156V564.662C553.625 563.078 552.343 561.794 550.762 561.794Z" fill="#7D97F4"/>
<path d="M512.211 561.794H502.046C501.244 561.794 500.594 562.445 500.594 563.249V615.569C500.594 616.372 501.244 617.024 502.046 617.024H512.211C513.013 617.024 513.663 616.372 513.663 615.569V563.249C513.663 562.445 513.013 561.794 512.211 561.794Z" fill="#7D97F4"/>
<path d="M301.741 602.786L310.069 624.668C310.069 624.668 302.131 659.723 263.303 670.926C224.476 682.129 208.892 663.027 208.892 663.027L199.049 630.94L301.741 602.786Z" fill="url(#paint37_linear_293_158)"/>
<path d="M241.923 569.165L320.063 589.508C324.084 590.556 325.319 595.676 322.209 598.443C307.052 611.935 272.61 643.351 259.688 661.463C258.307 663.4 255.783 664.142 253.569 663.274L174.304 632.144C170.717 630.735 169.851 626.047 172.697 623.448C187.704 609.738 225.899 575.4 238.416 569.488C239.508 568.973 240.751 568.864 241.923 569.17V569.165Z" fill="url(#paint38_linear_293_158)"/>
<path d="M244.363 609.365C244.363 609.365 203.418 636.336 200.371 642.378C197.325 648.419 204.196 675.5 204.196 675.5C198.107 698.643 197.613 723.657 208.879 736.528C208.879 736.528 221.894 706.002 215.583 693.356C209.272 680.711 206.837 675.525 206.837 675.525C206.837 675.525 200.982 646.633 202.581 642.453C202.581 642.453 247.911 610.954 244.363 609.365Z" fill="url(#paint39_linear_293_158)"/>
<path d="M309.764 596.954L270.719 637.015L260.956 647.032L258.516 649.535L257.298 650.78C256.917 651.17 256.482 651.505 256.026 651.803C254.189 652.981 251.824 653.3 249.736 652.608L223.078 644.214C222.878 644.151 222.66 644.265 222.597 644.466C222.534 644.667 222.643 644.881 222.844 644.948L249.439 653.535C251.778 654.327 254.473 654 256.57 652.671C257.093 652.34 257.587 651.958 258.026 651.518L259.261 650.273L261.717 647.786L271.552 637.841L310.89 598.066C311.195 597.755 311.195 597.252 310.885 596.946C310.576 596.64 310.074 596.64 309.768 596.95L309.764 596.954Z" fill="#91B3FA"/>
<path d="M207.515 689.407L207.594 689.491L207.691 689.6L207.883 689.818L208.251 690.296C208.494 690.619 208.708 690.971 208.938 691.311L209.549 692.388C209.741 692.757 209.909 693.139 210.089 693.512C210.277 693.881 210.423 694.275 210.57 694.669C210.716 695.059 210.88 695.449 211.013 695.843L211.373 697.05C211.491 697.453 211.629 697.851 211.704 698.266L211.972 699.503C212.06 699.918 212.169 700.325 212.21 700.748C212.323 701.587 212.453 702.425 212.558 703.264L212.725 705.805C212.738 706.018 212.759 706.228 212.763 706.442V707.079L212.754 708.358C212.8 710.064 212.6 711.762 212.491 713.469C212.47 713.896 212.411 714.32 212.348 714.743L212.173 716.014C212.051 716.861 211.947 717.712 211.813 718.555C211.465 720.232 211.156 721.917 210.779 723.59L209.478 728.571V728.583C209.436 728.73 209.524 728.881 209.67 728.919C209.817 728.957 209.963 728.873 210.005 728.73L211.44 723.753C211.859 722.076 212.219 720.387 212.608 718.701C212.767 717.85 212.893 716.995 213.035 716.14L213.244 714.857C213.315 714.429 213.39 714.001 213.42 713.569C213.57 711.842 213.817 710.119 213.817 708.379L213.855 707.075L213.876 706.421C213.876 706.203 213.859 705.985 213.855 705.767L213.746 703.155C213.663 702.287 213.55 701.419 213.453 700.547C213.416 700.111 213.315 699.683 213.236 699.251L212.989 697.96C212.922 697.528 212.788 697.105 212.675 696.681L212.328 695.407C212.198 694.988 212.035 694.572 211.892 694.157C211.746 693.742 211.604 693.323 211.411 692.921C211.227 692.514 211.06 692.107 210.863 691.705L210.231 690.522C209.988 690.141 209.762 689.755 209.499 689.382L209.093 688.828L208.867 688.556L208.75 688.418L208.607 688.267C208.31 687.948 207.808 687.931 207.49 688.229C207.172 688.527 207.155 689.03 207.452 689.348C207.452 689.348 207.456 689.353 207.461 689.357L207.502 689.403L207.515 689.407Z" fill="#91B3FA"/>
<path d="M206.461 700.157L206.494 701.784L206.515 703.612L206.536 707.272L206.544 714.601L206.519 729.258C206.519 729.497 206.708 729.69 206.946 729.69C207.18 729.69 207.369 729.502 207.377 729.271L207.762 714.618L207.934 707.289L208.005 703.62L208.03 701.784V700.857L208.034 700.392C208.03 700.195 208.013 699.96 207.988 699.75C207.942 699.327 207.561 699.021 207.139 699.071C206.741 699.117 206.448 699.457 206.452 699.851L206.461 700.165V700.157Z" fill="#91B3FA"/>
<defs>
<linearGradient id="paint0_linear_293_158" x1="293.504" y1="470.665" x2="326.402" y2="735.98" gradientUnits="userSpaceOnUse">
<stop stop-color="#DAE3FE"/>
<stop offset="1" stop-color="#E9EFFD"/>
</linearGradient>
<linearGradient id="paint1_linear_293_158" x1="567.879" y1="515.641" x2="552.753" y2="553.544" gradientUnits="userSpaceOnUse">
<stop stop-color="#09005D"/>
<stop offset="1" stop-color="#1A0F91"/>
</linearGradient>
<linearGradient id="paint2_linear_293_158" x1="569.084" y1="492.07" x2="579.629" y2="494.895" gradientUnits="userSpaceOnUse">
<stop stop-color="#2B3582"/>
<stop offset="1" stop-color="#150E42"/>
</linearGradient>
<linearGradient id="paint3_linear_293_158" x1="576.35" y1="531.707" x2="576.233" y2="527.031" gradientUnits="userSpaceOnUse">
<stop stop-color="#4042E2"/>
<stop offset="1" stop-color="#4F52FF"/>
</linearGradient>
<linearGradient id="paint4_linear_293_158" x1="560.921" y1="477.621" x2="589.057" y2="473.45" gradientUnits="userSpaceOnUse">
<stop stop-color="#4042E2"/>
<stop offset="1" stop-color="#4F52FF"/>
</linearGradient>
<linearGradient id="paint5_linear_293_158" x1="583.125" y1="425.894" x2="581.885" y2="430.523" gradientUnits="userSpaceOnUse">
<stop stop-color="#09005D"/>
<stop offset="1" stop-color="#1A0F91"/>
</linearGradient>
<linearGradient id="paint6_linear_293_158" x1="590.926" y1="439.279" x2="581.175" y2="452.875" gradientUnits="userSpaceOnUse">
<stop stop-color="#09005D"/>
<stop offset="1" stop-color="#1A0F91"/>
</linearGradient>
<linearGradient id="paint7_linear_293_158" x1="540.5" y1="496.644" x2="577.838" y2="506.649" gradientUnits="userSpaceOnUse">
<stop stop-color="#09005D"/>
<stop offset="1" stop-color="#1A0F91"/>
</linearGradient>
<linearGradient id="paint8_linear_293_158" x1="538.722" y1="551.132" x2="559.842" y2="529.488" gradientUnits="userSpaceOnUse">
<stop stop-color="#4042E2"/>
<stop offset="1" stop-color="#4F52FF"/>
</linearGradient>
<linearGradient id="paint9_linear_293_158" x1="562.496" y1="523.28" x2="529.072" y2="550.079" gradientUnits="userSpaceOnUse">
<stop stop-color="#09005D"/>
<stop offset="1" stop-color="#1A0F91"/>
</linearGradient>
<linearGradient id="paint10_linear_293_158" x1="568.195" y1="545.708" x2="571.254" y2="529.283" gradientUnits="userSpaceOnUse">
<stop stop-color="#09005D"/>
<stop offset="1" stop-color="#1A0F91"/>
</linearGradient>
<linearGradient id="paint11_linear_293_158" x1="569.485" y1="531.704" x2="574.866" y2="516.627" gradientUnits="userSpaceOnUse">
<stop stop-color="#09005D"/>
<stop offset="1" stop-color="#1A0F91"/>
</linearGradient>
<linearGradient id="paint12_linear_293_158" x1="557.267" y1="518.669" x2="588.039" y2="526.914" gradientUnits="userSpaceOnUse">
<stop stop-color="#4042E2"/>
<stop offset="1" stop-color="#4F52FF"/>
</linearGradient>
<linearGradient id="paint13_linear_293_158" x1="561.396" y1="473.8" x2="574.51" y2="477.314" gradientUnits="userSpaceOnUse">
<stop stop-color="#4042E2"/>
<stop offset="1" stop-color="#4F52FF"/>
</linearGradient>
<linearGradient id="paint14_linear_293_158" x1="563.478" y1="474.784" x2="572.313" y2="477.151" gradientUnits="userSpaceOnUse">
<stop stop-color="#09005D"/>
<stop offset="1" stop-color="#1A0F91"/>
</linearGradient>
<linearGradient id="paint15_linear_293_158" x1="509.39" y1="209.693" x2="449.435" y2="294.753" gradientUnits="userSpaceOnUse">
<stop stop-color="#09005D"/>
<stop offset="1" stop-color="#1A0F91"/>
</linearGradient>
<linearGradient id="paint16_linear_293_158" x1="538.995" y1="226.841" x2="483.584" y2="347.512" gradientUnits="userSpaceOnUse">
<stop stop-color="#E1473D"/>
<stop offset="1" stop-color="#E9605A"/>
</linearGradient>
<linearGradient id="paint17_linear_293_158" x1="394.114" y1="330.254" x2="391.594" y2="391.466" gradientUnits="userSpaceOnUse">
<stop stop-color="#FF928E"/>
<stop offset="1" stop-color="#FEB3B1"/>
</linearGradient>
<linearGradient id="paint18_linear_293_158" x1="503.272" y1="338.815" x2="501.592" y2="389.965" gradientUnits="userSpaceOnUse">
<stop stop-color="#FF928E"/>
<stop offset="1" stop-color="#FEB3B1"/>
</linearGradient>
<linearGradient id="paint19_linear_293_158" x1="443.918" y1="423.872" x2="438.924" y2="625.66" gradientUnits="userSpaceOnUse">
<stop stop-color="#4042E2"/>
<stop offset="1" stop-color="#4F52FF"/>
</linearGradient>
<linearGradient id="paint20_linear_293_158" x1="501.33" y1="545.27" x2="553.615" y2="545.671" gradientUnits="userSpaceOnUse">
<stop stop-color="#09005D"/>
<stop offset="1" stop-color="#1A0F91"/>
</linearGradient>
<linearGradient id="paint21_linear_293_158" x1="535.852" y1="450.847" x2="480.48" y2="600.547" gradientUnits="userSpaceOnUse">
<stop stop-color="#FF928E"/>
<stop offset="1" stop-color="#FEB3B1"/>
</linearGradient>
<linearGradient id="paint22_linear_293_158" x1="374.424" y1="545.254" x2="322.127" y2="544.206" gradientUnits="userSpaceOnUse">
<stop stop-color="#09005D"/>
<stop offset="1" stop-color="#1A0F91"/>
</linearGradient>
<linearGradient id="paint23_linear_293_158" x1="425.279" y1="405.717" x2="369.878" y2="555.492" gradientUnits="userSpaceOnUse">
<stop stop-color="#FF928E"/>
<stop offset="1" stop-color="#FEB3B1"/>
</linearGradient>
<linearGradient id="paint24_linear_293_158" x1="515.773" y1="480.67" x2="372.11" y2="588.391" gradientUnits="userSpaceOnUse">
<stop stop-color="#09005D"/>
<stop offset="1" stop-color="#1A0F91"/>
</linearGradient>
<linearGradient id="paint25_linear_293_158" x1="417.583" y1="417.021" x2="417.583" y2="462.926" gradientUnits="userSpaceOnUse">
<stop stop-color="#09005D"/>
<stop offset="1" stop-color="#1A0F91"/>
</linearGradient>
<linearGradient id="paint26_linear_293_158" x1="445.345" y1="323.428" x2="433.584" y2="458.428" gradientUnits="userSpaceOnUse">
<stop stop-color="#FF928E"/>
<stop offset="1" stop-color="#FEB3B1"/>
</linearGradient>
<linearGradient id="paint27_linear_293_158" x1="430.046" y1="227.231" x2="438.446" y2="274.184" gradientUnits="userSpaceOnUse">
<stop stop-color="#FF928E"/>
<stop offset="1" stop-color="#FEB3B1"/>
</linearGradient>
<linearGradient id="paint28_linear_293_158" x1="511.836" y1="196.732" x2="444.371" y2="292.443" gradientUnits="userSpaceOnUse">
<stop stop-color="#09005D"/>
<stop offset="1" stop-color="#1A0F91"/>
</linearGradient>
<linearGradient id="paint29_linear_293_158" x1="406.878" y1="231.378" x2="415.278" y2="278.33" gradientUnits="userSpaceOnUse">
<stop stop-color="#FF928E"/>
<stop offset="1" stop-color="#FEB3B1"/>
</linearGradient>
<linearGradient id="paint30_linear_293_158" x1="481.307" y1="446.399" x2="451.069" y2="577.186" gradientUnits="userSpaceOnUse">
<stop stop-color="#09005D"/>
<stop offset="1" stop-color="#1A0F91"/>
</linearGradient>
<linearGradient id="paint31_linear_293_158" x1="269.066" y1="654.066" x2="578.864" y2="654.066" gradientUnits="userSpaceOnUse">
<stop stop-color="#4042E2"/>
<stop offset="1" stop-color="#4F52FF"/>
</linearGradient>
<linearGradient id="paint32_linear_293_158" x1="-20.0076" y1="663.873" x2="-19.5891" y2="663.873" gradientUnits="userSpaceOnUse">
<stop stop-color="#4042E2"/>
<stop offset="1" stop-color="#4F52FF"/>
</linearGradient>
<linearGradient id="paint33_linear_293_158" x1="-20.0076" y1="673.684" x2="-19.5891" y2="673.684" gradientUnits="userSpaceOnUse">
<stop stop-color="#4042E2"/>
<stop offset="1" stop-color="#4F52FF"/>
</linearGradient>
<linearGradient id="paint34_linear_293_158" x1="-20.0076" y1="683.49" x2="-19.5891" y2="683.49" gradientUnits="userSpaceOnUse">
<stop stop-color="#4042E2"/>
<stop offset="1" stop-color="#4F52FF"/>
</linearGradient>
<linearGradient id="paint35_linear_293_158" x1="-20.0076" y1="693.301" x2="-19.5891" y2="693.301" gradientUnits="userSpaceOnUse">
<stop stop-color="#4042E2"/>
<stop offset="1" stop-color="#4F52FF"/>
</linearGradient>
<linearGradient id="paint36_linear_293_158" x1="440.88" y1="507.843" x2="437.386" y2="649.248" gradientUnits="userSpaceOnUse">
<stop stop-color="#4042E2"/>
<stop offset="1" stop-color="#4F52FF"/>
</linearGradient>
<linearGradient id="paint37_linear_293_158" x1="244.329" y1="552.831" x2="268.275" y2="727.67" gradientUnits="userSpaceOnUse">
<stop stop-color="#09005D"/>
<stop offset="1" stop-color="#1A0F91"/>
</linearGradient>
<linearGradient id="paint38_linear_293_158" x1="189.026" y1="520.702" x2="235.604" y2="592.322" gradientUnits="userSpaceOnUse">
<stop stop-color="#09005D"/>
<stop offset="1" stop-color="#1A0F91"/>
</linearGradient>
<linearGradient id="paint39_linear_293_158" x1="218.031" y1="637.313" x2="241.976" y2="771.895" gradientUnits="userSpaceOnUse">
<stop stop-color="#09005D"/>
<stop offset="1" stop-color="#1A0F91"/>
</linearGradient>
</defs>
</svg>
