<svg width="47" height="37" viewBox="0 0 47 37" fill="none" xmlns="http://www.w3.org/2000/svg">
<path d="M6.88477 0.166748C3.5331 0.166748 0.792587 2.78316 0.594185 6.08493L0.582687 6.46883V30.5313C0.582687 33.883 3.19905 36.6235 6.50086 36.8219L6.88477 36.8334H40.1139C43.4656 36.8334 46.2061 34.217 46.4045 30.9152L46.416 30.5313V6.46883C46.416 3.1172 43.7996 0.376655 40.4978 0.178249L40.1139 0.166748H6.88477ZM16.6205 3.60425H40.1139C41.696 3.60425 42.9785 4.88676 42.9785 6.46883V30.5313C42.9785 32.1135 41.696 33.3959 40.1139 33.3959H16.6205V3.60425ZM27.2788 11.9582L21.5514 17.6856C21.1039 18.1332 21.1039 18.8587 21.5514 19.3061L27.2788 25.0336C27.7263 25.4812 28.4518 25.4812 28.8993 25.0336C29.3468 24.5861 29.3468 23.8605 28.8993 23.4132L25.128 19.642L36.0924 19.6459C36.7252 19.6461 37.2384 19.1333 37.2386 18.5005C37.2389 17.8676 36.726 17.3545 36.0932 17.3542L25.1278 17.3503L28.8993 13.5787C29.3468 13.1312 29.3468 12.4057 28.8993 11.9582C28.4518 11.5107 27.7263 11.5107 27.2788 11.9582Z" fill="#0F0A1D"/>
</svg>
