<svg width="107" height="74" viewBox="0 0 107 74" fill="none" xmlns="http://www.w3.org/2000/svg">
<path d="M20.064 47.768C17.344 47.768 14.816 47.336 12.48 46.472C10.176 45.608 8.176 44.392 6.48 42.824C4.784 41.224 3.456 39.352 2.496 37.208C1.568 35.064 1.104 32.728 1.104 30.2C1.104 27.64 1.568 25.304 2.496 23.192C3.456 21.048 4.784 19.192 6.48 17.624C8.176 16.024 10.176 14.792 12.48 13.928C14.816 13.064 17.344 12.632 20.064 12.632C22.816 12.632 25.344 13.064 27.648 13.928C29.952 14.792 31.952 16.024 33.648 17.624C35.344 19.192 36.656 21.048 37.584 23.192C38.544 25.304 39.024 27.64 39.024 30.2C39.024 32.728 38.544 35.064 37.584 37.208C36.656 39.352 35.344 41.224 33.648 42.824C31.952 44.392 29.952 45.608 27.648 46.472C25.344 47.336 22.816 47.768 20.064 47.768ZM20.064 38.6C21.12 38.6 22.096 38.408 22.992 38.024C23.92 37.64 24.72 37.096 25.392 36.392C26.096 35.656 26.64 34.776 27.024 33.752C27.408 32.696 27.6 31.512 27.6 30.2C27.6 28.888 27.408 27.72 27.024 26.696C26.64 25.64 26.096 24.76 25.392 24.056C24.72 23.32 23.92 22.76 22.992 22.376C22.096 21.992 21.12 21.8 20.064 21.8C19.008 21.8 18.016 21.992 17.088 22.376C16.192 22.76 15.392 23.32 14.688 24.056C14.016 24.76 13.488 25.64 13.104 26.696C12.72 27.72 12.528 28.888 12.528 30.2C12.528 31.512 12.72 32.696 13.104 33.752C13.488 34.776 14.016 35.656 14.688 36.392C15.392 37.096 16.192 37.64 17.088 38.024C18.016 38.408 19.008 38.6 20.064 38.6ZM43.101 47V13.4H59.277C62.413 13.4 65.117 13.912 67.389 14.936C69.693 15.96 71.469 17.432 72.717 19.352C73.965 21.24 74.589 23.48 74.589 26.072C74.589 28.664 73.965 30.904 72.717 32.792C71.469 34.68 69.693 36.152 67.389 37.208C65.117 38.232 62.413 38.744 59.277 38.744H49.389L54.429 33.896V47H43.101ZM54.429 35.144L49.389 30.008H58.557C60.125 30.008 61.277 29.656 62.013 28.952C62.781 28.248 63.165 27.288 63.165 26.072C63.165 24.856 62.781 23.896 62.013 23.192C61.277 22.488 60.125 22.136 58.557 22.136H49.389L54.429 17V35.144ZM84.9049 47V19.736L87.3529 22.184H75.0649V13.4H105.881V22.184H93.5929L96.0409 19.736V47H84.9049Z" fill="#FEFEFE"/>
<path d="M10.016 68V55.184H13.16L18.32 64.28H17.072L22.496 55.184H25.304L25.328 68H22.616V58.4L23.096 58.712L18.296 66.656H17L12.176 58.496L12.752 58.352V68H10.016ZM37.1279 68V65.408L36.9599 64.856V60.32C36.9599 59.44 36.6959 58.76 36.1679 58.28C35.6399 57.784 34.8399 57.536 33.7679 57.536C33.0479 57.536 32.3359 57.648 31.6319 57.872C30.9439 58.096 30.3599 58.408 29.8799 58.808L28.7039 56.624C29.3919 56.096 30.2079 55.704 31.1519 55.448C32.1119 55.176 33.1039 55.04 34.1279 55.04C35.9839 55.04 37.4159 55.488 38.4239 56.384C39.4479 57.264 39.9599 58.632 39.9599 60.488V68H37.1279ZM33.0959 68.168C32.1359 68.168 31.2959 68.008 30.5759 67.688C29.8559 67.352 29.2959 66.896 28.8959 66.32C28.5119 65.728 28.3199 65.064 28.3199 64.328C28.3199 63.608 28.4879 62.96 28.8239 62.384C29.1759 61.808 29.7439 61.352 30.5279 61.016C31.3119 60.68 32.3519 60.512 33.6479 60.512H37.3679V62.504H33.8639C32.8399 62.504 32.1519 62.672 31.7999 63.008C31.4479 63.328 31.2719 63.728 31.2719 64.208C31.2719 64.752 31.4879 65.184 31.9199 65.504C32.3519 65.824 32.9519 65.984 33.7199 65.984C34.4559 65.984 35.1119 65.816 35.6879 65.48C36.2799 65.144 36.7039 64.648 36.9599 63.992L37.4639 65.792C37.1759 66.544 36.6559 67.128 35.9039 67.544C35.1679 67.96 34.2319 68.168 33.0959 68.168ZM49.5043 68.168C48.1603 68.168 46.9603 67.888 45.9043 67.328C44.8643 66.752 44.0483 65.968 43.4563 64.976C42.8643 63.984 42.5683 62.856 42.5683 61.592C42.5683 60.312 42.8643 59.184 43.4563 58.208C44.0483 57.216 44.8643 56.44 45.9043 55.88C46.9603 55.32 48.1603 55.04 49.5043 55.04C50.7523 55.04 51.8483 55.296 52.7923 55.808C53.7523 56.304 54.4803 57.04 54.9763 58.016L52.6723 59.36C52.2883 58.752 51.8163 58.304 51.2563 58.016C50.7123 57.728 50.1203 57.584 49.4803 57.584C48.7443 57.584 48.0803 57.744 47.4883 58.064C46.8963 58.384 46.4323 58.848 46.0963 59.456C45.7603 60.048 45.5923 60.76 45.5923 61.592C45.5923 62.424 45.7603 63.144 46.0963 63.752C46.4323 64.344 46.8963 64.8 47.4883 65.12C48.0803 65.44 48.7443 65.6 49.4803 65.6C50.1203 65.6 50.7123 65.456 51.2563 65.168C51.8163 64.88 52.2883 64.432 52.6723 63.824L54.9763 65.168C54.4803 66.128 53.7523 66.872 52.7923 67.4C51.8483 67.912 50.7523 68.168 49.5043 68.168ZM60.1878 68V57.008L60.8838 57.728H55.6758V55.184H67.6758V57.728H62.4918L63.1878 57.008V68H60.1878ZM75.2654 68.168C73.8414 68.168 72.5934 67.888 71.5214 67.328C70.4654 66.752 69.6414 65.968 69.0494 64.976C68.4734 63.984 68.1854 62.856 68.1854 61.592C68.1854 60.312 68.4654 59.184 69.0254 58.208C69.6014 57.216 70.3854 56.44 71.3774 55.88C72.3854 55.32 73.5294 55.04 74.8094 55.04C76.0574 55.04 77.1694 55.312 78.1454 55.856C79.1214 56.4 79.8894 57.168 80.4494 58.16C81.0094 59.152 81.2894 60.32 81.2894 61.664C81.2894 61.792 81.2814 61.936 81.2654 62.096C81.2654 62.256 81.2574 62.408 81.2414 62.552H70.5614V60.56H79.6574L78.4814 61.184C78.4974 60.448 78.3454 59.8 78.0254 59.24C77.7054 58.68 77.2654 58.24 76.7054 57.92C76.1614 57.6 75.5294 57.44 74.8094 57.44C74.0734 57.44 73.4254 57.6 72.8654 57.92C72.3214 58.24 71.8894 58.688 71.5694 59.264C71.2654 59.824 71.1134 60.488 71.1134 61.256V61.736C71.1134 62.504 71.2894 63.184 71.6414 63.776C71.9934 64.368 72.4894 64.824 73.1294 65.144C73.7694 65.464 74.5054 65.624 75.3374 65.624C76.0574 65.624 76.7054 65.512 77.2814 65.288C77.8574 65.064 78.3694 64.712 78.8174 64.232L80.4254 66.08C79.8494 66.752 79.1214 67.272 78.2414 67.64C77.3774 67.992 76.3854 68.168 75.2654 68.168ZM91.6747 68.168C90.6347 68.168 89.6827 67.928 88.8187 67.448C87.9707 66.968 87.2907 66.248 86.7787 65.288C86.2827 64.312 86.0347 63.08 86.0347 61.592C86.0347 60.088 86.2747 58.856 86.7547 57.896C87.2507 56.936 87.9227 56.224 88.7707 55.76C89.6187 55.28 90.5867 55.04 91.6747 55.04C92.9387 55.04 94.0507 55.312 95.0107 55.856C95.9867 56.4 96.7547 57.16 97.3147 58.136C97.8907 59.112 98.1787 60.264 98.1787 61.592C98.1787 62.92 97.8907 64.08 97.3147 65.072C96.7547 66.048 95.9867 66.808 95.0107 67.352C94.0507 67.896 92.9387 68.168 91.6747 68.168ZM84.5707 72.656V55.184H87.4267V58.208L87.3307 61.616L87.5707 65.024V72.656H84.5707ZM91.3387 65.6C92.0587 65.6 92.6987 65.44 93.2587 65.12C93.8347 64.8 94.2907 64.336 94.6267 63.728C94.9627 63.12 95.1307 62.408 95.1307 61.592C95.1307 60.76 94.9627 60.048 94.6267 59.456C94.2907 58.848 93.8347 58.384 93.2587 58.064C92.6987 57.744 92.0587 57.584 91.3387 57.584C90.6187 57.584 89.9707 57.744 89.3947 58.064C88.8187 58.384 88.3627 58.848 88.0267 59.456C87.6907 60.048 87.5227 60.76 87.5227 61.592C87.5227 62.408 87.6907 63.12 88.0267 63.728C88.3627 64.336 88.8187 64.8 89.3947 65.12C89.9707 65.44 90.6187 65.6 91.3387 65.6Z" fill="#0F0A1D"/>
</svg>
