<svg width="187" height="59" viewBox="0 0 187 59" fill="none" xmlns="http://www.w3.org/2000/svg">
<path d="M20.064 47.768C17.344 47.768 14.816 47.336 12.48 46.472C10.176 45.608 8.176 44.392 6.48 42.824C4.784 41.224 3.456 39.352 2.496 37.208C1.568 35.064 1.104 32.728 1.104 30.2C1.104 27.64 1.568 25.304 2.496 23.192C3.456 21.048 4.784 19.192 6.48 17.624C8.176 16.024 10.176 14.792 12.48 13.928C14.816 13.064 17.344 12.632 20.064 12.632C22.816 12.632 25.344 13.064 27.648 13.928C29.952 14.792 31.952 16.024 33.648 17.624C35.344 19.192 36.656 21.048 37.584 23.192C38.544 25.304 39.024 27.64 39.024 30.2C39.024 32.728 38.544 35.064 37.584 37.208C36.656 39.352 35.344 41.224 33.648 42.824C31.952 44.392 29.952 45.608 27.648 46.472C25.344 47.336 22.816 47.768 20.064 47.768ZM20.064 38.6C21.12 38.6 22.096 38.408 22.992 38.024C23.92 37.64 24.72 37.096 25.392 36.392C26.096 35.656 26.64 34.776 27.024 33.752C27.408 32.696 27.6 31.512 27.6 30.2C27.6 28.888 27.408 27.72 27.024 26.696C26.64 25.64 26.096 24.76 25.392 24.056C24.72 23.32 23.92 22.76 22.992 22.376C22.096 21.992 21.12 21.8 20.064 21.8C19.008 21.8 18.016 21.992 17.088 22.376C16.192 22.76 15.392 23.32 14.688 24.056C14.016 24.76 13.488 25.64 13.104 26.696C12.72 27.72 12.528 28.888 12.528 30.2C12.528 31.512 12.72 32.696 13.104 33.752C13.488 34.776 14.016 35.656 14.688 36.392C15.392 37.096 16.192 37.64 17.088 38.024C18.016 38.408 19.008 38.6 20.064 38.6ZM43.101 47V13.4H59.277C62.413 13.4 65.117 13.912 67.389 14.936C69.693 15.96 71.469 17.432 72.717 19.352C73.965 21.24 74.589 23.48 74.589 26.072C74.589 28.664 73.965 30.904 72.717 32.792C71.469 34.68 69.693 36.152 67.389 37.208C65.117 38.232 62.413 38.744 59.277 38.744H49.389L54.429 33.896V47H43.101ZM54.429 35.144L49.389 30.008H58.557C60.125 30.008 61.277 29.656 62.013 28.952C62.781 28.248 63.165 27.288 63.165 26.072C63.165 24.856 62.781 23.896 62.013 23.192C61.277 22.488 60.125 22.136 58.557 22.136H49.389L54.429 17V35.144ZM84.9049 47V19.736L87.3529 22.184H75.0649V13.4H105.881V22.184H93.5929L96.0409 19.736V47H84.9049Z" fill="#FEFEFE"/>
<path d="M97.016 47V34.184H100.16L105.32 43.28H104.072L109.496 34.184H112.304L112.328 47H109.616V37.4L110.096 37.712L105.296 45.656H104L99.176 37.496L99.752 37.352V47H97.016ZM124.128 47V44.408L123.96 43.856V39.32C123.96 38.44 123.696 37.76 123.168 37.28C122.64 36.784 121.84 36.536 120.768 36.536C120.048 36.536 119.336 36.648 118.632 36.872C117.944 37.096 117.36 37.408 116.88 37.808L115.704 35.624C116.392 35.096 117.208 34.704 118.152 34.448C119.112 34.176 120.104 34.04 121.128 34.04C122.984 34.04 124.416 34.488 125.424 35.384C126.448 36.264 126.96 37.632 126.96 39.488V47H124.128ZM120.096 47.168C119.136 47.168 118.296 47.008 117.576 46.688C116.856 46.352 116.296 45.896 115.896 45.32C115.512 44.728 115.32 44.064 115.32 43.328C115.32 42.608 115.488 41.96 115.824 41.384C116.176 40.808 116.744 40.352 117.528 40.016C118.312 39.68 119.352 39.512 120.648 39.512H124.368V41.504H120.864C119.84 41.504 119.152 41.672 118.8 42.008C118.448 42.328 118.272 42.728 118.272 43.208C118.272 43.752 118.488 44.184 118.92 44.504C119.352 44.824 119.952 44.984 120.72 44.984C121.456 44.984 122.112 44.816 122.688 44.48C123.28 44.144 123.704 43.648 123.96 42.992L124.464 44.792C124.176 45.544 123.656 46.128 122.904 46.544C122.168 46.96 121.232 47.168 120.096 47.168ZM136.504 47.168C135.16 47.168 133.96 46.888 132.904 46.328C131.864 45.752 131.048 44.968 130.456 43.976C129.864 42.984 129.568 41.856 129.568 40.592C129.568 39.312 129.864 38.184 130.456 37.208C131.048 36.216 131.864 35.44 132.904 34.88C133.96 34.32 135.16 34.04 136.504 34.04C137.752 34.04 138.848 34.296 139.792 34.808C140.752 35.304 141.48 36.04 141.976 37.016L139.672 38.36C139.288 37.752 138.816 37.304 138.256 37.016C137.712 36.728 137.12 36.584 136.48 36.584C135.744 36.584 135.08 36.744 134.488 37.064C133.896 37.384 133.432 37.848 133.096 38.456C132.76 39.048 132.592 39.76 132.592 40.592C132.592 41.424 132.76 42.144 133.096 42.752C133.432 43.344 133.896 43.8 134.488 44.12C135.08 44.44 135.744 44.6 136.48 44.6C137.12 44.6 137.712 44.456 138.256 44.168C138.816 43.88 139.288 43.432 139.672 42.824L141.976 44.168C141.48 45.128 140.752 45.872 139.792 46.4C138.848 46.912 137.752 47.168 136.504 47.168ZM147.188 47V36.008L147.884 36.728H142.676V34.184H154.676V36.728H149.492L150.188 36.008V47H147.188ZM162.265 47.168C160.841 47.168 159.593 46.888 158.521 46.328C157.465 45.752 156.641 44.968 156.049 43.976C155.473 42.984 155.185 41.856 155.185 40.592C155.185 39.312 155.465 38.184 156.025 37.208C156.601 36.216 157.385 35.44 158.377 34.88C159.385 34.32 160.529 34.04 161.809 34.04C163.057 34.04 164.169 34.312 165.145 34.856C166.121 35.4 166.889 36.168 167.449 37.16C168.009 38.152 168.289 39.32 168.289 40.664C168.289 40.792 168.281 40.936 168.265 41.096C168.265 41.256 168.257 41.408 168.241 41.552H157.561V39.56H166.657L165.481 40.184C165.497 39.448 165.345 38.8 165.025 38.24C164.705 37.68 164.265 37.24 163.705 36.92C163.161 36.6 162.529 36.44 161.809 36.44C161.073 36.44 160.425 36.6 159.865 36.92C159.321 37.24 158.889 37.688 158.569 38.264C158.265 38.824 158.113 39.488 158.113 40.256V40.736C158.113 41.504 158.289 42.184 158.641 42.776C158.993 43.368 159.489 43.824 160.129 44.144C160.769 44.464 161.505 44.624 162.337 44.624C163.057 44.624 163.705 44.512 164.281 44.288C164.857 44.064 165.369 43.712 165.817 43.232L167.425 45.08C166.849 45.752 166.121 46.272 165.241 46.64C164.377 46.992 163.385 47.168 162.265 47.168ZM178.675 47.168C177.635 47.168 176.683 46.928 175.819 46.448C174.971 45.968 174.291 45.248 173.779 44.288C173.283 43.312 173.035 42.08 173.035 40.592C173.035 39.088 173.275 37.856 173.755 36.896C174.251 35.936 174.923 35.224 175.771 34.76C176.619 34.28 177.587 34.04 178.675 34.04C179.939 34.04 181.051 34.312 182.011 34.856C182.987 35.4 183.755 36.16 184.315 37.136C184.891 38.112 185.179 39.264 185.179 40.592C185.179 41.92 184.891 43.08 184.315 44.072C183.755 45.048 182.987 45.808 182.011 46.352C181.051 46.896 179.939 47.168 178.675 47.168ZM171.571 51.656V34.184H174.427V37.208L174.331 40.616L174.571 44.024V51.656H171.571ZM178.339 44.6C179.059 44.6 179.699 44.44 180.259 44.12C180.835 43.8 181.291 43.336 181.627 42.728C181.963 42.12 182.131 41.408 182.131 40.592C182.131 39.76 181.963 39.048 181.627 38.456C181.291 37.848 180.835 37.384 180.259 37.064C179.699 36.744 179.059 36.584 178.339 36.584C177.619 36.584 176.971 36.744 176.395 37.064C175.819 37.384 175.363 37.848 175.027 38.456C174.691 39.048 174.523 39.76 174.523 40.592C174.523 41.408 174.691 42.12 175.027 42.728C175.363 43.336 175.819 43.8 176.395 44.12C176.971 44.44 177.619 44.6 178.339 44.6Z" fill="#0F0A1D"/>
</svg>
