<svg width="50" height="50" viewBox="0 0 50 50" fill="none" xmlns="http://www.w3.org/2000/svg">
<path opacity="0.7" d="M24.9998 46.8334C37.058 46.8334 46.8332 37.0582 46.8332 25.0001C46.8332 12.9419 37.0579 3.16675 24.9998 3.16675C12.9416 3.16675 3.1665 12.9419 3.1665 25.0001C3.1665 37.0582 12.9416 46.8334 24.9998 46.8334Z" fill="#47FFBF" stroke="#0F0A1D" stroke-width="2"/>
<path d="M35.0144 39.6067C32.1661 41.5633 28.7167 42.7083 24.9998 42.7083C21.283 42.7083 17.8336 41.5631 14.9852 39.6065C13.7272 38.7423 13.1896 37.0963 13.9211 35.7567C15.4374 32.9796 18.5618 31.25 24.9998 31.25C31.438 31.25 34.5623 32.9798 36.0786 35.7567C36.81 37.0963 36.2723 38.7425 35.0144 39.6067Z" fill="#0F0A1D"/>
<path d="M24.9999 25C28.4518 25 31.2499 22.2019 31.2499 18.75C31.2499 15.2982 28.4518 12.5 24.9999 12.5C21.5482 12.5 18.75 15.2982 18.75 18.75C18.75 22.2019 21.5482 25 24.9999 25Z" fill="#0F0A1D"/>
</svg>
