<svg width="174" height="36" viewBox="0 0 174 36" fill="none" xmlns="http://www.w3.org/2000/svg">
<path d="M15.071 31.344C12.0897 31.344 9.53833 30.8137 7.417 29.753C5.29567 28.6923 3.676 27.216 2.558 25.324C1.46867 23.4033 0.924 21.1817 0.924 18.659C0.924 16.165 1.354 13.8287 2.214 11.65C3.074 9.44267 4.30667 7.50767 5.912 5.845C7.51733 4.18233 9.438 2.89233 11.674 1.975C13.91 1.029 16.4183 0.556 19.199 0.556C22.209 0.556 24.7747 1.08633 26.896 2.147C29.0173 3.20767 30.6227 4.69833 31.712 6.619C32.83 8.511 33.389 10.7183 33.389 13.241C33.389 15.735 32.959 18.0857 32.099 20.293C31.239 22.4717 30.0063 24.3923 28.401 26.055C26.7957 27.7177 24.8607 29.022 22.596 29.968C20.36 30.8853 17.8517 31.344 15.071 31.344ZM15.458 27.517C17.522 27.517 19.3997 27.1587 21.091 26.442C22.7823 25.6967 24.2157 24.679 25.391 23.389C26.5663 22.0703 27.4693 20.5653 28.1 18.874C28.7307 17.1827 29.046 15.391 29.046 13.499C29.046 11.693 28.659 10.1163 27.885 8.769C27.111 7.393 25.9643 6.318 24.445 5.544C22.9257 4.77 21.0623 4.383 18.855 4.383C16.7623 4.383 14.8703 4.75567 13.179 5.501C11.5163 6.21767 10.083 7.23533 8.879 8.554C7.70367 9.844 6.80067 11.3347 6.17 13.026C5.53933 14.7173 5.224 16.509 5.224 18.401C5.224 20.207 5.611 21.798 6.385 23.174C7.18767 24.5213 8.33433 25.582 9.825 26.356C11.3443 27.13 13.222 27.517 15.458 27.517ZM37.0642 31L43.0842 0.899998H54.2642C57.7902 0.899998 60.5135 1.674 62.4342 3.222C64.3548 4.77 65.3152 6.93433 65.3152 9.715C65.3152 12.2663 64.7418 14.4593 63.5952 16.294C62.4772 18.1 60.8575 19.4903 58.7362 20.465C56.6148 21.411 54.1065 21.884 51.2112 21.884H41.3212L43.6002 19.82L41.3642 31H37.0642ZM43.5142 20.293L42.0092 18.143H51.2972C54.3645 18.143 56.7438 17.4693 58.4352 16.122C60.1552 14.746 61.0152 12.7393 61.0152 10.102C61.0152 8.296 60.3988 6.93433 59.1662 6.017C57.9335 5.09967 56.1705 4.641 53.8772 4.641H44.8042L47.0832 2.448L43.5142 20.293ZM72.9466 31L78.3646 3.523L79.2246 4.641H67.9586L68.6896 0.899998H93.5007L92.7696 4.641H81.3316L82.6216 3.523L77.2036 31H72.9466Z" fill="#0F3F42"/>
<path d="M91.1788 31L93.5108 19.34H95.6668L98.9448 27.964H98.0648L104.951 19.34H106.931L104.621 31H102.707L104.555 21.716L104.885 21.914L98.6368 29.68H97.7128L94.5668 21.76L94.9628 21.672L93.1148 31H91.1788ZM113.968 31.132C112.985 31.132 112.105 30.934 111.328 30.538C110.551 30.1273 109.935 29.548 109.48 28.8C109.04 28.052 108.82 27.15 108.82 26.094C108.82 25.0967 108.981 24.18 109.304 23.344C109.641 22.508 110.103 21.782 110.69 21.166C111.291 20.55 111.995 20.0733 112.802 19.736C113.609 19.3987 114.481 19.23 115.42 19.23C116.432 19.23 117.29 19.406 117.994 19.758C118.698 20.11 119.241 20.6307 119.622 21.32C120.003 21.9947 120.194 22.8233 120.194 23.806C120.194 25.2433 119.945 26.5193 119.446 27.634C118.947 28.734 118.229 29.592 117.29 30.208C116.366 30.824 115.259 31.132 113.968 31.132ZM114.43 29.284C115.31 29.284 116.095 29.0713 116.784 28.646C117.473 28.2207 118.009 27.6413 118.39 26.908C118.786 26.16 118.984 25.3093 118.984 24.356C118.984 23.3293 118.683 22.53 118.082 21.958C117.481 21.3713 116.623 21.078 115.508 21.078C114.643 21.078 113.865 21.2907 113.176 21.716C112.487 22.1267 111.944 22.706 111.548 23.454C111.152 24.1873 110.954 25.038 110.954 26.006C110.954 27.018 111.255 27.8173 111.856 28.404C112.457 28.9907 113.315 29.284 114.43 29.284ZM117.796 31L118.412 27.986L119.116 25.28L119.402 22.508L120.018 19.34H122.13L119.82 31H117.796ZM129.553 31.132C128.424 31.132 127.441 30.9267 126.605 30.516C125.784 30.0907 125.146 29.504 124.691 28.756C124.236 27.9933 124.009 27.106 124.009 26.094C124.009 24.774 124.302 23.6007 124.889 22.574C125.476 21.5327 126.29 20.7187 127.331 20.132C128.372 19.5307 129.553 19.23 130.873 19.23C132.002 19.23 132.97 19.4427 133.777 19.868C134.584 20.2787 135.214 20.9093 135.669 21.76L133.887 22.75C133.594 22.178 133.176 21.76 132.633 21.496C132.105 21.2173 131.467 21.078 130.719 21.078C129.839 21.078 129.054 21.2907 128.365 21.716C127.676 22.1267 127.133 22.706 126.737 23.454C126.341 24.1873 126.143 25.038 126.143 26.006C126.143 27.018 126.444 27.8173 127.045 28.404C127.661 28.9907 128.526 29.284 129.641 29.284C130.33 29.284 130.976 29.1447 131.577 28.866C132.193 28.5873 132.706 28.1767 133.117 27.634L134.657 28.734C134.129 29.482 133.41 30.0687 132.501 30.494C131.592 30.9193 130.609 31.132 129.553 31.132ZM138.95 31L140.974 20.638L141.37 21.188H136.64L136.992 19.34H147.64L147.288 21.188H142.47L143.086 20.638L141.062 31H138.95ZM152.65 31.132C151.506 31.132 150.516 30.9267 149.68 30.516C148.844 30.0907 148.199 29.504 147.744 28.756C147.29 27.9933 147.062 27.0987 147.062 26.072C147.062 24.752 147.348 23.5787 147.92 22.552C148.492 21.5253 149.27 20.7187 150.252 20.132C151.25 19.5307 152.379 19.23 153.64 19.23C154.696 19.23 155.613 19.4353 156.39 19.846C157.168 20.242 157.769 20.814 158.194 21.562C158.634 22.31 158.854 23.212 158.854 24.268C158.854 24.532 158.84 24.8033 158.81 25.082C158.781 25.346 158.744 25.5953 158.7 25.83H148.602L148.866 24.29H157.688L156.83 24.818C156.962 23.9967 156.904 23.3073 156.654 22.75C156.405 22.178 156.009 21.7453 155.466 21.452C154.938 21.144 154.3 20.99 153.552 20.99C152.672 20.99 151.895 21.2027 151.22 21.628C150.56 22.0387 150.047 22.618 149.68 23.366C149.314 24.0993 149.13 24.9647 149.13 25.962C149.13 27.018 149.431 27.8393 150.032 28.426C150.648 28.998 151.58 29.284 152.826 29.284C153.56 29.284 154.242 29.1667 154.872 28.932C155.503 28.6827 156.024 28.3527 156.434 27.942L157.336 29.46C156.779 30.0027 156.082 30.4207 155.246 30.714C154.41 30.9927 153.545 31.132 152.65 31.132ZM167.391 31.132C166.394 31.132 165.536 30.956 164.817 30.604C164.113 30.2373 163.571 29.7167 163.189 29.042C162.808 28.3527 162.617 27.524 162.617 26.556C162.617 25.0893 162.867 23.8133 163.365 22.728C163.864 21.628 164.575 20.77 165.499 20.154C166.438 19.538 167.553 19.23 168.843 19.23C169.841 19.23 170.721 19.428 171.483 19.824C172.261 20.22 172.869 20.7993 173.309 21.562C173.764 22.31 173.991 23.2047 173.991 24.246C173.991 25.2433 173.823 26.16 173.485 26.996C173.163 27.832 172.701 28.558 172.099 29.174C171.513 29.79 170.816 30.274 170.009 30.626C169.203 30.9633 168.33 31.132 167.391 31.132ZM159.823 35.268L162.991 19.34H165.015L164.399 22.354L163.717 25.06L163.409 27.832L161.935 35.268H159.823ZM167.303 29.284C168.183 29.284 168.961 29.0713 169.635 28.646C170.325 28.2207 170.867 27.6413 171.263 26.908C171.659 26.16 171.857 25.3093 171.857 24.356C171.857 23.3293 171.557 22.53 170.955 21.958C170.354 21.3713 169.496 21.078 168.381 21.078C167.516 21.078 166.731 21.2907 166.027 21.716C165.338 22.1267 164.795 22.706 164.399 23.454C164.018 24.1873 163.827 25.038 163.827 26.006C163.827 27.018 164.128 27.8173 164.729 28.404C165.331 28.9907 166.189 29.284 167.303 29.284Z" fill="#BDDDDF"/>
</svg>
