<svg width="378" height="369" viewBox="0 0 378 369" fill="none" xmlns="http://www.w3.org/2000/svg">
<rect width="378" height="369" rx="16" fill="#4699FF"/>
<path d="M25.096 61L34.888 38.6H42.312L52.104 61H44.296L37.064 42.184H40.008L32.776 61H25.096ZM30.92 57.096L32.84 51.656H43.144L45.064 57.096H30.92ZM65.9795 61L61.1795 52.968L67.0035 49.576L74.4915 61H65.9795ZM53.8835 61V43.496H61.1155V61H53.8835ZM59.0035 55.176V49.64H65.5315V55.176H59.0035ZM67.7395 53.032L60.9555 52.392L66.5235 43.496H74.1395L67.7395 53.032ZM80.1343 61V47.592L81.7023 49.128H74.7903V43.496H92.6783V49.128H85.7663L87.3343 47.592V61H80.1343ZM94.7585 61V43.496H101.959V51.4L108.007 43.496H114.663V61H107.463V53.064L101.447 61H94.7585ZM118.04 61V43.496H127.864C130.21 43.496 132.034 43.9013 133.336 44.712C134.637 45.5013 135.288 46.6213 135.288 48.072C135.288 49.48 134.69 50.6107 133.496 51.464C132.301 52.296 130.69 52.712 128.664 52.712L129.208 51.24C131.362 51.24 132.994 51.6347 134.104 52.424C135.234 53.2133 135.8 54.3653 135.8 55.88C135.8 57.4373 135.181 58.6853 133.944 59.624C132.728 60.5413 130.872 61 128.376 61H118.04ZM124.376 56.52H127.736C128.269 56.52 128.664 56.4027 128.92 56.168C129.176 55.9333 129.304 55.6133 129.304 55.208C129.304 54.7813 129.176 54.472 128.92 54.28C128.664 54.0667 128.269 53.96 127.736 53.96H124.376V56.52ZM124.376 50.408H127.224C127.778 50.408 128.173 50.3013 128.408 50.088C128.664 49.8747 128.792 49.5653 128.792 49.16C128.792 48.7333 128.664 48.4347 128.408 48.264C128.173 48.072 127.778 47.976 127.224 47.976H124.376V50.408ZM138.165 61V43.496H145.365V49.64H150.293V43.496H157.493V61H150.293V55.304H145.365V61H138.165ZM169.908 61.32C167.924 61.32 166.164 60.936 164.628 60.168C163.113 59.3787 161.918 58.3013 161.044 56.936C160.169 55.5707 159.732 54.0027 159.732 52.232C159.732 50.4613 160.169 48.8933 161.044 47.528C161.918 46.1627 163.113 45.096 164.628 44.328C166.164 43.56 167.924 43.176 169.908 43.176C171.892 43.176 173.652 43.56 175.188 44.328C176.724 45.096 177.918 46.1627 178.772 47.528C179.646 48.8933 180.084 50.4613 180.084 52.232C180.084 54.0027 179.646 55.5707 178.772 56.936C177.918 58.3013 176.724 59.3787 175.188 60.168C173.652 60.936 171.892 61.32 169.908 61.32ZM169.908 55.688C170.441 55.688 170.921 55.56 171.348 55.304C171.774 55.048 172.116 54.664 172.372 54.152C172.628 53.6187 172.756 52.9787 172.756 52.232C172.756 51.464 172.628 50.8347 172.372 50.344C172.116 49.832 171.774 49.448 171.348 49.192C170.921 48.936 170.441 48.808 169.908 48.808C169.374 48.808 168.894 48.936 168.468 49.192C168.041 49.448 167.7 49.832 167.444 50.344C167.188 50.8347 167.06 51.464 167.06 52.232C167.06 52.9787 167.188 53.6187 167.444 54.152C167.7 54.664 168.041 55.048 168.468 55.304C168.894 55.56 169.374 55.688 169.908 55.688ZM191.505 61.32C189.5 61.32 187.718 60.936 186.161 60.168C184.604 59.4 183.377 58.3333 182.481 56.968C181.606 55.5813 181.169 54.0027 181.169 52.232C181.169 50.4613 181.606 48.8933 182.481 47.528C183.377 46.1627 184.604 45.096 186.161 44.328C187.718 43.56 189.5 43.176 191.505 43.176C193.638 43.176 195.462 43.6347 196.977 44.552C198.492 45.4693 199.537 46.7387 200.113 48.36L194.513 51.112C194.15 50.3013 193.702 49.7147 193.169 49.352C192.657 48.9893 192.092 48.808 191.473 48.808C190.94 48.808 190.438 48.936 189.969 49.192C189.521 49.448 189.158 49.832 188.881 50.344C188.625 50.8347 188.497 51.464 188.497 52.232C188.497 53 188.625 53.64 188.881 54.152C189.158 54.664 189.521 55.048 189.969 55.304C190.438 55.56 190.94 55.688 191.473 55.688C192.092 55.688 192.657 55.5067 193.169 55.144C193.702 54.7813 194.15 54.1947 194.513 53.384L200.113 56.136C199.537 57.7573 198.492 59.0267 196.977 59.944C195.462 60.8613 193.638 61.32 191.505 61.32ZM206.291 61V47.592L207.859 49.128H200.947V43.496H218.835V49.128H211.923L213.491 47.592V61H206.291ZM231.987 48.776C234.333 48.776 236.136 49.288 237.395 50.312C238.653 51.336 239.283 52.7867 239.283 54.664C239.283 56.6267 238.547 58.1733 237.075 59.304C235.624 60.4347 233.629 61 231.091 61H220.915V43.496H228.115V48.776H231.987ZM230.355 56.136C230.845 56.136 231.229 56.008 231.507 55.752C231.784 55.496 231.923 55.0907 231.923 54.536C231.923 53.9813 231.784 53.5867 231.507 53.352C231.229 53.1173 230.845 53 230.355 53H228.115V56.136H230.355Z" fill="white"/>
<path d="M60.832 122V105.2H62.296L69.976 118.304H69.208L76.816 105.2H78.28V122H76.576V107.864H76.984L69.976 119.864H69.136L62.08 107.864H62.536V122H60.832ZM91.3574 122V119.216L91.2854 118.76V114.104C91.2854 113.032 90.9814 112.208 90.3734 111.632C89.7814 111.056 88.8934 110.768 87.7094 110.768C86.8934 110.768 86.1174 110.904 85.3814 111.176C84.6454 111.448 84.0214 111.808 83.5094 112.256L82.7414 110.984C83.3814 110.44 84.1494 110.024 85.0454 109.736C85.9414 109.432 86.8854 109.28 87.8774 109.28C89.5094 109.28 90.7654 109.688 91.6454 110.504C92.5414 111.304 92.9894 112.528 92.9894 114.176V122H91.3574ZM87.0134 122.12C86.0694 122.12 85.2454 121.968 84.5414 121.664C83.8534 121.344 83.3254 120.912 82.9574 120.368C82.5894 119.808 82.4054 119.168 82.4054 118.448C82.4054 117.792 82.5574 117.2 82.8614 116.672C83.1814 116.128 83.6934 115.696 84.3974 115.376C85.1174 115.04 86.0774 114.872 87.2774 114.872H91.6214V116.144H87.3254C86.1094 116.144 85.2614 116.36 84.7814 116.792C84.3174 117.224 84.0854 117.76 84.0854 118.4C84.0854 119.12 84.3654 119.696 84.9254 120.128C85.4854 120.56 86.2694 120.776 87.2774 120.776C88.2374 120.776 89.0614 120.56 89.7494 120.128C90.4534 119.68 90.9654 119.04 91.2854 118.208L91.6694 119.384C91.3494 120.216 90.7894 120.88 89.9894 121.376C89.2054 121.872 88.2134 122.12 87.0134 122.12ZM104.03 122.12C102.942 122.12 101.958 121.872 101.078 121.376C100.198 120.864 99.4936 120.136 98.9656 119.192C98.4536 118.232 98.1976 117.064 98.1976 115.688C98.1976 114.312 98.4536 113.152 98.9656 112.208C99.4776 111.248 100.174 110.52 101.054 110.024C101.934 109.528 102.926 109.28 104.03 109.28C105.23 109.28 106.302 109.552 107.246 110.096C108.206 110.624 108.958 111.376 109.502 112.352C110.046 113.312 110.318 114.424 110.318 115.688C110.318 116.968 110.046 118.088 109.502 119.048C108.958 120.008 108.206 120.76 107.246 121.304C106.302 121.848 105.23 122.12 104.03 122.12ZM97.5256 126.656V109.4H99.1576V113.192L98.9896 115.712L99.2296 118.256V126.656H97.5256ZM103.91 120.608C104.806 120.608 105.606 120.408 106.31 120.008C107.014 119.592 107.574 119.016 107.99 118.28C108.406 117.528 108.614 116.664 108.614 115.688C108.614 114.712 108.406 113.856 107.99 113.12C107.574 112.384 107.014 111.808 106.31 111.392C105.606 110.976 104.806 110.768 103.91 110.768C103.014 110.768 102.206 110.976 101.486 111.392C100.782 111.808 100.222 112.384 99.8056 113.12C99.4056 113.856 99.2056 114.712 99.2056 115.688C99.2056 116.664 99.4056 117.528 99.8056 118.28C100.222 119.016 100.782 119.592 101.486 120.008C102.206 120.408 103.014 120.608 103.91 120.608ZM115.91 122V110.432L116.342 110.888H111.134V109.4H122.39V110.888H117.182L117.614 110.432V122H115.91Z" fill="#FEFEFE"/>
<path d="M208.36 122L216.04 105.2H217.792L225.472 122H223.6L216.544 106.232H217.264L210.208 122H208.36ZM211.384 117.512L211.912 116.072H221.68L222.208 117.512H211.384ZM228.283 122V109.4H239.611V122H237.907V110.432L238.339 110.888H229.555L229.987 110.432V122H228.283ZM250.959 122.12C249.871 122.12 248.887 121.872 248.007 121.376C247.127 120.864 246.423 120.136 245.895 119.192C245.383 118.232 245.127 117.064 245.127 115.688C245.127 114.312 245.383 113.152 245.895 112.208C246.407 111.248 247.103 110.52 247.983 110.024C248.863 109.528 249.855 109.28 250.959 109.28C252.159 109.28 253.231 109.552 254.175 110.096C255.135 110.624 255.887 111.376 256.431 112.352C256.975 113.312 257.247 114.424 257.247 115.688C257.247 116.968 256.975 118.088 256.431 119.048C255.887 120.008 255.135 120.76 254.175 121.304C253.231 121.848 252.159 122.12 250.959 122.12ZM244.455 126.656V109.4H246.087V113.192L245.919 115.712L246.159 118.256V126.656H244.455ZM250.839 120.608C251.735 120.608 252.535 120.408 253.239 120.008C253.943 119.592 254.503 119.016 254.919 118.28C255.335 117.528 255.543 116.664 255.543 115.688C255.543 114.712 255.335 113.856 254.919 113.12C254.503 112.384 253.943 111.808 253.239 111.392C252.535 110.976 251.735 110.768 250.839 110.768C249.943 110.768 249.135 110.976 248.415 111.392C247.711 111.808 247.151 112.384 246.735 113.12C246.335 113.856 246.135 114.712 246.135 115.688C246.135 116.664 246.335 117.528 246.735 118.28C247.151 119.016 247.711 119.592 248.415 120.008C249.135 120.408 249.943 120.608 250.839 120.608ZM266.308 122.12C264.996 122.12 263.844 121.848 262.852 121.304C261.86 120.744 261.084 119.984 260.524 119.024C259.964 118.048 259.684 116.936 259.684 115.688C259.684 114.44 259.948 113.336 260.476 112.376C261.02 111.416 261.756 110.664 262.684 110.12C263.628 109.56 264.684 109.28 265.852 109.28C267.036 109.28 268.084 109.552 268.996 110.096C269.924 110.624 270.652 111.376 271.18 112.352C271.708 113.312 271.972 114.424 271.972 115.688C271.972 115.768 271.964 115.856 271.948 115.952C271.948 116.032 271.948 116.12 271.948 116.216H260.98V114.944H271.036L270.364 115.448C270.364 114.536 270.164 113.728 269.764 113.024C269.38 112.304 268.852 111.744 268.18 111.344C267.508 110.944 266.732 110.744 265.852 110.744C264.988 110.744 264.212 110.944 263.524 111.344C262.836 111.744 262.3 112.304 261.916 113.024C261.532 113.744 261.34 114.568 261.34 115.496V115.76C261.34 116.72 261.548 117.568 261.964 118.304C262.396 119.024 262.988 119.592 263.74 120.008C264.508 120.408 265.38 120.608 266.356 120.608C267.124 120.608 267.836 120.472 268.492 120.2C269.164 119.928 269.74 119.512 270.22 118.952L271.18 120.056C270.62 120.728 269.916 121.24 269.068 121.592C268.236 121.944 267.316 122.12 266.308 122.12ZM273.183 121.976L273.303 120.512C273.415 120.528 273.519 120.552 273.615 120.584C273.727 120.6 273.823 120.608 273.903 120.608C274.415 120.608 274.823 120.416 275.127 120.032C275.447 119.648 275.687 119.136 275.847 118.496C276.007 117.856 276.119 117.136 276.183 116.336C276.247 115.52 276.303 114.704 276.351 113.888L276.567 109.4H285.807V122H284.103V110.384L284.535 110.888H277.671L278.079 110.36L277.887 114.008C277.839 115.096 277.751 116.136 277.623 117.128C277.511 118.12 277.327 118.992 277.071 119.744C276.831 120.496 276.495 121.088 276.062 121.52C275.631 121.936 275.079 122.144 274.407 122.144C274.215 122.144 274.015 122.128 273.807 122.096C273.615 122.064 273.407 122.024 273.183 121.976ZM296.075 113.84C297.659 113.856 298.859 114.208 299.675 114.896C300.507 115.584 300.923 116.576 300.923 117.872C300.923 119.216 300.475 120.248 299.579 120.968C298.699 121.688 297.419 122.04 295.739 122.024L290.651 122V109.4H292.355V113.792L296.075 113.84ZM295.643 120.728C296.811 120.744 297.691 120.512 298.283 120.032C298.891 119.536 299.195 118.816 299.195 117.872C299.195 116.928 298.899 116.24 298.307 115.808C297.715 115.36 296.827 115.128 295.643 115.112L292.355 115.064V120.68L295.643 120.728Z" fill="#FEFEFE"/>
<path d="M26.36 153V139H38.14V153H36.68V139.88L37.06 140.28H27.44L27.82 139.88V153H26.36ZM42.5239 153V142.5H43.9439V147.14H50.5639V142.5H51.9839V153H50.5639V148.36H43.9439V153H42.5239Z" fill="#FEFEFE"/>
<path d="M26.36 183V169H32.18C33.66 169 34.82 169.307 35.66 169.92C36.5133 170.52 36.94 171.407 36.94 172.58C36.94 173.74 36.5333 174.62 35.72 175.22C34.9067 175.807 33.84 176.1 32.52 176.1L32.86 175.6C34.42 175.6 35.6067 175.907 36.42 176.52C37.2333 177.133 37.64 178.033 37.64 179.22C37.64 180.42 37.2133 181.353 36.36 182.02C35.52 182.673 34.2533 183 32.56 183H26.36ZM27.82 181.82H32.56C33.7467 181.82 34.6467 181.6 35.26 181.16C35.8733 180.72 36.18 180.04 36.18 179.12C36.18 178.213 35.8733 177.547 35.26 177.12C34.6467 176.693 33.7467 176.48 32.56 176.48H27.82V181.82ZM27.82 175.34H32.1C33.18 175.34 34.0067 175.127 34.58 174.7C35.1667 174.26 35.46 173.613 35.46 172.76C35.46 171.907 35.1667 171.267 34.58 170.84C34.0067 170.4 33.18 170.18 32.1 170.18H27.82V175.34ZM43.0005 183V173.36L43.3605 173.74H39.0205V172.5H48.4005V173.74H44.0605L44.4205 173.36V183H43.0005Z" fill="#FEFEFE"/>
<path d="M32.48 213.12C31.4267 213.12 30.4533 212.947 29.56 212.6C28.6667 212.24 27.8933 211.74 27.24 211.1C26.5867 210.46 26.0733 209.707 25.7 208.84C25.34 207.973 25.16 207.027 25.16 206C25.16 204.973 25.34 204.027 25.7 203.16C26.0733 202.293 26.5867 201.54 27.24 200.9C27.9067 200.26 28.6867 199.767 29.58 199.42C30.4733 199.06 31.4467 198.88 32.5 198.88C33.5133 198.88 34.4667 199.053 35.36 199.4C36.2533 199.733 37.0067 200.24 37.62 200.92L36.68 201.86C36.1067 201.273 35.4733 200.853 34.78 200.6C34.0867 200.333 33.34 200.2 32.54 200.2C31.7 200.2 30.92 200.347 30.2 200.64C29.48 200.92 28.8533 201.327 28.32 201.86C27.7867 202.38 27.3667 202.993 27.06 203.7C26.7667 204.393 26.62 205.16 26.62 206C26.62 206.84 26.7667 207.613 27.06 208.32C27.3667 209.013 27.7867 209.627 28.32 210.16C28.8533 210.68 29.48 211.087 30.2 211.38C30.92 211.66 31.7 211.8 32.54 211.8C33.34 211.8 34.0867 211.667 34.78 211.4C35.4733 211.133 36.1067 210.707 36.68 210.12L37.62 211.06C37.0067 211.74 36.2533 212.253 35.36 212.6C34.4667 212.947 33.5067 213.12 32.48 213.12ZM45.7564 213.1C44.8497 213.1 44.0297 212.893 43.2964 212.48C42.5631 212.053 41.9764 211.447 41.5364 210.66C41.1097 209.86 40.8964 208.887 40.8964 207.74C40.8964 206.593 41.1097 205.627 41.5364 204.84C41.9631 204.04 42.5431 203.433 43.2764 203.02C44.0097 202.607 44.8364 202.4 45.7564 202.4C46.7564 202.4 47.6497 202.627 48.4364 203.08C49.2364 203.52 49.8631 204.147 50.3164 204.96C50.7697 205.76 50.9964 206.687 50.9964 207.74C50.9964 208.807 50.7697 209.74 50.3164 210.54C49.8631 211.34 49.2364 211.967 48.4364 212.42C47.6497 212.873 46.7564 213.1 45.7564 213.1ZM40.3364 216.88V202.5H41.6964V205.66L41.5564 207.76L41.7564 209.88V216.88H40.3364ZM45.6564 211.84C46.4031 211.84 47.0697 211.673 47.6564 211.34C48.2431 210.993 48.7097 210.513 49.0564 209.9C49.4031 209.273 49.5764 208.553 49.5764 207.74C49.5764 206.927 49.4031 206.213 49.0564 205.6C48.7097 204.987 48.2431 204.507 47.6564 204.16C47.0697 203.813 46.4031 203.64 45.6564 203.64C44.9097 203.64 44.2364 203.813 43.6364 204.16C43.0497 204.507 42.5831 204.987 42.2364 205.6C41.9031 206.213 41.7364 206.927 41.7364 207.74C41.7364 208.553 41.9031 209.273 42.2364 209.9C42.5831 210.513 43.0497 210.993 43.6364 211.34C44.2364 211.673 44.9097 211.84 45.6564 211.84Z" fill="#FEFEFE"/>
<path d="M35.06 237.08C34.26 237.44 33.46 237.713 32.66 237.9C31.8733 238.087 31.1133 238.18 30.38 238.18C28.74 238.18 27.46 237.787 26.54 237C25.6333 236.2 25.18 235.073 25.18 233.62V229H26.64V233.46C26.64 234.54 26.98 235.38 27.66 235.98C28.3533 236.58 29.3067 236.88 30.52 236.88C31.24 236.88 31.9867 236.787 32.76 236.6C33.5333 236.4 34.3 236.12 35.06 235.76V237.08ZM34.8 243V229H36.24V243H34.8ZM42.6489 243V233.36L43.0089 233.74H38.6689V232.5H48.0489V233.74H43.7089L44.0689 233.36V243H42.6489Z" fill="#FEFEFE"/>
<path d="M26.36 273V259H38.14V273H36.68V259.88L37.06 260.28H27.44L27.82 259.88V273H26.36ZM44.5239 273V263.36L44.8839 263.74H40.5439V262.5H49.9239V263.74H45.5839L45.9439 263.36V273H44.5239Z" fill="#FEFEFE"/>
<path d="M32.48 303.12C31.4267 303.12 30.4533 302.947 29.56 302.6C28.6667 302.24 27.8933 301.74 27.24 301.1C26.5867 300.46 26.0733 299.707 25.7 298.84C25.34 297.973 25.16 297.027 25.16 296C25.16 294.973 25.34 294.027 25.7 293.16C26.0733 292.293 26.5867 291.54 27.24 290.9C27.9067 290.26 28.6867 289.767 29.58 289.42C30.4733 289.06 31.4467 288.88 32.5 288.88C33.5133 288.88 34.4667 289.053 35.36 289.4C36.2533 289.733 37.0067 290.24 37.62 290.92L36.68 291.86C36.1067 291.273 35.4733 290.853 34.78 290.6C34.0867 290.333 33.34 290.2 32.54 290.2C31.7 290.2 30.92 290.347 30.2 290.64C29.48 290.92 28.8533 291.327 28.32 291.86C27.7867 292.38 27.3667 292.993 27.06 293.7C26.7667 294.393 26.62 295.16 26.62 296C26.62 296.84 26.7667 297.613 27.06 298.32C27.3667 299.013 27.7867 299.627 28.32 300.16C28.8533 300.68 29.48 301.087 30.2 301.38C30.92 301.66 31.7 301.8 32.54 301.8C33.34 301.8 34.0867 301.667 34.78 301.4C35.4733 301.133 36.1067 300.707 36.68 300.12L37.62 301.06C37.0067 301.74 36.2533 302.253 35.36 302.6C34.4667 302.947 33.5067 303.12 32.48 303.12ZM44.7634 303.12C43.9101 303.12 43.1501 302.98 42.4834 302.7C41.8301 302.42 41.2701 301.993 40.8034 301.42C40.3368 300.847 39.9834 300.14 39.7434 299.3C39.5034 298.447 39.3834 297.46 39.3834 296.34C39.3834 295.34 39.4768 294.467 39.6634 293.72C39.8501 292.96 40.1101 292.307 40.4434 291.76C40.7768 291.213 41.1634 290.753 41.6034 290.38C42.0568 289.993 42.5434 289.687 43.0634 289.46C43.5968 289.22 44.1434 289.04 44.7034 288.92L49.4234 287.82L49.6634 289.14L45.2234 290.14C44.9434 290.207 44.6034 290.3 44.2034 290.42C43.8168 290.54 43.4168 290.72 43.0034 290.96C42.6034 291.2 42.2301 291.533 41.8834 291.96C41.5368 292.387 41.2568 292.94 41.0434 293.62C40.8434 294.287 40.7434 295.12 40.7434 296.12C40.7434 296.333 40.7501 296.507 40.7634 296.64C40.7768 296.76 40.7901 296.893 40.8034 297.04C40.8301 297.173 40.8501 297.373 40.8634 297.64L40.2434 297.12C40.3901 296.307 40.6901 295.6 41.1434 295C41.5968 294.387 42.1634 293.913 42.8434 293.58C43.5368 293.233 44.3034 293.06 45.1434 293.06C46.1168 293.06 46.9834 293.273 47.7434 293.7C48.5034 294.113 49.0968 294.693 49.5234 295.44C49.9634 296.187 50.1834 297.053 50.1834 298.04C50.1834 299.013 49.9568 299.887 49.5034 300.66C49.0634 301.433 48.4368 302.04 47.6234 302.48C46.8101 302.907 45.8568 303.12 44.7634 303.12ZM44.9234 301.94C45.6701 301.94 46.3301 301.773 46.9034 301.44C47.4768 301.093 47.9234 300.627 48.2434 300.04C48.5768 299.453 48.7434 298.793 48.7434 298.06C48.7434 297.34 48.5768 296.7 48.2434 296.14C47.9234 295.58 47.4768 295.14 46.9034 294.82C46.3301 294.487 45.6634 294.32 44.9034 294.32C44.1568 294.32 43.4968 294.48 42.9234 294.8C42.3501 295.107 41.8968 295.54 41.5634 296.1C41.2434 296.66 41.0834 297.307 41.0834 298.04C41.0834 298.773 41.2434 299.433 41.5634 300.02C41.8968 300.607 42.3501 301.073 42.9234 301.42C43.5101 301.767 44.1768 301.94 44.9234 301.94Z" fill="#FEFEFE"/>
<path d="M26.36 333V319H32.18C33.66 319 34.82 319.307 35.66 319.92C36.5133 320.52 36.94 321.407 36.94 322.58C36.94 323.74 36.5333 324.62 35.72 325.22C34.9067 325.807 33.84 326.1 32.52 326.1L32.86 325.6C34.42 325.6 35.6067 325.907 36.42 326.52C37.2333 327.133 37.64 328.033 37.64 329.22C37.64 330.42 37.2133 331.353 36.36 332.02C35.52 332.673 34.2533 333 32.56 333H26.36ZM27.82 331.82H32.56C33.7467 331.82 34.6467 331.6 35.26 331.16C35.8733 330.72 36.18 330.04 36.18 329.12C36.18 328.213 35.8733 327.547 35.26 327.12C34.6467 326.693 33.7467 326.48 32.56 326.48H27.82V331.82ZM27.82 325.34H32.1C33.18 325.34 34.0067 325.127 34.58 324.7C35.1667 324.26 35.46 323.613 35.46 322.76C35.46 321.907 35.1667 321.267 34.58 320.84C34.0067 320.4 33.18 320.18 32.1 320.18H27.82V325.34ZM45.4005 333.1C44.3605 333.1 43.4271 332.873 42.6005 332.42C41.7871 331.953 41.1471 331.32 40.6805 330.52C40.2138 329.707 39.9805 328.78 39.9805 327.74C39.9805 326.687 40.2138 325.76 40.6805 324.96C41.1471 324.16 41.7871 323.533 42.6005 323.08C43.4271 322.627 44.3605 322.4 45.4005 322.4C46.2938 322.4 47.1005 322.573 47.8205 322.92C48.5405 323.267 49.1071 323.787 49.5205 324.48L48.4605 325.2C48.1005 324.667 47.6538 324.273 47.1205 324.02C46.5871 323.767 46.0071 323.64 45.3805 323.64C44.6338 323.64 43.9605 323.813 43.3605 324.16C42.7605 324.493 42.2871 324.967 41.9405 325.58C41.5938 326.193 41.4205 326.913 41.4205 327.74C41.4205 328.567 41.5938 329.287 41.9405 329.9C42.2871 330.513 42.7605 330.993 43.3605 331.34C43.9605 331.673 44.6338 331.84 45.3805 331.84C46.0071 331.84 46.5871 331.713 47.1205 331.46C47.6538 331.207 48.1005 330.82 48.4605 330.3L49.5205 331.02C49.1071 331.7 48.5405 332.22 47.8205 332.58C47.1005 332.927 46.2938 333.1 45.4005 333.1Z" fill="#FEFEFE"/>
<rect x="83" y="134" width="25" height="25" rx="4" transform="rotate(90 83 134)" fill="#EFEFEF"/>
<rect x="83" y="164" width="25" height="25" rx="4" transform="rotate(90 83 164)" fill="#EFEFEF"/>
<rect x="83" y="194" width="25" height="25" rx="4" transform="rotate(90 83 194)" fill="#EFEFEF"/>
<rect x="83" y="224" width="25" height="25" rx="4" transform="rotate(90 83 224)" fill="#EFEFEF"/>
<rect x="83" y="254" width="25" height="25" rx="4" transform="rotate(90 83 254)" fill="#00D78C"/>
<rect x="83" y="284" width="25" height="25" rx="4" transform="rotate(90 83 284)" fill="#EFEFEF"/>
<rect x="83" y="314" width="25" height="25" rx="4" transform="rotate(90 83 314)" fill="#EFEFEF"/>
<rect x="113" y="134" width="25" height="25" rx="4" transform="rotate(90 113 134)" fill="#EFEFEF"/>
<rect x="113" y="164" width="25" height="25" rx="4" transform="rotate(90 113 164)" fill="#EFEFEF"/>
<rect x="113" y="194" width="25" height="25" rx="4" transform="rotate(90 113 194)" fill="#EFEFEF"/>
<rect x="113" y="224" width="25" height="25" rx="4" transform="rotate(90 113 224)" fill="#EFEFEF"/>
<rect x="113" y="254" width="25" height="25" rx="4" transform="rotate(90 113 254)" fill="#EFEFEF"/>
<rect x="113" y="284" width="25" height="25" rx="4" transform="rotate(90 113 284)" fill="#EFEFEF"/>
<rect x="113" y="314" width="25" height="25" rx="4" transform="rotate(90 113 314)" fill="#EFEFEF"/>
<rect x="143" y="134" width="25" height="25" rx="4" transform="rotate(90 143 134)" fill="#EFEFEF"/>
<rect x="143" y="164" width="25" height="25" rx="4" transform="rotate(90 143 164)" fill="#EFEFEF"/>
<rect x="143" y="194" width="25" height="25" rx="4" transform="rotate(90 143 194)" fill="#EFEFEF"/>
<rect x="143" y="224" width="25" height="25" rx="4" transform="rotate(90 143 224)" fill="#EFEFEF"/>
<rect x="143" y="254" width="25" height="25" rx="4" transform="rotate(90 143 254)" fill="#EFEFEF"/>
<rect x="143" y="284" width="25" height="25" rx="4" transform="rotate(90 143 284)" fill="#EFEFEF"/>
<rect x="143" y="314" width="25" height="25" rx="4" transform="rotate(90 143 314)" fill="#EFEFEF"/>
<rect x="173" y="134" width="25" height="25" rx="4" transform="rotate(90 173 134)" fill="#EFEFEF"/>
<rect x="173" y="164" width="25" height="25" rx="4" transform="rotate(90 173 164)" fill="#EFEFEF"/>
<rect x="173" y="194" width="25" height="25" rx="4" transform="rotate(90 173 194)" fill="#EFEFEF"/>
<rect x="173" y="224" width="25" height="25" rx="4" transform="rotate(90 173 224)" fill="#EFEFEF"/>
<rect x="173" y="254" width="25" height="25" rx="4" transform="rotate(90 173 254)" fill="#EFEFEF"/>
<rect x="173" y="284" width="25" height="25" rx="4" transform="rotate(90 173 284)" fill="#EFEFEF"/>
<rect x="173" y="314" width="25" height="25" rx="4" transform="rotate(90 173 314)" fill="#EFEFEF"/>
<rect x="203" y="134" width="25" height="25" rx="4" transform="rotate(90 203 134)" fill="#EFEFEF"/>
<rect x="203" y="164" width="25" height="25" rx="4" transform="rotate(90 203 164)" fill="#EFEFEF"/>
<rect x="203" y="194" width="25" height="25" rx="4" transform="rotate(90 203 194)" fill="#EFEFEF"/>
<rect x="203" y="224" width="25" height="25" rx="4" transform="rotate(90 203 224)" fill="#EFEFEF"/>
<rect x="203" y="254" width="25" height="25" rx="4" transform="rotate(90 203 254)" fill="#EFEFEF"/>
<rect x="203" y="284" width="25" height="25" rx="4" transform="rotate(90 203 284)" fill="#EFEFEF"/>
<rect x="203" y="314" width="25" height="25" rx="4" transform="rotate(90 203 314)" fill="#EFEFEF"/>
<rect x="233" y="134" width="25" height="25" rx="4" transform="rotate(90 233 134)" fill="#00D78C"/>
<rect x="233" y="164" width="25" height="25" rx="4" transform="rotate(90 233 164)" fill="#EFEFEF"/>
<rect x="233" y="194" width="25" height="25" rx="4" transform="rotate(90 233 194)" fill="#EFEFEF"/>
<rect x="233" y="224" width="25" height="25" rx="4" transform="rotate(90 233 224)" fill="#EFEFEF"/>
<rect x="233" y="254" width="25" height="25" rx="4" transform="rotate(90 233 254)" fill="#EFEFEF"/>
<rect x="233" y="284" width="25" height="25" rx="4" transform="rotate(90 233 284)" fill="#EFEFEF"/>
<rect x="233" y="314" width="25" height="25" rx="4" transform="rotate(90 233 314)" fill="#EFEFEF"/>
<rect x="263" y="134" width="25" height="25" rx="4" transform="rotate(90 263 134)" fill="#EFEFEF"/>
<rect x="263" y="164" width="25" height="25" rx="4" transform="rotate(90 263 164)" fill="#EFEFEF"/>
<rect x="263" y="194" width="25" height="25" rx="4" transform="rotate(90 263 194)" fill="#EFEFEF"/>
<rect x="263" y="224" width="25" height="25" rx="4" transform="rotate(90 263 224)" fill="#EFEFEF"/>
<rect x="263" y="254" width="25" height="25" rx="4" transform="rotate(90 263 254)" fill="#EFEFEF"/>
<rect x="263" y="284" width="25" height="25" rx="4" transform="rotate(90 263 284)" fill="#EFEFEF"/>
<rect x="263" y="314" width="25" height="25" rx="4" transform="rotate(90 263 314)" fill="#EFEFEF"/>
<rect x="293" y="134" width="25" height="25" rx="4" transform="rotate(90 293 134)" fill="#EFEFEF"/>
<rect x="293" y="164" width="25" height="25" rx="4" transform="rotate(90 293 164)" fill="#EFEFEF"/>
<rect x="293" y="194" width="25" height="25" rx="4" transform="rotate(90 293 194)" fill="#EFEFEF"/>
<rect x="293" y="224" width="25" height="25" rx="4" transform="rotate(90 293 224)" fill="#EFEFEF"/>
<rect x="293" y="254" width="25" height="25" rx="4" transform="rotate(90 293 254)" fill="#EFEFEF"/>
<rect x="293" y="284" width="25" height="25" rx="4" transform="rotate(90 293 284)" fill="#EFEFEF"/>
<rect x="293" y="314" width="25" height="25" rx="4" transform="rotate(90 293 314)" fill="#EFEFEF"/>
<rect x="323" y="134" width="25" height="25" rx="4" transform="rotate(90 323 134)" fill="#EFEFEF"/>
<rect x="323" y="164" width="25" height="25" rx="4" transform="rotate(90 323 164)" fill="#EFEFEF"/>
<rect x="323" y="194" width="25" height="25" rx="4" transform="rotate(90 323 194)" fill="#EFEFEF"/>
<rect x="323" y="224" width="25" height="25" rx="4" transform="rotate(90 323 224)" fill="#EFEFEF"/>
<rect x="323" y="254" width="25" height="25" rx="4" transform="rotate(90 323 254)" fill="#EFEFEF"/>
<rect x="323" y="284" width="25" height="25" rx="4" transform="rotate(90 323 284)" fill="#EFEFEF"/>
<rect x="323" y="314" width="25" height="25" rx="4" transform="rotate(90 323 314)" fill="#EFEFEF"/>
<rect x="353" y="134" width="25" height="25" rx="4" transform="rotate(90 353 134)" fill="#EFEFEF"/>
<rect x="353" y="164" width="25" height="25" rx="4" transform="rotate(90 353 164)" fill="#EFEFEF"/>
<rect x="353" y="194" width="25" height="25" rx="4" transform="rotate(90 353 194)" fill="#EFEFEF"/>
<rect x="353" y="224" width="25" height="25" rx="4" transform="rotate(90 353 224)" fill="#EFEFEF"/>
<rect x="353" y="254" width="25" height="25" rx="4" transform="rotate(90 353 254)" fill="#EFEFEF"/>
<rect x="353" y="284" width="25" height="25" rx="4" transform="rotate(90 353 284)" fill="#EFEFEF"/>
<rect x="353" y="314" width="25" height="25" rx="4" transform="rotate(90 353 314)" fill="#EFEFEF"/>
</svg>
