<svg width="350" height="450" viewBox="0 0 350 450" fill="none" xmlns="http://www.w3.org/2000/svg">
<rect width="350" height="450" rx="20" fill="#4699FF"/>
<path d="M56.5749 39.475C53.9749 40.425 52.0749 42.15 50.7999 44.75L50.1249 46.125L50.0499 59.675C50.0249 67.15 49.9249 73.25 49.8499 73.25C49.7749 73.25 49.4249 73.025 49.0749 72.75C47.6999 71.675 45.7749 71.175 42.4999 71.05C39.5749 70.95 39.3249 70.975 38.6999 71.5L37.9999 72.025V82.125V92.2L36.0999 100.9C34.3749 108.8 34.1999 109.95 34.0749 113.125C33.8999 117.875 34.2249 119.5 37.2249 128.975L39.6999 136.825L34.8499 146.55C29.7249 156.8 29.4749 157.475 30.4999 158.5C30.9999 159 32.2749 159.175 33.1249 158.85C33.7249 158.6 43.9999 137.95 43.9999 136.975C43.9999 136.525 42.8749 132.625 41.5249 128.275C40.1499 123.925 38.8999 119.925 38.7499 119.375C38.5999 118.825 38.3999 116.85 38.3249 115L38.1999 111.625L40.0999 102.775L41.9999 93.925V84.55V75.175L43.4499 75.325C47.2999 75.65 49.2749 78.25 49.7499 83.6C49.8749 85 49.9749 90.425 49.9999 95.675V105.225L52.2249 107.1C55.2249 109.65 57.1749 111.825 59.3749 115.125C62.8999 120.375 64.8249 125.7 65.6249 132.5C65.8499 134.3 66.4749 135 67.8749 135C69.9999 135 70.2999 133.45 69.2499 127.925C67.5249 118.9 62.5749 110.2 56.0499 104.65L53.9749 102.9L54.0499 75.375C54.1249 49.5 54.1499 47.825 54.5749 46.875C55.1499 45.625 56.3249 44.375 57.6249 43.675L58.6249 43.125H77.7499C93.2999 43.125 97.0499 43.2 97.8499 43.475C99.1749 43.925 100.725 45.4 101.35 46.75C101.85 47.825 101.875 48.3 101.95 60.55L102.025 73.2L100.175 75.05C97.7999 77.425 97.1749 78.925 97.2999 81.875C97.4249 84.65 98.3999 86.55 100.55 88.125L101.225 88.625L99.4749 90.625C97.0749 93.375 96.2499 95.1 96.2499 97.425C96.2499 100.525 97.5499 103.025 99.8999 104.4L101 105.05L100.425 105.725C100.125 106.1 99.2249 107.2 98.4249 108.125C96.5249 110.425 95.9249 112.025 96.0499 114.5C96.1499 115.875 96.3499 116.725 96.8249 117.65C97.6249 119.225 99.6999 121.15 101.05 121.55L102.075 121.85L101.925 124.05C101.75 126.55 101.225 128 99.9749 129.175C98.1749 130.875 98.3249 130.85 85.9249 131C75.1999 131.125 74.6999 131.15 74.3499 131.6C73.8249 132.35 73.8999 133.9 74.4999 134.5C74.9999 135 75.2249 135.025 86.9499 134.95L98.8749 134.875L100.375 134.15C102.3 133.2 104.2 131.3 105.125 129.375C105.775 128.05 105.875 127.525 106 124.95L106.125 122.025L107.75 121.2C109.05 120.525 109.8 119.9 111.575 117.875C114.175 114.9 115 113.35 115.175 111.175C115.425 108.175 114.1 105.425 111.7 103.875C111.05 103.45 110.525 103.075 110.525 103C110.525 102.925 111.4 101.8 112.525 100.5C114.9 97.675 115.675 95.75 115.4 93.3C115.125 90.9 113.775 88.525 112.1 87.475L111.25 86.95L112.15 85.875C114.675 82.775 114.625 78.15 112 75.175C110.85 73.875 109.45 73.125 107.425 72.725L106 72.425V64.375V56.3L107.875 54.15C108.925 52.975 110.1 51.825 110.5 51.625C112.75 50.45 115.65 52.15 115.925 54.775C116.075 56.225 115.725 56.775 112.475 60.575C111 62.275 109.675 63.9 109.525 64.225C108.85 65.475 110.025 67.25 111.525 67.25C112.4 67.25 112.875 66.825 116.125 63C119.7 58.825 120.1 58.025 120.125 55.125C120.125 52.35 119.6 51.05 117.775 49.275C114.925 46.5 110.325 46.225 107.2 48.6L106.075 49.475L105.95 47.75C105.7 44.525 103.5 41.4 100.375 39.85L98.8749 39.125L78.3749 39.075C58.8749 39.025 57.7999 39.025 56.5749 39.475ZM107.975 77.425C109.925 78.875 110.275 80.925 108.95 82.9C107.825 84.55 107.025 85.075 105.45 85.175C103.9 85.3 102.8 84.75 102 83.45C101.45 82.525 101.35 80.775 101.775 79.925C102.375 78.8 103.625 77.425 104.35 77.1C105.35 76.65 107.125 76.8 107.975 77.425ZM109.2 90.75C110.775 91.7 111.55 93.775 110.925 95.275C110.425 96.5 107.125 100.275 106.075 100.85C102.55 102.75 98.8499 98.55 101.225 95.35C102.65 93.4 104.8 91.125 105.575 90.675C106.625 90.1 108.175 90.125 109.2 90.75ZM109.325 107.4C110.125 107.975 111 109.65 111 110.6C111 111.6 110.4 112.625 108.45 114.875C106.45 117.2 105.575 117.75 103.975 117.75C101.25 117.75 99.4249 114.825 100.65 112.425C101.4 111 104.675 107.45 105.75 106.95C106.425 106.6 108.625 106.875 109.325 107.4Z" fill="#0D2A2D"/>
<path d="M70.5 47.5C70.175 47.825 70 48.325 70 49C70 49.675 70.175 50.175 70.5 50.5C70.975 50.975 71.325 51 78 51C84.675 51 85.025 50.975 85.5 50.5C85.825 50.175 86 49.675 86 49C86 48.325 85.825 47.825 85.5 47.5C85.025 47.025 84.675 47 78 47C71.325 47 70.975 47.025 70.5 47.5Z" fill="#0D2A2D"/>
<path d="M80.625 76.5L74.15 83L71.6 80.5C69.25 78.175 69 78 68.075 78C66.775 78 66 78.775 66 80.125C66 81.025 66.225 81.3 69.2 84.3C72.625 87.8 73.425 88.375 74.475 88.125C75.225 87.95 89.65 73.725 90.025 72.775C90.325 72.025 89.9 70.6 89.25 70.25C89 70.1 88.4 70 87.95 70C87.2 70 86.525 70.6 80.625 76.5Z" fill="#0D2A2D"/>
<path d="M92.725 139.3C92.5 139.475 91.8 140.375 91.175 141.3C88.65 144.9 85.825 146.3 80.2 146.75C78.6 146.875 77.075 147.075 76.825 147.2C76.575 147.35 75.525 149.15 74.5 151.225L72.65 155H63.825C55.325 155 54.975 155.025 54.5 155.5C54.175 155.825 54 156.325 54 157C54 157.675 54.175 158.175 54.5 158.5C55 159 55.325 159 80 159C104.675 159 105 159 105.5 158.5C105.825 158.175 106 157.675 106 157C106 156.325 105.825 155.825 105.5 155.5C105 155 104.675 155 91.25 155C83.7 155 77.5 154.95 77.5 154.875C77.5 154.825 77.925 153.925 78.425 152.875L79.35 151H80.75C82.875 151 86.55 150.125 88.55 149.175C91.925 147.55 96 143.05 96 140.95C96 139.7 95.325 139 94.05 139C93.525 139 92.925 139.15 92.725 139.3Z" fill="#0D2A2D"/>
<path d="M110.5 155.5C110.175 155.825 110 156.325 110 157C110 158.425 110.65 159 112.225 159C113.275 159 113.55 158.9 113.975 158.35C114.275 157.975 114.5 157.375 114.5 157C114.5 156.625 114.275 156.025 113.975 155.65C113.55 155.1 113.275 155 112.225 155C111.325 155 110.875 155.125 110.5 155.5Z" fill="#0D2A2D"/>
<path d="M31.736 210V190.4H41.676C44.1027 190.4 45.9787 190.848 47.304 191.744C48.648 192.64 49.32 193.9 49.32 195.524C49.32 197.111 48.704 198.371 47.472 199.304C46.24 200.219 44.5787 200.676 42.488 200.676L43.048 199.164C45.2693 199.164 47.0147 199.603 48.284 200.48C49.5533 201.357 50.188 202.636 50.188 204.316C50.188 206.052 49.4973 207.433 48.116 208.46C46.7347 209.487 44.7653 210 42.208 210H31.736ZM38.232 205.38H41.9C42.4413 205.38 42.8427 205.249 43.104 204.988C43.384 204.708 43.524 204.316 43.524 203.812C43.524 203.308 43.384 202.935 43.104 202.692C42.8427 202.431 42.4413 202.3 41.9 202.3H38.232V205.38ZM38.232 197.932H41.032C41.592 197.932 42.0027 197.811 42.264 197.568C42.5253 197.325 42.656 196.971 42.656 196.504C42.656 196.019 42.5253 195.655 42.264 195.412C42.0027 195.151 41.592 195.02 41.032 195.02H38.232V197.932ZM60.3286 210.28C58.5739 210.28 57.0153 209.944 55.6526 209.272C54.2899 208.6 53.2166 207.667 52.4326 206.472C51.6673 205.259 51.2846 203.877 51.2846 202.328C51.2846 200.779 51.6673 199.407 52.4326 198.212C53.2166 197.017 54.2899 196.084 55.6526 195.412C57.0153 194.74 58.5739 194.404 60.3286 194.404C62.1953 194.404 63.7913 194.805 65.1166 195.608C66.4419 196.411 67.3566 197.521 67.8606 198.94L62.9606 201.348C62.6433 200.639 62.2513 200.125 61.7846 199.808C61.3366 199.491 60.8419 199.332 60.3006 199.332C59.8339 199.332 59.3953 199.444 58.9846 199.668C58.5926 199.892 58.2753 200.228 58.0326 200.676C57.8086 201.105 57.6966 201.656 57.6966 202.328C57.6966 203 57.8086 203.56 58.0326 204.008C58.2753 204.456 58.5926 204.792 58.9846 205.016C59.3953 205.24 59.8339 205.352 60.3006 205.352C60.8419 205.352 61.3366 205.193 61.7846 204.876C62.2513 204.559 62.6433 204.045 62.9606 203.336L67.8606 205.744C67.3566 207.163 66.4419 208.273 65.1166 209.076C63.7913 209.879 62.1953 210.28 60.3286 210.28ZM77.7245 210.28C75.8578 210.28 74.2245 209.935 72.8245 209.244C71.4431 208.553 70.3698 207.611 69.6045 206.416C68.8391 205.203 68.4565 203.84 68.4565 202.328C68.4565 200.779 68.8298 199.407 69.5765 198.212C70.3418 197.017 71.3778 196.084 72.6845 195.412C74.0098 194.74 75.4938 194.404 77.1365 194.404C78.6485 194.404 80.0391 194.703 81.3085 195.3C82.5965 195.897 83.6231 196.784 84.3885 197.96C85.1725 199.136 85.5645 200.592 85.5645 202.328C85.5645 202.552 85.5551 202.804 85.5365 203.084C85.5178 203.345 85.4991 203.588 85.4805 203.812H73.6925V200.76H82.1205L79.7405 201.572C79.7405 200.975 79.6285 200.471 79.4045 200.06C79.1991 199.631 78.9098 199.304 78.5365 199.08C78.1631 198.837 77.7151 198.716 77.1925 198.716C76.6698 198.716 76.2125 198.837 75.8205 199.08C75.4471 199.304 75.1578 199.631 74.9525 200.06C74.7471 200.471 74.6445 200.975 74.6445 201.572V202.524C74.6445 203.177 74.7751 203.737 75.0365 204.204C75.2978 204.671 75.6711 205.025 76.1565 205.268C76.6418 205.492 77.2298 205.604 77.9205 205.604C78.6298 205.604 79.2085 205.511 79.6565 205.324C80.1231 205.137 80.6085 204.857 81.1125 204.484L84.4165 207.816C83.6698 208.619 82.7458 209.235 81.6445 209.664C80.5618 210.075 79.2551 210.28 77.7245 210.28ZM87.8395 210V194.684H101.223V199.612H92.7675L94.1395 198.268V210H87.8395ZM112.481 207.284V199.612H109.317L109.289 200.564C109.27 201.217 109.233 201.824 109.177 202.384C109.139 202.944 109.055 203.448 108.925 203.896C108.794 204.325 108.598 204.708 108.337 205.044C108.094 205.361 107.749 205.623 107.301 205.828L101.113 205.044C101.598 205.044 101.999 204.923 102.317 204.68C102.634 204.419 102.877 204.064 103.045 203.616C103.231 203.149 103.362 202.617 103.437 202.02C103.53 201.423 103.586 200.779 103.605 200.088L103.801 194.684H118.781V207.284H112.481ZM100.665 213.024V205.044H120.825V213.024H114.973V210H106.517V213.024H100.665ZM131.607 210V207.284L131.159 206.556V201.404C131.159 200.657 130.926 200.088 130.459 199.696C130.011 199.304 129.274 199.108 128.247 199.108C127.557 199.108 126.857 199.22 126.147 199.444C125.438 199.649 124.831 199.939 124.327 200.312L122.311 196.14C123.207 195.58 124.281 195.151 125.531 194.852C126.782 194.553 128.005 194.404 129.199 194.404C131.831 194.404 133.866 194.992 135.303 196.168C136.759 197.344 137.487 199.211 137.487 201.768V210H131.607ZM127.267 210.28C126.017 210.28 124.971 210.065 124.131 209.636C123.291 209.207 122.657 208.637 122.227 207.928C121.798 207.2 121.583 206.397 121.583 205.52C121.583 204.531 121.835 203.691 122.339 203C122.843 202.309 123.609 201.787 124.635 201.432C125.681 201.077 126.997 200.9 128.583 200.9H131.775V203.952H129.591C128.919 203.952 128.425 204.064 128.107 204.288C127.809 204.493 127.659 204.811 127.659 205.24C127.659 205.595 127.79 205.893 128.051 206.136C128.331 206.36 128.705 206.472 129.171 206.472C129.601 206.472 129.993 206.36 130.347 206.136C130.721 205.893 130.991 205.52 131.159 205.016L131.971 206.892C131.729 208.031 131.215 208.88 130.431 209.44C129.647 210 128.593 210.28 127.267 210.28ZM148.461 210V194.684H164.897V210H158.597V198.296L159.969 199.612H153.389L154.761 198.296V210H148.461ZM175.771 210.28C174.035 210.28 172.495 209.944 171.151 209.272C169.825 208.581 168.78 207.639 168.015 206.444C167.249 205.249 166.867 203.877 166.867 202.328C166.867 200.779 167.249 199.407 168.015 198.212C168.78 197.017 169.825 196.084 171.151 195.412C172.495 194.74 174.035 194.404 175.771 194.404C177.507 194.404 179.047 194.74 180.391 195.412C181.735 196.084 182.78 197.017 183.527 198.212C184.292 199.407 184.675 200.779 184.675 202.328C184.675 203.877 184.292 205.249 183.527 206.444C182.78 207.639 181.735 208.581 180.391 209.272C179.047 209.944 177.507 210.28 175.771 210.28ZM175.771 205.352C176.237 205.352 176.657 205.24 177.031 205.016C177.404 204.792 177.703 204.456 177.927 204.008C178.151 203.541 178.263 202.981 178.263 202.328C178.263 201.656 178.151 201.105 177.927 200.676C177.703 200.228 177.404 199.892 177.031 199.668C176.657 199.444 176.237 199.332 175.771 199.332C175.304 199.332 174.884 199.444 174.511 199.668C174.137 199.892 173.839 200.228 173.615 200.676C173.391 201.105 173.279 201.656 173.279 202.328C173.279 202.981 173.391 203.541 173.615 204.008C173.839 204.456 174.137 204.792 174.511 205.016C174.884 205.24 175.304 205.352 175.771 205.352ZM197 207.284V199.612H193.836L193.808 200.564C193.79 201.217 193.752 201.824 193.696 202.384C193.659 202.944 193.575 203.448 193.444 203.896C193.314 204.325 193.118 204.708 192.856 205.044C192.614 205.361 192.268 205.623 191.82 205.828L185.632 205.044C186.118 205.044 186.519 204.923 186.836 204.68C187.154 204.419 187.396 204.064 187.564 203.616C187.751 203.149 187.882 202.617 187.956 202.02C188.05 201.423 188.106 200.779 188.124 200.088L188.32 194.684H203.3V207.284H197ZM185.184 213.024V205.044H205.344V213.024H199.492V210H191.036V213.024H185.184ZM225.809 210.28C224.484 210.28 223.383 210 222.505 209.44C221.647 208.861 221.012 207.993 220.601 206.836C220.191 205.66 219.985 204.167 219.985 202.356C219.985 200.508 220.172 199.005 220.545 197.848C220.937 196.672 221.563 195.804 222.421 195.244C223.28 194.684 224.409 194.404 225.809 194.404C227.153 194.404 228.385 194.731 229.505 195.384C230.625 196.019 231.521 196.933 232.193 198.128C232.865 199.304 233.201 200.713 233.201 202.356C233.201 203.999 232.865 205.417 232.193 206.612C231.521 207.788 230.625 208.693 229.505 209.328C228.385 209.963 227.153 210.28 225.809 210.28ZM215.589 215.432V194.684H221.609V196.756L221.637 202.356L221.917 207.956V215.432H215.589ZM224.297 205.352C224.764 205.352 225.184 205.24 225.557 205.016C225.931 204.792 226.229 204.456 226.453 204.008C226.677 203.56 226.789 203.009 226.789 202.356C226.789 201.684 226.677 201.124 226.453 200.676C226.229 200.228 225.931 199.892 225.557 199.668C225.184 199.444 224.764 199.332 224.297 199.332C223.831 199.332 223.411 199.444 223.037 199.668C222.664 199.892 222.365 200.228 222.141 200.676C221.917 201.124 221.805 201.684 221.805 202.356C221.805 203.009 221.917 203.56 222.141 204.008C222.365 204.456 222.664 204.792 223.037 205.016C223.411 205.24 223.831 205.352 224.297 205.352ZM238.451 215.712C237.611 215.712 236.753 215.581 235.875 215.32C235.017 215.077 234.326 214.751 233.803 214.34L235.903 210C236.221 210.243 236.575 210.439 236.967 210.588C237.378 210.737 237.77 210.812 238.143 210.812C238.703 210.812 239.133 210.691 239.431 210.448C239.73 210.224 239.973 209.879 240.159 209.412L240.803 207.788L241.251 207.172L246.151 194.684H252.143L245.843 210.308C245.283 211.708 244.63 212.8 243.883 213.584C243.155 214.368 242.334 214.919 241.419 215.236C240.523 215.553 239.534 215.712 238.451 215.712ZM239.935 210.7L233.271 194.684H239.767L244.359 206.612L239.935 210.7ZM264.127 210L259.927 202.972L265.023 200.004L271.575 210H264.127ZM253.543 210V194.684H259.871V210H253.543ZM258.023 204.904V200.06H263.735V204.904H258.023ZM265.667 203.028L259.731 202.468L264.603 194.684H271.267L265.667 203.028ZM280.47 210.28C278.734 210.28 277.194 209.944 275.85 209.272C274.525 208.581 273.479 207.639 272.714 206.444C271.949 205.249 271.566 203.877 271.566 202.328C271.566 200.779 271.949 199.407 272.714 198.212C273.479 197.017 274.525 196.084 275.85 195.412C277.194 194.74 278.734 194.404 280.47 194.404C282.206 194.404 283.746 194.74 285.09 195.412C286.434 196.084 287.479 197.017 288.226 198.212C288.991 199.407 289.374 200.779 289.374 202.328C289.374 203.877 288.991 205.249 288.226 206.444C287.479 207.639 286.434 208.581 285.09 209.272C283.746 209.944 282.206 210.28 280.47 210.28ZM280.47 205.352C280.937 205.352 281.357 205.24 281.73 205.016C282.103 204.792 282.402 204.456 282.626 204.008C282.85 203.541 282.962 202.981 282.962 202.328C282.962 201.656 282.85 201.105 282.626 200.676C282.402 200.228 282.103 199.892 281.73 199.668C281.357 199.444 280.937 199.332 280.47 199.332C280.003 199.332 279.583 199.444 279.21 199.668C278.837 199.892 278.538 200.228 278.314 200.676C278.09 201.105 277.978 201.656 277.978 202.328C277.978 202.981 278.09 203.541 278.314 204.008C278.538 204.456 278.837 204.792 279.21 205.016C279.583 205.24 280.003 205.352 280.47 205.352ZM291.332 210V194.684H297.632V201.6L302.924 194.684H308.748V210H302.448V203.056L297.184 210H291.332ZM299.62 193.424C297.66 193.424 296.232 193.032 295.336 192.248C294.458 191.445 294.02 190.204 294.02 188.524H298.08C298.08 189.103 298.182 189.56 298.388 189.896C298.593 190.213 298.994 190.372 299.592 190.372C300.17 190.372 300.572 190.213 300.796 189.896C301.038 189.56 301.16 189.103 301.16 188.524H305.276C305.276 190.204 304.818 191.445 303.904 192.248C303.008 193.032 301.58 193.424 299.62 193.424Z" fill="#FEFEFE"/>
<path d="M220.354 237.354C220.549 237.158 220.549 236.842 220.354 236.646L217.172 233.464C216.976 233.269 216.66 233.269 216.464 233.464C216.269 233.66 216.269 233.976 216.464 234.172L219.293 237L216.464 239.828C216.269 240.024 216.269 240.34 216.464 240.536C216.66 240.731 216.976 240.731 217.172 240.536L220.354 237.354ZM30 237.5H220V236.5H30V237.5Z" fill="#FEFEFE"/>
<path d="M42.6 262H44.06V276H42.6V262ZM33.84 276H32.36V262H33.84V276ZM42.74 269.54H33.68V268.24H42.74V269.54ZM54.9658 276V273.68L54.9058 273.3V269.42C54.9058 268.527 54.6524 267.84 54.1458 267.36C53.6524 266.88 52.9124 266.64 51.9258 266.64C51.2458 266.64 50.5991 266.753 49.9858 266.98C49.3724 267.207 48.8524 267.507 48.4258 267.88L47.7858 266.82C48.3191 266.367 48.9591 266.02 49.7058 265.78C50.4524 265.527 51.2391 265.4 52.0658 265.4C53.4258 265.4 54.4724 265.74 55.2058 266.42C55.9524 267.087 56.3258 268.107 56.3258 269.48V276H54.9658ZM51.3458 276.1C50.5591 276.1 49.8724 275.973 49.2858 275.72C48.7124 275.453 48.2724 275.093 47.9658 274.64C47.6591 274.173 47.5058 273.64 47.5058 273.04C47.5058 272.493 47.6324 272 47.8858 271.56C48.1524 271.107 48.5791 270.747 49.1658 270.48C49.7658 270.2 50.5658 270.06 51.5658 270.06H55.1858V271.12H51.6058C50.5924 271.12 49.8858 271.3 49.4858 271.66C49.0991 272.02 48.9058 272.467 48.9058 273C48.9058 273.6 49.1391 274.08 49.6058 274.44C50.0724 274.8 50.7258 274.98 51.5658 274.98C52.3658 274.98 53.0524 274.8 53.6258 274.44C54.2124 274.067 54.6391 273.533 54.9058 272.84L55.2258 273.82C54.9591 274.513 54.4924 275.067 53.8258 275.48C53.1724 275.893 52.3458 276.1 51.3458 276.1ZM67.3059 275.32V266.74H62.2459L62.1259 269.08C62.0993 269.787 62.0526 270.48 61.9859 271.16C61.9326 271.84 61.8326 272.467 61.6859 273.04C61.5526 273.6 61.3593 274.06 61.1059 274.42C60.8526 274.767 60.5259 274.967 60.1259 275.02L58.7059 274.76C59.1193 274.773 59.4593 274.627 59.7259 274.32C59.9926 274 60.1993 273.567 60.3459 273.02C60.4926 272.473 60.5993 271.853 60.6659 271.16C60.7326 270.453 60.7859 269.733 60.8259 269L60.9659 265.5H68.7259V275.32H67.3059ZM58.2659 278.54V274.76H70.3659V278.54H69.0259V276H59.6059V278.54H58.2659ZM77.6333 276.1C76.5399 276.1 75.5799 275.873 74.7533 275.42C73.9266 274.953 73.2799 274.32 72.8133 273.52C72.3466 272.707 72.1133 271.78 72.1133 270.74C72.1133 269.7 72.3333 268.78 72.7733 267.98C73.2266 267.18 73.8399 266.553 74.6133 266.1C75.3999 265.633 76.2799 265.4 77.2533 265.4C78.2399 265.4 79.1133 265.627 79.8733 266.08C80.6466 266.52 81.2533 267.147 81.6933 267.96C82.1333 268.76 82.3533 269.687 82.3533 270.74C82.3533 270.807 82.3466 270.88 82.3333 270.96C82.3333 271.027 82.3333 271.1 82.3333 271.18H73.1933V270.12H81.5733L81.0133 270.54C81.0133 269.78 80.8466 269.107 80.5133 268.52C80.1933 267.92 79.7533 267.453 79.1933 267.12C78.6333 266.787 77.9866 266.62 77.2533 266.62C76.5333 266.62 75.8866 266.787 75.3133 267.12C74.7399 267.453 74.2933 267.92 73.9733 268.52C73.6533 269.12 73.4933 269.807 73.4933 270.58V270.8C73.4933 271.6 73.6666 272.307 74.0133 272.92C74.3733 273.52 74.8666 273.993 75.4933 274.34C76.1333 274.673 76.8599 274.84 77.6733 274.84C78.3133 274.84 78.9066 274.727 79.4533 274.5C80.0133 274.273 80.4933 273.927 80.8933 273.46L81.6933 274.38C81.2266 274.94 80.6399 275.367 79.9333 275.66C79.2399 275.953 78.4733 276.1 77.6333 276.1ZM97.6636 276L94.0636 270.8L95.2436 270.1L99.3636 276H97.6636ZM91.7036 271.32V270.1H95.0236V271.32H91.7036ZM95.3836 270.9L94.0236 270.7L97.5236 265.5H99.0636L95.3836 270.9ZM85.2236 276H83.5236L87.6436 270.1L88.8036 270.8L85.2236 276ZM92.1436 276H90.7236V265.5H92.1436V276ZM91.1636 271.32H87.8636V270.1H91.1636V271.32ZM87.5236 270.9L83.8236 265.5H85.3636L88.8436 270.7L87.5236 270.9ZM101.727 276V265.5H103.147V270.14H109.767V265.5H111.187V276H109.767V271.36H103.147V276H101.727ZM125.463 276V265.5H126.883V276H125.463ZM119.643 269.2C120.963 269.213 121.97 269.507 122.663 270.08C123.356 270.653 123.703 271.48 123.703 272.56C123.703 273.68 123.33 274.54 122.583 275.14C121.836 275.74 120.77 276.033 119.383 276.02L115.223 276V265.5H116.643V269.16L119.643 269.2ZM119.283 274.94C120.27 274.953 121.01 274.76 121.503 274.36C122.01 273.947 122.263 273.347 122.263 272.56C122.263 271.773 122.016 271.2 121.523 270.84C121.03 270.467 120.283 270.273 119.283 270.26L116.643 270.22V274.9L119.283 274.94ZM130.926 276V265.5H132.346V273.84L139.366 265.5H140.626V276H139.206V267.64L132.206 276H130.926ZM135.686 263.98C134.806 263.98 134.093 263.76 133.546 263.32C133.013 262.867 132.733 262.22 132.706 261.38H133.726C133.74 261.913 133.926 262.333 134.286 262.64C134.646 262.947 135.113 263.1 135.686 263.1C136.26 263.1 136.726 262.947 137.086 262.64C137.46 262.333 137.653 261.913 137.666 261.38H138.686C138.673 262.22 138.393 262.867 137.846 263.32C137.3 263.76 136.58 263.98 135.686 263.98ZM149.93 276V265.5H159.37V276H157.95V266.36L158.31 266.74H150.99L151.35 266.36V276H149.93ZM169.927 276V273.68L169.867 273.3V269.42C169.867 268.527 169.613 267.84 169.107 267.36C168.613 266.88 167.873 266.64 166.887 266.64C166.207 266.64 165.56 266.753 164.947 266.98C164.333 267.207 163.813 267.507 163.387 267.88L162.747 266.82C163.28 266.367 163.92 266.02 164.667 265.78C165.413 265.527 166.2 265.4 167.027 265.4C168.387 265.4 169.433 265.74 170.167 266.42C170.913 267.087 171.287 268.107 171.287 269.48V276H169.927ZM166.307 276.1C165.52 276.1 164.833 275.973 164.247 275.72C163.673 275.453 163.233 275.093 162.927 274.64C162.62 274.173 162.467 273.64 162.467 273.04C162.467 272.493 162.593 272 162.847 271.56C163.113 271.107 163.54 270.747 164.127 270.48C164.727 270.2 165.527 270.06 166.527 270.06H170.147V271.12H166.567C165.553 271.12 164.847 271.3 164.447 271.66C164.06 272.02 163.867 272.467 163.867 273C163.867 273.6 164.1 274.08 164.567 274.44C165.033 274.8 165.687 274.98 166.527 274.98C167.327 274.98 168.013 274.8 168.587 274.44C169.173 274.067 169.6 273.533 169.867 272.84L170.187 273.82C169.92 274.513 169.453 275.067 168.787 275.48C168.133 275.893 167.307 276.1 166.307 276.1ZM180.487 276.1C179.58 276.1 178.76 275.893 178.027 275.48C177.294 275.053 176.707 274.447 176.267 273.66C175.84 272.86 175.627 271.887 175.627 270.74C175.627 269.593 175.84 268.627 176.267 267.84C176.694 267.04 177.274 266.433 178.007 266.02C178.74 265.607 179.567 265.4 180.487 265.4C181.487 265.4 182.38 265.627 183.167 266.08C183.967 266.52 184.594 267.147 185.047 267.96C185.5 268.76 185.727 269.687 185.727 270.74C185.727 271.807 185.5 272.74 185.047 273.54C184.594 274.34 183.967 274.967 183.167 275.42C182.38 275.873 181.487 276.1 180.487 276.1ZM175.067 279.88V265.5H176.427V268.66L176.287 270.76L176.487 272.88V279.88H175.067ZM180.387 274.84C181.134 274.84 181.8 274.673 182.387 274.34C182.974 273.993 183.44 273.513 183.787 272.9C184.134 272.273 184.307 271.553 184.307 270.74C184.307 269.927 184.134 269.213 183.787 268.6C183.44 267.987 182.974 267.507 182.387 267.16C181.8 266.813 181.134 266.64 180.387 266.64C179.64 266.64 178.967 266.813 178.367 267.16C177.78 267.507 177.314 267.987 176.967 268.6C176.634 269.213 176.467 269.927 176.467 270.74C176.467 271.553 176.634 272.273 176.967 272.9C177.314 273.513 177.78 273.993 178.367 274.34C178.967 274.673 179.64 274.84 180.387 274.84ZM190.387 276V266.36L190.747 266.74H186.407V265.5H195.787V266.74H191.447L191.807 266.36V276H190.387ZM197.84 276V265.5H199.26V270.14H205.88V265.5H207.3V276H205.88V271.36H199.26V276H197.84ZM215.836 276.1C214.743 276.1 213.783 275.873 212.956 275.42C212.13 274.953 211.483 274.32 211.016 273.52C210.55 272.707 210.316 271.78 210.316 270.74C210.316 269.7 210.536 268.78 210.976 267.98C211.43 267.18 212.043 266.553 212.816 266.1C213.603 265.633 214.483 265.4 215.456 265.4C216.443 265.4 217.316 265.627 218.076 266.08C218.85 266.52 219.456 267.147 219.896 267.96C220.336 268.76 220.556 269.687 220.556 270.74C220.556 270.807 220.55 270.88 220.536 270.96C220.536 271.027 220.536 271.1 220.536 271.18H211.396V270.12H219.776L219.216 270.54C219.216 269.78 219.05 269.107 218.716 268.52C218.396 267.92 217.956 267.453 217.396 267.12C216.836 266.787 216.19 266.62 215.456 266.62C214.736 266.62 214.09 266.787 213.516 267.12C212.943 267.453 212.496 267.92 212.176 268.52C211.856 269.12 211.696 269.807 211.696 270.58V270.8C211.696 271.6 211.87 272.307 212.216 272.92C212.576 273.52 213.07 273.993 213.696 274.34C214.336 274.673 215.063 274.84 215.876 274.84C216.516 274.84 217.11 274.727 217.656 274.5C218.216 274.273 218.696 273.927 219.096 273.46L219.896 274.38C219.43 274.94 218.843 275.367 218.136 275.66C217.443 275.953 216.676 276.1 215.836 276.1ZM229.12 276.1C228.213 276.1 227.393 275.893 226.66 275.48C225.926 275.053 225.34 274.447 224.9 273.66C224.473 272.86 224.26 271.887 224.26 270.74C224.26 269.593 224.473 268.627 224.9 267.84C225.326 267.04 225.906 266.433 226.64 266.02C227.373 265.607 228.2 265.4 229.12 265.4C230.12 265.4 231.013 265.627 231.8 266.08C232.6 266.52 233.226 267.147 233.68 267.96C234.133 268.76 234.36 269.687 234.36 270.74C234.36 271.807 234.133 272.74 233.68 273.54C233.226 274.34 232.6 274.967 231.8 275.42C231.013 275.873 230.12 276.1 229.12 276.1ZM223.7 279.88V265.5H225.06V268.66L224.92 270.76L225.12 272.88V279.88H223.7ZM229.02 274.84C229.766 274.84 230.433 274.673 231.02 274.34C231.606 273.993 232.073 273.513 232.42 272.9C232.766 272.273 232.94 271.553 232.94 270.74C232.94 269.927 232.766 269.213 232.42 268.6C232.073 267.987 231.606 267.507 231.02 267.16C230.433 266.813 229.766 266.64 229.02 266.64C228.273 266.64 227.6 266.813 227 267.16C226.413 267.507 225.946 267.987 225.6 268.6C225.266 269.213 225.1 269.927 225.1 270.74C225.1 271.553 225.266 272.273 225.6 272.9C225.946 273.513 226.413 273.993 227 274.34C227.6 274.673 228.273 274.84 229.02 274.84ZM242.645 276V265.5H247.285C248.472 265.5 249.405 265.727 250.085 266.18C250.778 266.633 251.125 267.3 251.125 268.18C251.125 269.033 250.798 269.693 250.145 270.16C249.492 270.613 248.632 270.84 247.565 270.84L247.845 270.42C249.098 270.42 250.018 270.653 250.605 271.12C251.192 271.587 251.485 272.26 251.485 273.14C251.485 274.047 251.152 274.753 250.485 275.26C249.832 275.753 248.812 276 247.425 276H242.645ZM244.025 274.88H247.365C248.258 274.88 248.932 274.74 249.385 274.46C249.852 274.167 250.085 273.7 250.085 273.06C250.085 272.42 249.878 271.953 249.465 271.66C249.052 271.367 248.398 271.22 247.505 271.22H244.025V274.88ZM244.025 270.16H247.185C247.998 270.16 248.618 270.007 249.045 269.7C249.485 269.393 249.705 268.947 249.705 268.36C249.705 267.773 249.485 267.333 249.045 267.04C248.618 266.747 247.998 266.6 247.185 266.6H244.025V270.16ZM32.02 300V289.5H41.46V300H40.04V290.36L40.4 290.74H33.08L33.44 290.36V300H32.02ZM49.8166 300.1C48.8032 300.1 47.8899 299.873 47.0766 299.42C46.2766 298.953 45.6432 298.32 45.1766 297.52C44.7099 296.707 44.4766 295.78 44.4766 294.74C44.4766 293.687 44.7099 292.76 45.1766 291.96C45.6432 291.16 46.2766 290.533 47.0766 290.08C47.8766 289.627 48.7899 289.4 49.8166 289.4C50.8566 289.4 51.7766 289.627 52.5766 290.08C53.3899 290.533 54.0232 291.16 54.4766 291.96C54.9432 292.76 55.1766 293.687 55.1766 294.74C55.1766 295.78 54.9432 296.707 54.4766 297.52C54.0232 298.32 53.3899 298.953 52.5766 299.42C51.7632 299.873 50.8432 300.1 49.8166 300.1ZM49.8166 298.84C50.5766 298.84 51.2499 298.673 51.8366 298.34C52.4232 297.993 52.8832 297.513 53.2166 296.9C53.5632 296.273 53.7366 295.553 53.7366 294.74C53.7366 293.913 53.5632 293.193 53.2166 292.58C52.8832 291.967 52.4232 291.493 51.8366 291.16C51.2499 290.813 50.5832 290.64 49.8366 290.64C49.0899 290.64 48.4232 290.813 47.8366 291.16C47.2499 291.493 46.7832 291.967 46.4366 292.58C46.0899 293.193 45.9166 293.913 45.9166 294.74C45.9166 295.553 46.0899 296.273 46.4366 296.9C46.7832 297.513 47.2499 297.993 47.8366 298.34C48.4232 298.673 49.0832 298.84 49.8166 298.84ZM65.3528 299.32V290.74H60.2928L60.1728 293.08C60.1461 293.787 60.0995 294.48 60.0328 295.16C59.9795 295.84 59.8795 296.467 59.7328 297.04C59.5995 297.6 59.4061 298.06 59.1528 298.42C58.8995 298.767 58.5728 298.967 58.1728 299.02L56.7528 298.76C57.1661 298.773 57.5061 298.627 57.7728 298.32C58.0395 298 58.2461 297.567 58.3928 297.02C58.5395 296.473 58.6461 295.853 58.7128 295.16C58.7795 294.453 58.8328 293.733 58.8728 293L59.0128 289.5H66.7728V299.32H65.3528ZM56.3128 302.54V298.76H68.4128V302.54H67.0728V300H57.6528V302.54H56.3128ZM71.1802 300V289.5H78.6202V290.74H72.2402L72.6002 290.38V300H71.1802ZM84.5041 300.1C83.4907 300.1 82.5774 299.873 81.7641 299.42C80.9641 298.953 80.3307 298.32 79.8641 297.52C79.3974 296.707 79.1641 295.78 79.1641 294.74C79.1641 293.687 79.3974 292.76 79.8641 291.96C80.3307 291.16 80.9641 290.533 81.7641 290.08C82.5641 289.627 83.4774 289.4 84.5041 289.4C85.5441 289.4 86.4641 289.627 87.2641 290.08C88.0774 290.533 88.7107 291.16 89.1641 291.96C89.6307 292.76 89.8641 293.687 89.8641 294.74C89.8641 295.78 89.6307 296.707 89.1641 297.52C88.7107 298.32 88.0774 298.953 87.2641 299.42C86.4507 299.873 85.5307 300.1 84.5041 300.1ZM84.5041 298.84C85.2641 298.84 85.9374 298.673 86.5241 298.34C87.1107 297.993 87.5707 297.513 87.9041 296.9C88.2507 296.273 88.4241 295.553 88.4241 294.74C88.4241 293.913 88.2507 293.193 87.9041 292.58C87.5707 291.967 87.1107 291.493 86.5241 291.16C85.9374 290.813 85.2707 290.64 84.5241 290.64C83.7774 290.64 83.1107 290.813 82.5241 291.16C81.9374 291.493 81.4707 291.967 81.1241 292.58C80.7774 293.193 80.6041 293.913 80.6041 294.74C80.6041 295.553 80.7774 296.273 81.1241 296.9C81.4707 297.513 81.9374 297.993 82.5241 298.34C83.1107 298.673 83.7707 298.84 84.5041 298.84ZM94.5083 300V290.36L94.8683 290.74H90.5283V289.5H99.9083V290.74H95.5683L95.9283 290.36V300H94.5083ZM105.793 300.1C104.78 300.1 103.866 299.873 103.053 299.42C102.253 298.953 101.62 298.32 101.153 297.52C100.686 296.707 100.453 295.78 100.453 294.74C100.453 293.687 100.686 292.76 101.153 291.96C101.62 291.16 102.253 290.533 103.053 290.08C103.853 289.627 104.766 289.4 105.793 289.4C106.833 289.4 107.753 289.627 108.553 290.08C109.366 290.533 110 291.16 110.453 291.96C110.92 292.76 111.153 293.687 111.153 294.74C111.153 295.78 110.92 296.707 110.453 297.52C110 298.32 109.366 298.953 108.553 299.42C107.74 299.873 106.82 300.1 105.793 300.1ZM105.793 298.84C106.553 298.84 107.226 298.673 107.813 298.34C108.4 297.993 108.86 297.513 109.193 296.9C109.54 296.273 109.713 295.553 109.713 294.74C109.713 293.913 109.54 293.193 109.193 292.58C108.86 291.967 108.4 291.493 107.813 291.16C107.226 290.813 106.56 290.64 105.813 290.64C105.066 290.64 104.4 290.813 103.813 291.16C103.226 291.493 102.76 291.967 102.413 292.58C102.066 293.193 101.893 293.913 101.893 294.74C101.893 295.553 102.066 296.273 102.413 296.9C102.76 297.513 103.226 297.993 103.813 298.34C104.4 298.673 105.06 298.84 105.793 298.84ZM114.188 300V289.5H118.828C120.015 289.5 120.948 289.727 121.628 290.18C122.321 290.633 122.668 291.3 122.668 292.18C122.668 293.033 122.341 293.693 121.688 294.16C121.035 294.613 120.175 294.84 119.108 294.84L119.388 294.42C120.641 294.42 121.561 294.653 122.148 295.12C122.735 295.587 123.028 296.26 123.028 297.14C123.028 298.047 122.695 298.753 122.028 299.26C121.375 299.753 120.355 300 118.968 300H114.188ZM115.568 298.88H118.908C119.801 298.88 120.475 298.74 120.928 298.46C121.395 298.167 121.628 297.7 121.628 297.06C121.628 296.42 121.421 295.953 121.008 295.66C120.595 295.367 119.941 295.22 119.048 295.22H115.568V298.88ZM115.568 294.16H118.728C119.541 294.16 120.161 294.007 120.588 293.7C121.028 293.393 121.248 292.947 121.248 292.36C121.248 291.773 121.028 291.333 120.588 291.04C120.161 290.747 119.541 290.6 118.728 290.6H115.568V294.16ZM134.056 300L129.736 294.8L130.916 294.1L135.736 300H134.056ZM126.356 300V289.5H127.776V300H126.356ZM127.336 295.32V294.1H130.716V295.32H127.336ZM131.036 294.9L129.716 294.7L133.896 289.5H135.436L131.036 294.9ZM142.106 300.1C141.013 300.1 140.053 299.873 139.226 299.42C138.399 298.953 137.753 298.32 137.286 297.52C136.819 296.707 136.586 295.78 136.586 294.74C136.586 293.7 136.806 292.78 137.246 291.98C137.699 291.18 138.313 290.553 139.086 290.1C139.873 289.633 140.753 289.4 141.726 289.4C142.713 289.4 143.586 289.627 144.346 290.08C145.119 290.52 145.726 291.147 146.166 291.96C146.606 292.76 146.826 293.687 146.826 294.74C146.826 294.807 146.819 294.88 146.806 294.96C146.806 295.027 146.806 295.1 146.806 295.18H137.666V294.12H146.046L145.486 294.54C145.486 293.78 145.319 293.107 144.986 292.52C144.666 291.92 144.226 291.453 143.666 291.12C143.106 290.787 142.459 290.62 141.726 290.62C141.006 290.62 140.359 290.787 139.786 291.12C139.213 291.453 138.766 291.92 138.446 292.52C138.126 293.12 137.966 293.807 137.966 294.58V294.8C137.966 295.6 138.139 296.307 138.486 296.92C138.846 297.52 139.339 297.993 139.966 298.34C140.606 298.673 141.333 298.84 142.146 298.84C142.786 298.84 143.379 298.727 143.926 298.5C144.486 298.273 144.966 297.927 145.366 297.46L146.166 298.38C145.699 298.94 145.113 299.367 144.406 299.66C143.713 299.953 142.946 300.1 142.106 300.1ZM162.904 300L158.584 294.8L159.764 294.1L164.584 300H162.904ZM155.204 300V289.5H156.624V300H155.204ZM156.184 295.32V294.1H159.564V295.32H156.184ZM159.884 294.9L158.564 294.7L162.744 289.5H164.284L159.884 294.9ZM178.539 300.12C177.486 300.12 176.506 299.947 175.599 299.6C174.706 299.24 173.926 298.74 173.259 298.1C172.606 297.447 172.092 296.693 171.719 295.84C171.359 294.973 171.179 294.027 171.179 293C171.179 291.973 171.359 291.033 171.719 290.18C172.092 289.313 172.606 288.56 173.259 287.92C173.926 287.267 174.706 286.767 175.599 286.42C176.492 286.06 177.472 285.88 178.539 285.88C179.592 285.88 180.566 286.06 181.459 286.42C182.352 286.767 183.126 287.26 183.779 287.9C184.446 288.54 184.959 289.293 185.319 290.16C185.692 291.027 185.879 291.973 185.879 293C185.879 294.027 185.692 294.973 185.319 295.84C184.959 296.707 184.446 297.46 183.779 298.1C183.126 298.74 182.352 299.24 181.459 299.6C180.566 299.947 179.592 300.12 178.539 300.12ZM178.539 298.8C179.379 298.8 180.152 298.66 180.859 298.38C181.579 298.087 182.199 297.68 182.719 297.16C183.252 296.627 183.666 296.013 183.959 295.32C184.252 294.613 184.399 293.84 184.399 293C184.399 292.16 184.252 291.393 183.959 290.7C183.666 289.993 183.252 289.38 182.719 288.86C182.199 288.327 181.579 287.92 180.859 287.64C180.152 287.347 179.379 287.2 178.539 287.2C177.699 287.2 176.919 287.347 176.199 287.64C175.479 287.92 174.852 288.327 174.319 288.86C173.799 289.38 173.386 289.993 173.079 290.7C172.786 291.393 172.639 292.16 172.639 293C172.639 293.827 172.786 294.593 173.079 295.3C173.386 296.007 173.799 296.627 174.319 297.16C174.852 297.68 175.479 298.087 176.199 298.38C176.919 298.66 177.699 298.8 178.539 298.8ZM189.411 300V286H194.651C195.837 286 196.857 286.193 197.711 286.58C198.564 286.953 199.217 287.5 199.671 288.22C200.137 288.927 200.371 289.787 200.371 290.8C200.371 291.787 200.137 292.64 199.671 293.36C199.217 294.067 198.564 294.613 197.711 295C196.857 295.387 195.837 295.58 194.651 295.58H190.231L190.891 294.88V300H189.411ZM190.891 295L190.231 294.28H194.611C196.011 294.28 197.071 293.98 197.791 293.38C198.524 292.767 198.891 291.907 198.891 290.8C198.891 289.68 198.524 288.813 197.791 288.2C197.071 287.587 196.011 287.28 194.611 287.28H190.231L190.891 286.58V295ZM205.706 300V286.88L206.106 287.28H200.786V286H212.086V287.28H206.786L207.166 286.88V300H205.706ZM213.819 300.1C213.526 300.1 213.273 299.993 213.059 299.78C212.859 299.567 212.759 299.307 212.759 299C212.759 298.68 212.859 298.42 213.059 298.22C213.273 298.02 213.526 297.92 213.819 297.92C214.113 297.92 214.359 298.02 214.559 298.22C214.773 298.42 214.879 298.68 214.879 299C214.879 299.307 214.773 299.567 214.559 299.78C214.359 299.993 214.113 300.1 213.819 300.1ZM223.292 298.62C223.972 298.887 224.612 298.953 225.212 298.82C225.812 298.673 226.365 298.2 226.872 297.4L227.552 296.32L227.692 296.14L233.052 286H234.532L228.172 297.72C227.745 298.533 227.239 299.14 226.652 299.54C226.079 299.94 225.465 300.153 224.812 300.18C224.172 300.207 223.525 300.087 222.872 299.82L223.292 298.62ZM227.652 297.48L221.592 286H223.172L228.452 296.26L227.652 297.48ZM243.283 299.32V290.74H238.223L238.103 293.08C238.076 293.787 238.029 294.48 237.963 295.16C237.909 295.84 237.809 296.467 237.663 297.04C237.529 297.6 237.336 298.06 237.083 298.42C236.829 298.767 236.503 298.967 236.103 299.02L234.683 298.76C235.096 298.773 235.436 298.627 235.703 298.32C235.969 298 236.176 297.567 236.323 297.02C236.469 296.473 236.576 295.853 236.643 295.16C236.709 294.453 236.763 293.733 236.803 293L236.943 289.5H244.703V299.32H243.283ZM234.243 302.54V298.76H246.343V302.54H245.003V300H235.583V302.54H234.243ZM253.43 300.1C252.417 300.1 251.503 299.873 250.69 299.42C249.89 298.953 249.257 298.32 248.79 297.52C248.323 296.707 248.09 295.78 248.09 294.74C248.09 293.687 248.323 292.76 248.79 291.96C249.257 291.16 249.89 290.533 250.69 290.08C251.49 289.627 252.403 289.4 253.43 289.4C254.47 289.4 255.39 289.627 256.19 290.08C257.003 290.533 257.637 291.16 258.09 291.96C258.557 292.76 258.79 293.687 258.79 294.74C258.79 295.78 258.557 296.707 258.09 297.52C257.637 298.32 257.003 298.953 256.19 299.42C255.377 299.873 254.457 300.1 253.43 300.1ZM253.43 298.84C254.19 298.84 254.863 298.673 255.45 298.34C256.037 297.993 256.497 297.513 256.83 296.9C257.177 296.273 257.35 295.553 257.35 294.74C257.35 293.913 257.177 293.193 256.83 292.58C256.497 291.967 256.037 291.493 255.45 291.16C254.863 290.813 254.197 290.64 253.45 290.64C252.703 290.64 252.037 290.813 251.45 291.16C250.863 291.493 250.397 291.967 250.05 292.58C249.703 293.193 249.53 293.913 249.53 294.74C249.53 295.553 249.703 296.273 250.05 296.9C250.397 297.513 250.863 297.993 251.45 298.34C252.037 298.673 252.697 298.84 253.43 298.84ZM266.545 300.12C265.691 300.12 264.931 299.98 264.265 299.7C263.611 299.42 263.051 298.993 262.585 298.42C262.118 297.847 261.765 297.14 261.525 296.3C261.285 295.447 261.165 294.46 261.165 293.34C261.165 292.34 261.258 291.467 261.445 290.72C261.631 289.96 261.891 289.307 262.225 288.76C262.558 288.213 262.945 287.753 263.385 287.38C263.838 286.993 264.325 286.687 264.845 286.46C265.378 286.22 265.925 286.04 266.485 285.92L271.205 284.82L271.445 286.14L267.005 287.14C266.725 287.207 266.385 287.3 265.985 287.42C265.598 287.54 265.198 287.72 264.785 287.96C264.385 288.2 264.011 288.533 263.665 288.96C263.318 289.387 263.038 289.94 262.825 290.62C262.625 291.287 262.525 292.12 262.525 293.12C262.525 293.333 262.531 293.507 262.545 293.64C262.558 293.76 262.571 293.893 262.585 294.04C262.611 294.173 262.631 294.373 262.645 294.64L262.025 294.12C262.171 293.307 262.471 292.6 262.925 292C263.378 291.387 263.945 290.913 264.625 290.58C265.318 290.233 266.085 290.06 266.925 290.06C267.898 290.06 268.765 290.273 269.525 290.7C270.285 291.113 270.878 291.693 271.305 292.44C271.745 293.187 271.965 294.053 271.965 295.04C271.965 296.013 271.738 296.887 271.285 297.66C270.845 298.433 270.218 299.04 269.405 299.48C268.591 299.907 267.638 300.12 266.545 300.12ZM266.705 298.94C267.451 298.94 268.111 298.773 268.685 298.44C269.258 298.093 269.705 297.627 270.025 297.04C270.358 296.453 270.525 295.793 270.525 295.06C270.525 294.34 270.358 293.7 270.025 293.14C269.705 292.58 269.258 292.14 268.685 291.82C268.111 291.487 267.445 291.32 266.685 291.32C265.938 291.32 265.278 291.48 264.705 291.8C264.131 292.107 263.678 292.54 263.345 293.1C263.025 293.66 262.865 294.307 262.865 295.04C262.865 295.773 263.025 296.433 263.345 297.02C263.678 297.607 264.131 298.073 264.705 298.42C265.291 298.767 265.958 298.94 266.705 298.94ZM275.008 300V289.5H276.428V294.14H283.048V289.5H284.468V300H283.048V295.36H276.428V300H275.008ZM298.744 300V289.5H300.164V300H298.744ZM292.924 293.2C294.244 293.213 295.251 293.507 295.944 294.08C296.638 294.653 296.984 295.48 296.984 296.56C296.984 297.68 296.611 298.54 295.864 299.14C295.118 299.74 294.051 300.033 292.664 300.02L288.504 300V289.5H289.924V293.16L292.924 293.2ZM292.564 298.94C293.551 298.953 294.291 298.76 294.784 298.36C295.291 297.947 295.544 297.347 295.544 296.56C295.544 295.773 295.298 295.2 294.804 294.84C294.311 294.467 293.564 294.273 292.564 294.26L289.924 294.22V298.9L292.564 298.94ZM304.208 300V289.5H305.628V297.84L312.648 289.5H313.908V300H312.488V291.64L305.488 300H304.208ZM308.968 287.98C308.088 287.98 307.374 287.76 306.828 287.32C306.294 286.867 306.014 286.22 305.988 285.38H307.008C307.021 285.913 307.208 286.333 307.568 286.64C307.928 286.947 308.394 287.1 308.968 287.1C309.541 287.1 310.008 286.947 310.368 286.64C310.741 286.333 310.934 285.913 310.948 285.38H311.968C311.954 286.22 311.674 286.867 311.128 287.32C310.581 287.76 309.861 287.98 308.968 287.98ZM39.22 323.32V314.74H34.16L34.04 317.08C34.0133 317.787 33.9667 318.48 33.9 319.16C33.8467 319.84 33.7467 320.467 33.6 321.04C33.4667 321.6 33.2733 322.06 33.02 322.42C32.7667 322.767 32.44 322.967 32.04 323.02L30.62 322.76C31.0333 322.773 31.3733 322.627 31.64 322.32C31.9067 322 32.1133 321.567 32.26 321.02C32.4067 320.473 32.5133 319.853 32.58 319.16C32.6467 318.453 32.7 317.733 32.74 317L32.88 313.5H40.64V323.32H39.22ZM30.18 326.54V322.76H42.28V326.54H40.94V324H31.52V326.54H30.18ZM49.3673 324.1C48.354 324.1 47.4407 323.873 46.6273 323.42C45.8273 322.953 45.194 322.32 44.7273 321.52C44.2607 320.707 44.0273 319.78 44.0273 318.74C44.0273 317.687 44.2607 316.76 44.7273 315.96C45.194 315.16 45.8273 314.533 46.6273 314.08C47.4273 313.627 48.3407 313.4 49.3673 313.4C50.4073 313.4 51.3273 313.627 52.1273 314.08C52.9407 314.533 53.574 315.16 54.0273 315.96C54.494 316.76 54.7273 317.687 54.7273 318.74C54.7273 319.78 54.494 320.707 54.0273 321.52C53.574 322.32 52.9407 322.953 52.1273 323.42C51.314 323.873 50.394 324.1 49.3673 324.1ZM49.3673 322.84C50.1273 322.84 50.8007 322.673 51.3873 322.34C51.974 321.993 52.434 321.513 52.7673 320.9C53.114 320.273 53.2873 319.553 53.2873 318.74C53.2873 317.913 53.114 317.193 52.7673 316.58C52.434 315.967 51.974 315.493 51.3873 315.16C50.8007 314.813 50.134 314.64 49.3873 314.64C48.6407 314.64 47.974 314.813 47.3873 315.16C46.8007 315.493 46.334 315.967 45.9873 316.58C45.6407 317.193 45.4673 317.913 45.4673 318.74C45.4673 319.553 45.6407 320.273 45.9873 320.9C46.334 321.513 46.8007 321.993 47.3873 322.34C47.974 322.673 48.634 322.84 49.3673 322.84ZM62.1622 324.1C61.1222 324.1 60.1889 323.873 59.3622 323.42C58.5489 322.953 57.9089 322.32 57.4422 321.52C56.9755 320.707 56.7422 319.78 56.7422 318.74C56.7422 317.687 56.9755 316.76 57.4422 315.96C57.9089 315.16 58.5489 314.533 59.3622 314.08C60.1889 313.627 61.1222 313.4 62.1622 313.4C63.0555 313.4 63.8622 313.573 64.5822 313.92C65.3022 314.267 65.8689 314.787 66.2822 315.48L65.2222 316.2C64.8622 315.667 64.4155 315.273 63.8822 315.02C63.3489 314.767 62.7689 314.64 62.1422 314.64C61.3955 314.64 60.7222 314.813 60.1222 315.16C59.5222 315.493 59.0489 315.967 58.7022 316.58C58.3555 317.193 58.1822 317.913 58.1822 318.74C58.1822 319.567 58.3555 320.287 58.7022 320.9C59.0489 321.513 59.5222 321.993 60.1222 322.34C60.7222 322.673 61.3955 322.84 62.1422 322.84C62.7689 322.84 63.3489 322.713 63.8822 322.46C64.4155 322.207 64.8622 321.82 65.2222 321.3L66.2822 322.02C65.8689 322.7 65.3022 323.22 64.5822 323.58C63.8622 323.927 63.0555 324.1 62.1622 324.1ZM70.8364 324V314.36L71.1964 314.74H66.8564V313.5H76.2364V314.74H71.8964L72.2564 314.36V324H70.8364ZM78.4695 327.98C77.9762 327.98 77.5029 327.9 77.0495 327.74C76.6095 327.58 76.2295 327.34 75.9095 327.02L76.5695 325.96C76.8362 326.213 77.1229 326.407 77.4295 326.54C77.7495 326.687 78.1029 326.76 78.4895 326.76C78.9562 326.76 79.3562 326.627 79.6895 326.36C80.0362 326.107 80.3629 325.653 80.6695 325L81.3495 323.46L81.5095 323.24L85.8295 313.5H87.2295L81.9695 325.26C81.6762 325.94 81.3495 326.48 80.9895 326.88C80.6429 327.28 80.2629 327.56 79.8495 327.72C79.4362 327.893 78.9762 327.98 78.4695 327.98ZM81.2695 324.3L76.4295 313.5H77.9095L82.1895 323.14L81.2695 324.3ZM89.4419 324V313.5H98.8819V324H97.4619V314.36L97.8219 314.74H90.5019L90.8619 314.36V324H89.4419ZM108.153 324V313.5H109.573V321.84L116.593 313.5H117.853V324H116.433V315.64L109.433 324H108.153ZM134.857 324L130.537 318.8L131.717 318.1L136.537 324H134.857ZM127.157 324V313.5H128.577V324H127.157ZM128.137 319.32V318.1H131.517V319.32H128.137ZM131.837 318.9L130.517 318.7L134.697 313.5H136.237L131.837 318.9ZM142.727 324.1C141.713 324.1 140.8 323.873 139.987 323.42C139.187 322.953 138.553 322.32 138.087 321.52C137.62 320.707 137.387 319.78 137.387 318.74C137.387 317.687 137.62 316.76 138.087 315.96C138.553 315.16 139.187 314.533 139.987 314.08C140.787 313.627 141.7 313.4 142.727 313.4C143.767 313.4 144.687 313.627 145.487 314.08C146.3 314.533 146.933 315.16 147.387 315.96C147.853 316.76 148.087 317.687 148.087 318.74C148.087 319.78 147.853 320.707 147.387 321.52C146.933 322.32 146.3 322.953 145.487 323.42C144.673 323.873 143.753 324.1 142.727 324.1ZM142.727 322.84C143.487 322.84 144.16 322.673 144.747 322.34C145.333 321.993 145.793 321.513 146.127 320.9C146.473 320.273 146.647 319.553 146.647 318.74C146.647 317.913 146.473 317.193 146.127 316.58C145.793 315.967 145.333 315.493 144.747 315.16C144.16 314.813 143.493 314.64 142.747 314.64C142 314.64 141.333 314.813 140.747 315.16C140.16 315.493 139.693 315.967 139.347 316.58C139 317.193 138.827 317.913 138.827 318.74C138.827 319.553 139 320.273 139.347 320.9C139.693 321.513 140.16 321.993 140.747 322.34C141.333 322.673 141.993 322.84 142.727 322.84ZM151.122 324V313.5H152.562L157.322 321.56H156.722L161.562 313.5H162.882V324H161.582V315.12L161.842 315.24L157.322 322.72H156.682L152.122 315.16L152.422 315.1V324H151.122ZM166.922 324V313.5H176.362V324H174.942V314.36L175.302 314.74H167.982L168.342 314.36V324H166.922ZM186.919 324V321.68L186.859 321.3V317.42C186.859 316.527 186.606 315.84 186.099 315.36C185.606 314.88 184.866 314.64 183.879 314.64C183.199 314.64 182.552 314.753 181.939 314.98C181.326 315.207 180.806 315.507 180.379 315.88L179.739 314.82C180.272 314.367 180.912 314.02 181.659 313.78C182.406 313.527 183.192 313.4 184.019 313.4C185.379 313.4 186.426 313.74 187.159 314.42C187.906 315.087 188.279 316.107 188.279 317.48V324H186.919ZM183.299 324.1C182.512 324.1 181.826 323.973 181.239 323.72C180.666 323.453 180.226 323.093 179.919 322.64C179.612 322.173 179.459 321.64 179.459 321.04C179.459 320.493 179.586 320 179.839 319.56C180.106 319.107 180.532 318.747 181.119 318.48C181.719 318.2 182.519 318.06 183.519 318.06H187.139V319.12H183.559C182.546 319.12 181.839 319.3 181.439 319.66C181.052 320.02 180.859 320.467 180.859 321C180.859 321.6 181.092 322.08 181.559 322.44C182.026 322.8 182.679 322.98 183.519 322.98C184.319 322.98 185.006 322.8 185.579 322.44C186.166 322.067 186.592 321.533 186.859 320.84L187.179 321.82C186.912 322.513 186.446 323.067 185.779 323.48C185.126 323.893 184.299 324.1 183.299 324.1ZM199.759 324L195.439 318.8L196.619 318.1L201.439 324H199.759ZM192.059 324V313.5H193.479V324H192.059ZM193.039 319.32V318.1H196.419V319.32H193.039ZM196.739 318.9L195.419 318.7L199.599 313.5H201.139L196.739 318.9ZM205.465 324V314.36L205.825 314.74H201.485V313.5H210.865V314.74H206.525L206.885 314.36V324H205.465ZM212.918 324V313.5H214.338V318.14H220.958V313.5H222.378V324H220.958V319.36H214.338V324H212.918ZM236.655 324V313.5H238.075V324H236.655ZM230.835 317.2C232.155 317.213 233.161 317.507 233.855 318.08C234.548 318.653 234.895 319.48 234.895 320.56C234.895 321.68 234.521 322.54 233.775 323.14C233.028 323.74 231.961 324.033 230.575 324.02L226.415 324V313.5H227.835V317.16L230.835 317.2ZM230.475 322.94C231.461 322.953 232.201 322.76 232.695 322.36C233.201 321.947 233.455 321.347 233.455 320.56C233.455 319.773 233.208 319.2 232.715 318.84C232.221 318.467 231.475 318.273 230.475 318.26L227.835 318.22V322.9L230.475 322.94ZM246.618 324.1C245.524 324.1 244.564 323.873 243.738 323.42C242.911 322.953 242.264 322.32 241.798 321.52C241.331 320.707 241.098 319.78 241.098 318.74C241.098 317.7 241.318 316.78 241.758 315.98C242.211 315.18 242.824 314.553 243.598 314.1C244.384 313.633 245.264 313.4 246.238 313.4C247.224 313.4 248.098 313.627 248.858 314.08C249.631 314.52 250.238 315.147 250.678 315.96C251.118 316.76 251.338 317.687 251.338 318.74C251.338 318.807 251.331 318.88 251.318 318.96C251.318 319.027 251.318 319.1 251.318 319.18H242.178V318.12H250.558L249.998 318.54C249.998 317.78 249.831 317.107 249.498 316.52C249.178 315.92 248.738 315.453 248.178 315.12C247.618 314.787 246.971 314.62 246.238 314.62C245.518 314.62 244.871 314.787 244.298 315.12C243.724 315.453 243.278 315.92 242.958 316.52C242.638 317.12 242.478 317.807 242.478 318.58V318.8C242.478 319.6 242.651 320.307 242.998 320.92C243.358 321.52 243.851 321.993 244.478 322.34C245.118 322.673 245.844 322.84 246.658 322.84C247.298 322.84 247.891 322.727 248.438 322.5C248.998 322.273 249.478 321.927 249.878 321.46L250.678 322.38C250.211 322.94 249.624 323.367 248.918 323.66C248.224 323.953 247.458 324.1 246.618 324.1ZM32.02 348V337.5H33.46L38.22 345.56H37.62L42.46 337.5H43.78V348H42.48V339.12L42.74 339.24L38.22 346.72H37.58L33.02 339.16L33.32 339.1V348H32.02ZM54.3408 348V345.68L54.2808 345.3V341.42C54.2808 340.527 54.0274 339.84 53.5208 339.36C53.0274 338.88 52.2874 338.64 51.3008 338.64C50.6208 338.64 49.9741 338.753 49.3608 338.98C48.7474 339.207 48.2274 339.507 47.8008 339.88L47.1608 338.82C47.6941 338.367 48.3341 338.02 49.0808 337.78C49.8274 337.527 50.6141 337.4 51.4408 337.4C52.8008 337.4 53.8474 337.74 54.5808 338.42C55.3274 339.087 55.7008 340.107 55.7008 341.48V348H54.3408ZM50.7208 348.1C49.9341 348.1 49.2474 347.973 48.6608 347.72C48.0874 347.453 47.6474 347.093 47.3408 346.64C47.0341 346.173 46.8808 345.64 46.8808 345.04C46.8808 344.493 47.0074 344 47.2608 343.56C47.5274 343.107 47.9541 342.747 48.5408 342.48C49.1408 342.2 49.9408 342.06 50.9408 342.06H54.5608V343.12H50.9808C49.9674 343.12 49.2608 343.3 48.8608 343.66C48.4741 344.02 48.2808 344.467 48.2808 345C48.2808 345.6 48.5141 346.08 48.9808 346.44C49.4474 346.8 50.1008 346.98 50.9408 346.98C51.7408 346.98 52.4274 346.8 53.0008 346.44C53.5874 346.067 54.0141 345.533 54.2808 344.84L54.6008 345.82C54.3341 346.513 53.8674 347.067 53.2008 347.48C52.5474 347.893 51.7208 348.1 50.7208 348.1ZM61.4809 348V338.36L61.8409 338.74H57.5009V337.5H66.8809V338.74H62.5409L62.9009 338.36V348H61.4809ZM72.9458 348.1C71.8524 348.1 70.8924 347.873 70.0658 347.42C69.2391 346.953 68.5924 346.32 68.1258 345.52C67.6591 344.707 67.4258 343.78 67.4258 342.74C67.4258 341.7 67.6458 340.78 68.0858 339.98C68.5391 339.18 69.1524 338.553 69.9258 338.1C70.7124 337.633 71.5924 337.4 72.5658 337.4C73.5524 337.4 74.4258 337.627 75.1858 338.08C75.9591 338.52 76.5658 339.147 77.0058 339.96C77.4458 340.76 77.6658 341.687 77.6658 342.74C77.6658 342.807 77.6591 342.88 77.6458 342.96C77.6458 343.027 77.6458 343.1 77.6458 343.18H68.5058V342.12H76.8858L76.3258 342.54C76.3258 341.78 76.1591 341.107 75.8258 340.52C75.5058 339.92 75.0658 339.453 74.5058 339.12C73.9458 338.787 73.2991 338.62 72.5658 338.62C71.8458 338.62 71.1991 338.787 70.6258 339.12C70.0524 339.453 69.6058 339.92 69.2858 340.52C68.9658 341.12 68.8058 341.807 68.8058 342.58V342.8C68.8058 343.6 68.9791 344.307 69.3258 344.92C69.6858 345.52 70.1791 345.993 70.8058 346.34C71.4458 346.673 72.1724 346.84 72.9858 346.84C73.6258 346.84 74.2191 346.727 74.7658 346.5C75.3258 346.273 75.8058 345.927 76.2058 345.46L77.0058 346.38C76.5391 346.94 75.9524 347.367 75.2458 347.66C74.5524 347.953 73.7858 348.1 72.9458 348.1ZM86.2291 348.1C85.3224 348.1 84.5024 347.893 83.7691 347.48C83.0357 347.053 82.4491 346.447 82.0091 345.66C81.5824 344.86 81.3691 343.887 81.3691 342.74C81.3691 341.593 81.5824 340.627 82.0091 339.84C82.4357 339.04 83.0157 338.433 83.7491 338.02C84.4824 337.607 85.3091 337.4 86.2291 337.4C87.2291 337.4 88.1224 337.627 88.9091 338.08C89.7091 338.52 90.3357 339.147 90.7891 339.96C91.2424 340.76 91.4691 341.687 91.4691 342.74C91.4691 343.807 91.2424 344.74 90.7891 345.54C90.3357 346.34 89.7091 346.967 88.9091 347.42C88.1224 347.873 87.2291 348.1 86.2291 348.1ZM80.8091 351.88V337.5H82.1691V340.66L82.0291 342.76L82.2291 344.88V351.88H80.8091ZM86.1291 346.84C86.8757 346.84 87.5424 346.673 88.1291 346.34C88.7157 345.993 89.1824 345.513 89.5291 344.9C89.8757 344.273 90.0491 343.553 90.0491 342.74C90.0491 341.927 89.8757 341.213 89.5291 340.6C89.1824 339.987 88.7157 339.507 88.1291 339.16C87.5424 338.813 86.8757 338.64 86.1291 338.64C85.3824 338.64 84.7091 338.813 84.1091 339.16C83.5224 339.507 83.0557 339.987 82.7091 340.6C82.3757 341.213 82.2091 341.927 82.2091 342.74C82.2091 343.553 82.3757 344.273 82.7091 344.9C83.0557 345.513 83.5224 345.993 84.1091 346.34C84.7091 346.673 85.3824 346.84 86.1291 346.84ZM94.52 348V337.5H95.94V345.84L102.96 337.5H104.22V348H102.8V339.64L95.8 348H94.52ZM114.81 348V345.68L114.75 345.3V341.42C114.75 340.527 114.496 339.84 113.99 339.36C113.496 338.88 112.756 338.64 111.77 338.64C111.09 338.64 110.443 338.753 109.83 338.98C109.216 339.207 108.696 339.507 108.27 339.88L107.63 338.82C108.163 338.367 108.803 338.02 109.55 337.78C110.296 337.527 111.083 337.4 111.91 337.4C113.27 337.4 114.316 337.74 115.05 338.42C115.796 339.087 116.17 340.107 116.17 341.48V348H114.81ZM111.19 348.1C110.403 348.1 109.716 347.973 109.13 347.72C108.556 347.453 108.116 347.093 107.81 346.64C107.503 346.173 107.35 345.64 107.35 345.04C107.35 344.493 107.476 344 107.73 343.56C107.996 343.107 108.423 342.747 109.01 342.48C109.61 342.2 110.41 342.06 111.41 342.06H115.03V343.12H111.45C110.436 343.12 109.73 343.3 109.33 343.66C108.943 344.02 108.75 344.467 108.75 345C108.75 345.6 108.983 346.08 109.45 346.44C109.916 346.8 110.57 346.98 111.41 346.98C112.21 346.98 112.896 346.8 113.47 346.44C114.056 346.067 114.483 345.533 114.75 344.84L115.07 345.82C114.803 346.513 114.336 347.067 113.67 347.48C113.016 347.893 112.19 348.1 111.19 348.1ZM118.03 347.98L118.13 346.76C118.223 346.773 118.31 346.793 118.39 346.82C118.483 346.833 118.563 346.84 118.63 346.84C119.056 346.84 119.396 346.68 119.65 346.36C119.916 346.04 120.116 345.613 120.25 345.08C120.383 344.547 120.476 343.947 120.53 343.28C120.583 342.6 120.63 341.92 120.67 341.24L120.85 337.5H128.55V348H127.13V338.32L127.49 338.74H121.77L122.11 338.3L121.95 341.34C121.91 342.247 121.836 343.113 121.73 343.94C121.636 344.767 121.483 345.493 121.27 346.12C121.07 346.747 120.79 347.24 120.43 347.6C120.07 347.947 119.61 348.12 119.05 348.12C118.89 348.12 118.723 348.107 118.55 348.08C118.39 348.053 118.216 348.02 118.03 347.98ZM142.826 348V337.5H144.246V348H142.826ZM137.006 341.2C138.326 341.213 139.333 341.507 140.026 342.08C140.72 342.653 141.066 343.48 141.066 344.56C141.066 345.68 140.693 346.54 139.946 347.14C139.2 347.74 138.133 348.033 136.746 348.02L132.586 348V337.5H134.006V341.16L137.006 341.2ZM136.646 346.94C137.633 346.953 138.373 346.76 138.866 346.36C139.373 345.947 139.626 345.347 139.626 344.56C139.626 343.773 139.38 343.2 138.886 342.84C138.393 342.467 137.646 342.273 136.646 342.26L134.006 342.22V346.9L136.646 346.94ZM157.844 348.1C156.831 348.1 155.917 347.873 155.104 347.42C154.304 346.953 153.671 346.32 153.204 345.52C152.737 344.707 152.504 343.78 152.504 342.74C152.504 341.687 152.737 340.76 153.204 339.96C153.671 339.16 154.304 338.533 155.104 338.08C155.904 337.627 156.817 337.4 157.844 337.4C158.884 337.4 159.804 337.627 160.604 338.08C161.417 338.533 162.051 339.16 162.504 339.96C162.971 340.76 163.204 341.687 163.204 342.74C163.204 343.78 162.971 344.707 162.504 345.52C162.051 346.32 161.417 346.953 160.604 347.42C159.791 347.873 158.871 348.1 157.844 348.1ZM157.844 346.84C158.604 346.84 159.277 346.673 159.864 346.34C160.451 345.993 160.911 345.513 161.244 344.9C161.591 344.273 161.764 343.553 161.764 342.74C161.764 341.913 161.591 341.193 161.244 340.58C160.911 339.967 160.451 339.493 159.864 339.16C159.277 338.813 158.611 338.64 157.864 338.64C157.117 338.64 156.451 338.813 155.864 339.16C155.277 339.493 154.811 339.967 154.464 340.58C154.117 341.193 153.944 341.913 153.944 342.74C153.944 343.553 154.117 344.273 154.464 344.9C154.811 345.513 155.277 345.993 155.864 346.34C156.451 346.673 157.111 346.84 157.844 346.84ZM170.959 348.12C170.105 348.12 169.345 347.98 168.679 347.7C168.025 347.42 167.465 346.993 166.999 346.42C166.532 345.847 166.179 345.14 165.939 344.3C165.699 343.447 165.579 342.46 165.579 341.34C165.579 340.34 165.672 339.467 165.859 338.72C166.045 337.96 166.305 337.307 166.639 336.76C166.972 336.213 167.359 335.753 167.799 335.38C168.252 334.993 168.739 334.687 169.259 334.46C169.792 334.22 170.339 334.04 170.899 333.92L175.619 332.82L175.859 334.14L171.419 335.14C171.139 335.207 170.799 335.3 170.399 335.42C170.012 335.54 169.612 335.72 169.199 335.96C168.799 336.2 168.425 336.533 168.079 336.96C167.732 337.387 167.452 337.94 167.239 338.62C167.039 339.287 166.939 340.12 166.939 341.12C166.939 341.333 166.945 341.507 166.959 341.64C166.972 341.76 166.985 341.893 166.999 342.04C167.025 342.173 167.045 342.373 167.059 342.64L166.439 342.12C166.585 341.307 166.885 340.6 167.339 340C167.792 339.387 168.359 338.913 169.039 338.58C169.732 338.233 170.499 338.06 171.339 338.06C172.312 338.06 173.179 338.273 173.939 338.7C174.699 339.113 175.292 339.693 175.719 340.44C176.159 341.187 176.379 342.053 176.379 343.04C176.379 344.013 176.152 344.887 175.699 345.66C175.259 346.433 174.632 347.04 173.819 347.48C173.005 347.907 172.052 348.12 170.959 348.12ZM171.119 346.94C171.865 346.94 172.525 346.773 173.099 346.44C173.672 346.093 174.119 345.627 174.439 345.04C174.772 344.453 174.939 343.793 174.939 343.06C174.939 342.34 174.772 341.7 174.439 341.14C174.119 340.58 173.672 340.14 173.099 339.82C172.525 339.487 171.859 339.32 171.099 339.32C170.352 339.32 169.692 339.48 169.119 339.8C168.545 340.107 168.092 340.54 167.759 341.1C167.439 341.66 167.279 342.307 167.279 343.04C167.279 343.773 167.439 344.433 167.759 345.02C168.092 345.607 168.545 346.073 169.119 346.42C169.705 346.767 170.372 346.94 171.119 346.94ZM183.922 348.1C182.829 348.1 181.869 347.873 181.042 347.42C180.216 346.953 179.569 346.32 179.102 345.52C178.636 344.707 178.402 343.78 178.402 342.74C178.402 341.7 178.622 340.78 179.062 339.98C179.516 339.18 180.129 338.553 180.902 338.1C181.689 337.633 182.569 337.4 183.542 337.4C184.529 337.4 185.402 337.627 186.162 338.08C186.936 338.52 187.542 339.147 187.982 339.96C188.422 340.76 188.642 341.687 188.642 342.74C188.642 342.807 188.636 342.88 188.622 342.96C188.622 343.027 188.622 343.1 188.622 343.18H179.482V342.12H187.862L187.302 342.54C187.302 341.78 187.136 341.107 186.802 340.52C186.482 339.92 186.042 339.453 185.482 339.12C184.922 338.787 184.276 338.62 183.542 338.62C182.822 338.62 182.176 338.787 181.602 339.12C181.029 339.453 180.582 339.92 180.262 340.52C179.942 341.12 179.782 341.807 179.782 342.58V342.8C179.782 343.6 179.956 344.307 180.302 344.92C180.662 345.52 181.156 345.993 181.782 346.34C182.422 346.673 183.149 346.84 183.962 346.84C184.602 346.84 185.196 346.727 185.742 346.5C186.302 346.273 186.782 345.927 187.182 345.46L187.982 346.38C187.516 346.94 186.929 347.367 186.222 347.66C185.529 347.953 184.762 348.1 183.922 348.1ZM196.186 348.1C195.146 348.1 194.212 347.873 193.386 347.42C192.572 346.953 191.932 346.32 191.466 345.52C190.999 344.707 190.766 343.78 190.766 342.74C190.766 341.687 190.999 340.76 191.466 339.96C191.932 339.16 192.572 338.533 193.386 338.08C194.212 337.627 195.146 337.4 196.186 337.4C197.079 337.4 197.886 337.573 198.606 337.92C199.326 338.267 199.892 338.787 200.306 339.48L199.246 340.2C198.886 339.667 198.439 339.273 197.906 339.02C197.372 338.767 196.792 338.64 196.166 338.64C195.419 338.64 194.746 338.813 194.146 339.16C193.546 339.493 193.072 339.967 192.726 340.58C192.379 341.193 192.206 341.913 192.206 342.74C192.206 343.567 192.379 344.287 192.726 344.9C193.072 345.513 193.546 345.993 194.146 346.34C194.746 346.673 195.419 346.84 196.166 346.84C196.792 346.84 197.372 346.713 197.906 346.46C198.439 346.207 198.886 345.82 199.246 345.3L200.306 346.02C199.892 346.7 199.326 347.22 198.606 347.58C197.886 347.927 197.079 348.1 196.186 348.1ZM203.055 348V337.5H212.495V348H211.075V338.36L211.435 338.74H204.115L204.475 338.36V348H203.055ZM221.032 348.1C219.938 348.1 218.978 347.873 218.152 347.42C217.325 346.953 216.678 346.32 216.212 345.52C215.745 344.707 215.512 343.78 215.512 342.74C215.512 341.7 215.732 340.78 216.172 339.98C216.625 339.18 217.238 338.553 218.012 338.1C218.798 337.633 219.678 337.4 220.652 337.4C221.638 337.4 222.512 337.627 223.272 338.08C224.045 338.52 224.652 339.147 225.092 339.96C225.532 340.76 225.752 341.687 225.752 342.74C225.752 342.807 225.745 342.88 225.732 342.96C225.732 343.027 225.732 343.1 225.732 343.18H216.592V342.12H224.972L224.412 342.54C224.412 341.78 224.245 341.107 223.912 340.52C223.592 339.92 223.152 339.453 222.592 339.12C222.032 338.787 221.385 338.62 220.652 338.62C219.932 338.62 219.285 338.787 218.712 339.12C218.138 339.453 217.692 339.92 217.372 340.52C217.052 341.12 216.892 341.807 216.892 342.58V342.8C216.892 343.6 217.065 344.307 217.412 344.92C217.772 345.52 218.265 345.993 218.892 346.34C219.532 346.673 220.258 346.84 221.072 346.84C221.712 346.84 222.305 346.727 222.852 346.5C223.412 346.273 223.892 345.927 224.292 345.46L225.092 346.38C224.625 346.94 224.038 347.367 223.332 347.66C222.638 347.953 221.872 348.1 221.032 348.1ZM235.535 343.56C234.922 343.827 234.302 344.04 233.675 344.2C233.062 344.347 232.448 344.42 231.835 344.42C230.595 344.42 229.615 344.14 228.895 343.58C228.175 343.007 227.815 342.127 227.815 340.94V337.5H229.215V340.86C229.215 341.66 229.475 342.26 229.995 342.66C230.515 343.06 231.215 343.26 232.095 343.26C232.628 343.26 233.188 343.193 233.775 343.06C234.362 342.913 234.955 342.707 235.555 342.44L235.535 343.56ZM235.415 348V337.5H236.835V348H235.415ZM240.868 348V337.5H242.288V345.84L249.308 337.5H250.568V348H249.148V339.64L242.148 348H240.868ZM254.637 348V337.5H259.277C260.464 337.5 261.397 337.727 262.077 338.18C262.771 338.633 263.117 339.3 263.117 340.18C263.117 341.033 262.791 341.693 262.137 342.16C261.484 342.613 260.624 342.84 259.557 342.84L259.837 342.42C261.091 342.42 262.011 342.653 262.597 343.12C263.184 343.587 263.477 344.26 263.477 345.14C263.477 346.047 263.144 346.753 262.477 347.26C261.824 347.753 260.804 348 259.417 348H254.637ZM256.017 346.88H259.357C260.251 346.88 260.924 346.74 261.377 346.46C261.844 346.167 262.077 345.7 262.077 345.06C262.077 344.42 261.871 343.953 261.457 343.66C261.044 343.367 260.391 343.22 259.497 343.22H256.017V346.88ZM256.017 342.16H259.177C259.991 342.16 260.611 342.007 261.037 341.7C261.477 341.393 261.697 340.947 261.697 340.36C261.697 339.773 261.477 339.333 261.037 339.04C260.611 338.747 259.991 338.6 259.177 338.6H256.017V342.16ZM273.325 348V345.68L273.265 345.3V341.42C273.265 340.527 273.012 339.84 272.505 339.36C272.012 338.88 271.272 338.64 270.285 338.64C269.605 338.64 268.958 338.753 268.345 338.98C267.732 339.207 267.212 339.507 266.785 339.88L266.145 338.82C266.678 338.367 267.318 338.02 268.065 337.78C268.812 337.527 269.598 337.4 270.425 337.4C271.785 337.4 272.832 337.74 273.565 338.42C274.312 339.087 274.685 340.107 274.685 341.48V348H273.325ZM269.705 348.1C268.918 348.1 268.232 347.973 267.645 347.72C267.072 347.453 266.632 347.093 266.325 346.64C266.018 346.173 265.865 345.64 265.865 345.04C265.865 344.493 265.992 344 266.245 343.56C266.512 343.107 266.938 342.747 267.525 342.48C268.125 342.2 268.925 342.06 269.925 342.06H273.545V343.12H269.965C268.952 343.12 268.245 343.3 267.845 343.66C267.458 344.02 267.265 344.467 267.265 345C267.265 345.6 267.498 346.08 267.965 346.44C268.432 346.8 269.085 346.98 269.925 346.98C270.725 346.98 271.412 346.8 271.985 346.44C272.572 346.067 272.998 345.533 273.265 344.84L273.585 345.82C273.318 346.513 272.852 347.067 272.185 347.48C271.532 347.893 270.705 348.1 269.705 348.1ZM278.465 348V337.5H279.885V342.02H283.085V343.32H279.885V348H278.465ZM287.505 348.1C286.505 348.1 285.605 347.873 284.805 347.42C284.019 346.953 283.399 346.32 282.945 345.52C282.492 344.707 282.265 343.78 282.265 342.74C282.265 341.687 282.492 340.76 282.945 339.96C283.399 339.16 284.019 338.533 284.805 338.08C285.605 337.627 286.505 337.4 287.505 337.4C288.505 337.4 289.399 337.627 290.185 338.08C290.972 338.533 291.592 339.16 292.045 339.96C292.499 340.76 292.725 341.687 292.725 342.74C292.725 343.78 292.499 344.707 292.045 345.52C291.592 346.32 290.972 346.953 290.185 347.42C289.399 347.873 288.505 348.1 287.505 348.1ZM287.505 346.86C288.239 346.86 288.892 346.687 289.465 346.34C290.039 345.993 290.492 345.513 290.825 344.9C291.159 344.273 291.325 343.553 291.325 342.74C291.325 341.913 291.159 341.193 290.825 340.58C290.492 339.967 290.039 339.493 289.465 339.16C288.892 338.813 288.239 338.64 287.505 338.64C286.785 338.64 286.132 338.813 285.545 339.16C284.972 339.493 284.519 339.967 284.185 340.58C283.852 341.193 283.685 341.913 283.685 342.74C283.685 343.553 283.852 344.273 284.185 344.9C284.519 345.513 284.972 345.993 285.545 346.34C286.132 346.687 286.785 346.86 287.505 346.86ZM297.379 348V338.36L297.739 338.74H293.399V337.5H302.779V338.74H298.439L298.799 338.36V348H297.379ZM33.48 367.2V366.12H39.58V367.2H33.48ZM34.88 361.4C35.9467 361.4 36.9 361.633 37.74 362.1C38.58 362.553 39.24 363.187 39.72 364C40.2133 364.8 40.46 365.713 40.46 366.74C40.46 367.767 40.2133 368.687 39.72 369.5C39.24 370.313 38.58 370.953 37.74 371.42C36.9 371.887 35.9467 372.12 34.88 372.12C34.0133 372.12 33.2067 371.987 32.46 371.72C31.7267 371.44 31.1067 371.04 30.6 370.52L31.44 369.68C31.8933 370.107 32.4067 370.427 32.98 370.64C33.5533 370.84 34.1667 370.94 34.82 370.94C35.6467 370.94 36.38 370.76 37.02 370.4C37.6733 370.027 38.1867 369.527 38.56 368.9C38.9333 368.26 39.12 367.54 39.12 366.74C39.12 365.94 38.9333 365.227 38.56 364.6C38.1867 363.96 37.6733 363.46 37.02 363.1C36.38 362.74 35.6467 362.56 34.82 362.56C34.1667 362.56 33.5533 362.667 32.98 362.88C32.4067 363.08 31.8933 363.393 31.44 363.82L30.6 363C31.1067 362.467 31.7267 362.067 32.46 361.8C33.2067 361.533 34.0133 361.4 34.88 361.4ZM49.3458 372.12C49.3458 372.12 49.3191 372.12 49.2658 372.12C49.2124 372.12 49.1591 372.12 49.1058 372.12C49.0658 372.12 49.0324 372.12 49.0058 372.12C46.9258 372.107 45.3058 371.633 44.1458 370.7C42.9858 369.767 42.4058 368.44 42.4058 366.72C42.4058 365.027 42.9858 363.72 44.1458 362.8C45.3191 361.867 46.9658 361.393 49.0858 361.38C49.0991 361.38 49.1258 361.38 49.1658 361.38C49.2191 361.38 49.2658 361.38 49.3058 361.38C49.3458 361.38 49.3724 361.38 49.3858 361.38C51.5191 361.393 53.1791 361.867 54.3658 362.8C55.5524 363.72 56.1458 365.027 56.1458 366.72C56.1458 368.453 55.5458 369.787 54.3458 370.72C53.1591 371.653 51.4924 372.12 49.3458 372.12ZM49.3258 370.88C50.5124 370.88 51.5058 370.72 52.3058 370.4C53.1058 370.067 53.7124 369.593 54.1258 368.98C54.5391 368.367 54.7458 367.613 54.7458 366.72C54.7458 365.853 54.5391 365.12 54.1258 364.52C53.7124 363.907 53.1058 363.44 52.3058 363.12C51.5058 362.8 50.5124 362.64 49.3258 362.64C49.3124 362.64 49.2724 362.64 49.2058 362.64C49.1524 362.64 49.1191 362.64 49.1058 362.64C47.9458 362.64 46.9724 362.807 46.1858 363.14C45.3991 363.46 44.8058 363.92 44.4058 364.52C44.0058 365.12 43.8058 365.853 43.8058 366.72C43.8058 367.6 44.0058 368.347 44.4058 368.96C44.8191 369.573 45.4191 370.047 46.2058 370.38C46.9924 370.7 47.9591 370.867 49.1058 370.88C49.1324 370.88 49.1724 370.88 49.2258 370.88C49.2791 370.88 49.3124 370.88 49.3258 370.88ZM48.5658 375.88V357.16H49.9458V375.88H48.5658ZM65.0489 372.12C65.0489 372.12 65.0222 372.12 64.9689 372.12C64.9156 372.12 64.8622 372.12 64.8089 372.12C64.7689 372.12 64.7356 372.12 64.7089 372.12C62.6289 372.107 61.0089 371.633 59.8489 370.7C58.6889 369.767 58.1089 368.44 58.1089 366.72C58.1089 365.027 58.6889 363.72 59.8489 362.8C61.0222 361.867 62.6689 361.393 64.7889 361.38C64.8022 361.38 64.8289 361.38 64.8689 361.38C64.9222 361.38 64.9689 361.38 65.0089 361.38C65.0489 361.38 65.0756 361.38 65.0889 361.38C67.2222 361.393 68.8822 361.867 70.0689 362.8C71.2556 363.72 71.8489 365.027 71.8489 366.72C71.8489 368.453 71.2489 369.787 70.0489 370.72C68.8622 371.653 67.1956 372.12 65.0489 372.12ZM65.0289 370.88C66.2156 370.88 67.2089 370.72 68.0089 370.4C68.8089 370.067 69.4156 369.593 69.8289 368.98C70.2422 368.367 70.4489 367.613 70.4489 366.72C70.4489 365.853 70.2422 365.12 69.8289 364.52C69.4156 363.907 68.8089 363.44 68.0089 363.12C67.2089 362.8 66.2156 362.64 65.0289 362.64C65.0156 362.64 64.9756 362.64 64.9089 362.64C64.8556 362.64 64.8222 362.64 64.8089 362.64C63.6489 362.64 62.6756 362.807 61.8889 363.14C61.1022 363.46 60.5089 363.92 60.1089 364.52C59.7089 365.12 59.5089 365.853 59.5089 366.72C59.5089 367.6 59.7089 368.347 60.1089 368.96C60.5222 369.573 61.1222 370.047 61.9089 370.38C62.6956 370.7 63.6622 370.867 64.8089 370.88C64.8356 370.88 64.8756 370.88 64.9289 370.88C64.9822 370.88 65.0156 370.88 65.0289 370.88ZM64.2689 375.88V357.16H65.6489V375.88H64.2689ZM79.352 372.1C78.2587 372.1 77.2987 371.873 76.472 371.42C75.6454 370.953 74.9987 370.32 74.532 369.52C74.0654 368.707 73.832 367.78 73.832 366.74C73.832 365.7 74.052 364.78 74.492 363.98C74.9454 363.18 75.5587 362.553 76.332 362.1C77.1187 361.633 77.9987 361.4 78.972 361.4C79.9587 361.4 80.832 361.627 81.592 362.08C82.3654 362.52 82.972 363.147 83.412 363.96C83.852 364.76 84.072 365.687 84.072 366.74C84.072 366.807 84.0654 366.88 84.052 366.96C84.052 367.027 84.052 367.1 84.052 367.18H74.912V366.12H83.292L82.732 366.54C82.732 365.78 82.5654 365.107 82.232 364.52C81.912 363.92 81.472 363.453 80.912 363.12C80.352 362.787 79.7054 362.62 78.972 362.62C78.252 362.62 77.6054 362.787 77.032 363.12C76.4587 363.453 76.012 363.92 75.692 364.52C75.372 365.12 75.212 365.807 75.212 366.58V366.8C75.212 367.6 75.3854 368.307 75.732 368.92C76.092 369.52 76.5854 369.993 77.212 370.34C77.852 370.673 78.5787 370.84 79.392 370.84C80.032 370.84 80.6254 370.727 81.172 370.5C81.732 370.273 82.212 369.927 82.612 369.46L83.412 370.38C82.9454 370.94 82.3587 371.367 81.652 371.66C80.9587 371.953 80.192 372.1 79.352 372.1ZM94.9153 372L90.5953 366.8L91.7753 366.1L96.5953 372H94.9153ZM87.2153 372V361.5H88.6353V372H87.2153ZM88.1953 367.32V366.1H91.5753V367.32H88.1953ZM91.8953 366.9L90.5753 366.7L94.7553 361.5H96.2953L91.8953 366.9ZM100.622 372V362.36L100.982 362.74H96.6416V361.5H106.022V362.74H101.682L102.042 362.36V372H100.622ZM108.075 372V361.5H109.495V369.84L116.515 361.5H117.775V372H116.355V363.64L109.355 372H108.075ZM121.844 372V361.5H126.484C127.671 361.5 128.604 361.727 129.284 362.18C129.978 362.633 130.324 363.3 130.324 364.18C130.324 365.033 129.998 365.693 129.344 366.16C128.691 366.613 127.831 366.84 126.764 366.84L127.044 366.42C128.298 366.42 129.218 366.653 129.804 367.12C130.391 367.587 130.684 368.26 130.684 369.14C130.684 370.047 130.351 370.753 129.684 371.26C129.031 371.753 128.011 372 126.624 372H121.844ZM123.224 370.88H126.564C127.458 370.88 128.131 370.74 128.584 370.46C129.051 370.167 129.284 369.7 129.284 369.06C129.284 368.42 129.078 367.953 128.664 367.66C128.251 367.367 127.598 367.22 126.704 367.22H123.224V370.88ZM123.224 366.16H126.384C127.198 366.16 127.818 366.007 128.244 365.7C128.684 365.393 128.904 364.947 128.904 364.36C128.904 363.773 128.684 363.333 128.244 363.04C127.818 362.747 127.198 362.6 126.384 362.6H123.224V366.16ZM134.012 372V361.5H135.432V366.14H142.052V361.5H143.472V372H142.052V367.36H135.432V372H134.012ZM151.828 372.1C150.815 372.1 149.902 371.873 149.088 371.42C148.288 370.953 147.655 370.32 147.188 369.52C146.722 368.707 146.488 367.78 146.488 366.74C146.488 365.687 146.722 364.76 147.188 363.96C147.655 363.16 148.288 362.533 149.088 362.08C149.888 361.627 150.802 361.4 151.828 361.4C152.868 361.4 153.788 361.627 154.588 362.08C155.402 362.533 156.035 363.16 156.488 363.96C156.955 364.76 157.188 365.687 157.188 366.74C157.188 367.78 156.955 368.707 156.488 369.52C156.035 370.32 155.402 370.953 154.588 371.42C153.775 371.873 152.855 372.1 151.828 372.1ZM151.828 370.84C152.588 370.84 153.262 370.673 153.848 370.34C154.435 369.993 154.895 369.513 155.228 368.9C155.575 368.273 155.748 367.553 155.748 366.74C155.748 365.913 155.575 365.193 155.228 364.58C154.895 363.967 154.435 363.493 153.848 363.16C153.262 362.813 152.595 362.64 151.848 362.64C151.102 362.64 150.435 362.813 149.848 363.16C149.262 363.493 148.795 363.967 148.448 364.58C148.102 365.193 147.928 365.913 147.928 366.74C147.928 367.553 148.102 368.273 148.448 368.9C148.795 369.513 149.262 369.993 149.848 370.34C150.435 370.673 151.095 370.84 151.828 370.84ZM164.723 372.1C163.63 372.1 162.67 371.873 161.843 371.42C161.016 370.953 160.37 370.32 159.903 369.52C159.436 368.707 159.203 367.78 159.203 366.74C159.203 365.7 159.423 364.78 159.863 363.98C160.316 363.18 160.93 362.553 161.703 362.1C162.49 361.633 163.37 361.4 164.343 361.4C165.33 361.4 166.203 361.627 166.963 362.08C167.736 362.52 168.343 363.147 168.783 363.96C169.223 364.76 169.443 365.687 169.443 366.74C169.443 366.807 169.436 366.88 169.423 366.96C169.423 367.027 169.423 367.1 169.423 367.18H160.283V366.12H168.663L168.103 366.54C168.103 365.78 167.936 365.107 167.603 364.52C167.283 363.92 166.843 363.453 166.283 363.12C165.723 362.787 165.076 362.62 164.343 362.62C163.623 362.62 162.976 362.787 162.403 363.12C161.83 363.453 161.383 363.92 161.063 364.52C160.743 365.12 160.583 365.807 160.583 366.58V366.8C160.583 367.6 160.756 368.307 161.103 368.92C161.463 369.52 161.956 369.993 162.583 370.34C163.223 370.673 163.95 370.84 164.763 370.84C165.403 370.84 165.996 370.727 166.543 370.5C167.103 370.273 167.583 369.927 167.983 369.46L168.783 370.38C168.316 370.94 167.73 371.367 167.023 371.66C166.33 371.953 165.563 372.1 164.723 372.1ZM182.141 372.1C181.127 372.1 180.214 371.873 179.401 371.42C178.601 370.953 177.967 370.32 177.501 369.52C177.034 368.707 176.801 367.78 176.801 366.74C176.801 365.687 177.034 364.76 177.501 363.96C177.967 363.16 178.601 362.533 179.401 362.08C180.201 361.627 181.114 361.4 182.141 361.4C183.181 361.4 184.101 361.627 184.901 362.08C185.714 362.533 186.347 363.16 186.801 363.96C187.267 364.76 187.501 365.687 187.501 366.74C187.501 367.78 187.267 368.707 186.801 369.52C186.347 370.32 185.714 370.953 184.901 371.42C184.087 371.873 183.167 372.1 182.141 372.1ZM182.141 370.84C182.901 370.84 183.574 370.673 184.161 370.34C184.747 369.993 185.207 369.513 185.541 368.9C185.887 368.273 186.061 367.553 186.061 366.74C186.061 365.913 185.887 365.193 185.541 364.58C185.207 363.967 184.747 363.493 184.161 363.16C183.574 362.813 182.907 362.64 182.161 362.64C181.414 362.64 180.747 362.813 180.161 363.16C179.574 363.493 179.107 363.967 178.761 364.58C178.414 365.193 178.241 365.913 178.241 366.74C178.241 367.553 178.414 368.273 178.761 368.9C179.107 369.513 179.574 369.993 180.161 370.34C180.747 370.673 181.407 370.84 182.141 370.84ZM195.256 372.12C194.402 372.12 193.642 371.98 192.976 371.7C192.322 371.42 191.762 370.993 191.296 370.42C190.829 369.847 190.476 369.14 190.236 368.3C189.996 367.447 189.876 366.46 189.876 365.34C189.876 364.34 189.969 363.467 190.156 362.72C190.342 361.96 190.602 361.307 190.936 360.76C191.269 360.213 191.656 359.753 192.096 359.38C192.549 358.993 193.036 358.687 193.556 358.46C194.089 358.22 194.636 358.04 195.196 357.92L199.916 356.82L200.156 358.14L195.716 359.14C195.436 359.207 195.096 359.3 194.696 359.42C194.309 359.54 193.909 359.72 193.496 359.96C193.096 360.2 192.722 360.533 192.376 360.96C192.029 361.387 191.749 361.94 191.536 362.62C191.336 363.287 191.236 364.12 191.236 365.12C191.236 365.333 191.242 365.507 191.256 365.64C191.269 365.76 191.282 365.893 191.296 366.04C191.322 366.173 191.342 366.373 191.356 366.64L190.736 366.12C190.882 365.307 191.182 364.6 191.636 364C192.089 363.387 192.656 362.913 193.336 362.58C194.029 362.233 194.796 362.06 195.636 362.06C196.609 362.06 197.476 362.273 198.236 362.7C198.996 363.113 199.589 363.693 200.016 364.44C200.456 365.187 200.676 366.053 200.676 367.04C200.676 368.013 200.449 368.887 199.996 369.66C199.556 370.433 198.929 371.04 198.116 371.48C197.302 371.907 196.349 372.12 195.256 372.12ZM195.416 370.94C196.162 370.94 196.822 370.773 197.396 370.44C197.969 370.093 198.416 369.627 198.736 369.04C199.069 368.453 199.236 367.793 199.236 367.06C199.236 366.34 199.069 365.7 198.736 365.14C198.416 364.58 197.969 364.14 197.396 363.82C196.822 363.487 196.156 363.32 195.396 363.32C194.649 363.32 193.989 363.48 193.416 363.8C192.842 364.107 192.389 364.54 192.056 365.1C191.736 365.66 191.576 366.307 191.576 367.04C191.576 367.773 191.736 368.433 192.056 369.02C192.389 369.607 192.842 370.073 193.416 370.42C194.002 370.767 194.669 370.94 195.416 370.94ZM203.606 375.98C203.113 375.98 202.64 375.9 202.186 375.74C201.746 375.58 201.366 375.34 201.046 375.02L201.706 373.96C201.973 374.213 202.26 374.407 202.566 374.54C202.886 374.687 203.24 374.76 203.626 374.76C204.093 374.76 204.493 374.627 204.826 374.36C205.173 374.107 205.5 373.653 205.806 373L206.486 371.46L206.646 371.24L210.966 361.5H212.366L207.106 373.26C206.813 373.94 206.486 374.48 206.126 374.88C205.78 375.28 205.4 375.56 204.986 375.72C204.573 375.893 204.113 375.98 203.606 375.98ZM206.406 372.3L201.566 361.5H203.046L207.326 371.14L206.406 372.3ZM221.219 367.56C220.605 367.827 219.985 368.04 219.359 368.2C218.745 368.347 218.132 368.42 217.519 368.42C216.279 368.42 215.299 368.14 214.579 367.58C213.859 367.007 213.499 366.127 213.499 364.94V361.5H214.899V364.86C214.899 365.66 215.159 366.26 215.679 366.66C216.199 367.06 216.899 367.26 217.779 367.26C218.312 367.26 218.872 367.193 219.459 367.06C220.045 366.913 220.639 366.707 221.239 366.44L221.219 367.56ZM221.099 372V361.5H222.519V372H221.099ZM231.051 372.1C229.958 372.1 228.998 371.873 228.171 371.42C227.345 370.953 226.698 370.32 226.231 369.52C225.765 368.707 225.531 367.78 225.531 366.74C225.531 365.7 225.751 364.78 226.191 363.98C226.645 363.18 227.258 362.553 228.031 362.1C228.818 361.633 229.698 361.4 230.671 361.4C231.658 361.4 232.531 361.627 233.291 362.08C234.065 362.52 234.671 363.147 235.111 363.96C235.551 364.76 235.771 365.687 235.771 366.74C235.771 366.807 235.765 366.88 235.751 366.96C235.751 367.027 235.751 367.1 235.751 367.18H226.611V366.12H234.991L234.431 366.54C234.431 365.78 234.265 365.107 233.931 364.52C233.611 363.92 233.171 363.453 232.611 363.12C232.051 362.787 231.405 362.62 230.671 362.62C229.951 362.62 229.305 362.787 228.731 363.12C228.158 363.453 227.711 363.92 227.391 364.52C227.071 365.12 226.911 365.807 226.911 366.58V366.8C226.911 367.6 227.085 368.307 227.431 368.92C227.791 369.52 228.285 369.993 228.911 370.34C229.551 370.673 230.278 370.84 231.091 370.84C231.731 370.84 232.325 370.727 232.871 370.5C233.431 370.273 233.911 369.927 234.311 369.46L235.111 370.38C234.645 370.94 234.058 371.367 233.351 371.66C232.658 371.953 231.891 372.1 231.051 372.1ZM238.915 372V361.5H240.335V366.14H246.955V361.5H248.375V372H246.955V367.36H240.335V372H238.915ZM252.411 372V361.5H253.831V369.84L260.851 361.5H262.111V372H260.691V363.64L253.691 372H252.411ZM270.68 372.1C269.587 372.1 268.627 371.873 267.8 371.42C266.973 370.953 266.327 370.32 265.86 369.52C265.393 368.707 265.16 367.78 265.16 366.74C265.16 365.7 265.38 364.78 265.82 363.98C266.273 363.18 266.887 362.553 267.66 362.1C268.447 361.633 269.327 361.4 270.3 361.4C271.287 361.4 272.16 361.627 272.92 362.08C273.693 362.52 274.3 363.147 274.74 363.96C275.18 364.76 275.4 365.687 275.4 366.74C275.4 366.807 275.393 366.88 275.38 366.96C275.38 367.027 275.38 367.1 275.38 367.18H266.24V366.12H274.62L274.06 366.54C274.06 365.78 273.893 365.107 273.56 364.52C273.24 363.92 272.8 363.453 272.24 363.12C271.68 362.787 271.033 362.62 270.3 362.62C269.58 362.62 268.933 362.787 268.36 363.12C267.787 363.453 267.34 363.92 267.02 364.52C266.7 365.12 266.54 365.807 266.54 366.58V366.8C266.54 367.6 266.713 368.307 267.06 368.92C267.42 369.52 267.913 369.993 268.54 370.34C269.18 370.673 269.907 370.84 270.72 370.84C271.36 370.84 271.953 370.727 272.5 370.5C273.06 370.273 273.54 369.927 273.94 369.46L274.74 370.38C274.273 370.94 273.687 371.367 272.98 371.66C272.287 371.953 271.52 372.1 270.68 372.1ZM283.778 372V361.5H288.418C289.604 361.5 290.538 361.727 291.218 362.18C291.911 362.633 292.258 363.3 292.258 364.18C292.258 365.033 291.931 365.693 291.278 366.16C290.624 366.613 289.764 366.84 288.698 366.84L288.978 366.42C290.231 366.42 291.151 366.653 291.738 367.12C292.324 367.587 292.618 368.26 292.618 369.14C292.618 370.047 292.284 370.753 291.618 371.26C290.964 371.753 289.944 372 288.558 372H283.778ZM285.158 370.88H288.498C289.391 370.88 290.064 370.74 290.518 370.46C290.984 370.167 291.218 369.7 291.218 369.06C291.218 368.42 291.011 367.953 290.598 367.66C290.184 367.367 289.531 367.22 288.638 367.22H285.158V370.88ZM285.158 366.16H288.318C289.131 366.16 289.751 366.007 290.178 365.7C290.618 365.393 290.838 364.947 290.838 364.36C290.838 363.773 290.618 363.333 290.178 363.04C289.751 362.747 289.131 362.6 288.318 362.6H285.158V366.16ZM30.1 395.98L30.2 394.76C30.2933 394.773 30.38 394.793 30.46 394.82C30.5533 394.833 30.6333 394.84 30.7 394.84C31.1267 394.84 31.4667 394.68 31.72 394.36C31.9867 394.04 32.1867 393.613 32.32 393.08C32.4533 392.547 32.5467 391.947 32.6 391.28C32.6533 390.6 32.7 389.92 32.74 389.24L32.92 385.5H40.62V396H39.2V386.32L39.56 386.74H33.84L34.18 386.3L34.02 389.34C33.98 390.247 33.9067 391.113 33.8 391.94C33.7067 392.767 33.5533 393.493 33.34 394.12C33.14 394.747 32.86 395.24 32.5 395.6C32.14 395.947 31.68 396.12 31.12 396.12C30.96 396.12 30.7933 396.107 30.62 396.08C30.46 396.053 30.2867 396.02 30.1 395.98ZM44.6567 396V385.5H46.0767V390.02H49.2767V391.32H46.0767V396H44.6567ZM53.6967 396.1C52.6967 396.1 51.7967 395.873 50.9967 395.42C50.2101 394.953 49.5901 394.32 49.1367 393.52C48.6834 392.707 48.4567 391.78 48.4567 390.74C48.4567 389.687 48.6834 388.76 49.1367 387.96C49.5901 387.16 50.2101 386.533 50.9967 386.08C51.7967 385.627 52.6967 385.4 53.6967 385.4C54.6967 385.4 55.5901 385.627 56.3767 386.08C57.1634 386.533 57.7834 387.16 58.2367 387.96C58.6901 388.76 58.9167 389.687 58.9167 390.74C58.9167 391.78 58.6901 392.707 58.2367 393.52C57.7834 394.32 57.1634 394.953 56.3767 395.42C55.5901 395.873 54.6967 396.1 53.6967 396.1ZM53.6967 394.86C54.4301 394.86 55.0834 394.687 55.6567 394.34C56.2301 393.993 56.6834 393.513 57.0167 392.9C57.3501 392.273 57.5167 391.553 57.5167 390.74C57.5167 389.913 57.3501 389.193 57.0167 388.58C56.6834 387.967 56.2301 387.493 55.6567 387.16C55.0834 386.813 54.4301 386.64 53.6967 386.64C52.9767 386.64 52.3234 386.813 51.7367 387.16C51.1634 387.493 50.7101 387.967 50.3767 388.58C50.0434 389.193 49.8767 389.913 49.8767 390.74C49.8767 391.553 50.0434 392.273 50.3767 392.9C50.7101 393.513 51.1634 393.993 51.7367 394.34C52.3234 394.687 52.9767 394.86 53.6967 394.86ZM66.6814 396.12C65.8281 396.12 65.0681 395.98 64.4014 395.7C63.7481 395.42 63.1881 394.993 62.7214 394.42C62.2547 393.847 61.9014 393.14 61.6614 392.3C61.4214 391.447 61.3014 390.46 61.3014 389.34C61.3014 388.34 61.3947 387.467 61.5814 386.72C61.7681 385.96 62.0281 385.307 62.3614 384.76C62.6947 384.213 63.0814 383.753 63.5214 383.38C63.9747 382.993 64.4614 382.687 64.9814 382.46C65.5147 382.22 66.0614 382.04 66.6214 381.92L71.3414 380.82L71.5814 382.14L67.1414 383.14C66.8614 383.207 66.5214 383.3 66.1214 383.42C65.7347 383.54 65.3347 383.72 64.9214 383.96C64.5214 384.2 64.1481 384.533 63.8014 384.96C63.4547 385.387 63.1747 385.94 62.9614 386.62C62.7614 387.287 62.6614 388.12 62.6614 389.12C62.6614 389.333 62.6681 389.507 62.6814 389.64C62.6947 389.76 62.7081 389.893 62.7214 390.04C62.7481 390.173 62.7681 390.373 62.7814 390.64L62.1614 390.12C62.3081 389.307 62.6081 388.6 63.0614 388C63.5147 387.387 64.0814 386.913 64.7614 386.58C65.4547 386.233 66.2214 386.06 67.0614 386.06C68.0347 386.06 68.9014 386.273 69.6614 386.7C70.4214 387.113 71.0147 387.693 71.4414 388.44C71.8814 389.187 72.1014 390.053 72.1014 391.04C72.1014 392.013 71.8747 392.887 71.4214 393.66C70.9814 394.433 70.3547 395.04 69.5414 395.48C68.7281 395.907 67.7747 396.12 66.6814 396.12ZM66.8414 394.94C67.5881 394.94 68.2481 394.773 68.8214 394.44C69.3947 394.093 69.8414 393.627 70.1614 393.04C70.4947 392.453 70.6614 391.793 70.6614 391.06C70.6614 390.34 70.4947 389.7 70.1614 389.14C69.8414 388.58 69.3947 388.14 68.8214 387.82C68.2481 387.487 67.5814 387.32 66.8214 387.32C66.0747 387.32 65.4147 387.48 64.8414 387.8C64.2681 388.107 63.8147 388.54 63.4814 389.1C63.1614 389.66 63.0014 390.307 63.0014 391.04C63.0014 391.773 63.1614 392.433 63.4814 393.02C63.8147 393.607 64.2681 394.073 64.8414 394.42C65.4281 394.767 66.0947 394.94 66.8414 394.94ZM79.465 396.1C78.4517 396.1 77.5383 395.873 76.725 395.42C75.925 394.953 75.2917 394.32 74.825 393.52C74.3583 392.707 74.125 391.78 74.125 390.74C74.125 389.687 74.3583 388.76 74.825 387.96C75.2917 387.16 75.925 386.533 76.725 386.08C77.525 385.627 78.4383 385.4 79.465 385.4C80.505 385.4 81.425 385.627 82.225 386.08C83.0383 386.533 83.6717 387.16 84.125 387.96C84.5917 388.76 84.825 389.687 84.825 390.74C84.825 391.78 84.5917 392.707 84.125 393.52C83.6717 394.32 83.0383 394.953 82.225 395.42C81.4117 395.873 80.4917 396.1 79.465 396.1ZM79.465 394.84C80.225 394.84 80.8983 394.673 81.485 394.34C82.0717 393.993 82.5317 393.513 82.865 392.9C83.2117 392.273 83.385 391.553 83.385 390.74C83.385 389.913 83.2117 389.193 82.865 388.58C82.5317 387.967 82.0717 387.493 81.485 387.16C80.8983 386.813 80.2317 386.64 79.485 386.64C78.7383 386.64 78.0717 386.813 77.485 387.16C76.8983 387.493 76.4317 387.967 76.085 388.58C75.7383 389.193 75.565 389.913 75.565 390.74C75.565 391.553 75.7383 392.273 76.085 392.9C76.4317 393.513 76.8983 393.993 77.485 394.34C78.0717 394.673 78.7317 394.84 79.465 394.84ZM87.8598 396V385.5H89.2998L94.0598 393.56H93.4598L98.2998 385.5H99.6198V396H98.3198V387.12L98.5798 387.24L94.0598 394.72H93.4198L88.8598 387.16L89.1598 387.1V396H87.8598ZM108.895 396V385.5H110.335L115.095 393.56H114.495L119.335 385.5H120.655V396H119.355V387.12L119.615 387.24L115.095 394.72H114.455L109.895 387.16L110.195 387.1V396H108.895ZM129.196 396.1C128.102 396.1 127.142 395.873 126.316 395.42C125.489 394.953 124.842 394.32 124.376 393.52C123.909 392.707 123.676 391.78 123.676 390.74C123.676 389.7 123.896 388.78 124.336 387.98C124.789 387.18 125.402 386.553 126.176 386.1C126.962 385.633 127.842 385.4 128.816 385.4C129.802 385.4 130.676 385.627 131.436 386.08C132.209 386.52 132.816 387.147 133.256 387.96C133.696 388.76 133.916 389.687 133.916 390.74C133.916 390.807 133.909 390.88 133.896 390.96C133.896 391.027 133.896 391.1 133.896 391.18H124.756V390.12H133.136L132.576 390.54C132.576 389.78 132.409 389.107 132.076 388.52C131.756 387.92 131.316 387.453 130.756 387.12C130.196 386.787 129.549 386.62 128.816 386.62C128.096 386.62 127.449 386.787 126.876 387.12C126.302 387.453 125.856 387.92 125.536 388.52C125.216 389.12 125.056 389.807 125.056 390.58V390.8C125.056 391.6 125.229 392.307 125.576 392.92C125.936 393.52 126.429 393.993 127.056 394.34C127.696 394.673 128.422 394.84 129.236 394.84C129.876 394.84 130.469 394.727 131.016 394.5C131.576 394.273 132.056 393.927 132.456 393.46L133.256 394.38C132.789 394.94 132.202 395.367 131.496 395.66C130.802 395.953 130.036 396.1 129.196 396.1ZM141.459 396.1C140.419 396.1 139.486 395.873 138.659 395.42C137.846 394.953 137.206 394.32 136.739 393.52C136.272 392.707 136.039 391.78 136.039 390.74C136.039 389.687 136.272 388.76 136.739 387.96C137.206 387.16 137.846 386.533 138.659 386.08C139.486 385.627 140.419 385.4 141.459 385.4C142.352 385.4 143.159 385.573 143.879 385.92C144.599 386.267 145.166 386.787 145.579 387.48L144.519 388.2C144.159 387.667 143.712 387.273 143.179 387.02C142.646 386.767 142.066 386.64 141.439 386.64C140.692 386.64 140.019 386.813 139.419 387.16C138.819 387.493 138.346 387.967 137.999 388.58C137.652 389.193 137.479 389.913 137.479 390.74C137.479 391.567 137.652 392.287 137.999 392.9C138.346 393.513 138.819 393.993 139.419 394.34C140.019 394.673 140.692 394.84 141.439 394.84C142.066 394.84 142.646 394.713 143.179 394.46C143.712 394.207 144.159 393.82 144.519 393.3L145.579 394.02C145.166 394.7 144.599 395.22 143.879 395.58C143.159 395.927 142.352 396.1 141.459 396.1ZM150.133 396V386.36L150.493 386.74H146.153V385.5H155.533V386.74H151.193L151.553 386.36V396H150.133ZM161.598 396.1C160.505 396.1 159.545 395.873 158.718 395.42C157.891 394.953 157.245 394.32 156.778 393.52C156.311 392.707 156.078 391.78 156.078 390.74C156.078 389.7 156.298 388.78 156.738 387.98C157.191 387.18 157.805 386.553 158.578 386.1C159.365 385.633 160.245 385.4 161.218 385.4C162.205 385.4 163.078 385.627 163.838 386.08C164.611 386.52 165.218 387.147 165.658 387.96C166.098 388.76 166.318 389.687 166.318 390.74C166.318 390.807 166.311 390.88 166.298 390.96C166.298 391.027 166.298 391.1 166.298 391.18H157.158V390.12H165.538L164.978 390.54C164.978 389.78 164.811 389.107 164.478 388.52C164.158 387.92 163.718 387.453 163.158 387.12C162.598 386.787 161.951 386.62 161.218 386.62C160.498 386.62 159.851 386.787 159.278 387.12C158.705 387.453 158.258 387.92 157.938 388.52C157.618 389.12 157.458 389.807 157.458 390.58V390.8C157.458 391.6 157.631 392.307 157.978 392.92C158.338 393.52 158.831 393.993 159.458 394.34C160.098 394.673 160.825 394.84 161.638 394.84C162.278 394.84 162.871 394.727 163.418 394.5C163.978 394.273 164.458 393.927 164.858 393.46L165.658 394.38C165.191 394.94 164.605 395.367 163.898 395.66C163.205 395.953 162.438 396.1 161.598 396.1ZM169.561 396.1C169.268 396.1 169.015 395.993 168.801 395.78C168.601 395.567 168.501 395.307 168.501 395C168.501 394.68 168.601 394.42 168.801 394.22C169.015 394.02 169.268 393.92 169.561 393.92C169.855 393.92 170.101 394.02 170.301 394.22C170.515 394.42 170.621 394.68 170.621 395C170.621 395.307 170.515 395.567 170.301 395.78C170.101 395.993 169.855 396.1 169.561 396.1Z" fill="#FEFEFE"/>
</svg>
