<svg width="396" height="336" viewBox="0 0 396 336" fill="none" xmlns="http://www.w3.org/2000/svg">
<rect width="395.971" height="312.173" fill="#4699FF"/>
<path d="M110.046 38.7236L106.994 29.3293C106.649 28.2688 105.149 28.2688 104.805 29.3293L101.752 38.7236C101.66 39.0082 101.394 39.2009 101.095 39.2009H91.2175C90.1024 39.2009 89.6388 40.6277 90.5409 41.2832L98.5322 47.0892C98.7743 47.265 98.8756 47.5768 98.7831 47.8613L95.7307 57.2556C95.3861 58.3161 96.5999 59.198 97.502 58.5426L105.493 52.7366C105.735 52.5607 106.063 52.5607 106.305 52.7366L114.296 58.5426C115.199 59.198 116.412 58.3161 116.068 57.2556L113.015 47.8613C112.923 47.5768 113.024 47.265 113.266 47.0892L121.258 41.2832C122.16 40.6277 121.696 39.2009 120.581 39.2009H110.703C110.404 39.2009 110.139 39.0082 110.046 38.7236Z" fill="#47FFBF" stroke="#0F0A1D" stroke-width="0.460432"/>
<path d="M156.09 38.7236L153.037 29.3293C152.693 28.2688 151.192 28.2688 150.848 29.3293L147.795 38.7236C147.703 39.0082 147.438 39.2009 147.138 39.2009H137.261C136.146 39.2009 135.682 40.6277 136.584 41.2832L144.575 47.0892C144.817 47.265 144.919 47.5768 144.826 47.8613L141.774 57.2556C141.429 58.3161 142.643 59.198 143.545 58.5426L151.537 52.7366C151.779 52.5607 152.106 52.5607 152.348 52.7366L160.34 58.5426C161.242 59.198 162.456 58.3161 162.111 57.2556L159.059 47.8613C158.966 47.5768 159.067 47.265 159.31 47.0892L167.301 41.2832C168.203 40.6277 167.739 39.2009 166.624 39.2009H156.746C156.447 39.2009 156.182 39.0082 156.09 38.7236Z" fill="#47FFBF" stroke="#0F0A1D" stroke-width="0.460432"/>
<path d="M202.133 38.7236L199.08 29.3293C198.736 28.2688 197.236 28.2688 196.891 29.3293L193.839 38.7236C193.746 39.0082 193.481 39.2009 193.182 39.2009H183.304C182.189 39.2009 181.725 40.6277 182.627 41.2832L190.619 47.0892C190.861 47.265 190.962 47.5768 190.87 47.8613L187.817 57.2556C187.473 58.3161 188.686 59.198 189.588 58.5426L197.58 52.7366C197.822 52.5607 198.15 52.5607 198.392 52.7366L206.383 58.5426C207.285 59.198 208.499 58.3161 208.154 57.2556L205.102 47.8613C205.009 47.5768 205.111 47.265 205.353 47.0892L213.344 41.2832C214.246 40.6277 213.782 39.2009 212.667 39.2009H202.79C202.49 39.2009 202.225 39.0082 202.133 38.7236Z" fill="#47FFBF" stroke="#0F0A1D" stroke-width="0.460432"/>
<path d="M248.176 38.7236L245.124 29.3293C244.779 28.2688 243.279 28.2688 242.934 29.3293L239.882 38.7236C239.789 39.0082 239.524 39.2009 239.225 39.2009H229.347C228.232 39.2009 227.768 40.6277 228.671 41.2832L236.662 47.0892C236.904 47.265 237.005 47.5768 236.913 47.8613L233.86 57.2556C233.516 58.3161 234.73 59.198 235.632 58.5426L243.623 52.7366C243.865 52.5607 244.193 52.5607 244.435 52.7366L252.426 58.5426C253.328 59.198 254.542 58.3161 254.197 57.2556L251.145 47.8613C251.053 47.5768 251.154 47.265 251.396 47.0892L259.387 41.2832C260.289 40.6277 259.826 39.2009 258.711 39.2009H248.833C248.534 39.2009 248.268 39.0082 248.176 38.7236Z" fill="#47FFBF" stroke="#0F0A1D" stroke-width="0.460432"/>
<path d="M294.219 38.7236L291.167 29.3293C290.822 28.2688 289.322 28.2688 288.977 29.3293L285.925 38.7236C285.832 39.0082 285.567 39.2009 285.268 39.2009H275.39C274.275 39.2009 273.812 40.6277 274.714 41.2832L282.705 47.0892C282.947 47.265 283.048 47.5768 282.956 47.8613L279.903 57.2556C279.559 58.3161 280.773 59.198 281.675 58.5426L289.666 52.7366C289.908 52.5607 290.236 52.5607 290.478 52.7366L298.469 58.5426C299.371 59.198 300.585 58.3161 300.241 57.2556L297.188 47.8613C297.096 47.5768 297.197 47.265 297.439 47.0892L305.43 41.2832C306.332 40.6277 305.869 39.2009 304.754 39.2009H294.876C294.577 39.2009 294.312 39.0082 294.219 38.7236Z" fill="#4EAF8D" stroke="#0F0A1D" stroke-width="0.460432"/>
<path d="M119.795 270.228L121.46 261.889H116.937L116.406 264.114C116.239 264.841 116.057 265.533 115.861 266.191C115.674 266.849 115.468 267.444 115.242 267.974C115.026 268.505 114.78 268.942 114.505 269.285C114.24 269.619 113.941 269.831 113.607 269.919L111.942 269.639C112.325 269.668 112.674 269.536 112.988 269.241C113.302 268.947 113.587 268.534 113.842 268.004C114.098 267.473 114.334 266.854 114.55 266.147C114.766 265.44 114.967 264.679 115.154 263.863L115.935 260.607H123.169L121.239 270.228H119.795ZM110.94 273.175L111.662 269.639H122.874L122.167 273.175H120.812L121.254 270.921H112.767L112.295 273.175H110.94ZM124.388 270.921L125.964 263.112H127.394L126.215 268.947L132.108 263.112H133.449L131.902 270.921H130.458L131.652 265.086L125.758 270.921H124.388ZM134.647 270.921L136.209 263.112H137.653L139.848 268.888H139.259L143.87 263.112H145.196L143.649 270.921H142.367L143.605 264.703L143.826 264.836L139.642 270.037H139.023L136.916 264.733L137.181 264.674L135.943 270.921H134.647ZM149.909 271.009C149.251 271.009 148.662 270.877 148.141 270.611C147.621 270.336 147.208 269.948 146.904 269.447C146.609 268.947 146.462 268.342 146.462 267.635C146.462 266.967 146.57 266.353 146.786 265.794C147.012 265.234 147.321 264.747 147.714 264.335C148.117 263.922 148.588 263.603 149.128 263.377C149.669 263.151 150.253 263.038 150.882 263.038C151.559 263.038 152.134 263.156 152.606 263.392C153.077 263.628 153.441 263.976 153.696 264.438C153.951 264.89 154.079 265.445 154.079 266.103C154.079 267.066 153.912 267.92 153.578 268.667C153.244 269.403 152.763 269.978 152.134 270.39C151.515 270.803 150.774 271.009 149.909 271.009ZM150.219 269.772C150.808 269.772 151.334 269.629 151.795 269.344C152.257 269.059 152.615 268.672 152.871 268.18C153.136 267.679 153.269 267.11 153.269 266.471C153.269 265.784 153.067 265.248 152.665 264.865C152.262 264.472 151.687 264.276 150.941 264.276C150.361 264.276 149.841 264.418 149.379 264.703C148.917 264.978 148.554 265.366 148.289 265.867C148.023 266.358 147.891 266.928 147.891 267.576C147.891 268.254 148.092 268.789 148.495 269.182C148.898 269.575 149.472 269.772 150.219 269.772ZM152.473 270.921L152.886 268.902L153.357 267.09L153.549 265.234L153.961 263.112H155.376L153.828 270.921H152.473ZM160.768 270.921L162.83 260.607H170.61L170.345 261.86H164.024L163.449 264.806H166.676C167.727 264.806 168.527 265.032 169.077 265.484C169.627 265.926 169.903 266.584 169.903 267.458C169.903 268.175 169.716 268.794 169.343 269.315C168.969 269.826 168.429 270.223 167.722 270.508C167.015 270.783 166.17 270.921 165.188 270.921H160.768ZM162.462 269.757H165.364C166.307 269.757 167.044 269.565 167.575 269.182C168.115 268.789 168.385 268.244 168.385 267.547C168.385 267.007 168.203 266.609 167.84 266.353C167.476 266.098 166.902 265.97 166.116 265.97H163.213L162.462 269.757ZM171.352 270.921L172.928 263.112H174.358L173.179 268.947L179.072 263.112H180.413L178.866 270.921H177.422L178.616 265.086L172.722 270.921H171.352ZM180.314 270.906L180.653 269.713C180.722 269.723 180.786 269.732 180.845 269.742C180.904 269.752 180.958 269.757 181.007 269.757C181.36 269.757 181.665 269.6 181.92 269.285C182.176 268.971 182.402 268.529 182.598 267.959C182.795 267.39 182.991 266.732 183.187 265.985L183.895 263.112H189.877L188.315 270.921H186.9L188.3 263.908L188.58 264.35H184.572L184.956 263.908L184.425 266.088C184.229 266.894 184.022 267.606 183.806 268.225C183.6 268.834 183.374 269.349 183.129 269.772C182.883 270.184 182.603 270.498 182.289 270.715C181.984 270.931 181.626 271.039 181.213 271.039C181.066 271.039 180.923 271.024 180.786 270.995C180.639 270.975 180.481 270.945 180.314 270.906ZM194.586 271.009C193.927 271.009 193.338 270.877 192.818 270.611C192.297 270.336 191.884 269.948 191.58 269.447C191.285 268.947 191.138 268.342 191.138 267.635C191.138 266.967 191.246 266.353 191.462 265.794C191.688 265.234 191.997 264.747 192.39 264.335C192.793 263.922 193.264 263.603 193.805 263.377C194.345 263.151 194.929 263.038 195.558 263.038C196.236 263.038 196.81 263.156 197.282 263.392C197.753 263.628 198.117 263.976 198.372 264.438C198.628 264.89 198.755 265.445 198.755 266.103C198.755 267.066 198.588 267.92 198.254 268.667C197.92 269.403 197.439 269.978 196.81 270.39C196.192 270.803 195.45 271.009 194.586 271.009ZM194.895 269.772C195.484 269.772 196.01 269.629 196.471 269.344C196.933 269.059 197.292 268.672 197.547 268.18C197.812 267.679 197.945 267.11 197.945 266.471C197.945 265.784 197.744 265.248 197.341 264.865C196.938 264.472 196.363 264.276 195.617 264.276C195.037 264.276 194.517 264.418 194.055 264.703C193.593 264.978 193.23 265.366 192.965 265.867C192.7 266.358 192.567 266.928 192.567 267.576C192.567 268.254 192.768 268.789 193.171 269.182C193.574 269.575 194.148 269.772 194.895 269.772ZM197.149 270.921L197.562 268.902L198.033 267.09L198.225 265.234L198.637 263.112H200.052L198.505 270.921H197.149ZM201.251 270.921L202.813 263.112H204.227L203.564 266.427H208.014L208.677 263.112H210.092L208.53 270.921H207.115L207.778 267.65H203.329L202.666 270.921H201.251ZM215.399 267.488L215.635 266.265H219.598L219.348 267.488H215.399ZM224.996 270.921L227.059 260.607H231.096C232.137 260.607 233.026 260.784 233.763 261.138C234.5 261.481 235.06 261.968 235.443 262.596C235.836 263.225 236.032 263.971 236.032 264.836C236.032 265.739 235.88 266.569 235.575 267.326C235.271 268.072 234.834 268.716 234.264 269.256C233.704 269.786 233.031 270.199 232.245 270.494C231.46 270.778 230.58 270.921 229.608 270.921H224.996ZM226.72 269.639H229.652C230.674 269.639 231.548 269.438 232.275 269.035C233.002 268.622 233.562 268.063 233.955 267.355C234.347 266.638 234.544 265.828 234.544 264.924C234.544 264.305 234.411 263.77 234.146 263.318C233.881 262.857 233.478 262.503 232.938 262.257C232.407 262.012 231.744 261.889 230.949 261.889H228.267L226.72 269.639ZM236.978 270.921L238.525 263.112H239.939L238.392 270.921H236.978ZM239.644 261.609C239.379 261.609 239.163 261.526 238.996 261.359C238.839 261.192 238.76 260.99 238.76 260.755C238.76 260.48 238.854 260.249 239.04 260.062C239.227 259.866 239.472 259.767 239.777 259.767C240.032 259.767 240.243 259.851 240.41 260.018C240.587 260.175 240.676 260.367 240.676 260.592C240.676 260.897 240.582 261.143 240.396 261.329C240.209 261.516 239.959 261.609 239.644 261.609ZM252.202 263.038C252.899 263.038 253.474 263.176 253.926 263.451C254.378 263.726 254.692 264.129 254.869 264.659C255.055 265.18 255.07 265.808 254.913 266.545L254.044 270.921H252.629L253.498 266.545C253.646 265.838 253.582 265.288 253.307 264.895C253.042 264.502 252.556 264.305 251.848 264.305C251.131 264.305 250.537 264.507 250.066 264.909C249.594 265.312 249.275 265.926 249.108 266.751L248.268 270.921H246.854L247.738 266.545C247.875 265.838 247.806 265.288 247.531 264.895C247.266 264.502 246.78 264.305 246.073 264.305C245.356 264.305 244.761 264.512 244.29 264.924C243.818 265.327 243.499 265.951 243.332 266.795L242.507 270.921H241.093L242.64 263.112H243.995L243.553 265.351L243.288 264.747C243.651 264.158 244.108 263.726 244.658 263.451C245.218 263.176 245.837 263.038 246.515 263.038C247.045 263.038 247.507 263.127 247.9 263.303C248.293 263.48 248.602 263.746 248.828 264.099C249.064 264.443 249.201 264.86 249.24 265.351L248.474 265.204C248.877 264.477 249.393 263.937 250.021 263.583C250.66 263.22 251.387 263.038 252.202 263.038ZM260.094 271.009C259.436 271.009 258.846 270.877 258.326 270.611C257.805 270.336 257.393 269.948 257.088 269.447C256.794 268.947 256.646 268.342 256.646 267.635C256.646 266.967 256.754 266.353 256.97 265.794C257.196 265.234 257.506 264.747 257.899 264.335C258.301 263.922 258.773 263.603 259.313 263.377C259.853 263.151 260.438 263.038 261.066 263.038C261.744 263.038 262.319 263.156 262.79 263.392C263.262 263.628 263.625 263.976 263.881 264.438C264.136 264.89 264.264 265.445 264.264 266.103C264.264 267.066 264.097 267.92 263.763 268.667C263.429 269.403 262.947 269.978 262.319 270.39C261.7 270.803 260.958 271.009 260.094 271.009ZM260.403 269.772C260.993 269.772 261.518 269.629 261.98 269.344C262.442 269.059 262.8 268.672 263.055 268.18C263.321 267.679 263.453 267.11 263.453 266.471C263.453 265.784 263.252 265.248 262.849 264.865C262.446 264.472 261.872 264.276 261.125 264.276C260.546 264.276 260.025 264.418 259.564 264.703C259.102 264.978 258.738 265.366 258.473 265.867C258.208 266.358 258.075 266.928 258.075 267.576C258.075 268.254 258.277 268.789 258.679 269.182C259.082 269.575 259.657 269.772 260.403 269.772ZM262.658 270.921L263.07 268.902L263.542 267.09L263.733 265.234L264.146 263.112H265.56L264.013 270.921H262.658ZM265.894 270.921L266.1 269.919L271.124 265.897C271.586 265.523 271.944 265.189 272.2 264.895C272.465 264.6 272.652 264.325 272.76 264.07C272.868 263.804 272.922 263.534 272.922 263.259C272.922 262.807 272.755 262.449 272.421 262.184C272.097 261.909 271.591 261.771 270.903 261.771C270.402 261.771 269.921 261.869 269.459 262.066C268.998 262.262 268.59 262.547 268.236 262.92L267.249 262.066C267.681 261.585 268.232 261.201 268.899 260.917C269.577 260.632 270.314 260.489 271.11 260.489C271.807 260.489 272.401 260.602 272.892 260.828C273.383 261.044 273.757 261.344 274.012 261.727C274.267 262.11 274.395 262.557 274.395 263.068C274.395 263.461 274.326 263.849 274.189 264.232C274.051 264.605 273.816 264.993 273.482 265.396C273.158 265.789 272.701 266.221 272.111 266.692L267.647 270.228L267.308 269.639H273.555L273.305 270.921H265.894ZM274.354 270.921L274.56 269.919L279.585 265.897C280.046 265.523 280.405 265.189 280.66 264.895C280.925 264.6 281.112 264.325 281.22 264.07C281.328 263.804 281.382 263.534 281.382 263.259C281.382 262.807 281.215 262.449 280.881 262.184C280.557 261.909 280.051 261.771 279.364 261.771C278.863 261.771 278.381 261.869 277.92 262.066C277.458 262.262 277.05 262.547 276.697 262.92L275.71 262.066C276.142 261.585 276.692 261.201 277.36 260.917C278.038 260.632 278.774 260.489 279.57 260.489C280.267 260.489 280.862 260.602 281.353 260.828C281.844 261.044 282.217 261.344 282.473 261.727C282.728 262.11 282.856 262.557 282.856 263.068C282.856 263.461 282.787 263.849 282.649 264.232C282.512 264.605 282.276 264.993 281.942 265.396C281.618 265.789 281.161 266.221 280.572 266.692L276.108 270.228L275.769 269.639H282.016L281.765 270.921H274.354Z" fill="#0F0A1D"/>
<path d="M306.458 335.223L321.874 300.453L323.415 310.902C320.332 310.902 317.706 309.874 315.536 307.818C313.481 305.649 312.453 302.966 312.453 299.768C312.453 296.114 313.652 293.145 316.05 290.862C318.562 288.578 321.417 287.436 324.614 287.436C327.697 287.436 330.266 288.464 332.322 290.519C334.377 292.574 335.405 295.201 335.405 298.398C335.405 300.225 335.062 301.938 334.377 303.536C333.806 305.135 332.893 307.133 331.637 309.531L317.249 335.223H306.458ZM338.83 335.223L354.246 300.453L355.787 310.902C352.704 310.902 350.078 309.874 347.908 307.818C345.853 305.649 344.825 302.966 344.825 299.768C344.825 296.114 346.024 293.145 348.422 290.862C350.934 288.578 353.789 287.436 356.986 287.436C360.069 287.436 362.638 288.464 364.694 290.519C366.749 292.574 367.777 295.201 367.777 298.398C367.777 300.225 367.434 301.938 366.749 303.536C366.178 305.135 365.265 307.133 364.009 309.531L349.621 335.223H338.83Z" fill="#0F0A1D"/>
<path d="M81.4704 96.9678L79.647 101.08L79.4445 99.8446C79.8091 99.8446 80.113 99.9729 80.3561 100.23C80.6127 100.473 80.741 100.777 80.741 101.141C80.741 101.573 80.5992 101.931 80.3156 102.215C80.032 102.485 79.7011 102.62 79.3229 102.62C78.9582 102.62 78.6476 102.499 78.391 102.255C78.1479 101.999 78.0263 101.688 78.0263 101.324C78.0263 101.107 78.0601 100.905 78.1276 100.716C78.2087 100.513 78.3302 100.277 78.4923 100.007L80.194 96.9678H81.4704ZM85.2993 96.9678L83.476 101.08L83.2734 99.8446C83.6381 99.8446 83.942 99.9729 84.1851 100.23C84.4417 100.473 84.57 100.777 84.57 101.141C84.57 101.573 84.4282 101.931 84.1445 102.215C83.8609 102.485 83.53 102.62 83.1518 102.62C82.7872 102.62 82.4765 102.499 82.2199 102.255C81.9768 101.999 81.8553 101.688 81.8553 101.324C81.8553 101.107 81.889 100.905 81.9566 100.716C82.0376 100.513 82.1592 100.277 82.3212 100.007L84.023 96.9678H85.2993ZM92.4916 112.162C91.0869 112.162 89.8849 111.912 88.8855 111.412C87.886 110.913 87.1229 110.217 86.5962 109.326C86.083 108.421 85.8264 107.374 85.8264 106.186C85.8264 105.011 86.0289 103.91 86.4341 102.883C86.8393 101.843 87.4201 100.932 88.1764 100.148C88.9327 99.3651 89.8376 98.7574 90.8911 98.3252C91.9446 97.8795 93.1263 97.6566 94.4364 97.6566C95.8546 97.6566 97.0633 97.9065 98.0628 98.4062C99.0622 98.9059 99.8186 99.6082 100.332 100.513C100.859 101.405 101.122 102.445 101.122 103.633C101.122 104.808 100.919 105.916 100.514 106.956C100.109 107.982 99.5282 108.887 98.7719 109.67C98.0155 110.454 97.1039 111.068 96.0369 111.514C94.9834 111.946 93.8016 112.162 92.4916 112.162ZM92.6739 110.359C93.6463 110.359 94.531 110.19 95.3278 109.853C96.1247 109.501 96.8 109.022 97.3537 108.414C97.9075 107.793 98.3329 107.084 98.63 106.287C98.9272 105.49 99.0757 104.646 99.0757 103.755C99.0757 102.904 98.8934 102.161 98.5287 101.526C98.1641 100.878 97.6238 100.371 96.908 100.007C96.1922 99.642 95.3143 99.4597 94.2744 99.4597C93.2884 99.4597 92.397 99.6353 91.6002 99.9864C90.8168 100.324 90.1415 100.804 89.5743 101.425C89.0205 102.033 88.5951 102.735 88.298 103.532C88.0008 104.329 87.8523 105.173 87.8523 106.064C87.8523 106.915 88.0346 107.665 88.3992 108.313C88.7774 108.948 89.3177 109.447 90.02 109.812C90.7358 110.177 91.6204 110.359 92.6739 110.359ZM104.5 112L106.364 102.458L106.729 102.964H102.373L102.697 101.263H112.502L112.178 102.964H107.742L108.309 102.458L106.445 112H104.5ZM109.868 111.98L110.334 110.339C110.429 110.352 110.517 110.366 110.598 110.379C110.679 110.393 110.753 110.4 110.821 110.4C111.307 110.4 111.725 110.183 112.077 109.751C112.428 109.319 112.738 108.711 113.009 107.928C113.279 107.145 113.549 106.24 113.819 105.213L114.791 101.263H123.016L120.869 112H118.924L120.849 102.357L121.234 102.964H115.723L116.25 102.357L115.521 105.355C115.251 106.463 114.967 107.442 114.67 108.293C114.386 109.13 114.076 109.839 113.738 110.42C113.4 110.987 113.015 111.419 112.583 111.716C112.164 112.014 111.671 112.162 111.104 112.162C110.902 112.162 110.706 112.142 110.517 112.101C110.314 112.074 110.098 112.034 109.868 111.98ZM124.649 112L126.817 101.263H128.782L127.162 109.285L135.265 101.263H137.109L134.981 112H132.996L134.637 103.977L126.533 112H124.649ZM146.454 107.644C145.833 107.901 145.205 108.104 144.57 108.252C143.949 108.401 143.341 108.475 142.747 108.475C141.409 108.475 140.417 108.158 139.768 107.523C139.12 106.888 138.924 105.936 139.181 104.666L139.849 101.263H141.794L141.106 104.707C140.97 105.463 141.085 106.017 141.45 106.368C141.828 106.706 142.402 106.874 143.172 106.874C143.726 106.874 144.293 106.8 144.874 106.652C145.454 106.503 146.042 106.307 146.636 106.064L146.454 107.644ZM145.36 112L147.507 101.263H149.452L147.305 112H145.36ZM151.081 112L153.228 101.263H155.173L154.262 105.821H160.38L161.292 101.263H163.236L161.089 112H159.144L160.056 107.503H153.938L153.026 112H151.081ZM175.487 112L177.614 101.263H179.559L177.432 112H175.487ZM170.969 104.889C172.185 104.889 173.096 105.139 173.704 105.639C174.325 106.125 174.636 106.861 174.636 107.847C174.636 108.684 174.427 109.42 174.008 110.055C173.589 110.676 172.995 111.156 172.225 111.494C171.469 111.831 170.571 112 169.531 112H164.851L166.998 101.303H168.923L168.214 104.889H170.969ZM169.531 110.541C170.165 110.541 170.719 110.44 171.192 110.237C171.665 110.021 172.029 109.724 172.286 109.346C172.556 108.968 172.691 108.522 172.691 108.009C172.691 106.888 171.921 106.327 170.382 106.327H167.93L167.1 110.541H169.531ZM181.193 112L183.36 101.263H185.325L183.705 109.285L191.808 101.263H193.652L191.525 112H189.539L191.18 103.977L183.077 112H181.193ZM188.81 99.8041C187.783 99.8041 187.027 99.5677 186.541 99.095C186.055 98.6088 185.893 97.9268 186.055 97.0489H187.372C187.277 97.5756 187.372 97.9943 187.655 98.3049C187.939 98.6021 188.357 98.7506 188.911 98.7506C189.465 98.7506 189.931 98.6021 190.309 98.3049C190.701 98.0078 190.957 97.5891 191.079 97.0489H192.416C192.24 97.9538 191.842 98.6426 191.221 99.1153C190.599 99.5745 189.796 99.8041 188.81 99.8041ZM206.939 112.122C206.02 112.122 205.23 111.959 204.568 111.635C203.92 111.298 203.42 110.818 203.069 110.197C202.718 109.562 202.542 108.799 202.542 107.908C202.542 106.557 202.772 105.382 203.231 104.383C203.69 103.37 204.345 102.58 205.196 102.012C206.061 101.445 207.087 101.161 208.276 101.161C209.194 101.161 210.004 101.344 210.707 101.708C211.423 102.073 211.983 102.607 212.388 103.309C212.807 103.998 213.016 104.822 213.016 105.78C213.016 106.699 212.861 107.543 212.55 108.313C212.253 109.083 211.828 109.751 211.274 110.319C210.734 110.886 210.092 111.331 209.349 111.656C208.607 111.966 207.803 112.122 206.939 112.122ZM199.969 115.93L202.887 101.263H204.751L204.183 104.038L203.555 106.53L203.272 109.083L201.914 115.93H199.969ZM206.858 110.42C207.668 110.42 208.384 110.224 209.005 109.832C209.64 109.441 210.139 108.907 210.504 108.232C210.869 107.543 211.051 106.76 211.051 105.882C211.051 104.936 210.774 104.2 210.221 103.674C209.667 103.133 208.877 102.863 207.85 102.863C207.053 102.863 206.331 103.059 205.683 103.451C205.048 103.829 204.548 104.362 204.183 105.051C203.832 105.726 203.657 106.51 203.657 107.401C203.657 108.333 203.933 109.069 204.487 109.609C205.041 110.15 205.831 110.42 206.858 110.42ZM219.994 112.122C218.94 112.122 218.028 111.932 217.259 111.554C216.489 111.163 215.895 110.622 215.476 109.934C215.057 109.231 214.848 108.407 214.848 107.462C214.848 106.246 215.111 105.166 215.638 104.221C216.165 103.275 216.88 102.532 217.785 101.992C218.704 101.438 219.744 101.161 220.905 101.161C221.878 101.161 222.722 101.351 223.438 101.729C224.153 102.093 224.707 102.62 225.099 103.309C225.504 103.998 225.707 104.828 225.707 105.801C225.707 106.044 225.693 106.294 225.666 106.55C225.639 106.793 225.605 107.023 225.565 107.239H216.266L216.509 105.821H224.633L223.843 106.307C223.964 105.551 223.91 104.916 223.681 104.403C223.451 103.876 223.086 103.478 222.587 103.208C222.101 102.924 221.513 102.782 220.824 102.782C220.014 102.782 219.298 102.978 218.677 103.37C218.069 103.748 217.596 104.281 217.259 104.97C216.921 105.645 216.752 106.442 216.752 107.361C216.752 108.333 217.029 109.089 217.583 109.63C218.15 110.156 219.008 110.42 220.156 110.42C220.831 110.42 221.459 110.312 222.04 110.096C222.621 109.866 223.1 109.562 223.478 109.184L224.309 110.582C223.796 111.082 223.154 111.467 222.384 111.737C221.614 111.993 220.817 112.122 219.994 112.122ZM232.555 112.122C231.515 112.122 230.61 111.932 229.84 111.554C229.084 111.163 228.497 110.622 228.078 109.934C227.659 109.231 227.45 108.414 227.45 107.482C227.45 106.267 227.72 105.186 228.26 104.241C228.8 103.282 229.55 102.532 230.509 101.992C231.468 101.438 232.555 101.161 233.771 101.161C234.811 101.161 235.702 101.357 236.445 101.749C237.188 102.127 237.768 102.708 238.187 103.491L236.546 104.403C236.276 103.876 235.891 103.491 235.391 103.248C234.905 102.992 234.318 102.863 233.629 102.863C232.818 102.863 232.096 103.059 231.461 103.451C230.826 103.829 230.327 104.362 229.962 105.051C229.597 105.726 229.415 106.51 229.415 107.401C229.415 108.333 229.692 109.069 230.246 109.609C230.813 110.15 231.61 110.42 232.636 110.42C233.271 110.42 233.865 110.291 234.419 110.035C234.986 109.778 235.459 109.4 235.837 108.9L237.255 109.913C236.769 110.602 236.107 111.142 235.27 111.534C234.432 111.926 233.528 112.122 232.555 112.122ZM238.98 116.052C238.467 116.052 237.961 115.964 237.461 115.788C236.961 115.626 236.569 115.397 236.286 115.1L237.299 113.661C237.528 113.891 237.798 114.066 238.109 114.188C238.406 114.323 238.744 114.391 239.122 114.391C239.568 114.391 239.966 114.269 240.317 114.026C240.682 113.796 241.053 113.384 241.432 112.79L242.444 111.23L242.667 111.007L248.806 101.263H250.771L243.154 113.175C242.681 113.904 242.235 114.478 241.816 114.897C241.398 115.316 240.959 115.613 240.5 115.788C240.054 115.964 239.547 116.052 238.98 116.052ZM242.08 112.344L239.385 101.263H241.33L243.62 110.825L242.08 112.344ZM256.854 112.122C255.936 112.122 255.146 111.959 254.484 111.635C253.835 111.298 253.336 110.818 252.985 110.197C252.633 109.562 252.458 108.799 252.458 107.908C252.458 106.557 252.687 105.382 253.147 104.383C253.606 103.37 254.261 102.58 255.112 102.012C255.976 101.445 257.003 101.161 258.191 101.161C259.11 101.161 259.92 101.344 260.622 101.708C261.338 102.073 261.899 102.607 262.304 103.309C262.722 103.998 262.932 104.822 262.932 105.78C262.932 106.699 262.776 107.543 262.466 108.313C262.169 109.083 261.743 109.751 261.189 110.319C260.649 110.886 260.008 111.331 259.265 111.656C258.522 111.966 257.718 112.122 256.854 112.122ZM249.885 115.93L252.802 101.263H254.666L254.099 104.038L253.471 106.53L253.187 109.083L251.83 115.93H249.885ZM256.773 110.42C257.583 110.42 258.299 110.224 258.92 109.832C259.555 109.441 260.055 108.907 260.42 108.232C260.784 107.543 260.967 106.76 260.967 105.882C260.967 104.936 260.69 104.2 260.136 103.674C259.582 103.133 258.792 102.863 257.766 102.863C256.969 102.863 256.246 103.059 255.598 103.451C254.963 103.829 254.463 104.362 254.099 105.051C253.748 105.726 253.572 106.51 253.572 107.401C253.572 108.333 253.849 109.069 254.403 109.609C254.956 110.15 255.747 110.42 256.773 110.42ZM269.848 112.122C268.808 112.122 267.903 111.932 267.134 111.554C266.377 111.163 265.79 110.622 265.371 109.934C264.952 109.231 264.743 108.414 264.743 107.482C264.743 106.267 265.013 105.186 265.553 104.241C266.094 103.282 266.843 102.532 267.802 101.992C268.761 101.438 269.848 101.161 271.064 101.161C272.104 101.161 272.995 101.357 273.738 101.749C274.481 102.127 275.062 102.708 275.48 103.491L273.839 104.403C273.569 103.876 273.184 103.491 272.685 103.248C272.198 102.992 271.611 102.863 270.922 102.863C270.112 102.863 269.389 103.059 268.754 103.451C268.12 103.829 267.62 104.362 267.255 105.051C266.89 105.726 266.708 106.51 266.708 107.401C266.708 108.333 266.985 109.069 267.539 109.609C268.106 110.15 268.903 110.42 269.929 110.42C270.564 110.42 271.158 110.291 271.712 110.035C272.279 109.778 272.752 109.4 273.13 108.9L274.548 109.913C274.062 110.602 273.4 111.142 272.563 111.534C271.726 111.926 270.821 112.122 269.848 112.122ZM289.45 111.088L291.07 102.964H286.411L285.904 105.112C285.729 105.774 285.553 106.422 285.378 107.057C285.202 107.678 284.999 108.252 284.77 108.779C284.54 109.292 284.277 109.717 283.98 110.055C283.683 110.379 283.325 110.575 282.906 110.643L280.9 110.298C281.319 110.312 281.69 110.17 282.015 109.873C282.339 109.576 282.629 109.17 282.886 108.657C283.142 108.131 283.372 107.536 283.575 106.874C283.791 106.213 283.986 105.531 284.162 104.828L285.013 101.263H293.36L291.395 111.088H289.45ZM279.725 114.492L280.556 110.298H293.198L292.367 114.492H290.544L291.03 112H282.055L281.549 114.492H279.725ZM293.584 111.98L294.05 110.339C294.145 110.352 294.233 110.366 294.314 110.379C294.395 110.393 294.469 110.4 294.536 110.4C295.023 110.4 295.441 110.183 295.792 109.751C296.144 109.319 296.454 108.711 296.724 107.928C296.995 107.145 297.265 106.24 297.535 105.213L298.507 101.263H306.732L304.585 112H302.64L304.565 102.357L304.95 102.964H299.439L299.966 102.357L299.236 105.355C298.966 106.463 298.683 107.442 298.386 108.293C298.102 109.13 297.791 109.839 297.454 110.42C297.116 110.987 296.731 111.419 296.299 111.716C295.88 112.014 295.387 112.162 294.82 112.162C294.617 112.162 294.422 112.142 294.233 112.101C294.03 112.074 293.814 112.034 293.584 111.98ZM315.274 112L316.003 108.191L316.266 108.678H312.883C311.6 108.678 310.614 108.387 309.925 107.806C309.236 107.212 308.892 106.422 308.892 105.436C308.892 104.14 309.378 103.12 310.351 102.377C311.337 101.634 312.68 101.263 314.382 101.263H319.143L317.016 112H315.274ZM307.494 112L311.242 107.887H313.248L309.682 112H307.494ZM316.124 107.665L317.198 102.316L317.401 102.944H314.22C313.167 102.944 312.349 103.16 311.769 103.593C311.188 104.011 310.898 104.619 310.898 105.416C310.898 106.564 311.667 107.138 313.207 107.138H316.509L316.124 107.665ZM31.5253 137L33.6727 126.263H43.6199L41.4724 137H39.5276L41.3914 127.478L41.7561 127.964H34.7667L35.3542 127.478L33.4701 137H31.5253ZM50.3612 137.122C49.3348 137.122 48.4434 136.932 47.6871 136.554C46.9442 136.163 46.3635 135.622 45.9448 134.934C45.5261 134.231 45.3167 133.414 45.3167 132.482C45.3167 131.267 45.5869 130.186 46.1271 129.241C46.6673 128.282 47.4102 127.532 48.3556 126.992C49.3145 126.438 50.4018 126.161 51.6173 126.161C52.6302 126.161 53.5149 126.351 54.2712 126.729C55.0276 127.107 55.6083 127.64 56.0135 128.329C56.4322 129.018 56.6415 129.835 56.6415 130.78C56.6415 131.996 56.3714 133.083 55.8312 134.042C55.2909 134.988 54.5481 135.737 53.6027 136.291C52.6708 136.845 51.5903 137.122 50.3612 137.122ZM50.4828 135.42C51.2932 135.42 52.0157 135.224 52.6505 134.832C53.2853 134.441 53.7783 133.907 54.1294 133.232C54.4941 132.543 54.6764 131.76 54.6764 130.882C54.6764 129.936 54.3995 129.2 53.8458 128.674C53.292 128.133 52.5019 127.863 51.4755 127.863C50.6786 127.863 49.9628 128.059 49.328 128.451C48.6932 128.829 48.1935 129.362 47.8289 130.051C47.4642 130.726 47.2819 131.51 47.2819 132.401C47.2819 133.333 47.5587 134.069 48.1125 134.609C48.6662 135.15 49.4563 135.42 50.4828 135.42ZM65.8094 136.088L67.4301 127.964H62.7705L62.264 130.112C62.0885 130.774 61.9129 131.422 61.7373 132.057C61.5617 132.678 61.3591 133.252 61.1295 133.779C60.8999 134.292 60.6366 134.717 60.3394 135.055C60.0423 135.379 59.6844 135.575 59.2657 135.643L57.2601 135.298C57.6787 135.312 58.0502 135.17 58.3743 134.873C58.6984 134.576 58.9888 134.17 59.2454 133.657C59.5021 133.131 59.7317 132.536 59.9342 131.874C60.1503 131.213 60.3462 130.531 60.5218 129.828L61.3726 126.263H69.7193L67.7542 136.088H65.8094ZM56.085 139.492L56.9157 135.298H69.5573L68.7266 139.492H66.9033L67.3896 137H58.4148L57.9083 139.492H56.085ZM71.7267 137L73.8742 126.263H81.7752L81.4308 127.964H74.9884L75.5557 127.519L73.6716 137H71.7267ZM86.2695 137.122C85.2431 137.122 84.3517 136.932 83.5953 136.554C82.8525 136.163 82.2717 135.622 81.8531 134.934C81.4344 134.231 81.225 133.414 81.225 132.482C81.225 131.267 81.4951 130.186 82.0354 129.241C82.5756 128.282 83.3185 127.532 84.2639 126.992C85.2228 126.438 86.31 126.161 87.5256 126.161C88.5385 126.161 89.4232 126.351 90.1795 126.729C90.9358 127.107 91.5166 127.64 91.9218 128.329C92.3405 129.018 92.5498 129.835 92.5498 130.78C92.5498 131.996 92.2797 133.083 91.7394 134.042C91.1992 134.988 90.4564 135.737 89.5109 136.291C88.579 136.845 87.4986 137.122 86.2695 137.122ZM86.3911 135.42C87.2014 135.42 87.924 135.224 88.5588 134.832C89.1936 134.441 89.6865 133.907 90.0377 133.232C90.4023 132.543 90.5847 131.76 90.5847 130.882C90.5847 129.936 90.3078 129.2 89.7541 128.674C89.2003 128.133 88.4102 127.863 87.3838 127.863C86.5869 127.863 85.8711 128.059 85.2363 128.451C84.6015 128.829 84.1018 129.362 83.7371 130.051C83.3725 130.726 83.1901 131.51 83.1901 132.401C83.1901 133.333 83.467 134.069 84.0208 134.609C84.5745 135.15 85.3646 135.42 86.3911 135.42ZM96.0324 137L97.8963 127.458L98.2609 127.964H93.9052L94.2294 126.263H104.035L103.711 127.964H99.2739L99.8411 127.458L97.9773 137H96.0324ZM108.527 137.122C107.5 137.122 106.609 136.932 105.853 136.554C105.11 136.163 104.529 135.622 104.11 134.934C103.692 134.231 103.482 133.414 103.482 132.482C103.482 131.267 103.752 130.186 104.293 129.241C104.833 128.282 105.576 127.532 106.521 126.992C107.48 126.438 108.567 126.161 109.783 126.161C110.796 126.161 111.68 126.351 112.437 126.729C113.193 127.107 113.774 127.64 114.179 128.329C114.598 129.018 114.807 129.835 114.807 130.78C114.807 131.996 114.537 133.083 113.997 134.042C113.456 134.988 112.714 135.737 111.768 136.291C110.836 136.845 109.756 137.122 108.527 137.122ZM108.648 135.42C109.459 135.42 110.181 135.224 110.816 134.832C111.451 134.441 111.944 133.907 112.295 133.232C112.66 132.543 112.842 131.76 112.842 130.882C112.842 129.936 112.565 129.2 112.011 128.674C111.458 128.133 110.667 127.863 109.641 127.863C108.844 127.863 108.128 128.059 107.493 128.451C106.859 128.829 106.359 129.362 105.994 130.051C105.63 130.726 105.447 131.51 105.447 132.401C105.447 133.333 105.724 134.069 106.278 134.609C106.832 135.15 107.622 135.42 108.648 135.42ZM116.538 137L118.706 126.263H123.608C124.783 126.263 125.675 126.472 126.282 126.891C126.89 127.309 127.194 127.917 127.194 128.714C127.194 129.619 126.802 130.355 126.019 130.922C125.249 131.476 124.236 131.753 122.98 131.753L123.244 131.267C124.378 131.267 125.215 131.463 125.756 131.854C126.296 132.232 126.566 132.833 126.566 133.657C126.566 134.697 126.147 135.514 125.31 136.109C124.473 136.703 123.304 137 121.805 137H116.538ZM118.766 135.501H121.866C122.744 135.501 123.433 135.332 123.932 134.994C124.432 134.657 124.682 134.184 124.682 133.576C124.682 133.117 124.527 132.786 124.216 132.584C123.905 132.381 123.399 132.28 122.697 132.28H119.394L118.766 135.501ZM119.678 130.882H122.595C123.365 130.882 123.993 130.72 124.479 130.396C124.966 130.058 125.209 129.612 125.209 129.058C125.209 128.626 125.04 128.302 124.702 128.086C124.378 127.87 123.892 127.762 123.244 127.762H120.286L119.678 130.882ZM136.782 137L133.743 131.733L135.364 131.003L139.031 137H136.782ZM128.982 137L131.15 126.263H133.095L130.927 137H128.982ZM131.271 132.462L131.575 130.801H135.121L134.817 132.462H131.271ZM135.424 131.854L133.581 131.611L138.787 126.263H140.955L135.424 131.854ZM141.05 137L143.218 126.263H145.183L143.563 134.285L151.666 126.263H153.51L151.383 137H149.397L151.038 128.977L142.935 137H141.05ZM168.397 137L165.358 131.733L166.979 131.003L170.646 137H168.397ZM160.597 137L162.765 126.263H164.71L162.542 137H160.597ZM162.886 132.462L163.19 130.801H166.736L166.432 132.462H162.886ZM167.04 131.854L165.196 131.611L170.403 126.263H172.57L167.04 131.854ZM185.339 137.162C183.934 137.162 182.732 136.912 181.733 136.412C180.733 135.913 179.97 135.217 179.443 134.326C178.93 133.421 178.673 132.374 178.673 131.186C178.673 130.011 178.876 128.91 179.281 127.883C179.686 126.843 180.267 125.932 181.024 125.148C181.78 124.365 182.685 123.757 183.738 123.325C184.792 122.879 185.973 122.657 187.284 122.657C188.702 122.657 189.91 122.906 190.91 123.406C191.909 123.906 192.666 124.608 193.179 125.513C193.706 126.405 193.969 127.445 193.969 128.633C193.969 129.808 193.766 130.916 193.361 131.956C192.956 132.982 192.375 133.887 191.619 134.67C190.863 135.454 189.951 136.068 188.884 136.514C187.831 136.946 186.649 137.162 185.339 137.162ZM185.521 135.359C186.493 135.359 187.378 135.19 188.175 134.853C188.972 134.501 189.647 134.022 190.201 133.414C190.755 132.793 191.18 132.084 191.477 131.287C191.774 130.49 191.923 129.646 191.923 128.755C191.923 127.904 191.741 127.161 191.376 126.526C191.011 125.878 190.471 125.371 189.755 125.007C189.039 124.642 188.161 124.46 187.121 124.46C186.136 124.46 185.244 124.635 184.447 124.986C183.664 125.324 182.989 125.804 182.421 126.425C181.868 127.033 181.442 127.735 181.145 128.532C180.848 129.329 180.699 130.173 180.699 131.064C180.699 131.915 180.882 132.665 181.246 133.313C181.625 133.948 182.165 134.447 182.867 134.812C183.583 135.177 184.468 135.359 185.521 135.359ZM195.701 137L198.537 122.819H203.804C205.465 122.819 206.748 123.183 207.653 123.913C208.558 124.642 209.011 125.662 209.011 126.972C209.011 128.174 208.741 129.207 208.2 130.071C207.674 130.922 206.911 131.577 205.911 132.037C204.912 132.482 203.73 132.705 202.366 132.705H197.706L198.78 131.733L197.726 137H195.701ZM198.739 131.956L198.03 130.943H202.406C203.851 130.943 204.972 130.625 205.769 129.99C206.58 129.342 206.985 128.397 206.985 127.154C206.985 126.303 206.694 125.662 206.114 125.23C205.533 124.797 204.702 124.581 203.622 124.581H199.347L200.421 123.548L198.739 131.956ZM212.606 137L215.159 124.055L215.564 124.581H210.256L210.601 122.819H222.29L221.946 124.581H216.557L217.164 124.055L214.612 137H212.606ZM222.94 132.523L224.5 122.819H226.809L224.479 132.523H222.94ZM223 137.122C222.636 137.122 222.332 137 222.089 136.757C221.859 136.514 221.744 136.23 221.744 135.906C221.744 135.501 221.873 135.17 222.129 134.913C222.399 134.657 222.724 134.528 223.102 134.528C223.466 134.528 223.764 134.643 223.993 134.873C224.236 135.102 224.358 135.386 224.358 135.724C224.358 135.98 224.297 136.217 224.175 136.433C224.054 136.649 223.892 136.818 223.689 136.939C223.487 137.061 223.257 137.122 223 137.122ZM233.092 137L235.928 122.819H242.209C243.627 122.819 244.728 123.082 245.511 123.609C246.294 124.136 246.686 124.912 246.686 125.939C246.686 126.83 246.463 127.586 246.017 128.208C245.585 128.815 245.018 129.275 244.316 129.585C243.613 129.896 242.87 130.051 242.087 130.051L242.553 129.464C243.607 129.464 244.457 129.727 245.106 130.254C245.754 130.78 246.078 131.55 246.078 132.563C246.078 133.536 245.822 134.353 245.308 135.015C244.809 135.676 244.093 136.176 243.161 136.514C242.242 136.838 241.162 137 239.919 137H233.092ZM235.442 135.359H240.061C241.331 135.359 242.317 135.123 243.019 134.65C243.721 134.177 244.073 133.488 244.073 132.584C244.073 131.868 243.816 131.368 243.303 131.084C242.789 130.787 242.06 130.639 241.115 130.639H236.05L236.374 128.998H240.851C241.594 128.998 242.242 128.896 242.796 128.694C243.363 128.491 243.802 128.187 244.113 127.782C244.424 127.377 244.579 126.871 244.579 126.263C244.579 125.641 244.336 125.189 243.85 124.905C243.363 124.608 242.675 124.46 241.783 124.46H237.61L235.442 135.359ZM248.182 137L250.349 126.263H252.315L250.694 134.285L258.797 126.263H260.641L258.514 137H256.528L258.169 128.977L250.066 137H248.182ZM269.804 136.088L271.425 127.964H266.765L266.259 130.112C266.083 130.774 265.907 131.422 265.732 132.057C265.556 132.678 265.354 133.252 265.124 133.779C264.895 134.292 264.631 134.717 264.334 135.055C264.037 135.379 263.679 135.575 263.26 135.643L261.255 135.298C261.673 135.312 262.045 135.17 262.369 134.873C262.693 134.576 262.983 134.17 263.24 133.657C263.497 133.131 263.726 132.536 263.929 131.874C264.145 131.213 264.341 130.531 264.516 129.828L265.367 126.263H273.714L271.749 136.088H269.804ZM260.08 139.492L260.91 135.298H273.552L272.721 139.492H270.898L271.384 137H262.409L261.903 139.492H260.08ZM280.968 137.122C279.915 137.122 279.003 136.932 278.233 136.554C277.464 136.163 276.869 135.622 276.451 134.934C276.032 134.231 275.823 133.407 275.823 132.462C275.823 131.246 276.086 130.166 276.613 129.221C277.139 128.275 277.855 127.532 278.76 126.992C279.679 126.438 280.719 126.161 281.88 126.161C282.852 126.161 283.697 126.351 284.412 126.729C285.128 127.093 285.682 127.62 286.074 128.309C286.479 128.998 286.681 129.828 286.681 130.801C286.681 131.044 286.668 131.294 286.641 131.55C286.614 131.793 286.58 132.023 286.54 132.239H277.241L277.484 130.821H285.608L284.818 131.307C284.939 130.551 284.885 129.916 284.656 129.403C284.426 128.876 284.061 128.478 283.562 128.208C283.075 127.924 282.488 127.782 281.799 127.782C280.989 127.782 280.273 127.978 279.652 128.37C279.044 128.748 278.571 129.281 278.233 129.97C277.896 130.645 277.727 131.442 277.727 132.361C277.727 133.333 278.004 134.089 278.558 134.63C279.125 135.156 279.982 135.42 281.13 135.42C281.806 135.42 282.434 135.312 283.015 135.096C283.595 134.866 284.075 134.562 284.453 134.184L285.284 135.582C284.77 136.082 284.129 136.467 283.359 136.737C282.589 136.993 281.792 137.122 280.968 137.122ZM293.469 137.122C292.443 137.122 291.551 136.932 290.795 136.554C290.052 136.163 289.471 135.622 289.053 134.934C288.634 134.231 288.425 133.414 288.425 132.482C288.425 131.267 288.695 130.186 289.235 129.241C289.775 128.282 290.518 127.532 291.464 126.992C292.422 126.438 293.51 126.161 294.725 126.161C295.738 126.161 296.623 126.351 297.379 126.729C298.135 127.107 298.716 127.64 299.121 128.329C299.54 129.018 299.749 129.835 299.749 130.78C299.749 131.996 299.479 133.083 298.939 134.042C298.399 134.988 297.656 135.737 296.711 136.291C295.779 136.845 294.698 137.122 293.469 137.122ZM293.591 135.42C294.401 135.42 295.124 135.224 295.758 134.832C296.393 134.441 296.886 133.907 297.237 133.232C297.602 132.543 297.784 131.76 297.784 130.882C297.784 129.936 297.507 129.2 296.954 128.674C296.4 128.133 295.61 127.863 294.583 127.863C293.787 127.863 293.071 128.059 292.436 128.451C291.801 128.829 291.301 129.362 290.937 130.051C290.572 130.726 290.39 131.51 290.39 132.401C290.39 133.333 290.667 134.069 291.22 134.609C291.774 135.15 292.564 135.42 293.591 135.42ZM301.102 141.052C300.589 141.052 300.083 140.964 299.583 140.788C299.083 140.626 298.692 140.397 298.408 140.1L299.421 138.661C299.651 138.891 299.921 139.066 300.231 139.188C300.528 139.323 300.866 139.391 301.244 139.391C301.69 139.391 302.088 139.269 302.44 139.026C302.804 138.796 303.176 138.384 303.554 137.79L304.567 136.23L304.79 136.007L310.928 126.263H312.893L305.276 138.175C304.803 138.904 304.357 139.478 303.939 139.897C303.52 140.316 303.081 140.613 302.622 140.788C302.176 140.964 301.67 141.052 301.102 141.052ZM304.202 137.344L301.508 126.263H303.453L305.742 135.825L304.202 137.344ZM318.976 137.122C318.058 137.122 317.268 136.959 316.606 136.635C315.958 136.298 315.458 135.818 315.107 135.197C314.756 134.562 314.58 133.799 314.58 132.908C314.58 131.557 314.81 130.382 315.269 129.383C315.728 128.37 316.383 127.58 317.234 127.012C318.098 126.445 319.125 126.161 320.313 126.161C321.232 126.161 322.042 126.344 322.745 126.708C323.46 127.073 324.021 127.607 324.426 128.309C324.845 128.998 325.054 129.822 325.054 130.78C325.054 131.699 324.899 132.543 324.588 133.313C324.291 134.083 323.866 134.751 323.312 135.319C322.772 135.886 322.13 136.331 321.387 136.656C320.644 136.966 319.841 137.122 318.976 137.122ZM312.007 140.93L314.925 126.263H316.788L316.221 129.038L315.593 131.53L315.309 134.083L313.952 140.93H312.007ZM318.895 135.42C319.706 135.42 320.421 135.224 321.043 134.832C321.678 134.441 322.177 133.907 322.542 133.232C322.907 132.543 323.089 131.76 323.089 130.882C323.089 129.936 322.812 129.2 322.258 128.674C321.705 128.133 320.914 127.863 319.888 127.863C319.091 127.863 318.369 128.059 317.72 128.451C317.086 128.829 316.586 129.362 316.221 130.051C315.87 130.726 315.694 131.51 315.694 132.401C315.694 133.333 315.971 134.069 316.525 134.609C317.079 135.15 317.869 135.42 318.895 135.42ZM331.91 137.122C330.883 137.122 329.992 136.932 329.236 136.554C328.493 136.163 327.912 135.622 327.493 134.934C327.075 134.231 326.865 133.414 326.865 132.482C326.865 131.267 327.135 130.186 327.676 129.241C328.216 128.282 328.959 127.532 329.904 126.992C330.863 126.438 331.95 126.161 333.166 126.161C334.179 126.161 335.063 126.351 335.82 126.729C336.576 127.107 337.157 127.64 337.562 128.329C337.981 129.018 338.19 129.835 338.19 130.78C338.19 131.996 337.92 133.083 337.38 134.042C336.84 134.988 336.097 135.737 335.151 136.291C334.219 136.845 333.139 137.122 331.91 137.122ZM332.031 135.42C332.842 135.42 333.564 135.224 334.199 134.832C334.834 134.441 335.327 133.907 335.678 133.232C336.043 132.543 336.225 131.76 336.225 130.882C336.225 129.936 335.948 129.2 335.394 128.674C334.841 128.133 334.051 127.863 333.024 127.863C332.227 127.863 331.511 128.059 330.877 128.451C330.242 128.829 329.742 129.362 329.377 130.051C329.013 130.726 328.83 131.51 328.83 132.401C328.83 133.333 329.107 134.069 329.661 134.609C330.215 135.15 331.005 135.42 332.031 135.42ZM347.721 137L344.682 131.733L346.303 131.003L349.969 137H347.721ZM339.921 137L342.089 126.263H344.034L341.866 137H339.921ZM342.21 132.462L342.514 130.801H346.059L345.756 132.462H342.21ZM346.363 131.854L344.52 131.611L349.726 126.263H351.894L346.363 131.854ZM351.989 137L354.157 126.263H356.122L354.501 134.285L362.605 126.263H364.449L362.321 137H360.336L361.977 128.977L353.873 137H351.989ZM26.3517 162L28.5194 151.263H30.4846L28.8638 159.285L36.9674 151.263H38.811L36.6838 162H34.6984L36.3394 153.977L28.2358 162H26.3517ZM48.0459 162L49.9098 152.458L50.2744 152.964H45.9187L46.2429 151.263H56.0482L55.7241 152.964H51.2874L51.8546 152.458L49.9908 162H48.0459ZM60.6618 162.122C59.6083 162.122 58.6966 161.932 57.9268 161.554C57.1569 161.163 56.5627 160.622 56.144 159.934C55.7253 159.231 55.516 158.407 55.516 157.462C55.516 156.246 55.7793 155.166 56.3061 154.221C56.8328 153.275 57.5486 152.532 58.4535 151.992C59.3719 151.438 60.4119 151.161 61.5734 151.161C62.5458 151.161 63.39 151.351 64.1058 151.729C64.8216 152.093 65.3753 152.62 65.767 153.309C66.1722 153.998 66.3748 154.828 66.3748 155.801C66.3748 156.044 66.3613 156.294 66.3343 156.55C66.3073 156.793 66.2735 157.023 66.233 157.239H56.9341L57.1772 155.821H65.3011L64.511 156.307C64.6325 155.551 64.5785 154.916 64.3489 154.403C64.1193 153.876 63.7546 153.478 63.2549 153.208C62.7687 152.924 62.1812 152.782 61.4924 152.782C60.682 152.782 59.9662 152.978 59.3449 153.37C58.7372 153.748 58.2644 154.281 57.9268 154.97C57.5891 155.645 57.4203 156.442 57.4203 157.361C57.4203 158.333 57.6972 159.089 58.2509 159.63C58.8182 160.156 59.6758 160.42 60.8238 160.42C61.4991 160.42 62.1272 160.312 62.7079 160.096C63.2887 159.866 63.7681 159.562 64.1463 159.184L64.9769 160.582C64.4637 161.082 63.8222 161.467 63.0523 161.737C62.2825 161.993 61.4856 162.122 60.6618 162.122ZM73.2233 162.122C72.1833 162.122 71.2784 161.932 70.5086 161.554C69.7522 161.163 69.1647 160.622 68.746 159.934C68.3274 159.231 68.118 158.414 68.118 157.482C68.118 156.267 68.3881 155.186 68.9284 154.241C69.4686 153.282 70.2182 152.532 71.1771 151.992C72.136 151.438 73.2233 151.161 74.4388 151.161C75.4788 151.161 76.3702 151.357 77.113 151.749C77.8558 152.127 78.4366 152.708 78.8553 153.491L77.2143 154.403C76.9442 153.876 76.5593 153.491 76.0595 153.248C75.5733 152.992 74.9858 152.863 74.297 152.863C73.4866 152.863 72.7641 153.059 72.1293 153.451C71.4945 153.829 70.9948 154.362 70.6301 155.051C70.2655 155.726 70.0831 156.51 70.0831 157.401C70.0831 158.333 70.36 159.069 70.9138 159.609C71.481 160.15 72.2779 160.42 73.3043 160.42C73.9391 160.42 74.5334 160.291 75.0871 160.035C75.6544 159.778 76.1271 159.4 76.5052 158.9L77.9234 159.913C77.4372 160.602 76.7754 161.142 75.938 161.534C75.1006 161.926 74.1957 162.122 73.2233 162.122ZM81.8769 162L83.7407 152.458L84.1054 152.964H79.7497L80.0738 151.263H89.8792L89.555 152.964H85.1183L85.6856 152.458L83.8217 162H81.8769ZM100.356 162L102.484 151.263H104.428L102.301 162H100.356ZM95.8386 154.889C97.0542 154.889 97.9658 155.139 98.5736 155.639C99.1949 156.125 99.5055 156.861 99.5055 157.847C99.5055 158.684 99.2962 159.42 98.8775 160.055C98.4588 160.676 97.8645 161.156 97.0947 161.494C96.3384 161.831 95.4402 162 94.4003 162H89.7204L91.8679 151.303H93.7925L93.0834 154.889H95.8386ZM94.4003 160.541C95.035 160.541 95.5888 160.44 96.0615 160.237C96.5342 160.021 96.8989 159.724 97.1555 159.346C97.4256 158.968 97.5607 158.522 97.5607 158.009C97.5607 156.888 96.7908 156.327 95.2511 156.327H92.7998L91.9692 160.541H94.4003ZM119.019 161.088L120.64 152.964H115.98L115.474 155.112C115.298 155.774 115.122 156.422 114.947 157.057C114.771 157.678 114.569 158.252 114.339 158.779C114.109 159.292 113.846 159.717 113.549 160.055C113.252 160.379 112.894 160.575 112.475 160.643L110.47 160.298C110.888 160.312 111.26 160.17 111.584 159.873C111.908 159.576 112.198 159.17 112.455 158.657C112.712 158.131 112.941 157.536 113.144 156.874C113.36 156.213 113.556 155.531 113.731 154.828L114.582 151.263H122.929L120.964 161.088H119.019ZM109.295 164.492L110.125 160.298H122.767L121.936 164.492H120.113L120.599 162H111.624L111.118 164.492H109.295ZM130.183 162.122C129.13 162.122 128.218 161.932 127.448 161.554C126.679 161.163 126.084 160.622 125.666 159.934C125.247 159.231 125.038 158.407 125.038 157.462C125.038 156.246 125.301 155.166 125.828 154.221C126.354 153.275 127.07 152.532 127.975 151.992C128.894 151.438 129.933 151.161 131.095 151.161C132.067 151.161 132.912 151.351 133.627 151.729C134.343 152.093 134.897 152.62 135.289 153.309C135.694 153.998 135.896 154.828 135.896 155.801C135.896 156.044 135.883 156.294 135.856 156.55C135.829 156.793 135.795 157.023 135.755 157.239H126.456L126.699 155.821H134.823L134.033 156.307C134.154 155.551 134.1 154.916 133.87 154.403C133.641 153.876 133.276 153.478 132.776 153.208C132.29 152.924 131.703 152.782 131.014 152.782C130.204 152.782 129.488 152.978 128.867 153.37C128.259 153.748 127.786 154.281 127.448 154.97C127.111 155.645 126.942 156.442 126.942 157.361C126.942 158.333 127.219 159.089 127.773 159.63C128.34 160.156 129.197 160.42 130.345 160.42C131.021 160.42 131.649 160.312 132.229 160.096C132.81 159.866 133.29 159.562 133.668 159.184L134.499 160.582C133.985 161.082 133.344 161.467 132.574 161.737C131.804 161.993 131.007 162.122 130.183 162.122ZM137.559 162L139.726 151.263H141.691L140.071 159.285L148.174 151.263H150.018L147.891 162H145.905L147.546 153.977L139.443 162H137.559ZM145.176 149.804C144.149 149.804 143.393 149.568 142.907 149.095C142.421 148.609 142.259 147.927 142.421 147.049H143.738C143.643 147.576 143.738 147.994 144.021 148.305C144.305 148.602 144.723 148.751 145.277 148.751C145.831 148.751 146.297 148.602 146.675 148.305C147.067 148.008 147.323 147.589 147.445 147.049H148.782C148.606 147.954 148.208 148.643 147.587 149.115C146.965 149.574 146.162 149.804 145.176 149.804ZM156.851 162.122C155.811 162.122 154.906 161.932 154.136 161.554C153.38 161.163 152.792 160.622 152.374 159.934C151.955 159.231 151.746 158.414 151.746 157.482C151.746 156.267 152.016 155.186 152.556 154.241C153.096 153.282 153.846 152.532 154.805 151.992C155.764 151.438 156.851 151.161 158.067 151.161C159.106 151.161 159.998 151.357 160.741 151.749C161.484 152.127 162.064 152.708 162.483 153.491L160.842 154.403C160.572 153.876 160.187 153.491 159.687 153.248C159.201 152.992 158.614 152.863 157.925 152.863C157.114 152.863 156.392 153.059 155.757 153.451C155.122 153.829 154.622 154.362 154.258 155.051C153.893 155.726 153.711 156.51 153.711 157.401C153.711 158.333 153.988 159.069 154.541 159.609C155.109 160.15 155.906 160.42 156.932 160.42C157.567 160.42 158.161 160.291 158.715 160.035C159.282 159.778 159.755 159.4 160.133 158.9L161.551 159.913C161.065 160.602 160.403 161.142 159.566 161.534C158.728 161.926 157.823 162.122 156.851 162.122ZM165.505 162L167.368 152.458L167.733 152.964H163.377L163.702 151.263H173.507L173.183 152.964H168.746L169.313 152.458L167.449 162H165.505ZM173.348 162L175.516 151.263H180.419C181.594 151.263 182.485 151.472 183.093 151.891C183.7 152.309 184.004 152.917 184.004 153.714C184.004 154.619 183.613 155.355 182.829 155.922C182.059 156.476 181.047 156.753 179.79 156.753L180.054 156.267C181.188 156.267 182.026 156.463 182.566 156.854C183.106 157.232 183.376 157.833 183.376 158.657C183.376 159.697 182.958 160.514 182.12 161.109C181.283 161.703 180.115 162 178.615 162H173.348ZM175.577 160.501H178.676C179.554 160.501 180.243 160.332 180.743 159.994C181.242 159.657 181.492 159.184 181.492 158.576C181.492 158.117 181.337 157.786 181.026 157.584C180.716 157.381 180.209 157.28 179.507 157.28H176.205L175.577 160.501ZM176.488 155.882H179.406C180.175 155.882 180.803 155.72 181.29 155.396C181.776 155.058 182.019 154.612 182.019 154.058C182.019 153.626 181.85 153.302 181.512 153.086C181.188 152.87 180.702 152.762 180.054 152.762H177.096L176.488 155.882ZM185.792 162L187.96 151.263H189.925L188.304 159.285L196.408 151.263H198.252L196.124 162H194.139L195.78 153.977L187.676 162H185.792ZM202.046 162L203.91 152.458L204.274 152.964H199.919L200.243 151.263H210.048L209.724 152.964H205.287L205.855 152.458L203.991 162H202.046ZM214.662 162.122C213.608 162.122 212.697 161.932 211.927 161.554C211.157 161.163 210.563 160.622 210.144 159.934C209.725 159.231 209.516 158.407 209.516 157.462C209.516 156.246 209.779 155.166 210.306 154.221C210.833 153.275 211.549 152.532 212.454 151.992C213.372 151.438 214.412 151.161 215.573 151.161C216.546 151.161 217.39 151.351 218.106 151.729C218.822 152.093 219.375 152.62 219.767 153.309C220.172 153.998 220.375 154.828 220.375 155.801C220.375 156.044 220.361 156.294 220.334 156.55C220.307 156.793 220.274 157.023 220.233 157.239H210.934L211.177 155.821H219.301L218.511 156.307C218.633 155.551 218.579 154.916 218.349 154.403C218.119 153.876 217.755 153.478 217.255 153.208C216.769 152.924 216.181 152.782 215.492 152.782C214.682 152.782 213.966 152.978 213.345 153.37C212.737 153.748 212.264 154.281 211.927 154.97C211.589 155.645 211.42 156.442 211.42 157.361C211.42 158.333 211.697 159.089 212.251 159.63C212.818 160.156 213.676 160.42 214.824 160.42C215.499 160.42 216.127 160.312 216.708 160.096C217.289 159.866 217.768 159.562 218.146 159.184L218.977 160.582C218.464 161.082 217.822 161.467 217.052 161.737C216.282 161.993 215.486 162.122 214.662 162.122ZM220.076 161.98L220.542 160.339C220.637 160.352 220.724 160.366 220.805 160.379C220.886 160.393 220.961 160.4 221.028 160.4C221.515 160.4 221.933 160.183 222.284 159.751C222.636 159.319 222.946 158.711 223.216 157.928C223.486 157.145 223.757 156.24 224.027 155.213L224.999 151.263H233.224L231.077 162H229.132L231.057 152.357L231.441 152.964H225.931L226.458 152.357L225.728 155.355C225.458 156.463 225.175 157.442 224.878 158.293C224.594 159.13 224.283 159.839 223.946 160.42C223.608 160.987 223.223 161.419 222.791 161.716C222.372 162.014 221.879 162.162 221.312 162.162C221.109 162.162 220.914 162.142 220.724 162.101C220.522 162.074 220.306 162.034 220.076 161.98ZM241.097 154.889C242.312 154.889 243.224 155.139 243.832 155.639C244.453 156.125 244.764 156.861 244.764 157.847C244.764 158.684 244.554 159.42 244.136 160.055C243.717 160.676 243.123 161.156 242.353 161.494C241.597 161.831 240.698 162 239.659 162H234.857L237.025 151.263H238.949L238.22 154.889H241.097ZM239.659 160.541C240.293 160.541 240.847 160.44 241.32 160.237C241.792 160.021 242.157 159.724 242.414 159.346C242.684 158.968 242.819 158.522 242.819 158.009C242.819 156.888 242.049 156.327 240.509 156.327H237.936L237.106 160.541H239.659ZM246.49 162L248.638 151.263H250.583L249.671 155.821H255.789L256.701 151.263H258.646L256.498 162H254.553L255.465 157.503H249.347L248.435 162H246.49ZM265.386 162.122C264.359 162.122 263.468 161.932 262.711 161.554C261.969 161.163 261.388 160.622 260.969 159.934C260.55 159.231 260.341 158.414 260.341 157.482C260.341 156.267 260.611 155.186 261.151 154.241C261.692 153.282 262.434 152.532 263.38 151.992C264.339 151.438 265.426 151.161 266.642 151.161C267.655 151.161 268.539 151.351 269.296 151.729C270.052 152.107 270.633 152.64 271.038 153.329C271.456 154.018 271.666 154.835 271.666 155.78C271.666 156.996 271.396 158.083 270.855 159.042C270.315 159.988 269.572 160.737 268.627 161.291C267.695 161.845 266.615 162.122 265.386 162.122ZM265.507 160.42C266.317 160.42 267.04 160.224 267.675 159.832C268.31 159.441 268.803 158.907 269.154 158.232C269.518 157.543 269.701 156.76 269.701 155.882C269.701 154.936 269.424 154.2 268.87 153.674C268.316 153.133 267.526 152.863 266.5 152.863C265.703 152.863 264.987 153.059 264.352 153.451C263.718 153.829 263.218 154.362 262.853 155.051C262.488 155.726 262.306 156.51 262.306 157.401C262.306 158.333 262.583 159.069 263.137 159.609C263.691 160.15 264.481 160.42 265.507 160.42ZM278.837 162L280.985 151.263H290.932L288.785 162H286.84L288.703 152.478L289.068 152.964H282.079L282.666 152.478L280.782 162H278.837ZM297.673 162.122C296.647 162.122 295.755 161.932 294.999 161.554C294.256 161.163 293.676 160.622 293.257 159.934C292.838 159.231 292.629 158.414 292.629 157.482C292.629 156.267 292.899 155.186 293.439 154.241C293.979 153.282 294.722 152.532 295.668 151.992C296.627 151.438 297.714 151.161 298.929 151.161C299.942 151.161 300.827 151.351 301.583 151.729C302.34 152.107 302.92 152.64 303.326 153.329C303.744 154.018 303.954 154.835 303.954 155.78C303.954 156.996 303.683 158.083 303.143 159.042C302.603 159.988 301.86 160.737 300.915 161.291C299.983 161.845 298.902 162.122 297.673 162.122ZM297.795 160.42C298.605 160.42 299.328 160.224 299.963 159.832C300.597 159.441 301.09 158.907 301.441 158.232C301.806 157.543 301.988 156.76 301.988 155.882C301.988 154.936 301.712 154.2 301.158 153.674C300.604 153.133 299.814 152.863 298.788 152.863C297.991 152.863 297.275 153.059 296.64 153.451C296.005 153.829 295.506 154.362 295.141 155.051C294.776 155.726 294.594 156.51 294.594 157.401C294.594 158.333 294.871 159.069 295.425 159.609C295.978 160.15 296.768 160.42 297.795 160.42ZM305.684 162L307.832 151.263H309.817L312.836 159.204H312.026L318.367 151.263H320.19L318.063 162H316.3L318.002 153.451L318.306 153.633L312.552 160.784H311.701L308.804 153.491L309.169 153.41L307.467 162H305.684ZM326.954 162.122C325.927 162.122 325.036 161.932 324.28 161.554C323.537 161.163 322.956 160.622 322.537 159.934C322.119 159.231 321.909 158.414 321.909 157.482C321.909 156.267 322.18 155.186 322.72 154.241C323.26 153.282 324.003 152.532 324.948 151.992C325.907 151.438 326.994 151.161 328.21 151.161C329.223 151.161 330.108 151.351 330.864 151.729C331.62 152.107 332.201 152.64 332.606 153.329C333.025 154.018 333.234 154.835 333.234 155.78C333.234 156.996 332.964 158.083 332.424 159.042C331.884 159.988 331.141 160.737 330.195 161.291C329.263 161.845 328.183 162.122 326.954 162.122ZM327.075 160.42C327.886 160.42 328.608 160.224 329.243 159.832C329.878 159.441 330.371 158.907 330.722 158.232C331.087 157.543 331.269 156.76 331.269 155.882C331.269 154.936 330.992 154.2 330.438 153.674C329.885 153.133 329.095 152.863 328.068 152.863C327.271 152.863 326.555 153.059 325.921 153.451C325.286 153.829 324.786 154.362 324.422 155.051C324.057 155.726 323.875 156.51 323.875 157.401C323.875 158.333 324.151 159.069 324.705 159.609C325.259 160.15 326.049 160.42 327.075 160.42ZM334.965 162L337.112 151.263H345.013L344.669 152.964H338.227L338.794 152.519L336.91 162H334.965ZM342.382 161.98L342.848 160.339C342.942 160.352 343.03 160.366 343.111 160.379C343.192 160.393 343.267 160.4 343.334 160.4C343.82 160.4 344.239 160.183 344.59 159.751C344.941 159.319 345.252 158.711 345.522 157.928C345.792 157.145 346.062 156.24 346.332 155.213L347.305 151.263H355.53L353.383 162H351.438L353.362 152.357L353.747 152.964H348.237L348.763 152.357L348.034 155.355C347.764 156.463 347.48 157.442 347.183 158.293C346.9 159.13 346.589 159.839 346.251 160.42C345.914 160.987 345.529 161.419 345.097 161.716C344.678 162.014 344.185 162.162 343.618 162.162C343.415 162.162 343.219 162.142 343.03 162.101C342.828 162.074 342.611 162.034 342.382 161.98ZM357.163 162L359.331 151.263H361.296L359.675 159.285L367.779 151.263H369.622L367.495 162H365.51L367.151 153.977L359.047 162H357.163ZM72.9632 187L75.1107 176.263H77.0961L80.1147 184.204H79.3043L85.6454 176.263H87.4687L85.3415 187H83.579L85.2807 178.451L85.5846 178.633L79.831 185.784H78.9802L76.0831 178.491L76.4478 178.41L74.746 187H72.9632ZM89.1071 187L91.2546 176.263H93.1994L92.2878 180.821H98.406L99.3177 176.263H101.263L99.1151 187H97.1702L98.0819 182.503H91.9636L91.052 187H89.1071ZM108.124 187.122C107.071 187.122 106.159 186.932 105.389 186.554C104.619 186.163 104.025 185.622 103.606 184.934C103.188 184.231 102.978 183.407 102.978 182.462C102.978 181.246 103.242 180.166 103.768 179.221C104.295 178.275 105.011 177.532 105.916 176.992C106.834 176.438 107.874 176.161 109.036 176.161C110.008 176.161 110.852 176.351 111.568 176.729C112.284 177.093 112.838 177.62 113.229 178.309C113.634 178.998 113.837 179.828 113.837 180.801C113.837 181.044 113.824 181.294 113.797 181.55C113.769 181.793 113.736 182.023 113.695 182.239H104.396L104.639 180.821H112.763L111.973 181.307C112.095 180.551 112.041 179.916 111.811 179.403C111.582 178.876 111.217 178.478 110.717 178.208C110.231 177.924 109.643 177.782 108.955 177.782C108.144 177.782 107.428 177.978 106.807 178.37C106.199 178.748 105.727 179.281 105.389 179.97C105.051 180.645 104.883 181.442 104.883 182.361C104.883 183.333 105.159 184.089 105.713 184.63C106.28 185.156 107.138 185.42 108.286 185.42C108.961 185.42 109.589 185.312 110.17 185.096C110.751 184.866 111.23 184.562 111.609 184.184L112.439 185.582C111.926 186.082 111.284 186.467 110.515 186.737C109.745 186.993 108.948 187.122 108.124 187.122ZM126.065 187.122C125.039 187.122 124.148 186.932 123.391 186.554C122.648 186.163 122.068 185.622 121.649 184.934C121.23 184.231 121.021 183.414 121.021 182.482C121.021 181.267 121.291 180.186 121.831 179.241C122.371 178.282 123.114 177.532 124.06 176.992C125.019 176.438 126.106 176.161 127.321 176.161C128.334 176.161 129.219 176.351 129.975 176.729C130.732 177.107 131.312 177.64 131.718 178.329C132.136 179.018 132.346 179.835 132.346 180.78C132.346 181.996 132.076 183.083 131.535 184.042C130.995 184.988 130.252 185.737 129.307 186.291C128.375 186.845 127.294 187.122 126.065 187.122ZM126.187 185.42C126.997 185.42 127.72 185.224 128.355 184.832C128.989 184.441 129.482 183.907 129.834 183.232C130.198 182.543 130.381 181.76 130.381 180.882C130.381 179.936 130.104 179.2 129.55 178.674C128.996 178.133 128.206 177.863 127.18 177.863C126.383 177.863 125.667 178.059 125.032 178.451C124.397 178.829 123.898 179.362 123.533 180.051C123.168 180.726 122.986 181.51 122.986 182.401C122.986 183.333 123.263 184.069 123.817 184.609C124.37 185.15 125.16 185.42 126.187 185.42ZM139.263 187.122C138.223 187.122 137.318 186.932 136.548 186.554C135.792 186.163 135.204 185.622 134.786 184.934C134.367 184.231 134.158 183.414 134.158 182.482C134.158 181.267 134.428 180.186 134.968 179.241C135.508 178.282 136.258 177.532 137.217 176.992C138.176 176.438 139.263 176.161 140.478 176.161C141.518 176.161 142.41 176.357 143.153 176.749C143.895 177.127 144.476 177.708 144.895 178.491L143.254 179.403C142.984 178.876 142.599 178.491 142.099 178.248C141.613 177.992 141.025 177.863 140.337 177.863C139.526 177.863 138.804 178.059 138.169 178.451C137.534 178.829 137.034 179.362 136.67 180.051C136.305 180.726 136.123 181.51 136.123 182.401C136.123 183.333 136.4 184.069 136.953 184.609C137.521 185.15 138.317 185.42 139.344 185.42C139.979 185.42 140.573 185.291 141.127 185.035C141.694 184.778 142.167 184.4 142.545 183.9L143.963 184.913C143.477 185.602 142.815 186.142 141.978 186.534C141.14 186.926 140.235 187.122 139.263 187.122ZM145.907 187L148.075 176.263H152.978C154.153 176.263 155.044 176.472 155.652 176.891C156.26 177.309 156.564 177.917 156.564 178.714C156.564 179.619 156.172 180.355 155.389 180.922C154.619 181.476 153.606 181.753 152.35 181.753L152.613 181.267C153.748 181.267 154.585 181.463 155.125 181.854C155.666 182.232 155.936 182.833 155.936 183.657C155.936 184.697 155.517 185.514 154.68 186.109C153.842 186.703 152.674 187 151.175 187H145.907ZM148.136 185.501H151.236C152.113 185.501 152.802 185.332 153.302 184.994C153.802 184.657 154.052 184.184 154.052 183.576C154.052 183.117 153.896 182.786 153.586 182.584C153.275 182.381 152.769 182.28 152.066 182.28H148.764L148.136 185.501ZM149.048 180.882H151.965C152.735 180.882 153.363 180.72 153.849 180.396C154.335 180.058 154.578 179.612 154.578 179.058C154.578 178.626 154.41 178.302 154.072 178.086C153.748 177.87 153.261 177.762 152.613 177.762H149.655L149.048 180.882ZM163.477 187.122C162.451 187.122 161.559 186.932 160.803 186.554C160.06 186.163 159.479 185.622 159.061 184.934C158.642 184.231 158.433 183.414 158.433 182.482C158.433 181.267 158.703 180.186 159.243 179.241C159.783 178.282 160.526 177.532 161.472 176.992C162.431 176.438 163.518 176.161 164.733 176.161C165.746 176.161 166.631 176.351 167.387 176.729C168.144 177.107 168.724 177.64 169.13 178.329C169.548 179.018 169.758 179.835 169.758 180.78C169.758 181.996 169.487 183.083 168.947 184.042C168.407 184.988 167.664 185.737 166.719 186.291C165.787 186.845 164.706 187.122 163.477 187.122ZM163.599 185.42C164.409 185.42 165.132 185.224 165.767 184.832C166.401 184.441 166.894 183.907 167.245 183.232C167.61 182.543 167.792 181.76 167.792 180.882C167.792 179.936 167.516 179.2 166.962 178.674C166.408 178.133 165.618 177.863 164.591 177.863C163.795 177.863 163.079 178.059 162.444 178.451C161.809 178.829 161.31 179.362 160.945 180.051C160.58 180.726 160.398 181.51 160.398 182.401C160.398 183.333 160.675 184.069 161.229 184.609C161.782 185.15 162.572 185.42 163.599 185.42ZM171.488 187L173.656 176.263H175.621L174.001 184.285L182.104 176.263H183.948L181.821 187H179.835L181.476 178.977L173.373 187H171.488ZM187.742 187L189.606 177.458L189.97 177.964H185.615L185.939 176.263H195.744L195.42 177.964H190.983L191.551 177.458L189.687 187H187.742ZM201.825 179.889C203.041 179.889 203.953 180.139 204.56 180.639C205.182 181.125 205.492 181.861 205.492 182.847C205.492 183.684 205.283 184.42 204.864 185.055C204.445 185.676 203.851 186.156 203.081 186.494C202.325 186.831 201.427 187 200.387 187H195.586L197.753 176.263H199.678L198.949 179.889H201.825ZM200.387 185.541C201.022 185.541 201.575 185.44 202.048 185.237C202.521 185.021 202.886 184.724 203.142 184.346C203.412 183.968 203.547 183.522 203.547 183.009C203.547 181.888 202.777 181.327 201.238 181.327H198.665L197.834 185.541H200.387ZM212.659 187L214.807 176.263H216.792L219.811 184.204H219L225.341 176.263H227.165L225.038 187H223.275L224.977 178.451L225.281 178.633L219.527 185.784H218.676L215.779 178.491L216.144 178.41L214.442 187H212.659ZM233.645 187.122C232.74 187.122 231.93 186.939 231.214 186.575C230.498 186.196 229.931 185.663 229.512 184.974C229.107 184.285 228.904 183.455 228.904 182.482C228.904 181.564 229.053 180.72 229.35 179.95C229.661 179.18 230.086 178.511 230.626 177.944C231.18 177.377 231.829 176.938 232.571 176.627C233.314 176.317 234.118 176.161 234.982 176.161C235.914 176.161 236.704 176.324 237.352 176.648C238.001 176.972 238.5 177.451 238.852 178.086C239.203 178.707 239.378 179.47 239.378 180.375C239.378 181.699 239.149 182.874 238.69 183.9C238.23 184.913 237.569 185.703 236.704 186.271C235.853 186.838 234.834 187.122 233.645 187.122ZM234.071 185.42C234.881 185.42 235.603 185.224 236.238 184.832C236.873 184.441 237.366 183.907 237.717 183.232C238.082 182.543 238.264 181.76 238.264 180.882C238.264 179.936 237.987 179.2 237.434 178.674C236.88 178.133 236.09 177.863 235.063 177.863C234.266 177.863 233.551 178.059 232.916 178.451C232.281 178.829 231.781 179.362 231.417 180.051C231.052 180.726 230.87 181.51 230.87 182.401C230.87 183.333 231.146 184.069 231.7 184.609C232.254 185.15 233.044 185.42 234.071 185.42ZM237.17 187L237.737 184.225L238.386 181.733L238.649 179.18L239.216 176.263H241.161L239.034 187H237.17ZM244.958 187L246.822 177.458L247.186 177.964H242.831L243.155 176.263H252.96L252.636 177.964H248.199L248.767 177.458L246.903 187H244.958ZM257.574 187.122C256.52 187.122 255.609 186.932 254.839 186.554C254.069 186.163 253.475 185.622 253.056 184.934C252.637 184.231 252.428 183.407 252.428 182.462C252.428 181.246 252.691 180.166 253.218 179.221C253.745 178.275 254.46 177.532 255.365 176.992C256.284 176.438 257.324 176.161 258.485 176.161C259.458 176.161 260.302 176.351 261.018 176.729C261.733 177.093 262.287 177.62 262.679 178.309C263.084 178.998 263.287 179.828 263.287 180.801C263.287 181.044 263.273 181.294 263.246 181.55C263.219 181.793 263.185 182.023 263.145 182.239H253.846L254.089 180.821H262.213L261.423 181.307C261.544 180.551 261.49 179.916 261.261 179.403C261.031 178.876 260.667 178.478 260.167 178.208C259.681 177.924 259.093 177.782 258.404 177.782C257.594 177.782 256.878 177.978 256.257 178.37C255.649 178.748 255.176 179.281 254.839 179.97C254.501 180.645 254.332 181.442 254.332 182.361C254.332 183.333 254.609 184.089 255.163 184.63C255.73 185.156 256.588 185.42 257.736 185.42C258.411 185.42 259.039 185.312 259.62 185.096C260.201 184.866 260.68 184.562 261.058 184.184L261.889 185.582C261.376 186.082 260.734 186.467 259.964 186.737C259.194 186.993 258.397 187.122 257.574 187.122ZM271.148 187.122C270.23 187.122 269.44 186.959 268.778 186.635C268.13 186.298 267.63 185.818 267.279 185.197C266.927 184.562 266.752 183.799 266.752 182.908C266.752 181.557 266.982 180.382 267.441 179.383C267.9 178.37 268.555 177.58 269.406 177.012C270.27 176.445 271.297 176.161 272.485 176.161C273.404 176.161 274.214 176.344 274.916 176.708C275.632 177.073 276.193 177.607 276.598 178.309C277.016 178.998 277.226 179.822 277.226 180.78C277.226 181.699 277.07 182.543 276.76 183.313C276.463 184.083 276.037 184.751 275.484 185.319C274.943 185.886 274.302 186.331 273.559 186.656C272.816 186.966 272.012 187.122 271.148 187.122ZM264.179 190.93L267.096 176.263H268.96L268.393 179.038L267.765 181.53L267.481 184.083L266.124 190.93H264.179ZM271.067 185.42C271.877 185.42 272.593 185.224 273.215 184.832C273.849 184.441 274.349 183.907 274.714 183.232C275.078 182.543 275.261 181.76 275.261 180.882C275.261 179.936 274.984 179.2 274.43 178.674C273.876 178.133 273.086 177.863 272.06 177.863C271.263 177.863 270.54 178.059 269.892 178.451C269.257 178.829 268.758 179.362 268.393 180.051C268.042 180.726 267.866 181.51 267.866 182.401C267.866 183.333 268.143 184.069 268.697 184.609C269.251 185.15 270.041 185.42 271.067 185.42ZM278.956 187L281.124 176.263H283.089L281.468 184.285L289.572 176.263H291.415L289.288 187H287.303L288.944 178.977L280.84 187H278.956ZM297.904 187.122C296.999 187.122 296.189 186.939 295.473 186.575C294.757 186.196 294.19 185.663 293.771 184.974C293.366 184.285 293.163 183.455 293.163 182.482C293.163 181.564 293.312 180.72 293.609 179.95C293.92 179.18 294.345 178.511 294.885 177.944C295.439 177.377 296.088 176.938 296.83 176.627C297.573 176.317 298.377 176.161 299.241 176.161C300.173 176.161 300.963 176.324 301.611 176.648C302.26 176.972 302.759 177.451 303.111 178.086C303.462 178.707 303.637 179.47 303.637 180.375C303.637 181.699 303.408 182.874 302.949 183.9C302.489 184.913 301.828 185.703 300.963 186.271C300.112 186.838 299.093 187.122 297.904 187.122ZM298.329 185.42C299.14 185.42 299.862 185.224 300.497 184.832C301.132 184.441 301.625 183.907 301.976 183.232C302.341 182.543 302.523 181.76 302.523 180.882C302.523 179.936 302.246 179.2 301.692 178.674C301.139 178.133 300.349 177.863 299.322 177.863C298.525 177.863 297.81 178.059 297.175 178.451C296.54 178.829 296.04 179.362 295.676 180.051C295.311 180.726 295.129 181.51 295.129 182.401C295.129 183.333 295.405 184.069 295.959 184.609C296.513 185.15 297.303 185.42 298.329 185.42ZM301.429 187L301.996 184.225L302.645 181.733L302.908 179.18L303.475 176.263H305.42L303.293 187H301.429ZM305.287 186.98L305.753 185.339C305.847 185.352 305.935 185.366 306.016 185.379C306.097 185.393 306.171 185.4 306.239 185.4C306.725 185.4 307.144 185.183 307.495 184.751C307.846 184.319 308.157 183.711 308.427 182.928C308.697 182.145 308.967 181.24 309.237 180.213L310.21 176.263H318.435L316.287 187H314.342L316.267 177.357L316.652 177.964H311.141L311.668 177.357L310.939 180.355C310.669 181.463 310.385 182.442 310.088 183.293C309.804 184.13 309.494 184.839 309.156 185.42C308.818 185.987 308.433 186.419 308.001 186.716C307.583 187.014 307.09 187.162 306.522 187.162C306.32 187.162 306.124 187.142 305.935 187.101C305.732 187.074 305.516 187.034 305.287 186.98ZM320.675 187.122C320.311 187.122 320 187 319.743 186.757C319.5 186.5 319.379 186.19 319.379 185.825C319.379 185.379 319.521 185.021 319.804 184.751C320.088 184.481 320.425 184.346 320.817 184.346C321.182 184.346 321.486 184.468 321.729 184.711C321.972 184.954 322.093 185.271 322.093 185.663C322.093 185.947 322.026 186.203 321.891 186.433C321.756 186.649 321.58 186.818 321.364 186.939C321.162 187.061 320.932 187.122 320.675 187.122ZM36.2277 212.162C34.7961 212.162 33.5738 211.912 32.5609 211.412C31.5614 210.913 30.7916 210.217 30.2513 209.326C29.7246 208.421 29.4612 207.374 29.4612 206.186C29.4612 205.011 29.6638 203.91 30.069 202.883C30.4742 201.843 31.055 200.932 31.8113 200.148C32.5811 199.365 33.4928 198.757 34.5463 198.325C35.6132 197.879 36.8153 197.657 38.1524 197.657C39.3274 197.657 40.3673 197.846 41.2722 198.224C42.1771 198.602 42.8727 199.149 43.3589 199.865L41.9003 201.121C41.4816 200.581 40.9481 200.169 40.2998 199.885C39.6515 199.601 38.8884 199.46 38.0105 199.46C36.9976 199.46 36.0859 199.635 35.2756 199.986C34.4787 200.324 33.7967 200.804 33.2294 201.425C32.6622 202.033 32.23 202.735 31.9328 203.532C31.6357 204.329 31.4871 205.173 31.4871 206.064C31.4871 206.915 31.6695 207.665 32.0341 208.313C32.4123 208.948 32.9593 209.447 33.6751 209.812C34.4044 210.177 35.3026 210.359 36.3696 210.359C37.2339 210.359 38.024 210.217 38.7399 209.934C39.4692 209.65 40.1107 209.231 40.6645 208.678L41.8395 210.015C41.1912 210.73 40.3808 211.271 39.4084 211.635C38.436 211.986 37.3758 212.162 36.2277 212.162ZM43.7915 212L45.9389 201.263H55.8861L53.7386 212H51.7938L53.6576 202.478L54.0223 202.964H47.0329L47.6204 202.478L45.7363 212H43.7915ZM62.3438 212.122C61.4389 212.122 60.6285 211.939 59.9127 211.575C59.1969 211.196 58.6297 210.663 58.211 209.974C57.8058 209.285 57.6032 208.455 57.6032 207.482C57.6032 206.564 57.7518 205.72 58.0489 204.95C58.3595 204.18 58.785 203.511 59.3252 202.944C59.879 202.377 60.5273 201.938 61.2701 201.627C62.0129 201.317 62.8165 201.161 63.6809 201.161C64.6128 201.161 65.4029 201.324 66.0512 201.648C66.6995 201.972 67.1992 202.451 67.5504 203.086C67.9015 203.707 68.0771 204.47 68.0771 205.375C68.0771 206.699 67.8475 207.874 67.3883 208.9C66.9291 209.913 66.2673 210.703 65.4029 211.271C64.552 211.838 63.5323 212.122 62.3438 212.122ZM62.7692 210.42C63.5796 210.42 64.3022 210.224 64.937 209.832C65.5717 209.441 66.0647 208.907 66.4159 208.232C66.7805 207.543 66.9629 206.76 66.9629 205.882C66.9629 204.936 66.686 204.2 66.1322 203.674C65.5785 203.133 64.7884 202.863 63.7619 202.863C62.9651 202.863 62.2493 203.059 61.6145 203.451C60.9797 203.829 60.48 204.362 60.1153 205.051C59.7507 205.726 59.5683 206.51 59.5683 207.401C59.5683 208.333 59.8452 209.069 60.3989 209.609C60.9527 210.15 61.7428 210.42 62.7692 210.42ZM65.8689 212L66.4361 209.225L67.0844 206.733L67.3478 204.18L67.915 201.263H69.8599L67.7327 212H65.8689ZM76.6954 212.122C75.6554 212.122 74.7505 211.932 73.9807 211.554C73.2244 211.163 72.6369 210.622 72.2182 209.934C71.7995 209.231 71.5901 208.414 71.5901 207.482C71.5901 206.267 71.8603 205.186 72.4005 204.241C72.9407 203.282 73.6903 202.532 74.6492 201.992C75.6082 201.438 76.6954 201.161 77.9109 201.161C78.9509 201.161 79.8423 201.357 80.5851 201.749C81.328 202.127 81.9087 202.708 82.3274 203.491L80.6864 204.403C80.4163 203.876 80.0314 203.491 79.5317 203.248C79.0454 202.992 78.4579 202.863 77.7691 202.863C76.9588 202.863 76.2362 203.059 75.6014 203.451C74.9666 203.829 74.4669 204.362 74.1023 205.051C73.7376 205.726 73.5553 206.51 73.5553 207.401C73.5553 208.333 73.8321 209.069 74.3859 209.609C74.9531 210.15 75.75 210.42 76.7764 210.42C77.4112 210.42 78.0055 210.291 78.5592 210.035C79.1265 209.778 79.5992 209.4 79.9774 208.9L81.3955 209.913C80.9093 210.602 80.2475 211.142 79.4101 211.534C78.5727 211.926 77.6678 212.122 76.6954 212.122ZM83.34 212L85.5078 201.263H87.4729L85.8522 209.285L93.9558 201.263H95.7993L93.6721 212H91.6867L93.3277 203.977L85.2241 212H83.34ZM102.855 212.162C101.302 212.162 100.087 211.716 99.2087 210.825C98.3443 209.934 97.9121 208.617 97.9121 206.874C97.9121 205.753 98.0809 204.687 98.4186 203.674C98.7697 202.661 99.2627 201.742 99.8975 200.918C100.532 200.081 101.282 199.385 102.146 198.832C103.024 198.278 103.997 197.893 105.064 197.677L110.149 196.644L110.169 198.305L105.509 199.237C104.442 199.453 103.51 199.851 102.713 200.432C101.93 201.013 101.295 201.756 100.809 202.661C100.336 203.552 100.026 204.592 99.8772 205.78L99.3505 205.335C99.9853 204.241 100.775 203.417 101.721 202.863C102.666 202.296 103.726 202.012 104.901 202.012C106.252 202.012 107.312 202.384 108.082 203.127C108.865 203.869 109.257 204.903 109.257 206.226C109.257 207.347 108.98 208.36 108.427 209.265C107.886 210.156 107.13 210.865 106.158 211.392C105.199 211.905 104.098 212.162 102.855 212.162ZM102.997 210.643C103.794 210.643 104.503 210.46 105.124 210.096C105.759 209.731 106.259 209.245 106.623 208.637C106.988 208.016 107.17 207.32 107.17 206.55C107.17 205.645 106.907 204.95 106.38 204.464C105.867 203.977 105.151 203.734 104.233 203.734C103.652 203.734 103.098 203.836 102.572 204.038C102.045 204.241 101.572 204.518 101.154 204.869C100.748 205.22 100.431 205.632 100.201 206.105C99.9718 206.577 99.857 207.084 99.857 207.624C99.857 208.529 100.134 209.258 100.688 209.812C101.255 210.366 102.025 210.643 102.997 210.643ZM116.084 212.122C115.058 212.122 114.166 211.932 113.41 211.554C112.667 211.163 112.086 210.622 111.668 209.934C111.249 209.231 111.04 208.414 111.04 207.482C111.04 206.267 111.31 205.186 111.85 204.241C112.39 203.282 113.133 202.532 114.079 201.992C115.038 201.438 116.125 201.161 117.34 201.161C118.353 201.161 119.238 201.351 119.994 201.729C120.751 202.107 121.331 202.64 121.737 203.329C122.155 204.018 122.365 204.835 122.365 205.78C122.365 206.996 122.094 208.083 121.554 209.042C121.014 209.988 120.271 210.737 119.326 211.291C118.394 211.845 117.313 212.122 116.084 212.122ZM116.206 210.42C117.016 210.42 117.739 210.224 118.374 209.832C119.008 209.441 119.501 208.907 119.852 208.232C120.217 207.543 120.399 206.76 120.399 205.882C120.399 204.936 120.123 204.2 119.569 203.674C119.015 203.133 118.225 202.863 117.199 202.863C116.402 202.863 115.686 203.059 115.051 203.451C114.416 203.829 113.917 204.362 113.552 205.051C113.187 205.726 113.005 206.51 113.005 207.401C113.005 208.333 113.282 209.069 113.836 209.609C114.389 210.15 115.179 210.42 116.206 210.42ZM132.737 212.142C131.103 212.142 129.705 211.716 128.543 210.865L129.293 209.488C129.712 209.812 130.225 210.062 130.833 210.237C131.454 210.4 132.109 210.481 132.798 210.481C133.46 210.481 134.034 210.4 134.52 210.237C135.02 210.062 135.411 209.832 135.695 209.549C135.978 209.265 136.12 208.941 136.12 208.576C136.12 208.131 135.924 207.786 135.533 207.543C135.155 207.3 134.614 207.178 133.912 207.178H131.967L132.19 205.76H133.831C134.641 205.76 135.29 205.618 135.776 205.335C136.276 205.038 136.525 204.653 136.525 204.18C136.525 203.761 136.323 203.43 135.918 203.187C135.526 202.931 134.965 202.802 134.236 202.802C133.696 202.802 133.156 202.877 132.615 203.025C132.089 203.174 131.508 203.383 130.873 203.653L130.407 202.033C131.069 201.722 131.738 201.492 132.413 201.344C133.088 201.195 133.75 201.121 134.398 201.121C135.222 201.121 135.945 201.236 136.566 201.465C137.187 201.681 137.667 201.999 138.004 202.417C138.355 202.823 138.531 203.302 138.531 203.856C138.531 204.342 138.389 204.781 138.106 205.173C137.836 205.564 137.451 205.889 136.951 206.145C136.465 206.402 135.884 206.564 135.209 206.631L135.168 206.267C136.086 206.375 136.796 206.638 137.295 207.057C137.809 207.475 138.065 208.029 138.065 208.718C138.065 209.366 137.836 209.954 137.376 210.481C136.917 210.994 136.282 211.399 135.472 211.696C134.675 211.993 133.763 212.142 132.737 212.142ZM145.18 212.122C144.275 212.122 143.465 211.939 142.749 211.575C142.033 211.196 141.466 210.663 141.047 209.974C140.642 209.285 140.44 208.455 140.44 207.482C140.44 206.564 140.588 205.72 140.885 204.95C141.196 204.18 141.621 203.511 142.162 202.944C142.715 202.377 143.364 201.938 144.106 201.627C144.849 201.317 145.653 201.161 146.517 201.161C147.449 201.161 148.239 201.324 148.888 201.648C149.536 201.972 150.036 202.451 150.387 203.086C150.738 203.707 150.913 204.47 150.913 205.375C150.913 206.699 150.684 207.874 150.225 208.9C149.765 209.913 149.104 210.703 148.239 211.271C147.388 211.838 146.369 212.122 145.18 212.122ZM145.606 210.42C146.416 210.42 147.139 210.224 147.773 209.832C148.408 209.441 148.901 208.907 149.252 208.232C149.617 207.543 149.799 206.76 149.799 205.882C149.799 204.936 149.522 204.2 148.969 203.674C148.415 203.133 147.625 202.863 146.598 202.863C145.801 202.863 145.086 203.059 144.451 203.451C143.816 203.829 143.316 204.362 142.952 205.051C142.587 205.726 142.405 206.51 142.405 207.401C142.405 208.333 142.682 209.069 143.235 209.609C143.789 210.15 144.579 210.42 145.606 210.42ZM148.705 212L149.272 209.225L149.921 206.733L150.184 204.18L150.751 201.263H152.696L150.569 212H148.705ZM159.786 212L161.934 201.263H171.881L169.733 212H167.788L169.652 202.478L170.017 202.964H163.028L163.615 202.478L161.731 212H159.786ZM179.696 212.122C178.777 212.122 177.987 211.959 177.325 211.635C176.677 211.298 176.177 210.818 175.826 210.197C175.475 209.562 175.3 208.799 175.3 207.908C175.3 206.557 175.529 205.382 175.988 204.383C176.448 203.37 177.103 202.58 177.953 202.012C178.818 201.445 179.844 201.161 181.033 201.161C181.951 201.161 182.762 201.344 183.464 201.708C184.18 202.073 184.74 202.607 185.145 203.309C185.564 203.998 185.773 204.822 185.773 205.78C185.773 206.699 185.618 207.543 185.308 208.313C185.01 209.083 184.585 209.751 184.031 210.319C183.491 210.886 182.849 211.331 182.107 211.656C181.364 211.966 180.56 212.122 179.696 212.122ZM172.727 215.93L175.644 201.263H177.508L176.941 204.038L176.313 206.53L176.029 209.083L174.672 215.93H172.727ZM179.615 210.42C180.425 210.42 181.141 210.224 181.762 209.832C182.397 209.441 182.897 208.907 183.261 208.232C183.626 207.543 183.808 206.76 183.808 205.882C183.808 204.936 183.531 204.2 182.978 203.674C182.424 203.133 181.634 202.863 180.607 202.863C179.811 202.863 179.088 203.059 178.44 203.451C177.805 203.829 177.305 204.362 176.941 205.051C176.589 205.726 176.414 206.51 176.414 207.401C176.414 208.333 176.691 209.069 177.244 209.609C177.798 210.15 178.588 210.42 179.615 210.42ZM192.751 212.122C191.697 212.122 190.786 211.932 190.016 211.554C189.246 211.163 188.652 210.622 188.233 209.934C187.814 209.231 187.605 208.407 187.605 207.462C187.605 206.246 187.868 205.166 188.395 204.221C188.922 203.275 189.638 202.532 190.543 201.992C191.461 201.438 192.501 201.161 193.662 201.161C194.635 201.161 195.479 201.351 196.195 201.729C196.911 202.093 197.464 202.62 197.856 203.309C198.261 203.998 198.464 204.828 198.464 205.801C198.464 206.044 198.45 206.294 198.423 206.55C198.396 206.793 198.363 207.023 198.322 207.239H189.023L189.266 205.821H197.39L196.6 206.307C196.722 205.551 196.668 204.916 196.438 204.403C196.208 203.876 195.844 203.478 195.344 203.208C194.858 202.924 194.27 202.782 193.581 202.782C192.771 202.782 192.055 202.978 191.434 203.37C190.826 203.748 190.353 204.281 190.016 204.97C189.678 205.645 189.509 206.442 189.509 207.361C189.509 208.333 189.786 209.089 190.34 209.63C190.907 210.156 191.765 210.42 192.913 210.42C193.588 210.42 194.216 210.312 194.797 210.096C195.378 209.866 195.857 209.562 196.235 209.184L197.066 210.582C196.553 211.082 195.911 211.467 195.141 211.737C194.372 211.993 193.575 212.122 192.751 212.122ZM207.926 212L204.887 206.733L206.508 206.003L210.174 212H207.926ZM200.126 212L202.294 201.263H204.239L202.071 212H200.126ZM202.415 207.462L202.719 205.801H206.264L205.961 207.462H202.415ZM206.568 206.854L204.725 206.611L209.931 201.263H212.099L206.568 206.854ZM218.394 212.122C217.475 212.122 216.685 211.959 216.023 211.635C215.375 211.298 214.875 210.818 214.524 210.197C214.173 209.562 213.997 208.799 213.997 207.908C213.997 206.557 214.227 205.382 214.686 204.383C215.145 203.37 215.8 202.58 216.651 202.012C217.516 201.445 218.542 201.161 219.731 201.161C220.649 201.161 221.459 201.344 222.162 201.708C222.878 202.073 223.438 202.607 223.843 203.309C224.262 203.998 224.471 204.822 224.471 205.78C224.471 206.699 224.316 207.543 224.005 208.313C223.708 209.083 223.283 209.751 222.729 210.319C222.189 210.886 221.547 211.331 220.804 211.656C220.062 211.966 219.258 212.122 218.394 212.122ZM211.425 215.93L214.342 201.263H216.206L215.638 204.038L215.01 206.53L214.727 209.083L213.369 215.93H211.425ZM218.313 210.42C219.123 210.42 219.839 210.224 220.46 209.832C221.095 209.441 221.595 208.907 221.959 208.232C222.324 207.543 222.506 206.76 222.506 205.882C222.506 204.936 222.229 204.2 221.676 203.674C221.122 203.133 220.332 202.863 219.305 202.863C218.508 202.863 217.786 203.059 217.138 203.451C216.503 203.829 216.003 204.362 215.638 205.051C215.287 205.726 215.112 206.51 215.112 207.401C215.112 208.333 215.389 209.069 215.942 209.609C216.496 210.15 217.286 210.42 218.313 210.42ZM231.043 212.122C230.139 212.122 229.328 211.939 228.612 211.575C227.897 211.196 227.329 210.663 226.911 209.974C226.505 209.285 226.303 208.455 226.303 207.482C226.303 206.564 226.451 205.72 226.749 204.95C227.059 204.18 227.485 203.511 228.025 202.944C228.579 202.377 229.227 201.938 229.97 201.627C230.713 201.317 231.516 201.161 232.381 201.161C233.312 201.161 234.103 201.324 234.751 201.648C235.399 201.972 235.899 202.451 236.25 203.086C236.601 203.707 236.777 204.47 236.777 205.375C236.777 206.699 236.547 207.874 236.088 208.9C235.629 209.913 234.967 210.703 234.103 211.271C233.252 211.838 232.232 212.122 231.043 212.122ZM231.469 210.42C232.279 210.42 233.002 210.224 233.637 209.832C234.271 209.441 234.764 208.907 235.116 208.232C235.48 207.543 235.662 206.76 235.662 205.882C235.662 204.936 235.386 204.2 234.832 203.674C234.278 203.133 233.488 202.863 232.462 202.863C231.665 202.863 230.949 203.059 230.314 203.451C229.679 203.829 229.18 204.362 228.815 205.051C228.45 205.726 228.268 206.51 228.268 207.401C228.268 208.333 228.545 209.069 229.099 209.609C229.652 210.15 230.442 210.42 231.469 210.42ZM234.569 212L235.136 209.225L235.784 206.733L236.047 204.18L236.615 201.263H238.56L236.432 212H234.569ZM245.395 212.122C244.355 212.122 243.45 211.932 242.68 211.554C241.924 211.163 241.337 210.622 240.918 209.934C240.499 209.231 240.29 208.414 240.29 207.482C240.29 206.267 240.56 205.186 241.1 204.241C241.64 203.282 242.39 202.532 243.349 201.992C244.308 201.438 245.395 201.161 246.611 201.161C247.651 201.161 248.542 201.357 249.285 201.749C250.028 202.127 250.608 202.708 251.027 203.491L249.386 204.403C249.116 203.876 248.731 203.491 248.231 203.248C247.745 202.992 247.158 202.863 246.469 202.863C245.658 202.863 244.936 203.059 244.301 203.451C243.666 203.829 243.167 204.362 242.802 205.051C242.437 205.726 242.255 206.51 242.255 207.401C242.255 208.333 242.532 209.069 243.086 209.609C243.653 210.15 244.45 210.42 245.476 210.42C246.111 210.42 246.705 210.291 247.259 210.035C247.826 209.778 248.299 209.4 248.677 208.9L250.095 209.913C249.609 210.602 248.947 211.142 248.11 211.534C247.272 211.926 246.367 212.122 245.395 212.122ZM252.04 212L254.187 201.263H256.132L255.22 205.821H261.339L262.25 201.263H264.195L262.048 212H260.103L261.014 207.503H254.896L253.985 212H252.04ZM276.445 212L278.573 201.263H280.517L278.39 212H276.445ZM271.928 204.889C273.143 204.889 274.055 205.139 274.663 205.639C275.284 206.125 275.595 206.861 275.595 207.847C275.595 208.684 275.385 209.42 274.967 210.055C274.548 210.676 273.954 211.156 273.184 211.494C272.427 211.831 271.529 212 270.489 212H265.809L267.957 201.303H269.882L269.172 204.889H271.928ZM270.489 210.541C271.124 210.541 271.678 210.44 272.151 210.237C272.623 210.021 272.988 209.724 273.245 209.346C273.515 208.968 273.65 208.522 273.65 208.009C273.65 206.888 272.88 206.327 271.34 206.327H268.889L268.058 210.541H270.489ZM282.151 212L284.319 201.263H286.284L284.663 209.285L292.767 201.263H294.61L292.483 212H290.498L292.139 203.977L284.035 212H282.151ZM289.769 199.804C288.742 199.804 287.986 199.568 287.5 199.095C287.013 198.609 286.851 197.927 287.013 197.049H288.33C288.236 197.576 288.33 197.994 288.614 198.305C288.897 198.602 289.316 198.751 289.87 198.751C290.424 198.751 290.89 198.602 291.268 198.305C291.659 198.008 291.916 197.589 292.038 197.049H293.375C293.199 197.954 292.801 198.643 292.179 199.115C291.558 199.574 290.754 199.804 289.769 199.804ZM306.823 212.122C305.797 212.122 304.906 211.932 304.149 211.554C303.406 211.163 302.826 210.622 302.407 209.934C301.988 209.231 301.779 208.414 301.779 207.482C301.779 206.267 302.049 205.186 302.589 204.241C303.13 203.282 303.872 202.532 304.818 201.992C305.777 201.438 306.864 201.161 308.08 201.161C309.092 201.161 309.977 201.351 310.733 201.729C311.49 202.107 312.071 202.64 312.476 203.329C312.894 204.018 313.104 204.835 313.104 205.78C313.104 206.996 312.834 208.083 312.293 209.042C311.753 209.988 311.01 210.737 310.065 211.291C309.133 211.845 308.053 212.122 306.823 212.122ZM306.945 210.42C307.755 210.42 308.478 210.224 309.113 209.832C309.748 209.441 310.24 208.907 310.592 208.232C310.956 207.543 311.139 206.76 311.139 205.882C311.139 204.936 310.862 204.2 310.308 203.674C309.754 203.133 308.964 202.863 307.938 202.863C307.141 202.863 306.425 203.059 305.79 203.451C305.155 203.829 304.656 204.362 304.291 205.051C303.926 205.726 303.744 206.51 303.744 207.401C303.744 208.333 304.021 209.069 304.575 209.609C305.128 210.15 305.919 210.42 306.945 210.42ZM314.835 212L316.982 201.263H326.929L324.782 212H322.837L324.701 202.478L325.065 202.964H318.076L318.664 202.478L316.78 212H314.835ZM339.181 212L341.308 201.263H343.253L341.126 212H339.181ZM334.663 204.889C335.879 204.889 336.791 205.139 337.398 205.639C338.02 206.125 338.33 206.861 338.33 207.847C338.33 208.684 338.121 209.42 337.702 210.055C337.283 210.676 336.689 211.156 335.919 211.494C335.163 211.831 334.265 212 333.225 212H328.545L330.693 201.303H332.617L331.908 204.889H334.663ZM333.225 210.541C333.86 210.541 334.413 210.44 334.886 210.237C335.359 210.021 335.724 209.724 335.98 209.346C336.25 208.968 336.385 208.522 336.385 208.009C336.385 206.888 335.615 206.327 334.076 206.327H331.624L330.794 210.541H333.225ZM347.034 212L348.898 202.458L349.263 202.964H344.907L345.231 201.263H355.037L354.712 202.964H350.276L350.843 202.458L348.979 212H347.034ZM355.83 207.523L357.39 197.819H359.699L357.37 207.523H355.83ZM355.891 212.122C355.526 212.122 355.222 212 354.979 211.757C354.749 211.514 354.635 211.23 354.635 210.906C354.635 210.501 354.763 210.17 355.02 209.913C355.29 209.657 355.614 209.528 355.992 209.528C356.357 209.528 356.654 209.643 356.883 209.873C357.127 210.102 357.248 210.386 357.248 210.724C357.248 210.98 357.187 211.217 357.066 211.433C356.944 211.649 356.782 211.818 356.58 211.939C356.377 212.061 356.147 212.122 355.891 212.122ZM361.393 202.499L363.216 198.386L363.398 199.622C363.034 199.622 362.723 199.5 362.466 199.257C362.223 199 362.102 198.683 362.102 198.305C362.102 197.873 362.244 197.522 362.527 197.251C362.824 196.981 363.162 196.846 363.54 196.846C363.905 196.846 364.209 196.968 364.452 197.211C364.695 197.454 364.816 197.765 364.816 198.143C364.816 198.359 364.776 198.562 364.695 198.751C364.627 198.94 364.519 199.176 364.371 199.46L362.669 202.499H361.393ZM365.222 202.499L367.045 198.386L367.227 199.622C366.863 199.622 366.552 199.5 366.295 199.257C366.052 199 365.931 198.683 365.931 198.305C365.931 197.873 366.073 197.522 366.356 197.251C366.653 196.981 366.991 196.846 367.369 196.846C367.734 196.846 368.038 196.968 368.281 197.211C368.524 197.454 368.645 197.765 368.645 198.143C368.645 198.359 368.605 198.562 368.524 198.751C368.456 198.94 368.348 199.176 368.2 199.46L366.498 202.499H365.222Z" fill="#F5F5F5"/>
</svg>
