<svg width="430" height="366" viewBox="0 0 430 366" fill="none" xmlns="http://www.w3.org/2000/svg">
<rect width="430" height="339" fill="#28668E"/>
<path d="M115 29L119.49 42.8197H134.021L122.265 51.3607L126.756 65.1803L115 56.6393L103.244 65.1803L107.735 51.3607L95.9789 42.8197H110.51L115 29Z" fill="#113349"/>
<path d="M165 29L169.49 42.8197H184.021L172.265 51.3607L176.756 65.1803L165 56.6393L153.244 65.1803L157.735 51.3607L145.979 42.8197H160.51L165 29Z" fill="#113349"/>
<path d="M215 29L219.49 42.8197H234.021L222.265 51.3607L226.756 65.1803L215 56.6393L203.244 65.1803L207.735 51.3607L195.979 42.8197H210.51L215 29Z" fill="#113349"/>
<path d="M265 29L269.49 42.8197H284.021L272.265 51.3607L276.756 65.1803L265 56.6393L253.244 65.1803L257.735 51.3607L245.979 42.8197H260.51L265 29Z" fill="#A6A6A6"/>
<path d="M315 29L319.49 42.8197H334.021L322.265 51.3607L326.756 65.1803L315 56.6393L303.244 65.1803L307.735 51.3607L295.979 42.8197H310.51L315 29Z" fill="#A6A6A6"/>
<path d="M101.348 283.8H102.948L100.708 295H99.1077L101.348 283.8ZM92.6757 295H91.0757L93.3157 283.8H94.9157L92.6757 295ZM100.26 290.008H93.5397L93.8117 288.616H100.532L100.26 290.008ZM107.769 295.096C107.054 295.096 106.414 294.952 105.849 294.664C105.283 294.365 104.835 293.944 104.505 293.4C104.185 292.856 104.025 292.2 104.025 291.432C104.025 290.707 104.142 290.04 104.377 289.432C104.622 288.824 104.958 288.296 105.385 287.848C105.822 287.4 106.334 287.053 106.921 286.808C107.507 286.563 108.142 286.44 108.825 286.44C109.561 286.44 110.185 286.568 110.697 286.824C111.209 287.08 111.603 287.459 111.881 287.96C112.158 288.451 112.297 289.053 112.297 289.768C112.297 290.813 112.115 291.741 111.753 292.552C111.39 293.352 110.867 293.976 110.185 294.424C109.513 294.872 108.707 295.096 107.769 295.096ZM108.105 293.752C108.745 293.752 109.315 293.597 109.817 293.288C110.318 292.979 110.707 292.557 110.985 292.024C111.273 291.48 111.417 290.861 111.417 290.168C111.417 289.421 111.198 288.84 110.761 288.424C110.323 287.997 109.699 287.784 108.889 287.784C108.259 287.784 107.694 287.939 107.193 288.248C106.691 288.547 106.297 288.968 106.009 289.512C105.721 290.045 105.577 290.664 105.577 291.368C105.577 292.104 105.795 292.685 106.233 293.112C106.67 293.539 107.294 293.752 108.105 293.752ZM110.553 295L111.001 292.808L111.513 290.84L111.721 288.824L112.169 286.52H113.705L112.025 295H110.553ZM119.103 295.096C118.282 295.096 117.567 294.947 116.959 294.648C116.362 294.339 115.898 293.912 115.567 293.368C115.237 292.813 115.071 292.168 115.071 291.432C115.071 290.472 115.285 289.619 115.711 288.872C116.138 288.115 116.73 287.523 117.487 287.096C118.245 286.659 119.103 286.44 120.063 286.44C120.885 286.44 121.589 286.595 122.175 286.904C122.762 287.203 123.221 287.661 123.551 288.28L122.255 289C122.042 288.584 121.738 288.28 121.343 288.088C120.959 287.885 120.495 287.784 119.951 287.784C119.311 287.784 118.741 287.939 118.239 288.248C117.738 288.547 117.343 288.968 117.055 289.512C116.767 290.045 116.623 290.664 116.623 291.368C116.623 292.104 116.842 292.685 117.279 293.112C117.727 293.539 118.357 293.752 119.167 293.752C119.669 293.752 120.138 293.651 120.575 293.448C121.023 293.245 121.397 292.947 121.695 292.552L122.815 293.352C122.431 293.896 121.909 294.323 121.247 294.632C120.586 294.941 119.871 295.096 119.103 295.096ZM124.351 295L126.063 286.52H127.615L126.335 292.856L132.735 286.52H134.191L132.511 295H130.943L132.239 288.664L125.839 295H124.351ZM139.764 295.128C138.537 295.128 137.577 294.776 136.884 294.072C136.201 293.368 135.86 292.328 135.86 290.952C135.86 290.067 135.993 289.224 136.26 288.424C136.537 287.624 136.926 286.899 137.428 286.248C137.929 285.587 138.521 285.037 139.204 284.6C139.897 284.163 140.665 283.859 141.508 283.688L145.524 282.872L145.54 284.184L141.86 284.92C141.017 285.091 140.281 285.405 139.652 285.864C139.033 286.323 138.532 286.909 138.148 287.624C137.774 288.328 137.529 289.149 137.412 290.088L136.996 289.736C137.497 288.872 138.121 288.221 138.868 287.784C139.614 287.336 140.452 287.112 141.38 287.112C142.446 287.112 143.284 287.405 143.892 287.992C144.51 288.579 144.82 289.395 144.82 290.44C144.82 291.325 144.601 292.125 144.164 292.84C143.737 293.544 143.14 294.104 142.372 294.52C141.614 294.925 140.745 295.128 139.764 295.128ZM139.876 293.928C140.505 293.928 141.065 293.784 141.556 293.496C142.057 293.208 142.452 292.824 142.74 292.344C143.028 291.853 143.172 291.304 143.172 290.696C143.172 289.981 142.964 289.432 142.548 289.048C142.142 288.664 141.577 288.472 140.852 288.472C140.393 288.472 139.956 288.552 139.54 288.712C139.124 288.872 138.75 289.091 138.42 289.368C138.1 289.645 137.849 289.971 137.668 290.344C137.486 290.717 137.396 291.117 137.396 291.544C137.396 292.259 137.614 292.835 138.052 293.272C138.5 293.709 139.108 293.928 139.876 293.928ZM145.865 298.2C145.46 298.2 145.06 298.131 144.665 297.992C144.27 297.864 143.961 297.683 143.737 297.448L144.537 296.312C144.718 296.493 144.932 296.632 145.177 296.728C145.412 296.835 145.678 296.888 145.977 296.888C146.329 296.888 146.644 296.792 146.921 296.6C147.209 296.419 147.502 296.093 147.801 295.624L148.601 294.392L148.777 294.216L153.625 286.52H155.177L149.161 295.928C148.788 296.504 148.436 296.957 148.105 297.288C147.774 297.619 147.428 297.853 147.065 297.992C146.713 298.131 146.313 298.2 145.865 298.2ZM148.313 295.272L146.185 286.52H147.721L149.529 294.072L148.313 295.272ZM153.24 294.984L153.608 293.688C153.682 293.699 153.752 293.709 153.816 293.72C153.88 293.731 153.938 293.736 153.992 293.736C154.376 293.736 154.706 293.565 154.984 293.224C155.261 292.883 155.506 292.403 155.72 291.784C155.933 291.165 156.146 290.451 156.36 289.64L157.128 286.52H163.624L161.928 295H160.392L161.912 287.384L162.216 287.864H157.864L158.28 287.384L157.704 289.752C157.49 290.627 157.266 291.4 157.032 292.072C156.808 292.733 156.562 293.293 156.296 293.752C156.029 294.2 155.725 294.541 155.384 294.776C155.053 295.011 154.664 295.128 154.216 295.128C154.056 295.128 153.901 295.112 153.752 295.08C153.592 295.059 153.421 295.027 153.24 294.984ZM164.913 295L166.625 286.52H168.177L166.897 292.856L173.297 286.52H174.753L173.073 295H171.505L172.801 288.664L166.401 295H164.913ZM176.054 295L177.75 286.52H179.286L178.566 290.12H183.398L184.118 286.52H185.654L183.958 295H182.422L183.142 291.448H178.31L177.59 295H176.054ZM191.482 295L193.722 283.8H195.018L198.378 292.28L197.69 292.264L204.266 283.8H205.642L203.402 295H201.866L203.642 286.168L204.042 286.2L198.202 293.64H197.466L194.442 286.168L194.778 286.216L193.018 295H191.482ZM210.456 295.096C209.742 295.096 209.102 294.952 208.536 294.664C207.971 294.365 207.523 293.944 207.192 293.4C206.872 292.856 206.712 292.2 206.712 291.432C206.712 290.707 206.83 290.04 207.064 289.432C207.31 288.824 207.646 288.296 208.072 287.848C208.51 287.4 209.022 287.053 209.608 286.808C210.195 286.563 210.83 286.44 211.512 286.44C212.248 286.44 212.872 286.568 213.384 286.824C213.896 287.08 214.291 287.459 214.568 287.96C214.846 288.451 214.984 289.053 214.984 289.768C214.984 290.813 214.803 291.741 214.44 292.552C214.078 293.352 213.555 293.976 212.872 294.424C212.2 294.872 211.395 295.096 210.456 295.096ZM210.792 293.752C211.432 293.752 212.003 293.597 212.504 293.288C213.006 292.979 213.395 292.557 213.672 292.024C213.96 291.48 214.104 290.861 214.104 290.168C214.104 289.421 213.886 288.84 213.448 288.424C213.011 287.997 212.387 287.784 211.576 287.784C210.947 287.784 210.382 287.939 209.88 288.248C209.379 288.547 208.984 288.968 208.696 289.512C208.408 290.045 208.264 290.664 208.264 291.368C208.264 292.104 208.483 292.685 208.92 293.112C209.358 293.539 209.982 293.752 210.792 293.752ZM213.24 295L213.688 292.808L214.2 290.84L214.408 288.824L214.856 286.52H216.392L214.712 295H213.24ZM223.855 295L221.455 290.84L222.735 290.264L225.631 295H223.855ZM217.695 295L219.407 286.52H220.943L219.231 295H217.695ZM219.503 291.416L219.743 290.104H222.543L222.303 291.416H219.503ZM222.783 290.936L221.327 290.744L225.439 286.52H227.151L222.783 290.936ZM231.041 295.096C230.219 295.096 229.505 294.947 228.897 294.648C228.299 294.339 227.835 293.912 227.505 293.368C227.174 292.813 227.009 292.168 227.009 291.432C227.009 290.472 227.222 289.619 227.649 288.872C228.075 288.115 228.667 287.523 229.425 287.096C230.182 286.659 231.041 286.44 232.001 286.44C232.822 286.44 233.526 286.595 234.113 286.904C234.699 287.203 235.158 287.661 235.489 288.28L234.193 289C233.979 288.584 233.675 288.28 233.281 288.088C232.897 287.885 232.433 287.784 231.889 287.784C231.249 287.784 230.678 287.939 230.177 288.248C229.675 288.547 229.281 288.968 228.993 289.512C228.705 290.045 228.561 290.664 228.561 291.368C228.561 292.104 228.779 292.685 229.217 293.112C229.665 293.539 230.294 293.752 231.105 293.752C231.606 293.752 232.075 293.651 232.513 293.448C232.961 293.245 233.334 292.947 233.633 292.552L234.753 293.352C234.369 293.896 233.846 294.323 233.185 294.632C232.523 294.941 231.809 295.096 231.041 295.096ZM239.987 295.096C239.273 295.096 238.633 294.952 238.067 294.664C237.502 294.365 237.054 293.944 236.723 293.4C236.403 292.856 236.243 292.2 236.243 291.432C236.243 290.707 236.361 290.04 236.595 289.432C236.841 288.824 237.177 288.296 237.603 287.848C238.041 287.4 238.553 287.053 239.139 286.808C239.726 286.563 240.361 286.44 241.043 286.44C241.779 286.44 242.403 286.568 242.915 286.824C243.427 287.08 243.822 287.459 244.099 287.96C244.377 288.451 244.515 289.053 244.515 289.768C244.515 290.813 244.334 291.741 243.971 292.552C243.609 293.352 243.086 293.976 242.403 294.424C241.731 294.872 240.926 295.096 239.987 295.096ZM240.323 293.752C240.963 293.752 241.534 293.597 242.035 293.288C242.537 292.979 242.926 292.557 243.203 292.024C243.491 291.48 243.635 290.861 243.635 290.168C243.635 289.421 243.417 288.84 242.979 288.424C242.542 287.997 241.918 287.784 241.107 287.784C240.478 287.784 239.913 287.939 239.411 288.248C238.91 288.547 238.515 288.968 238.227 289.512C237.939 290.045 237.795 290.664 237.795 291.368C237.795 292.104 238.014 292.685 238.451 293.112C238.889 293.539 239.513 293.752 240.323 293.752ZM242.771 295L243.219 292.808L243.731 290.84L243.939 288.824L244.387 286.52H245.923L244.243 295H242.771ZM248.922 295L250.394 287.464L250.682 287.864H247.242L247.498 286.52H255.242L254.986 287.864H251.482L251.93 287.464L250.458 295H248.922ZM259.605 291.272L259.861 289.944H264.165L263.893 291.272H259.605ZM270.027 295L272.267 283.8H273.563L276.923 292.28L276.235 292.264L282.811 283.8H284.187L281.947 295H280.411L282.187 286.168L282.587 286.2L276.747 293.64H276.011L272.987 286.168L273.323 286.216L271.563 295H270.027ZM289.069 295.096C288.258 295.096 287.554 294.947 286.957 294.648C286.37 294.339 285.911 293.912 285.581 293.368C285.25 292.813 285.085 292.168 285.085 291.432C285.085 290.472 285.298 289.619 285.725 288.872C286.151 288.115 286.738 287.523 287.485 287.096C288.242 286.659 289.101 286.44 290.061 286.44C290.861 286.44 291.559 286.589 292.157 286.888C292.754 287.187 293.213 287.608 293.533 288.152C293.863 288.696 294.029 289.341 294.029 290.088C294.029 291.048 293.815 291.907 293.389 292.664C292.962 293.411 292.375 294.003 291.629 294.44C290.893 294.877 290.039 295.096 289.069 295.096ZM289.165 293.752C289.805 293.752 290.375 293.597 290.877 293.288C291.378 292.979 291.767 292.557 292.045 292.024C292.333 291.48 292.477 290.861 292.477 290.168C292.477 289.421 292.258 288.84 291.821 288.424C291.383 287.997 290.759 287.784 289.949 287.784C289.319 287.784 288.754 287.939 288.253 288.248C287.751 288.547 287.357 288.968 287.069 289.512C286.781 290.045 286.637 290.664 286.637 291.368C286.637 292.104 286.855 292.685 287.293 293.112C287.73 293.539 288.354 293.752 289.165 293.752ZM296.953 292.856L297.273 290.984L302.921 286.52H305.081L300.345 290.248L299.529 290.856L296.953 292.856ZM295.257 295L297.625 283.128H299.161L296.793 295H295.257ZM301.801 295L299.273 290.872L300.313 289.704L303.577 295H301.801ZM308.584 295.096C307.774 295.096 307.07 294.947 306.472 294.648C305.886 294.339 305.427 293.912 305.096 293.368C304.766 292.813 304.6 292.168 304.6 291.432C304.6 290.472 304.814 289.619 305.24 288.872C305.667 288.115 306.254 287.523 307 287.096C307.758 286.659 308.616 286.44 309.576 286.44C310.376 286.44 311.075 286.589 311.672 286.888C312.27 287.187 312.728 287.608 313.048 288.152C313.379 288.696 313.544 289.341 313.544 290.088C313.544 291.048 313.331 291.907 312.904 292.664C312.478 293.411 311.891 294.003 311.144 294.44C310.408 294.877 309.555 295.096 308.584 295.096ZM308.68 293.752C309.32 293.752 309.891 293.597 310.392 293.288C310.894 292.979 311.283 292.557 311.56 292.024C311.848 291.48 311.992 290.861 311.992 290.168C311.992 289.421 311.774 288.84 311.336 288.424C310.899 287.997 310.275 287.784 309.464 287.784C308.835 287.784 308.27 287.939 307.768 288.248C307.267 288.547 306.872 288.968 306.584 289.512C306.296 290.045 306.152 290.664 306.152 291.368C306.152 292.104 306.371 292.685 306.808 293.112C307.246 293.539 307.87 293.752 308.68 293.752ZM314.772 295L317.14 283.128H318.676L316.308 295H314.772ZM323.209 295.096C322.399 295.096 321.695 294.947 321.097 294.648C320.511 294.339 320.052 293.912 319.721 293.368C319.391 292.813 319.225 292.168 319.225 291.432C319.225 290.472 319.439 289.619 319.865 288.872C320.292 288.115 320.879 287.523 321.625 287.096C322.383 286.659 323.241 286.44 324.201 286.44C325.001 286.44 325.7 286.589 326.297 286.888C326.895 287.187 327.353 287.608 327.673 288.152C328.004 288.696 328.169 289.341 328.169 290.088C328.169 291.048 327.956 291.907 327.529 292.664C327.103 293.411 326.516 294.003 325.769 294.44C325.033 294.877 324.18 295.096 323.209 295.096ZM323.305 293.752C323.945 293.752 324.516 293.597 325.017 293.288C325.519 292.979 325.908 292.557 326.185 292.024C326.473 291.48 326.617 290.861 326.617 290.168C326.617 289.421 326.399 288.84 325.961 288.424C325.524 287.997 324.9 287.784 324.089 287.784C323.46 287.784 322.895 287.939 322.393 288.248C321.892 288.547 321.497 288.968 321.209 289.512C320.921 290.045 320.777 290.664 320.777 291.368C320.777 292.104 320.996 292.685 321.433 293.112C321.871 293.539 322.495 293.752 323.305 293.752ZM332.661 298.2C331.861 298.2 331.131 298.093 330.469 297.88C329.808 297.677 329.248 297.384 328.789 297L329.637 295.816C329.968 296.125 330.405 296.371 330.949 296.552C331.504 296.744 332.112 296.84 332.773 296.84C333.776 296.84 334.544 296.611 335.077 296.152C335.611 295.704 335.968 295.016 336.149 294.088L336.549 292.12L337.029 290.536L337.269 288.84L337.733 286.52H339.189L337.733 293.848C337.424 295.384 336.853 296.493 336.021 297.176C335.189 297.859 334.069 298.2 332.661 298.2ZM333.205 294.648C332.469 294.648 331.813 294.509 331.237 294.232C330.672 293.955 330.229 293.56 329.909 293.048C329.589 292.525 329.429 291.907 329.429 291.192C329.429 290.509 329.547 289.885 329.781 289.32C330.027 288.744 330.363 288.243 330.789 287.816C331.216 287.379 331.723 287.043 332.309 286.808C332.907 286.563 333.557 286.44 334.261 286.44C334.901 286.44 335.483 286.552 336.005 286.776C336.539 287 336.96 287.347 337.269 287.816C337.589 288.275 337.749 288.872 337.749 289.608C337.76 290.547 337.584 291.4 337.221 292.168C336.859 292.925 336.336 293.528 335.653 293.976C334.981 294.424 334.165 294.648 333.205 294.648ZM333.509 293.304C334.16 293.304 334.731 293.16 335.221 292.872C335.723 292.584 336.117 292.189 336.405 291.688C336.693 291.187 336.837 290.616 336.837 289.976C336.837 289.293 336.613 288.76 336.165 288.376C335.728 287.981 335.109 287.784 334.309 287.784C333.659 287.784 333.083 287.928 332.581 288.216C332.091 288.493 331.701 288.883 331.413 289.384C331.125 289.885 330.981 290.456 330.981 291.096C330.981 291.789 331.205 292.333 331.653 292.728C332.101 293.112 332.72 293.304 333.509 293.304Z" fill="#A9A9A9"/>
<path d="M332.795 363.766L349.535 326.008L351.209 337.354C347.861 337.354 345.009 336.238 342.653 334.006C340.421 331.65 339.305 328.736 339.305 325.264C339.305 321.296 340.607 318.072 343.211 315.592C345.939 313.112 349.039 311.872 352.511 311.872C355.859 311.872 358.649 312.988 360.881 315.22C363.113 317.452 364.229 320.304 364.229 323.776C364.229 325.76 363.857 327.62 363.113 329.356C362.493 331.092 361.501 333.262 360.137 335.866L344.513 363.766H332.795ZM367.949 363.766L384.689 326.008L386.363 337.354C383.015 337.354 380.163 336.238 377.807 334.006C375.575 331.65 374.459 328.736 374.459 325.264C374.459 321.296 375.761 318.072 378.365 315.592C381.093 313.112 384.193 311.872 387.665 311.872C391.013 311.872 393.803 312.988 396.035 315.22C398.267 317.452 399.383 320.304 399.383 323.776C399.383 325.76 399.011 327.62 398.267 329.356C397.647 331.092 396.655 333.262 395.291 335.866L379.667 363.766H367.949Z" fill="white"/>
<path d="M51.919 113.676L49.939 118.142L49.719 116.8C50.115 116.8 50.445 116.939 50.709 117.218C50.9876 117.482 51.127 117.812 51.127 118.208C51.127 118.677 50.973 119.066 50.665 119.374C50.357 119.667 49.9976 119.814 49.587 119.814C49.191 119.814 48.8536 119.682 48.575 119.418C48.311 119.139 48.179 118.802 48.179 118.406C48.179 118.171 48.2156 117.951 48.289 117.746C48.377 117.526 48.509 117.269 48.685 116.976L50.533 113.676H51.919ZM56.077 113.676L54.097 118.142L53.877 116.8C54.273 116.8 54.603 116.939 54.867 117.218C55.1456 117.482 55.285 117.812 55.285 118.208C55.285 118.677 55.131 119.066 54.823 119.374C54.515 119.667 54.1556 119.814 53.745 119.814C53.349 119.814 53.0116 119.682 52.733 119.418C52.469 119.139 52.337 118.802 52.337 118.406C52.337 118.171 52.3736 117.951 52.447 117.746C52.535 117.526 52.667 117.269 52.843 116.976L54.691 113.676H56.077ZM63.8873 130.176C62.362 130.176 61.0567 129.905 59.9713 129.362C58.886 128.819 58.0573 128.064 57.4853 127.096C56.928 126.113 56.6493 124.977 56.6493 123.686C56.6493 122.41 56.8693 121.215 57.3093 120.1C57.7493 118.971 58.38 117.981 59.2013 117.13C60.0227 116.279 61.0053 115.619 62.1493 115.15C63.2933 114.666 64.5767 114.424 65.9993 114.424C67.5393 114.424 68.852 114.695 69.9373 115.238C71.0227 115.781 71.844 116.543 72.4013 117.526C72.9733 118.494 73.2593 119.623 73.2593 120.914C73.2593 122.19 73.0393 123.393 72.5993 124.522C72.1593 125.637 71.5287 126.619 70.7073 127.47C69.886 128.321 68.896 128.988 67.7373 129.472C66.5933 129.941 65.31 130.176 63.8873 130.176ZM64.0853 128.218C65.1413 128.218 66.102 128.035 66.9673 127.668C67.8327 127.287 68.566 126.766 69.1673 126.106C69.7687 125.431 70.2307 124.661 70.5533 123.796C70.876 122.931 71.0373 122.014 71.0373 121.046C71.0373 120.122 70.8393 119.315 70.4433 118.626C70.0473 117.922 69.4607 117.372 68.6833 116.976C67.906 116.58 66.9527 116.382 65.8233 116.382C64.7527 116.382 63.7847 116.573 62.9193 116.954C62.0687 117.321 61.3353 117.841 60.7193 118.516C60.118 119.176 59.656 119.939 59.3333 120.804C59.0107 121.669 58.8493 122.586 58.8493 123.554C58.8493 124.478 59.0473 125.292 59.4433 125.996C59.854 126.685 60.4407 127.228 61.2033 127.624C61.9807 128.02 62.9413 128.218 64.0853 128.218ZM76.9278 130L78.9518 119.638L79.3478 120.188H74.6178L74.9698 118.34H85.6178L85.2658 120.188H80.4478L81.0638 119.638L79.0398 130H76.9278ZM82.7575 129.978L83.2635 128.196C83.3661 128.211 83.4615 128.225 83.5495 128.24C83.6375 128.255 83.7181 128.262 83.7915 128.262C84.3195 128.262 84.7741 128.027 85.1555 127.558C85.5368 127.089 85.8741 126.429 86.1675 125.578C86.4608 124.727 86.7541 123.745 87.0475 122.63L88.1035 118.34H97.0355L94.7035 130H92.5915L94.6815 119.528L95.0995 120.188H89.1155L89.6875 119.528L88.8955 122.784C88.6021 123.987 88.2941 125.05 87.9715 125.974C87.6635 126.883 87.3261 127.653 86.9595 128.284C86.5928 128.9 86.1748 129.369 85.7055 129.692C85.2508 130.015 84.7155 130.176 84.0995 130.176C83.8795 130.176 83.6668 130.154 83.4615 130.11C83.2415 130.081 83.0068 130.037 82.7575 129.978ZM98.8087 130L101.163 118.34H103.297L101.537 127.052L110.337 118.34H112.339L110.029 130H107.873L109.655 121.288L100.855 130H98.8087ZM122.487 125.27C121.812 125.549 121.13 125.769 120.441 125.93C119.766 126.091 119.106 126.172 118.461 126.172C117.009 126.172 115.931 125.827 115.227 125.138C114.523 124.449 114.31 123.415 114.589 122.036L115.315 118.34H117.427L116.679 122.08C116.532 122.901 116.657 123.503 117.053 123.884C117.464 124.251 118.087 124.434 118.923 124.434C119.524 124.434 120.14 124.353 120.771 124.192C121.402 124.031 122.04 123.818 122.685 123.554L122.487 125.27ZM121.299 130L123.631 118.34H125.743L123.411 130H121.299ZM127.512 130L129.844 118.34H131.956L130.966 123.29H137.61L138.6 118.34H140.712L138.38 130H136.268L137.258 125.116H130.614L129.624 130H127.512ZM154.015 130L156.325 118.34H158.437L156.127 130H154.015ZM149.109 122.278C150.429 122.278 151.419 122.549 152.079 123.092C152.754 123.62 153.091 124.419 153.091 125.49C153.091 126.399 152.864 127.199 152.409 127.888C151.954 128.563 151.309 129.083 150.473 129.45C149.652 129.817 148.676 130 147.547 130H142.465L144.797 118.384H146.887L146.117 122.278H149.109ZM147.547 128.416C148.236 128.416 148.838 128.306 149.351 128.086C149.864 127.851 150.26 127.529 150.539 127.118C150.832 126.707 150.979 126.223 150.979 125.666C150.979 124.449 150.143 123.84 148.471 123.84H145.809L144.907 128.416H147.547ZM160.211 130L162.565 118.34H164.699L162.939 127.052L171.739 118.34H173.741L171.431 130H169.275L171.057 121.288L162.257 130H160.211ZM168.483 116.756C167.368 116.756 166.547 116.499 166.019 115.986C165.491 115.458 165.315 114.717 165.491 113.764H166.921C166.818 114.336 166.921 114.791 167.229 115.128C167.537 115.451 167.992 115.612 168.593 115.612C169.194 115.612 169.7 115.451 170.111 115.128C170.536 114.805 170.815 114.351 170.947 113.764H172.399C172.208 114.747 171.776 115.495 171.101 116.008C170.426 116.507 169.554 116.756 168.483 116.756ZM181.438 130L183.792 118.34H185.926L184.166 127.052L192.966 118.34H194.968L192.658 130H190.502L192.284 121.288L183.484 130H181.438ZM196.756 130L199.088 118.34H201.2L200.21 123.29H206.854L207.844 118.34H209.956L207.624 130H205.512L206.502 125.116H199.858L198.868 130H196.756ZM217.341 130.132C216.212 130.132 215.229 129.927 214.393 129.516C213.572 129.091 212.934 128.504 212.479 127.756C212.024 126.993 211.797 126.106 211.797 125.094C211.797 123.774 212.09 122.601 212.677 121.574C213.264 120.533 214.078 119.719 215.119 119.132C216.16 118.531 217.341 118.23 218.661 118.23C219.79 118.23 220.758 118.443 221.565 118.868C222.372 119.279 223.002 119.909 223.457 120.76L221.675 121.75C221.382 121.178 220.964 120.76 220.421 120.496C219.893 120.217 219.255 120.078 218.507 120.078C217.627 120.078 216.842 120.291 216.153 120.716C215.464 121.127 214.921 121.706 214.525 122.454C214.129 123.187 213.931 124.038 213.931 125.006C213.931 126.018 214.232 126.817 214.833 127.404C215.449 127.991 216.314 128.284 217.429 128.284C218.118 128.284 218.764 128.145 219.365 127.866C219.981 127.587 220.494 127.177 220.905 126.634L222.445 127.734C221.917 128.482 221.198 129.069 220.289 129.494C219.38 129.919 218.397 130.132 217.341 130.132ZM226.738 130L228.762 119.638L229.158 120.188H224.428L224.78 118.34H235.428L235.076 120.188H230.258L230.874 119.638L228.85 130H226.738ZM241.988 130.132C240.991 130.132 240.133 129.956 239.414 129.604C238.71 129.237 238.167 128.717 237.786 128.042C237.405 127.353 237.214 126.524 237.214 125.556C237.214 124.089 237.463 122.813 237.962 121.728C238.461 120.628 239.172 119.77 240.096 119.154C241.035 118.538 242.149 118.23 243.44 118.23C244.437 118.23 245.317 118.428 246.08 118.824C246.857 119.22 247.466 119.799 247.906 120.562C248.361 121.31 248.588 122.205 248.588 123.246C248.588 124.243 248.419 125.16 248.082 125.996C247.759 126.832 247.297 127.558 246.696 128.174C246.109 128.79 245.413 129.274 244.606 129.626C243.799 129.963 242.927 130.132 241.988 130.132ZM234.42 134.268L237.588 118.34H239.612L238.996 121.354L238.314 124.06L238.006 126.832L236.532 134.268H234.42ZM241.9 128.284C242.78 128.284 243.557 128.071 244.232 127.646C244.921 127.221 245.464 126.641 245.86 125.908C246.256 125.16 246.454 124.309 246.454 123.356C246.454 122.329 246.153 121.53 245.552 120.958C244.951 120.371 244.093 120.078 242.978 120.078C242.113 120.078 241.328 120.291 240.624 120.716C239.935 121.127 239.392 121.706 238.996 122.454C238.615 123.187 238.424 124.038 238.424 125.006C238.424 126.018 238.725 126.817 239.326 127.404C239.927 127.991 240.785 128.284 241.9 128.284ZM250.057 134.4C249.499 134.4 248.949 134.305 248.407 134.114C247.864 133.938 247.439 133.689 247.131 133.366L248.231 131.804C248.48 132.053 248.773 132.244 249.111 132.376C249.433 132.523 249.8 132.596 250.211 132.596C250.695 132.596 251.127 132.464 251.509 132.2C251.905 131.951 252.308 131.503 252.719 130.858L253.819 129.164L254.061 128.922L260.727 118.34H262.861L254.589 131.276C254.075 132.068 253.591 132.691 253.137 133.146C252.682 133.601 252.205 133.923 251.707 134.114C251.223 134.305 250.673 134.4 250.057 134.4ZM253.423 130.374L250.497 118.34H252.609L255.095 128.724L253.423 130.374ZM262.734 130L265.066 118.34H267.222L270.5 126.964H269.62L276.506 118.34H278.486L276.176 130H274.262L276.11 120.716L276.44 120.914L270.192 128.68H269.268L266.122 120.76L266.518 120.672L264.67 130H262.734ZM285.964 130.132C284.82 130.132 283.83 129.927 282.994 129.516C282.158 129.091 281.512 128.504 281.058 127.756C280.603 126.993 280.376 126.099 280.376 125.072C280.376 123.752 280.662 122.579 281.234 121.552C281.806 120.525 282.583 119.719 283.566 119.132C284.563 118.531 285.692 118.23 286.954 118.23C288.01 118.23 288.926 118.435 289.704 118.846C290.481 119.242 291.082 119.814 291.508 120.562C291.948 121.31 292.168 122.212 292.168 123.268C292.168 123.532 292.153 123.803 292.124 124.082C292.094 124.346 292.058 124.595 292.014 124.83H281.916L282.18 123.29H291.002L290.144 123.818C290.276 122.997 290.217 122.307 289.968 121.75C289.718 121.178 289.322 120.745 288.78 120.452C288.252 120.144 287.614 119.99 286.866 119.99C285.986 119.99 285.208 120.203 284.534 120.628C283.874 121.039 283.36 121.618 282.994 122.366C282.627 123.099 282.444 123.965 282.444 124.962C282.444 126.018 282.744 126.839 283.346 127.426C283.962 127.998 284.893 128.284 286.14 128.284C286.873 128.284 287.555 128.167 288.186 127.932C288.816 127.683 289.337 127.353 289.748 126.942L290.65 128.46C290.092 129.003 289.396 129.421 288.56 129.714C287.724 129.993 286.858 130.132 285.964 130.132ZM293.973 130L296.305 118.34H298.417L297.427 123.29H304.071L305.061 118.34H307.173L304.841 130H302.729L303.719 125.116H297.075L296.085 130H293.973ZM311.258 130L313.282 119.638L313.678 120.188H308.948L309.3 118.34H319.948L319.596 120.188H314.778L315.394 119.638L313.37 130H311.258ZM333.846 129.01L335.606 120.188H330.546L329.996 122.52C329.805 123.239 329.614 123.943 329.424 124.632C329.233 125.307 329.013 125.93 328.764 126.502C328.514 127.059 328.228 127.521 327.906 127.888C327.583 128.24 327.194 128.453 326.74 128.526L324.562 128.152C325.016 128.167 325.42 128.013 325.772 127.69C326.124 127.367 326.439 126.927 326.718 126.37C326.996 125.798 327.246 125.153 327.466 124.434C327.7 123.715 327.913 122.975 328.104 122.212L329.028 118.34H338.092L335.958 129.01H333.846ZM323.286 132.706L324.188 128.152H337.916L337.014 132.706H335.034L335.562 130H325.816L325.266 132.706H323.286ZM338.336 129.978L338.842 128.196C338.944 128.211 339.04 128.225 339.128 128.24C339.216 128.255 339.296 128.262 339.37 128.262C339.898 128.262 340.352 128.027 340.734 127.558C341.115 127.089 341.452 126.429 341.746 125.578C342.039 124.727 342.332 123.745 342.626 122.63L343.682 118.34H352.614L350.282 130H348.17L350.26 119.528L350.678 120.188H344.694L345.266 119.528L344.474 122.784C344.18 123.987 343.872 125.05 343.55 125.974C343.242 126.883 342.904 127.653 342.538 128.284C342.171 128.9 341.753 129.369 341.284 129.692C340.829 130.015 340.294 130.176 339.678 130.176C339.458 130.176 339.245 130.154 339.04 130.11C338.82 130.081 338.585 130.037 338.336 129.978ZM361.889 130L362.681 125.864L362.967 126.392H359.293C357.9 126.392 356.829 126.077 356.081 125.446C355.333 124.801 354.959 123.943 354.959 122.872C354.959 121.464 355.487 120.357 356.543 119.55C357.614 118.743 359.073 118.34 360.921 118.34H366.091L363.781 130H361.889ZM353.441 130L357.511 125.534H359.689L355.817 130H353.441ZM362.813 125.292L363.979 119.484L364.199 120.166H360.745C359.601 120.166 358.714 120.401 358.083 120.87C357.452 121.325 357.137 121.985 357.137 122.85C357.137 124.097 357.973 124.72 359.645 124.72H363.231L362.813 125.292ZM48.7823 157L51.1143 145.34H61.9163L59.5843 157H57.4723L59.4963 146.66L59.8923 147.188H52.3023L52.9403 146.66L50.8943 157H48.7823ZM69.237 157.132C68.1223 157.132 67.1543 156.927 66.333 156.516C65.5263 156.091 64.8957 155.504 64.441 154.756C63.9863 153.993 63.759 153.106 63.759 152.094C63.759 150.774 64.0523 149.601 64.639 148.574C65.2257 147.533 66.0323 146.719 67.059 146.132C68.1003 145.531 69.281 145.23 70.601 145.23C71.701 145.23 72.6617 145.435 73.483 145.846C74.3043 146.257 74.935 146.836 75.375 147.584C75.8297 148.332 76.057 149.219 76.057 150.246C76.057 151.566 75.7637 152.747 75.177 153.788C74.5903 154.815 73.7837 155.629 72.757 156.23C71.745 156.831 70.5717 157.132 69.237 157.132ZM69.369 155.284C70.249 155.284 71.0337 155.071 71.723 154.646C72.4123 154.221 72.9477 153.641 73.329 152.908C73.725 152.16 73.923 151.309 73.923 150.356C73.923 149.329 73.6223 148.53 73.021 147.958C72.4197 147.371 71.5617 147.078 70.447 147.078C69.5817 147.078 68.8043 147.291 68.115 147.716C67.4257 148.127 66.883 148.706 66.487 149.454C66.091 150.187 65.893 151.038 65.893 152.006C65.893 153.018 66.1937 153.817 66.795 154.404C67.3963 154.991 68.2543 155.284 69.369 155.284ZM86.0127 156.01L87.7727 147.188H82.7127L82.1627 149.52C81.972 150.239 81.7814 150.943 81.5907 151.632C81.4 152.307 81.18 152.93 80.9307 153.502C80.6814 154.059 80.3954 154.521 80.0727 154.888C79.75 155.24 79.3614 155.453 78.9067 155.526L76.7287 155.152C77.1834 155.167 77.5867 155.013 77.9387 154.69C78.2907 154.367 78.606 153.927 78.8847 153.37C79.1634 152.798 79.4127 152.153 79.6327 151.434C79.8674 150.715 80.08 149.975 80.2707 149.212L81.1947 145.34H90.2587L88.1247 156.01H86.0127ZM75.4527 159.706L76.3547 155.152H90.0827L89.1807 159.706H87.2007L87.7287 157H77.9827L77.4327 159.706H75.4527ZM92.4386 157L94.7706 145.34H103.351L102.977 147.188H95.9806L96.5966 146.704L94.5506 157H92.4386ZM108.231 157.132C107.116 157.132 106.148 156.927 105.327 156.516C104.52 156.091 103.89 155.504 103.435 154.756C102.98 153.993 102.753 153.106 102.753 152.094C102.753 150.774 103.046 149.601 103.633 148.574C104.22 147.533 105.026 146.719 106.053 146.132C107.094 145.531 108.275 145.23 109.595 145.23C110.695 145.23 111.656 145.435 112.477 145.846C113.298 146.257 113.929 146.836 114.369 147.584C114.824 148.332 115.051 149.219 115.051 150.246C115.051 151.566 114.758 152.747 114.171 153.788C113.584 154.815 112.778 155.629 111.751 156.23C110.739 156.831 109.566 157.132 108.231 157.132ZM108.363 155.284C109.243 155.284 110.028 155.071 110.717 154.646C111.406 154.221 111.942 153.641 112.323 152.908C112.719 152.16 112.917 151.309 112.917 150.356C112.917 149.329 112.616 148.53 112.015 147.958C111.414 147.371 110.556 147.078 109.441 147.078C108.576 147.078 107.798 147.291 107.109 147.716C106.42 148.127 105.877 148.706 105.481 149.454C105.085 150.187 104.887 151.038 104.887 152.006C104.887 153.018 105.188 153.817 105.789 154.404C106.39 154.991 107.248 155.284 108.363 155.284ZM118.833 157L120.857 146.638L121.253 147.188H116.523L116.875 145.34H127.523L127.171 147.188H122.353L122.969 146.638L120.945 157H118.833ZM132.401 157.132C131.286 157.132 130.318 156.927 129.497 156.516C128.69 156.091 128.06 155.504 127.605 154.756C127.15 153.993 126.923 153.106 126.923 152.094C126.923 150.774 127.216 149.601 127.803 148.574C128.39 147.533 129.196 146.719 130.223 146.132C131.264 145.531 132.445 145.23 133.765 145.23C134.865 145.23 135.826 145.435 136.647 145.846C137.468 146.257 138.099 146.836 138.539 147.584C138.994 148.332 139.221 149.219 139.221 150.246C139.221 151.566 138.928 152.747 138.341 153.788C137.754 154.815 136.948 155.629 135.921 156.23C134.909 156.831 133.736 157.132 132.401 157.132ZM132.533 155.284C133.413 155.284 134.198 155.071 134.887 154.646C135.576 154.221 136.112 153.641 136.493 152.908C136.889 152.16 137.087 151.309 137.087 150.356C137.087 149.329 136.786 148.53 136.185 147.958C135.584 147.371 134.726 147.078 133.611 147.078C132.746 147.078 131.968 147.291 131.279 147.716C130.59 148.127 130.047 148.706 129.651 149.454C129.255 150.187 129.057 151.038 129.057 152.006C129.057 153.018 129.358 153.817 129.959 154.404C130.56 154.991 131.418 155.284 132.533 155.284ZM141.101 157L143.455 145.34H148.779C150.055 145.34 151.023 145.567 151.683 146.022C152.343 146.477 152.673 147.137 152.673 148.002C152.673 148.985 152.247 149.784 151.397 150.4C150.561 151.001 149.461 151.302 148.097 151.302L148.383 150.774C149.615 150.774 150.524 150.987 151.111 151.412C151.697 151.823 151.991 152.475 151.991 153.37C151.991 154.499 151.536 155.387 150.627 156.032C149.717 156.677 148.449 157 146.821 157H141.101ZM143.521 155.372H146.887C147.84 155.372 148.588 155.189 149.131 154.822C149.673 154.455 149.945 153.942 149.945 153.282C149.945 152.783 149.776 152.424 149.439 152.204C149.101 151.984 148.551 151.874 147.789 151.874H144.203L143.521 155.372ZM144.511 150.356H147.679C148.515 150.356 149.197 150.18 149.725 149.828C150.253 149.461 150.517 148.977 150.517 148.376C150.517 147.907 150.333 147.555 149.967 147.32C149.615 147.085 149.087 146.968 148.383 146.968H145.171L144.511 150.356ZM163.084 157L159.784 151.28L161.544 150.488L165.526 157H163.084ZM154.614 157L156.968 145.34H159.08L156.726 157H154.614ZM157.1 152.072L157.43 150.268H161.28L160.95 152.072H157.1ZM161.61 151.412L159.608 151.148L165.262 145.34H167.616L161.61 151.412ZM167.72 157L170.074 145.34H172.208L170.448 154.052L179.248 145.34H181.25L178.94 157H176.784L178.566 148.288L169.766 157H167.72ZM184.072 152.138L185.766 141.6H188.274L185.744 152.138H184.072ZM184.138 157.132C183.742 157.132 183.412 157 183.148 156.736C182.899 156.472 182.774 156.164 182.774 155.812C182.774 155.372 182.914 155.013 183.192 154.734C183.486 154.455 183.838 154.316 184.248 154.316C184.644 154.316 184.967 154.441 185.216 154.69C185.48 154.939 185.612 155.247 185.612 155.614C185.612 155.893 185.546 156.149 185.414 156.384C185.282 156.619 185.106 156.802 184.886 156.934C184.666 157.066 184.417 157.132 184.138 157.132ZM195.185 157L198.265 141.6H200.465L197.385 157H195.185ZM198.089 150.202L198.441 148.288H203.435L203.083 150.202H198.089ZM205.723 157L201.609 149.388L203.457 148.376L208.077 157H205.723ZM203.479 149.498L201.389 149.212L208.429 141.6H210.915L203.479 149.498ZM215.395 157.132C214.281 157.132 213.313 156.927 212.491 156.516C211.685 156.091 211.054 155.504 210.599 154.756C210.145 153.993 209.917 153.106 209.917 152.094C209.917 150.774 210.211 149.601 210.797 148.574C211.384 147.533 212.191 146.719 213.217 146.132C214.259 145.531 215.439 145.23 216.759 145.23C217.859 145.23 218.82 145.435 219.641 145.846C220.463 146.257 221.093 146.836 221.533 147.584C221.988 148.332 222.215 149.219 222.215 150.246C222.215 151.566 221.922 152.747 221.335 153.788C220.749 154.815 219.942 155.629 218.915 156.23C217.903 156.831 216.73 157.132 215.395 157.132ZM215.527 155.284C216.407 155.284 217.192 155.071 217.881 154.646C218.571 154.221 219.106 153.641 219.487 152.908C219.883 152.16 220.081 151.309 220.081 150.356C220.081 149.329 219.781 148.53 219.179 147.958C218.578 147.371 217.72 147.078 216.605 147.078C215.74 147.078 214.963 147.291 214.273 147.716C213.584 148.127 213.041 148.706 212.645 149.454C212.249 150.187 212.051 151.038 212.051 152.006C212.051 153.018 212.352 153.817 212.953 154.404C213.555 154.991 214.413 155.284 215.527 155.284ZM224.095 157L226.427 145.34H228.583L231.861 153.964H230.981L237.867 145.34H239.847L237.537 157H235.623L237.471 147.716L237.801 147.914L231.553 155.68H230.629L227.483 147.76L227.879 147.672L226.031 157H224.095ZM241.626 157L243.958 145.34H254.76L252.428 157H250.316L252.34 146.66L252.736 147.188H245.146L245.784 146.66L243.738 157H241.626ZM262.213 157.132C261.069 157.132 260.079 156.927 259.243 156.516C258.407 156.091 257.761 155.504 257.307 154.756C256.852 153.993 256.625 153.099 256.625 152.072C256.625 150.752 256.911 149.579 257.483 148.552C258.055 147.525 258.832 146.719 259.815 146.132C260.812 145.531 261.941 145.23 263.203 145.23C264.259 145.23 265.175 145.435 265.953 145.846C266.73 146.242 267.331 146.814 267.757 147.562C268.197 148.31 268.417 149.212 268.417 150.268C268.417 150.532 268.402 150.803 268.373 151.082C268.343 151.346 268.307 151.595 268.263 151.83H258.165L258.429 150.29H267.251L266.393 150.818C266.525 149.997 266.466 149.307 266.217 148.75C265.967 148.178 265.571 147.745 265.029 147.452C264.501 147.144 263.863 146.99 263.115 146.99C262.235 146.99 261.457 147.203 260.783 147.628C260.123 148.039 259.609 148.618 259.243 149.366C258.876 150.099 258.693 150.965 258.693 151.962C258.693 153.018 258.993 153.839 259.595 154.426C260.211 154.998 261.142 155.284 262.389 155.284C263.122 155.284 263.804 155.167 264.435 154.932C265.065 154.683 265.586 154.353 265.997 153.942L266.899 155.46C266.341 156.003 265.645 156.421 264.809 156.714C263.973 156.993 263.107 157.132 262.213 157.132ZM272.06 157L274.084 146.638L274.48 147.188H269.75L270.102 145.34H280.75L280.398 147.188H275.58L276.196 146.638L274.172 157H272.06ZM285.76 157.132C284.616 157.132 283.626 156.927 282.79 156.516C281.954 156.091 281.308 155.504 280.854 154.756C280.399 153.993 280.172 153.099 280.172 152.072C280.172 150.752 280.458 149.579 281.03 148.552C281.602 147.525 282.379 146.719 283.362 146.132C284.359 145.531 285.488 145.23 286.75 145.23C287.806 145.23 288.722 145.435 289.5 145.846C290.277 146.242 290.878 146.814 291.304 147.562C291.744 148.31 291.964 149.212 291.964 150.268C291.964 150.532 291.949 150.803 291.92 151.082C291.89 151.346 291.854 151.595 291.81 151.83H281.712L281.976 150.29H290.798L289.94 150.818C290.072 149.997 290.013 149.307 289.764 148.75C289.514 148.178 289.118 147.745 288.576 147.452C288.048 147.144 287.41 146.99 286.662 146.99C285.782 146.99 285.004 147.203 284.33 147.628C283.67 148.039 283.156 148.618 282.79 149.366C282.423 150.099 282.24 150.965 282.24 151.962C282.24 153.018 282.54 153.839 283.142 154.426C283.758 154.998 284.689 155.284 285.936 155.284C286.669 155.284 287.351 155.167 287.982 154.932C288.612 154.683 289.133 154.353 289.544 153.942L290.446 155.46C289.888 156.003 289.192 156.421 288.356 156.714C287.52 156.993 286.654 157.132 285.76 157.132ZM293.769 157L296.101 145.34H298.213L297.223 150.29H303.867L304.857 145.34H306.969L304.637 157H302.525L303.515 152.116H296.871L295.881 157H293.769ZM311.054 157L313.078 146.638L313.474 147.188H308.744L309.096 145.34H319.744L319.392 147.188H314.574L315.19 146.638L313.166 157H311.054ZM319.571 157L321.903 145.34H324.015L323.025 150.29H329.669L330.659 145.34H332.771L330.439 157H328.327L329.317 152.116H322.673L321.683 157H319.571ZM346.075 157L348.385 145.34H350.497L348.187 157H346.075ZM341.169 149.278C342.489 149.278 343.479 149.549 344.139 150.092C344.813 150.62 345.151 151.419 345.151 152.49C345.151 153.399 344.923 154.199 344.469 154.888C344.014 155.563 343.369 156.083 342.533 156.45C341.711 156.817 340.736 157 339.607 157H334.525L336.857 145.384H338.947L338.177 149.278H341.169ZM339.607 155.416C340.296 155.416 340.897 155.306 341.411 155.086C341.924 154.851 342.32 154.529 342.599 154.118C342.892 153.707 343.039 153.223 343.039 152.666C343.039 151.449 342.203 150.84 340.531 150.84H337.869L336.967 155.416H339.607ZM357.969 157.132C356.825 157.132 355.835 156.927 354.999 156.516C354.163 156.091 353.517 155.504 353.063 154.756C352.608 153.993 352.381 153.099 352.381 152.072C352.381 150.752 352.667 149.579 353.239 148.552C353.811 147.525 354.588 146.719 355.571 146.132C356.568 145.531 357.697 145.23 358.959 145.23C360.015 145.23 360.931 145.435 361.709 145.846C362.486 146.242 363.087 146.814 363.513 147.562C363.953 148.31 364.173 149.212 364.173 150.268C364.173 150.532 364.158 150.803 364.129 151.082C364.099 151.346 364.063 151.595 364.019 151.83H353.921L354.185 150.29H363.007L362.149 150.818C362.281 149.997 362.222 149.307 361.973 148.75C361.723 148.178 361.327 147.745 360.785 147.452C360.257 147.144 359.619 146.99 358.871 146.99C357.991 146.99 357.213 147.203 356.539 147.628C355.879 148.039 355.365 148.618 354.999 149.366C354.632 150.099 354.449 150.965 354.449 151.962C354.449 153.018 354.749 153.839 355.351 154.426C355.967 154.998 356.898 155.284 358.145 155.284C358.878 155.284 359.56 155.167 360.191 154.932C360.821 154.683 361.342 154.353 361.753 153.942L362.655 155.46C362.097 156.003 361.401 156.421 360.565 156.714C359.729 156.993 358.863 157.132 357.969 157.132ZM47.3429 184L49.6749 172.34H51.8309L55.1089 180.964H54.2289L61.1149 172.34H63.0949L60.7849 184H58.8709L60.7189 174.716L61.0489 174.914L54.8009 182.68H53.8769L50.7309 174.76L51.1269 174.672L49.2789 184H47.3429ZM70.1321 184.132C69.1495 184.132 68.2695 183.934 67.4921 183.538C66.7148 183.127 66.0988 182.548 65.6441 181.8C65.2041 181.052 64.9841 180.15 64.9841 179.094C64.9841 178.097 65.1455 177.18 65.4681 176.344C65.8055 175.508 66.2675 174.782 66.8541 174.166C67.4555 173.55 68.1595 173.073 68.9661 172.736C69.7728 172.399 70.6455 172.23 71.5841 172.23C72.5961 172.23 73.4541 172.406 74.1581 172.758C74.8621 173.11 75.4048 173.631 75.7861 174.32C76.1675 174.995 76.3581 175.823 76.3581 176.806C76.3581 178.243 76.1088 179.519 75.6101 180.634C75.1115 181.734 74.3928 182.592 73.4541 183.208C72.5301 183.824 71.4228 184.132 70.1321 184.132ZM70.5941 182.284C71.4741 182.284 72.2588 182.071 72.9481 181.646C73.6375 181.221 74.1728 180.641 74.5541 179.908C74.9501 179.16 75.1481 178.309 75.1481 177.356C75.1481 176.329 74.8475 175.53 74.2461 174.958C73.6448 174.371 72.7868 174.078 71.6721 174.078C70.8068 174.078 70.0295 174.291 69.3401 174.716C68.6508 175.127 68.1081 175.706 67.7121 176.454C67.3161 177.187 67.1181 178.038 67.1181 179.006C67.1181 180.018 67.4188 180.817 68.0201 181.404C68.6215 181.991 69.4795 182.284 70.5941 182.284ZM73.9601 184L74.5761 180.986L75.2801 178.28L75.5661 175.508L76.1821 172.34H78.2941L75.9841 184H73.9601ZM82.4171 184L84.4411 173.638L84.8371 174.188H80.1071L80.4591 172.34H91.1071L90.7551 174.188H85.9371L86.5531 173.638L84.5291 184H82.4171ZM96.1171 184.132C94.9731 184.132 93.9831 183.927 93.1471 183.516C92.3111 183.091 91.6657 182.504 91.2111 181.756C90.7564 180.993 90.5291 180.099 90.5291 179.072C90.5291 177.752 90.8151 176.579 91.3871 175.552C91.9591 174.525 92.7364 173.719 93.7191 173.132C94.7164 172.531 95.8457 172.23 97.1071 172.23C98.1631 172.23 99.0797 172.435 99.8571 172.846C100.634 173.242 101.236 173.814 101.661 174.562C102.101 175.31 102.321 176.212 102.321 177.268C102.321 177.532 102.306 177.803 102.277 178.082C102.248 178.346 102.211 178.595 102.167 178.83H92.0691L92.3331 177.29H101.155L100.297 177.818C100.429 176.997 100.37 176.307 100.121 175.75C99.8717 175.178 99.4757 174.745 98.9331 174.452C98.4051 174.144 97.7671 173.99 97.0191 173.99C96.1391 173.99 95.3617 174.203 94.6871 174.628C94.0271 175.039 93.5137 175.618 93.1471 176.366C92.7804 177.099 92.5971 177.965 92.5971 178.962C92.5971 180.018 92.8977 180.839 93.4991 181.426C94.1151 181.998 95.0464 182.284 96.2931 182.284C97.0264 182.284 97.7084 182.167 98.3391 181.932C98.9697 181.683 99.4904 181.353 99.9011 180.942L100.803 182.46C100.246 183.003 99.5491 183.421 98.7131 183.714C97.8771 183.993 97.0117 184.132 96.1171 184.132ZM110.858 184.132C109.861 184.132 109.003 183.956 108.284 183.604C107.58 183.237 107.037 182.717 106.656 182.042C106.275 181.353 106.084 180.524 106.084 179.556C106.084 178.089 106.333 176.813 106.832 175.728C107.331 174.628 108.042 173.77 108.966 173.154C109.905 172.538 111.019 172.23 112.31 172.23C113.307 172.23 114.187 172.428 114.95 172.824C115.727 173.22 116.336 173.799 116.776 174.562C117.231 175.31 117.458 176.205 117.458 177.246C117.458 178.243 117.289 179.16 116.952 179.996C116.629 180.832 116.167 181.558 115.566 182.174C114.979 182.79 114.283 183.274 113.476 183.626C112.669 183.963 111.797 184.132 110.858 184.132ZM103.29 188.268L106.458 172.34H108.482L107.866 175.354L107.184 178.06L106.876 180.832L105.402 188.268H103.29ZM110.77 182.284C111.65 182.284 112.427 182.071 113.102 181.646C113.791 181.221 114.334 180.641 114.73 179.908C115.126 179.16 115.324 178.309 115.324 177.356C115.324 176.329 115.023 175.53 114.422 174.958C113.821 174.371 112.963 174.078 111.848 174.078C110.983 174.078 110.198 174.291 109.494 174.716C108.805 175.127 108.262 175.706 107.866 176.454C107.485 177.187 107.294 178.038 107.294 179.006C107.294 180.018 107.595 180.817 108.196 181.404C108.797 181.991 109.655 182.284 110.77 182.284ZM119.337 184L121.691 172.34H123.825L122.065 181.052L130.865 172.34H132.867L130.557 184H128.401L130.183 175.288L121.383 184H119.337ZM139.913 184.132C138.931 184.132 138.051 183.934 137.273 183.538C136.496 183.127 135.88 182.548 135.425 181.8C134.985 181.052 134.765 180.15 134.765 179.094C134.765 178.097 134.927 177.18 135.249 176.344C135.587 175.508 136.049 174.782 136.635 174.166C137.237 173.55 137.941 173.073 138.747 172.736C139.554 172.399 140.427 172.23 141.365 172.23C142.377 172.23 143.235 172.406 143.939 172.758C144.643 173.11 145.186 173.631 145.567 174.32C145.949 174.995 146.139 175.823 146.139 176.806C146.139 178.243 145.89 179.519 145.391 180.634C144.893 181.734 144.174 182.592 143.235 183.208C142.311 183.824 141.204 184.132 139.913 184.132ZM140.375 182.284C141.255 182.284 142.04 182.071 142.729 181.646C143.419 181.221 143.954 180.641 144.335 179.908C144.731 179.16 144.929 178.309 144.929 177.356C144.929 176.329 144.629 175.53 144.027 174.958C143.426 174.371 142.568 174.078 141.453 174.078C140.588 174.078 139.811 174.291 139.121 174.716C138.432 175.127 137.889 175.706 137.493 176.454C137.097 177.187 136.899 178.038 136.899 179.006C136.899 180.018 137.2 180.817 137.801 181.404C138.403 181.991 139.261 182.284 140.375 182.284ZM143.741 184L144.357 180.986L145.061 178.28L145.347 175.508L145.963 172.34H148.075L145.765 184H143.741ZM147.93 183.978L148.436 182.196C148.539 182.211 148.634 182.225 148.722 182.24C148.81 182.255 148.891 182.262 148.964 182.262C149.492 182.262 149.947 182.027 150.328 181.558C150.71 181.089 151.047 180.429 151.34 179.578C151.634 178.727 151.927 177.745 152.22 176.63L153.276 172.34H162.208L159.876 184H157.764L159.854 173.528L160.272 174.188H154.288L154.86 173.528L154.068 176.784C153.775 177.987 153.467 179.05 153.144 179.974C152.836 180.883 152.499 181.653 152.132 182.284C151.766 182.9 151.348 183.369 150.878 183.692C150.424 184.015 149.888 184.176 149.272 184.176C149.052 184.176 148.84 184.154 148.634 184.11C148.414 184.081 148.18 184.037 147.93 183.978ZM175.532 184L177.842 172.34H179.954L177.644 184H175.532ZM170.626 176.278C171.946 176.278 172.936 176.549 173.596 177.092C174.27 177.62 174.608 178.419 174.608 179.49C174.608 180.399 174.38 181.199 173.926 181.888C173.471 182.563 172.826 183.083 171.99 183.45C171.168 183.817 170.193 184 169.064 184H163.982L166.314 172.384H168.404L167.634 176.278H170.626ZM169.064 182.416C169.753 182.416 170.354 182.306 170.868 182.086C171.381 181.851 171.777 181.529 172.056 181.118C172.349 180.707 172.496 180.223 172.496 179.666C172.496 178.449 171.66 177.84 169.988 177.84H167.326L166.424 182.416H169.064ZM187.636 184L189.99 172.34H192.124L190.364 181.052L199.164 172.34H201.166L198.856 184H196.7L198.482 175.288L189.682 184H187.636ZM211.194 184L213.218 173.638L213.614 174.188H208.884L209.236 172.34H219.884L219.532 174.188H214.714L215.33 173.638L213.306 184H211.194ZM224.894 184.132C223.75 184.132 222.76 183.927 221.924 183.516C221.088 183.091 220.443 182.504 219.988 181.756C219.534 180.993 219.306 180.099 219.306 179.072C219.306 177.752 219.592 176.579 220.164 175.552C220.736 174.525 221.514 173.719 222.496 173.132C223.494 172.531 224.623 172.23 225.884 172.23C226.94 172.23 227.857 172.435 228.634 172.846C229.412 173.242 230.013 173.814 230.438 174.562C230.878 175.31 231.098 176.212 231.098 177.268C231.098 177.532 231.084 177.803 231.054 178.082C231.025 178.346 230.988 178.595 230.944 178.83H220.846L221.11 177.29H229.932L229.074 177.818C229.206 176.997 229.148 176.307 228.898 175.75C228.649 175.178 228.253 174.745 227.71 174.452C227.182 174.144 226.544 173.99 225.796 173.99C224.916 173.99 224.139 174.203 223.464 174.628C222.804 175.039 222.291 175.618 221.924 176.366C221.558 177.099 221.374 177.965 221.374 178.962C221.374 180.018 221.675 180.839 222.276 181.426C222.892 181.998 223.824 182.284 225.07 182.284C225.804 182.284 226.486 182.167 227.116 181.932C227.747 181.683 228.268 181.353 228.678 180.942L229.58 182.46C229.023 183.003 228.326 183.421 227.49 183.714C226.654 183.993 225.789 184.132 224.894 184.132ZM238.535 184.132C237.406 184.132 236.423 183.927 235.587 183.516C234.766 183.091 234.128 182.504 233.673 181.756C233.219 180.993 232.991 180.106 232.991 179.094C232.991 177.774 233.285 176.601 233.871 175.574C234.458 174.533 235.272 173.719 236.313 173.132C237.355 172.531 238.535 172.23 239.855 172.23C240.985 172.23 241.953 172.443 242.759 172.868C243.566 173.279 244.197 173.909 244.651 174.76L242.869 175.75C242.576 175.178 242.158 174.76 241.615 174.496C241.087 174.217 240.449 174.078 239.701 174.078C238.821 174.078 238.037 174.291 237.347 174.716C236.658 175.127 236.115 175.706 235.719 176.454C235.323 177.187 235.125 178.038 235.125 179.006C235.125 180.018 235.426 180.817 236.027 181.404C236.643 181.991 237.509 182.284 238.623 182.284C239.313 182.284 239.958 182.145 240.559 181.866C241.175 181.587 241.689 181.177 242.099 180.634L243.639 181.734C243.111 182.482 242.393 183.069 241.483 183.494C240.574 183.919 239.591 184.132 238.535 184.132ZM247.933 184L249.957 173.638L250.353 174.188H245.623L245.975 172.34H256.623L256.271 174.188H251.453L252.069 173.638L250.045 184H247.933ZM268 184L270.31 172.34H272.422L270.112 184H268ZM263.094 176.278C264.414 176.278 265.404 176.549 266.064 177.092C266.739 177.62 267.076 178.419 267.076 179.49C267.076 180.399 266.849 181.199 266.394 181.888C265.94 182.563 265.294 183.083 264.458 183.45C263.637 183.817 262.662 184 261.532 184H256.45L258.782 172.384H260.872L260.102 176.278H263.094ZM261.532 182.416C262.222 182.416 262.823 182.306 263.336 182.086C263.85 181.851 264.246 181.529 264.524 181.118C264.818 180.707 264.964 180.223 264.964 179.666C264.964 178.449 264.128 177.84 262.456 177.84H259.794L258.892 182.416H261.532ZM288.267 183.01L290.027 174.188H284.967L284.417 176.52C284.226 177.239 284.035 177.943 283.845 178.632C283.654 179.307 283.434 179.93 283.185 180.502C282.935 181.059 282.649 181.521 282.327 181.888C282.004 182.24 281.615 182.453 281.161 182.526L278.983 182.152C279.437 182.167 279.841 182.013 280.193 181.69C280.545 181.367 280.86 180.927 281.139 180.37C281.417 179.798 281.667 179.153 281.887 178.434C282.121 177.715 282.334 176.975 282.525 176.212L283.449 172.34H292.513L290.379 183.01H288.267ZM277.707 186.706L278.609 182.152H292.337L291.435 186.706H289.455L289.983 184H280.237L279.687 186.706H277.707ZM300.391 184.132C299.247 184.132 298.257 183.927 297.421 183.516C296.585 183.091 295.939 182.504 295.485 181.756C295.03 180.993 294.803 180.099 294.803 179.072C294.803 177.752 295.089 176.579 295.661 175.552C296.233 174.525 297.01 173.719 297.993 173.132C298.99 172.531 300.119 172.23 301.381 172.23C302.437 172.23 303.353 172.435 304.131 172.846C304.908 173.242 305.509 173.814 305.934 174.562C306.375 175.31 306.595 176.212 306.595 177.268C306.595 177.532 306.58 177.803 306.551 178.082C306.521 178.346 306.485 178.595 306.441 178.83H296.343L296.607 177.29H305.428L304.571 177.818C304.703 176.997 304.644 176.307 304.395 175.75C304.145 175.178 303.749 174.745 303.207 174.452C302.679 174.144 302.041 173.99 301.293 173.99C300.413 173.99 299.635 174.203 298.961 174.628C298.301 175.039 297.787 175.618 297.421 176.366C297.054 177.099 296.871 177.965 296.871 178.962C296.871 180.018 297.171 180.839 297.773 181.426C298.389 181.998 299.32 182.284 300.567 182.284C301.3 182.284 301.982 182.167 302.613 181.932C303.243 181.683 303.764 181.353 304.175 180.942L305.077 182.46C304.519 183.003 303.823 183.421 302.987 183.714C302.151 183.993 301.285 184.132 300.391 184.132ZM306.27 183.978L306.776 182.196C306.879 182.211 306.974 182.225 307.062 182.24C307.15 182.255 307.231 182.262 307.304 182.262C307.832 182.262 308.287 182.027 308.668 181.558C309.05 181.089 309.387 180.429 309.68 179.578C309.974 178.727 310.267 177.745 310.56 176.63L311.616 172.34H320.548L318.216 184H316.104L318.194 173.528L318.612 174.188H312.628L313.2 173.528L312.408 176.784C312.115 177.987 311.807 179.05 311.484 179.974C311.176 180.883 310.839 181.653 310.472 182.284C310.106 182.9 309.688 183.369 309.218 183.692C308.764 184.015 308.228 184.176 307.612 184.176C307.392 184.176 307.18 184.154 306.974 184.11C306.754 184.081 306.52 184.037 306.27 183.978ZM327.579 184.132C326.597 184.132 325.717 183.934 324.939 183.538C324.162 183.127 323.546 182.548 323.091 181.8C322.651 181.052 322.431 180.15 322.431 179.094C322.431 178.097 322.593 177.18 322.915 176.344C323.253 175.508 323.715 174.782 324.301 174.166C324.903 173.55 325.607 173.073 326.413 172.736C327.22 172.399 328.093 172.23 329.031 172.23C330.043 172.23 330.901 172.406 331.605 172.758C332.309 173.11 332.852 173.631 333.233 174.32C333.615 174.995 333.805 175.823 333.805 176.806C333.805 178.243 333.556 179.519 333.057 180.634C332.559 181.734 331.84 182.592 330.901 183.208C329.977 183.824 328.87 184.132 327.579 184.132ZM328.041 182.284C328.921 182.284 329.706 182.071 330.395 181.646C331.085 181.221 331.62 180.641 332.001 179.908C332.397 179.16 332.595 178.309 332.595 177.356C332.595 176.329 332.295 175.53 331.693 174.958C331.092 174.371 330.234 174.078 329.119 174.078C328.254 174.078 327.477 174.291 326.787 174.716C326.098 175.127 325.555 175.706 325.159 176.454C324.763 177.187 324.565 178.038 324.565 179.006C324.565 180.018 324.866 180.817 325.467 181.404C326.069 181.991 326.927 182.284 328.041 182.284ZM331.407 184L332.023 180.986L332.727 178.28L333.013 175.508L333.629 172.34H335.741L333.431 184H331.407ZM337.554 184L339.864 172.34H341.976L341.03 177.114H344.528L344.154 179.072H340.656L339.666 184H337.554ZM348.378 184.132C347.293 184.132 346.347 183.927 345.54 183.516C344.748 183.091 344.125 182.504 343.67 181.756C343.23 180.993 343.01 180.113 343.01 179.116C343.01 177.796 343.296 176.623 343.868 175.596C344.455 174.555 345.254 173.733 346.266 173.132C347.293 172.531 348.459 172.23 349.764 172.23C350.85 172.23 351.788 172.435 352.58 172.846C353.387 173.257 354.01 173.836 354.45 174.584C354.905 175.332 355.132 176.212 355.132 177.224C355.132 178.544 354.839 179.725 354.252 180.766C353.68 181.807 352.888 182.629 351.876 183.23C350.864 183.831 349.698 184.132 348.378 184.132ZM348.532 182.284C349.398 182.284 350.16 182.071 350.82 181.646C351.495 181.221 352.023 180.641 352.404 179.908C352.8 179.16 352.998 178.302 352.998 177.334C352.998 176.322 352.705 175.53 352.118 174.958C351.532 174.371 350.696 174.078 349.61 174.078C348.76 174.078 347.997 174.291 347.322 174.716C346.648 175.127 346.112 175.706 345.716 176.454C345.335 177.187 345.144 178.045 345.144 179.028C345.144 180.04 345.438 180.839 346.024 181.426C346.611 181.998 347.447 182.284 348.532 182.284ZM358.9 184L360.924 173.638L361.32 174.188H356.59L356.942 172.34H367.59L367.238 174.188H362.42L363.036 173.638L361.012 184H358.9ZM91.0774 211.132C89.9481 211.132 88.9654 210.927 88.1294 210.516C87.3081 210.091 86.6701 209.504 86.2154 208.756C85.7608 207.993 85.5334 207.106 85.5334 206.094C85.5334 204.774 85.8268 203.601 86.4134 202.574C87.0001 201.533 87.8141 200.719 88.8554 200.132C89.8968 199.531 91.0774 199.23 92.3974 199.23C93.5268 199.23 94.4948 199.443 95.3014 199.868C96.1081 200.279 96.7388 200.909 97.1934 201.76L95.4114 202.75C95.1181 202.178 94.7001 201.76 94.1574 201.496C93.6294 201.217 92.9914 201.078 92.2434 201.078C91.3634 201.078 90.5788 201.291 89.8894 201.716C89.2001 202.127 88.6574 202.706 88.2614 203.454C87.8654 204.187 87.6674 205.038 87.6674 206.006C87.6674 207.018 87.9681 207.817 88.5694 208.404C89.1854 208.991 90.0508 209.284 91.1654 209.284C91.8548 209.284 92.5001 209.145 93.1014 208.866C93.7174 208.587 94.2308 208.177 94.6414 207.634L96.1814 208.734C95.6534 209.482 94.9348 210.069 94.0254 210.494C93.1161 210.919 92.1334 211.132 91.0774 211.132ZM103.379 211.132C102.397 211.132 101.517 210.934 100.739 210.538C99.9619 210.127 99.3459 209.548 98.8912 208.8C98.4512 208.052 98.2312 207.15 98.2312 206.094C98.2312 205.097 98.3925 204.18 98.7152 203.344C99.0525 202.508 99.5145 201.782 100.101 201.166C100.703 200.55 101.407 200.073 102.213 199.736C103.02 199.399 103.893 199.23 104.831 199.23C105.843 199.23 106.701 199.406 107.405 199.758C108.109 200.11 108.652 200.631 109.033 201.32C109.415 201.995 109.605 202.823 109.605 203.806C109.605 205.243 109.356 206.519 108.857 207.634C108.359 208.734 107.64 209.592 106.701 210.208C105.777 210.824 104.67 211.132 103.379 211.132ZM103.841 209.284C104.721 209.284 105.506 209.071 106.195 208.646C106.885 208.221 107.42 207.641 107.801 206.908C108.197 206.16 108.395 205.309 108.395 204.356C108.395 203.329 108.095 202.53 107.493 201.958C106.892 201.371 106.034 201.078 104.919 201.078C104.054 201.078 103.277 201.291 102.587 201.716C101.898 202.127 101.355 202.706 100.959 203.454C100.563 204.187 100.365 205.038 100.365 206.006C100.365 207.018 100.666 207.817 101.267 208.404C101.869 208.991 102.727 209.284 103.841 209.284ZM107.207 211L107.823 207.986L108.527 205.28L108.813 202.508L109.429 199.34H111.541L109.231 211H107.207ZM113.332 211L115.686 199.34H117.82L116.06 208.052L124.86 199.34H126.862L124.552 211H122.396L124.178 202.288L115.378 211H113.332ZM121.604 197.756C120.489 197.756 119.668 197.499 119.14 196.986C118.612 196.458 118.436 195.717 118.612 194.764H120.042C119.939 195.336 120.042 195.791 120.35 196.128C120.658 196.451 121.113 196.612 121.714 196.612C122.315 196.612 122.821 196.451 123.232 196.128C123.657 195.805 123.936 195.351 124.068 194.764H125.52C125.329 195.747 124.897 196.495 124.222 197.008C123.547 197.507 122.675 197.756 121.604 197.756ZM130.983 211L133.007 200.638L133.403 201.188H128.673L129.025 199.34H139.673L139.321 201.188H134.503L135.119 200.638L133.095 211H130.983ZM145.408 211L147.762 199.34H149.896L148.136 208.052L156.936 199.34H158.938L156.628 211H154.472L156.254 202.288L147.454 211H145.408ZM168.889 210.01L170.649 201.188H165.589L165.039 203.52C164.848 204.239 164.657 204.943 164.467 205.632C164.276 206.307 164.056 206.93 163.807 207.502C163.557 208.059 163.271 208.521 162.949 208.888C162.626 209.24 162.237 209.453 161.783 209.526L159.605 209.152C160.059 209.167 160.463 209.013 160.815 208.69C161.167 208.367 161.482 207.927 161.761 207.37C162.039 206.798 162.289 206.153 162.509 205.434C162.743 204.715 162.956 203.975 163.147 203.212L164.071 199.34H173.135L171.001 210.01H168.889ZM158.329 213.706L159.231 209.152H172.959L172.057 213.706H170.077L170.605 211H160.859L160.309 213.706H158.329ZM181.013 211.132C179.869 211.132 178.879 210.927 178.043 210.516C177.207 210.091 176.561 209.504 176.107 208.756C175.652 207.993 175.425 207.099 175.425 206.072C175.425 204.752 175.711 203.579 176.283 202.552C176.855 201.525 177.632 200.719 178.615 200.132C179.612 199.531 180.741 199.23 182.003 199.23C183.059 199.23 183.975 199.435 184.753 199.846C185.53 200.242 186.131 200.814 186.557 201.562C186.997 202.31 187.217 203.212 187.217 204.268C187.217 204.532 187.202 204.803 187.173 205.082C187.143 205.346 187.107 205.595 187.063 205.83H176.965L177.229 204.29H186.051L185.193 204.818C185.325 203.997 185.266 203.307 185.017 202.75C184.767 202.178 184.371 201.745 183.829 201.452C183.301 201.144 182.663 200.99 181.915 200.99C181.035 200.99 180.257 201.203 179.583 201.628C178.923 202.039 178.409 202.618 178.043 203.366C177.676 204.099 177.493 204.965 177.493 205.962C177.493 207.018 177.793 207.839 178.395 208.426C179.011 208.998 179.942 209.284 181.189 209.284C181.922 209.284 182.604 209.167 183.235 208.932C183.865 208.683 184.386 208.353 184.797 207.942L185.699 209.46C185.141 210.003 184.445 210.421 183.609 210.714C182.773 210.993 181.907 211.132 181.013 211.132ZM194.28 211.132C193.297 211.132 192.417 210.934 191.64 210.538C190.862 210.127 190.246 209.548 189.792 208.8C189.352 208.052 189.132 207.15 189.132 206.094C189.132 205.097 189.293 204.18 189.616 203.344C189.953 202.508 190.415 201.782 191.002 201.166C191.603 200.55 192.307 200.073 193.114 199.736C193.92 199.399 194.793 199.23 195.732 199.23C196.744 199.23 197.602 199.406 198.306 199.758C199.01 200.11 199.552 200.631 199.934 201.32C200.315 201.995 200.506 202.823 200.506 203.806C200.506 205.243 200.256 206.519 199.758 207.634C199.259 208.734 198.54 209.592 197.602 210.208C196.678 210.824 195.57 211.132 194.28 211.132ZM194.742 209.284C195.622 209.284 196.406 209.071 197.096 208.646C197.785 208.221 198.32 207.641 198.702 206.908C199.098 206.16 199.296 205.309 199.296 204.356C199.296 203.329 198.995 202.53 198.394 201.958C197.792 201.371 196.934 201.078 195.82 201.078C194.954 201.078 194.177 201.291 193.488 201.716C192.798 202.127 192.256 202.706 191.86 203.454C191.464 204.187 191.266 205.038 191.266 206.006C191.266 207.018 191.566 207.817 192.168 208.404C192.769 208.991 193.627 209.284 194.742 209.284ZM198.108 211L198.724 207.986L199.428 205.28L199.714 202.508L200.33 199.34H202.442L200.132 211H198.108ZM202.297 210.978L202.803 209.196C202.905 209.211 203.001 209.225 203.089 209.24C203.177 209.255 203.257 209.262 203.331 209.262C203.859 209.262 204.313 209.027 204.695 208.558C205.076 208.089 205.413 207.429 205.707 206.578C206 205.727 206.293 204.745 206.587 203.63L207.643 199.34H216.575L214.243 211H212.131L214.221 200.528L214.639 201.188H208.655L209.227 200.528L208.435 203.784C208.141 204.987 207.833 206.05 207.511 206.974C207.203 207.883 206.865 208.653 206.499 209.284C206.132 209.9 205.714 210.369 205.245 210.692C204.79 211.015 204.255 211.176 203.639 211.176C203.419 211.176 203.206 211.154 203.001 211.11C202.781 211.081 202.546 211.037 202.297 210.978ZM225.124 203.278C226.444 203.278 227.434 203.549 228.094 204.092C228.768 204.62 229.106 205.419 229.106 206.49C229.106 207.399 228.878 208.199 228.424 208.888C227.969 209.563 227.324 210.083 226.488 210.45C225.666 210.817 224.691 211 223.562 211H218.348L220.702 199.34H222.792L222 203.278H225.124ZM223.562 209.416C224.251 209.416 224.852 209.306 225.366 209.086C225.879 208.851 226.275 208.529 226.554 208.118C226.847 207.707 226.994 207.223 226.994 206.666C226.994 205.449 226.158 204.84 224.486 204.84H221.692L220.79 209.416H223.562ZM230.981 211L233.313 199.34H235.425L234.435 204.29H241.079L242.069 199.34H244.181L241.849 211H239.737L240.727 206.116H234.083L233.093 211H230.981ZM257.484 211L259.794 199.34H261.906L259.596 211H257.484ZM252.578 203.278C253.898 203.278 254.888 203.549 255.548 204.092C256.222 204.62 256.56 205.419 256.56 206.49C256.56 207.399 256.332 208.199 255.878 208.888C255.423 209.563 254.778 210.083 253.942 210.45C253.12 210.817 252.145 211 251.016 211H245.934L248.266 199.384H250.356L249.586 203.278H252.578ZM251.016 209.416C251.705 209.416 252.306 209.306 252.82 209.086C253.333 208.851 253.729 208.529 254.008 208.118C254.301 207.707 254.448 207.223 254.448 206.666C254.448 205.449 253.612 204.84 251.94 204.84H249.278L248.376 209.416H251.016ZM263.68 211L266.012 199.34H268.168L271.446 207.964H270.566L277.452 199.34H279.432L277.122 211H275.208L277.056 201.716L277.386 201.914L271.138 209.68H270.214L267.068 201.76L267.464 201.672L265.616 211H263.68ZM295.281 210.01L297.041 201.188H291.981L291.431 203.52C291.241 204.239 291.05 204.943 290.859 205.632C290.669 206.307 290.449 206.93 290.199 207.502C289.95 208.059 289.664 208.521 289.341 208.888C289.019 209.24 288.63 209.453 288.175 209.526L285.997 209.152C286.452 209.167 286.855 209.013 287.207 208.69C287.559 208.367 287.875 207.927 288.153 207.37C288.432 206.798 288.681 206.153 288.901 205.434C289.136 204.715 289.349 203.975 289.539 203.212L290.463 199.34H299.527L297.393 210.01H295.281ZM284.721 213.706L285.623 209.152H299.351L298.449 213.706H296.469L296.997 211H287.251L286.701 213.706H284.721ZM299.771 210.978L300.277 209.196C300.38 209.211 300.475 209.225 300.563 209.24C300.651 209.255 300.732 209.262 300.805 209.262C301.333 209.262 301.788 209.027 302.169 208.558C302.55 208.089 302.888 207.429 303.181 206.578C303.474 205.727 303.768 204.745 304.061 203.63L305.117 199.34H314.049L311.717 211H309.605L311.695 200.528L312.113 201.188H306.129L306.701 200.528L305.909 203.784C305.616 204.987 305.308 206.05 304.985 206.974C304.677 207.883 304.34 208.653 303.973 209.284C303.606 209.9 303.188 210.369 302.719 210.692C302.264 211.015 301.729 211.176 301.113 211.176C300.893 211.176 300.68 211.154 300.475 211.11C300.255 211.081 300.02 211.037 299.771 210.978ZM323.324 211L324.116 206.864L324.402 207.392H320.728C319.335 207.392 318.264 207.077 317.516 206.446C316.768 205.801 316.394 204.943 316.394 203.872C316.394 202.464 316.922 201.357 317.978 200.55C319.049 199.743 320.508 199.34 322.356 199.34H327.526L325.216 211H323.324ZM314.876 211L318.946 206.534H321.124L317.252 211H314.876ZM324.248 206.292L325.414 200.484L325.634 201.166H322.18C321.036 201.166 320.149 201.401 319.518 201.87C318.888 202.325 318.572 202.985 318.572 203.85C318.572 205.097 319.408 205.72 321.08 205.72H324.666L324.248 206.292ZM145.191 242.4C144.634 242.4 144.084 242.305 143.541 242.114C142.999 241.938 142.573 241.689 142.265 241.366L143.365 239.804C143.615 240.053 143.908 240.244 144.245 240.376C144.568 240.523 144.935 240.596 145.345 240.596C145.829 240.596 146.262 240.464 146.643 240.2C147.039 239.951 147.443 239.503 147.853 238.858L148.953 237.164L149.195 236.922L155.861 226.34H157.995L149.723 239.276C149.21 240.068 148.726 240.691 148.271 241.146C147.817 241.601 147.34 241.923 146.841 242.114C146.357 242.305 145.807 242.4 145.191 242.4ZM148.557 238.374L145.631 226.34H147.743L150.229 236.724L148.557 238.374ZM166.229 233.27C165.555 233.549 164.873 233.769 164.183 233.93C163.509 234.091 162.849 234.172 162.203 234.172C160.751 234.172 159.673 233.827 158.969 233.138C158.265 232.449 158.053 231.415 158.331 230.036L159.057 226.34H161.169L160.421 230.08C160.275 230.901 160.399 231.503 160.795 231.884C161.206 232.251 161.829 232.434 162.665 232.434C163.267 232.434 163.883 232.353 164.513 232.192C165.144 232.031 165.782 231.818 166.427 231.554L166.229 233.27ZM165.041 238L167.373 226.34H169.485L167.153 238H165.041ZM176.952 238.132C175.808 238.132 174.818 237.927 173.982 237.516C173.146 237.091 172.501 236.504 172.046 235.756C171.591 234.993 171.364 234.099 171.364 233.072C171.364 231.752 171.65 230.579 172.222 229.552C172.794 228.525 173.571 227.719 174.554 227.132C175.551 226.531 176.681 226.23 177.942 226.23C178.998 226.23 179.915 226.435 180.692 226.846C181.469 227.242 182.071 227.814 182.496 228.562C182.936 229.31 183.156 230.212 183.156 231.268C183.156 231.532 183.141 231.803 183.112 232.082C183.083 232.346 183.046 232.595 183.002 232.83H172.904L173.168 231.29H181.99L181.132 231.818C181.264 230.997 181.205 230.307 180.956 229.75C180.707 229.178 180.311 228.745 179.768 228.452C179.24 228.144 178.602 227.99 177.854 227.99C176.974 227.99 176.197 228.203 175.522 228.628C174.862 229.039 174.349 229.618 173.982 230.366C173.615 231.099 173.432 231.965 173.432 232.962C173.432 234.018 173.733 234.839 174.334 235.426C174.95 235.998 175.881 236.284 177.128 236.284C177.861 236.284 178.543 236.167 179.174 235.932C179.805 235.683 180.325 235.353 180.736 234.942L181.638 236.46C181.081 237.003 180.384 237.421 179.548 237.714C178.712 237.993 177.847 238.132 176.952 238.132ZM184.961 238L187.293 226.34H189.405L188.415 231.29H195.059L196.049 226.34H198.161L195.829 238H193.717L194.707 233.116H188.063L187.073 238H184.961ZM199.914 238L202.268 226.34H204.402L202.642 235.052L211.442 226.34H213.444L211.134 238H208.978L210.76 229.288L201.96 238H199.914ZM223.703 238L220.403 232.28L222.163 231.488L226.145 238H223.703ZM215.233 238L217.587 226.34H219.699L217.345 238H215.233ZM217.719 233.072L218.049 231.268H221.899L221.569 233.072H217.719ZM222.229 232.412L220.227 232.148L225.881 226.34H228.235L222.229 232.412ZM233.517 238.132C232.403 238.132 231.435 237.927 230.613 237.516C229.807 237.091 229.176 236.504 228.721 235.756C228.267 234.993 228.039 234.106 228.039 233.094C228.039 231.774 228.333 230.601 228.919 229.574C229.506 228.533 230.313 227.719 231.339 227.132C232.381 226.531 233.561 226.23 234.881 226.23C235.981 226.23 236.942 226.435 237.763 226.846C238.585 227.257 239.215 227.836 239.655 228.584C240.11 229.332 240.337 230.219 240.337 231.246C240.337 232.566 240.044 233.747 239.457 234.788C238.871 235.815 238.064 236.629 237.037 237.23C236.025 237.831 234.852 238.132 233.517 238.132ZM233.649 236.284C234.529 236.284 235.314 236.071 236.003 235.646C236.693 235.221 237.228 234.641 237.609 233.908C238.005 233.16 238.203 232.309 238.203 231.356C238.203 230.329 237.903 229.53 237.301 228.958C236.7 228.371 235.842 228.078 234.727 228.078C233.862 228.078 233.085 228.291 232.395 228.716C231.706 229.127 231.163 229.706 230.767 230.454C230.371 231.187 230.173 232.038 230.173 233.006C230.173 234.018 230.474 234.817 231.075 235.404C231.677 235.991 232.535 236.284 233.649 236.284ZM242.217 238L244.571 226.34H249.895C251.171 226.34 252.139 226.567 252.799 227.022C253.459 227.477 253.789 228.137 253.789 229.002C253.789 229.985 253.364 230.784 252.513 231.4C251.677 232.001 250.577 232.302 249.213 232.302L249.499 231.774C250.731 231.774 251.64 231.987 252.227 232.412C252.814 232.823 253.107 233.475 253.107 234.37C253.107 235.499 252.652 236.387 251.743 237.032C250.834 237.677 249.565 238 247.937 238H242.217ZM244.637 236.372H248.003C248.956 236.372 249.704 236.189 250.247 235.822C250.79 235.455 251.061 234.942 251.061 234.282C251.061 233.783 250.892 233.424 250.555 233.204C250.218 232.984 249.668 232.874 248.905 232.874H245.319L244.637 236.372ZM245.627 231.356H248.795C249.631 231.356 250.313 231.18 250.841 230.828C251.369 230.461 251.633 229.977 251.633 229.376C251.633 228.907 251.45 228.555 251.083 228.32C250.731 228.085 250.203 227.968 249.499 227.968H246.287L245.627 231.356ZM256.391 238.132C255.995 238.132 255.657 238 255.379 237.736C255.115 237.457 254.983 237.12 254.983 236.724C254.983 236.24 255.137 235.851 255.445 235.558C255.753 235.265 256.119 235.118 256.545 235.118C256.941 235.118 257.271 235.25 257.535 235.514C257.799 235.778 257.931 236.123 257.931 236.548C257.931 236.856 257.857 237.135 257.711 237.384C257.564 237.619 257.373 237.802 257.139 237.934C256.919 238.066 256.669 238.132 256.391 238.132ZM261.516 227.682L263.496 223.216L263.694 224.558C263.298 224.558 262.961 224.426 262.682 224.162C262.418 223.883 262.286 223.539 262.286 223.128C262.286 222.659 262.44 222.277 262.748 221.984C263.071 221.691 263.438 221.544 263.848 221.544C264.244 221.544 264.574 221.676 264.838 221.94C265.102 222.204 265.234 222.541 265.234 222.952C265.234 223.187 265.19 223.407 265.102 223.612C265.029 223.817 264.912 224.074 264.75 224.382L262.902 227.682H261.516ZM265.674 227.682L267.654 223.216L267.852 224.558C267.456 224.558 267.119 224.426 266.84 224.162C266.576 223.883 266.444 223.539 266.444 223.128C266.444 222.659 266.598 222.277 266.906 221.984C267.229 221.691 267.596 221.544 268.006 221.544C268.402 221.544 268.732 221.676 268.996 221.94C269.26 222.204 269.392 222.541 269.392 222.952C269.392 223.187 269.348 223.407 269.26 223.612C269.187 223.817 269.07 224.074 268.908 224.382L267.06 227.682H265.674Z" fill="#F5F5F5"/>
</svg>
