<svg width="396" height="336" viewBox="0 0 396 336" fill="none" xmlns="http://www.w3.org/2000/svg">
<rect x="0.0144043" width="395.971" height="312.173" fill="#4699FF"/>
<path d="M110.061 38.7236L107.008 29.3293C106.664 28.2688 105.163 28.2688 104.819 29.3293L101.766 38.7236C101.674 39.0082 101.409 39.2009 101.11 39.2009H91.2319C90.1168 39.2009 89.6532 40.6277 90.5553 41.2832L98.5466 47.0892C98.7886 47.265 98.8899 47.5768 98.7974 47.8613L95.7451 57.2556C95.4005 58.3161 96.6143 59.198 97.5164 58.5426L105.508 52.7366C105.75 52.5607 106.077 52.5607 106.32 52.7366L114.311 58.5426C115.213 59.198 116.427 58.3161 116.082 57.2556L113.03 47.8613C112.937 47.5768 113.039 47.265 113.281 47.0892L121.272 41.2832C122.174 40.6277 121.71 39.2009 120.595 39.2009H110.718C110.418 39.2009 110.153 39.0082 110.061 38.7236Z" fill="#47FFBF" stroke="#0F0A1D" stroke-width="0.460432"/>
<path d="M156.104 38.7236L153.052 29.3293C152.707 28.2688 151.207 28.2688 150.862 29.3293L147.81 38.7236C147.717 39.0082 147.452 39.2009 147.153 39.2009H137.275C136.16 39.2009 135.696 40.6277 136.598 41.2832L144.59 47.0892C144.832 47.265 144.933 47.5768 144.841 47.8613L141.788 57.2556C141.444 58.3161 142.657 59.198 143.56 58.5426L151.551 52.7366C151.793 52.5607 152.121 52.5607 152.363 52.7366L160.354 58.5426C161.256 59.198 162.47 58.3161 162.125 57.2556L159.073 47.8613C158.981 47.5768 159.082 47.265 159.324 47.0892L167.315 41.2832C168.217 40.6277 167.754 39.2009 166.639 39.2009H156.761C156.462 39.2009 156.196 39.0082 156.104 38.7236Z" fill="#47FFBF" stroke="#0F0A1D" stroke-width="0.460432"/>
<path d="M202.147 38.7236L199.095 29.3293C198.75 28.2688 197.25 28.2688 196.905 29.3293L193.853 38.7236C193.76 39.0082 193.495 39.2009 193.196 39.2009H183.318C182.203 39.2009 181.74 40.6277 182.642 41.2832L190.633 47.0892C190.875 47.265 190.976 47.5768 190.884 47.8613L187.831 57.2556C187.487 58.3161 188.701 59.198 189.603 58.5426L197.594 52.7366C197.836 52.5607 198.164 52.5607 198.406 52.7366L206.397 58.5426C207.299 59.198 208.513 58.3161 208.169 57.2556L205.116 47.8613C205.024 47.5768 205.125 47.265 205.367 47.0892L213.358 41.2832C214.26 40.6277 213.797 39.2009 212.682 39.2009H202.804C202.505 39.2009 202.24 39.0082 202.147 38.7236Z" fill="#47FFBF" stroke="#0F0A1D" stroke-width="0.460432"/>
<path d="M248.19 38.7236L245.138 29.3293C244.793 28.2688 243.293 28.2688 242.949 29.3293L239.896 38.7236C239.804 39.0082 239.538 39.2009 239.239 39.2009H229.362C228.246 39.2009 227.783 40.6277 228.685 41.2832L236.676 47.0892C236.918 47.265 237.02 47.5768 236.927 47.8613L233.875 57.2556C233.53 58.3161 234.744 59.198 235.646 58.5426L243.637 52.7366C243.879 52.5607 244.207 52.5607 244.449 52.7366L252.44 58.5426C253.343 59.198 254.556 58.3161 254.212 57.2556L251.159 47.8613C251.067 47.5768 251.168 47.265 251.41 47.0892L259.402 41.2832C260.304 40.6277 259.84 39.2009 258.725 39.2009H248.847C248.548 39.2009 248.283 39.0082 248.19 38.7236Z" fill="#47FFBF" stroke="#0F0A1D" stroke-width="0.460432"/>
<path d="M294.234 38.7236L291.181 29.3293C290.837 28.2688 289.336 28.2688 288.992 29.3293L285.939 38.7236C285.847 39.0082 285.582 39.2009 285.282 39.2009H275.405C274.29 39.2009 273.826 40.6277 274.728 41.2832L282.719 47.0892C282.961 47.265 283.063 47.5768 282.97 47.8613L279.918 57.2556C279.573 58.3161 280.787 59.198 281.689 58.5426L289.681 52.7366C289.923 52.5607 290.25 52.5607 290.492 52.7366L298.484 58.5426C299.386 59.198 300.6 58.3161 300.255 57.2556L297.203 47.8613C297.11 47.5768 297.211 47.265 297.454 47.0892L305.445 41.2832C306.347 40.6277 305.883 39.2009 304.768 39.2009H294.89C294.591 39.2009 294.326 39.0082 294.234 38.7236Z" fill="#4EAF8D" stroke="#0F0A1D" stroke-width="0.460432"/>
<path d="M76.5697 270.921L78.6324 260.607H79.8258L82.9199 268.416L82.2864 268.401L88.342 260.607H89.6091L87.5464 270.921H86.1319L87.7674 262.788L88.1357 262.817L82.7579 269.668H82.0801L79.2954 262.788L79.6048 262.832L77.9841 270.921H76.5697ZM94.2486 271.009C93.5021 271.009 92.8538 270.872 92.3038 270.597C91.7635 270.312 91.3412 269.919 91.0367 269.418C90.7322 268.907 90.5799 268.313 90.5799 267.635C90.5799 266.751 90.7764 265.965 91.1693 265.278C91.5622 264.58 92.1024 264.035 92.79 263.642C93.4874 263.24 94.2781 263.038 95.1621 263.038C95.8988 263.038 96.5422 263.176 97.0923 263.451C97.6423 263.726 98.0647 264.114 98.3594 264.615C98.6639 265.116 98.8161 265.71 98.8161 266.398C98.8161 267.282 98.6197 268.072 98.2268 268.77C97.8339 269.457 97.2936 270.002 96.606 270.405C95.9283 270.808 95.1425 271.009 94.2486 271.009ZM94.337 269.772C94.9264 269.772 95.4519 269.629 95.9135 269.344C96.3752 269.059 96.7337 268.672 96.9891 268.18C97.2543 267.679 97.3869 267.11 97.3869 266.471C97.3869 265.784 97.1856 265.248 96.7828 264.865C96.3801 264.472 95.8055 264.276 95.059 264.276C94.4795 264.276 93.9589 264.418 93.4972 264.703C93.0355 264.978 92.6721 265.366 92.4069 265.867C92.1417 266.358 92.0091 266.928 92.0091 267.576C92.0091 268.254 92.2104 268.789 92.6132 269.182C93.0159 269.575 93.5905 269.772 94.337 269.772ZM100.075 270.921L101.637 263.112H107.383L107.132 264.35H102.447L102.86 264.025L101.489 270.921H100.075ZM110.652 271.009C109.905 271.009 109.257 270.872 108.707 270.597C108.166 270.312 107.744 269.919 107.44 269.418C107.135 268.907 106.983 268.313 106.983 267.635C106.983 266.751 107.179 265.965 107.572 265.278C107.965 264.58 108.505 264.035 109.193 263.642C109.89 263.24 110.681 263.038 111.565 263.038C112.302 263.038 112.945 263.176 113.495 263.451C114.045 263.726 114.468 264.114 114.762 264.615C115.067 265.116 115.219 265.71 115.219 266.398C115.219 267.282 115.023 268.072 114.63 268.77C114.237 269.457 113.696 270.002 113.009 270.405C112.331 270.808 111.545 271.009 110.652 271.009ZM110.74 269.772C111.329 269.772 111.855 269.629 112.316 269.344C112.778 269.059 113.137 268.672 113.392 268.18C113.657 267.679 113.79 267.11 113.79 266.471C113.79 265.784 113.588 265.248 113.186 264.865C112.783 264.472 112.208 264.276 111.462 264.276C110.882 264.276 110.362 264.418 109.9 264.703C109.438 264.978 109.075 265.366 108.81 265.867C108.545 266.358 108.412 266.928 108.412 267.576C108.412 268.254 108.613 268.789 109.016 269.182C109.419 269.575 109.993 269.772 110.74 269.772ZM115.124 270.906L115.463 269.713C115.531 269.723 115.595 269.732 115.654 269.742C115.713 269.752 115.767 269.757 115.816 269.757C116.17 269.757 116.474 269.6 116.73 269.285C116.985 268.971 117.211 268.529 117.407 267.959C117.604 267.39 117.8 266.732 117.997 265.985L118.704 263.112H124.686L123.124 270.921H121.71L123.109 263.908L123.389 264.35H119.382L119.765 263.908L119.234 266.088C119.038 266.894 118.832 267.606 118.616 268.225C118.409 268.834 118.183 269.349 117.938 269.772C117.692 270.184 117.412 270.498 117.098 270.715C116.794 270.931 116.435 271.039 116.022 271.039C115.875 271.039 115.733 271.024 115.595 270.995C115.448 270.975 115.291 270.945 115.124 270.906ZM129.601 271.009C128.855 271.009 128.206 270.872 127.656 270.597C127.116 270.312 126.694 269.919 126.389 269.418C126.085 268.907 125.932 268.313 125.932 267.635C125.932 266.751 126.129 265.965 126.522 265.278C126.915 264.58 127.455 264.035 128.142 263.642C128.84 263.24 129.631 263.038 130.515 263.038C131.251 263.038 131.895 263.176 132.445 263.451C132.995 263.726 133.417 264.114 133.712 264.615C134.016 265.116 134.169 265.71 134.169 266.398C134.169 267.282 133.972 268.072 133.579 268.77C133.186 269.457 132.646 270.002 131.959 270.405C131.281 270.808 130.495 271.009 129.601 271.009ZM129.69 269.772C130.279 269.772 130.804 269.629 131.266 269.344C131.728 269.059 132.086 268.672 132.342 268.18C132.607 267.679 132.739 267.11 132.739 266.471C132.739 265.784 132.538 265.248 132.135 264.865C131.733 264.472 131.158 264.276 130.412 264.276C129.832 264.276 129.311 264.418 128.85 264.703C128.388 264.978 128.025 265.366 127.759 265.867C127.494 266.358 127.362 266.928 127.362 267.576C127.362 268.254 127.563 268.789 127.966 269.182C128.368 269.575 128.943 269.772 129.69 269.772ZM135.427 270.921L137.004 263.112H140.57C141.424 263.112 142.072 263.264 142.514 263.569C142.956 263.873 143.177 264.315 143.177 264.895C143.177 265.553 142.893 266.088 142.323 266.501C141.763 266.903 141.026 267.105 140.113 267.105L140.304 266.751C141.129 266.751 141.738 266.894 142.131 267.178C142.524 267.454 142.721 267.891 142.721 268.49C142.721 269.246 142.416 269.84 141.807 270.273C141.198 270.705 140.349 270.921 139.258 270.921H135.427ZM137.048 269.831H139.302C139.941 269.831 140.442 269.708 140.805 269.462C141.169 269.217 141.35 268.873 141.35 268.431C141.35 268.097 141.237 267.856 141.012 267.709C140.786 267.562 140.417 267.488 139.907 267.488H137.505L137.048 269.831ZM137.711 266.471H139.833C140.393 266.471 140.849 266.353 141.203 266.118C141.557 265.872 141.734 265.548 141.734 265.145C141.734 264.831 141.611 264.595 141.365 264.438C141.129 264.281 140.776 264.202 140.304 264.202H138.153L137.711 266.471ZM147.241 270.921L153.989 260.607H155.448L158.056 270.921H156.597L154.299 261.403H154.888L148.832 270.921H147.241ZM149.746 268.342L150.394 267.164H156.185L156.391 268.342H149.746ZM163.39 271.039C162.261 271.039 161.377 270.715 160.738 270.066C160.109 269.418 159.795 268.46 159.795 267.193C159.795 266.378 159.918 265.602 160.163 264.865C160.419 264.129 160.777 263.461 161.239 262.861C161.701 262.252 162.246 261.747 162.874 261.344C163.513 260.941 164.22 260.661 164.996 260.504L168.694 259.753L168.709 260.961L165.32 261.639C164.544 261.796 163.867 262.085 163.287 262.508C162.717 262.93 162.256 263.47 161.902 264.129C161.558 264.777 161.332 265.533 161.224 266.398L160.841 266.073C161.303 265.278 161.877 264.679 162.565 264.276C163.253 263.863 164.024 263.657 164.878 263.657C165.861 263.657 166.632 263.927 167.191 264.467C167.761 265.008 168.046 265.759 168.046 266.722C168.046 267.537 167.845 268.274 167.442 268.932C167.049 269.58 166.499 270.096 165.792 270.479C165.094 270.852 164.294 271.039 163.39 271.039ZM163.493 269.934C164.073 269.934 164.588 269.801 165.04 269.536C165.502 269.271 165.865 268.917 166.131 268.475C166.396 268.023 166.528 267.517 166.528 266.957C166.528 266.299 166.337 265.794 165.954 265.44C165.581 265.086 165.06 264.909 164.392 264.909C163.97 264.909 163.567 264.983 163.184 265.13C162.801 265.278 162.457 265.479 162.153 265.735C161.858 265.99 161.627 266.29 161.46 266.633C161.293 266.977 161.21 267.345 161.21 267.738C161.21 268.396 161.411 268.927 161.814 269.33C162.226 269.732 162.786 269.934 163.493 269.934ZM174.692 270.258L175.871 264.35H172.482L172.114 265.911C171.986 266.393 171.858 266.864 171.731 267.326C171.603 267.778 171.456 268.195 171.289 268.578C171.122 268.951 170.93 269.261 170.714 269.506C170.498 269.742 170.238 269.885 169.933 269.934L168.475 269.683C168.779 269.693 169.049 269.59 169.285 269.374C169.521 269.158 169.732 268.863 169.918 268.49C170.105 268.107 170.272 267.675 170.419 267.193C170.577 266.712 170.719 266.216 170.847 265.705L171.466 263.112H177.536L176.107 270.258H174.692ZM167.62 272.733L168.224 269.683H177.418L176.814 272.733H175.488L175.841 270.921H169.314L168.946 272.733H167.62ZM178.937 273.868C178.564 273.868 178.195 273.804 177.832 273.676C177.468 273.558 177.184 273.391 176.977 273.175L177.714 272.129C177.881 272.296 178.077 272.424 178.303 272.512C178.519 272.61 178.765 272.659 179.04 272.659C179.364 272.659 179.654 272.571 179.909 272.394C180.174 272.227 180.445 271.928 180.72 271.495L181.456 270.361L181.618 270.199L186.083 263.112H187.512L181.972 271.775C181.628 272.306 181.304 272.723 181 273.028C180.695 273.332 180.376 273.548 180.042 273.676C179.718 273.804 179.349 273.868 178.937 273.868ZM181.191 271.171L179.232 263.112H180.646L182.311 270.066L181.191 271.171ZM191.936 271.009C191.268 271.009 190.693 270.891 190.212 270.656C189.741 270.41 189.377 270.061 189.122 269.61C188.866 269.148 188.739 268.593 188.739 267.945C188.739 266.962 188.906 266.108 189.24 265.381C189.574 264.644 190.05 264.07 190.669 263.657C191.298 263.245 192.044 263.038 192.908 263.038C193.576 263.038 194.166 263.171 194.676 263.436C195.197 263.701 195.605 264.089 195.899 264.6C196.204 265.101 196.356 265.7 196.356 266.398C196.356 267.066 196.243 267.679 196.017 268.239C195.801 268.799 195.492 269.285 195.089 269.698C194.696 270.111 194.23 270.435 193.689 270.67C193.149 270.896 192.565 271.009 191.936 271.009ZM186.868 273.779L188.989 263.112H190.345L189.932 265.13L189.475 266.943L189.269 268.799L188.282 273.779H186.868ZM191.877 269.772C192.466 269.772 192.987 269.629 193.439 269.344C193.901 269.059 194.264 268.672 194.529 268.18C194.794 267.679 194.927 267.11 194.927 266.471C194.927 265.784 194.726 265.248 194.323 264.865C193.92 264.472 193.346 264.276 192.599 264.276C192.019 264.276 191.494 264.418 191.022 264.703C190.561 264.978 190.197 265.366 189.932 265.867C189.677 266.358 189.549 266.928 189.549 267.576C189.549 268.254 189.75 268.789 190.153 269.182C190.556 269.575 191.131 269.772 191.877 269.772ZM201.342 271.009C200.596 271.009 199.947 270.872 199.397 270.597C198.857 270.312 198.435 269.919 198.13 269.418C197.826 268.907 197.673 268.313 197.673 267.635C197.673 266.751 197.87 265.965 198.263 265.278C198.656 264.58 199.196 264.035 199.884 263.642C200.581 263.24 201.372 263.038 202.256 263.038C202.992 263.038 203.636 263.176 204.186 263.451C204.736 263.726 205.158 264.114 205.453 264.615C205.757 265.116 205.91 265.71 205.91 266.398C205.91 267.282 205.713 268.072 205.32 268.77C204.927 269.457 204.387 270.002 203.7 270.405C203.022 270.808 202.236 271.009 201.342 271.009ZM201.431 269.772C202.02 269.772 202.545 269.629 203.007 269.344C203.469 269.059 203.827 268.672 204.083 268.18C204.348 267.679 204.48 267.11 204.48 266.471C204.48 265.784 204.279 265.248 203.876 264.865C203.474 264.472 202.899 264.276 202.153 264.276C201.573 264.276 201.052 264.418 200.591 264.703C200.129 264.978 199.766 265.366 199.5 265.867C199.235 266.358 199.103 266.928 199.103 267.576C199.103 268.254 199.304 268.789 199.707 269.182C200.109 269.575 200.684 269.772 201.431 269.772ZM209.41 271.024C208.222 271.024 207.205 270.715 206.36 270.096L206.905 269.094C207.21 269.33 207.583 269.511 208.025 269.639C208.477 269.757 208.953 269.816 209.454 269.816C209.936 269.816 210.353 269.757 210.707 269.639C211.07 269.511 211.355 269.344 211.561 269.138C211.767 268.932 211.871 268.696 211.871 268.431C211.871 268.107 211.728 267.856 211.443 267.679C211.168 267.503 210.775 267.414 210.265 267.414H208.85L209.012 266.383H210.206C210.795 266.383 211.267 266.28 211.62 266.073C211.984 265.857 212.165 265.577 212.165 265.234C212.165 264.929 212.018 264.688 211.723 264.512C211.438 264.325 211.031 264.232 210.5 264.232C210.107 264.232 209.715 264.286 209.322 264.394C208.939 264.502 208.516 264.654 208.055 264.851L207.716 263.672C208.197 263.446 208.683 263.279 209.174 263.171C209.665 263.063 210.147 263.009 210.618 263.009C211.217 263.009 211.743 263.092 212.195 263.259C212.647 263.416 212.995 263.647 213.241 263.952C213.496 264.246 213.624 264.595 213.624 264.998C213.624 265.351 213.521 265.671 213.315 265.956C213.118 266.24 212.838 266.476 212.475 266.663C212.121 266.849 211.699 266.967 211.208 267.016L211.178 266.751C211.846 266.83 212.362 267.021 212.725 267.326C213.098 267.63 213.285 268.033 213.285 268.534C213.285 269.005 213.118 269.433 212.784 269.816C212.45 270.189 211.988 270.484 211.399 270.7C210.82 270.916 210.157 271.024 209.41 271.024ZM214.938 270.921L216.515 263.112H217.944L216.765 268.947L222.659 263.112H224L222.452 270.921H221.009L222.202 265.086L216.308 270.921H214.938ZM230.87 270.921L228.66 267.09L229.838 266.56L232.505 270.921H230.87ZM225.197 270.921L226.774 263.112H228.188L226.612 270.921H225.197ZM226.862 267.62L227.083 266.412H229.662L229.441 267.62H226.862ZM229.883 267.178L228.542 267.002L232.328 263.112H233.905L229.883 267.178ZM238.108 267.488L238.344 266.265H242.307L242.057 267.488H238.108ZM247.705 270.921L249.768 260.607H250.961L254.055 268.416L253.422 268.401L259.477 260.607H260.744L258.682 270.921H257.267L258.903 262.788L259.271 262.817L253.893 269.668H253.215L250.431 262.788L250.74 262.832L249.119 270.921H247.705ZM265.239 271.009C264.493 271.009 263.845 270.872 263.294 270.597C262.754 270.312 262.332 269.919 262.027 269.418C261.723 268.907 261.571 268.313 261.571 267.635C261.571 266.751 261.767 265.965 262.16 265.278C262.553 264.58 263.093 264.035 263.781 263.642C264.478 263.24 265.269 263.038 266.153 263.038C266.89 263.038 267.533 263.176 268.083 263.451C268.633 263.726 269.055 264.114 269.35 264.615C269.655 265.116 269.807 265.71 269.807 266.398C269.807 267.282 269.61 268.072 269.217 268.77C268.825 269.457 268.284 270.002 267.597 270.405C266.919 270.808 266.133 271.009 265.239 271.009ZM265.328 269.772C265.917 269.772 266.443 269.629 266.904 269.344C267.366 269.059 267.724 268.672 267.98 268.18C268.245 267.679 268.378 267.11 268.378 266.471C268.378 265.784 268.176 265.248 267.774 264.865C267.371 264.472 266.796 264.276 266.05 264.276C265.47 264.276 264.95 264.418 264.488 264.703C264.026 264.978 263.663 265.366 263.398 265.867C263.132 266.358 263 266.928 263 267.576C263 268.254 263.201 268.789 263.604 269.182C264.007 269.575 264.581 269.772 265.328 269.772ZM273.944 273.868C273.207 273.868 272.534 273.769 271.925 273.573C271.316 273.386 270.8 273.116 270.378 272.763L271.159 271.672C271.463 271.957 271.866 272.183 272.367 272.35C272.878 272.527 273.438 272.615 274.047 272.615C274.97 272.615 275.677 272.404 276.168 271.982C276.66 271.569 276.989 270.936 277.156 270.081L277.524 268.269L277.966 266.81L278.187 265.248L278.614 263.112H279.955L278.614 269.86C278.329 271.274 277.804 272.296 277.038 272.925C276.272 273.553 275.24 273.868 273.944 273.868ZM274.445 270.597C273.767 270.597 273.163 270.469 272.632 270.214C272.112 269.958 271.704 269.595 271.409 269.123C271.115 268.642 270.967 268.072 270.967 267.414C270.967 266.786 271.075 266.211 271.292 265.69C271.517 265.16 271.827 264.698 272.22 264.305C272.613 263.903 273.079 263.593 273.619 263.377C274.17 263.151 274.769 263.038 275.417 263.038C276.006 263.038 276.542 263.141 277.023 263.348C277.514 263.554 277.902 263.873 278.187 264.305C278.482 264.728 278.629 265.278 278.629 265.956C278.639 266.82 278.477 267.606 278.143 268.313C277.809 269.01 277.327 269.565 276.699 269.978C276.08 270.39 275.329 270.597 274.445 270.597ZM274.724 269.359C275.324 269.359 275.849 269.226 276.301 268.961C276.763 268.696 277.126 268.333 277.391 267.871C277.657 267.409 277.789 266.884 277.789 266.294C277.789 265.666 277.583 265.175 277.17 264.821C276.768 264.458 276.198 264.276 275.461 264.276C274.862 264.276 274.332 264.409 273.87 264.674C273.418 264.929 273.06 265.288 272.794 265.749C272.529 266.211 272.397 266.736 272.397 267.326C272.397 267.964 272.603 268.465 273.015 268.829C273.428 269.182 273.998 269.359 274.724 269.359ZM284.765 271.009C284.018 271.009 283.37 270.872 282.82 270.597C282.279 270.312 281.857 269.919 281.553 269.418C281.248 268.907 281.096 268.313 281.096 267.635C281.096 266.751 281.292 265.965 281.685 265.278C282.078 264.58 282.618 264.035 283.306 263.642C284.003 263.24 284.794 263.038 285.678 263.038C286.415 263.038 287.058 263.176 287.608 263.451C288.158 263.726 288.581 264.114 288.875 264.615C289.18 265.116 289.332 265.71 289.332 266.398C289.332 267.282 289.136 268.072 288.743 268.77C288.35 269.457 287.81 270.002 287.122 270.405C286.444 270.808 285.658 271.009 284.765 271.009ZM284.853 269.772C285.442 269.772 285.968 269.629 286.429 269.344C286.891 269.059 287.25 268.672 287.505 268.18C287.77 267.679 287.903 267.11 287.903 266.471C287.903 265.784 287.701 265.248 287.299 264.865C286.896 264.472 286.321 264.276 285.575 264.276C284.995 264.276 284.475 264.418 284.013 264.703C283.551 264.978 283.188 265.366 282.923 265.867C282.658 266.358 282.525 266.928 282.525 267.576C282.525 268.254 282.726 268.789 283.129 269.182C283.532 269.575 284.106 269.772 284.853 269.772ZM290.463 270.921L292.644 259.988H294.058L291.878 270.921H290.463ZM299.625 270.921L301.555 261.255L302.071 261.889H299.11L299.36 260.607H303.147L301.084 270.921H299.625ZM303.178 270.921L303.384 269.919L308.408 265.897C308.87 265.523 309.229 265.189 309.484 264.895C309.749 264.6 309.936 264.325 310.044 264.07C310.152 263.804 310.206 263.534 310.206 263.259C310.206 262.807 310.039 262.449 309.705 262.184C309.381 261.909 308.875 261.771 308.187 261.771C307.686 261.771 307.205 261.869 306.743 262.066C306.282 262.262 305.874 262.547 305.521 262.92L304.533 262.066C304.966 261.585 305.516 261.201 306.184 260.917C306.861 260.632 307.598 260.489 308.394 260.489C309.091 260.489 309.685 260.602 310.176 260.828C310.668 261.044 311.041 261.344 311.296 261.727C311.552 262.11 311.679 262.557 311.679 263.068C311.679 263.461 311.611 263.849 311.473 264.232C311.336 264.605 311.1 264.993 310.766 265.396C310.442 265.789 309.985 266.221 309.396 266.692L304.931 270.228L304.592 269.639H310.839L310.589 270.921H303.178ZM315.101 271.039C314.325 271.039 313.618 270.926 312.979 270.7C312.35 270.464 311.854 270.145 311.491 269.742L312.257 268.608C312.542 268.932 312.94 269.202 313.451 269.418C313.961 269.624 314.541 269.727 315.189 269.727C315.788 269.727 316.294 269.644 316.707 269.477C317.129 269.31 317.453 269.074 317.679 268.77C317.905 268.455 318.018 268.087 318.018 267.665C318.018 267.144 317.831 266.756 317.458 266.501C317.085 266.236 316.515 266.103 315.749 266.103H314.968L315.174 265.072L318.946 261.314L319.123 261.889H313.436L313.701 260.607H320.508L320.317 261.609L316.53 265.366L315.823 264.924H316.147C316.864 264.924 317.468 265.032 317.959 265.248C318.46 265.455 318.838 265.759 319.094 266.162C319.359 266.555 319.491 267.031 319.491 267.591C319.491 268.259 319.31 268.853 318.946 269.374C318.583 269.894 318.072 270.302 317.414 270.597C316.756 270.891 315.985 271.039 315.101 271.039Z" fill="#0F0A1D"/>
<path d="M306.473 335.223L321.888 300.453L323.429 310.902C320.346 310.902 317.72 309.874 315.55 307.818C313.495 305.649 312.467 302.966 312.467 299.768C312.467 296.114 313.666 293.145 316.064 290.862C318.576 288.578 321.431 287.436 324.628 287.436C327.711 287.436 330.281 288.464 332.336 290.519C334.391 292.574 335.419 295.201 335.419 298.398C335.419 300.225 335.076 301.938 334.391 303.536C333.82 305.135 332.907 307.133 331.651 309.531L317.263 335.223H306.473ZM338.845 335.223L354.26 300.453L355.801 310.902C352.718 310.902 350.092 309.874 347.923 307.818C345.867 305.649 344.839 302.966 344.839 299.768C344.839 296.114 346.038 293.145 348.436 290.862C350.948 288.578 353.803 287.436 357 287.436C360.083 287.436 362.653 288.464 364.708 290.519C366.763 292.574 367.791 295.201 367.791 298.398C367.791 300.225 367.448 301.938 366.763 303.536C366.192 305.135 365.279 307.133 364.023 309.531L349.635 335.223H338.845Z" fill="#0F0A1D"/>
<path d="M52.6402 105.342L50.8169 109.454L50.6143 108.219C50.979 108.219 51.2829 108.347 51.526 108.604C51.7826 108.847 51.9109 109.151 51.9109 109.515C51.9109 109.947 51.7691 110.305 51.4855 110.589C51.2018 110.859 50.871 110.994 50.4928 110.994C50.1281 110.994 49.8175 110.873 49.5609 110.63C49.3178 110.373 49.1962 110.062 49.1962 109.698C49.1962 109.481 49.23 109.279 49.2975 109.09C49.3785 108.887 49.5001 108.651 49.6622 108.381L51.3639 105.342H52.6402ZM56.4692 105.342L54.6459 109.454L54.4433 108.219C54.8079 108.219 55.1118 108.347 55.3549 108.604C55.6116 108.847 55.7399 109.151 55.7399 109.515C55.7399 109.947 55.598 110.305 55.3144 110.589C55.0308 110.859 54.6999 110.994 54.3217 110.994C53.9571 110.994 53.6464 110.873 53.3898 110.63C53.1467 110.373 53.0252 110.062 53.0252 109.698C53.0252 109.481 53.0589 109.279 53.1265 109.09C53.2075 108.887 53.329 108.651 53.4911 108.381L55.1929 105.342H56.4692ZM60.1364 113.993L60.4403 112.331H68.0374L67.7132 113.993H60.1364ZM63.5196 106.031C64.7217 106.031 65.7549 106.287 66.6193 106.801C67.4971 107.314 68.1724 108.016 68.6452 108.907C69.1314 109.799 69.3745 110.819 69.3745 111.967C69.3745 113.169 69.1381 114.29 68.6654 115.33C68.2062 116.356 67.5647 117.261 66.7408 118.044C65.9305 118.828 64.9985 119.442 63.9451 119.888C62.8916 120.32 61.7841 120.536 60.6226 120.536C59.4881 120.536 58.4819 120.347 57.604 119.969C56.7261 119.591 56.0441 119.037 55.5578 118.308L57.0773 117.031C57.523 117.612 58.07 118.038 58.7183 118.308C59.3665 118.578 60.0891 118.713 60.886 118.713C61.7503 118.713 62.5675 118.551 63.3373 118.227C64.1071 117.902 64.7892 117.45 65.3835 116.869C65.9777 116.275 66.4437 115.586 66.7813 114.803C67.119 114.02 67.2878 113.175 67.2878 112.27C67.2878 111.406 67.1122 110.643 66.7611 109.981C66.4234 109.319 65.9372 108.799 65.3024 108.421C64.6811 108.043 63.9316 107.854 63.0537 107.854C62.2433 107.854 61.4667 107.989 60.7239 108.259C59.9811 108.529 59.2652 108.955 58.5764 109.536L57.5635 108.259C58.3468 107.53 59.2517 106.976 60.2782 106.598C61.3046 106.22 62.3851 106.031 63.5196 106.031ZM76.8295 120.496C74.8441 120.482 73.3314 120.097 72.2915 119.341C71.265 118.585 70.7518 117.45 70.7518 115.937C70.7518 114.654 71.0894 113.533 71.7647 112.574C72.44 111.615 73.3854 110.873 74.601 110.346C75.83 109.819 77.2684 109.556 78.9161 109.556H79.3213C81.2932 109.569 82.7924 109.954 83.8188 110.711C84.8453 111.467 85.3585 112.601 85.3585 114.114C85.3585 115.397 85.0276 116.518 84.3658 117.477C83.704 118.422 82.7721 119.165 81.5701 119.706C80.3816 120.232 78.9837 120.496 77.3765 120.496H76.8295ZM77.1739 118.875H77.3562C78.6258 118.875 79.7198 118.686 80.6382 118.308C81.5566 117.929 82.2656 117.403 82.7654 116.727C83.2651 116.039 83.5149 115.235 83.5149 114.317C83.5149 113.25 83.1503 112.466 82.421 111.967C81.7051 111.453 80.5706 111.197 79.0174 111.197H78.8149C77.5318 111.197 76.4243 111.386 75.4924 111.764C74.574 112.129 73.8582 112.649 73.3449 113.324C72.8452 113.999 72.5953 114.789 72.5953 115.694C72.5953 116.802 72.9803 117.605 73.7501 118.105C74.5199 118.591 75.6612 118.848 77.1739 118.875ZM75.3506 124.304L79.139 105.342H80.861L77.0726 124.304H75.3506ZM93.0129 120.496C91.0275 120.482 89.5149 120.097 88.4749 119.341C87.4485 118.585 86.9352 117.45 86.9352 115.937C86.9352 114.654 87.2729 113.533 87.9482 112.574C88.6235 111.615 89.5689 110.873 90.7844 110.346C92.0135 109.819 93.4519 109.556 95.0996 109.556H95.5048C97.4767 109.569 98.9758 109.954 100.002 110.711C101.029 111.467 101.542 112.601 101.542 114.114C101.542 115.397 101.211 116.518 100.549 117.477C99.8875 118.422 98.9556 119.165 97.7535 119.706C96.565 120.232 95.1671 120.496 93.5599 120.496H93.0129ZM93.3573 118.875H93.5397C94.8092 118.875 95.9032 118.686 96.8216 118.308C97.74 117.929 98.4491 117.403 98.9488 116.727C99.4485 116.039 99.6984 115.235 99.6984 114.317C99.6984 113.25 99.3337 112.466 98.6044 111.967C97.8886 111.453 96.7541 111.197 95.2009 111.197H94.9983C93.7152 111.197 92.6077 111.386 91.6758 111.764C90.7574 112.129 90.0416 112.649 89.5284 113.324C89.0287 113.999 88.7788 114.789 88.7788 115.694C88.7788 116.802 89.1637 117.605 89.9336 118.105C90.7034 118.591 91.8447 118.848 93.3573 118.875ZM91.534 124.304L95.3225 105.342H97.0445L93.256 124.304H91.534ZM108.406 120.496C107.353 120.496 106.441 120.307 105.671 119.928C104.901 119.537 104.307 118.996 103.889 118.308C103.47 117.605 103.26 116.781 103.26 115.836C103.26 114.621 103.524 113.54 104.051 112.595C104.577 111.649 105.293 110.906 106.198 110.366C107.116 109.812 108.156 109.536 109.318 109.536C110.29 109.536 111.134 109.725 111.85 110.103C112.566 110.467 113.12 110.994 113.512 111.683C113.917 112.372 114.119 113.202 114.119 114.175C114.119 114.418 114.106 114.668 114.079 114.924C114.052 115.168 114.018 115.397 113.978 115.613H104.679L104.922 114.195H113.046L112.255 114.681C112.377 113.925 112.323 113.29 112.093 112.777C111.864 112.25 111.499 111.852 110.999 111.582C110.513 111.298 109.926 111.156 109.237 111.156C108.427 111.156 107.711 111.352 107.089 111.744C106.482 112.122 106.009 112.655 105.671 113.344C105.334 114.02 105.165 114.816 105.165 115.735C105.165 116.707 105.442 117.464 105.995 118.004C106.563 118.531 107.42 118.794 108.568 118.794C109.244 118.794 109.872 118.686 110.452 118.47C111.033 118.24 111.513 117.936 111.891 117.558L112.721 118.956C112.208 119.456 111.567 119.841 110.797 120.111C110.027 120.367 109.23 120.496 108.406 120.496ZM123.581 120.374L120.542 115.107L122.163 114.377L125.83 120.374H123.581ZM115.782 120.374L117.949 109.637H119.894L117.726 120.374H115.782ZM118.071 115.836L118.375 114.175H121.92L121.616 115.836H118.071ZM122.224 115.228L120.38 114.985L125.587 109.637H127.755L122.224 115.228ZM129.819 120.374L131.683 110.832L132.048 111.339H127.692L128.016 109.637H137.822L137.497 111.339H133.061L133.628 110.832L131.764 120.374H129.819ZM137.663 120.374L139.831 109.637H141.796L140.175 117.659L148.279 109.637H150.122L147.995 120.374H146.01L147.65 112.352L139.547 120.374H137.663ZM151.769 120.374L153.937 109.637H158.839C160.014 109.637 160.906 109.846 161.513 110.265C162.121 110.684 162.425 111.291 162.425 112.088C162.425 112.993 162.033 113.729 161.25 114.296C160.48 114.85 159.467 115.127 158.211 115.127L158.475 114.641C159.609 114.641 160.447 114.837 160.987 115.228C161.527 115.606 161.797 116.207 161.797 117.031C161.797 118.071 161.378 118.888 160.541 119.483C159.704 120.077 158.535 120.374 157.036 120.374H151.769ZM153.997 118.875H157.097C157.975 118.875 158.664 118.706 159.163 118.368C159.663 118.031 159.913 117.558 159.913 116.95C159.913 116.491 159.758 116.16 159.447 115.958C159.136 115.755 158.63 115.654 157.928 115.654H154.625L153.997 118.875ZM154.909 114.256H157.826C158.596 114.256 159.224 114.094 159.71 113.77C160.197 113.432 160.44 112.986 160.44 112.433C160.44 112 160.271 111.676 159.933 111.46C159.609 111.244 159.123 111.136 158.475 111.136H155.517L154.909 114.256ZM164.213 120.374L166.361 109.637H168.305L167.394 114.195H173.512L174.424 109.637H176.369L174.221 120.374H172.276L173.188 115.877H167.07L166.158 120.374H164.213ZM182.825 120.496C181.92 120.496 181.11 120.313 180.394 119.949C179.678 119.57 179.111 119.037 178.692 118.348C178.287 117.659 178.084 116.829 178.084 115.856C178.084 114.938 178.233 114.094 178.53 113.324C178.841 112.554 179.266 111.886 179.806 111.318C180.36 110.751 181.008 110.312 181.751 110.001C182.494 109.691 183.298 109.536 184.162 109.536C185.094 109.536 185.884 109.698 186.532 110.022C187.181 110.346 187.68 110.825 188.031 111.46C188.383 112.081 188.558 112.844 188.558 113.749C188.558 115.073 188.329 116.248 187.869 117.274C187.41 118.287 186.748 119.078 185.884 119.645C185.033 120.212 184.013 120.496 182.825 120.496ZM183.25 118.794C184.061 118.794 184.783 118.598 185.418 118.206C186.053 117.815 186.546 117.281 186.897 116.606C187.262 115.917 187.444 115.134 187.444 114.256C187.444 113.31 187.167 112.574 186.613 112.048C186.06 111.507 185.269 111.237 184.243 111.237C183.446 111.237 182.73 111.433 182.096 111.825C181.461 112.203 180.961 112.736 180.596 113.425C180.232 114.101 180.049 114.884 180.049 115.775C180.049 116.707 180.326 117.443 180.88 117.984C181.434 118.524 182.224 118.794 183.25 118.794ZM186.35 120.374L186.917 117.599L187.565 115.107L187.829 112.554L188.396 109.637H190.341L188.214 120.374H186.35ZM198.898 120.374L199.628 116.565L199.891 117.052H196.508C195.225 117.052 194.239 116.761 193.55 116.18C192.861 115.586 192.517 114.796 192.517 113.81C192.517 112.514 193.003 111.494 193.976 110.751C194.961 110.008 196.305 109.637 198.007 109.637H202.768L200.641 120.374H198.898ZM191.119 120.374L194.867 116.262H196.873L193.307 120.374H191.119ZM199.749 116.039L200.823 110.69L201.026 111.318H197.845C196.792 111.318 195.974 111.534 195.394 111.967C194.813 112.385 194.523 112.993 194.523 113.79C194.523 114.938 195.292 115.512 196.832 115.512H200.134L199.749 116.039ZM209.855 120.374L212.003 109.637H221.95L219.802 120.374H217.858L219.721 110.852L220.086 111.339H213.097L213.684 110.852L211.8 120.374H209.855ZM228.691 120.496C227.665 120.496 226.773 120.307 226.017 119.928C225.274 119.537 224.693 118.996 224.275 118.308C223.856 117.605 223.647 116.788 223.647 115.856C223.647 114.641 223.917 113.56 224.457 112.615C224.997 111.656 225.74 110.906 226.686 110.366C227.644 109.812 228.732 109.536 229.947 109.536C230.96 109.536 231.845 109.725 232.601 110.103C233.358 110.481 233.938 111.014 234.343 111.703C234.762 112.392 234.971 113.209 234.971 114.155C234.971 115.37 234.701 116.457 234.161 117.416C233.621 118.362 232.878 119.111 231.933 119.665C231.001 120.219 229.92 120.496 228.691 120.496ZM228.813 118.794C229.623 118.794 230.346 118.598 230.98 118.206C231.615 117.815 232.108 117.281 232.459 116.606C232.824 115.917 233.006 115.134 233.006 114.256C233.006 113.31 232.729 112.574 232.176 112.048C231.622 111.507 230.832 111.237 229.805 111.237C229.009 111.237 228.293 111.433 227.658 111.825C227.023 112.203 226.523 112.736 226.159 113.425C225.794 114.101 225.612 114.884 225.612 115.775C225.612 116.707 225.889 117.443 226.442 117.984C226.996 118.524 227.786 118.794 228.813 118.794ZM244.139 119.462L245.76 111.339H241.1L240.594 113.486C240.418 114.148 240.243 114.796 240.067 115.431C239.892 116.052 239.689 116.626 239.459 117.153C239.23 117.666 238.967 118.092 238.669 118.429C238.372 118.753 238.014 118.949 237.596 119.017L235.59 118.672C236.009 118.686 236.38 118.544 236.704 118.247C237.028 117.95 237.319 117.545 237.575 117.031C237.832 116.505 238.062 115.91 238.264 115.249C238.48 114.587 238.676 113.905 238.852 113.202L239.703 109.637H248.049L246.084 119.462H244.139ZM234.415 122.866L235.246 118.672H247.887L247.057 122.866H245.233L245.72 120.374H236.745L236.238 122.866H234.415ZM250.057 120.374L252.204 109.637H260.105L259.761 111.339H253.318L253.886 110.893L252.002 120.374H250.057ZM264.599 120.496C263.573 120.496 262.682 120.307 261.925 119.928C261.182 119.537 260.602 118.996 260.183 118.308C259.764 117.605 259.555 116.788 259.555 115.856C259.555 114.641 259.825 113.56 260.365 112.615C260.906 111.656 261.648 110.906 262.594 110.366C263.553 109.812 264.64 109.536 265.856 109.536C266.868 109.536 267.753 109.725 268.509 110.103C269.266 110.481 269.847 111.014 270.252 111.703C270.67 112.392 270.88 113.209 270.88 114.155C270.88 115.37 270.61 116.457 270.069 117.416C269.529 118.362 268.786 119.111 267.841 119.665C266.909 120.219 265.829 120.496 264.599 120.496ZM264.721 118.794C265.531 118.794 266.254 118.598 266.889 118.206C267.524 117.815 268.016 117.281 268.368 116.606C268.732 115.917 268.915 115.134 268.915 114.256C268.915 113.31 268.638 112.574 268.084 112.048C267.53 111.507 266.74 111.237 265.714 111.237C264.917 111.237 264.201 111.433 263.566 111.825C262.931 112.203 262.432 112.736 262.067 113.425C261.702 114.101 261.52 114.884 261.52 115.775C261.52 116.707 261.797 117.443 262.351 117.984C262.904 118.524 263.695 118.794 264.721 118.794ZM274.362 120.374L276.226 110.832L276.591 111.339H272.235L272.559 109.637H282.365L282.041 111.339H277.604L278.171 110.832L276.307 120.374H274.362ZM286.857 120.496C285.83 120.496 284.939 120.307 284.182 119.928C283.44 119.537 282.859 118.996 282.44 118.308C282.022 117.605 281.812 116.788 281.812 115.856C281.812 114.641 282.082 113.56 282.623 112.615C283.163 111.656 283.906 110.906 284.851 110.366C285.81 109.812 286.897 109.536 288.113 109.536C289.126 109.536 290.01 109.725 290.767 110.103C291.523 110.481 292.104 111.014 292.509 111.703C292.928 112.392 293.137 113.209 293.137 114.155C293.137 115.37 292.867 116.457 292.327 117.416C291.786 118.362 291.044 119.111 290.098 119.665C289.166 120.219 288.086 120.496 286.857 120.496ZM286.978 118.794C287.789 118.794 288.511 118.598 289.146 118.206C289.781 117.815 290.274 117.281 290.625 116.606C290.99 115.917 291.172 115.134 291.172 114.256C291.172 113.31 290.895 112.574 290.341 112.048C289.787 111.507 288.997 111.237 287.971 111.237C287.174 111.237 286.458 111.433 285.823 111.825C285.189 112.203 284.689 112.736 284.324 113.425C283.96 114.101 283.777 114.884 283.777 115.775C283.777 116.707 284.054 117.443 284.608 117.984C285.162 118.524 285.952 118.794 286.978 118.794ZM294.868 120.374L297.036 109.637H301.938C303.113 109.637 304.005 109.846 304.612 110.265C305.22 110.684 305.524 111.291 305.524 112.088C305.524 112.993 305.132 113.729 304.349 114.296C303.579 114.85 302.566 115.127 301.31 115.127L301.574 114.641C302.708 114.641 303.545 114.837 304.086 115.228C304.626 115.606 304.896 116.207 304.896 117.031C304.896 118.071 304.477 118.888 303.64 119.483C302.803 120.077 301.634 120.374 300.135 120.374H294.868ZM297.096 118.875H300.196C301.074 118.875 301.763 118.706 302.262 118.368C302.762 118.031 303.012 117.558 303.012 116.95C303.012 116.491 302.857 116.16 302.546 115.958C302.235 115.755 301.729 115.654 301.027 115.654H297.724L297.096 118.875ZM298.008 114.256H300.925C301.695 114.256 302.323 114.094 302.809 113.77C303.296 113.432 303.539 112.986 303.539 112.433C303.539 112 303.37 111.676 303.032 111.46C302.708 111.244 302.222 111.136 301.574 111.136H298.616L298.008 114.256ZM315.112 120.374L312.073 115.107L313.694 114.377L317.361 120.374H315.112ZM307.312 120.374L309.48 109.637H311.425L309.257 120.374H307.312ZM309.601 115.836L309.905 114.175H313.451L313.147 115.836H309.601ZM313.754 115.228L311.911 114.985L317.117 109.637H319.285L313.754 115.228ZM323.866 120.496C322.961 120.496 322.151 120.313 321.435 119.949C320.719 119.57 320.152 119.037 319.733 118.348C319.328 117.659 319.126 116.829 319.126 115.856C319.126 114.938 319.274 114.094 319.571 113.324C319.882 112.554 320.307 111.886 320.848 111.318C321.401 110.751 322.05 110.312 322.792 110.001C323.535 109.691 324.339 109.536 325.203 109.536C326.135 109.536 326.925 109.698 327.574 110.022C328.222 110.346 328.722 110.825 329.073 111.46C329.424 112.081 329.599 112.844 329.599 113.749C329.599 115.073 329.37 116.248 328.911 117.274C328.451 118.287 327.79 119.078 326.925 119.645C326.074 120.212 325.055 120.496 323.866 120.496ZM324.292 118.794C325.102 118.794 325.825 118.598 326.459 118.206C327.094 117.815 327.587 117.281 327.938 116.606C328.303 115.917 328.485 115.134 328.485 114.256C328.485 113.31 328.208 112.574 327.655 112.048C327.101 111.507 326.311 111.237 325.284 111.237C324.487 111.237 323.772 111.433 323.137 111.825C322.502 112.203 322.002 112.736 321.638 113.425C321.273 114.101 321.091 114.884 321.091 115.775C321.091 116.707 321.368 117.443 321.921 117.984C322.475 118.524 323.265 118.794 324.292 118.794ZM327.391 120.374L327.959 117.599L328.607 115.107L328.87 112.554L329.437 109.637H331.382L329.255 120.374H327.391ZM346.272 120.374L343.233 115.107L344.854 114.377L348.521 120.374H346.272ZM338.472 120.374L340.64 109.637H342.585L340.417 120.374H338.472ZM340.761 115.836L341.065 114.175H344.611L344.307 115.836H340.761ZM344.915 115.228L343.071 114.985L348.278 109.637H350.445L344.915 115.228ZM69.933 145.536C68.5284 145.536 67.3264 145.286 66.3269 144.787C65.3275 144.287 64.5644 143.591 64.0377 142.7C63.5244 141.795 63.2678 140.748 63.2678 139.56C63.2678 138.385 63.4704 137.284 63.8756 136.258C64.2808 135.218 64.8615 134.306 65.6179 133.523C66.3742 132.739 67.2791 132.131 68.3326 131.699C69.386 131.254 70.5678 131.031 71.8779 131.031C73.296 131.031 74.5048 131.281 75.5043 131.78C76.5037 132.28 77.26 132.982 77.7733 133.887C78.3 134.779 78.5634 135.819 78.5634 137.007C78.5634 138.182 78.3608 139.29 77.9556 140.33C77.5504 141.356 76.9697 142.261 76.2133 143.044C75.457 143.828 74.5453 144.442 73.4784 144.888C72.4249 145.32 71.2431 145.536 69.933 145.536ZM70.1154 143.733C71.0878 143.733 71.9724 143.564 72.7693 143.227C73.5661 142.875 74.2414 142.396 74.7952 141.788C75.3489 141.167 75.7744 140.458 76.0715 139.661C76.3686 138.864 76.5172 138.02 76.5172 137.129C76.5172 136.278 76.3349 135.535 75.9702 134.9C75.6056 134.252 75.0653 133.745 74.3495 133.381C73.6337 133.016 72.7558 132.834 71.7158 132.834C70.7299 132.834 69.8385 133.009 69.0416 133.361C68.2583 133.698 67.583 134.178 67.0157 134.799C66.462 135.407 66.0366 136.109 65.7394 136.906C65.4423 137.703 65.2937 138.547 65.2937 139.438C65.2937 140.289 65.4761 141.039 65.8407 141.687C66.2189 142.322 66.7591 142.821 67.4614 143.186C68.1773 143.551 69.0619 143.733 70.1154 143.733ZM80.2949 145.374L83.1311 131.193H88.3985C90.0597 131.193 91.3428 131.557 92.2477 132.287C93.1526 133.016 93.605 134.036 93.605 135.346C93.605 136.548 93.3349 137.581 92.7947 138.446C92.2679 139.296 91.5049 139.951 90.5054 140.411C89.506 140.856 88.3242 141.079 86.9601 141.079H82.3005L83.3742 140.107L82.3208 145.374H80.2949ZM83.3337 140.33L82.6247 139.317H87.0006C88.4457 139.317 89.5667 138.999 90.3636 138.364C91.174 137.716 91.5791 136.771 91.5791 135.528C91.5791 134.677 91.2888 134.036 90.708 133.604C90.1272 133.171 89.2966 132.955 88.2161 132.955H83.9415L85.0152 131.922L83.3337 140.33ZM97.2005 145.374L99.7532 132.429L100.158 132.955H94.8505L95.1949 131.193H106.884L106.54 132.955H101.151L101.759 132.429L99.2062 145.374H97.2005ZM107.534 140.897L109.094 131.193H111.404L109.074 140.897H107.534ZM107.595 145.496C107.23 145.496 106.926 145.374 106.683 145.131C106.454 144.888 106.339 144.604 106.339 144.28C106.339 143.875 106.467 143.544 106.724 143.287C106.994 143.031 107.318 142.902 107.696 142.902C108.061 142.902 108.358 143.017 108.588 143.247C108.831 143.476 108.952 143.76 108.952 144.098C108.952 144.354 108.891 144.591 108.77 144.807C108.648 145.023 108.486 145.192 108.284 145.313C108.081 145.435 107.851 145.496 107.595 145.496ZM117.686 145.374L120.523 131.193H126.803C128.221 131.193 129.322 131.456 130.105 131.983C130.889 132.51 131.28 133.286 131.28 134.313C131.28 135.204 131.057 135.96 130.612 136.582C130.18 137.189 129.612 137.649 128.91 137.959C128.208 138.27 127.465 138.425 126.681 138.425L127.147 137.838C128.201 137.838 129.052 138.101 129.7 138.628C130.348 139.155 130.673 139.924 130.673 140.937C130.673 141.91 130.416 142.727 129.903 143.389C129.403 144.05 128.687 144.55 127.755 144.888C126.837 145.212 125.756 145.374 124.514 145.374H117.686ZM120.037 143.733H124.656C125.925 143.733 126.911 143.497 127.613 143.024C128.316 142.551 128.667 141.863 128.667 140.958C128.667 140.242 128.41 139.742 127.897 139.458C127.384 139.161 126.654 139.013 125.709 139.013H120.644L120.968 137.372H125.446C126.189 137.372 126.837 137.27 127.391 137.068C127.958 136.865 128.397 136.561 128.707 136.156C129.018 135.751 129.173 135.245 129.173 134.637C129.173 134.016 128.93 133.563 128.444 133.279C127.958 132.982 127.269 132.834 126.378 132.834H122.204L120.037 143.733ZM132.776 145.374L134.944 134.637H136.909L135.288 142.659L143.392 134.637H145.235L143.108 145.374H141.123L142.764 137.352L134.66 145.374H132.776ZM154.398 144.462L156.019 136.339H151.359L150.853 138.486C150.677 139.148 150.502 139.796 150.326 140.431C150.151 141.052 149.948 141.626 149.718 142.153C149.489 142.666 149.226 143.092 148.928 143.429C148.631 143.753 148.273 143.949 147.855 144.017L145.849 143.672C146.268 143.686 146.639 143.544 146.963 143.247C147.287 142.95 147.578 142.545 147.834 142.031C148.091 141.505 148.321 140.91 148.523 140.249C148.739 139.587 148.935 138.905 149.111 138.202L149.962 134.637H158.308L156.343 144.462H154.398ZM144.674 147.866L145.505 143.672H158.146L157.316 147.866H155.492L155.979 145.374H147.004L146.497 147.866H144.674ZM165.563 145.496C164.509 145.496 163.598 145.307 162.828 144.928C162.058 144.537 161.464 143.996 161.045 143.308C160.626 142.605 160.417 141.781 160.417 140.836C160.417 139.621 160.68 138.54 161.207 137.595C161.734 136.649 162.45 135.906 163.355 135.366C164.273 134.812 165.313 134.536 166.474 134.536C167.447 134.536 168.291 134.725 169.007 135.103C169.723 135.467 170.276 135.994 170.668 136.683C171.073 137.372 171.276 138.202 171.276 139.175C171.276 139.418 171.262 139.668 171.235 139.924C171.208 140.168 171.175 140.397 171.134 140.613H161.835L162.078 139.195H170.202L169.412 139.681C169.534 138.925 169.48 138.29 169.25 137.777C169.02 137.25 168.656 136.852 168.156 136.582C167.67 136.298 167.082 136.156 166.393 136.156C165.583 136.156 164.867 136.352 164.246 136.744C163.638 137.122 163.165 137.655 162.828 138.344C162.49 139.02 162.321 139.816 162.321 140.735C162.321 141.707 162.598 142.464 163.152 143.004C163.719 143.531 164.577 143.794 165.725 143.794C166.4 143.794 167.028 143.686 167.609 143.47C168.19 143.24 168.669 142.936 169.047 142.558L169.878 143.956C169.365 144.456 168.723 144.841 167.953 145.111C167.183 145.367 166.387 145.496 165.563 145.496ZM178.064 145.496C177.037 145.496 176.146 145.307 175.389 144.928C174.646 144.537 174.066 143.996 173.647 143.308C173.228 142.605 173.019 141.788 173.019 140.856C173.019 139.641 173.289 138.56 173.829 137.615C174.37 136.656 175.112 135.906 176.058 135.366C177.017 134.812 178.104 134.536 179.32 134.536C180.333 134.536 181.217 134.725 181.973 135.103C182.73 135.481 183.311 136.014 183.716 136.703C184.134 137.392 184.344 138.209 184.344 139.155C184.344 140.37 184.074 141.457 183.533 142.416C182.993 143.362 182.25 144.111 181.305 144.665C180.373 145.219 179.293 145.496 178.064 145.496ZM178.185 143.794C178.995 143.794 179.718 143.598 180.353 143.206C180.988 142.815 181.481 142.281 181.832 141.606C182.196 140.917 182.379 140.134 182.379 139.256C182.379 138.31 182.102 137.574 181.548 137.048C180.994 136.507 180.204 136.237 179.178 136.237C178.381 136.237 177.665 136.433 177.03 136.825C176.396 137.203 175.896 137.736 175.531 138.425C175.166 139.101 174.984 139.884 174.984 140.775C174.984 141.707 175.261 142.443 175.815 142.984C176.369 143.524 177.159 143.794 178.185 143.794ZM185.697 149.426C185.184 149.426 184.677 149.338 184.177 149.163C183.678 149 183.286 148.771 183.002 148.474L184.015 147.035C184.245 147.265 184.515 147.441 184.826 147.562C185.123 147.697 185.461 147.765 185.839 147.765C186.284 147.765 186.683 147.643 187.034 147.4C187.399 147.17 187.77 146.758 188.148 146.164L189.161 144.604L189.384 144.381L195.522 134.637H197.488L189.87 146.549C189.398 147.278 188.952 147.852 188.533 148.271C188.114 148.69 187.676 148.987 187.216 149.163C186.771 149.338 186.264 149.426 185.697 149.426ZM188.797 145.718L186.102 134.637H188.047L190.336 144.199L188.797 145.718ZM203.571 145.496C202.652 145.496 201.862 145.334 201.2 145.009C200.552 144.672 200.052 144.192 199.701 143.571C199.35 142.936 199.174 142.173 199.174 141.282C199.174 139.931 199.404 138.756 199.863 137.757C200.323 136.744 200.978 135.954 201.828 135.386C202.693 134.819 203.719 134.536 204.908 134.536C205.826 134.536 206.637 134.718 207.339 135.083C208.055 135.447 208.615 135.981 209.02 136.683C209.439 137.372 209.648 138.196 209.648 139.155C209.648 140.073 209.493 140.917 209.182 141.687C208.885 142.457 208.46 143.125 207.906 143.693C207.366 144.26 206.724 144.706 205.982 145.03C205.239 145.34 204.435 145.496 203.571 145.496ZM196.602 149.304L199.519 134.637H201.383L200.815 137.412L200.187 139.904L199.904 142.457L198.546 149.304H196.602ZM203.49 143.794C204.3 143.794 205.016 143.598 205.637 143.206C206.272 142.815 206.772 142.281 207.136 141.606C207.501 140.917 207.683 140.134 207.683 139.256C207.683 138.31 207.406 137.574 206.853 137.048C206.299 136.507 205.509 136.237 204.482 136.237C203.685 136.237 202.963 136.433 202.315 136.825C201.68 137.203 201.18 137.736 200.815 138.425C200.464 139.101 200.289 139.884 200.289 140.775C200.289 141.707 200.566 142.443 201.119 142.984C201.673 143.524 202.463 143.794 203.49 143.794ZM216.504 145.496C215.478 145.496 214.586 145.307 213.83 144.928C213.087 144.537 212.506 143.996 212.088 143.308C211.669 142.605 211.46 141.788 211.46 140.856C211.46 139.641 211.73 138.56 212.27 137.615C212.81 136.656 213.553 135.906 214.499 135.366C215.457 134.812 216.545 134.536 217.76 134.536C218.773 134.536 219.658 134.725 220.414 135.103C221.17 135.481 221.751 136.014 222.156 136.703C222.575 137.392 222.784 138.209 222.784 139.155C222.784 140.37 222.514 141.457 221.974 142.416C221.434 143.362 220.691 144.111 219.746 144.665C218.814 145.219 217.733 145.496 216.504 145.496ZM216.626 143.794C217.436 143.794 218.159 143.598 218.793 143.206C219.428 142.815 219.921 142.281 220.272 141.606C220.637 140.917 220.819 140.134 220.819 139.256C220.819 138.31 220.542 137.574 219.989 137.048C219.435 136.507 218.645 136.237 217.618 136.237C216.822 136.237 216.106 136.433 215.471 136.825C214.836 137.203 214.336 137.736 213.972 138.425C213.607 139.101 213.425 139.884 213.425 140.775C213.425 141.707 213.702 142.443 214.255 142.984C214.809 143.524 215.599 143.794 216.626 143.794ZM232.315 145.374L229.276 140.107L230.897 139.377L234.564 145.374H232.315ZM224.515 145.374L226.683 134.637H228.628L226.46 145.374H224.515ZM226.805 140.836L227.108 139.175H230.654L230.35 140.836H226.805ZM230.958 140.228L229.114 139.985L234.321 134.637H236.488L230.958 140.228ZM236.584 145.374L238.751 134.637H240.717L239.096 142.659L247.199 134.637H249.043L246.916 145.374H244.93L246.571 137.352L238.468 145.374H236.584ZM256.13 145.374L258.298 134.637H260.263L258.643 142.659L266.746 134.637H268.59L266.463 145.374H264.477L266.118 137.352L258.015 145.374H256.13ZM277.825 145.374L279.688 135.832L280.053 136.339H275.697L276.022 134.637H285.827L285.503 136.339H281.066L281.633 135.832L279.77 145.374H277.825ZM290.44 145.496C289.387 145.496 288.475 145.307 287.706 144.928C286.936 144.537 286.341 143.996 285.923 143.308C285.504 142.605 285.295 141.781 285.295 140.836C285.295 139.621 285.558 138.54 286.085 137.595C286.612 136.649 287.327 135.906 288.232 135.366C289.151 134.812 290.191 134.536 291.352 134.536C292.325 134.536 293.169 134.725 293.884 135.103C294.6 135.467 295.154 135.994 295.546 136.683C295.951 137.372 296.154 138.202 296.154 139.175C296.154 139.418 296.14 139.668 296.113 139.924C296.086 140.168 296.052 140.397 296.012 140.613H286.713L286.956 139.195H295.08L294.29 139.681C294.411 138.925 294.357 138.29 294.128 137.777C293.898 137.25 293.533 136.852 293.034 136.582C292.547 136.298 291.96 136.156 291.271 136.156C290.461 136.156 289.745 136.352 289.124 136.744C288.516 137.122 288.043 137.655 287.706 138.344C287.368 139.02 287.199 139.816 287.199 140.735C287.199 141.707 287.476 142.464 288.03 143.004C288.597 143.531 289.455 143.794 290.603 143.794C291.278 143.794 291.906 143.686 292.487 143.47C293.067 143.24 293.547 142.936 293.925 142.558L294.756 143.956C294.242 144.456 293.601 144.841 292.831 145.111C292.061 145.367 291.264 145.496 290.44 145.496ZM303.002 145.496C301.962 145.496 301.057 145.307 300.287 144.928C299.531 144.537 298.943 143.996 298.525 143.308C298.106 142.605 297.897 141.788 297.897 140.856C297.897 139.641 298.167 138.56 298.707 137.615C299.247 136.656 299.997 135.906 300.956 135.366C301.915 134.812 303.002 134.536 304.218 134.536C305.257 134.536 306.149 134.731 306.892 135.123C307.635 135.501 308.215 136.082 308.634 136.865L306.993 137.777C306.723 137.25 306.338 136.865 305.838 136.622C305.352 136.366 304.765 136.237 304.076 136.237C303.265 136.237 302.543 136.433 301.908 136.825C301.273 137.203 300.773 137.736 300.409 138.425C300.044 139.101 299.862 139.884 299.862 140.775C299.862 141.707 300.139 142.443 300.692 142.984C301.26 143.524 302.057 143.794 303.083 143.794C303.718 143.794 304.312 143.666 304.866 143.409C305.433 143.152 305.906 142.774 306.284 142.274L307.702 143.287C307.216 143.976 306.554 144.516 305.717 144.908C304.879 145.3 303.974 145.496 303.002 145.496ZM311.656 145.374L313.519 135.832L313.884 136.339H309.528L309.853 134.637H319.658L319.334 136.339H314.897L315.464 135.832L313.6 145.374H311.656ZM330.135 145.374L332.262 134.637H334.207L332.08 145.374H330.135ZM325.617 138.263C326.833 138.263 327.745 138.513 328.352 139.013C328.974 139.499 329.284 140.235 329.284 141.221C329.284 142.058 329.075 142.794 328.656 143.429C328.238 144.05 327.643 144.53 326.873 144.868C326.117 145.205 325.219 145.374 324.179 145.374H319.499L321.647 134.677H323.571L322.862 138.263H325.617ZM324.179 143.915C324.814 143.915 325.367 143.814 325.84 143.612C326.313 143.395 326.678 143.098 326.934 142.72C327.204 142.342 327.339 141.896 327.339 141.383C327.339 140.262 326.57 139.702 325.03 139.702H322.579L321.748 143.915H324.179ZM51.9874 170.374L54.1349 159.637H64.0821L61.9346 170.374H59.9897L61.8536 160.852L62.2182 161.339H55.2289L55.8164 160.852L53.9323 170.374H51.9874ZM70.8234 170.496C69.7969 170.496 68.9055 170.307 68.1492 169.928C67.4064 169.537 66.8256 168.996 66.4069 168.308C65.9882 167.605 65.7789 166.788 65.7789 165.856C65.7789 164.641 66.049 163.56 66.5893 162.615C67.1295 161.656 67.8723 160.906 68.8178 160.366C69.7767 159.812 70.8639 159.536 72.0795 159.536C73.0924 159.536 73.977 159.725 74.7334 160.103C75.4897 160.481 76.0705 161.014 76.4757 161.703C76.8943 162.392 77.1037 163.209 77.1037 164.155C77.1037 165.37 76.8336 166.457 76.2933 167.416C75.7531 168.362 75.0103 169.111 74.0648 169.665C73.1329 170.219 72.0524 170.496 70.8234 170.496ZM70.9449 168.794C71.7553 168.794 72.4779 168.598 73.1127 168.206C73.7474 167.815 74.2404 167.281 74.5916 166.606C74.9562 165.917 75.1386 165.134 75.1386 164.256C75.1386 163.31 74.8617 162.574 74.3079 162.048C73.7542 161.507 72.9641 161.237 71.9376 161.237C71.1408 161.237 70.425 161.433 69.7902 161.825C69.1554 162.203 68.6557 162.736 68.291 163.425C67.9264 164.101 67.744 164.884 67.744 165.775C67.744 166.707 68.0209 167.443 68.5746 167.984C69.1284 168.524 69.9185 168.794 70.9449 168.794ZM78.8346 170.374L80.982 159.637H82.9674L85.986 167.578H85.1756L91.5167 159.637H93.34L91.2128 170.374H89.4503L91.152 161.825L91.4559 162.007L85.7024 169.159H84.8515L81.9544 161.865L82.3191 161.784L80.6174 170.374H78.8346ZM100.104 170.496C99.0775 170.496 98.1861 170.307 97.4298 169.928C96.687 169.537 96.1062 168.996 95.6875 168.308C95.2688 167.605 95.0595 166.788 95.0595 165.856C95.0595 164.641 95.3296 163.56 95.8698 162.615C96.4101 161.656 97.1529 160.906 98.0983 160.366C99.0573 159.812 100.144 159.536 101.36 159.536C102.373 159.536 103.258 159.725 104.014 160.103C104.77 160.481 105.351 161.014 105.756 161.703C106.175 162.392 106.384 163.209 106.384 164.155C106.384 165.37 106.114 166.457 105.574 167.416C105.034 168.362 104.291 169.111 103.345 169.665C102.413 170.219 101.333 170.496 100.104 170.496ZM100.226 168.794C101.036 168.794 101.758 168.598 102.393 168.206C103.028 167.815 103.521 167.281 103.872 166.606C104.237 165.917 104.419 165.134 104.419 164.256C104.419 163.31 104.142 162.574 103.589 162.048C103.035 161.507 102.245 161.237 101.218 161.237C100.421 161.237 99.7055 161.433 99.0708 161.825C98.436 162.203 97.9363 162.736 97.5716 163.425C97.2069 164.101 97.0246 164.884 97.0246 165.775C97.0246 166.707 97.3015 167.443 97.8552 167.984C98.409 168.524 99.1991 168.794 100.226 168.794ZM108.115 170.374L110.263 159.637H118.164L117.819 161.339H111.377L111.944 160.893L110.06 170.374H108.115ZM115.532 170.354L115.998 168.713C116.092 168.726 116.18 168.74 116.261 168.753C116.342 168.767 116.417 168.774 116.484 168.774C116.97 168.774 117.389 168.558 117.74 168.125C118.091 167.693 118.402 167.085 118.672 166.302C118.942 165.519 119.212 164.614 119.482 163.587L120.455 159.637H128.68L126.533 170.374H124.588L126.512 160.731L126.897 161.339H121.387L121.914 160.731L121.184 163.729C120.914 164.837 120.63 165.816 120.333 166.667C120.05 167.504 119.739 168.213 119.401 168.794C119.064 169.361 118.679 169.793 118.247 170.09C117.828 170.388 117.335 170.536 116.768 170.536C116.565 170.536 116.369 170.516 116.18 170.475C115.978 170.448 115.762 170.408 115.532 170.354ZM130.313 170.374L132.481 159.637H134.446L132.825 167.659L140.929 159.637H142.772L140.645 170.374H138.66L140.301 162.352L132.197 170.374H130.313ZM149.86 170.374L152.007 159.637H153.993L157.011 167.578H156.201L162.542 159.637H164.365L162.238 170.374H160.475L162.177 161.825L162.481 162.007L156.728 169.159H155.877L152.98 161.865L153.344 161.784L151.643 170.374H149.86ZM166.004 170.374L168.151 159.637H170.096L169.184 164.195H175.303L176.214 159.637H178.159L176.012 170.374H174.067L174.978 165.877H168.86L167.948 170.374H166.004ZM185.02 170.496C183.967 170.496 183.055 170.307 182.286 169.928C181.516 169.537 180.921 168.996 180.503 168.308C180.084 167.605 179.875 166.781 179.875 165.836C179.875 164.621 180.138 163.54 180.665 162.595C181.192 161.649 181.907 160.906 182.812 160.366C183.731 159.812 184.771 159.536 185.932 159.536C186.905 159.536 187.749 159.725 188.465 160.103C189.18 160.467 189.734 160.994 190.126 161.683C190.531 162.372 190.734 163.202 190.734 164.175C190.734 164.418 190.72 164.668 190.693 164.924C190.666 165.168 190.632 165.397 190.592 165.613H181.293L181.536 164.195H189.66L188.87 164.681C188.991 163.925 188.937 163.29 188.708 162.777C188.478 162.25 188.113 161.852 187.614 161.582C187.127 161.298 186.54 161.156 185.851 161.156C185.041 161.156 184.325 161.352 183.704 161.744C183.096 162.122 182.623 162.655 182.286 163.344C181.948 164.02 181.779 164.816 181.779 165.735C181.779 166.707 182.056 167.464 182.61 168.004C183.177 168.531 184.035 168.794 185.183 168.794C185.858 168.794 186.486 168.686 187.067 168.47C187.647 168.24 188.127 167.936 188.505 167.558L189.336 168.956C188.822 169.456 188.181 169.841 187.411 170.111C186.641 170.367 185.844 170.496 185.02 170.496ZM196.054 170.354L196.52 168.713C196.614 168.726 196.702 168.74 196.783 168.753C196.864 168.767 196.938 168.774 197.006 168.774C197.492 168.774 197.911 168.558 198.262 168.125C198.613 167.693 198.924 167.085 199.194 166.302C199.464 165.519 199.734 164.614 200.004 163.587L200.977 159.637H209.202L207.054 170.374H205.109L207.034 160.731L207.419 161.339H201.908L202.435 160.731L201.706 163.729C201.436 164.837 201.152 165.816 200.855 166.667C200.571 167.504 200.261 168.213 199.923 168.794C199.585 169.361 199.2 169.793 198.768 170.09C198.35 170.388 197.857 170.536 197.289 170.536C197.087 170.536 196.891 170.516 196.702 170.475C196.499 170.448 196.283 170.408 196.054 170.354ZM210.754 174.426C210.24 174.426 209.734 174.338 209.234 174.163C208.734 174 208.343 173.771 208.059 173.474L209.072 172.035C209.302 172.265 209.572 172.441 209.882 172.562C210.18 172.697 210.517 172.765 210.895 172.765C211.341 172.765 211.739 172.643 212.091 172.4C212.455 172.17 212.827 171.758 213.205 171.164L214.218 169.604L214.441 169.381L220.579 159.637H222.544L214.927 171.549C214.454 172.278 214.008 172.852 213.59 173.271C213.171 173.69 212.732 173.987 212.273 174.163C211.827 174.338 211.321 174.426 210.754 174.426ZM213.853 170.718L211.159 159.637H213.104L215.393 169.199L213.853 170.718ZM230.126 166.018C229.505 166.275 228.877 166.478 228.242 166.626C227.621 166.775 227.013 166.849 226.419 166.849C225.082 166.849 224.089 166.532 223.441 165.897C222.793 165.262 222.597 164.31 222.854 163.04L223.522 159.637H225.467L224.778 163.081C224.643 163.837 224.758 164.391 225.123 164.742C225.501 165.08 226.075 165.249 226.845 165.249C227.398 165.249 227.966 165.174 228.546 165.026C229.127 164.877 229.715 164.681 230.309 164.438L230.126 166.018ZM229.033 170.374L231.18 159.637H233.125L230.977 170.374H229.033ZM242.249 168.672L241.723 169.179L243.587 159.637H245.531L243.668 169.179L243.283 168.672H248.935L248.368 169.179L250.231 159.637H252.176L250.049 170.374H234.754L236.901 159.637H238.846L236.962 169.179L236.617 168.672H242.249ZM259.073 170.496C258.019 170.496 257.108 170.307 256.338 169.928C255.568 169.537 254.974 168.996 254.555 168.308C254.136 167.605 253.927 166.781 253.927 165.836C253.927 164.621 254.19 163.54 254.717 162.595C255.244 161.649 255.96 160.906 256.864 160.366C257.783 159.812 258.823 159.536 259.984 159.536C260.957 159.536 261.801 159.725 262.517 160.103C263.232 160.467 263.786 160.994 264.178 161.683C264.583 162.372 264.786 163.202 264.786 164.175C264.786 164.418 264.772 164.668 264.745 164.924C264.718 165.168 264.684 165.397 264.644 165.613H255.345L255.588 164.195H263.712L262.922 164.681C263.043 163.925 262.989 163.29 262.76 162.777C262.53 162.25 262.166 161.852 261.666 161.582C261.18 161.298 260.592 161.156 259.903 161.156C259.093 161.156 258.377 161.352 257.756 161.744C257.148 162.122 256.675 162.655 256.338 163.344C256 164.02 255.831 164.816 255.831 165.735C255.831 166.707 256.108 167.464 256.662 168.004C257.229 168.531 258.087 168.794 259.235 168.794C259.91 168.794 260.538 168.686 261.119 168.47C261.7 168.24 262.179 167.936 262.557 167.558L263.388 168.956C262.875 169.456 262.233 169.841 261.463 170.111C260.693 170.367 259.897 170.496 259.073 170.496ZM271.889 170.374L274.036 159.637H283.983L281.836 170.374H279.891L281.755 160.852L282.119 161.339H275.13L275.717 160.852L273.833 170.374H271.889ZM290.724 170.496C289.698 170.496 288.807 170.307 288.05 169.928C287.307 169.537 286.727 168.996 286.308 168.308C285.889 167.605 285.68 166.788 285.68 165.856C285.68 164.641 285.95 163.56 286.49 162.615C287.031 161.656 287.773 160.906 288.719 160.366C289.678 159.812 290.765 159.536 291.981 159.536C292.993 159.536 293.878 159.725 294.634 160.103C295.391 160.481 295.972 161.014 296.377 161.703C296.795 162.392 297.005 163.209 297.005 164.155C297.005 165.37 296.735 166.457 296.194 167.416C295.654 168.362 294.911 169.111 293.966 169.665C293.034 170.219 291.954 170.496 290.724 170.496ZM290.846 168.794C291.656 168.794 292.379 168.598 293.014 168.206C293.649 167.815 294.141 167.281 294.493 166.606C294.857 165.917 295.04 165.134 295.04 164.256C295.04 163.31 294.763 162.574 294.209 162.048C293.655 161.507 292.865 161.237 291.839 161.237C291.042 161.237 290.326 161.433 289.691 161.825C289.056 162.203 288.557 162.736 288.192 163.425C287.827 164.101 287.645 164.884 287.645 165.775C287.645 166.707 287.922 167.443 288.476 167.984C289.029 168.524 289.82 168.794 290.846 168.794ZM298.736 170.374L300.883 159.637H302.828L301.916 164.195H308.035L308.946 159.637H310.891L308.744 170.374H306.799L307.71 165.877H301.592L300.681 170.374H298.736ZM319.414 170.374L320.143 166.565L320.406 167.052H317.023C315.74 167.052 314.754 166.761 314.065 166.18C313.377 165.586 313.032 164.796 313.032 163.81C313.032 162.514 313.518 161.494 314.491 160.751C315.477 160.008 316.821 159.637 318.522 159.637H323.283L321.156 170.374H319.414ZM311.634 170.374L315.382 166.262H317.388L313.822 170.374H311.634ZM320.265 166.039L321.338 160.69L321.541 161.318H318.36C317.307 161.318 316.49 161.534 315.909 161.967C315.328 162.385 315.038 162.993 315.038 163.79C315.038 164.938 315.808 165.512 317.347 165.512H320.65L320.265 166.039ZM327.077 170.374L328.941 160.832L329.306 161.339H324.95L325.274 159.637H335.08L334.755 161.339H330.319L330.886 160.832L329.022 170.374H327.077ZM341.161 163.263C342.376 163.263 343.288 163.513 343.896 164.013C344.517 164.499 344.828 165.235 344.828 166.221C344.828 167.058 344.618 167.794 344.2 168.429C343.781 169.05 343.187 169.53 342.417 169.868C341.66 170.205 340.762 170.374 339.722 170.374H334.921L337.089 159.637H339.013L338.284 163.263H341.161ZM339.722 168.915C340.357 168.915 340.911 168.814 341.384 168.612C341.856 168.395 342.221 168.098 342.477 167.72C342.748 167.342 342.883 166.896 342.883 166.383C342.883 165.262 342.113 164.702 340.573 164.702H338L337.17 168.915H339.722ZM77.8256 195.374L79.973 184.637H81.9584L84.977 192.578H84.1666L90.5077 184.637H92.331L90.2038 195.374H88.4413L90.143 186.825L90.4469 187.007L84.6934 194.159H83.8425L80.9455 186.865L81.3101 186.784L79.6084 195.374H77.8256ZM98.8114 195.496C97.9065 195.496 97.0961 195.313 96.3803 194.949C95.6645 194.57 95.0972 194.037 94.6785 193.348C94.2733 192.659 94.0708 191.829 94.0708 190.856C94.0708 189.938 94.2193 189.094 94.5164 188.324C94.8271 187.554 95.2525 186.886 95.7928 186.318C96.3465 185.751 96.9948 185.312 97.7376 185.001C98.4805 184.691 99.2841 184.536 100.148 184.536C101.08 184.536 101.87 184.698 102.519 185.022C103.167 185.346 103.667 185.825 104.018 186.46C104.369 187.081 104.545 187.844 104.545 188.749C104.545 190.073 104.315 191.248 103.856 192.274C103.397 193.287 102.735 194.078 101.87 194.645C101.02 195.212 99.9999 195.496 98.8114 195.496ZM99.2368 193.794C100.047 193.794 100.77 193.598 101.405 193.206C102.039 192.815 102.532 192.281 102.883 191.606C103.248 190.917 103.43 190.134 103.43 189.256C103.43 188.31 103.154 187.574 102.6 187.048C102.046 186.507 101.256 186.237 100.229 186.237C99.4326 186.237 98.7168 186.433 98.082 186.825C97.4472 187.203 96.9475 187.736 96.5829 188.425C96.2182 189.101 96.0359 189.884 96.0359 190.775C96.0359 191.707 96.3127 192.443 96.8665 192.984C97.4202 193.524 98.2103 193.794 99.2368 193.794ZM102.336 195.374L102.904 192.599L103.552 190.107L103.815 187.554L104.383 184.637H106.327L104.2 195.374H102.336ZM110.124 195.374L111.988 185.832L112.353 186.339H107.997L108.321 184.637H118.126L117.802 186.339H113.366L113.933 185.832L112.069 195.374H110.124ZM122.74 195.496C121.686 195.496 120.775 195.307 120.005 194.928C119.235 194.537 118.641 193.996 118.222 193.308C117.803 192.605 117.594 191.781 117.594 190.836C117.594 189.621 117.858 188.54 118.384 187.595C118.911 186.649 119.627 185.906 120.532 185.366C121.45 184.812 122.49 184.536 123.652 184.536C124.624 184.536 125.468 184.725 126.184 185.103C126.9 185.467 127.454 185.994 127.845 186.683C128.25 187.372 128.453 188.202 128.453 189.175C128.453 189.418 128.439 189.668 128.412 189.924C128.385 190.168 128.352 190.397 128.311 190.613H119.012L119.255 189.195H127.379L126.589 189.681C126.711 188.925 126.657 188.29 126.427 187.777C126.197 187.25 125.833 186.852 125.333 186.582C124.847 186.298 124.259 186.156 123.571 186.156C122.76 186.156 122.044 186.352 121.423 186.744C120.815 187.122 120.343 187.655 120.005 188.344C119.667 189.02 119.498 189.816 119.498 190.735C119.498 191.707 119.775 192.464 120.329 193.004C120.896 193.531 121.754 193.794 122.902 193.794C123.577 193.794 124.205 193.686 124.786 193.47C125.367 193.24 125.846 192.936 126.224 192.558L127.055 193.956C126.542 194.456 125.9 194.841 125.13 195.111C124.361 195.367 123.564 195.496 122.74 195.496ZM136.314 195.496C135.396 195.496 134.606 195.334 133.944 195.009C133.296 194.672 132.796 194.192 132.445 193.571C132.094 192.936 131.918 192.173 131.918 191.282C131.918 189.931 132.148 188.756 132.607 187.757C133.066 186.744 133.721 185.954 134.572 185.386C135.437 184.819 136.463 184.536 137.651 184.536C138.57 184.536 139.38 184.718 140.083 185.083C140.798 185.447 141.359 185.981 141.764 186.683C142.183 187.372 142.392 188.196 142.392 189.155C142.392 190.073 142.237 190.917 141.926 191.687C141.629 192.457 141.204 193.125 140.65 193.693C140.11 194.26 139.468 194.706 138.725 195.03C137.982 195.34 137.179 195.496 136.314 195.496ZM129.345 199.304L132.263 184.637H134.126L133.559 187.412L132.931 189.904L132.648 192.457L131.29 199.304H129.345ZM136.233 193.794C137.044 193.794 137.76 193.598 138.381 193.206C139.016 192.815 139.515 192.281 139.88 191.606C140.245 190.917 140.427 190.134 140.427 189.256C140.427 188.31 140.15 187.574 139.596 187.048C139.043 186.507 138.253 186.237 137.226 186.237C136.429 186.237 135.707 186.433 135.058 186.825C134.424 187.203 133.924 187.736 133.559 188.425C133.208 189.101 133.032 189.884 133.032 190.775C133.032 191.707 133.309 192.443 133.863 192.984C134.417 193.524 135.207 193.794 136.233 193.794ZM144.122 195.374L146.29 184.637H148.255L146.634 192.659L154.738 184.637H156.582L154.454 195.374H152.469L154.11 187.352L146.006 195.374H144.122ZM163.07 195.496C162.165 195.496 161.355 195.313 160.639 194.949C159.923 194.57 159.356 194.037 158.938 193.348C158.532 192.659 158.33 191.829 158.33 190.856C158.33 189.938 158.478 189.094 158.775 188.324C159.086 187.554 159.512 186.886 160.052 186.318C160.606 185.751 161.254 185.312 161.997 185.001C162.739 184.691 163.543 184.536 164.407 184.536C165.339 184.536 166.129 184.698 166.778 185.022C167.426 185.346 167.926 185.825 168.277 186.46C168.628 187.081 168.804 187.844 168.804 188.749C168.804 190.073 168.574 191.248 168.115 192.274C167.656 193.287 166.994 194.078 166.129 194.645C165.279 195.212 164.259 195.496 163.07 195.496ZM163.496 193.794C164.306 193.794 165.029 193.598 165.664 193.206C166.298 192.815 166.791 192.281 167.142 191.606C167.507 190.917 167.689 190.134 167.689 189.256C167.689 188.31 167.413 187.574 166.859 187.048C166.305 186.507 165.515 186.237 164.488 186.237C163.692 186.237 162.976 186.433 162.341 186.825C161.706 187.203 161.207 187.736 160.842 188.425C160.477 189.101 160.295 189.884 160.295 190.775C160.295 191.707 160.572 192.443 161.125 192.984C161.679 193.524 162.469 193.794 163.496 193.794ZM166.595 195.374L167.163 192.599L167.811 190.107L168.074 187.554L168.642 184.637H170.586L168.459 195.374H166.595ZM170.453 195.354L170.919 193.713C171.013 193.726 171.101 193.74 171.182 193.753C171.263 193.767 171.338 193.774 171.405 193.774C171.891 193.774 172.31 193.558 172.661 193.125C173.012 192.693 173.323 192.085 173.593 191.302C173.863 190.519 174.133 189.614 174.403 188.587L175.376 184.637H183.601L181.453 195.374H179.509L181.433 185.731L181.818 186.339H176.308L176.834 185.731L176.105 188.729C175.835 189.837 175.551 190.816 175.254 191.667C174.971 192.504 174.66 193.213 174.322 193.794C173.985 194.361 173.6 194.793 173.168 195.09C172.749 195.388 172.256 195.536 171.689 195.536C171.486 195.536 171.29 195.516 171.101 195.475C170.899 195.448 170.682 195.408 170.453 195.354ZM185.842 195.496C185.477 195.496 185.166 195.374 184.91 195.131C184.667 194.874 184.545 194.564 184.545 194.199C184.545 193.753 184.687 193.395 184.97 193.125C185.254 192.855 185.592 192.72 185.983 192.72C186.348 192.72 186.652 192.842 186.895 193.085C187.138 193.328 187.26 193.645 187.26 194.037C187.26 194.321 187.192 194.577 187.057 194.807C186.922 195.023 186.747 195.192 186.53 195.313C186.328 195.435 186.098 195.496 185.842 195.496ZM202.598 195.536C201.167 195.536 199.944 195.286 198.931 194.787C197.932 194.287 197.162 193.591 196.622 192.7C196.095 191.795 195.832 190.748 195.832 189.56C195.832 188.385 196.034 187.284 196.439 186.258C196.845 185.218 197.425 184.306 198.182 183.523C198.952 182.739 199.863 182.131 200.917 181.699C201.984 181.254 203.186 181.031 204.523 181.031C205.698 181.031 206.738 181.22 207.643 181.598C208.548 181.976 209.243 182.523 209.729 183.239L208.271 184.495C207.852 183.955 207.319 183.543 206.67 183.259C206.022 182.976 205.259 182.834 204.381 182.834C203.368 182.834 202.456 183.009 201.646 183.361C200.849 183.698 200.167 184.178 199.6 184.799C199.033 185.407 198.6 186.109 198.303 186.906C198.006 187.703 197.858 188.547 197.858 189.438C197.858 190.289 198.04 191.039 198.405 191.687C198.783 192.322 199.33 192.821 200.046 193.186C200.775 193.551 201.673 193.733 202.74 193.733C203.604 193.733 204.394 193.591 205.11 193.308C205.84 193.024 206.481 192.605 207.035 192.052L208.21 193.389C207.562 194.105 206.751 194.645 205.779 195.009C204.806 195.361 203.746 195.536 202.598 195.536ZM210.162 195.374L212.309 184.637H222.257L220.109 195.374H218.164L220.028 185.852L220.393 186.339H213.403L213.991 185.852L212.107 195.374H210.162ZM228.714 195.496C227.809 195.496 226.999 195.313 226.283 194.949C225.567 194.57 225 194.037 224.581 193.348C224.176 192.659 223.974 191.829 223.974 190.856C223.974 189.938 224.122 189.094 224.419 188.324C224.73 187.554 225.155 186.886 225.696 186.318C226.249 185.751 226.898 185.312 227.641 185.001C228.383 184.691 229.187 184.536 230.051 184.536C230.983 184.536 231.773 184.698 232.422 185.022C233.07 185.346 233.57 185.825 233.921 186.46C234.272 187.081 234.448 187.844 234.448 188.749C234.448 190.073 234.218 191.248 233.759 192.274C233.3 193.287 232.638 194.078 231.773 194.645C230.922 195.212 229.903 195.496 228.714 195.496ZM229.14 193.794C229.95 193.794 230.673 193.598 231.307 193.206C231.942 192.815 232.435 192.281 232.786 191.606C233.151 190.917 233.333 190.134 233.333 189.256C233.333 188.31 233.056 187.574 232.503 187.048C231.949 186.507 231.159 186.237 230.132 186.237C229.336 186.237 228.62 186.433 227.985 186.825C227.35 187.203 226.85 187.736 226.486 188.425C226.121 189.101 225.939 189.884 225.939 190.775C225.939 191.707 226.216 192.443 226.769 192.984C227.323 193.524 228.113 193.794 229.14 193.794ZM232.239 195.374L232.807 192.599L233.455 190.107L233.718 187.554L234.285 184.637H236.23L234.103 195.374H232.239ZM243.066 195.496C242.026 195.496 241.121 195.307 240.351 194.928C239.595 194.537 239.007 193.996 238.589 193.308C238.17 192.605 237.961 191.788 237.961 190.856C237.961 189.641 238.231 188.56 238.771 187.615C239.311 186.656 240.061 185.906 241.02 185.366C241.979 184.812 243.066 184.536 244.281 184.536C245.321 184.536 246.213 184.731 246.956 185.123C247.698 185.501 248.279 186.082 248.698 186.865L247.057 187.777C246.787 187.25 246.402 186.865 245.902 186.622C245.416 186.366 244.828 186.237 244.14 186.237C243.329 186.237 242.607 186.433 241.972 186.825C241.337 187.203 240.837 187.736 240.473 188.425C240.108 189.101 239.926 189.884 239.926 190.775C239.926 191.707 240.203 192.443 240.756 192.984C241.324 193.524 242.12 193.794 243.147 193.794C243.782 193.794 244.376 193.666 244.93 193.409C245.497 193.152 245.97 192.774 246.348 192.274L247.766 193.287C247.28 193.976 246.618 194.516 245.781 194.908C244.943 195.3 244.038 195.496 243.066 195.496ZM249.71 195.374L251.878 184.637H253.843L252.223 192.659L260.326 184.637H262.17L260.043 195.374H258.057L259.698 187.352L251.595 195.374H249.71ZM269.226 195.536C267.673 195.536 266.457 195.09 265.579 194.199C264.715 193.308 264.283 191.991 264.283 190.249C264.283 189.128 264.451 188.061 264.789 187.048C265.14 186.035 265.633 185.116 266.268 184.292C266.903 183.455 267.652 182.759 268.517 182.206C269.395 181.652 270.367 181.267 271.434 181.051L276.519 180.018L276.539 181.679L271.88 182.611C270.813 182.827 269.881 183.225 269.084 183.806C268.301 184.387 267.666 185.13 267.18 186.035C266.707 186.926 266.396 187.966 266.248 189.155L265.721 188.709C266.356 187.615 267.146 186.791 268.091 186.237C269.037 185.67 270.097 185.386 271.272 185.386C272.622 185.386 273.683 185.758 274.453 186.501C275.236 187.243 275.628 188.277 275.628 189.6C275.628 190.721 275.351 191.734 274.797 192.639C274.257 193.531 273.5 194.24 272.528 194.766C271.569 195.28 270.468 195.536 269.226 195.536ZM269.368 194.017C270.164 194.017 270.873 193.834 271.495 193.47C272.13 193.105 272.629 192.619 272.994 192.011C273.359 191.39 273.541 190.694 273.541 189.924C273.541 189.02 273.278 188.324 272.751 187.838C272.238 187.352 271.522 187.108 270.603 187.108C270.023 187.108 269.469 187.21 268.942 187.412C268.415 187.615 267.943 187.892 267.524 188.243C267.119 188.594 266.801 189.006 266.572 189.479C266.342 189.951 266.227 190.458 266.227 190.998C266.227 191.903 266.504 192.632 267.058 193.186C267.625 193.74 268.395 194.017 269.368 194.017ZM282.455 195.496C281.428 195.496 280.537 195.307 279.781 194.928C279.038 194.537 278.457 193.996 278.038 193.308C277.62 192.605 277.41 191.788 277.41 190.856C277.41 189.641 277.68 188.56 278.221 187.615C278.761 186.656 279.504 185.906 280.449 185.366C281.408 184.812 282.495 184.536 283.711 184.536C284.724 184.536 285.608 184.725 286.365 185.103C287.121 185.481 287.702 186.014 288.107 186.703C288.526 187.392 288.735 188.209 288.735 189.155C288.735 190.37 288.465 191.457 287.925 192.416C287.384 193.362 286.642 194.111 285.696 194.665C284.764 195.219 283.684 195.496 282.455 195.496ZM282.576 193.794C283.387 193.794 284.109 193.598 284.744 193.206C285.379 192.815 285.872 192.281 286.223 191.606C286.588 190.917 286.77 190.134 286.77 189.256C286.77 188.31 286.493 187.574 285.939 187.048C285.386 186.507 284.595 186.237 283.569 186.237C282.772 186.237 282.056 186.433 281.421 186.825C280.787 187.203 280.287 187.736 279.922 188.425C279.558 189.101 279.375 189.884 279.375 190.775C279.375 191.707 279.652 192.443 280.206 192.984C280.76 193.524 281.55 193.794 282.576 193.794ZM299.107 195.516C297.473 195.516 296.075 195.09 294.914 194.24L295.663 192.862C296.082 193.186 296.595 193.436 297.203 193.612C297.824 193.774 298.479 193.855 299.168 193.855C299.83 193.855 300.404 193.774 300.89 193.612C301.39 193.436 301.782 193.206 302.065 192.923C302.349 192.639 302.491 192.315 302.491 191.95C302.491 191.505 302.295 191.16 301.903 190.917C301.525 190.674 300.985 190.552 300.282 190.552H298.338L298.56 189.134H300.201C301.012 189.134 301.66 188.993 302.146 188.709C302.646 188.412 302.896 188.027 302.896 187.554C302.896 187.135 302.693 186.805 302.288 186.561C301.896 186.305 301.336 186.177 300.607 186.177C300.066 186.177 299.526 186.251 298.986 186.399C298.459 186.548 297.878 186.757 297.244 187.027L296.778 185.407C297.439 185.096 298.108 184.866 298.783 184.718C299.459 184.569 300.12 184.495 300.769 184.495C301.593 184.495 302.315 184.61 302.936 184.839C303.558 185.056 304.037 185.373 304.375 185.792C304.726 186.197 304.901 186.676 304.901 187.23C304.901 187.716 304.76 188.155 304.476 188.547C304.206 188.938 303.821 189.263 303.321 189.519C302.835 189.776 302.254 189.938 301.579 190.005L301.539 189.641C302.457 189.749 303.166 190.012 303.666 190.431C304.179 190.85 304.436 191.403 304.436 192.092C304.436 192.74 304.206 193.328 303.747 193.855C303.288 194.368 302.653 194.773 301.842 195.07C301.046 195.367 300.134 195.516 299.107 195.516ZM311.551 195.496C310.646 195.496 309.835 195.313 309.119 194.949C308.404 194.57 307.836 194.037 307.418 193.348C307.013 192.659 306.81 191.829 306.81 190.856C306.81 189.938 306.959 189.094 307.256 188.324C307.566 187.554 307.992 186.886 308.532 186.318C309.086 185.751 309.734 185.312 310.477 185.001C311.22 184.691 312.023 184.536 312.888 184.536C313.82 184.536 314.61 184.698 315.258 185.022C315.906 185.346 316.406 185.825 316.757 186.46C317.108 187.081 317.284 187.844 317.284 188.749C317.284 190.073 317.054 191.248 316.595 192.274C316.136 193.287 315.474 194.078 314.61 194.645C313.759 195.212 312.739 195.496 311.551 195.496ZM311.976 193.794C312.786 193.794 313.509 193.598 314.144 193.206C314.779 192.815 315.271 192.281 315.623 191.606C315.987 190.917 316.17 190.134 316.17 189.256C316.17 188.31 315.893 187.574 315.339 187.048C314.785 186.507 313.995 186.237 312.969 186.237C312.172 186.237 311.456 186.433 310.821 186.825C310.186 187.203 309.687 187.736 309.322 188.425C308.957 189.101 308.775 189.884 308.775 190.775C308.775 191.707 309.052 192.443 309.606 192.984C310.159 193.524 310.95 193.794 311.976 193.794ZM315.076 195.374L315.643 192.599L316.291 190.107L316.555 187.554L317.122 184.637H319.067L316.939 195.374H315.076ZM103.998 224.426C103.485 224.426 102.978 224.338 102.479 224.163C101.979 224 101.587 223.771 101.304 223.474L102.317 222.035C102.546 222.265 102.816 222.441 103.127 222.562C103.424 222.697 103.762 222.765 104.14 222.765C104.586 222.765 104.984 222.643 105.335 222.4C105.7 222.17 106.071 221.758 106.449 221.164L107.462 219.604L107.685 219.381L113.824 209.637H115.789L108.171 221.549C107.699 222.278 107.253 222.852 106.834 223.271C106.416 223.69 105.977 223.987 105.518 224.163C105.072 224.338 104.565 224.426 103.998 224.426ZM107.098 220.718L104.403 209.637H106.348L108.637 219.199L107.098 220.718ZM122.635 219.462L124.256 211.339H119.596L119.089 213.486C118.914 214.148 118.738 214.796 118.563 215.431C118.387 216.052 118.185 216.626 117.955 217.153C117.725 217.666 117.462 218.092 117.165 218.429C116.868 218.753 116.51 218.949 116.091 219.017L114.086 218.672C114.504 218.686 114.876 218.544 115.2 218.247C115.524 217.95 115.814 217.545 116.071 217.031C116.328 216.505 116.557 215.91 116.76 215.249C116.976 214.587 117.172 213.905 117.347 213.202L118.198 209.637H126.545L124.58 219.462H122.635ZM112.911 222.866L113.741 218.672H126.383L125.552 222.866H123.729L124.215 220.374H115.24L114.734 222.866H112.911ZM133.678 220.496C132.651 220.496 131.76 220.307 131.004 219.928C130.261 219.537 129.68 218.996 129.261 218.308C128.843 217.605 128.633 216.788 128.633 215.856C128.633 214.641 128.903 213.56 129.444 212.615C129.984 211.656 130.727 210.906 131.672 210.366C132.631 209.812 133.718 209.536 134.934 209.536C135.947 209.536 136.831 209.725 137.588 210.103C138.344 210.481 138.925 211.014 139.33 211.703C139.749 212.392 139.958 213.209 139.958 214.155C139.958 215.37 139.688 216.457 139.148 217.416C138.607 218.362 137.865 219.111 136.919 219.665C135.987 220.219 134.907 220.496 133.678 220.496ZM133.799 218.794C134.61 218.794 135.332 218.598 135.967 218.206C136.602 217.815 137.095 217.281 137.446 216.606C137.811 215.917 137.993 215.134 137.993 214.256C137.993 213.31 137.716 212.574 137.162 212.048C136.609 211.507 135.818 211.237 134.792 211.237C133.995 211.237 133.279 211.433 132.645 211.825C132.01 212.203 131.51 212.736 131.145 213.425C130.781 214.101 130.598 214.884 130.598 215.775C130.598 216.707 130.875 217.443 131.429 217.984C131.983 218.524 132.773 218.794 133.799 218.794ZM147.098 220.536C145.545 220.536 144.329 220.09 143.451 219.199C142.587 218.308 142.155 216.991 142.155 215.249C142.155 214.128 142.324 213.061 142.661 212.048C143.012 211.035 143.505 210.116 144.14 209.292C144.775 208.455 145.525 207.759 146.389 207.206C147.267 206.652 148.239 206.267 149.306 206.051L154.391 205.018L154.412 206.679L149.752 207.611C148.685 207.827 147.753 208.225 146.956 208.806C146.173 209.387 145.538 210.13 145.052 211.035C144.579 211.926 144.269 212.966 144.12 214.155L143.593 213.709C144.228 212.615 145.018 211.791 145.964 211.237C146.909 210.67 147.969 210.386 149.144 210.386C150.495 210.386 151.555 210.758 152.325 211.501C153.108 212.243 153.5 213.277 153.5 214.6C153.5 215.721 153.223 216.734 152.669 217.639C152.129 218.531 151.373 219.24 150.4 219.766C149.441 220.28 148.341 220.536 147.098 220.536ZM147.24 219.017C148.037 219.017 148.746 218.834 149.367 218.47C150.002 218.105 150.502 217.619 150.866 217.011C151.231 216.39 151.413 215.694 151.413 214.924C151.413 214.02 151.15 213.324 150.623 212.838C150.11 212.352 149.394 212.108 148.476 212.108C147.895 212.108 147.341 212.21 146.814 212.412C146.288 212.615 145.815 212.892 145.396 213.243C144.991 213.594 144.674 214.006 144.444 214.479C144.215 214.951 144.1 215.458 144.1 215.998C144.1 216.903 144.377 217.632 144.93 218.186C145.498 218.74 146.267 219.017 147.24 219.017ZM155.201 220.374L157.349 209.637H159.294L158.382 214.195H164.5L165.412 209.637H167.357L165.209 220.374H163.265L164.176 215.877H158.058L157.146 220.374H155.201ZM179.607 220.374L181.734 209.637H183.679L181.552 220.374H179.607ZM175.089 213.263C176.305 213.263 177.217 213.513 177.824 214.013C178.446 214.499 178.756 215.235 178.756 216.221C178.756 217.058 178.547 217.794 178.128 218.429C177.71 219.05 177.115 219.53 176.346 219.868C175.589 220.205 174.691 220.374 173.651 220.374H168.971L171.119 209.677H173.043L172.334 213.263H175.089ZM173.651 218.915C174.286 218.915 174.84 218.814 175.312 218.612C175.785 218.395 176.15 218.098 176.406 217.72C176.676 217.342 176.811 216.896 176.811 216.383C176.811 215.262 176.042 214.702 174.502 214.702H172.051L171.22 218.915H173.651ZM185.313 220.374L187.481 209.637H189.446L187.825 217.659L195.929 209.637H197.772L195.645 220.374H193.66L195.301 212.352L187.197 220.374H185.313ZM192.93 208.178C191.904 208.178 191.148 207.942 190.661 207.469C190.175 206.983 190.013 206.301 190.175 205.423H191.492C191.397 205.95 191.492 206.368 191.776 206.679C192.059 206.976 192.478 207.125 193.032 207.125C193.585 207.125 194.051 206.976 194.43 206.679C194.821 206.382 195.078 205.963 195.199 205.423H196.536C196.361 206.328 195.962 207.017 195.341 207.489C194.72 207.949 193.916 208.178 192.93 208.178ZM211.059 220.496C210.141 220.496 209.35 220.334 208.689 220.009C208.04 219.672 207.541 219.192 207.19 218.571C206.838 217.936 206.663 217.173 206.663 216.282C206.663 214.931 206.892 213.756 207.352 212.757C207.811 211.744 208.466 210.954 209.317 210.386C210.181 209.819 211.208 209.536 212.396 209.536C213.314 209.536 214.125 209.718 214.827 210.083C215.543 210.447 216.103 210.981 216.509 211.683C216.927 212.372 217.137 213.196 217.137 214.155C217.137 215.073 216.981 215.917 216.671 216.687C216.374 217.457 215.948 218.125 215.394 218.693C214.854 219.26 214.213 219.706 213.47 220.03C212.727 220.34 211.923 220.496 211.059 220.496ZM204.09 224.304L207.007 209.637H208.871L208.304 212.412L207.676 214.904L207.392 217.457L206.035 224.304H204.09ZM210.978 218.794C211.788 218.794 212.504 218.598 213.125 218.206C213.76 217.815 214.26 217.281 214.625 216.606C214.989 215.917 215.172 215.134 215.172 214.256C215.172 213.31 214.895 212.574 214.341 212.048C213.787 211.507 212.997 211.237 211.971 211.237C211.174 211.237 210.451 211.433 209.803 211.825C209.168 212.203 208.668 212.736 208.304 213.425C207.953 214.101 207.777 214.884 207.777 215.775C207.777 216.707 208.054 217.443 208.608 217.984C209.161 218.524 209.951 218.794 210.978 218.794ZM224.114 220.496C223.061 220.496 222.149 220.307 221.379 219.928C220.609 219.537 220.015 218.996 219.596 218.308C219.178 217.605 218.968 216.781 218.968 215.836C218.968 214.621 219.232 213.54 219.758 212.595C220.285 211.649 221.001 210.906 221.906 210.366C222.824 209.812 223.864 209.536 225.026 209.536C225.998 209.536 226.842 209.725 227.558 210.103C228.274 210.467 228.828 210.994 229.219 211.683C229.624 212.372 229.827 213.202 229.827 214.175C229.827 214.418 229.814 214.668 229.787 214.924C229.76 215.168 229.726 215.397 229.685 215.613H220.386L220.629 214.195H228.753L227.963 214.681C228.085 213.925 228.031 213.29 227.801 212.777C227.572 212.25 227.207 211.852 226.707 211.582C226.221 211.298 225.633 211.156 224.945 211.156C224.134 211.156 223.418 211.352 222.797 211.744C222.189 212.122 221.717 212.655 221.379 213.344C221.041 214.02 220.873 214.816 220.873 215.735C220.873 216.707 221.149 217.464 221.703 218.004C222.27 218.531 223.128 218.794 224.276 218.794C224.951 218.794 225.579 218.686 226.16 218.47C226.741 218.24 227.22 217.936 227.599 217.558L228.429 218.956C227.916 219.456 227.274 219.841 226.505 220.111C225.735 220.367 224.938 220.496 224.114 220.496ZM236.676 220.496C235.636 220.496 234.731 220.307 233.961 219.928C233.205 219.537 232.617 218.996 232.198 218.308C231.78 217.605 231.57 216.788 231.57 215.856C231.57 214.641 231.84 213.56 232.381 212.615C232.921 211.656 233.67 210.906 234.629 210.366C235.588 209.812 236.676 209.536 237.891 209.536C238.931 209.536 239.822 209.731 240.565 210.123C241.308 210.501 241.889 211.082 242.308 211.865L240.667 212.777C240.396 212.25 240.012 211.865 239.512 211.622C239.026 211.366 238.438 211.237 237.749 211.237C236.939 211.237 236.216 211.433 235.582 211.825C234.947 212.203 234.447 212.736 234.082 213.425C233.718 214.101 233.535 214.884 233.535 215.775C233.535 216.707 233.812 217.443 234.366 217.984C234.933 218.524 235.73 218.794 236.757 218.794C237.391 218.794 237.986 218.666 238.539 218.409C239.107 218.152 239.579 217.774 239.957 217.274L241.376 218.287C240.889 218.976 240.228 219.516 239.39 219.908C238.553 220.3 237.648 220.496 236.676 220.496ZM243.101 224.426C242.587 224.426 242.081 224.338 241.581 224.163C241.082 224 240.69 223.771 240.406 223.474L241.419 222.035C241.649 222.265 241.919 222.441 242.23 222.562C242.527 222.697 242.864 222.765 243.242 222.765C243.688 222.765 244.087 222.643 244.438 222.4C244.802 222.17 245.174 221.758 245.552 221.164L246.565 219.604L246.788 219.381L252.926 209.637H254.891L247.274 221.549C246.801 222.278 246.356 222.852 245.937 223.271C245.518 223.69 245.079 223.987 244.62 224.163C244.174 224.338 243.668 224.426 243.101 224.426ZM246.2 220.718L243.506 209.637H245.451L247.74 219.199L246.2 220.718ZM260.974 220.496C260.056 220.496 259.266 220.334 258.604 220.009C257.956 219.672 257.456 219.192 257.105 218.571C256.754 217.936 256.578 217.173 256.578 216.282C256.578 214.931 256.808 213.756 257.267 212.757C257.726 211.744 258.381 210.954 259.232 210.386C260.097 209.819 261.123 209.536 262.312 209.536C263.23 209.536 264.04 209.718 264.743 210.083C265.458 210.447 266.019 210.981 266.424 211.683C266.843 212.372 267.052 213.196 267.052 214.155C267.052 215.073 266.897 215.917 266.586 216.687C266.289 217.457 265.864 218.125 265.31 218.693C264.77 219.26 264.128 219.706 263.385 220.03C262.642 220.34 261.839 220.496 260.974 220.496ZM254.005 224.304L256.923 209.637H258.786L258.219 212.412L257.591 214.904L257.308 217.457L255.95 224.304H254.005ZM260.893 218.794C261.704 218.794 262.42 218.598 263.041 218.206C263.676 217.815 264.175 217.281 264.54 216.606C264.905 215.917 265.087 215.134 265.087 214.256C265.087 213.31 264.81 212.574 264.256 212.048C263.703 211.507 262.913 211.237 261.886 211.237C261.089 211.237 260.367 211.433 259.718 211.825C259.084 212.203 258.584 212.736 258.219 213.425C257.868 214.101 257.692 214.884 257.692 215.775C257.692 216.707 257.969 217.443 258.523 217.984C259.077 218.524 259.867 218.794 260.893 218.794ZM273.969 220.496C272.929 220.496 272.024 220.307 271.254 219.928C270.498 219.537 269.91 218.996 269.491 218.308C269.073 217.605 268.863 216.788 268.863 215.856C268.863 214.641 269.134 213.56 269.674 212.615C270.214 211.656 270.964 210.906 271.923 210.366C272.881 209.812 273.969 209.536 275.184 209.536C276.224 209.536 277.116 209.731 277.858 210.123C278.601 210.501 279.182 211.082 279.601 211.865L277.96 212.777C277.69 212.25 277.305 211.865 276.805 211.622C276.319 211.366 275.731 211.237 275.042 211.237C274.232 211.237 273.51 211.433 272.875 211.825C272.24 212.203 271.74 212.736 271.376 213.425C271.011 214.101 270.829 214.884 270.829 215.775C270.829 216.707 271.105 217.443 271.659 217.984C272.226 218.524 273.023 218.794 274.05 218.794C274.685 218.794 275.279 218.666 275.833 218.409C276.4 218.152 276.872 217.774 277.251 217.274L278.669 218.287C278.183 218.976 277.521 219.516 276.683 219.908C275.846 220.3 274.941 220.496 273.969 220.496ZM281.566 215.897L283.125 206.193H285.435L283.105 215.897H281.566ZM281.626 220.496C281.262 220.496 280.958 220.374 280.715 220.131C280.485 219.888 280.37 219.604 280.37 219.28C280.37 218.875 280.499 218.544 280.755 218.287C281.025 218.031 281.349 217.902 281.728 217.902C282.092 217.902 282.389 218.017 282.619 218.247C282.862 218.476 282.984 218.76 282.984 219.098C282.984 219.354 282.923 219.591 282.801 219.807C282.68 220.023 282.518 220.192 282.315 220.313C282.113 220.435 281.883 220.496 281.626 220.496ZM287.128 210.873L288.952 206.76L289.134 207.996C288.769 207.996 288.459 207.874 288.202 207.631C287.959 207.375 287.837 207.057 287.837 206.679C287.837 206.247 287.979 205.896 288.263 205.626C288.56 205.355 288.897 205.22 289.276 205.22C289.64 205.22 289.944 205.342 290.187 205.585C290.43 205.828 290.552 206.139 290.552 206.517C290.552 206.733 290.511 206.936 290.43 207.125C290.363 207.314 290.255 207.55 290.106 207.834L288.405 210.873H287.128ZM290.957 210.873L292.78 206.76L292.963 207.996C292.598 207.996 292.287 207.874 292.031 207.631C291.788 207.375 291.666 207.057 291.666 206.679C291.666 206.247 291.808 205.896 292.092 205.626C292.389 205.355 292.726 205.22 293.105 205.22C293.469 205.22 293.773 205.342 294.016 205.585C294.259 205.828 294.381 206.139 294.381 206.517C294.381 206.733 294.34 206.936 294.259 207.125C294.192 207.314 294.084 207.55 293.935 207.834L292.233 210.873H290.957Z" fill="#F5F5F5"/>
</svg>
