<svg width="430" height="366" viewBox="0 0 430 366" fill="none" xmlns="http://www.w3.org/2000/svg">
<rect width="430" height="339" fill="#28668E"/>
<path d="M115 29L119.49 42.8197H134.021L122.265 51.3607L126.756 65.1803L115 56.6393L103.244 65.1803L107.735 51.3607L95.9789 42.8197H110.51L115 29Z" fill="#113349"/>
<path d="M165 29L169.49 42.8197H184.021L172.265 51.3607L176.756 65.1803L165 56.6393L153.244 65.1803L157.735 51.3607L145.979 42.8197H160.51L165 29Z" fill="#113349"/>
<path d="M215 29L219.49 42.8197H234.021L222.265 51.3607L226.756 65.1803L215 56.6393L203.244 65.1803L207.735 51.3607L195.979 42.8197H210.51L215 29Z" fill="#113349"/>
<path d="M265 29L269.49 42.8197H284.021L272.265 51.3607L276.756 65.1803L265 56.6393L253.244 65.1803L257.735 51.3607L245.979 42.8197H260.51L265 29Z" fill="#113349"/>
<path d="M315 29L319.49 42.8197H334.021L322.265 51.3607L326.756 65.1803L315 56.6393L303.244 65.1803L307.735 51.3607L295.979 42.8197H310.51L315 29Z" fill="#A6A6A6"/>
<path d="M83.1069 295L85.3469 283.8H86.6429L90.0029 292.28L89.3149 292.264L95.8909 283.8H97.2669L95.0269 295H93.4909L95.2669 286.168L95.6669 286.2L89.8269 293.64H89.0909L86.0669 286.168L86.4029 286.216L84.6429 295H83.1069ZM102.305 295.096C101.495 295.096 100.791 294.947 100.193 294.648C99.6065 294.339 99.1479 293.912 98.8172 293.368C98.4865 292.813 98.3212 292.168 98.3212 291.432C98.3212 290.472 98.5345 289.619 98.9612 288.872C99.3879 288.115 99.9745 287.523 100.721 287.096C101.479 286.659 102.337 286.44 103.297 286.44C104.097 286.44 104.796 286.589 105.393 286.888C105.991 287.187 106.449 287.608 106.769 288.152C107.1 288.696 107.265 289.341 107.265 290.088C107.265 291.048 107.052 291.907 106.625 292.664C106.199 293.411 105.612 294.003 104.865 294.44C104.129 294.877 103.276 295.096 102.305 295.096ZM102.401 293.752C103.041 293.752 103.612 293.597 104.113 293.288C104.615 292.979 105.004 292.557 105.281 292.024C105.569 291.48 105.713 290.861 105.713 290.168C105.713 289.421 105.495 288.84 105.057 288.424C104.62 287.997 103.996 287.784 103.185 287.784C102.556 287.784 101.991 287.939 101.489 288.248C100.988 288.547 100.593 288.968 100.305 289.512C100.017 290.045 99.8732 290.664 99.8732 291.368C99.8732 292.104 100.092 292.685 100.529 293.112C100.967 293.539 101.591 293.752 102.401 293.752ZM108.632 295L110.328 286.52H116.568L116.296 287.864H111.208L111.656 287.512L110.168 295H108.632ZM120.118 295.096C119.307 295.096 118.603 294.947 118.006 294.648C117.419 294.339 116.96 293.912 116.63 293.368C116.299 292.813 116.134 292.168 116.134 291.432C116.134 290.472 116.347 289.619 116.774 288.872C117.2 288.115 117.787 287.523 118.534 287.096C119.291 286.659 120.15 286.44 121.11 286.44C121.91 286.44 122.608 286.589 123.206 286.888C123.803 287.187 124.262 287.608 124.582 288.152C124.912 288.696 125.078 289.341 125.078 290.088C125.078 291.048 124.864 291.907 124.438 292.664C124.011 293.411 123.424 294.003 122.678 294.44C121.942 294.877 121.088 295.096 120.118 295.096ZM120.214 293.752C120.854 293.752 121.424 293.597 121.926 293.288C122.427 292.979 122.816 292.557 123.094 292.024C123.382 291.48 123.526 290.861 123.526 290.168C123.526 289.421 123.307 288.84 122.87 288.424C122.432 287.997 121.808 287.784 120.998 287.784C120.368 287.784 119.803 287.939 119.302 288.248C118.8 288.547 118.406 288.968 118.118 289.512C117.83 290.045 117.686 290.664 117.686 291.368C117.686 292.104 117.904 292.685 118.342 293.112C118.779 293.539 119.403 293.752 120.214 293.752ZM124.974 294.984L125.342 293.688C125.417 293.699 125.486 293.709 125.55 293.72C125.614 293.731 125.673 293.736 125.726 293.736C126.11 293.736 126.441 293.565 126.718 293.224C126.996 292.883 127.241 292.403 127.454 291.784C127.668 291.165 127.881 290.451 128.094 289.64L128.862 286.52H135.358L133.662 295H132.126L133.646 287.384L133.95 287.864H129.598L130.014 287.384L129.438 289.752C129.225 290.627 129.001 291.4 128.766 292.072C128.542 292.733 128.297 293.293 128.03 293.752C127.764 294.2 127.46 294.541 127.118 294.776C126.788 295.011 126.398 295.128 125.95 295.128C125.79 295.128 125.636 295.112 125.486 295.08C125.326 295.059 125.156 295.027 124.974 294.984ZM140.696 295.096C139.885 295.096 139.181 294.947 138.584 294.648C137.997 294.339 137.538 293.912 137.208 293.368C136.877 292.813 136.712 292.168 136.712 291.432C136.712 290.472 136.925 289.619 137.352 288.872C137.778 288.115 138.365 287.523 139.112 287.096C139.869 286.659 140.728 286.44 141.688 286.44C142.488 286.44 143.186 286.589 143.784 286.888C144.381 287.187 144.84 287.608 145.16 288.152C145.49 288.696 145.656 289.341 145.656 290.088C145.656 291.048 145.442 291.907 145.016 292.664C144.589 293.411 144.002 294.003 143.256 294.44C142.52 294.877 141.666 295.096 140.696 295.096ZM140.792 293.752C141.432 293.752 142.002 293.597 142.504 293.288C143.005 292.979 143.394 292.557 143.672 292.024C143.96 291.48 144.104 290.861 144.104 290.168C144.104 289.421 143.885 288.84 143.448 288.424C143.01 287.997 142.386 287.784 141.576 287.784C140.946 287.784 140.381 287.939 139.88 288.248C139.378 288.547 138.984 288.968 138.696 289.512C138.408 290.045 138.264 290.664 138.264 291.368C138.264 292.104 138.482 292.685 138.92 293.112C139.357 293.539 139.981 293.752 140.792 293.752ZM147.023 295L148.735 286.52H152.607C153.535 286.52 154.239 286.685 154.719 287.016C155.199 287.347 155.439 287.827 155.439 288.456C155.439 289.171 155.129 289.752 154.511 290.2C153.903 290.637 153.103 290.856 152.111 290.856L152.319 290.472C153.215 290.472 153.876 290.627 154.303 290.936C154.729 291.235 154.943 291.709 154.943 292.36C154.943 293.181 154.612 293.827 153.951 294.296C153.289 294.765 152.367 295 151.183 295H147.023ZM148.783 293.816H151.231C151.924 293.816 152.468 293.683 152.863 293.416C153.257 293.149 153.455 292.776 153.455 292.296C153.455 291.933 153.332 291.672 153.087 291.512C152.841 291.352 152.441 291.272 151.887 291.272H149.279L148.783 293.816ZM149.503 290.168H151.807C152.415 290.168 152.911 290.04 153.295 289.784C153.679 289.517 153.871 289.165 153.871 288.728C153.871 288.387 153.737 288.131 153.471 287.96C153.215 287.789 152.831 287.704 152.319 287.704H149.983L149.503 290.168ZM159.852 295L167.18 283.8H168.764L171.596 295H170.012L167.516 284.664H168.156L161.58 295H159.852ZM162.572 292.2L163.276 290.92H169.564L169.788 292.2H162.572ZM177.389 295.128C176.162 295.128 175.202 294.776 174.509 294.072C173.826 293.368 173.485 292.328 173.485 290.952C173.485 290.067 173.618 289.224 173.885 288.424C174.162 287.624 174.551 286.899 175.053 286.248C175.554 285.587 176.146 285.037 176.829 284.6C177.522 284.163 178.29 283.859 179.133 283.688L183.149 282.872L183.165 284.184L179.485 284.92C178.642 285.091 177.906 285.405 177.277 285.864C176.658 286.323 176.157 286.909 175.773 287.624C175.399 288.328 175.154 289.149 175.037 290.088L174.621 289.736C175.122 288.872 175.746 288.221 176.493 287.784C177.239 287.336 178.077 287.112 179.005 287.112C180.071 287.112 180.909 287.405 181.517 287.992C182.135 288.579 182.445 289.395 182.445 290.44C182.445 291.325 182.226 292.125 181.789 292.84C181.362 293.544 180.765 294.104 179.997 294.52C179.239 294.925 178.37 295.128 177.389 295.128ZM177.501 293.928C178.13 293.928 178.69 293.784 179.181 293.496C179.682 293.208 180.077 292.824 180.365 292.344C180.653 291.853 180.797 291.304 180.797 290.696C180.797 289.981 180.589 289.432 180.173 289.048C179.767 288.664 179.202 288.472 178.477 288.472C178.018 288.472 177.581 288.552 177.165 288.712C176.749 288.872 176.375 289.091 176.045 289.368C175.725 289.645 175.474 289.971 175.293 290.344C175.111 290.717 175.021 291.117 175.021 291.544C175.021 292.259 175.239 292.835 175.677 293.272C176.125 293.709 176.733 293.928 177.501 293.928ZM189.662 294.28L190.942 287.864H187.262L186.862 289.56C186.723 290.083 186.585 290.595 186.446 291.096C186.307 291.587 186.147 292.04 185.966 292.456C185.785 292.861 185.577 293.197 185.342 293.464C185.107 293.72 184.825 293.875 184.494 293.928L182.91 293.656C183.241 293.667 183.534 293.555 183.79 293.32C184.046 293.085 184.275 292.765 184.478 292.36C184.681 291.944 184.862 291.475 185.022 290.952C185.193 290.429 185.347 289.891 185.486 289.336L186.158 286.52H192.75L191.198 294.28H189.662ZM181.982 296.968L182.638 293.656H192.622L191.966 296.968H190.526L190.91 295H183.822L183.422 296.968H181.982ZM194.271 298.2C193.866 298.2 193.466 298.131 193.071 297.992C192.677 297.864 192.367 297.683 192.143 297.448L192.943 296.312C193.125 296.493 193.338 296.632 193.583 296.728C193.818 296.835 194.085 296.888 194.383 296.888C194.735 296.888 195.05 296.792 195.327 296.6C195.615 296.419 195.909 296.093 196.207 295.624L197.007 294.392L197.183 294.216L202.031 286.52H203.583L197.567 295.928C197.194 296.504 196.842 296.957 196.511 297.288C196.181 297.619 195.834 297.853 195.471 297.992C195.119 298.131 194.719 298.2 194.271 298.2ZM196.719 295.272L194.591 286.52H196.127L197.935 294.072L196.719 295.272ZM208.388 295.096C207.662 295.096 207.038 294.968 206.516 294.712C206.004 294.445 205.609 294.067 205.332 293.576C205.054 293.075 204.916 292.472 204.916 291.768C204.916 290.701 205.097 289.773 205.46 288.984C205.822 288.184 206.34 287.56 207.012 287.112C207.694 286.664 208.505 286.44 209.444 286.44C210.169 286.44 210.809 286.584 211.364 286.872C211.929 287.16 212.372 287.581 212.692 288.136C213.022 288.68 213.188 289.331 213.188 290.088C213.188 290.813 213.065 291.48 212.82 292.088C212.585 292.696 212.249 293.224 211.812 293.672C211.385 294.12 210.878 294.472 210.292 294.728C209.705 294.973 209.07 295.096 208.388 295.096ZM202.884 298.104L205.188 286.52H206.66L206.212 288.712L205.716 290.68L205.492 292.696L204.42 298.104H202.884ZM208.324 293.752C208.964 293.752 209.529 293.597 210.02 293.288C210.521 292.979 210.916 292.557 211.204 292.024C211.492 291.48 211.636 290.861 211.636 290.168C211.636 289.421 211.417 288.84 210.98 288.424C210.542 287.997 209.918 287.784 209.108 287.784C208.478 287.784 207.908 287.939 207.396 288.248C206.894 288.547 206.5 288.968 206.212 289.512C205.934 290.045 205.796 290.664 205.796 291.368C205.796 292.104 206.014 292.685 206.452 293.112C206.889 293.539 207.513 293.752 208.324 293.752ZM218.602 295.096C217.791 295.096 217.087 294.947 216.49 294.648C215.903 294.339 215.445 293.912 215.114 293.368C214.783 292.813 214.618 292.168 214.618 291.432C214.618 290.472 214.831 289.619 215.258 288.872C215.685 288.115 216.271 287.523 217.018 287.096C217.775 286.659 218.634 286.44 219.594 286.44C220.394 286.44 221.093 286.589 221.69 286.888C222.287 287.187 222.746 287.608 223.066 288.152C223.397 288.696 223.562 289.341 223.562 290.088C223.562 291.048 223.349 291.907 222.922 292.664C222.495 293.411 221.909 294.003 221.162 294.44C220.426 294.877 219.573 295.096 218.602 295.096ZM218.698 293.752C219.338 293.752 219.909 293.597 220.41 293.288C220.911 292.979 221.301 292.557 221.578 292.024C221.866 291.48 222.01 290.861 222.01 290.168C222.01 289.421 221.791 288.84 221.354 288.424C220.917 287.997 220.293 287.784 219.482 287.784C218.853 287.784 218.287 287.939 217.786 288.248C217.285 288.547 216.89 288.968 216.602 289.512C216.314 290.045 216.17 290.664 216.17 291.368C216.17 292.104 216.389 292.685 216.826 293.112C217.263 293.539 217.887 293.752 218.698 293.752ZM227.363 295.112C226.073 295.112 224.969 294.776 224.051 294.104L224.643 293.016C224.974 293.272 225.379 293.469 225.859 293.608C226.35 293.736 226.867 293.8 227.411 293.8C227.934 293.8 228.387 293.736 228.771 293.608C229.166 293.469 229.475 293.288 229.699 293.064C229.923 292.84 230.035 292.584 230.035 292.296C230.035 291.944 229.881 291.672 229.571 291.48C229.273 291.288 228.846 291.192 228.291 291.192H226.755L226.931 290.072H228.227C228.867 290.072 229.379 289.96 229.763 289.736C230.158 289.501 230.355 289.197 230.355 288.824C230.355 288.493 230.195 288.232 229.875 288.04C229.566 287.837 229.123 287.736 228.547 287.736C228.121 287.736 227.694 287.795 227.267 287.912C226.851 288.029 226.393 288.195 225.891 288.408L225.523 287.128C226.046 286.883 226.574 286.701 227.107 286.584C227.641 286.467 228.163 286.408 228.675 286.408C229.326 286.408 229.897 286.499 230.387 286.68C230.878 286.851 231.257 287.101 231.523 287.432C231.801 287.752 231.939 288.131 231.939 288.568C231.939 288.952 231.827 289.299 231.603 289.608C231.39 289.917 231.086 290.173 230.691 290.376C230.307 290.579 229.849 290.707 229.315 290.76L229.283 290.472C230.009 290.557 230.569 290.765 230.963 291.096C231.369 291.427 231.571 291.864 231.571 292.408C231.571 292.92 231.39 293.384 231.027 293.8C230.665 294.205 230.163 294.525 229.523 294.76C228.894 294.995 228.174 295.112 227.363 295.112ZM233.367 295L235.079 286.52H236.631L235.351 292.856L241.751 286.52H243.207L241.527 295H239.959L241.255 288.664L234.855 295H233.367ZM250.667 295L248.267 290.84L249.547 290.264L252.443 295H250.667ZM244.507 295L246.219 286.52H247.755L246.043 295H244.507ZM246.315 291.416L246.555 290.104H249.355L249.115 291.416H246.315ZM249.595 290.936L248.139 290.744L252.251 286.52H253.963L249.595 290.936ZM258.527 291.272L258.783 289.944H263.087L262.815 291.272H258.527ZM268.949 295L271.189 283.8H272.485L275.845 292.28L275.157 292.264L281.733 283.8H283.109L280.869 295H279.333L281.109 286.168L281.509 286.2L275.669 293.64H274.933L271.909 286.168L272.245 286.216L270.485 295H268.949ZM287.99 295.096C287.18 295.096 286.476 294.947 285.878 294.648C285.292 294.339 284.833 293.912 284.502 293.368C284.172 292.813 284.006 292.168 284.006 291.432C284.006 290.472 284.22 289.619 284.646 288.872C285.073 288.115 285.66 287.523 286.406 287.096C287.164 286.659 288.022 286.44 288.982 286.44C289.782 286.44 290.481 286.589 291.078 286.888C291.676 287.187 292.134 287.608 292.454 288.152C292.785 288.696 292.95 289.341 292.95 290.088C292.95 291.048 292.737 291.907 292.31 292.664C291.884 293.411 291.297 294.003 290.55 294.44C289.814 294.877 288.961 295.096 287.99 295.096ZM288.086 293.752C288.726 293.752 289.297 293.597 289.798 293.288C290.3 292.979 290.689 292.557 290.966 292.024C291.254 291.48 291.398 290.861 291.398 290.168C291.398 289.421 291.18 288.84 290.742 288.424C290.305 287.997 289.681 287.784 288.87 287.784C288.241 287.784 287.676 287.939 287.174 288.248C286.673 288.547 286.278 288.968 285.99 289.512C285.702 290.045 285.558 290.664 285.558 291.368C285.558 292.104 285.777 292.685 286.214 293.112C286.652 293.539 287.276 293.752 288.086 293.752ZM297.443 298.2C296.643 298.2 295.912 298.093 295.251 297.88C294.589 297.677 294.029 297.384 293.571 297L294.419 295.816C294.749 296.125 295.187 296.371 295.731 296.552C296.285 296.744 296.893 296.84 297.555 296.84C298.557 296.84 299.325 296.611 299.859 296.152C300.392 295.704 300.749 295.016 300.931 294.088L301.331 292.12L301.811 290.536L302.051 288.84L302.515 286.52H303.971L302.515 293.848C302.205 295.384 301.635 296.493 300.803 297.176C299.971 297.859 298.851 298.2 297.443 298.2ZM297.987 294.648C297.251 294.648 296.595 294.509 296.019 294.232C295.453 293.955 295.011 293.56 294.691 293.048C294.371 292.525 294.211 291.907 294.211 291.192C294.211 290.509 294.328 289.885 294.563 289.32C294.808 288.744 295.144 288.243 295.571 287.816C295.997 287.379 296.504 287.043 297.091 286.808C297.688 286.563 298.339 286.44 299.043 286.44C299.683 286.44 300.264 286.552 300.787 286.776C301.32 287 301.741 287.347 302.051 287.816C302.371 288.275 302.531 288.872 302.531 289.608C302.541 290.547 302.365 291.4 302.003 292.168C301.64 292.925 301.117 293.528 300.435 293.976C299.763 294.424 298.947 294.648 297.987 294.648ZM298.291 293.304C298.941 293.304 299.512 293.16 300.003 292.872C300.504 292.584 300.899 292.189 301.187 291.688C301.475 291.187 301.619 290.616 301.619 289.976C301.619 289.293 301.395 288.76 300.947 288.376C300.509 287.981 299.891 287.784 299.091 287.784C298.44 287.784 297.864 287.928 297.363 288.216C296.872 288.493 296.483 288.883 296.195 289.384C295.907 289.885 295.763 290.456 295.763 291.096C295.763 291.789 295.987 292.333 296.435 292.728C296.883 293.112 297.501 293.304 298.291 293.304ZM309.194 295.096C308.383 295.096 307.679 294.947 307.082 294.648C306.495 294.339 306.036 293.912 305.706 293.368C305.375 292.813 305.21 292.168 305.21 291.432C305.21 290.472 305.423 289.619 305.85 288.872C306.276 288.115 306.863 287.523 307.61 287.096C308.367 286.659 309.226 286.44 310.186 286.44C310.986 286.44 311.684 286.589 312.282 286.888C312.879 287.187 313.338 287.608 313.658 288.152C313.988 288.696 314.154 289.341 314.154 290.088C314.154 291.048 313.94 291.907 313.514 292.664C313.087 293.411 312.5 294.003 311.754 294.44C311.018 294.877 310.164 295.096 309.194 295.096ZM309.29 293.752C309.93 293.752 310.5 293.597 311.002 293.288C311.503 292.979 311.892 292.557 312.17 292.024C312.458 291.48 312.602 290.861 312.602 290.168C312.602 289.421 312.383 288.84 311.946 288.424C311.508 287.997 310.884 287.784 310.074 287.784C309.444 287.784 308.879 287.939 308.378 288.248C307.876 288.547 307.482 288.968 307.194 289.512C306.906 290.045 306.762 290.664 306.762 291.368C306.762 292.104 306.98 292.685 307.418 293.112C307.855 293.539 308.479 293.752 309.29 293.752ZM315.382 295L317.75 283.128H319.286L316.918 295H315.382ZM325.331 295L327.427 284.504L327.987 285.192H324.771L325.043 283.8H329.155L326.915 295H325.331ZM329.189 295L329.413 293.912L334.869 289.544C335.371 289.139 335.76 288.776 336.037 288.456C336.325 288.136 336.528 287.837 336.645 287.56C336.763 287.272 336.821 286.979 336.821 286.68C336.821 286.189 336.64 285.8 336.277 285.512C335.925 285.213 335.376 285.064 334.629 285.064C334.085 285.064 333.563 285.171 333.061 285.384C332.56 285.597 332.117 285.907 331.733 286.312L330.661 285.384C331.131 284.861 331.728 284.445 332.453 284.136C333.189 283.827 333.989 283.672 334.853 283.672C335.611 283.672 336.256 283.795 336.789 284.04C337.323 284.275 337.728 284.6 338.005 285.016C338.283 285.432 338.421 285.917 338.421 286.472C338.421 286.899 338.347 287.32 338.197 287.736C338.048 288.141 337.792 288.563 337.429 289C337.077 289.427 336.581 289.896 335.941 290.408L331.093 294.248L330.725 293.608H337.509L337.237 295H329.189ZM342.137 295.128C341.294 295.128 340.526 295.005 339.833 294.76C339.15 294.504 338.611 294.157 338.217 293.72L339.049 292.488C339.358 292.84 339.79 293.133 340.345 293.368C340.899 293.592 341.529 293.704 342.233 293.704C342.883 293.704 343.433 293.613 343.881 293.432C344.339 293.251 344.691 292.995 344.937 292.664C345.182 292.323 345.305 291.923 345.305 291.464C345.305 290.899 345.102 290.477 344.697 290.2C344.291 289.912 343.673 289.768 342.841 289.768H341.993L342.217 288.648L346.313 284.568L346.505 285.192H340.329L340.617 283.8H348.009L347.801 284.888L343.689 288.968L342.921 288.488H343.273C344.051 288.488 344.707 288.605 345.241 288.84C345.785 289.064 346.195 289.395 346.473 289.832C346.761 290.259 346.905 290.776 346.905 291.384C346.905 292.109 346.707 292.755 346.313 293.32C345.918 293.885 345.363 294.328 344.649 294.648C343.934 294.968 343.097 295.128 342.137 295.128Z" fill="#A9A9A9"/>
<path d="M332.795 363.766L349.535 326.008L351.209 337.354C347.861 337.354 345.009 336.238 342.653 334.006C340.421 331.65 339.305 328.736 339.305 325.264C339.305 321.296 340.607 318.072 343.211 315.592C345.939 313.112 349.039 311.872 352.511 311.872C355.859 311.872 358.649 312.988 360.881 315.22C363.113 317.452 364.229 320.304 364.229 323.776C364.229 325.76 363.857 327.62 363.113 329.356C362.493 331.092 361.501 333.262 360.137 335.866L344.513 363.766H332.795ZM367.949 363.766L384.689 326.008L386.363 337.354C383.015 337.354 380.163 336.238 377.807 334.006C375.575 331.65 374.459 328.736 374.459 325.264C374.459 321.296 375.761 318.072 378.365 315.592C381.093 313.112 384.193 311.872 387.665 311.872C391.013 311.872 393.803 312.988 396.035 315.22C398.267 317.452 399.383 320.304 399.383 323.776C399.383 325.76 399.011 327.62 398.267 329.356C397.647 331.092 396.655 333.262 395.291 335.866L379.667 363.766H367.949Z" fill="white"/>
<path d="M48.1485 113.676L46.1685 118.142L45.9485 116.8C46.3445 116.8 46.6745 116.939 46.9385 117.218C47.2171 117.482 47.3565 117.812 47.3565 118.208C47.3565 118.677 47.2025 119.066 46.8945 119.374C46.5865 119.667 46.2271 119.814 45.8165 119.814C45.4205 119.814 45.0831 119.682 44.8045 119.418C44.5405 119.139 44.4085 118.802 44.4085 118.406C44.4085 118.171 44.4451 117.951 44.5185 117.746C44.6065 117.526 44.7385 117.269 44.9145 116.976L46.7625 113.676H48.1485ZM52.3065 113.676L50.3265 118.142L50.1065 116.8C50.5025 116.8 50.8325 116.939 51.0965 117.218C51.3751 117.482 51.5145 117.812 51.5145 118.208C51.5145 118.677 51.3605 119.066 51.0525 119.374C50.7445 119.667 50.3851 119.814 49.9745 119.814C49.5785 119.814 49.2411 119.682 48.9625 119.418C48.6985 119.139 48.5665 118.802 48.5665 118.406C48.5665 118.171 48.6031 117.951 48.6765 117.746C48.7645 117.526 48.8965 117.269 49.0725 116.976L50.9205 113.676H52.3065ZM56.2888 123.07L56.6188 121.266H64.8688L64.5168 123.07H56.2888ZM59.9628 114.424C61.2681 114.424 62.3901 114.703 63.3288 115.26C64.2821 115.817 65.0155 116.58 65.5288 117.548C66.0568 118.516 66.3208 119.623 66.3208 120.87C66.3208 122.175 66.0641 123.393 65.5508 124.522C65.0521 125.637 64.3555 126.619 63.4608 127.47C62.5808 128.321 61.5688 128.988 60.4248 129.472C59.2808 129.941 58.0781 130.176 56.8168 130.176C55.5848 130.176 54.4921 129.971 53.5388 129.56C52.5855 129.149 51.8448 128.548 51.3168 127.756L52.9668 126.37C53.4508 127.001 54.0448 127.463 54.7488 127.756C55.4528 128.049 56.2375 128.196 57.1028 128.196C58.0415 128.196 58.9288 128.02 59.7648 127.668C60.6008 127.316 61.3415 126.825 61.9868 126.194C62.6321 125.549 63.1381 124.801 63.5048 123.95C63.8715 123.099 64.0548 122.183 64.0548 121.2C64.0548 120.261 63.8641 119.433 63.4828 118.714C63.1161 117.995 62.5881 117.431 61.8988 117.02C61.2241 116.609 60.4101 116.404 59.4568 116.404C58.5768 116.404 57.7335 116.551 56.9268 116.844C56.1201 117.137 55.3428 117.599 54.5948 118.23L53.4948 116.844C54.3455 116.052 55.3281 115.451 56.4428 115.04C57.5575 114.629 58.7308 114.424 59.9628 114.424ZM74.4165 130.132C72.2605 130.117 70.6178 129.699 69.4885 128.878C68.3738 128.057 67.8165 126.825 67.8165 125.182C67.8165 123.789 68.1831 122.571 68.9165 121.53C69.6498 120.489 70.6765 119.682 71.9965 119.11C73.3311 118.538 74.8931 118.252 76.6825 118.252H77.1225C79.2638 118.267 80.8918 118.685 82.0065 119.506C83.1211 120.327 83.6785 121.559 83.6785 123.202C83.6785 124.595 83.3191 125.813 82.6005 126.854C81.8818 127.881 80.8698 128.687 79.5645 129.274C78.2738 129.846 76.7558 130.132 75.0105 130.132H74.4165ZM74.7905 128.372H74.9885C76.3671 128.372 77.5551 128.167 78.5525 127.756C79.5498 127.345 80.3198 126.773 80.8625 126.04C81.4051 125.292 81.6765 124.419 81.6765 123.422C81.6765 122.263 81.2805 121.413 80.4885 120.87C79.7111 120.313 78.4791 120.034 76.7925 120.034H76.5725C75.1791 120.034 73.9765 120.239 72.9645 120.65C71.9671 121.046 71.1898 121.611 70.6325 122.344C70.0898 123.077 69.8185 123.935 69.8185 124.918C69.8185 126.121 70.2365 126.993 71.0725 127.536C71.9085 128.064 73.1478 128.343 74.7905 128.372ZM72.8105 134.268L76.9245 113.676H78.7945L74.6805 134.268H72.8105ZM91.9907 130.132C89.8347 130.117 88.192 129.699 87.0627 128.878C85.948 128.057 85.3907 126.825 85.3907 125.182C85.3907 123.789 85.7574 122.571 86.4907 121.53C87.224 120.489 88.2507 119.682 89.5707 119.11C90.9054 118.538 92.4674 118.252 94.2567 118.252H94.6967C96.838 118.267 98.466 118.685 99.5807 119.506C100.695 120.327 101.253 121.559 101.253 123.202C101.253 124.595 100.893 125.813 100.175 126.854C99.456 127.881 98.444 128.687 97.1387 129.274C95.848 129.846 94.33 130.132 92.5847 130.132H91.9907ZM92.3647 128.372H92.5627C93.9414 128.372 95.1294 128.167 96.1267 127.756C97.124 127.345 97.894 126.773 98.4367 126.04C98.9794 125.292 99.2507 124.419 99.2507 123.422C99.2507 122.263 98.8547 121.413 98.0627 120.87C97.2854 120.313 96.0534 120.034 94.3667 120.034H94.1467C92.7534 120.034 91.5507 120.239 90.5387 120.65C89.5414 121.046 88.764 121.611 88.2067 122.344C87.664 123.077 87.3927 123.935 87.3927 124.918C87.3927 126.121 87.8107 126.993 88.6467 127.536C89.4827 128.064 90.722 128.343 92.3647 128.372ZM90.3847 134.268L94.4987 113.676H96.3687L92.2547 134.268H90.3847ZM108.707 130.132C107.563 130.132 106.573 129.927 105.737 129.516C104.901 129.091 104.256 128.504 103.801 127.756C103.346 126.993 103.119 126.099 103.119 125.072C103.119 123.752 103.405 122.579 103.977 121.552C104.549 120.525 105.326 119.719 106.309 119.132C107.306 118.531 108.436 118.23 109.697 118.23C110.753 118.23 111.67 118.435 112.447 118.846C113.224 119.242 113.826 119.814 114.251 120.562C114.691 121.31 114.911 122.212 114.911 123.268C114.911 123.532 114.896 123.803 114.867 124.082C114.838 124.346 114.801 124.595 114.757 124.83H104.659L104.923 123.29H113.745L112.887 123.818C113.019 122.997 112.96 122.307 112.711 121.75C112.462 121.178 112.066 120.745 111.523 120.452C110.995 120.144 110.357 119.99 109.609 119.99C108.729 119.99 107.952 120.203 107.277 120.628C106.617 121.039 106.104 121.618 105.737 122.366C105.37 123.099 105.187 123.965 105.187 124.962C105.187 126.018 105.488 126.839 106.089 127.426C106.705 127.998 107.636 128.284 108.883 128.284C109.616 128.284 110.298 128.167 110.929 127.932C111.56 127.683 112.08 127.353 112.491 126.942L113.393 128.46C112.836 129.003 112.139 129.421 111.303 129.714C110.467 129.993 109.602 130.132 108.707 130.132ZM125.186 130L121.886 124.28L123.646 123.488L127.628 130H125.186ZM116.716 130L119.07 118.34H121.182L118.828 130H116.716ZM119.202 125.072L119.532 123.268H123.382L123.052 125.072H119.202ZM123.712 124.412L121.71 124.148L127.364 118.34H129.718L123.712 124.412ZM131.96 130L133.984 119.638L134.38 120.188H129.65L130.002 118.34H140.65L140.298 120.188H135.48L136.096 119.638L134.072 130H131.96ZM140.478 130L142.832 118.34H144.966L143.206 127.052L152.006 118.34H154.008L151.698 130H149.542L151.324 121.288L142.524 130H140.478ZM155.796 130L158.15 118.34H163.474C164.75 118.34 165.718 118.567 166.378 119.022C167.038 119.477 167.368 120.137 167.368 121.002C167.368 121.985 166.943 122.784 166.092 123.4C165.256 124.001 164.156 124.302 162.792 124.302L163.078 123.774C164.31 123.774 165.219 123.987 165.806 124.412C166.393 124.823 166.686 125.475 166.686 126.37C166.686 127.499 166.231 128.387 165.322 129.032C164.413 129.677 163.144 130 161.516 130H155.796ZM158.216 128.372H161.582C162.535 128.372 163.283 128.189 163.826 127.822C164.369 127.455 164.64 126.942 164.64 126.282C164.64 125.783 164.471 125.424 164.134 125.204C163.797 124.984 163.247 124.874 162.484 124.874H158.898L158.216 128.372ZM159.206 123.356H162.374C163.21 123.356 163.892 123.18 164.42 122.828C164.948 122.461 165.212 121.977 165.212 121.376C165.212 120.907 165.029 120.555 164.662 120.32C164.31 120.085 163.782 119.968 163.078 119.968H159.866L159.206 123.356ZM169.31 130L171.642 118.34H173.754L172.764 123.29H179.408L180.398 118.34H182.51L180.178 130H178.066L179.056 125.116H172.412L171.422 130H169.31ZM189.521 130.132C188.538 130.132 187.658 129.934 186.881 129.538C186.103 129.127 185.487 128.548 185.033 127.8C184.593 127.052 184.373 126.15 184.373 125.094C184.373 124.097 184.534 123.18 184.857 122.344C185.194 121.508 185.656 120.782 186.243 120.166C186.844 119.55 187.548 119.073 188.355 118.736C189.161 118.399 190.034 118.23 190.973 118.23C191.985 118.23 192.843 118.406 193.547 118.758C194.251 119.11 194.793 119.631 195.175 120.32C195.556 120.995 195.747 121.823 195.747 122.806C195.747 124.243 195.497 125.519 194.999 126.634C194.5 127.734 193.781 128.592 192.843 129.208C191.919 129.824 190.811 130.132 189.521 130.132ZM189.983 128.284C190.863 128.284 191.647 128.071 192.337 127.646C193.026 127.221 193.561 126.641 193.943 125.908C194.339 125.16 194.537 124.309 194.537 123.356C194.537 122.329 194.236 121.53 193.635 120.958C193.033 120.371 192.175 120.078 191.061 120.078C190.195 120.078 189.418 120.291 188.729 120.716C188.039 121.127 187.497 121.706 187.101 122.454C186.705 123.187 186.507 124.038 186.507 125.006C186.507 126.018 186.807 126.817 187.409 127.404C188.01 127.991 188.868 128.284 189.983 128.284ZM193.349 130L193.965 126.986L194.669 124.28L194.955 121.508L195.571 118.34H197.683L195.373 130H193.349ZM206.976 130L207.768 125.864L208.054 126.392H204.38C202.986 126.392 201.916 126.077 201.168 125.446C200.42 124.801 200.046 123.943 200.046 122.872C200.046 121.464 200.574 120.357 201.63 119.55C202.7 118.743 204.16 118.34 206.008 118.34H211.178L208.868 130H206.976ZM198.528 130L202.598 125.534H204.776L200.904 130H198.528ZM207.9 125.292L209.066 119.484L209.286 120.166H205.832C204.688 120.166 203.8 120.401 203.17 120.87C202.539 121.325 202.224 121.985 202.224 122.85C202.224 124.097 203.06 124.72 204.732 124.72H208.318L207.9 125.292ZM218.874 130L221.206 118.34H232.008L229.676 130H227.564L229.588 119.66L229.984 120.188H222.394L223.032 119.66L220.986 130H218.874ZM239.329 130.132C238.214 130.132 237.246 129.927 236.425 129.516C235.618 129.091 234.987 128.504 234.533 127.756C234.078 126.993 233.851 126.106 233.851 125.094C233.851 123.774 234.144 122.601 234.731 121.574C235.317 120.533 236.124 119.719 237.151 119.132C238.192 118.531 239.373 118.23 240.693 118.23C241.793 118.23 242.753 118.435 243.575 118.846C244.396 119.257 245.027 119.836 245.467 120.584C245.921 121.332 246.149 122.219 246.149 123.246C246.149 124.566 245.855 125.747 245.269 126.788C244.682 127.815 243.875 128.629 242.849 129.23C241.837 129.831 240.663 130.132 239.329 130.132ZM239.461 128.284C240.341 128.284 241.125 128.071 241.815 127.646C242.504 127.221 243.039 126.641 243.421 125.908C243.817 125.16 244.015 124.309 244.015 123.356C244.015 122.329 243.714 121.53 243.113 120.958C242.511 120.371 241.653 120.078 240.539 120.078C239.673 120.078 238.896 120.291 238.207 120.716C237.517 121.127 236.975 121.706 236.579 122.454C236.183 123.187 235.985 124.038 235.985 125.006C235.985 126.018 236.285 126.817 236.887 127.404C237.488 127.991 238.346 128.284 239.461 128.284ZM256.105 129.01L257.865 120.188H252.805L252.255 122.52C252.064 123.239 251.873 123.943 251.683 124.632C251.492 125.307 251.272 125.93 251.023 126.502C250.773 127.059 250.487 127.521 250.165 127.888C249.842 128.24 249.453 128.453 248.999 128.526L246.82 128.152C247.275 128.167 247.679 128.013 248.031 127.69C248.383 127.367 248.698 126.927 248.977 126.37C249.255 125.798 249.505 125.153 249.725 124.434C249.959 123.715 250.172 122.975 250.363 122.212L251.287 118.34H260.351L258.217 129.01H256.105ZM245.544 132.706L246.446 128.152H260.175L259.273 132.706H257.293L257.821 130H248.075L247.525 132.706H245.544ZM262.53 130L264.862 118.34H273.442L273.068 120.188H266.072L266.688 119.704L264.642 130H262.53ZM278.323 130.132C277.208 130.132 276.24 129.927 275.419 129.516C274.612 129.091 273.982 128.504 273.527 127.756C273.072 126.993 272.845 126.106 272.845 125.094C272.845 123.774 273.138 122.601 273.725 121.574C274.312 120.533 275.118 119.719 276.145 119.132C277.186 118.531 278.367 118.23 279.687 118.23C280.787 118.23 281.748 118.435 282.569 118.846C283.39 119.257 284.021 119.836 284.461 120.584C284.916 121.332 285.143 122.219 285.143 123.246C285.143 124.566 284.85 125.747 284.263 126.788C283.676 127.815 282.87 128.629 281.843 129.23C280.831 129.831 279.658 130.132 278.323 130.132ZM278.455 128.284C279.335 128.284 280.12 128.071 280.809 127.646C281.498 127.221 282.034 126.641 282.415 125.908C282.811 125.16 283.009 124.309 283.009 123.356C283.009 122.329 282.708 121.53 282.107 120.958C281.506 120.371 280.648 120.078 279.533 120.078C278.668 120.078 277.89 120.291 277.201 120.716C276.512 121.127 275.969 121.706 275.573 122.454C275.177 123.187 274.979 124.038 274.979 125.006C274.979 126.018 275.28 126.817 275.881 127.404C276.482 127.991 277.34 128.284 278.455 128.284ZM288.925 130L290.949 119.638L291.345 120.188H286.615L286.967 118.34H297.615L297.263 120.188H292.445L293.061 119.638L291.037 130H288.925ZM302.493 130.132C301.378 130.132 300.41 129.927 299.589 129.516C298.782 129.091 298.152 128.504 297.697 127.756C297.242 126.993 297.015 126.106 297.015 125.094C297.015 123.774 297.308 122.601 297.895 121.574C298.482 120.533 299.288 119.719 300.315 119.132C301.356 118.531 302.537 118.23 303.857 118.23C304.957 118.23 305.918 118.435 306.739 118.846C307.56 119.257 308.191 119.836 308.631 120.584C309.086 121.332 309.313 122.219 309.313 123.246C309.313 124.566 309.02 125.747 308.433 126.788C307.846 127.815 307.04 128.629 306.013 129.23C305.001 129.831 303.828 130.132 302.493 130.132ZM302.625 128.284C303.505 128.284 304.29 128.071 304.979 127.646C305.668 127.221 306.204 126.641 306.585 125.908C306.981 125.16 307.179 124.309 307.179 123.356C307.179 122.329 306.878 121.53 306.277 120.958C305.676 120.371 304.818 120.078 303.703 120.078C302.838 120.078 302.06 120.291 301.371 120.716C300.682 121.127 300.139 121.706 299.743 122.454C299.347 123.187 299.149 124.038 299.149 125.006C299.149 126.018 299.45 126.817 300.051 127.404C300.652 127.991 301.51 128.284 302.625 128.284ZM311.193 130L313.546 118.34H318.871C320.147 118.34 321.115 118.567 321.775 119.022C322.435 119.477 322.765 120.137 322.765 121.002C322.765 121.985 322.339 122.784 321.489 123.4C320.653 124.001 319.553 124.302 318.189 124.302L318.475 123.774C319.707 123.774 320.616 123.987 321.203 124.412C321.789 124.823 322.083 125.475 322.083 126.37C322.083 127.499 321.628 128.387 320.719 129.032C319.809 129.677 318.541 130 316.913 130H311.193ZM313.613 128.372H316.979C317.932 128.372 318.68 128.189 319.223 127.822C319.765 127.455 320.037 126.942 320.037 126.282C320.037 125.783 319.868 125.424 319.531 125.204C319.193 124.984 318.643 124.874 317.881 124.874H314.295L313.613 128.372ZM314.603 123.356H317.771C318.607 123.356 319.289 123.18 319.817 122.828C320.345 122.461 320.609 121.977 320.609 121.376C320.609 120.907 320.425 120.555 320.059 120.32C319.707 120.085 319.179 119.968 318.475 119.968H315.263L314.603 123.356ZM333.176 130L329.876 124.28L331.636 123.488L335.618 130H333.176ZM324.706 130L327.06 118.34H329.172L326.818 130H324.706ZM327.192 125.072L327.522 123.268H331.372L331.042 125.072H327.192ZM331.702 124.412L329.7 124.148L335.354 118.34H337.708L331.702 124.412ZM342.683 130.132C341.7 130.132 340.82 129.934 340.043 129.538C339.266 129.127 338.65 128.548 338.195 127.8C337.755 127.052 337.535 126.15 337.535 125.094C337.535 124.097 337.696 123.18 338.019 122.344C338.356 121.508 338.818 120.782 339.405 120.166C340.006 119.55 340.71 119.073 341.517 118.736C342.324 118.399 343.196 118.23 344.135 118.23C345.147 118.23 346.005 118.406 346.709 118.758C347.413 119.11 347.956 119.631 348.337 120.32C348.718 120.995 348.909 121.823 348.909 122.806C348.909 124.243 348.66 125.519 348.161 126.634C347.662 127.734 346.944 128.592 346.005 129.208C345.081 129.824 343.974 130.132 342.683 130.132ZM343.145 128.284C344.025 128.284 344.81 128.071 345.499 127.646C346.188 127.221 346.724 126.641 347.105 125.908C347.501 125.16 347.699 124.309 347.699 123.356C347.699 122.329 347.398 121.53 346.797 120.958C346.196 120.371 345.338 120.078 344.223 120.078C343.358 120.078 342.58 120.291 341.891 120.716C341.202 121.127 340.659 121.706 340.263 122.454C339.867 123.187 339.669 124.038 339.669 125.006C339.669 126.018 339.97 126.817 340.571 127.404C341.172 127.991 342.03 128.284 343.145 128.284ZM346.511 130L347.127 126.986L347.831 124.28L348.117 121.508L348.733 118.34H350.845L348.535 130H346.511ZM367.014 130L363.714 124.28L365.474 123.488L369.456 130H367.014ZM358.544 130L360.898 118.34H363.01L360.656 130H358.544ZM361.03 125.072L361.36 123.268H365.21L364.88 125.072H361.03ZM365.54 124.412L363.538 124.148L369.192 118.34H371.546L365.54 124.412ZM66.9274 157.176C65.402 157.176 64.0967 156.905 63.0114 156.362C61.926 155.819 61.0974 155.064 60.5254 154.096C59.968 153.113 59.6894 151.977 59.6894 150.686C59.6894 149.41 59.9094 148.215 60.3494 147.1C60.7894 145.971 61.42 144.981 62.2414 144.13C63.0627 143.279 64.0454 142.619 65.1894 142.15C66.3334 141.666 67.6167 141.424 69.0394 141.424C70.5794 141.424 71.892 141.695 72.9774 142.238C74.0627 142.781 74.884 143.543 75.4414 144.526C76.0134 145.494 76.2994 146.623 76.2994 147.914C76.2994 149.19 76.0794 150.393 75.6394 151.522C75.1994 152.637 74.5687 153.619 73.7474 154.47C72.926 155.321 71.936 155.988 70.7774 156.472C69.6334 156.941 68.35 157.176 66.9274 157.176ZM67.1254 155.218C68.1814 155.218 69.142 155.035 70.0074 154.668C70.8727 154.287 71.606 153.766 72.2074 153.106C72.8087 152.431 73.2707 151.661 73.5934 150.796C73.916 149.931 74.0774 149.014 74.0774 148.046C74.0774 147.122 73.8794 146.315 73.4834 145.626C73.0874 144.922 72.5007 144.372 71.7234 143.976C70.946 143.58 69.9927 143.382 68.8634 143.382C67.7927 143.382 66.8247 143.573 65.9594 143.954C65.1087 144.321 64.3754 144.841 63.7594 145.516C63.158 146.176 62.696 146.939 62.3734 147.804C62.0507 148.669 61.8894 149.586 61.8894 150.554C61.8894 151.478 62.0874 152.292 62.4834 152.996C62.894 153.685 63.4807 154.228 64.2434 154.624C65.0207 155.02 65.9814 155.218 67.1254 155.218ZM78.1797 157L81.2597 141.6H86.9797C88.7837 141.6 90.177 141.996 91.1597 142.788C92.1423 143.58 92.6337 144.687 92.6337 146.11C92.6337 147.415 92.3403 148.537 91.7537 149.476C91.1817 150.4 90.353 151.111 89.2677 151.61C88.1823 152.094 86.899 152.336 85.4177 152.336H80.3577L81.5237 151.28L80.3797 157H78.1797ZM81.4797 151.522L80.7097 150.422H85.4617C87.031 150.422 88.2483 150.077 89.1137 149.388C89.9937 148.684 90.4337 147.657 90.4337 146.308C90.4337 145.384 90.1183 144.687 89.4877 144.218C88.857 143.749 87.955 143.514 86.7817 143.514H82.1397L83.3057 142.392L81.4797 151.522ZM96.5382 157L99.3102 142.942L99.7502 143.514H93.9862L94.3602 141.6H107.054L106.68 143.514H100.828L101.488 142.942L98.7162 157H96.5382ZM107.76 152.138L109.454 141.6H111.962L109.432 152.138H107.76ZM107.826 157.132C107.43 157.132 107.1 157 106.836 156.736C106.586 156.472 106.462 156.164 106.462 155.812C106.462 155.372 106.601 155.013 106.88 154.734C107.173 154.455 107.525 154.316 107.936 154.316C108.332 154.316 108.654 154.441 108.904 154.69C109.168 154.939 109.3 155.247 109.3 155.614C109.3 155.893 109.234 156.149 109.102 156.384C108.97 156.619 108.794 156.802 108.574 156.934C108.354 157.066 108.104 157.132 107.826 157.132ZM118.785 157L121.865 141.6H128.685C130.225 141.6 131.42 141.886 132.271 142.458C133.121 143.03 133.547 143.873 133.547 144.988C133.547 145.956 133.305 146.777 132.821 147.452C132.351 148.112 131.735 148.611 130.973 148.948C130.21 149.285 129.403 149.454 128.553 149.454L129.059 148.816C130.203 148.816 131.127 149.102 131.831 149.674C132.535 150.246 132.887 151.082 132.887 152.182C132.887 153.238 132.608 154.125 132.051 154.844C131.508 155.563 130.731 156.105 129.719 156.472C128.721 156.824 127.548 157 126.199 157H118.785ZM121.337 155.218H126.353C127.731 155.218 128.802 154.961 129.565 154.448C130.327 153.935 130.709 153.187 130.709 152.204C130.709 151.427 130.43 150.884 129.873 150.576C129.315 150.253 128.523 150.092 127.497 150.092H121.997L122.349 148.31H127.211C128.017 148.31 128.721 148.2 129.323 147.98C129.939 147.76 130.415 147.43 130.753 146.99C131.09 146.55 131.259 146 131.259 145.34C131.259 144.665 130.995 144.174 130.467 143.866C129.939 143.543 129.191 143.382 128.223 143.382H123.691L121.337 155.218ZM135.171 157L137.525 145.34H139.659L137.899 154.052L146.699 145.34H148.701L146.391 157H144.235L146.017 148.288L137.217 157H135.171ZM158.651 156.01L160.411 147.188H155.351L154.801 149.52C154.611 150.239 154.42 150.943 154.229 151.632C154.039 152.307 153.819 152.93 153.569 153.502C153.32 154.059 153.034 154.521 152.711 154.888C152.389 155.24 152 155.453 151.545 155.526L149.367 155.152C149.822 155.167 150.225 155.013 150.577 154.69C150.929 154.367 151.245 153.927 151.523 153.37C151.802 152.798 152.051 152.153 152.271 151.434C152.506 150.715 152.719 149.975 152.909 149.212L153.833 145.34H162.897L160.763 156.01H158.651ZM148.091 159.706L148.993 155.152H162.721L161.819 159.706H159.839L160.367 157H150.621L150.071 159.706H148.091ZM170.775 157.132C169.631 157.132 168.641 156.927 167.805 156.516C166.969 156.091 166.324 155.504 165.869 154.756C165.415 153.993 165.187 153.099 165.187 152.072C165.187 150.752 165.473 149.579 166.045 148.552C166.617 147.525 167.395 146.719 168.377 146.132C169.375 145.531 170.504 145.23 171.765 145.23C172.821 145.23 173.738 145.435 174.515 145.846C175.293 146.242 175.894 146.814 176.319 147.562C176.759 148.31 176.979 149.212 176.979 150.268C176.979 150.532 176.965 150.803 176.935 151.082C176.906 151.346 176.869 151.595 176.825 151.83H166.727L166.991 150.29H175.813L174.955 150.818C175.087 149.997 175.029 149.307 174.779 148.75C174.53 148.178 174.134 147.745 173.591 147.452C173.063 147.144 172.425 146.99 171.677 146.99C170.797 146.99 170.02 147.203 169.345 147.628C168.685 148.039 168.172 148.618 167.805 149.366C167.439 150.099 167.255 150.965 167.255 151.962C167.255 153.018 167.556 153.839 168.157 154.426C168.773 154.998 169.705 155.284 170.951 155.284C171.685 155.284 172.367 155.167 172.997 154.932C173.628 154.683 174.149 154.353 174.559 153.942L175.461 155.46C174.904 156.003 174.207 156.421 173.371 156.714C172.535 156.993 171.67 157.132 170.775 157.132ZM184.35 157.132C183.236 157.132 182.268 156.927 181.446 156.516C180.64 156.091 180.009 155.504 179.554 154.756C179.1 153.993 178.872 153.106 178.872 152.094C178.872 150.774 179.166 149.601 179.752 148.574C180.339 147.533 181.146 146.719 182.172 146.132C183.214 145.531 184.394 145.23 185.714 145.23C186.814 145.23 187.775 145.435 188.596 145.846C189.418 146.257 190.048 146.836 190.488 147.584C190.943 148.332 191.17 149.219 191.17 150.246C191.17 151.566 190.877 152.747 190.29 153.788C189.704 154.815 188.897 155.629 187.87 156.23C186.858 156.831 185.685 157.132 184.35 157.132ZM184.482 155.284C185.362 155.284 186.147 155.071 186.836 154.646C187.526 154.221 188.061 153.641 188.442 152.908C188.838 152.16 189.036 151.309 189.036 150.356C189.036 149.329 188.736 148.53 188.134 147.958C187.533 147.371 186.675 147.078 185.56 147.078C184.695 147.078 183.918 147.291 183.228 147.716C182.539 148.127 181.996 148.706 181.6 149.454C181.204 150.187 181.006 151.038 181.006 152.006C181.006 153.018 181.307 153.817 181.908 154.404C182.51 154.991 183.368 155.284 184.482 155.284ZM192.64 161.4C192.082 161.4 191.532 161.305 190.99 161.114C190.447 160.938 190.022 160.689 189.714 160.366L190.814 158.804C191.063 159.053 191.356 159.244 191.694 159.376C192.016 159.523 192.383 159.596 192.794 159.596C193.278 159.596 193.71 159.464 194.092 159.2C194.488 158.951 194.891 158.503 195.302 157.858L196.402 156.164L196.644 155.922L203.31 145.34H205.444L197.172 158.276C196.658 159.068 196.174 159.691 195.72 160.146C195.265 160.601 194.788 160.923 194.29 161.114C193.806 161.305 193.256 161.4 192.64 161.4ZM196.006 157.374L193.08 145.34H195.192L197.678 155.724L196.006 157.374ZM212.05 157.132C211.052 157.132 210.194 156.956 209.476 156.604C208.772 156.237 208.229 155.717 207.848 155.042C207.466 154.353 207.276 153.524 207.276 152.556C207.276 151.089 207.525 149.813 208.024 148.728C208.522 147.628 209.234 146.77 210.158 146.154C211.096 145.538 212.211 145.23 213.502 145.23C214.499 145.23 215.379 145.428 216.142 145.824C216.919 146.22 217.528 146.799 217.968 147.562C218.422 148.31 218.65 149.205 218.65 150.246C218.65 151.243 218.481 152.16 218.144 152.996C217.821 153.832 217.359 154.558 216.758 155.174C216.171 155.79 215.474 156.274 214.668 156.626C213.861 156.963 212.988 157.132 212.05 157.132ZM204.482 161.268L207.65 145.34H209.674L209.058 148.354L208.376 151.06L208.068 153.832L206.594 161.268H204.482ZM211.962 155.284C212.842 155.284 213.619 155.071 214.294 154.646C214.983 154.221 215.526 153.641 215.922 152.908C216.318 152.16 216.516 151.309 216.516 150.356C216.516 149.329 216.215 148.53 215.614 147.958C215.012 147.371 214.154 147.078 213.04 147.078C212.174 147.078 211.39 147.291 210.686 147.716C209.996 148.127 209.454 148.706 209.058 149.454C208.676 150.187 208.486 151.038 208.486 152.006C208.486 153.018 208.786 153.817 209.388 154.404C209.989 154.991 210.847 155.284 211.962 155.284ZM226.094 157.132C224.98 157.132 224.012 156.927 223.19 156.516C222.384 156.091 221.753 155.504 221.298 154.756C220.844 153.993 220.616 153.106 220.616 152.094C220.616 150.774 220.91 149.601 221.496 148.574C222.083 147.533 222.89 146.719 223.916 146.132C224.958 145.531 226.138 145.23 227.458 145.23C228.558 145.23 229.519 145.435 230.34 145.846C231.162 146.257 231.792 146.836 232.232 147.584C232.687 148.332 232.914 149.219 232.914 150.246C232.914 151.566 232.621 152.747 232.034 153.788C231.448 154.815 230.641 155.629 229.614 156.23C228.602 156.831 227.429 157.132 226.094 157.132ZM226.226 155.284C227.106 155.284 227.891 155.071 228.58 154.646C229.27 154.221 229.805 153.641 230.186 152.908C230.582 152.16 230.78 151.309 230.78 150.356C230.78 149.329 230.48 148.53 229.878 147.958C229.277 147.371 228.419 147.078 227.304 147.078C226.439 147.078 225.662 147.291 224.972 147.716C224.283 148.127 223.74 148.706 223.344 149.454C222.948 150.187 222.75 151.038 222.75 152.006C222.75 153.018 223.051 153.817 223.652 154.404C224.254 154.991 225.112 155.284 226.226 155.284ZM243.264 157L239.964 151.28L241.724 150.488L245.706 157H243.264ZM234.794 157L237.148 145.34H239.26L236.906 157H234.794ZM237.28 152.072L237.61 150.268H241.46L241.13 152.072H237.28ZM241.79 151.412L239.788 151.148L245.442 145.34H247.796L241.79 151.412ZM247.9 157L250.254 145.34H252.388L250.628 154.052L259.428 145.34H261.43L259.12 157H256.964L258.746 148.288L249.946 157H247.9ZM269.126 157L271.48 145.34H273.614L271.854 154.052L280.654 145.34H282.656L280.346 157H278.19L279.972 148.288L271.172 157H269.126ZM292.685 157L294.709 146.638L295.105 147.188H290.375L290.727 145.34H301.375L301.023 147.188H296.205L296.821 146.638L294.797 157H292.685ZM306.385 157.132C305.241 157.132 304.251 156.927 303.415 156.516C302.579 156.091 301.933 155.504 301.479 154.756C301.024 153.993 300.797 153.099 300.797 152.072C300.797 150.752 301.083 149.579 301.655 148.552C302.227 147.525 303.004 146.719 303.987 146.132C304.984 145.531 306.113 145.23 307.375 145.23C308.431 145.23 309.347 145.435 310.125 145.846C310.902 146.242 311.503 146.814 311.929 147.562C312.369 148.31 312.589 149.212 312.589 150.268C312.589 150.532 312.574 150.803 312.545 151.082C312.515 151.346 312.479 151.595 312.435 151.83H302.337L302.601 150.29H311.423L310.565 150.818C310.697 149.997 310.638 149.307 310.389 148.75C310.139 148.178 309.743 147.745 309.201 147.452C308.673 147.144 308.035 146.99 307.287 146.99C306.407 146.99 305.629 147.203 304.955 147.628C304.295 148.039 303.781 148.618 303.415 149.366C303.048 150.099 302.865 150.965 302.865 151.962C302.865 153.018 303.165 153.839 303.767 154.426C304.383 154.998 305.314 155.284 306.561 155.284C307.294 155.284 307.976 155.167 308.607 154.932C309.237 154.683 309.758 154.353 310.169 153.942L311.071 155.46C310.513 156.003 309.817 156.421 308.981 156.714C308.145 156.993 307.279 157.132 306.385 157.132ZM320.026 157.132C318.896 157.132 317.914 156.927 317.078 156.516C316.256 156.091 315.618 155.504 315.164 154.756C314.709 153.993 314.482 153.106 314.482 152.094C314.482 150.774 314.775 149.601 315.362 148.574C315.948 147.533 316.762 146.719 317.804 146.132C318.845 145.531 320.026 145.23 321.346 145.23C322.475 145.23 323.443 145.443 324.25 145.868C325.056 146.279 325.687 146.909 326.142 147.76L324.36 148.75C324.066 148.178 323.648 147.76 323.106 147.496C322.578 147.217 321.94 147.078 321.192 147.078C320.312 147.078 319.527 147.291 318.838 147.716C318.148 148.127 317.606 148.706 317.21 149.454C316.814 150.187 316.616 151.038 316.616 152.006C316.616 153.018 316.916 153.817 317.518 154.404C318.134 154.991 318.999 155.284 320.114 155.284C320.803 155.284 321.448 155.145 322.05 154.866C322.666 154.587 323.179 154.177 323.59 153.634L325.13 154.734C324.602 155.482 323.883 156.069 322.974 156.494C322.064 156.919 321.082 157.132 320.026 157.132ZM329.423 157L331.447 146.638L331.843 147.188H327.113L327.465 145.34H338.113L337.761 147.188H332.943L333.559 146.638L331.535 157H329.423ZM349.491 157L351.801 145.34H353.913L351.603 157H349.491ZM344.585 149.278C345.905 149.278 346.895 149.549 347.555 150.092C348.229 150.62 348.567 151.419 348.567 152.49C348.567 153.399 348.339 154.199 347.885 154.888C347.43 155.563 346.785 156.083 345.949 156.45C345.127 156.817 344.152 157 343.023 157H337.941L340.273 145.384H342.363L341.593 149.278H344.585ZM343.023 155.416C343.712 155.416 344.313 155.306 344.827 155.086C345.34 154.851 345.736 154.529 346.015 154.118C346.308 153.707 346.455 153.223 346.455 152.666C346.455 151.449 345.619 150.84 343.947 150.84H341.285L340.383 155.416H343.023ZM47.4396 184L49.7716 172.34H60.5736L58.2416 184H56.1296L58.1536 173.66L58.5496 174.188H50.9596L51.5976 173.66L49.5516 184H47.4396ZM67.8942 184.132C66.7796 184.132 65.8116 183.927 64.9902 183.516C64.1836 183.091 63.5529 182.504 63.0982 181.756C62.6436 180.993 62.4162 180.106 62.4162 179.094C62.4162 177.774 62.7096 176.601 63.2962 175.574C63.8829 174.533 64.6896 173.719 65.7162 173.132C66.7576 172.531 67.9382 172.23 69.2582 172.23C70.3582 172.23 71.3189 172.435 72.1402 172.846C72.9616 173.257 73.5922 173.836 74.0322 174.584C74.4869 175.332 74.7142 176.219 74.7142 177.246C74.7142 178.566 74.4209 179.747 73.8342 180.788C73.2476 181.815 72.4409 182.629 71.4142 183.23C70.4022 183.831 69.2289 184.132 67.8942 184.132ZM68.0262 182.284C68.9062 182.284 69.6909 182.071 70.3802 181.646C71.0696 181.221 71.6049 180.641 71.9862 179.908C72.3822 179.16 72.5802 178.309 72.5802 177.356C72.5802 176.329 72.2796 175.53 71.6782 174.958C71.0769 174.371 70.2189 174.078 69.1042 174.078C68.2389 174.078 67.4616 174.291 66.7722 174.716C66.0829 175.127 65.5402 175.706 65.1442 176.454C64.7482 177.187 64.5502 178.038 64.5502 179.006C64.5502 180.018 64.8509 180.817 65.4522 181.404C66.0536 181.991 66.9116 182.284 68.0262 182.284ZM76.5939 184L78.9259 172.34H81.0819L84.3599 180.964H83.4799L90.3659 172.34H92.3459L90.0359 184H88.1219L89.9699 174.716L90.2999 174.914L84.0519 182.68H83.1279L79.9819 174.76L80.3779 174.672L78.5299 184H76.5939ZM99.6911 184.132C98.5765 184.132 97.6085 183.927 96.7871 183.516C95.9805 183.091 95.3498 182.504 94.8951 181.756C94.4405 180.993 94.2131 180.106 94.2131 179.094C94.2131 177.774 94.5065 176.601 95.0931 175.574C95.6798 174.533 96.4865 173.719 97.5131 173.132C98.5545 172.531 99.7351 172.23 101.055 172.23C102.155 172.23 103.116 172.435 103.937 172.846C104.758 173.257 105.389 173.836 105.829 174.584C106.284 175.332 106.511 176.219 106.511 177.246C106.511 178.566 106.218 179.747 105.631 180.788C105.044 181.815 104.238 182.629 103.211 183.23C102.199 183.831 101.026 184.132 99.6911 184.132ZM99.8231 182.284C100.703 182.284 101.488 182.071 102.177 181.646C102.866 181.221 103.402 180.641 103.783 179.908C104.179 179.16 104.377 178.309 104.377 177.356C104.377 176.329 104.076 175.53 103.475 174.958C102.874 174.371 102.016 174.078 100.901 174.078C100.036 174.078 99.2585 174.291 98.5691 174.716C97.8798 175.127 97.3371 175.706 96.9411 176.454C96.5451 177.187 96.3471 178.038 96.3471 179.006C96.3471 180.018 96.6478 180.817 97.2491 181.404C97.8505 181.991 98.7085 182.284 99.8231 182.284ZM108.391 184L110.723 172.34H119.303L118.929 174.188H111.933L112.549 173.704L110.503 184H108.391ZM116.445 183.978L116.951 182.196C117.054 182.211 117.149 182.225 117.237 182.24C117.325 182.255 117.406 182.262 117.479 182.262C118.007 182.262 118.462 182.027 118.843 181.558C119.224 181.089 119.562 180.429 119.855 179.578C120.148 178.727 120.442 177.745 120.735 176.63L121.791 172.34H130.723L128.391 184H126.279L128.369 173.528L128.787 174.188H122.803L123.375 173.528L122.583 176.784C122.29 177.987 121.982 179.05 121.659 179.974C121.351 180.883 121.014 181.653 120.647 182.284C120.28 182.9 119.862 183.369 119.393 183.692C118.938 184.015 118.403 184.176 117.787 184.176C117.567 184.176 117.354 184.154 117.149 184.11C116.929 184.081 116.694 184.037 116.445 183.978ZM132.496 184L134.85 172.34H136.984L135.224 181.052L144.024 172.34H146.026L143.716 184H141.56L143.342 175.288L134.542 184H132.496ZM153.723 184L156.055 172.34H158.211L161.489 180.964H160.609L167.495 172.34H169.475L167.165 184H165.251L167.099 174.716L167.429 174.914L161.181 182.68H160.257L157.111 174.76L157.507 174.672L155.659 184H153.723ZM171.254 184L173.586 172.34H175.698L174.708 177.29H181.352L182.342 172.34H184.454L182.122 184H180.01L181 179.116H174.356L173.366 184H171.254ZM191.905 184.132C190.761 184.132 189.771 183.927 188.935 183.516C188.099 183.091 187.454 182.504 186.999 181.756C186.544 180.993 186.317 180.099 186.317 179.072C186.317 177.752 186.603 176.579 187.175 175.552C187.747 174.525 188.524 173.719 189.507 173.132C190.504 172.531 191.634 172.23 192.895 172.23C193.951 172.23 194.868 172.435 195.645 172.846C196.422 173.242 197.024 173.814 197.449 174.562C197.889 175.31 198.109 176.212 198.109 177.268C198.109 177.532 198.094 177.803 198.065 178.082C198.036 178.346 197.999 178.595 197.955 178.83H187.857L188.121 177.29H196.943L196.085 177.818C196.217 176.997 196.158 176.307 195.909 175.75C195.66 175.178 195.264 174.745 194.721 174.452C194.193 174.144 193.555 173.99 192.807 173.99C191.927 173.99 191.15 174.203 190.475 174.628C189.815 175.039 189.302 175.618 188.935 176.366C188.568 177.099 188.385 177.965 188.385 178.962C188.385 180.018 188.686 180.839 189.287 181.426C189.903 181.998 190.834 182.284 192.081 182.284C192.814 182.284 193.496 182.167 194.127 181.932C194.758 181.683 195.278 181.353 195.689 180.942L196.591 182.46C196.034 183.003 195.337 183.421 194.501 183.714C193.665 183.993 192.8 184.132 191.905 184.132ZM203.886 183.978L204.392 182.196C204.495 182.211 204.59 182.225 204.678 182.24C204.766 182.255 204.847 182.262 204.92 182.262C205.448 182.262 205.903 182.027 206.284 181.558C206.666 181.089 207.003 180.429 207.296 179.578C207.59 178.727 207.883 177.745 208.176 176.63L209.232 172.34H218.164L215.832 184H213.72L215.81 173.528L216.228 174.188H210.244L210.816 173.528L210.024 176.784C209.731 177.987 209.423 179.05 209.1 179.974C208.792 180.883 208.455 181.653 208.088 182.284C207.722 182.9 207.304 183.369 206.834 183.692C206.38 184.015 205.844 184.176 205.228 184.176C205.008 184.176 204.796 184.154 204.59 184.11C204.37 184.081 204.136 184.037 203.886 183.978ZM219.85 188.4C219.292 188.4 218.742 188.305 218.2 188.114C217.657 187.938 217.232 187.689 216.924 187.366L218.024 185.804C218.273 186.053 218.566 186.244 218.904 186.376C219.226 186.523 219.593 186.596 220.004 186.596C220.488 186.596 220.92 186.464 221.302 186.2C221.698 185.951 222.101 185.503 222.512 184.858L223.612 183.164L223.854 182.922L230.52 172.34H232.654L224.382 185.276C223.868 186.068 223.384 186.691 222.93 187.146C222.475 187.601 221.998 187.923 221.5 188.114C221.016 188.305 220.466 188.4 219.85 188.4ZM223.216 184.374L220.29 172.34H222.402L224.888 182.724L223.216 184.374ZM240.887 179.27C240.213 179.549 239.531 179.769 238.841 179.93C238.167 180.091 237.507 180.172 236.861 180.172C235.409 180.172 234.331 179.827 233.627 179.138C232.923 178.449 232.711 177.415 232.989 176.036L233.715 172.34H235.827L235.079 176.08C234.933 176.901 235.057 177.503 235.453 177.884C235.864 178.251 236.487 178.434 237.323 178.434C237.925 178.434 238.541 178.353 239.171 178.192C239.802 178.031 240.44 177.818 241.085 177.554L240.887 179.27ZM239.699 184L242.031 172.34H244.143L241.811 184H239.699ZM254.052 182.152L253.48 182.702L255.504 172.34H257.616L255.592 182.702L255.174 182.152H261.312L260.696 182.702L262.72 172.34H264.832L262.522 184H245.912L248.244 172.34H250.356L248.31 182.702L247.936 182.152H254.052ZM272.321 184.132C271.177 184.132 270.187 183.927 269.351 183.516C268.515 183.091 267.87 182.504 267.415 181.756C266.96 180.993 266.733 180.099 266.733 179.072C266.733 177.752 267.019 176.579 267.591 175.552C268.163 174.525 268.94 173.719 269.923 173.132C270.92 172.531 272.05 172.23 273.311 172.23C274.367 172.23 275.284 172.435 276.061 172.846C276.838 173.242 277.44 173.814 277.865 174.562C278.305 175.31 278.525 176.212 278.525 177.268C278.525 177.532 278.51 177.803 278.481 178.082C278.452 178.346 278.415 178.595 278.371 178.83H268.273L268.537 177.29H277.359L276.501 177.818C276.633 176.997 276.574 176.307 276.325 175.75C276.076 175.178 275.68 174.745 275.137 174.452C274.609 174.144 273.971 173.99 273.223 173.99C272.343 173.99 271.566 174.203 270.891 174.628C270.231 175.039 269.718 175.618 269.351 176.366C268.984 177.099 268.801 177.965 268.801 178.962C268.801 180.018 269.102 180.839 269.703 181.426C270.319 181.998 271.25 182.284 272.497 182.284C273.23 182.284 273.912 182.167 274.543 181.932C275.174 181.683 275.694 181.353 276.105 180.942L277.007 182.46C276.45 183.003 275.753 183.421 274.917 183.714C274.081 183.993 273.216 184.132 272.321 184.132ZM286.238 184L288.57 172.34H299.372L297.04 184H294.928L296.952 173.66L297.348 174.188H289.758L290.396 173.66L288.35 184H286.238ZM306.693 184.132C305.578 184.132 304.61 183.927 303.789 183.516C302.982 183.091 302.352 182.504 301.897 181.756C301.442 180.993 301.215 180.106 301.215 179.094C301.215 177.774 301.508 176.601 302.095 175.574C302.682 174.533 303.488 173.719 304.515 173.132C305.556 172.531 306.737 172.23 308.057 172.23C309.157 172.23 310.118 172.435 310.939 172.846C311.76 173.257 312.391 173.836 312.831 174.584C313.286 175.332 313.513 176.219 313.513 177.246C313.513 178.566 313.22 179.747 312.633 180.788C312.046 181.815 311.24 182.629 310.213 183.23C309.201 183.831 308.028 184.132 306.693 184.132ZM306.825 182.284C307.705 182.284 308.49 182.071 309.179 181.646C309.868 181.221 310.404 180.641 310.785 179.908C311.181 179.16 311.379 178.309 311.379 177.356C311.379 176.329 311.078 175.53 310.477 174.958C309.876 174.371 309.018 174.078 307.903 174.078C307.038 174.078 306.26 174.291 305.571 174.716C304.882 175.127 304.339 175.706 303.943 176.454C303.547 177.187 303.349 178.038 303.349 179.006C303.349 180.018 303.65 180.817 304.251 181.404C304.852 181.991 305.71 182.284 306.825 182.284ZM315.393 184L317.725 172.34H319.837L318.847 177.29H325.491L326.481 172.34H328.593L326.261 184H324.149L325.139 179.116H318.495L317.505 184H315.393ZM337.848 184L338.64 179.864L338.926 180.392H335.252C333.858 180.392 332.788 180.077 332.04 179.446C331.292 178.801 330.918 177.943 330.918 176.872C330.918 175.464 331.446 174.357 332.502 173.55C333.572 172.743 335.032 172.34 336.88 172.34H342.05L339.74 184H337.848ZM329.4 184L333.47 179.534H335.648L331.776 184H329.4ZM338.772 179.292L339.938 173.484L340.158 174.166H336.704C335.56 174.166 334.672 174.401 334.042 174.87C333.411 175.325 333.096 175.985 333.096 176.85C333.096 178.097 333.932 178.72 335.604 178.72H339.19L338.772 179.292ZM346.17 184L348.194 173.638L348.59 174.188H343.86L344.212 172.34H354.86L354.508 174.188H349.69L350.306 173.638L348.282 184H346.17ZM361.464 176.278C362.784 176.278 363.774 176.549 364.434 177.092C365.108 177.62 365.446 178.419 365.446 179.49C365.446 180.399 365.218 181.199 364.764 181.888C364.309 182.563 363.664 183.083 362.828 183.45C362.006 183.817 361.031 184 359.902 184H354.688L357.042 172.34H359.132L358.34 176.278H361.464ZM359.902 182.416C360.591 182.416 361.192 182.306 361.706 182.086C362.219 181.851 362.615 181.529 362.894 181.118C363.187 180.707 363.334 180.223 363.334 179.666C363.334 178.449 362.498 177.84 360.826 177.84H358.032L357.13 182.416H359.902ZM75.4982 211L77.8302 199.34H79.9862L83.2642 207.964H82.3842L89.2702 199.34H91.2502L88.9402 211H87.0262L88.8742 201.716L89.2042 201.914L82.9562 209.68H82.0322L78.8862 201.76L79.2822 201.672L77.4342 211H75.4982ZM98.2874 211.132C97.3047 211.132 96.4247 210.934 95.6474 210.538C94.8701 210.127 94.2541 209.548 93.7994 208.8C93.3594 208.052 93.1394 207.15 93.1394 206.094C93.1394 205.097 93.3007 204.18 93.6234 203.344C93.9607 202.508 94.4227 201.782 95.0094 201.166C95.6107 200.55 96.3147 200.073 97.1214 199.736C97.9281 199.399 98.8007 199.23 99.7394 199.23C100.751 199.23 101.609 199.406 102.313 199.758C103.017 200.11 103.56 200.631 103.941 201.32C104.323 201.995 104.513 202.823 104.513 203.806C104.513 205.243 104.264 206.519 103.765 207.634C103.267 208.734 102.548 209.592 101.609 210.208C100.685 210.824 99.5781 211.132 98.2874 211.132ZM98.7494 209.284C99.6294 209.284 100.414 209.071 101.103 208.646C101.793 208.221 102.328 207.641 102.709 206.908C103.105 206.16 103.303 205.309 103.303 204.356C103.303 203.329 103.003 202.53 102.401 201.958C101.8 201.371 100.942 201.078 99.8274 201.078C98.9621 201.078 98.1847 201.291 97.4954 201.716C96.8061 202.127 96.2634 202.706 95.8674 203.454C95.4714 204.187 95.2734 205.038 95.2734 206.006C95.2734 207.018 95.5741 207.817 96.1754 208.404C96.7767 208.991 97.6347 209.284 98.7494 209.284ZM102.115 211L102.731 207.986L103.435 205.28L103.721 202.508L104.337 199.34H106.449L104.139 211H102.115ZM110.572 211L112.596 200.638L112.992 201.188H108.262L108.614 199.34H119.262L118.91 201.188H114.092L114.708 200.638L112.684 211H110.572ZM124.272 211.132C123.128 211.132 122.138 210.927 121.302 210.516C120.466 210.091 119.821 209.504 119.366 208.756C118.912 207.993 118.684 207.099 118.684 206.072C118.684 204.752 118.97 203.579 119.542 202.552C120.114 201.525 120.892 200.719 121.874 200.132C122.872 199.531 124.001 199.23 125.262 199.23C126.318 199.23 127.235 199.435 128.012 199.846C128.79 200.242 129.391 200.814 129.816 201.562C130.256 202.31 130.476 203.212 130.476 204.268C130.476 204.532 130.462 204.803 130.432 205.082C130.403 205.346 130.366 205.595 130.322 205.83H120.224L120.488 204.29H129.31L128.452 204.818C128.584 203.997 128.526 203.307 128.276 202.75C128.027 202.178 127.631 201.745 127.088 201.452C126.56 201.144 125.922 200.99 125.174 200.99C124.294 200.99 123.517 201.203 122.842 201.628C122.182 202.039 121.669 202.618 121.302 203.366C120.936 204.099 120.752 204.965 120.752 205.962C120.752 207.018 121.053 207.839 121.654 208.426C122.27 208.998 123.202 209.284 124.448 209.284C125.182 209.284 125.864 209.167 126.494 208.932C127.125 208.683 127.646 208.353 128.056 207.942L128.958 209.46C128.401 210.003 127.704 210.421 126.868 210.714C126.032 210.993 125.167 211.132 124.272 211.132ZM139.013 211.132C138.016 211.132 137.158 210.956 136.439 210.604C135.735 210.237 135.193 209.717 134.811 209.042C134.43 208.353 134.239 207.524 134.239 206.556C134.239 205.089 134.489 203.813 134.987 202.728C135.486 201.628 136.197 200.77 137.121 200.154C138.06 199.538 139.175 199.23 140.465 199.23C141.463 199.23 142.343 199.428 143.105 199.824C143.883 200.22 144.491 200.799 144.931 201.562C145.386 202.31 145.613 203.205 145.613 204.246C145.613 205.243 145.445 206.16 145.107 206.996C144.785 207.832 144.323 208.558 143.721 209.174C143.135 209.79 142.438 210.274 141.631 210.626C140.825 210.963 139.952 211.132 139.013 211.132ZM131.445 215.268L134.613 199.34H136.637L136.021 202.354L135.339 205.06L135.031 207.832L133.557 215.268H131.445ZM138.925 209.284C139.805 209.284 140.583 209.071 141.257 208.646C141.947 208.221 142.489 207.641 142.885 206.908C143.281 206.16 143.479 205.309 143.479 204.356C143.479 203.329 143.179 202.53 142.577 201.958C141.976 201.371 141.118 201.078 140.003 201.078C139.138 201.078 138.353 201.291 137.649 201.716C136.96 202.127 136.417 202.706 136.021 203.454C135.64 204.187 135.449 205.038 135.449 206.006C135.449 207.018 135.75 207.817 136.351 208.404C136.953 208.991 137.811 209.284 138.925 209.284ZM147.492 211L149.846 199.34H151.98L150.22 208.052L159.02 199.34H161.022L158.712 211H156.556L158.338 202.288L149.538 211H147.492ZM168.069 211.132C167.086 211.132 166.206 210.934 165.429 210.538C164.651 210.127 164.035 209.548 163.581 208.8C163.141 208.052 162.921 207.15 162.921 206.094C162.921 205.097 163.082 204.18 163.405 203.344C163.742 202.508 164.204 201.782 164.791 201.166C165.392 200.55 166.096 200.073 166.903 199.736C167.709 199.399 168.582 199.23 169.521 199.23C170.533 199.23 171.391 199.406 172.095 199.758C172.799 200.11 173.341 200.631 173.723 201.32C174.104 201.995 174.295 202.823 174.295 203.806C174.295 205.243 174.045 206.519 173.547 207.634C173.048 208.734 172.329 209.592 171.391 210.208C170.467 210.824 169.359 211.132 168.069 211.132ZM168.531 209.284C169.411 209.284 170.195 209.071 170.885 208.646C171.574 208.221 172.109 207.641 172.491 206.908C172.887 206.16 173.085 205.309 173.085 204.356C173.085 203.329 172.784 202.53 172.183 201.958C171.581 201.371 170.723 201.078 169.609 201.078C168.743 201.078 167.966 201.291 167.277 201.716C166.587 202.127 166.045 202.706 165.649 203.454C165.253 204.187 165.055 205.038 165.055 206.006C165.055 207.018 165.355 207.817 165.957 208.404C166.558 208.991 167.416 209.284 168.531 209.284ZM171.897 211L172.513 207.986L173.217 205.28L173.503 202.508L174.119 199.34H176.231L173.921 211H171.897ZM176.086 210.978L176.592 209.196C176.694 209.211 176.79 209.225 176.878 209.24C176.966 209.255 177.046 209.262 177.12 209.262C177.648 209.262 178.102 209.027 178.484 208.558C178.865 208.089 179.202 207.429 179.496 206.578C179.789 205.727 180.082 204.745 180.376 203.63L181.432 199.34H190.364L188.032 211H185.92L188.01 200.528L188.428 201.188H182.444L183.016 200.528L182.224 203.784C181.93 204.987 181.622 206.05 181.3 206.974C180.992 207.883 180.654 208.653 180.288 209.284C179.921 209.9 179.503 210.369 179.034 210.692C178.579 211.015 178.044 211.176 177.428 211.176C177.208 211.176 176.995 211.154 176.79 211.11C176.57 211.081 176.335 211.037 176.086 210.978ZM192.797 211.132C192.401 211.132 192.064 211 191.785 210.736C191.521 210.457 191.389 210.12 191.389 209.724C191.389 209.24 191.543 208.851 191.851 208.558C192.159 208.265 192.526 208.118 192.951 208.118C193.347 208.118 193.677 208.25 193.941 208.514C194.205 208.778 194.337 209.123 194.337 209.548C194.337 209.856 194.264 210.135 194.117 210.384C193.97 210.619 193.78 210.802 193.545 210.934C193.325 211.066 193.076 211.132 192.797 211.132ZM210.993 211.176C209.439 211.176 208.111 210.905 207.011 210.362C205.926 209.819 205.09 209.064 204.503 208.096C203.931 207.113 203.645 205.977 203.645 204.686C203.645 203.41 203.865 202.215 204.305 201.1C204.745 199.971 205.376 198.981 206.197 198.13C207.033 197.279 208.023 196.619 209.167 196.15C210.326 195.666 211.631 195.424 213.083 195.424C214.359 195.424 215.489 195.629 216.471 196.04C217.454 196.451 218.209 197.045 218.737 197.822L217.153 199.186C216.699 198.599 216.119 198.152 215.415 197.844C214.711 197.536 213.883 197.382 212.929 197.382C211.829 197.382 210.839 197.573 209.959 197.954C209.094 198.321 208.353 198.841 207.737 199.516C207.121 200.176 206.652 200.939 206.329 201.804C206.007 202.669 205.845 203.586 205.845 204.554C205.845 205.478 206.043 206.292 206.439 206.996C206.85 207.685 207.444 208.228 208.221 208.624C209.013 209.02 209.989 209.218 211.147 209.218C212.086 209.218 212.944 209.064 213.721 208.756C214.513 208.448 215.21 207.993 215.811 207.392L217.087 208.844C216.383 209.621 215.503 210.208 214.447 210.604C213.391 210.985 212.24 211.176 210.993 211.176ZM219.207 211L221.539 199.34H232.341L230.009 211H227.897L229.921 200.66L230.317 201.188H222.727L223.365 200.66L221.319 211H219.207ZM239.354 211.132C238.371 211.132 237.491 210.934 236.714 210.538C235.936 210.127 235.32 209.548 234.866 208.8C234.426 208.052 234.206 207.15 234.206 206.094C234.206 205.097 234.367 204.18 234.69 203.344C235.027 202.508 235.489 201.782 236.076 201.166C236.677 200.55 237.381 200.073 238.188 199.736C238.994 199.399 239.867 199.23 240.806 199.23C241.818 199.23 242.676 199.406 243.38 199.758C244.084 200.11 244.626 200.631 245.008 201.32C245.389 201.995 245.58 202.823 245.58 203.806C245.58 205.243 245.33 206.519 244.832 207.634C244.333 208.734 243.614 209.592 242.676 210.208C241.752 210.824 240.644 211.132 239.354 211.132ZM239.816 209.284C240.696 209.284 241.48 209.071 242.17 208.646C242.859 208.221 243.394 207.641 243.776 206.908C244.172 206.16 244.37 205.309 244.37 204.356C244.37 203.329 244.069 202.53 243.468 201.958C242.866 201.371 242.008 201.078 240.894 201.078C240.028 201.078 239.251 201.291 238.562 201.716C237.872 202.127 237.33 202.706 236.934 203.454C236.538 204.187 236.34 205.038 236.34 206.006C236.34 207.018 236.64 207.817 237.242 208.404C237.843 208.991 238.701 209.284 239.816 209.284ZM243.182 211L243.798 207.986L244.502 205.28L244.788 202.508L245.404 199.34H247.516L245.206 211H243.182ZM254.939 211.132C253.809 211.132 252.827 210.927 251.991 210.516C251.169 210.091 250.531 209.504 250.077 208.756C249.622 207.993 249.395 207.106 249.395 206.094C249.395 204.774 249.688 203.601 250.275 202.574C250.861 201.533 251.675 200.719 252.717 200.132C253.758 199.531 254.939 199.23 256.259 199.23C257.388 199.23 258.356 199.443 259.163 199.868C259.969 200.279 260.6 200.909 261.055 201.76L259.273 202.75C258.979 202.178 258.561 201.76 258.019 201.496C257.491 201.217 256.853 201.078 256.105 201.078C255.225 201.078 254.44 201.291 253.751 201.716C253.061 202.127 252.519 202.706 252.123 203.454C251.727 204.187 251.529 205.038 251.529 206.006C251.529 207.018 251.829 207.817 252.431 208.404C253.047 208.991 253.912 209.284 255.027 209.284C255.716 209.284 256.361 209.145 256.963 208.866C257.579 208.587 258.092 208.177 258.503 207.634L260.043 208.734C259.515 209.482 258.796 210.069 257.887 210.494C256.977 210.919 255.995 211.132 254.939 211.132ZM262.154 211L264.508 199.34H266.642L264.882 208.052L273.682 199.34H275.684L273.374 211H271.218L273 202.288L264.2 211H262.154ZM283.347 211.176C281.66 211.176 280.34 210.692 279.387 209.724C278.448 208.756 277.979 207.326 277.979 205.434C277.979 204.217 278.162 203.058 278.529 201.958C278.91 200.858 279.445 199.861 280.135 198.966C280.824 198.057 281.638 197.301 282.577 196.7C283.53 196.099 284.586 195.681 285.745 195.446L291.267 194.324L291.289 196.128L286.229 197.14C285.07 197.375 284.058 197.807 283.193 198.438C282.342 199.069 281.653 199.875 281.125 200.858C280.611 201.826 280.274 202.955 280.113 204.246L279.541 203.762C280.23 202.574 281.088 201.679 282.115 201.078C283.141 200.462 284.293 200.154 285.569 200.154C287.035 200.154 288.187 200.557 289.023 201.364C289.873 202.171 290.299 203.293 290.299 204.73C290.299 205.947 289.998 207.047 289.397 208.03C288.81 208.998 287.989 209.768 286.933 210.34C285.891 210.897 284.696 211.176 283.347 211.176ZM283.501 209.526C284.366 209.526 285.136 209.328 285.811 208.932C286.5 208.536 287.043 208.008 287.439 207.348C287.835 206.673 288.033 205.918 288.033 205.082C288.033 204.099 287.747 203.344 287.175 202.816C286.617 202.288 285.84 202.024 284.843 202.024C284.212 202.024 283.611 202.134 283.039 202.354C282.467 202.574 281.953 202.875 281.499 203.256C281.059 203.637 280.714 204.085 280.465 204.598C280.215 205.111 280.091 205.661 280.091 206.248C280.091 207.231 280.391 208.023 280.993 208.624C281.609 209.225 282.445 209.526 283.501 209.526ZM297.713 211.132C296.598 211.132 295.63 210.927 294.809 210.516C294.002 210.091 293.371 209.504 292.917 208.756C292.462 207.993 292.235 207.106 292.235 206.094C292.235 204.774 292.528 203.601 293.115 202.574C293.701 201.533 294.508 200.719 295.535 200.132C296.576 199.531 297.757 199.23 299.077 199.23C300.177 199.23 301.137 199.435 301.959 199.846C302.78 200.257 303.411 200.836 303.851 201.584C304.305 202.332 304.533 203.219 304.533 204.246C304.533 205.566 304.239 206.747 303.653 207.788C303.066 208.815 302.259 209.629 301.233 210.23C300.221 210.831 299.047 211.132 297.713 211.132ZM297.845 209.284C298.725 209.284 299.509 209.071 300.199 208.646C300.888 208.221 301.423 207.641 301.805 206.908C302.201 206.16 302.399 205.309 302.399 204.356C302.399 203.329 302.098 202.53 301.497 201.958C300.895 201.371 300.037 201.078 298.923 201.078C298.057 201.078 297.28 201.291 296.591 201.716C295.901 202.127 295.359 202.706 294.963 203.454C294.567 204.187 294.369 205.038 294.369 206.006C294.369 207.018 294.669 207.817 295.271 208.404C295.872 208.991 296.73 209.284 297.845 209.284ZM315.796 211.154C314.022 211.154 312.504 210.692 311.242 209.768L312.056 208.272C312.511 208.624 313.068 208.895 313.728 209.086C314.403 209.262 315.114 209.35 315.862 209.35C316.581 209.35 317.204 209.262 317.732 209.086C318.275 208.895 318.7 208.646 319.008 208.338C319.316 208.03 319.47 207.678 319.47 207.282C319.47 206.798 319.258 206.424 318.832 206.16C318.422 205.896 317.835 205.764 317.072 205.764H314.96L315.202 204.224H316.984C317.864 204.224 318.568 204.07 319.096 203.762C319.639 203.439 319.91 203.021 319.91 202.508C319.91 202.053 319.69 201.694 319.25 201.43C318.825 201.151 318.216 201.012 317.424 201.012C316.838 201.012 316.251 201.093 315.664 201.254C315.092 201.415 314.462 201.643 313.772 201.936L313.266 200.176C313.985 199.839 314.711 199.589 315.444 199.428C316.178 199.267 316.896 199.186 317.6 199.186C318.495 199.186 319.28 199.311 319.954 199.56C320.629 199.795 321.15 200.139 321.516 200.594C321.898 201.034 322.088 201.555 322.088 202.156C322.088 202.684 321.934 203.161 321.626 203.586C321.333 204.011 320.915 204.363 320.372 204.642C319.844 204.921 319.214 205.097 318.48 205.17L318.436 204.774C319.434 204.891 320.204 205.177 320.746 205.632C321.304 206.087 321.582 206.688 321.582 207.436C321.582 208.14 321.333 208.778 320.834 209.35C320.336 209.907 319.646 210.347 318.766 210.67C317.901 210.993 316.911 211.154 315.796 211.154ZM329.309 211.132C328.326 211.132 327.446 210.934 326.669 210.538C325.892 210.127 325.276 209.548 324.821 208.8C324.381 208.052 324.161 207.15 324.161 206.094C324.161 205.097 324.322 204.18 324.645 203.344C324.982 202.508 325.444 201.782 326.031 201.166C326.632 200.55 327.336 200.073 328.143 199.736C328.95 199.399 329.822 199.23 330.761 199.23C331.773 199.23 332.631 199.406 333.335 199.758C334.039 200.11 334.582 200.631 334.963 201.32C335.344 201.995 335.535 202.823 335.535 203.806C335.535 205.243 335.286 206.519 334.787 207.634C334.288 208.734 333.57 209.592 332.631 210.208C331.707 210.824 330.6 211.132 329.309 211.132ZM329.771 209.284C330.651 209.284 331.436 209.071 332.125 208.646C332.814 208.221 333.35 207.641 333.731 206.908C334.127 206.16 334.325 205.309 334.325 204.356C334.325 203.329 334.024 202.53 333.423 201.958C332.822 201.371 331.964 201.078 330.849 201.078C329.984 201.078 329.206 201.291 328.517 201.716C327.828 202.127 327.285 202.706 326.889 203.454C326.493 204.187 326.295 205.038 326.295 206.006C326.295 207.018 326.596 207.817 327.197 208.404C327.798 208.991 328.656 209.284 329.771 209.284ZM333.137 211L333.753 207.986L334.457 205.28L334.743 202.508L335.359 199.34H337.471L335.161 211H333.137ZM103.92 242.4C103.363 242.4 102.813 242.305 102.27 242.114C101.727 241.938 101.302 241.689 100.994 241.366L102.094 239.804C102.343 240.053 102.637 240.244 102.974 240.376C103.297 240.523 103.663 240.596 104.074 240.596C104.558 240.596 104.991 240.464 105.372 240.2C105.768 239.951 106.171 239.503 106.582 238.858L107.682 237.164L107.924 236.922L114.59 226.34H116.724L108.452 239.276C107.939 240.068 107.455 240.691 107 241.146C106.545 241.601 106.069 241.923 105.57 242.114C105.086 242.305 104.536 242.4 103.92 242.4ZM107.286 238.374L104.36 226.34H106.472L108.958 236.724L107.286 238.374ZM124.158 237.01L125.918 228.188H120.858L120.308 230.52C120.118 231.239 119.927 231.943 119.736 232.632C119.546 233.307 119.326 233.93 119.076 234.502C118.827 235.059 118.541 235.521 118.218 235.888C117.896 236.24 117.507 236.453 117.052 236.526L114.874 236.152C115.329 236.167 115.732 236.013 116.084 235.69C116.436 235.367 116.752 234.927 117.03 234.37C117.309 233.798 117.558 233.153 117.778 232.434C118.013 231.715 118.226 230.975 118.416 230.212L119.34 226.34H128.404L126.27 237.01H124.158ZM113.598 240.706L114.5 236.152H128.228L127.326 240.706H125.346L125.874 238H116.128L115.578 240.706H113.598ZM136.15 238.132C135.035 238.132 134.067 237.927 133.246 237.516C132.439 237.091 131.809 236.504 131.354 235.756C130.899 234.993 130.672 234.106 130.672 233.094C130.672 231.774 130.965 230.601 131.552 229.574C132.139 228.533 132.945 227.719 133.972 227.132C135.013 226.531 136.194 226.23 137.514 226.23C138.614 226.23 139.575 226.435 140.396 226.846C141.217 227.257 141.848 227.836 142.288 228.584C142.743 229.332 142.97 230.219 142.97 231.246C142.97 232.566 142.677 233.747 142.09 234.788C141.503 235.815 140.697 236.629 139.67 237.23C138.658 237.831 137.485 238.132 136.15 238.132ZM136.282 236.284C137.162 236.284 137.947 236.071 138.636 235.646C139.325 235.221 139.861 234.641 140.242 233.908C140.638 233.16 140.836 232.309 140.836 231.356C140.836 230.329 140.535 229.53 139.934 228.958C139.333 228.371 138.475 228.078 137.36 228.078C136.495 228.078 135.717 228.291 135.028 228.716C134.339 229.127 133.796 229.706 133.4 230.454C133.004 231.187 132.806 232.038 132.806 233.006C132.806 234.018 133.107 234.817 133.708 235.404C134.309 235.991 135.167 236.284 136.282 236.284ZM150.724 238.176C149.037 238.176 147.717 237.692 146.764 236.724C145.825 235.756 145.356 234.326 145.356 232.434C145.356 231.217 145.539 230.058 145.906 228.958C146.287 227.858 146.822 226.861 147.512 225.966C148.201 225.057 149.015 224.301 149.954 223.7C150.907 223.099 151.963 222.681 153.122 222.446L158.644 221.324L158.666 223.128L153.606 224.14C152.447 224.375 151.435 224.807 150.57 225.438C149.719 226.069 149.03 226.875 148.502 227.858C147.988 228.826 147.651 229.955 147.49 231.246L146.918 230.762C147.607 229.574 148.465 228.679 149.492 228.078C150.518 227.462 151.67 227.154 152.946 227.154C154.412 227.154 155.564 227.557 156.4 228.364C157.25 229.171 157.676 230.293 157.676 231.73C157.676 232.947 157.375 234.047 156.774 235.03C156.187 235.998 155.366 236.768 154.31 237.34C153.268 237.897 152.073 238.176 150.724 238.176ZM150.878 236.526C151.743 236.526 152.513 236.328 153.188 235.932C153.877 235.536 154.42 235.008 154.816 234.348C155.212 233.673 155.41 232.918 155.41 232.082C155.41 231.099 155.124 230.344 154.552 229.816C153.994 229.288 153.217 229.024 152.22 229.024C151.589 229.024 150.988 229.134 150.416 229.354C149.844 229.574 149.33 229.875 148.876 230.256C148.436 230.637 148.091 231.085 147.842 231.598C147.592 232.111 147.468 232.661 147.468 233.248C147.468 234.231 147.768 235.023 148.37 235.624C148.986 236.225 149.822 236.526 150.878 236.526ZM159.524 238L161.856 226.34H163.968L162.978 231.29H169.622L170.612 226.34H172.724L170.392 238H168.28L169.27 233.116H162.626L161.636 238H159.524ZM186.027 238L188.337 226.34H190.449L188.139 238H186.027ZM181.121 230.278C182.441 230.278 183.431 230.549 184.091 231.092C184.765 231.62 185.103 232.419 185.103 233.49C185.103 234.399 184.875 235.199 184.421 235.888C183.966 236.563 183.321 237.083 182.485 237.45C181.663 237.817 180.688 238 179.559 238H174.477L176.809 226.384H178.899L178.129 230.278H181.121ZM179.559 236.416C180.248 236.416 180.849 236.306 181.363 236.086C181.876 235.851 182.272 235.529 182.551 235.118C182.844 234.707 182.991 234.223 182.991 233.666C182.991 232.449 182.155 231.84 180.483 231.84H177.821L176.919 236.416H179.559ZM192.223 238L194.577 226.34H196.711L194.951 235.052L203.751 226.34H205.753L203.443 238H201.287L203.069 229.288L194.269 238H192.223ZM200.495 224.756C199.38 224.756 198.559 224.499 198.031 223.986C197.503 223.458 197.327 222.717 197.503 221.764H198.933C198.83 222.336 198.933 222.791 199.241 223.128C199.549 223.451 200.003 223.612 200.605 223.612C201.206 223.612 201.712 223.451 202.123 223.128C202.548 222.805 202.827 222.351 202.959 221.764H204.411C204.22 222.747 203.787 223.495 203.113 224.008C202.438 224.507 201.565 224.756 200.495 224.756ZM220.181 238.132C219.184 238.132 218.326 237.956 217.607 237.604C216.903 237.237 216.361 236.717 215.979 236.042C215.598 235.353 215.407 234.524 215.407 233.556C215.407 232.089 215.657 230.813 216.155 229.728C216.654 228.628 217.365 227.77 218.289 227.154C219.228 226.538 220.343 226.23 221.633 226.23C222.631 226.23 223.511 226.428 224.273 226.824C225.051 227.22 225.659 227.799 226.099 228.562C226.554 229.31 226.781 230.205 226.781 231.246C226.781 232.243 226.613 233.16 226.275 233.996C225.953 234.832 225.491 235.558 224.889 236.174C224.303 236.79 223.606 237.274 222.799 237.626C221.993 237.963 221.12 238.132 220.181 238.132ZM212.613 242.268L215.781 226.34H217.805L217.189 229.354L216.507 232.06L216.199 234.832L214.725 242.268H212.613ZM220.093 236.284C220.973 236.284 221.751 236.071 222.425 235.646C223.115 235.221 223.657 234.641 224.053 233.908C224.449 233.16 224.647 232.309 224.647 231.356C224.647 230.329 224.347 229.53 223.745 228.958C223.144 228.371 222.286 228.078 221.171 228.078C220.306 228.078 219.521 228.291 218.817 228.716C218.128 229.127 217.585 229.706 217.189 230.454C216.808 231.187 216.617 232.038 216.617 233.006C216.617 234.018 216.918 234.817 217.519 235.404C218.121 235.991 218.979 236.284 220.093 236.284ZM234.358 238.132C233.214 238.132 232.224 237.927 231.388 237.516C230.552 237.091 229.907 236.504 229.452 235.756C228.998 234.993 228.77 234.099 228.77 233.072C228.77 231.752 229.056 230.579 229.628 229.552C230.2 228.525 230.978 227.719 231.96 227.132C232.958 226.531 234.087 226.23 235.348 226.23C236.404 226.23 237.321 226.435 238.098 226.846C238.876 227.242 239.477 227.814 239.902 228.562C240.342 229.31 240.562 230.212 240.562 231.268C240.562 231.532 240.548 231.803 240.518 232.082C240.489 232.346 240.452 232.595 240.408 232.83H230.31L230.574 231.29H239.396L238.538 231.818C238.67 230.997 238.612 230.307 238.362 229.75C238.113 229.178 237.717 228.745 237.174 228.452C236.646 228.144 236.008 227.99 235.26 227.99C234.38 227.99 233.603 228.203 232.928 228.628C232.268 229.039 231.755 229.618 231.388 230.366C231.022 231.099 230.838 231.965 230.838 232.962C230.838 234.018 231.139 234.839 231.74 235.426C232.356 235.998 233.288 236.284 234.534 236.284C235.268 236.284 235.95 236.167 236.58 235.932C237.211 235.683 237.732 235.353 238.142 234.942L239.044 236.46C238.487 237.003 237.79 237.421 236.954 237.714C236.118 237.993 235.253 238.132 234.358 238.132ZM247.999 238.132C246.87 238.132 245.887 237.927 245.051 237.516C244.23 237.091 243.592 236.504 243.137 235.756C242.683 234.993 242.455 234.106 242.455 233.094C242.455 231.774 242.749 230.601 243.335 229.574C243.922 228.533 244.736 227.719 245.777 227.132C246.819 226.531 247.999 226.23 249.319 226.23C250.449 226.23 251.417 226.443 252.223 226.868C253.03 227.279 253.661 227.909 254.115 228.76L252.333 229.75C252.04 229.178 251.622 228.76 251.079 228.496C250.551 228.217 249.913 228.078 249.165 228.078C248.285 228.078 247.501 228.291 246.811 228.716C246.122 229.127 245.579 229.706 245.183 230.454C244.787 231.187 244.589 232.038 244.589 233.006C244.589 234.018 244.89 234.817 245.491 235.404C246.107 235.991 246.973 236.284 248.087 236.284C248.777 236.284 249.422 236.145 250.023 235.866C250.639 235.587 251.153 235.177 251.563 234.634L253.103 235.734C252.575 236.482 251.857 237.069 250.947 237.494C250.038 237.919 249.055 238.132 247.999 238.132ZM254.977 242.4C254.419 242.4 253.869 242.305 253.327 242.114C252.784 241.938 252.359 241.689 252.051 241.366L253.151 239.804C253.4 240.053 253.693 240.244 254.031 240.376C254.353 240.523 254.72 240.596 255.131 240.596C255.615 240.596 256.047 240.464 256.429 240.2C256.825 239.951 257.228 239.503 257.639 238.858L258.739 237.164L258.981 236.922L265.647 226.34H267.781L259.509 239.276C258.995 240.068 258.511 240.691 258.057 241.146C257.602 241.601 257.125 241.923 256.627 242.114C256.143 242.305 255.593 242.4 254.977 242.4ZM258.343 238.374L255.417 226.34H257.529L260.015 236.724L258.343 238.374ZM274.386 238.132C273.389 238.132 272.531 237.956 271.812 237.604C271.108 237.237 270.566 236.717 270.184 236.042C269.803 235.353 269.612 234.524 269.612 233.556C269.612 232.089 269.862 230.813 270.36 229.728C270.859 228.628 271.57 227.77 272.494 227.154C273.433 226.538 274.548 226.23 275.838 226.23C276.836 226.23 277.716 226.428 278.478 226.824C279.256 227.22 279.864 227.799 280.304 228.562C280.759 229.31 280.986 230.205 280.986 231.246C280.986 232.243 280.818 233.16 280.48 233.996C280.158 234.832 279.696 235.558 279.094 236.174C278.508 236.79 277.811 237.274 277.004 237.626C276.198 237.963 275.325 238.132 274.386 238.132ZM266.818 242.268L269.986 226.34H272.01L271.394 229.354L270.712 232.06L270.404 234.832L268.93 242.268H266.818ZM274.298 236.284C275.178 236.284 275.956 236.071 276.63 235.646C277.32 235.221 277.862 234.641 278.258 233.908C278.654 233.16 278.852 232.309 278.852 231.356C278.852 230.329 278.552 229.53 277.95 228.958C277.349 228.371 276.491 228.078 275.376 228.078C274.511 228.078 273.726 228.291 273.022 228.716C272.333 229.127 271.79 229.706 271.394 230.454C271.013 231.187 270.822 232.038 270.822 233.006C270.822 234.018 271.123 234.817 271.724 235.404C272.326 235.991 273.184 236.284 274.298 236.284ZM288.497 238.132C287.368 238.132 286.385 237.927 285.549 237.516C284.728 237.091 284.09 236.504 283.635 235.756C283.181 234.993 282.953 234.106 282.953 233.094C282.953 231.774 283.247 230.601 283.833 229.574C284.42 228.533 285.234 227.719 286.275 227.132C287.317 226.531 288.497 226.23 289.817 226.23C290.947 226.23 291.915 226.443 292.721 226.868C293.528 227.279 294.159 227.909 294.613 228.76L292.831 229.75C292.538 229.178 292.12 228.76 291.577 228.496C291.049 228.217 290.411 228.078 289.663 228.078C288.783 228.078 287.999 228.291 287.309 228.716C286.62 229.127 286.077 229.706 285.681 230.454C285.285 231.187 285.087 232.038 285.087 233.006C285.087 234.018 285.388 234.817 285.989 235.404C286.605 235.991 287.471 236.284 288.585 236.284C289.275 236.284 289.92 236.145 290.521 235.866C291.137 235.587 291.651 235.177 292.061 234.634L293.601 235.734C293.073 236.482 292.355 237.069 291.445 237.494C290.536 237.919 289.553 238.132 288.497 238.132ZM296.747 233.138L298.441 222.6H300.949L298.419 233.138H296.747ZM296.813 238.132C296.417 238.132 296.087 238 295.823 237.736C295.574 237.472 295.449 237.164 295.449 236.812C295.449 236.372 295.588 236.013 295.867 235.734C296.16 235.455 296.512 235.316 296.923 235.316C297.319 235.316 297.642 235.441 297.891 235.69C298.155 235.939 298.287 236.247 298.287 236.614C298.287 236.893 298.221 237.149 298.089 237.384C297.957 237.619 297.781 237.802 297.561 237.934C297.341 238.066 297.092 238.132 296.813 238.132ZM302.788 227.682L304.768 223.216L304.966 224.558C304.57 224.558 304.232 224.426 303.954 224.162C303.69 223.883 303.558 223.539 303.558 223.128C303.558 222.659 303.712 222.277 304.02 221.984C304.342 221.691 304.709 221.544 305.12 221.544C305.516 221.544 305.846 221.676 306.11 221.94C306.374 222.204 306.506 222.541 306.506 222.952C306.506 223.187 306.462 223.407 306.374 223.612C306.3 223.817 306.183 224.074 306.022 224.382L304.174 227.682H302.788ZM306.946 227.682L308.926 223.216L309.124 224.558C308.728 224.558 308.39 224.426 308.112 224.162C307.848 223.883 307.716 223.539 307.716 223.128C307.716 222.659 307.87 222.277 308.178 221.984C308.5 221.691 308.867 221.544 309.278 221.544C309.674 221.544 310.004 221.676 310.268 221.94C310.532 222.204 310.664 222.541 310.664 222.952C310.664 223.187 310.62 223.407 310.532 223.612C310.458 223.817 310.341 224.074 310.18 224.382L308.332 227.682H306.946Z" fill="#F5F5F5"/>
</svg>
