<svg width="430" height="366" viewBox="0 0 430 366" fill="none" xmlns="http://www.w3.org/2000/svg">
<rect width="430" height="339" fill="#28668E"/>
<path d="M115 29L119.49 42.8197H134.021L122.265 51.3607L126.756 65.1803L115 56.6393L103.244 65.1803L107.735 51.3607L95.9789 42.8197H110.51L115 29Z" fill="#113349"/>
<path d="M165 29L169.49 42.8197H184.021L172.265 51.3607L176.756 65.1803L165 56.6393L153.244 65.1803L157.735 51.3607L145.979 42.8197H160.51L165 29Z" fill="#113349"/>
<path d="M215 29L219.49 42.8197H234.021L222.265 51.3607L226.756 65.1803L215 56.6393L203.244 65.1803L207.735 51.3607L195.979 42.8197H210.51L215 29Z" fill="#113349"/>
<path d="M265 29L269.49 42.8197H284.021L272.265 51.3607L276.756 65.1803L265 56.6393L253.244 65.1803L257.735 51.3607L245.979 42.8197H260.51L265 29Z" fill="#113349"/>
<path d="M315 29L319.49 42.8197H334.021L322.265 51.3607L326.756 65.1803L315 56.6393L303.244 65.1803L307.735 51.3607L295.979 42.8197H310.51L315 29Z" fill="#113349"/>
<path d="M109.279 295L111.519 283.8H112.815L116.175 292.28L115.487 292.264L122.063 283.8H123.439L121.199 295H119.663L121.439 286.168L121.839 286.2L115.999 293.64H115.263L112.239 286.168L112.575 286.216L110.815 295H109.279ZM128.253 295.096C127.538 295.096 126.898 294.952 126.333 294.664C125.768 294.365 125.32 293.944 124.989 293.4C124.669 292.856 124.509 292.2 124.509 291.432C124.509 290.707 124.626 290.04 124.861 289.432C125.106 288.824 125.442 288.296 125.869 287.848C126.306 287.4 126.818 287.053 127.405 286.808C127.992 286.563 128.626 286.44 129.309 286.44C130.045 286.44 130.669 286.568 131.181 286.824C131.693 287.08 132.088 287.459 132.365 287.96C132.642 288.451 132.781 289.053 132.781 289.768C132.781 290.813 132.6 291.741 132.237 292.552C131.874 293.352 131.352 293.976 130.669 294.424C129.997 294.872 129.192 295.096 128.253 295.096ZM128.589 293.752C129.229 293.752 129.8 293.597 130.301 293.288C130.802 292.979 131.192 292.557 131.469 292.024C131.757 291.48 131.901 290.861 131.901 290.168C131.901 289.421 131.682 288.84 131.245 288.424C130.808 287.997 130.184 287.784 129.373 287.784C128.744 287.784 128.178 287.939 127.677 288.248C127.176 288.547 126.781 288.968 126.493 289.512C126.205 290.045 126.061 290.664 126.061 291.368C126.061 292.104 126.28 292.685 126.717 293.112C127.154 293.539 127.778 293.752 128.589 293.752ZM131.037 295L131.485 292.808L131.997 290.84L132.205 288.824L132.653 286.52H134.189L132.509 295H131.037ZM135.492 295L137.188 286.52H138.756L141.14 292.792H140.5L145.508 286.52H146.948L145.268 295H143.876L145.22 288.248L145.46 288.392L140.916 294.04H140.244L137.956 288.28L138.244 288.216L136.9 295H135.492ZM152.514 295.128C151.287 295.128 150.327 294.776 149.634 294.072C148.951 293.368 148.61 292.328 148.61 290.952C148.61 290.067 148.743 289.224 149.01 288.424C149.287 287.624 149.676 286.899 150.178 286.248C150.679 285.587 151.271 285.037 151.954 284.6C152.647 284.163 153.415 283.859 154.258 283.688L158.274 282.872L158.29 284.184L154.61 284.92C153.767 285.091 153.031 285.405 152.402 285.864C151.783 286.323 151.282 286.909 150.898 287.624C150.524 288.328 150.279 289.149 150.162 290.088L149.746 289.736C150.247 288.872 150.871 288.221 151.618 287.784C152.364 287.336 153.202 287.112 154.13 287.112C155.196 287.112 156.034 287.405 156.642 287.992C157.26 288.579 157.57 289.395 157.57 290.44C157.57 291.325 157.351 292.125 156.914 292.84C156.487 293.544 155.89 294.104 155.122 294.52C154.364 294.925 153.495 295.128 152.514 295.128ZM152.626 293.928C153.255 293.928 153.815 293.784 154.306 293.496C154.807 293.208 155.202 292.824 155.49 292.344C155.778 291.853 155.922 291.304 155.922 290.696C155.922 289.981 155.714 289.432 155.298 289.048C154.892 288.664 154.327 288.472 153.602 288.472C153.143 288.472 152.706 288.552 152.29 288.712C151.874 288.872 151.5 289.091 151.17 289.368C150.85 289.645 150.599 289.971 150.418 290.344C150.236 290.717 150.146 291.117 150.146 291.544C150.146 292.259 150.364 292.835 150.802 293.272C151.25 293.709 151.858 293.928 152.626 293.928ZM163.057 295.096C162.225 295.096 161.505 294.947 160.897 294.648C160.289 294.339 159.82 293.912 159.489 293.368C159.159 292.813 158.993 292.163 158.993 291.416C158.993 290.456 159.201 289.603 159.617 288.856C160.033 288.109 160.599 287.523 161.313 287.096C162.039 286.659 162.86 286.44 163.777 286.44C164.545 286.44 165.212 286.589 165.777 286.888C166.343 287.176 166.78 287.592 167.089 288.136C167.409 288.68 167.569 289.336 167.569 290.104C167.569 290.296 167.559 290.493 167.537 290.696C167.516 290.888 167.489 291.069 167.457 291.24H160.113L160.305 290.12H166.721L166.097 290.504C166.193 289.907 166.151 289.405 165.969 289C165.788 288.584 165.5 288.269 165.105 288.056C164.721 287.832 164.257 287.72 163.713 287.72C163.073 287.72 162.508 287.875 162.017 288.184C161.537 288.483 161.164 288.904 160.897 289.448C160.631 289.981 160.497 290.611 160.497 291.336C160.497 292.104 160.716 292.701 161.153 293.128C161.601 293.544 162.279 293.752 163.185 293.752C163.719 293.752 164.215 293.667 164.673 293.496C165.132 293.315 165.511 293.075 165.809 292.776L166.465 293.88C166.06 294.275 165.553 294.579 164.945 294.792C164.337 294.995 163.708 295.096 163.057 295.096ZM170.219 295L171.691 287.464L171.979 287.864H168.539L168.795 286.52H176.539L176.283 287.864H172.779L173.227 287.464L171.755 295H170.219ZM180.086 295.096C179.276 295.096 178.572 294.947 177.974 294.648C177.388 294.339 176.929 293.912 176.598 293.368C176.268 292.813 176.102 292.168 176.102 291.432C176.102 290.472 176.316 289.619 176.742 288.872C177.169 288.115 177.756 287.523 178.502 287.096C179.26 286.659 180.118 286.44 181.078 286.44C181.878 286.44 182.577 286.589 183.174 286.888C183.772 287.187 184.23 287.608 184.55 288.152C184.881 288.696 185.046 289.341 185.046 290.088C185.046 291.048 184.833 291.907 184.406 292.664C183.98 293.411 183.393 294.003 182.646 294.44C181.91 294.877 181.057 295.096 180.086 295.096ZM180.182 293.752C180.822 293.752 181.393 293.597 181.894 293.288C182.396 292.979 182.785 292.557 183.062 292.024C183.35 291.48 183.494 290.861 183.494 290.168C183.494 289.421 183.276 288.84 182.838 288.424C182.401 287.997 181.777 287.784 180.966 287.784C180.337 287.784 179.772 287.939 179.27 288.248C178.769 288.547 178.374 288.968 178.086 289.512C177.798 290.045 177.654 290.664 177.654 291.368C177.654 292.104 177.873 292.685 178.31 293.112C178.748 293.539 179.372 293.752 180.182 293.752ZM186.413 295L188.125 286.52H191.997C192.925 286.52 193.629 286.685 194.109 287.016C194.589 287.347 194.829 287.827 194.829 288.456C194.829 289.171 194.52 289.752 193.901 290.2C193.293 290.637 192.493 290.856 191.501 290.856L191.709 290.472C192.605 290.472 193.267 290.627 193.693 290.936C194.12 291.235 194.333 291.709 194.333 292.36C194.333 293.181 194.003 293.827 193.341 294.296C192.68 294.765 191.757 295 190.573 295H186.413ZM188.173 293.816H190.621C191.315 293.816 191.859 293.683 192.253 293.416C192.648 293.149 192.845 292.776 192.845 292.296C192.845 291.933 192.723 291.672 192.477 291.512C192.232 291.352 191.832 291.272 191.277 291.272H188.669L188.173 293.816ZM188.893 290.168H191.197C191.805 290.168 192.301 290.04 192.685 289.784C193.069 289.517 193.261 289.165 193.261 288.728C193.261 288.387 193.128 288.131 192.861 287.96C192.605 287.789 192.221 287.704 191.709 287.704H189.373L188.893 290.168ZM203.082 295L205.098 284.776L205.418 285.192H201.226L201.498 283.8H210.73L210.458 285.192H206.202L206.682 284.776L204.666 295H203.082ZM209.976 295L211.688 286.52H213.24L211.96 292.856L218.36 286.52H219.816L218.136 295H216.568L217.864 288.664L211.464 295H209.976ZM221.117 295L222.813 286.52H224.381L226.765 292.792H226.125L231.133 286.52H232.573L230.893 295H229.501L230.845 288.248L231.085 288.392L226.541 294.04H225.869L223.581 288.28L223.869 288.216L222.525 295H221.117ZM233.803 298.2C233.397 298.2 232.997 298.131 232.603 297.992C232.208 297.864 231.899 297.683 231.675 297.448L232.475 296.312C232.656 296.493 232.869 296.632 233.115 296.728C233.349 296.835 233.616 296.888 233.915 296.888C234.267 296.888 234.581 296.792 234.859 296.6C235.147 296.419 235.44 296.093 235.739 295.624L236.539 294.392L236.715 294.216L241.563 286.52H243.115L237.099 295.928C236.725 296.504 236.373 296.957 236.043 297.288C235.712 297.619 235.365 297.853 235.003 297.992C234.651 298.131 234.251 298.2 233.803 298.2ZM236.251 295.272L234.123 286.52H235.659L237.467 294.072L236.251 295.272ZM247.919 295.096C247.193 295.096 246.569 294.968 246.047 294.712C245.535 294.445 245.14 294.067 244.863 293.576C244.585 293.075 244.447 292.472 244.447 291.768C244.447 290.701 244.628 289.773 244.991 288.984C245.353 288.184 245.871 287.56 246.543 287.112C247.225 286.664 248.036 286.44 248.975 286.44C249.7 286.44 250.34 286.584 250.895 286.872C251.46 287.16 251.903 287.581 252.223 288.136C252.553 288.68 252.719 289.331 252.719 290.088C252.719 290.813 252.596 291.48 252.351 292.088C252.116 292.696 251.78 293.224 251.343 293.672C250.916 294.12 250.409 294.472 249.823 294.728C249.236 294.973 248.601 295.096 247.919 295.096ZM242.415 298.104L244.719 286.52H246.191L245.743 288.712L245.247 290.68L245.023 292.696L243.951 298.104H242.415ZM247.855 293.752C248.495 293.752 249.06 293.597 249.551 293.288C250.052 292.979 250.447 292.557 250.735 292.024C251.023 291.48 251.167 290.861 251.167 290.168C251.167 289.421 250.948 288.84 250.511 288.424C250.073 287.997 249.449 287.784 248.639 287.784C248.009 287.784 247.439 287.939 246.927 288.248C246.425 288.547 246.031 288.968 245.743 289.512C245.465 290.045 245.327 290.664 245.327 291.368C245.327 292.104 245.545 292.685 245.983 293.112C246.42 293.539 247.044 293.752 247.855 293.752ZM258.574 291.272L258.83 289.944H263.134L262.862 291.272H258.574ZM268.996 295L271.236 283.8H275.396C276.708 283.8 277.721 284.088 278.436 284.664C279.151 285.24 279.508 286.045 279.508 287.08C279.508 288.029 279.295 288.845 278.868 289.528C278.452 290.2 277.849 290.717 277.06 291.08C276.271 291.432 275.337 291.608 274.26 291.608H270.58L271.428 290.84L270.596 295H268.996ZM271.396 291.016L270.836 290.216H274.292C275.433 290.216 276.319 289.965 276.948 289.464C277.588 288.952 277.908 288.205 277.908 287.224C277.908 286.552 277.679 286.045 277.22 285.704C276.761 285.363 276.105 285.192 275.252 285.192H271.876L272.724 284.376L271.396 291.016ZM280.022 295L281.702 286.52H283.174L282.694 288.984L282.534 288.376C282.929 287.661 283.43 287.16 284.038 286.872C284.646 286.584 285.398 286.44 286.294 286.44L286.006 287.928C285.942 287.917 285.878 287.912 285.814 287.912C285.75 287.912 285.681 287.912 285.606 287.912C284.764 287.912 284.065 288.141 283.51 288.6C282.966 289.059 282.598 289.779 282.406 290.76L281.558 295H280.022ZM290.365 295.096C289.555 295.096 288.851 294.947 288.253 294.648C287.667 294.339 287.208 293.912 286.877 293.368C286.547 292.813 286.381 292.168 286.381 291.432C286.381 290.472 286.595 289.619 287.021 288.872C287.448 288.115 288.035 287.523 288.781 287.096C289.539 286.659 290.397 286.44 291.357 286.44C292.157 286.44 292.856 286.589 293.453 286.888C294.051 287.187 294.509 287.608 294.829 288.152C295.16 288.696 295.325 289.341 295.325 290.088C295.325 291.048 295.112 291.907 294.685 292.664C294.259 293.411 293.672 294.003 292.925 294.44C292.189 294.877 291.336 295.096 290.365 295.096ZM290.461 293.752C291.101 293.752 291.672 293.597 292.173 293.288C292.675 292.979 293.064 292.557 293.341 292.024C293.629 291.48 293.773 290.861 293.773 290.168C293.773 289.421 293.555 288.84 293.117 288.424C292.68 287.997 292.056 287.784 291.245 287.784C290.616 287.784 290.051 287.939 289.549 288.248C289.048 288.547 288.653 288.968 288.365 289.512C288.077 290.045 287.933 290.664 287.933 291.368C287.933 292.104 288.152 292.685 288.589 293.112C289.027 293.539 289.651 293.752 290.461 293.752ZM296.762 295L298.634 285.72C298.804 284.867 299.151 284.205 299.674 283.736C300.207 283.267 300.906 283.032 301.77 283.032C302.122 283.032 302.452 283.08 302.762 283.176C303.082 283.261 303.343 283.389 303.546 283.56L302.906 284.696C302.607 284.429 302.228 284.296 301.77 284.296C301.311 284.296 300.943 284.424 300.666 284.68C300.399 284.936 300.212 285.325 300.106 285.848L299.866 286.952L299.786 287.592L298.298 295H296.762ZM296.762 287.784L297.002 286.52H302.426L302.17 287.784H296.762ZM302.202 295L303.882 286.52H305.418L303.738 295H302.202ZM305.098 284.888C304.81 284.888 304.575 284.797 304.394 284.616C304.223 284.435 304.138 284.216 304.138 283.96C304.138 283.661 304.239 283.411 304.442 283.208C304.644 282.995 304.911 282.888 305.242 282.888C305.519 282.888 305.748 282.979 305.93 283.16C306.122 283.331 306.218 283.539 306.218 283.784C306.218 284.115 306.116 284.381 305.914 284.584C305.711 284.787 305.439 284.888 305.098 284.888ZM310.711 295.128C309.922 295.128 309.244 294.968 308.679 294.648C308.114 294.317 307.676 293.843 307.367 293.224C307.068 292.605 306.919 291.869 306.919 291.016C306.919 290.045 307.052 289.117 307.319 288.232C307.586 287.347 307.964 286.563 308.455 285.88C308.946 285.197 309.538 284.659 310.231 284.264C310.935 283.869 311.719 283.672 312.583 283.672C313.372 283.672 314.044 283.837 314.599 284.168C315.164 284.488 315.596 284.957 315.895 285.576C316.204 286.184 316.359 286.92 316.359 287.784C316.359 288.755 316.226 289.683 315.959 290.568C315.692 291.453 315.314 292.237 314.823 292.92C314.332 293.603 313.74 294.141 313.047 294.536C312.354 294.931 311.575 295.128 310.711 295.128ZM310.839 293.704C311.468 293.704 312.023 293.523 312.503 293.16C312.994 292.797 313.404 292.328 313.735 291.752C314.076 291.165 314.332 290.531 314.503 289.848C314.674 289.155 314.759 288.477 314.759 287.816C314.759 286.92 314.556 286.243 314.151 285.784C313.746 285.325 313.18 285.096 312.455 285.096C311.826 285.096 311.266 285.277 310.775 285.64C310.284 286.003 309.868 286.477 309.527 287.064C309.196 287.64 308.946 288.275 308.775 288.968C308.604 289.651 308.519 290.323 308.519 290.984C308.519 291.869 308.722 292.547 309.127 293.016C309.532 293.475 310.103 293.704 310.839 293.704ZM318.503 295L320.599 284.504L321.159 285.192H317.943L318.215 283.8H322.327L320.087 295H318.503Z" fill="#A9A9A9"/>
<path d="M332.795 363.766L349.535 326.008L351.209 337.354C347.861 337.354 345.009 336.238 342.653 334.006C340.421 331.65 339.305 328.736 339.305 325.264C339.305 321.296 340.607 318.072 343.211 315.592C345.939 313.112 349.039 311.872 352.511 311.872C355.859 311.872 358.649 312.988 360.881 315.22C363.113 317.452 364.229 320.304 364.229 323.776C364.229 325.76 363.857 327.62 363.113 329.356C362.493 331.092 361.501 333.262 360.137 335.866L344.513 363.766H332.795ZM367.949 363.766L384.689 326.008L386.363 337.354C383.015 337.354 380.163 336.238 377.807 334.006C375.575 331.65 374.459 328.736 374.459 325.264C374.459 321.296 375.761 318.072 378.365 315.592C381.093 313.112 384.193 311.872 387.665 311.872C391.013 311.872 393.803 312.988 396.035 315.22C398.267 317.452 399.383 320.304 399.383 323.776C399.383 325.76 399.011 327.62 398.267 329.356C397.647 331.092 396.655 333.262 395.291 335.866L379.667 363.766H367.949Z" fill="white"/>
<path d="M65.0987 100.676L63.1187 105.142L62.8987 103.8C63.2947 103.8 63.6247 103.939 63.8887 104.218C64.1673 104.482 64.3067 104.812 64.3067 105.208C64.3067 105.677 64.1527 106.066 63.8447 106.374C63.5367 106.667 63.1773 106.814 62.7667 106.814C62.3707 106.814 62.0333 106.682 61.7547 106.418C61.4907 106.139 61.3587 105.802 61.3587 105.406C61.3587 105.171 61.3953 104.951 61.4687 104.746C61.5567 104.526 61.6887 104.269 61.8647 103.976L63.7127 100.676H65.0987ZM69.2567 100.676L67.2767 105.142L67.0567 103.8C67.4527 103.8 67.7827 103.939 68.0467 104.218C68.3253 104.482 68.4647 104.812 68.4647 105.208C68.4647 105.677 68.3107 106.066 68.0027 106.374C67.6947 106.667 67.3353 106.814 66.9247 106.814C66.5287 106.814 66.1913 106.682 65.9127 106.418C65.6487 106.139 65.5167 105.802 65.5167 105.406C65.5167 105.171 65.5533 104.951 65.6267 104.746C65.7147 104.526 65.8467 104.269 66.0227 103.976L67.8707 100.676H69.2567ZM69.565 117L72.645 101.6H85.911L82.831 117H80.675L83.447 102.942L83.865 103.514H73.855L74.515 102.942L71.743 117H69.565ZM92.8474 117.132C91.7327 117.132 90.7647 116.927 89.9434 116.516C89.1367 116.091 88.506 115.504 88.0514 114.756C87.5967 113.993 87.3694 113.106 87.3694 112.094C87.3694 110.774 87.6627 109.601 88.2494 108.574C88.836 107.533 89.6427 106.719 90.6694 106.132C91.7107 105.531 92.8914 105.23 94.2114 105.23C95.3114 105.23 96.272 105.435 97.0934 105.846C97.9147 106.257 98.5454 106.836 98.9854 107.584C99.44 108.332 99.6674 109.219 99.6674 110.246C99.6674 111.566 99.374 112.747 98.7874 113.788C98.2007 114.815 97.394 115.629 96.3674 116.23C95.3554 116.831 94.182 117.132 92.8474 117.132ZM92.9794 115.284C93.8594 115.284 94.644 115.071 95.3334 114.646C96.0227 114.221 96.558 113.641 96.9394 112.908C97.3354 112.16 97.5334 111.309 97.5334 110.356C97.5334 109.329 97.2327 108.53 96.6314 107.958C96.03 107.371 95.172 107.078 94.0574 107.078C93.192 107.078 92.4147 107.291 91.7254 107.716C91.036 108.127 90.4934 108.706 90.0974 109.454C89.7014 110.187 89.5034 111.038 89.5034 112.006C89.5034 113.018 89.804 113.817 90.4054 114.404C91.0067 114.991 91.8647 115.284 92.9794 115.284ZM109.623 116.01L111.383 107.188H106.323L105.773 109.52C105.582 110.239 105.392 110.943 105.201 111.632C105.01 112.307 104.79 112.93 104.541 113.502C104.292 114.059 104.006 114.521 103.683 114.888C103.36 115.24 102.972 115.453 102.517 115.526L100.339 115.152C100.794 115.167 101.197 115.013 101.549 114.69C101.901 114.367 102.216 113.927 102.495 113.37C102.774 112.798 103.023 112.153 103.243 111.434C103.478 110.715 103.69 109.975 103.881 109.212L104.805 105.34H113.869L111.735 116.01H109.623ZM99.0631 119.706L99.9651 115.152H113.693L112.791 119.706H110.811L111.339 117H101.593L101.043 119.706H99.0631ZM116.049 117L118.381 105.34H126.961L126.587 107.188H119.591L120.207 106.704L118.161 117H116.049ZM131.842 117.132C130.727 117.132 129.759 116.927 128.938 116.516C128.131 116.091 127.5 115.504 127.046 114.756C126.591 113.993 126.364 113.106 126.364 112.094C126.364 110.774 126.657 109.601 127.244 108.574C127.83 107.533 128.637 106.719 129.664 106.132C130.705 105.531 131.886 105.23 133.206 105.23C134.306 105.23 135.266 105.435 136.088 105.846C136.909 106.257 137.54 106.836 137.98 107.584C138.434 108.332 138.662 109.219 138.662 110.246C138.662 111.566 138.368 112.747 137.782 113.788C137.195 114.815 136.388 115.629 135.362 116.23C134.35 116.831 133.176 117.132 131.842 117.132ZM131.974 115.284C132.854 115.284 133.638 115.071 134.328 114.646C135.017 114.221 135.552 113.641 135.934 112.908C136.33 112.16 136.528 111.309 136.528 110.356C136.528 109.329 136.227 108.53 135.626 107.958C135.024 107.371 134.166 107.078 133.052 107.078C132.186 107.078 131.409 107.291 130.72 107.716C130.03 108.127 129.488 108.706 129.092 109.454C128.696 110.187 128.498 111.038 128.498 112.006C128.498 113.018 128.798 113.817 129.4 114.404C130.001 114.991 130.859 115.284 131.974 115.284ZM142.443 117L144.467 106.638L144.863 107.188H140.133L140.485 105.34H151.133L150.781 107.188H145.963L146.579 106.638L144.555 117H142.443ZM156.011 117.132C154.897 117.132 153.929 116.927 153.107 116.516C152.301 116.091 151.67 115.504 151.215 114.756C150.761 113.993 150.533 113.106 150.533 112.094C150.533 110.774 150.827 109.601 151.413 108.574C152 107.533 152.807 106.719 153.833 106.132C154.875 105.531 156.055 105.23 157.375 105.23C158.475 105.23 159.436 105.435 160.257 105.846C161.079 106.257 161.709 106.836 162.149 107.584C162.604 108.332 162.831 109.219 162.831 110.246C162.831 111.566 162.538 112.747 161.951 113.788C161.365 114.815 160.558 115.629 159.531 116.23C158.519 116.831 157.346 117.132 156.011 117.132ZM156.143 115.284C157.023 115.284 157.808 115.071 158.497 114.646C159.187 114.221 159.722 113.641 160.103 112.908C160.499 112.16 160.697 111.309 160.697 110.356C160.697 109.329 160.397 108.53 159.795 107.958C159.194 107.371 158.336 107.078 157.221 107.078C156.356 107.078 155.579 107.291 154.889 107.716C154.2 108.127 153.657 108.706 153.261 109.454C152.865 110.187 152.667 111.038 152.667 112.006C152.667 113.018 152.968 113.817 153.569 114.404C154.171 114.991 155.029 115.284 156.143 115.284ZM164.711 117L167.065 105.34H172.389C173.665 105.34 174.633 105.567 175.293 106.022C175.953 106.477 176.283 107.137 176.283 108.002C176.283 108.985 175.858 109.784 175.007 110.4C174.171 111.001 173.071 111.302 171.707 111.302L171.993 110.774C173.225 110.774 174.134 110.987 174.721 111.412C175.308 111.823 175.601 112.475 175.601 113.37C175.601 114.499 175.146 115.387 174.237 116.032C173.328 116.677 172.059 117 170.431 117H164.711ZM167.131 115.372H170.497C171.45 115.372 172.198 115.189 172.741 114.822C173.284 114.455 173.555 113.942 173.555 113.282C173.555 112.783 173.386 112.424 173.049 112.204C172.712 111.984 172.162 111.874 171.399 111.874H167.813L167.131 115.372ZM168.121 110.356H171.289C172.125 110.356 172.807 110.18 173.335 109.828C173.863 109.461 174.127 108.977 174.127 108.376C174.127 107.907 173.944 107.555 173.577 107.32C173.225 107.085 172.697 106.968 171.993 106.968H168.781L168.121 110.356ZM186.695 117L183.395 111.28L185.155 110.488L189.137 117H186.695ZM178.225 117L180.579 105.34H182.691L180.337 117H178.225ZM180.711 112.072L181.041 110.268H184.891L184.561 112.072H180.711ZM185.221 111.412L183.219 111.148L188.873 105.34H191.227L185.221 111.412ZM196.201 117.132C195.219 117.132 194.339 116.934 193.561 116.538C192.784 116.127 192.168 115.548 191.713 114.8C191.273 114.052 191.053 113.15 191.053 112.094C191.053 111.097 191.215 110.18 191.537 109.344C191.875 108.508 192.337 107.782 192.923 107.166C193.525 106.55 194.229 106.073 195.035 105.736C195.842 105.399 196.715 105.23 197.653 105.23C198.665 105.23 199.523 105.406 200.227 105.758C200.931 106.11 201.474 106.631 201.855 107.32C202.237 107.995 202.427 108.823 202.427 109.806C202.427 111.243 202.178 112.519 201.679 113.634C201.181 114.734 200.462 115.592 199.523 116.208C198.599 116.824 197.492 117.132 196.201 117.132ZM196.663 115.284C197.543 115.284 198.328 115.071 199.017 114.646C199.707 114.221 200.242 113.641 200.623 112.908C201.019 112.16 201.217 111.309 201.217 110.356C201.217 109.329 200.917 108.53 200.315 107.958C199.714 107.371 198.856 107.078 197.741 107.078C196.876 107.078 196.099 107.291 195.409 107.716C194.72 108.127 194.177 108.706 193.781 109.454C193.385 110.187 193.187 111.038 193.187 112.006C193.187 113.018 193.488 113.817 194.089 114.404C194.691 114.991 195.549 115.284 196.663 115.284ZM200.029 117L200.645 113.986L201.349 111.28L201.635 108.508L202.251 105.34H204.363L202.053 117H200.029ZM220.533 117L217.233 111.28L218.993 110.488L222.975 117H220.533ZM212.063 117L214.417 105.34H216.529L214.175 117H212.063ZM214.549 112.072L214.879 110.268H218.729L218.399 112.072H214.549ZM219.059 111.412L217.057 111.148L222.711 105.34H225.065L219.059 111.412ZM238.93 117.176C237.405 117.176 236.1 116.905 235.014 116.362C233.929 115.819 233.1 115.064 232.528 114.096C231.971 113.113 231.692 111.977 231.692 110.686C231.692 109.41 231.912 108.215 232.352 107.1C232.792 105.971 233.423 104.981 234.244 104.13C235.066 103.279 236.048 102.619 237.192 102.15C238.336 101.666 239.62 101.424 241.042 101.424C242.582 101.424 243.895 101.695 244.98 102.238C246.066 102.781 246.887 103.543 247.444 104.526C248.016 105.494 248.302 106.623 248.302 107.914C248.302 109.19 248.082 110.393 247.642 111.522C247.202 112.637 246.572 113.619 245.75 114.47C244.929 115.321 243.939 115.988 242.78 116.472C241.636 116.941 240.353 117.176 238.93 117.176ZM239.128 115.218C240.184 115.218 241.145 115.035 242.01 114.668C242.876 114.287 243.609 113.766 244.21 113.106C244.812 112.431 245.274 111.661 245.596 110.796C245.919 109.931 246.08 109.014 246.08 108.046C246.08 107.122 245.882 106.315 245.486 105.626C245.09 104.922 244.504 104.372 243.726 103.976C242.949 103.58 241.996 103.382 240.866 103.382C239.796 103.382 238.828 103.573 237.962 103.954C237.112 104.321 236.378 104.841 235.762 105.516C235.161 106.176 234.699 106.939 234.376 107.804C234.054 108.669 233.892 109.586 233.892 110.554C233.892 111.478 234.09 112.292 234.486 112.996C234.897 113.685 235.484 114.228 236.246 114.624C237.024 115.02 237.984 115.218 239.128 115.218ZM250.183 117L253.263 101.6H258.983C260.787 101.6 262.18 101.996 263.163 102.788C264.145 103.58 264.637 104.687 264.637 106.11C264.637 107.415 264.343 108.537 263.757 109.476C263.185 110.4 262.356 111.111 261.271 111.61C260.185 112.094 258.902 112.336 257.421 112.336H252.361L253.527 111.28L252.383 117H250.183ZM253.483 111.522L252.713 110.422H257.465C259.034 110.422 260.251 110.077 261.117 109.388C261.997 108.684 262.437 107.657 262.437 106.308C262.437 105.384 262.121 104.687 261.491 104.218C260.86 103.749 259.958 103.514 258.785 103.514H254.143L255.309 102.392L253.483 111.522ZM268.541 117L271.313 102.942L271.753 103.514H265.989L266.363 101.6H279.057L278.683 103.514H272.831L273.491 102.942L270.719 117H268.541ZM284.207 117L286.539 105.34H288.651L287.661 110.29H294.305L295.295 105.34H297.407L295.075 117H292.963L293.953 112.116H287.309L286.319 117H284.207ZM304.418 117.132C303.436 117.132 302.556 116.934 301.778 116.538C301.001 116.127 300.385 115.548 299.93 114.8C299.49 114.052 299.27 113.15 299.27 112.094C299.27 111.097 299.432 110.18 299.754 109.344C300.092 108.508 300.554 107.782 301.14 107.166C301.742 106.55 302.446 106.073 303.252 105.736C304.059 105.399 304.932 105.23 305.87 105.23C306.882 105.23 307.74 105.406 308.444 105.758C309.148 106.11 309.691 106.631 310.072 107.32C310.454 107.995 310.644 108.823 310.644 109.806C310.644 111.243 310.395 112.519 309.896 113.634C309.398 114.734 308.679 115.592 307.74 116.208C306.816 116.824 305.709 117.132 304.418 117.132ZM304.88 115.284C305.76 115.284 306.545 115.071 307.234 114.646C307.924 114.221 308.459 113.641 308.84 112.908C309.236 112.16 309.434 111.309 309.434 110.356C309.434 109.329 309.134 108.53 308.532 107.958C307.931 107.371 307.073 107.078 305.958 107.078C305.093 107.078 304.316 107.291 303.626 107.716C302.937 108.127 302.394 108.706 301.998 109.454C301.602 110.187 301.404 111.038 301.404 112.006C301.404 113.018 301.705 113.817 302.306 114.404C302.908 114.991 303.766 115.284 304.88 115.284ZM308.246 117L308.862 113.986L309.566 111.28L309.852 108.508L310.468 105.34H312.58L310.27 117H308.246ZM323.073 111.874L323.403 110.312H329.937L329.629 111.874H323.073ZM325.779 105.23C326.879 105.23 327.833 105.443 328.639 105.868C329.461 106.279 330.099 106.865 330.553 107.628C331.023 108.376 331.257 109.263 331.257 110.29C331.257 111.229 331.059 112.116 330.663 112.952C330.282 113.788 329.739 114.521 329.035 115.152C328.346 115.783 327.547 116.274 326.637 116.626C325.728 116.978 324.76 117.154 323.733 117.154C322.736 117.154 321.849 116.985 321.071 116.648C320.294 116.311 319.671 115.834 319.201 115.218L320.565 114.14C320.932 114.565 321.394 114.895 321.951 115.13C322.523 115.35 323.139 115.46 323.799 115.46C324.547 115.46 325.244 115.328 325.889 115.064C326.549 114.785 327.121 114.411 327.605 113.942C328.104 113.473 328.493 112.93 328.771 112.314C329.05 111.698 329.189 111.045 329.189 110.356C329.189 109.271 328.859 108.42 328.199 107.804C327.539 107.188 326.63 106.88 325.471 106.88C324.797 106.88 324.144 106.997 323.513 107.232C322.883 107.467 322.296 107.819 321.753 108.288L320.719 107.1C321.35 106.513 322.105 106.059 322.985 105.736C323.88 105.399 324.811 105.23 325.779 105.23ZM334.9 117L336.924 106.638L337.32 107.188H332.59L332.942 105.34H343.59L343.238 107.188H338.42L339.036 106.638L337.012 117H334.9ZM348.468 117.132C347.354 117.132 346.386 116.927 345.564 116.516C344.758 116.091 344.127 115.504 343.672 114.756C343.218 113.993 342.99 113.106 342.99 112.094C342.99 110.774 343.284 109.601 343.87 108.574C344.457 107.533 345.264 106.719 346.29 106.132C347.332 105.531 348.512 105.23 349.832 105.23C350.932 105.23 351.893 105.435 352.714 105.846C353.536 106.257 354.166 106.836 354.606 107.584C355.061 108.332 355.288 109.219 355.288 110.246C355.288 111.566 354.995 112.747 354.408 113.788C353.822 114.815 353.015 115.629 351.988 116.23C350.976 116.831 349.803 117.132 348.468 117.132ZM348.6 115.284C349.48 115.284 350.265 115.071 350.954 114.646C351.644 114.221 352.179 113.641 352.56 112.908C352.956 112.16 353.154 111.309 353.154 110.356C353.154 109.329 352.854 108.53 352.252 107.958C351.651 107.371 350.793 107.078 349.678 107.078C348.813 107.078 348.036 107.291 347.346 107.716C346.657 108.127 346.114 108.706 345.718 109.454C345.322 110.187 345.124 111.038 345.124 112.006C345.124 113.018 345.425 113.817 346.026 114.404C346.628 114.991 347.486 115.284 348.6 115.284ZM357.168 117L359.5 105.34H361.656L364.934 113.964H364.054L370.94 105.34H372.92L370.61 117H368.696L370.544 107.716L370.874 107.914L364.626 115.68H363.702L360.556 107.76L360.952 107.672L359.104 117H357.168ZM42.1565 144.132C41.0272 144.132 40.0445 143.927 39.2085 143.516C38.3872 143.091 37.7492 142.504 37.2945 141.756C36.8399 140.993 36.6125 140.106 36.6125 139.094C36.6125 137.774 36.9059 136.601 37.4925 135.574C38.0792 134.533 38.8932 133.719 39.9345 133.132C40.9759 132.531 42.1565 132.23 43.4765 132.23C44.6059 132.23 45.5739 132.443 46.3805 132.868C47.1872 133.279 47.8179 133.909 48.2725 134.76L46.4905 135.75C46.1972 135.178 45.7792 134.76 45.2365 134.496C44.7085 134.217 44.0705 134.078 43.3225 134.078C42.4425 134.078 41.6579 134.291 40.9685 134.716C40.2792 135.127 39.7365 135.706 39.3405 136.454C38.9445 137.187 38.7465 138.038 38.7465 139.006C38.7465 140.018 39.0472 140.817 39.6485 141.404C40.2645 141.991 41.1299 142.284 42.2445 142.284C42.9339 142.284 43.5792 142.145 44.1805 141.866C44.7965 141.587 45.3099 141.177 45.7205 140.634L47.2605 141.734C46.7325 142.482 46.0139 143.069 45.1045 143.494C44.1952 143.919 43.2125 144.132 42.1565 144.132ZM54.4583 144.132C53.4756 144.132 52.5956 143.934 51.8183 143.538C51.041 143.127 50.425 142.548 49.9703 141.8C49.5303 141.052 49.3103 140.15 49.3103 139.094C49.3103 138.097 49.4716 137.18 49.7943 136.344C50.1316 135.508 50.5936 134.782 51.1803 134.166C51.7816 133.55 52.4856 133.073 53.2923 132.736C54.099 132.399 54.9716 132.23 55.9103 132.23C56.9223 132.23 57.7803 132.406 58.4843 132.758C59.1883 133.11 59.731 133.631 60.1123 134.32C60.4936 134.995 60.6843 135.823 60.6843 136.806C60.6843 138.243 60.435 139.519 59.9363 140.634C59.4376 141.734 58.719 142.592 57.7803 143.208C56.8563 143.824 55.749 144.132 54.4583 144.132ZM54.9203 142.284C55.8003 142.284 56.585 142.071 57.2743 141.646C57.9636 141.221 58.499 140.641 58.8803 139.908C59.2763 139.16 59.4743 138.309 59.4743 137.356C59.4743 136.329 59.1736 135.53 58.5723 134.958C57.971 134.371 57.113 134.078 55.9983 134.078C55.133 134.078 54.3556 134.291 53.6663 134.716C52.977 135.127 52.4343 135.706 52.0383 136.454C51.6423 137.187 51.4443 138.038 51.4443 139.006C51.4443 140.018 51.745 140.817 52.3463 141.404C52.9476 141.991 53.8056 142.284 54.9203 142.284ZM58.2863 144L58.9023 140.986L59.6063 138.28L59.8923 135.508L60.5083 132.34H62.6203L60.3103 144H58.2863ZM64.4113 144L66.7652 132.34H68.8993L67.1393 141.052L75.9393 132.34H77.9413L75.6313 144H73.4753L75.2573 135.288L66.4573 144H64.4113ZM72.6833 130.756C71.5686 130.756 70.7473 130.499 70.2193 129.986C69.6913 129.458 69.5153 128.717 69.6913 127.764H71.1213C71.0186 128.336 71.1213 128.791 71.4293 129.128C71.7373 129.451 72.1919 129.612 72.7933 129.612C73.3946 129.612 73.9006 129.451 74.3113 129.128C74.7366 128.805 75.0153 128.351 75.1472 127.764H76.5993C76.4086 128.747 75.9759 129.495 75.3013 130.008C74.6266 130.507 73.7539 130.756 72.6833 130.756ZM82.0616 144L84.0856 133.638L84.4816 134.188H79.7516L80.1036 132.34H90.7516L90.3996 134.188H85.5816L86.1976 133.638L84.1736 144H82.0616ZM95.7616 144.132C94.6176 144.132 93.6276 143.927 92.7916 143.516C91.9556 143.091 91.3103 142.504 90.8556 141.756C90.4009 140.993 90.1736 140.099 90.1736 139.072C90.1736 137.752 90.4596 136.579 91.0316 135.552C91.6036 134.525 92.3809 133.719 93.3636 133.132C94.3609 132.531 95.4903 132.23 96.7516 132.23C97.8076 132.23 98.7243 132.435 99.5016 132.846C100.279 133.242 100.88 133.814 101.306 134.562C101.746 135.31 101.966 136.212 101.966 137.268C101.966 137.532 101.951 137.803 101.922 138.082C101.892 138.346 101.856 138.595 101.812 138.83H91.7136L91.9776 137.29H100.8L99.9416 137.818C100.074 136.997 100.015 136.307 99.7656 135.75C99.5163 135.178 99.1203 134.745 98.5776 134.452C98.0496 134.144 97.4116 133.99 96.6636 133.99C95.7836 133.99 95.0063 134.203 94.3316 134.628C93.6716 135.039 93.1583 135.618 92.7916 136.366C92.4249 137.099 92.2416 137.965 92.2416 138.962C92.2416 140.018 92.5423 140.839 93.1436 141.426C93.7596 141.998 94.6909 142.284 95.9376 142.284C96.6709 142.284 97.3529 142.167 97.9836 141.932C98.6143 141.683 99.1349 141.353 99.5456 140.942L100.448 142.46C99.8903 143.003 99.1936 143.421 98.3576 143.714C97.5216 143.993 96.6563 144.132 95.7616 144.132ZM109.943 138.874L110.295 137.048H116.213L115.839 138.874H109.943ZM129.575 144.132C128.46 144.132 127.492 143.927 126.671 143.516C125.864 143.091 125.234 142.504 124.779 141.756C124.324 140.993 124.097 140.106 124.097 139.094C124.097 137.774 124.39 136.601 124.977 135.574C125.564 134.533 126.37 133.719 127.397 133.132C128.438 132.531 129.619 132.23 130.939 132.23C132.039 132.23 133 132.435 133.821 132.846C134.642 133.257 135.273 133.836 135.713 134.584C136.168 135.332 136.395 136.219 136.395 137.246C136.395 138.566 136.102 139.747 135.515 140.788C134.928 141.815 134.122 142.629 133.095 143.23C132.083 143.831 130.91 144.132 129.575 144.132ZM129.707 142.284C130.587 142.284 131.372 142.071 132.061 141.646C132.75 141.221 133.286 140.641 133.667 139.908C134.063 139.16 134.261 138.309 134.261 137.356C134.261 136.329 133.96 135.53 133.359 134.958C132.758 134.371 131.9 134.078 130.785 134.078C129.92 134.078 129.142 134.291 128.453 134.716C127.764 135.127 127.221 135.706 126.825 136.454C126.429 137.187 126.231 138.038 126.231 139.006C126.231 140.018 126.532 140.817 127.133 141.404C127.734 141.991 128.592 142.284 129.707 142.284ZM140.177 144L142.201 133.638L142.597 134.188H137.867L138.219 132.34H148.867L148.515 134.188H143.697L144.313 133.638L142.289 144H140.177ZM146.006 143.978L146.512 142.196C146.615 142.211 146.71 142.225 146.798 142.24C146.886 142.255 146.967 142.262 147.04 142.262C147.569 142.262 148.023 142.027 148.405 141.558C148.786 141.089 149.123 140.429 149.417 139.578C149.71 138.727 150.003 137.745 150.296 136.63L151.353 132.34H160.285L157.953 144H155.841L157.931 133.528L158.349 134.188H152.365L152.937 133.528L152.145 136.784C151.851 137.987 151.543 139.05 151.221 139.974C150.913 140.883 150.575 141.653 150.209 142.284C149.842 142.9 149.424 143.369 148.955 143.692C148.5 144.015 147.965 144.176 147.349 144.176C147.129 144.176 146.916 144.154 146.71 144.11C146.49 144.081 146.256 144.037 146.006 143.978ZM162.058 144L164.412 132.34H166.546L164.786 141.052L173.586 132.34H175.588L173.278 144H171.122L172.904 135.288L164.104 144H162.058ZM185.736 139.27C185.061 139.549 184.379 139.769 183.69 139.93C183.015 140.091 182.355 140.172 181.71 140.172C180.258 140.172 179.18 139.827 178.476 139.138C177.772 138.449 177.559 137.415 177.838 136.036L178.564 132.34H180.676L179.928 136.08C179.781 136.901 179.906 137.503 180.302 137.884C180.713 138.251 181.336 138.434 182.172 138.434C182.773 138.434 183.389 138.353 184.02 138.192C184.651 138.031 185.289 137.818 185.934 137.554L185.736 139.27ZM184.548 144L186.88 132.34H188.992L186.66 144H184.548ZM190.761 144L193.093 132.34H195.205L194.215 137.29H200.859L201.849 132.34H203.961L201.629 144H199.517L200.507 139.116H193.863L192.873 144H190.761ZM217.264 144L219.574 132.34H221.686L219.376 144H217.264ZM212.358 136.278C213.678 136.278 214.668 136.549 215.328 137.092C216.003 137.62 216.34 138.419 216.34 139.49C216.34 140.399 216.113 141.199 215.658 141.888C215.203 142.563 214.558 143.083 213.722 143.45C212.901 143.817 211.925 144 210.796 144H205.714L208.046 132.384H210.136L209.366 136.278H212.358ZM210.796 142.416C211.485 142.416 212.087 142.306 212.6 142.086C213.113 141.851 213.509 141.529 213.788 141.118C214.081 140.707 214.228 140.223 214.228 139.666C214.228 138.449 213.392 137.84 211.72 137.84H209.058L208.156 142.416H210.796ZM223.46 144L225.814 132.34H227.948L226.188 141.052L234.988 132.34H236.99L234.68 144H232.524L234.306 135.288L225.506 144H223.46ZM231.732 130.756C230.617 130.756 229.796 130.499 229.268 129.986C228.74 129.458 228.564 128.717 228.74 127.764H230.17C230.067 128.336 230.17 128.791 230.478 129.128C230.786 129.451 231.241 129.612 231.842 129.612C232.443 129.612 232.949 129.451 233.36 129.128C233.785 128.805 234.064 128.351 234.196 127.764H235.648C235.457 128.747 235.025 129.495 234.35 130.008C233.675 130.507 232.803 130.756 231.732 130.756ZM250.253 144.132C249.138 144.132 248.17 143.927 247.349 143.516C246.542 143.091 245.911 142.504 245.457 141.756C245.002 140.993 244.775 140.106 244.775 139.094C244.775 137.774 245.068 136.601 245.655 135.574C246.241 134.533 247.048 133.719 248.075 133.132C249.116 132.531 250.297 132.23 251.617 132.23C252.717 132.23 253.677 132.435 254.499 132.846C255.32 133.257 255.951 133.836 256.391 134.584C256.845 135.332 257.073 136.219 257.073 137.246C257.073 138.566 256.779 139.747 256.193 140.788C255.606 141.815 254.799 142.629 253.773 143.23C252.761 143.831 251.587 144.132 250.253 144.132ZM250.385 142.284C251.265 142.284 252.049 142.071 252.739 141.646C253.428 141.221 253.963 140.641 254.345 139.908C254.741 139.16 254.939 138.309 254.939 137.356C254.939 136.329 254.638 135.53 254.037 134.958C253.435 134.371 252.577 134.078 251.463 134.078C250.597 134.078 249.82 134.291 249.131 134.716C248.441 135.127 247.899 135.706 247.503 136.454C247.107 137.187 246.909 138.038 246.909 139.006C246.909 140.018 247.209 140.817 247.811 141.404C248.412 141.991 249.27 142.284 250.385 142.284ZM258.952 144L261.284 132.34H272.086L269.754 144H267.642L269.666 133.66L270.062 134.188H262.472L263.11 133.66L261.064 144H258.952ZM285.391 144L287.701 132.34H289.813L287.503 144H285.391ZM280.485 136.278C281.805 136.278 282.795 136.549 283.455 137.092C284.13 137.62 284.467 138.419 284.467 139.49C284.467 140.399 284.24 141.199 283.785 141.888C283.33 142.563 282.685 143.083 281.849 143.45C281.028 143.817 280.052 144 278.923 144H273.841L276.173 132.384H278.263L277.493 136.278H280.485ZM278.923 142.416C279.612 142.416 280.214 142.306 280.727 142.086C281.24 141.851 281.636 141.529 281.915 141.118C282.208 140.707 282.355 140.223 282.355 139.666C282.355 138.449 281.519 137.84 279.847 137.84H277.185L276.283 142.416H278.923ZM293.919 144L295.943 133.638L296.339 134.188H291.609L291.961 132.34H302.609L302.257 134.188H297.439L298.055 133.638L296.031 144H293.919ZM303.471 139.138L305.165 128.6H307.673L305.143 139.138H303.471ZM303.537 144.132C303.141 144.132 302.811 144 302.547 143.736C302.297 143.472 302.173 143.164 302.173 142.812C302.173 142.372 302.312 142.013 302.591 141.734C302.884 141.455 303.236 141.316 303.647 141.316C304.043 141.316 304.365 141.441 304.615 141.69C304.879 141.939 305.011 142.247 305.011 142.614C305.011 142.893 304.945 143.149 304.813 143.384C304.681 143.619 304.505 143.802 304.285 143.934C304.065 144.066 303.815 144.132 303.537 144.132ZM325.496 137.774C324.557 138.141 323.662 138.412 322.812 138.588C321.976 138.764 321.198 138.852 320.48 138.852C318.558 138.852 317.158 138.383 316.278 137.444C315.398 136.505 315.126 135.193 315.464 133.506L316.454 128.6H318.61L317.642 133.44C317.422 134.569 317.583 135.435 318.126 136.036C318.683 136.623 319.57 136.916 320.788 136.916C321.58 136.916 322.394 136.821 323.23 136.63C324.066 136.425 324.894 136.131 325.716 135.75L325.496 137.774ZM323.802 144L326.882 128.6H329.06L325.98 144H323.802ZM336.129 144.132C334.985 144.132 333.995 143.927 333.159 143.516C332.323 143.091 331.677 142.504 331.223 141.756C330.768 140.993 330.541 140.099 330.541 139.072C330.541 137.752 330.827 136.579 331.399 135.552C331.971 134.525 332.748 133.719 333.731 133.132C334.728 132.531 335.857 132.23 337.119 132.23C338.175 132.23 339.091 132.435 339.869 132.846C340.646 133.242 341.247 133.814 341.673 134.562C342.113 135.31 342.333 136.212 342.333 137.268C342.333 137.532 342.318 137.803 342.289 138.082C342.259 138.346 342.223 138.595 342.179 138.83H332.081L332.345 137.29H341.167L340.309 137.818C340.441 136.997 340.382 136.307 340.133 135.75C339.883 135.178 339.487 134.745 338.945 134.452C338.417 134.144 337.779 133.99 337.031 133.99C336.151 133.99 335.373 134.203 334.699 134.628C334.039 135.039 333.525 135.618 333.159 136.366C332.792 137.099 332.609 137.965 332.609 138.962C332.609 140.018 332.909 140.839 333.511 141.426C334.127 141.998 335.058 142.284 336.305 142.284C337.038 142.284 337.72 142.167 338.351 141.932C338.981 141.683 339.502 141.353 339.913 140.942L340.815 142.46C340.257 143.003 339.561 143.421 338.725 143.714C337.889 143.993 337.023 144.132 336.129 144.132ZM345.976 144L348 133.638L348.396 134.188H343.666L344.018 132.34H354.666L354.314 134.188H349.496L350.112 133.638L348.088 144H345.976ZM362.963 144L359.663 138.28L361.423 137.488L365.405 144H362.963ZM354.493 144L356.847 132.34H358.959L356.605 144H354.493ZM356.979 139.072L357.309 137.268H361.159L360.829 139.072H356.979ZM361.489 138.412L359.487 138.148L365.141 132.34H367.495L361.489 138.412ZM367.599 144L369.953 132.34H372.087L370.327 141.052L379.127 132.34H381.129L378.819 144H376.663L378.445 135.288L369.645 144H367.599ZM382.917 144L385.271 132.34H387.405L385.645 141.052L394.445 132.34H396.447L394.137 144H391.981L393.763 135.288L384.963 144H382.917ZM391.189 130.756C390.074 130.756 389.253 130.499 388.725 129.986C388.197 129.458 388.021 128.717 388.197 127.764H389.627C389.524 128.336 389.627 128.791 389.935 129.128C390.243 129.451 390.698 129.612 391.299 129.612C391.9 129.612 392.406 129.451 392.817 129.128C393.242 128.805 393.521 128.351 393.653 127.764H395.105C394.914 128.747 394.482 129.495 393.807 130.008C393.132 130.507 392.26 130.756 391.189 130.756ZM65.2062 171L67.5382 159.34H69.6942L72.9722 167.964H72.0922L78.9782 159.34H80.9582L78.6482 171H76.7342L78.5822 161.716L78.9122 161.914L72.6642 169.68H71.7402L68.5942 161.76L68.9902 161.672L67.1422 171H65.2062ZM87.9954 171.132C87.0128 171.132 86.1328 170.934 85.3554 170.538C84.5781 170.127 83.9621 169.548 83.5074 168.8C83.0674 168.052 82.8474 167.15 82.8474 166.094C82.8474 165.097 83.0088 164.18 83.3314 163.344C83.6688 162.508 84.1308 161.782 84.7174 161.166C85.3188 160.55 86.0228 160.073 86.8294 159.736C87.6361 159.399 88.5088 159.23 89.4474 159.23C90.4594 159.23 91.3174 159.406 92.0214 159.758C92.7254 160.11 93.2681 160.631 93.6494 161.32C94.0308 161.995 94.2214 162.823 94.2214 163.806C94.2214 165.243 93.9721 166.519 93.4734 167.634C92.9748 168.734 92.2561 169.592 91.3174 170.208C90.3934 170.824 89.2861 171.132 87.9954 171.132ZM88.4574 169.284C89.3374 169.284 90.1221 169.071 90.8114 168.646C91.5008 168.221 92.0361 167.641 92.4174 166.908C92.8134 166.16 93.0114 165.309 93.0114 164.356C93.0114 163.329 92.7108 162.53 92.1094 161.958C91.5081 161.371 90.6501 161.078 89.5354 161.078C88.6701 161.078 87.8928 161.291 87.2034 161.716C86.5141 162.127 85.9714 162.706 85.5754 163.454C85.1794 164.187 84.9814 165.038 84.9814 166.006C84.9814 167.018 85.2821 167.817 85.8834 168.404C86.4848 168.991 87.3428 169.284 88.4574 169.284ZM91.8234 171L92.4394 167.986L93.1434 165.28L93.4294 162.508L94.0454 159.34H96.1574L93.8474 171H91.8234ZM100.28 171L102.304 160.638L102.7 161.188H97.9704L98.3224 159.34H108.97L108.618 161.188H103.8L104.416 160.638L102.392 171H100.28ZM113.98 171.132C112.836 171.132 111.846 170.927 111.01 170.516C110.174 170.091 109.529 169.504 109.074 168.756C108.62 167.993 108.392 167.099 108.392 166.072C108.392 164.752 108.678 163.579 109.25 162.552C109.822 161.525 110.6 160.719 111.582 160.132C112.58 159.531 113.709 159.23 114.97 159.23C116.026 159.23 116.943 159.435 117.72 159.846C118.498 160.242 119.099 160.814 119.524 161.562C119.964 162.31 120.184 163.212 120.184 164.268C120.184 164.532 120.17 164.803 120.14 165.082C120.111 165.346 120.074 165.595 120.03 165.83H109.932L110.196 164.29H119.018L118.16 164.818C118.292 163.997 118.234 163.307 117.984 162.75C117.735 162.178 117.339 161.745 116.796 161.452C116.268 161.144 115.63 160.99 114.882 160.99C114.002 160.99 113.225 161.203 112.55 161.628C111.89 162.039 111.377 162.618 111.01 163.366C110.644 164.099 110.46 164.965 110.46 165.962C110.46 167.018 110.761 167.839 111.362 168.426C111.978 168.998 112.91 169.284 114.156 169.284C114.89 169.284 115.572 169.167 116.202 168.932C116.833 168.683 117.354 168.353 117.764 167.942L118.666 169.46C118.109 170.003 117.412 170.421 116.576 170.714C115.74 170.993 114.875 171.132 113.98 171.132ZM128.721 171.132C127.724 171.132 126.866 170.956 126.147 170.604C125.443 170.237 124.901 169.717 124.519 169.042C124.138 168.353 123.947 167.524 123.947 166.556C123.947 165.089 124.197 163.813 124.695 162.728C125.194 161.628 125.905 160.77 126.829 160.154C127.768 159.538 128.883 159.23 130.173 159.23C131.171 159.23 132.051 159.428 132.813 159.824C133.591 160.22 134.199 160.799 134.639 161.562C135.094 162.31 135.321 163.205 135.321 164.246C135.321 165.243 135.153 166.16 134.815 166.996C134.493 167.832 134.031 168.558 133.429 169.174C132.843 169.79 132.146 170.274 131.339 170.626C130.533 170.963 129.66 171.132 128.721 171.132ZM121.153 175.268L124.321 159.34H126.345L125.729 162.354L125.047 165.06L124.739 167.832L123.265 175.268H121.153ZM128.633 169.284C129.513 169.284 130.291 169.071 130.965 168.646C131.655 168.221 132.197 167.641 132.593 166.908C132.989 166.16 133.187 165.309 133.187 164.356C133.187 163.329 132.887 162.53 132.285 161.958C131.684 161.371 130.826 161.078 129.711 161.078C128.846 161.078 128.061 161.291 127.357 161.716C126.668 162.127 126.125 162.706 125.729 163.454C125.348 164.187 125.157 165.038 125.157 166.006C125.157 167.018 125.458 167.817 126.059 168.404C126.661 168.991 127.519 169.284 128.633 169.284ZM137.2 171L139.554 159.34H141.688L139.928 168.052L148.728 159.34H150.73L148.42 171H146.264L148.046 162.288L139.246 171H137.2ZM157.777 171.132C156.794 171.132 155.914 170.934 155.137 170.538C154.359 170.127 153.743 169.548 153.289 168.8C152.849 168.052 152.629 167.15 152.629 166.094C152.629 165.097 152.79 164.18 153.113 163.344C153.45 162.508 153.912 161.782 154.499 161.166C155.1 160.55 155.804 160.073 156.611 159.736C157.417 159.399 158.29 159.23 159.229 159.23C160.241 159.23 161.099 159.406 161.803 159.758C162.507 160.11 163.049 160.631 163.431 161.32C163.812 161.995 164.003 162.823 164.003 163.806C164.003 165.243 163.753 166.519 163.255 167.634C162.756 168.734 162.037 169.592 161.099 170.208C160.175 170.824 159.067 171.132 157.777 171.132ZM158.239 169.284C159.119 169.284 159.903 169.071 160.593 168.646C161.282 168.221 161.817 167.641 162.199 166.908C162.595 166.16 162.793 165.309 162.793 164.356C162.793 163.329 162.492 162.53 161.891 161.958C161.289 161.371 160.431 161.078 159.317 161.078C158.451 161.078 157.674 161.291 156.985 161.716C156.295 162.127 155.753 162.706 155.357 163.454C154.961 164.187 154.763 165.038 154.763 166.006C154.763 167.018 155.063 167.817 155.665 168.404C156.266 168.991 157.124 169.284 158.239 169.284ZM161.605 171L162.221 167.986L162.925 165.28L163.211 162.508L163.827 159.34H165.939L163.629 171H161.605ZM165.794 170.978L166.3 169.196C166.402 169.211 166.498 169.225 166.586 169.24C166.674 169.255 166.754 169.262 166.828 169.262C167.356 169.262 167.81 169.027 168.192 168.558C168.573 168.089 168.91 167.429 169.204 166.578C169.497 165.727 169.79 164.745 170.084 163.63L171.14 159.34H180.072L177.74 171H175.628L177.718 160.528L178.136 161.188H172.152L172.724 160.528L171.932 163.784C171.638 164.987 171.33 166.05 171.008 166.974C170.7 167.883 170.362 168.653 169.996 169.284C169.629 169.9 169.211 170.369 168.742 170.692C168.287 171.015 167.752 171.176 167.136 171.176C166.916 171.176 166.703 171.154 166.498 171.11C166.278 171.081 166.043 171.037 165.794 170.978ZM187.753 171L190.107 159.34H192.241L190.481 168.052L199.281 159.34H201.283L198.973 171H196.817L198.599 162.288L189.799 171H187.753ZM211.774 165.874L212.104 164.312H218.638L218.33 165.874H211.774ZM214.48 159.23C215.58 159.23 216.533 159.443 217.34 159.868C218.161 160.279 218.799 160.865 219.254 161.628C219.723 162.376 219.958 163.263 219.958 164.29C219.958 165.229 219.76 166.116 219.364 166.952C218.982 167.788 218.44 168.521 217.736 169.152C217.046 169.783 216.247 170.274 215.338 170.626C214.428 170.978 213.46 171.154 212.434 171.154C211.436 171.154 210.549 170.985 209.772 170.648C208.994 170.311 208.371 169.834 207.902 169.218L209.266 168.14C209.632 168.565 210.094 168.895 210.652 169.13C211.224 169.35 211.84 169.46 212.5 169.46C213.248 169.46 213.944 169.328 214.59 169.064C215.25 168.785 215.822 168.411 216.306 167.942C216.804 167.473 217.193 166.93 217.472 166.314C217.75 165.698 217.89 165.045 217.89 164.356C217.89 163.271 217.56 162.42 216.9 161.804C216.24 161.188 215.33 160.88 214.172 160.88C213.497 160.88 212.844 160.997 212.214 161.232C211.583 161.467 210.996 161.819 210.454 162.288L209.42 161.1C210.05 160.513 210.806 160.059 211.686 159.736C212.58 159.399 213.512 159.23 214.48 159.23ZM228.254 171.132C226.098 171.117 224.456 170.699 223.326 169.878C222.212 169.057 221.654 167.825 221.654 166.182C221.654 164.789 222.021 163.571 222.754 162.53C223.488 161.489 224.514 160.682 225.834 160.11C227.169 159.538 228.731 159.252 230.52 159.252H230.96C233.102 159.267 234.73 159.685 235.844 160.506C236.959 161.327 237.516 162.559 237.516 164.202C237.516 165.595 237.157 166.813 236.438 167.854C235.72 168.881 234.708 169.687 233.402 170.274C232.112 170.846 230.594 171.132 228.848 171.132H228.254ZM228.628 169.372H228.826C230.205 169.372 231.393 169.167 232.39 168.756C233.388 168.345 234.158 167.773 234.7 167.04C235.243 166.292 235.514 165.419 235.514 164.422C235.514 163.263 235.118 162.413 234.326 161.87C233.549 161.313 232.317 161.034 230.63 161.034H230.41C229.017 161.034 227.814 161.239 226.802 161.65C225.805 162.046 225.028 162.611 224.47 163.344C223.928 164.077 223.656 164.935 223.656 165.918C223.656 167.121 224.074 167.993 224.91 168.536C225.746 169.064 226.986 169.343 228.628 169.372ZM226.648 175.268L230.762 154.676H232.632L228.518 175.268H226.648ZM245.829 171.132C243.673 171.117 242.03 170.699 240.901 169.878C239.786 169.057 239.229 167.825 239.229 166.182C239.229 164.789 239.595 163.571 240.329 162.53C241.062 161.489 242.089 160.682 243.409 160.11C244.743 159.538 246.305 159.252 248.095 159.252H248.535C250.676 159.267 252.304 159.685 253.419 160.506C254.533 161.327 255.091 162.559 255.091 164.202C255.091 165.595 254.731 166.813 254.013 167.854C253.294 168.881 252.282 169.687 250.977 170.274C249.686 170.846 248.168 171.132 246.423 171.132H245.829ZM246.203 169.372H246.401C247.779 169.372 248.967 169.167 249.965 168.756C250.962 168.345 251.732 167.773 252.275 167.04C252.817 166.292 253.089 165.419 253.089 164.422C253.089 163.263 252.693 162.413 251.901 161.87C251.123 161.313 249.891 161.034 248.205 161.034H247.985C246.591 161.034 245.389 161.239 244.377 161.65C243.379 162.046 242.602 162.611 242.045 163.344C241.502 164.077 241.231 164.935 241.231 165.918C241.231 167.121 241.649 167.993 242.485 168.536C243.321 169.064 244.56 169.343 246.203 169.372ZM244.223 175.268L248.337 154.676H250.207L246.093 175.268H244.223ZM262.545 171.132C261.401 171.132 260.411 170.927 259.575 170.516C258.739 170.091 258.093 169.504 257.639 168.756C257.184 167.993 256.957 167.099 256.957 166.072C256.957 164.752 257.243 163.579 257.815 162.552C258.387 161.525 259.164 160.719 260.147 160.132C261.144 159.531 262.273 159.23 263.535 159.23C264.591 159.23 265.507 159.435 266.285 159.846C267.062 160.242 267.663 160.814 268.089 161.562C268.529 162.31 268.749 163.212 268.749 164.268C268.749 164.532 268.734 164.803 268.705 165.082C268.675 165.346 268.639 165.595 268.595 165.83H258.497L258.761 164.29H267.583L266.725 164.818C266.857 163.997 266.798 163.307 266.549 162.75C266.299 162.178 265.903 161.745 265.361 161.452C264.833 161.144 264.195 160.99 263.447 160.99C262.567 160.99 261.789 161.203 261.115 161.628C260.455 162.039 259.941 162.618 259.575 163.366C259.208 164.099 259.025 164.965 259.025 165.962C259.025 167.018 259.325 167.839 259.927 168.426C260.543 168.998 261.474 169.284 262.721 169.284C263.454 169.284 264.136 169.167 264.767 168.932C265.397 168.683 265.918 168.353 266.329 167.942L267.231 169.46C266.673 170.003 265.977 170.421 265.141 170.714C264.305 170.993 263.439 171.132 262.545 171.132ZM279.024 171L275.724 165.28L277.484 164.488L281.466 171H279.024ZM270.554 171L272.908 159.34H275.02L272.666 171H270.554ZM273.04 166.072L273.37 164.268H277.22L276.89 166.072H273.04ZM277.55 165.412L275.548 165.148L281.202 159.34H283.556L277.55 165.412ZM285.798 171L287.822 160.638L288.218 161.188H283.488L283.84 159.34H294.488L294.136 161.188H289.318L289.934 160.638L287.91 171H285.798ZM294.316 171L296.67 159.34H298.804L297.044 168.052L305.844 159.34H307.846L305.536 171H303.38L305.162 162.288L296.362 171H294.316ZM309.634 171L311.988 159.34H317.312C318.588 159.34 319.556 159.567 320.216 160.022C320.876 160.477 321.206 161.137 321.206 162.002C321.206 162.985 320.781 163.784 319.93 164.4C319.094 165.001 317.994 165.302 316.63 165.302L316.916 164.774C318.148 164.774 319.057 164.987 319.644 165.412C320.231 165.823 320.524 166.475 320.524 167.37C320.524 168.499 320.069 169.387 319.16 170.032C318.251 170.677 316.982 171 315.354 171H309.634ZM312.054 169.372H315.42C316.373 169.372 317.121 169.189 317.664 168.822C318.207 168.455 318.478 167.942 318.478 167.282C318.478 166.783 318.309 166.424 317.972 166.204C317.635 165.984 317.085 165.874 316.322 165.874H312.736L312.054 169.372ZM313.044 164.356H316.212C317.048 164.356 317.73 164.18 318.258 163.828C318.786 163.461 319.05 162.977 319.05 162.376C319.05 161.907 318.867 161.555 318.5 161.32C318.148 161.085 317.62 160.968 316.916 160.968H313.704L313.044 164.356ZM323.148 171L325.48 159.34H327.592L326.602 164.29H333.246L334.236 159.34H336.348L334.016 171H331.904L332.894 166.116H326.25L325.26 171H323.148ZM349.651 171L351.961 159.34H354.073L351.763 171H349.651ZM344.745 163.278C346.065 163.278 347.055 163.549 347.715 164.092C348.389 164.62 348.727 165.419 348.727 166.49C348.727 167.399 348.499 168.199 348.045 168.888C347.59 169.563 346.945 170.083 346.109 170.45C345.287 170.817 344.312 171 343.183 171H338.101L340.433 159.384H342.523L341.753 163.278H344.745ZM343.183 169.416C343.872 169.416 344.473 169.306 344.987 169.086C345.5 168.851 345.896 168.529 346.175 168.118C346.468 167.707 346.615 167.223 346.615 166.666C346.615 165.449 345.779 164.84 344.107 164.84H341.445L340.543 169.416H343.183ZM361.545 171.132C360.401 171.132 359.411 170.927 358.575 170.516C357.739 170.091 357.093 169.504 356.639 168.756C356.184 167.993 355.957 167.099 355.957 166.072C355.957 164.752 356.243 163.579 356.815 162.552C357.387 161.525 358.164 160.719 359.147 160.132C360.144 159.531 361.273 159.23 362.535 159.23C363.591 159.23 364.507 159.435 365.285 159.846C366.062 160.242 366.663 160.814 367.089 161.562C367.529 162.31 367.749 163.212 367.749 164.268C367.749 164.532 367.734 164.803 367.705 165.082C367.675 165.346 367.639 165.595 367.595 165.83H357.497L357.761 164.29H366.583L365.725 164.818C365.857 163.997 365.798 163.307 365.549 162.75C365.299 162.178 364.903 161.745 364.361 161.452C363.833 161.144 363.195 160.99 362.447 160.99C361.567 160.99 360.789 161.203 360.115 161.628C359.455 162.039 358.941 162.618 358.575 163.366C358.208 164.099 358.025 164.965 358.025 165.962C358.025 167.018 358.325 167.839 358.927 168.426C359.543 168.998 360.474 169.284 361.721 169.284C362.454 169.284 363.136 169.167 363.767 168.932C364.397 168.683 364.918 168.353 365.329 167.942L366.231 169.46C365.673 170.003 364.977 170.421 364.141 170.714C363.305 170.993 362.439 171.132 361.545 171.132ZM99.1085 198L101.441 186.34H103.597L106.875 194.964H105.995L112.881 186.34H114.861L112.551 198H110.637L112.485 188.716L112.815 188.914L106.567 196.68H105.643L102.497 188.76L102.893 188.672L101.045 198H99.1085ZM122.338 198.132C121.194 198.132 120.204 197.927 119.368 197.516C118.532 197.091 117.886 196.504 117.432 195.756C116.977 194.993 116.75 194.099 116.75 193.072C116.75 191.752 117.036 190.579 117.608 189.552C118.18 188.525 118.957 187.719 119.94 187.132C120.937 186.531 122.066 186.23 123.328 186.23C124.384 186.23 125.3 186.435 126.078 186.846C126.855 187.242 127.456 187.814 127.882 188.562C128.322 189.31 128.542 190.212 128.542 191.268C128.542 191.532 128.527 191.803 128.498 192.082C128.468 192.346 128.432 192.595 128.388 192.83H118.29L118.554 191.29H127.376L126.518 191.818C126.65 190.997 126.591 190.307 126.342 189.75C126.092 189.178 125.696 188.745 125.154 188.452C124.626 188.144 123.988 187.99 123.24 187.99C122.36 187.99 121.582 188.203 120.908 188.628C120.248 189.039 119.734 189.618 119.368 190.366C119.001 191.099 118.818 191.965 118.818 192.962C118.818 194.018 119.118 194.839 119.72 195.426C120.336 195.998 121.267 196.284 122.514 196.284C123.247 196.284 123.929 196.167 124.56 195.932C125.19 195.683 125.711 195.353 126.122 194.942L127.024 196.46C126.466 197.003 125.77 197.421 124.934 197.714C124.098 197.993 123.232 198.132 122.338 198.132ZM132.185 198L134.209 187.638L134.605 188.188H129.875L130.227 186.34H140.875L140.523 188.188H135.705L136.321 187.638L134.297 198H132.185ZM145.753 198.132C144.638 198.132 143.67 197.927 142.849 197.516C142.042 197.091 141.411 196.504 140.957 195.756C140.502 194.993 140.275 194.106 140.275 193.094C140.275 191.774 140.568 190.601 141.155 189.574C141.741 188.533 142.548 187.719 143.575 187.132C144.616 186.531 145.797 186.23 147.117 186.23C148.217 186.23 149.177 186.435 149.999 186.846C150.82 187.257 151.451 187.836 151.891 188.584C152.345 189.332 152.573 190.219 152.573 191.246C152.573 192.566 152.279 193.747 151.693 194.788C151.106 195.815 150.299 196.629 149.273 197.23C148.261 197.831 147.087 198.132 145.753 198.132ZM145.885 196.284C146.765 196.284 147.549 196.071 148.239 195.646C148.928 195.221 149.463 194.641 149.845 193.908C150.241 193.16 150.439 192.309 150.439 191.356C150.439 190.329 150.138 189.53 149.537 188.958C148.935 188.371 148.077 188.078 146.963 188.078C146.097 188.078 145.32 188.291 144.631 188.716C143.941 189.127 143.399 189.706 143.003 190.454C142.607 191.187 142.409 192.038 142.409 193.006C142.409 194.018 142.709 194.817 143.311 195.404C143.912 195.991 144.77 196.284 145.885 196.284ZM162.528 197.01L164.288 188.188H159.228L158.678 190.52C158.488 191.239 158.297 191.943 158.106 192.632C157.916 193.307 157.696 193.93 157.446 194.502C157.197 195.059 156.911 195.521 156.588 195.888C156.266 196.24 155.877 196.453 155.422 196.526L153.244 196.152C153.699 196.167 154.102 196.013 154.454 195.69C154.806 195.367 155.122 194.927 155.4 194.37C155.679 193.798 155.928 193.153 156.148 192.434C156.383 191.715 156.596 190.975 156.786 190.212L157.71 186.34H166.774L164.64 197.01H162.528ZM151.968 200.706L152.87 196.152H166.598L165.696 200.706H163.716L164.244 198H154.498L153.948 200.706H151.968ZM168.954 198L171.308 186.34H173.442L171.682 195.052L180.482 186.34H182.484L180.174 198H178.018L179.8 189.288L171 198H168.954ZM192.743 198L189.443 192.28L191.203 191.488L195.185 198H192.743ZM184.273 198L186.627 186.34H188.739L186.385 198H184.273ZM186.759 193.072L187.089 191.268H190.939L190.609 193.072H186.759ZM191.269 192.412L189.267 192.148L194.921 186.34H197.275L191.269 192.412ZM197.378 198L199.732 186.34H201.866L200.106 195.052L208.906 186.34H210.908L208.598 198H206.442L208.224 189.288L199.424 198H197.378ZM224.171 198.132C223.056 198.132 222.088 197.927 221.267 197.516C220.46 197.091 219.829 196.504 219.375 195.756C218.92 194.993 218.693 194.106 218.693 193.094C218.693 191.774 218.986 190.601 219.573 189.574C220.159 188.533 220.966 187.719 221.993 187.132C223.034 186.531 224.215 186.23 225.535 186.23C226.635 186.23 227.595 186.435 228.417 186.846C229.238 187.257 229.869 187.836 230.309 188.584C230.763 189.332 230.991 190.219 230.991 191.246C230.991 192.566 230.697 193.747 230.111 194.788C229.524 195.815 228.717 196.629 227.691 197.23C226.679 197.831 225.505 198.132 224.171 198.132ZM224.303 196.284C225.183 196.284 225.967 196.071 226.657 195.646C227.346 195.221 227.881 194.641 228.263 193.908C228.659 193.16 228.857 192.309 228.857 191.356C228.857 190.329 228.556 189.53 227.955 188.958C227.353 188.371 226.495 188.078 225.381 188.078C224.515 188.078 223.738 188.291 223.049 188.716C222.359 189.127 221.817 189.706 221.421 190.454C221.025 191.187 220.827 192.038 220.827 193.006C220.827 194.018 221.127 194.817 221.729 195.404C222.33 195.991 223.188 196.284 224.303 196.284ZM238.744 198.176C237.058 198.176 235.738 197.692 234.784 196.724C233.846 195.756 233.376 194.326 233.376 192.434C233.376 191.217 233.56 190.058 233.926 188.958C234.308 187.858 234.843 186.861 235.532 185.966C236.222 185.057 237.036 184.301 237.974 183.7C238.928 183.099 239.984 182.681 241.142 182.446L246.664 181.324L246.686 183.128L241.626 184.14C240.468 184.375 239.456 184.807 238.59 185.438C237.74 186.069 237.05 186.875 236.522 187.858C236.009 188.826 235.672 189.955 235.51 191.246L234.938 190.762C235.628 189.574 236.486 188.679 237.512 188.078C238.539 187.462 239.69 187.154 240.966 187.154C242.433 187.154 243.584 187.557 244.42 188.364C245.271 189.171 245.696 190.293 245.696 191.73C245.696 192.947 245.396 194.047 244.794 195.03C244.208 195.998 243.386 196.768 242.33 197.34C241.289 197.897 240.094 198.176 238.744 198.176ZM238.898 196.526C239.764 196.526 240.534 196.328 241.208 195.932C241.898 195.536 242.44 195.008 242.836 194.348C243.232 193.673 243.43 192.918 243.43 192.082C243.43 191.099 243.144 190.344 242.572 189.816C242.015 189.288 241.238 189.024 240.24 189.024C239.61 189.024 239.008 189.134 238.436 189.354C237.864 189.574 237.351 189.875 236.896 190.256C236.456 190.637 236.112 191.085 235.862 191.598C235.613 192.111 235.488 192.661 235.488 193.248C235.488 194.231 235.789 195.023 236.39 195.624C237.006 196.225 237.842 196.526 238.898 196.526ZM247.134 202.4C246.576 202.4 246.026 202.305 245.484 202.114C244.941 201.938 244.516 201.689 244.208 201.366L245.308 199.804C245.557 200.053 245.85 200.244 246.188 200.376C246.51 200.523 246.877 200.596 247.288 200.596C247.772 200.596 248.204 200.464 248.586 200.2C248.982 199.951 249.385 199.503 249.796 198.858L250.896 197.164L251.138 196.922L257.804 186.34H259.938L251.666 199.276C251.152 200.068 250.668 200.691 250.214 201.146C249.759 201.601 249.282 201.923 248.784 202.114C248.3 202.305 247.75 202.4 247.134 202.4ZM250.5 198.374L247.574 186.34H249.686L252.172 196.724L250.5 198.374ZM268.172 193.27C267.497 193.549 266.815 193.769 266.126 193.93C265.451 194.091 264.791 194.172 264.146 194.172C262.694 194.172 261.616 193.827 260.912 193.138C260.208 192.449 259.995 191.415 260.274 190.036L261 186.34H263.112L262.364 190.08C262.217 190.901 262.342 191.503 262.738 191.884C263.148 192.251 263.772 192.434 264.608 192.434C265.209 192.434 265.825 192.353 266.456 192.192C267.086 192.031 267.724 191.818 268.37 191.554L268.172 193.27ZM266.984 198L269.316 186.34H271.428L269.096 198H266.984ZM278.894 198.132C277.75 198.132 276.76 197.927 275.924 197.516C275.088 197.091 274.443 196.504 273.988 195.756C273.534 194.993 273.306 194.099 273.306 193.072C273.306 191.752 273.592 190.579 274.164 189.552C274.736 188.525 275.514 187.719 276.496 187.132C277.494 186.531 278.623 186.23 279.884 186.23C280.94 186.23 281.857 186.435 282.634 186.846C283.412 187.242 284.013 187.814 284.438 188.562C284.878 189.31 285.098 190.212 285.098 191.268C285.098 191.532 285.084 191.803 285.054 192.082C285.025 192.346 284.988 192.595 284.944 192.83H274.846L275.11 191.29H283.932L283.074 191.818C283.206 190.997 283.148 190.307 282.898 189.75C282.649 189.178 282.253 188.745 281.71 188.452C281.182 188.144 280.544 187.99 279.796 187.99C278.916 187.99 278.139 188.203 277.464 188.628C276.804 189.039 276.291 189.618 275.924 190.366C275.558 191.099 275.374 191.965 275.374 192.962C275.374 194.018 275.675 194.839 276.276 195.426C276.892 195.998 277.824 196.284 279.07 196.284C279.804 196.284 280.486 196.167 281.116 195.932C281.747 195.683 282.268 195.353 282.678 194.942L283.58 196.46C283.023 197.003 282.326 197.421 281.49 197.714C280.654 197.993 279.789 198.132 278.894 198.132ZM286.903 198L289.235 186.34H291.347L290.357 191.29H297.001L297.991 186.34H300.103L297.771 198H295.659L296.649 193.116H290.005L289.015 198H286.903ZM301.857 198L304.211 186.34H306.345L304.585 195.052L313.385 186.34H315.387L313.077 198H310.921L312.703 189.288L303.903 198H301.857ZM324.677 198L325.469 193.864L325.755 194.392H322.081C320.688 194.392 319.617 194.077 318.869 193.446C318.121 192.801 317.747 191.943 317.747 190.872C317.747 189.464 318.275 188.357 319.331 187.55C320.402 186.743 321.861 186.34 323.709 186.34H328.879L326.569 198H324.677ZM316.229 198L320.299 193.534H322.477L318.605 198H316.229ZM325.601 193.292L326.767 187.484L326.987 188.166H323.533C322.389 188.166 321.502 188.401 320.871 188.87C320.24 189.325 319.925 189.985 319.925 190.85C319.925 192.097 320.761 192.72 322.433 192.72H326.019L325.601 193.292ZM331.327 198.132C330.931 198.132 330.594 198 330.315 197.736C330.051 197.457 329.919 197.12 329.919 196.724C329.919 196.24 330.073 195.851 330.381 195.558C330.689 195.265 331.056 195.118 331.481 195.118C331.877 195.118 332.207 195.25 332.471 195.514C332.735 195.778 332.867 196.123 332.867 196.548C332.867 196.856 332.794 197.135 332.647 197.384C332.5 197.619 332.31 197.802 332.075 197.934C331.855 198.066 331.606 198.132 331.327 198.132ZM52.0322 225L55.1122 209.6H60.8322C62.6362 209.6 64.0295 209.996 65.0122 210.788C65.9949 211.58 66.4862 212.687 66.4862 214.11C66.4862 215.415 66.1929 216.537 65.6062 217.476C65.0342 218.4 64.2055 219.111 63.1202 219.61C62.0349 220.094 60.7515 220.336 59.2702 220.336H54.2102L55.3762 219.28L54.2322 225H52.0322ZM55.3322 219.522L54.5622 218.422H59.3142C60.8835 218.422 62.1009 218.077 62.9662 217.388C63.8462 216.684 64.2862 215.657 64.2862 214.308C64.2862 213.384 63.9709 212.687 63.3402 212.218C62.7095 211.749 61.8075 211.514 60.6342 211.514H55.9922L57.1582 210.392L55.3322 219.522ZM73.0419 225.132C71.8979 225.132 70.9079 224.927 70.0719 224.516C69.2359 224.091 68.5905 223.504 68.1359 222.756C67.6812 221.993 67.4539 221.099 67.4539 220.072C67.4539 218.752 67.7399 217.579 68.3119 216.552C68.8839 215.525 69.6612 214.719 70.6439 214.132C71.6412 213.531 72.7705 213.23 74.0319 213.23C75.0879 213.23 76.0045 213.435 76.7819 213.846C77.5592 214.242 78.1605 214.814 78.5859 215.562C79.0259 216.31 79.2459 217.212 79.2459 218.268C79.2459 218.532 79.2312 218.803 79.2019 219.082C79.1725 219.346 79.1359 219.595 79.0919 219.83H68.9939L69.2579 218.29H78.0799L77.2219 218.818C77.3539 217.997 77.2952 217.307 77.0459 216.75C76.7965 216.178 76.4005 215.745 75.8579 215.452C75.3299 215.144 74.6919 214.99 73.9439 214.99C73.0639 214.99 72.2865 215.203 71.6119 215.628C70.9519 216.039 70.4385 216.618 70.0719 217.366C69.7052 218.099 69.5219 218.965 69.5219 219.962C69.5219 221.018 69.8225 221.839 70.4239 222.426C71.0399 222.998 71.9712 223.284 73.2179 223.284C73.9512 223.284 74.6332 223.167 75.2639 222.932C75.8945 222.683 76.4152 222.353 76.8259 221.942L77.7279 223.46C77.1705 224.003 76.4739 224.421 75.6379 224.714C74.8019 224.993 73.9365 225.132 73.0419 225.132ZM89.5209 225L86.2209 219.28L87.9809 218.488L91.9629 225H89.5209ZM81.0509 225L83.4049 213.34H85.5169L83.1629 225H81.0509ZM83.5369 220.072L83.8669 218.268H87.7169L87.3869 220.072H83.5369ZM88.0469 219.412L86.0449 219.148L91.6989 213.34H94.0529L88.0469 219.412ZM99.3356 225.132C98.221 225.132 97.253 224.927 96.4316 224.516C95.625 224.091 94.9943 223.504 94.5396 222.756C94.085 221.993 93.8576 221.106 93.8576 220.094C93.8576 218.774 94.151 217.601 94.7376 216.574C95.3243 215.533 96.131 214.719 97.1576 214.132C98.199 213.531 99.3796 213.23 100.7 213.23C101.8 213.23 102.76 213.435 103.582 213.846C104.403 214.257 105.034 214.836 105.474 215.584C105.928 216.332 106.156 217.219 106.156 218.246C106.156 219.566 105.862 220.747 105.276 221.788C104.689 222.815 103.882 223.629 102.856 224.23C101.844 224.831 100.67 225.132 99.3356 225.132ZM99.4676 223.284C100.348 223.284 101.132 223.071 101.822 222.646C102.511 222.221 103.046 221.641 103.428 220.908C103.824 220.16 104.022 219.309 104.022 218.356C104.022 217.329 103.721 216.53 103.12 215.958C102.518 215.371 101.66 215.078 100.546 215.078C99.6803 215.078 98.903 215.291 98.2136 215.716C97.5243 216.127 96.9816 216.706 96.5856 217.454C96.1896 218.187 95.9916 219.038 95.9916 220.006C95.9916 221.018 96.2923 221.817 96.8936 222.404C97.495 222.991 98.353 223.284 99.4676 223.284ZM108.035 225L110.367 213.34H112.523L115.801 221.964H114.921L121.807 213.34H123.787L121.477 225H119.563L121.411 215.716L121.741 215.914L115.493 223.68H114.569L111.423 215.76L111.819 215.672L109.971 225H108.035ZM131.265 225.132C130.121 225.132 129.131 224.927 128.295 224.516C127.459 224.091 126.813 223.504 126.359 222.756C125.904 221.993 125.677 221.099 125.677 220.072C125.677 218.752 125.963 217.579 126.535 216.552C127.107 215.525 127.884 214.719 128.867 214.132C129.864 213.531 130.993 213.23 132.255 213.23C133.311 213.23 134.227 213.435 135.005 213.846C135.782 214.242 136.383 214.814 136.809 215.562C137.249 216.31 137.469 217.212 137.469 218.268C137.469 218.532 137.454 218.803 137.425 219.082C137.395 219.346 137.359 219.595 137.315 219.83H127.217L127.481 218.29H136.303L135.445 218.818C135.577 217.997 135.518 217.307 135.269 216.75C135.019 216.178 134.623 215.745 134.081 215.452C133.553 215.144 132.915 214.99 132.167 214.99C131.287 214.99 130.509 215.203 129.835 215.628C129.175 216.039 128.661 216.618 128.295 217.366C127.928 218.099 127.745 218.965 127.745 219.962C127.745 221.018 128.045 221.839 128.647 222.426C129.263 222.998 130.194 223.284 131.441 223.284C132.174 223.284 132.856 223.167 133.487 222.932C134.117 222.683 134.638 222.353 135.049 221.942L135.951 223.46C135.393 224.003 134.697 224.421 133.861 224.714C133.025 224.993 132.159 225.132 131.265 225.132ZM139.274 225L141.606 213.34H143.718L142.728 218.29H149.372L150.362 213.34H152.474L150.142 225H148.03L149.02 220.116H142.376L141.386 225H139.274ZM162.389 224.01L164.149 215.188H159.089L158.539 217.52C158.348 218.239 158.157 218.943 157.967 219.632C157.776 220.307 157.556 220.93 157.307 221.502C157.057 222.059 156.771 222.521 156.449 222.888C156.126 223.24 155.737 223.453 155.283 223.526L153.105 223.152C153.559 223.167 153.963 223.013 154.315 222.69C154.667 222.367 154.982 221.927 155.261 221.37C155.539 220.798 155.789 220.153 156.009 219.434C156.243 218.715 156.456 217.975 156.647 217.212L157.571 213.34H166.635L164.501 224.01H162.389ZM151.829 227.706L152.731 223.152H166.459L165.557 227.706H163.577L164.105 225H154.359L153.809 227.706H151.829ZM168.727 229.4C168.169 229.4 167.619 229.305 167.077 229.114C166.534 228.938 166.109 228.689 165.801 228.366L166.901 226.804C167.15 227.053 167.443 227.244 167.781 227.376C168.103 227.523 168.47 227.596 168.881 227.596C169.365 227.596 169.797 227.464 170.179 227.2C170.575 226.951 170.978 226.503 171.389 225.858L172.489 224.164L172.731 223.922L179.397 213.34H181.531L173.259 226.276C172.745 227.068 172.261 227.691 171.807 228.146C171.352 228.601 170.875 228.923 170.377 229.114C169.893 229.305 169.343 229.4 168.727 229.4ZM172.093 225.374L169.167 213.34H171.279L173.765 223.724L172.093 225.374ZM181.426 225L183.736 213.34H185.848L184.902 218.114H188.4L188.026 220.072H184.528L183.538 225H181.426ZM192.25 225.132C191.165 225.132 190.219 224.927 189.412 224.516C188.62 224.091 187.997 223.504 187.542 222.756C187.102 221.993 186.882 221.113 186.882 220.116C186.882 218.796 187.168 217.623 187.74 216.596C188.327 215.555 189.126 214.733 190.138 214.132C191.165 213.531 192.331 213.23 193.636 213.23C194.722 213.23 195.66 213.435 196.452 213.846C197.259 214.257 197.882 214.836 198.322 215.584C198.777 216.332 199.004 217.212 199.004 218.224C199.004 219.544 198.711 220.725 198.124 221.766C197.552 222.807 196.76 223.629 195.748 224.23C194.736 224.831 193.57 225.132 192.25 225.132ZM192.404 223.284C193.27 223.284 194.032 223.071 194.692 222.646C195.367 222.221 195.895 221.641 196.276 220.908C196.672 220.16 196.87 219.302 196.87 218.334C196.87 217.322 196.577 216.53 195.99 215.958C195.404 215.371 194.568 215.078 193.482 215.078C192.632 215.078 191.869 215.291 191.194 215.716C190.52 216.127 189.984 216.706 189.588 217.454C189.207 218.187 189.016 219.045 189.016 220.028C189.016 221.04 189.31 221.839 189.896 222.426C190.483 222.998 191.319 223.284 192.404 223.284ZM214.939 224.01L216.699 215.188H211.639L211.089 217.52C210.899 218.239 210.708 218.943 210.517 219.632C210.327 220.307 210.107 220.93 209.857 221.502C209.608 222.059 209.322 222.521 208.999 222.888C208.677 223.24 208.288 223.453 207.833 223.526L205.655 223.152C206.11 223.167 206.513 223.013 206.865 222.69C207.217 222.367 207.533 221.927 207.811 221.37C208.09 220.798 208.339 220.153 208.559 219.434C208.794 218.715 209.007 217.975 209.197 217.212L210.121 213.34H219.185L217.051 224.01H214.939ZM204.379 227.706L205.281 223.152H219.009L218.107 227.706H216.127L216.655 225H206.909L206.359 227.706H204.379ZM219.429 224.978L219.935 223.196C220.038 223.211 220.133 223.225 220.221 223.24C220.309 223.255 220.39 223.262 220.463 223.262C220.991 223.262 221.446 223.027 221.827 222.558C222.209 222.089 222.546 221.429 222.839 220.578C223.133 219.727 223.426 218.745 223.719 217.63L224.775 213.34H233.707L231.375 225H229.263L231.353 214.528L231.771 215.188H225.787L226.359 214.528L225.567 217.784C225.274 218.987 224.966 220.05 224.643 220.974C224.335 221.883 223.998 222.653 223.631 223.284C223.265 223.9 222.847 224.369 222.377 224.692C221.923 225.015 221.387 225.176 220.771 225.176C220.551 225.176 220.339 225.154 220.133 225.11C219.913 225.081 219.679 225.037 219.429 224.978ZM242.983 225L243.775 220.864L244.061 221.392H240.387C238.993 221.392 237.923 221.077 237.175 220.446C236.427 219.801 236.053 218.943 236.053 217.872C236.053 216.464 236.581 215.357 237.637 214.55C238.707 213.743 240.167 213.34 242.015 213.34H247.185L244.875 225H242.983ZM234.535 225L238.605 220.534H240.783L236.911 225H234.535ZM243.907 220.292L245.073 214.484L245.293 215.166H241.839C240.695 215.166 239.807 215.401 239.177 215.87C238.546 216.325 238.231 216.985 238.231 217.85C238.231 219.097 239.067 219.72 240.739 219.72H244.325L243.907 220.292ZM254.793 229.4C254.236 229.4 253.686 229.305 253.143 229.114C252.6 228.938 252.175 228.689 251.867 228.366L252.967 226.804C253.216 227.053 253.51 227.244 253.847 227.376C254.17 227.523 254.536 227.596 254.947 227.596C255.431 227.596 255.864 227.464 256.245 227.2C256.641 226.951 257.044 226.503 257.455 225.858L258.555 224.164L258.797 223.922L265.463 213.34H267.597L259.325 226.276C258.812 227.068 258.328 227.691 257.873 228.146C257.418 228.601 256.942 228.923 256.443 229.114C255.959 229.305 255.409 229.4 254.793 229.4ZM258.159 225.374L255.233 213.34H257.345L259.831 223.724L258.159 225.374ZM272.781 225.132C271.651 225.132 270.669 224.927 269.833 224.516C269.011 224.091 268.373 223.504 267.919 222.756C267.464 221.993 267.237 221.106 267.237 220.094C267.237 218.774 267.53 217.601 268.117 216.574C268.703 215.533 269.517 214.719 270.559 214.132C271.6 213.531 272.781 213.23 274.101 213.23C275.23 213.23 276.198 213.443 277.005 213.868C277.811 214.279 278.442 214.909 278.897 215.76L277.115 216.75C276.821 216.178 276.403 215.76 275.861 215.496C275.333 215.217 274.695 215.078 273.947 215.078C273.067 215.078 272.282 215.291 271.593 215.716C270.903 216.127 270.361 216.706 269.965 217.454C269.569 218.187 269.371 219.038 269.371 220.006C269.371 221.018 269.671 221.817 270.273 222.404C270.889 222.991 271.754 223.284 272.869 223.284C273.558 223.284 274.203 223.145 274.805 222.866C275.421 222.587 275.934 222.177 276.345 221.634L277.885 222.734C277.357 223.482 276.638 224.069 275.729 224.494C274.819 224.919 273.837 225.132 272.781 225.132ZM279.996 225L282.328 213.34H293.13L290.798 225H288.686L290.71 214.66L291.106 215.188H283.516L284.154 214.66L282.108 225H279.996ZM300.583 225.132C299.439 225.132 298.449 224.927 297.613 224.516C296.777 224.091 296.132 223.504 295.677 222.756C295.222 221.993 294.995 221.099 294.995 220.072C294.995 218.752 295.281 217.579 295.853 216.552C296.425 215.525 297.202 214.719 298.185 214.132C299.182 213.531 300.312 213.23 301.573 213.23C302.629 213.23 303.546 213.435 304.323 213.846C305.1 214.242 305.702 214.814 306.127 215.562C306.567 216.31 306.787 217.212 306.787 218.268C306.787 218.532 306.772 218.803 306.743 219.082C306.714 219.346 306.677 219.595 306.633 219.83H296.535L296.799 218.29H305.621L304.763 218.818C304.895 217.997 304.836 217.307 304.587 216.75C304.338 216.178 303.942 215.745 303.399 215.452C302.871 215.144 302.233 214.99 301.485 214.99C300.605 214.99 299.828 215.203 299.153 215.628C298.493 216.039 297.98 216.618 297.613 217.366C297.246 218.099 297.063 218.965 297.063 219.962C297.063 221.018 297.364 221.839 297.965 222.426C298.581 222.998 299.512 223.284 300.759 223.284C301.492 223.284 302.174 223.167 302.805 222.932C303.436 222.683 303.956 222.353 304.367 221.942L305.269 223.46C304.712 224.003 304.015 224.421 303.179 224.714C302.343 224.993 301.478 225.132 300.583 225.132ZM316.732 223.152L316.16 223.702L318.184 213.34H320.296L318.272 223.702L317.854 223.152H323.992L323.376 223.702L325.4 213.34H327.512L325.202 225H308.592L310.924 213.34H313.036L310.99 223.702L310.616 223.152H316.732ZM329.303 225L331.635 213.34H333.747L332.757 218.29H339.401L340.391 213.34H342.503L340.171 225H338.059L339.049 220.116H332.405L331.415 225H329.303ZM349.822 225.132C348.707 225.132 347.739 224.927 346.918 224.516C346.111 224.091 345.481 223.504 345.026 222.756C344.571 221.993 344.344 221.106 344.344 220.094C344.344 218.774 344.637 217.601 345.224 216.574C345.811 215.533 346.617 214.719 347.644 214.132C348.685 213.531 349.866 213.23 351.186 213.23C352.286 213.23 353.247 213.435 354.068 213.846C354.889 214.257 355.52 214.836 355.96 215.584C356.415 216.332 356.642 217.219 356.642 218.246C356.642 219.566 356.349 220.747 355.762 221.788C355.175 222.815 354.369 223.629 353.342 224.23C352.33 224.831 351.157 225.132 349.822 225.132ZM349.954 223.284C350.834 223.284 351.619 223.071 352.308 222.646C352.997 222.221 353.533 221.641 353.914 220.908C354.31 220.16 354.508 219.309 354.508 218.356C354.508 217.329 354.207 216.53 353.606 215.958C353.005 215.371 352.147 215.078 351.032 215.078C350.167 215.078 349.389 215.291 348.7 215.716C348.011 216.127 347.468 216.706 347.072 217.454C346.676 218.187 346.478 219.038 346.478 220.006C346.478 221.018 346.779 221.817 347.38 222.404C347.981 222.991 348.839 223.284 349.954 223.284ZM358.522 225L360.854 213.34H369.434L369.06 215.188H362.064L362.68 214.704L360.634 225H358.522ZM374.314 225.132C373.199 225.132 372.231 224.927 371.41 224.516C370.603 224.091 369.973 223.504 369.518 222.756C369.063 221.993 368.836 221.106 368.836 220.094C368.836 218.774 369.129 217.601 369.716 216.574C370.303 215.533 371.109 214.719 372.136 214.132C373.177 213.531 374.358 213.23 375.678 213.23C376.778 213.23 377.739 213.435 378.56 213.846C379.381 214.257 380.012 214.836 380.452 215.584C380.907 216.332 381.134 217.219 381.134 218.246C381.134 219.566 380.841 220.747 380.254 221.788C379.667 222.815 378.861 223.629 377.834 224.23C376.822 224.831 375.649 225.132 374.314 225.132ZM374.446 223.284C375.326 223.284 376.111 223.071 376.8 222.646C377.489 222.221 378.025 221.641 378.406 220.908C378.802 220.16 379 219.309 379 218.356C379 217.329 378.699 216.53 378.098 215.958C377.497 215.371 376.639 215.078 375.524 215.078C374.659 215.078 373.881 215.291 373.192 215.716C372.503 216.127 371.96 216.706 371.564 217.454C371.168 218.187 370.97 219.038 370.97 220.006C370.97 221.018 371.271 221.817 371.872 222.404C372.473 222.991 373.331 223.284 374.446 223.284ZM120.908 252.132C119.778 252.132 118.796 251.927 117.96 251.516C117.138 251.091 116.5 250.504 116.046 249.756C115.591 248.993 115.364 248.106 115.364 247.094C115.364 245.774 115.657 244.601 116.244 243.574C116.83 242.533 117.644 241.719 118.686 241.132C119.727 240.531 120.908 240.23 122.228 240.23C123.357 240.23 124.325 240.443 125.132 240.868C125.938 241.279 126.569 241.909 127.024 242.76L125.242 243.75C124.948 243.178 124.53 242.76 123.988 242.496C123.46 242.217 122.822 242.078 122.074 242.078C121.194 242.078 120.409 242.291 119.72 242.716C119.03 243.127 118.488 243.706 118.092 244.454C117.696 245.187 117.498 246.038 117.498 247.006C117.498 248.018 117.798 248.817 118.4 249.404C119.016 249.991 119.881 250.284 120.996 250.284C121.685 250.284 122.33 250.145 122.932 249.866C123.548 249.587 124.061 249.177 124.472 248.634L126.012 249.734C125.484 250.482 124.765 251.069 123.856 251.494C122.946 251.919 121.964 252.132 120.908 252.132ZM135.941 251.01L137.701 242.188H132.641L132.091 244.52C131.901 245.239 131.71 245.943 131.519 246.632C131.329 247.307 131.109 247.93 130.859 248.502C130.61 249.059 130.324 249.521 130.001 249.888C129.679 250.24 129.29 250.453 128.835 250.526L126.657 250.152C127.112 250.167 127.515 250.013 127.867 249.69C128.219 249.367 128.535 248.927 128.813 248.37C129.092 247.798 129.341 247.153 129.561 246.434C129.796 245.715 130.009 244.975 130.199 244.212L131.123 240.34H140.187L138.053 251.01H135.941ZM125.381 254.706L126.283 250.152H140.011L139.109 254.706H137.129L137.657 252H127.911L127.361 254.706H125.381ZM147.625 252.132C146.643 252.132 145.763 251.934 144.985 251.538C144.208 251.127 143.592 250.548 143.137 249.8C142.697 249.052 142.477 248.15 142.477 247.094C142.477 246.097 142.639 245.18 142.961 244.344C143.299 243.508 143.761 242.782 144.347 242.166C144.949 241.55 145.653 241.073 146.459 240.736C147.266 240.399 148.139 240.23 149.077 240.23C150.089 240.23 150.947 240.406 151.651 240.758C152.355 241.11 152.898 241.631 153.279 242.32C153.661 242.995 153.851 243.823 153.851 244.806C153.851 246.243 153.602 247.519 153.103 248.634C152.605 249.734 151.886 250.592 150.947 251.208C150.023 251.824 148.916 252.132 147.625 252.132ZM148.087 250.284C148.967 250.284 149.752 250.071 150.441 249.646C151.131 249.221 151.666 248.641 152.047 247.908C152.443 247.16 152.641 246.309 152.641 245.356C152.641 244.329 152.341 243.53 151.739 242.958C151.138 242.371 150.28 242.078 149.165 242.078C148.3 242.078 147.523 242.291 146.833 242.716C146.144 243.127 145.601 243.706 145.205 244.454C144.809 245.187 144.611 246.038 144.611 247.006C144.611 248.018 144.912 248.817 145.513 249.404C146.115 249.991 146.973 250.284 148.087 250.284ZM151.453 252L152.069 248.986L152.773 246.28L153.059 243.508L153.675 240.34H155.787L153.477 252H151.453ZM165.938 247.27C165.264 247.549 164.582 247.769 163.892 247.93C163.218 248.091 162.558 248.172 161.912 248.172C160.46 248.172 159.382 247.827 158.678 247.138C157.974 246.449 157.762 245.415 158.04 244.036L158.766 240.34H160.878L160.13 244.08C159.984 244.901 160.108 245.503 160.504 245.884C160.915 246.251 161.538 246.434 162.374 246.434C162.976 246.434 163.592 246.353 164.222 246.192C164.853 246.031 165.491 245.818 166.136 245.554L165.938 247.27ZM164.75 252L167.082 240.34H169.194L166.862 252H164.75ZM170.963 252L173.317 240.34H175.451L173.691 249.052L182.491 240.34H184.493L182.183 252H180.027L181.809 243.288L173.009 252H170.963ZM194.984 246.874L195.314 245.312H201.848L201.54 246.874H194.984ZM197.69 240.23C198.79 240.23 199.743 240.443 200.55 240.868C201.371 241.279 202.009 241.865 202.464 242.628C202.933 243.376 203.168 244.263 203.168 245.29C203.168 246.229 202.97 247.116 202.574 247.952C202.192 248.788 201.65 249.521 200.946 250.152C200.256 250.783 199.457 251.274 198.548 251.626C197.638 251.978 196.67 252.154 195.644 252.154C194.646 252.154 193.759 251.985 192.982 251.648C192.204 251.311 191.581 250.834 191.112 250.218L192.476 249.14C192.842 249.565 193.304 249.895 193.862 250.13C194.434 250.35 195.05 250.46 195.71 250.46C196.458 250.46 197.154 250.328 197.8 250.064C198.46 249.785 199.032 249.411 199.516 248.942C200.014 248.473 200.403 247.93 200.682 247.314C200.96 246.698 201.1 246.045 201.1 245.356C201.1 244.271 200.77 243.42 200.11 242.804C199.45 242.188 198.54 241.88 197.382 241.88C196.707 241.88 196.054 241.997 195.424 242.232C194.793 242.467 194.206 242.819 193.664 243.288L192.63 242.1C193.26 241.513 194.016 241.059 194.896 240.736C195.79 240.399 196.722 240.23 197.69 240.23ZM213.378 252L210.078 246.28L211.838 245.488L215.82 252H213.378ZM204.908 252L207.262 240.34H209.374L207.02 252H204.908ZM207.394 247.072L207.724 245.268H211.574L211.244 247.072H207.394ZM211.904 246.412L209.902 246.148L215.556 240.34H217.91L211.904 246.412ZM220.867 252.154C219.092 252.154 217.574 251.692 216.313 250.768L217.127 249.272C217.581 249.624 218.139 249.895 218.799 250.086C219.473 250.262 220.185 250.35 220.933 250.35C221.651 250.35 222.275 250.262 222.803 250.086C223.345 249.895 223.771 249.646 224.079 249.338C224.387 249.03 224.541 248.678 224.541 248.282C224.541 247.798 224.328 247.424 223.903 247.16C223.492 246.896 222.905 246.764 222.143 246.764H220.031L220.273 245.224H222.055C222.935 245.224 223.639 245.07 224.167 244.762C224.709 244.439 224.981 244.021 224.981 243.508C224.981 243.053 224.761 242.694 224.321 242.43C223.895 242.151 223.287 242.012 222.495 242.012C221.908 242.012 221.321 242.093 220.735 242.254C220.163 242.415 219.532 242.643 218.843 242.936L218.337 241.176C219.055 240.839 219.781 240.589 220.515 240.428C221.248 240.267 221.967 240.186 222.671 240.186C223.565 240.186 224.35 240.311 225.025 240.56C225.699 240.795 226.22 241.139 226.587 241.594C226.968 242.034 227.159 242.555 227.159 243.156C227.159 243.684 227.005 244.161 226.697 244.586C226.403 245.011 225.985 245.363 225.443 245.642C224.915 245.921 224.284 246.097 223.551 246.17L223.507 245.774C224.504 245.891 225.274 246.177 225.817 246.632C226.374 247.087 226.653 247.688 226.653 248.436C226.653 249.14 226.403 249.778 225.905 250.35C225.406 250.907 224.717 251.347 223.837 251.67C222.971 251.993 221.981 252.154 220.867 252.154ZM234.379 252.132C233.397 252.132 232.517 251.934 231.739 251.538C230.962 251.127 230.346 250.548 229.891 249.8C229.451 249.052 229.231 248.15 229.231 247.094C229.231 246.097 229.393 245.18 229.715 244.344C230.053 243.508 230.515 242.782 231.101 242.166C231.703 241.55 232.407 241.073 233.213 240.736C234.02 240.399 234.893 240.23 235.831 240.23C236.843 240.23 237.701 240.406 238.405 240.758C239.109 241.11 239.652 241.631 240.033 242.32C240.415 242.995 240.605 243.823 240.605 244.806C240.605 246.243 240.356 247.519 239.857 248.634C239.359 249.734 238.64 250.592 237.701 251.208C236.777 251.824 235.67 252.132 234.379 252.132ZM234.841 250.284C235.721 250.284 236.506 250.071 237.195 249.646C237.885 249.221 238.42 248.641 238.801 247.908C239.197 247.16 239.395 246.309 239.395 245.356C239.395 244.329 239.095 243.53 238.493 242.958C237.892 242.371 237.034 242.078 235.919 242.078C235.054 242.078 234.277 242.291 233.587 242.716C232.898 243.127 232.355 243.706 231.959 244.454C231.563 245.187 231.365 246.038 231.365 247.006C231.365 248.018 231.666 248.817 232.267 249.404C232.869 249.991 233.727 250.284 234.841 250.284ZM238.207 252L238.823 248.986L239.527 246.28L239.813 243.508L240.429 240.34H242.541L240.231 252H238.207ZM244.332 252L246.664 240.34H248.82L252.098 248.964H251.218L258.104 240.34H260.084L257.774 252H255.86L257.708 242.716L258.038 242.914L251.79 250.68H250.866L247.72 242.76L248.116 242.672L246.268 252H244.332ZM267.561 252.132C266.417 252.132 265.427 251.927 264.591 251.516C263.755 251.091 263.11 250.504 262.655 249.756C262.201 248.993 261.973 248.099 261.973 247.072C261.973 245.752 262.259 244.579 262.831 243.552C263.403 242.525 264.181 241.719 265.163 241.132C266.161 240.531 267.29 240.23 268.551 240.23C269.607 240.23 270.524 240.435 271.301 240.846C272.079 241.242 272.68 241.814 273.105 242.562C273.545 243.31 273.765 244.212 273.765 245.268C273.765 245.532 273.751 245.803 273.721 246.082C273.692 246.346 273.655 246.595 273.611 246.83H263.513L263.777 245.29H272.599L271.741 245.818C271.873 244.997 271.815 244.307 271.565 243.75C271.316 243.178 270.92 242.745 270.377 242.452C269.849 242.144 269.211 241.99 268.463 241.99C267.583 241.99 266.806 242.203 266.131 242.628C265.471 243.039 264.958 243.618 264.591 244.366C264.225 245.099 264.041 245.965 264.041 246.962C264.041 248.018 264.342 248.839 264.943 249.426C265.559 249.998 266.491 250.284 267.737 250.284C268.471 250.284 269.153 250.167 269.783 249.932C270.414 249.683 270.935 249.353 271.345 248.942L272.247 250.46C271.69 251.003 270.993 251.421 270.157 251.714C269.321 251.993 268.456 252.132 267.561 252.132ZM275.57 252L277.902 240.34H280.014L279.024 245.29H285.668L286.658 240.34H288.77L286.438 252H284.326L285.316 247.116H278.672L277.682 252H275.57ZM295.782 252.132C294.799 252.132 293.919 251.934 293.142 251.538C292.364 251.127 291.748 250.548 291.294 249.8C290.854 249.052 290.634 248.15 290.634 247.094C290.634 246.097 290.795 245.18 291.118 244.344C291.455 243.508 291.917 242.782 292.504 242.166C293.105 241.55 293.809 241.073 294.616 240.736C295.422 240.399 296.295 240.23 297.234 240.23C298.246 240.23 299.104 240.406 299.808 240.758C300.512 241.11 301.054 241.631 301.436 242.32C301.817 242.995 302.008 243.823 302.008 244.806C302.008 246.243 301.758 247.519 301.26 248.634C300.761 249.734 300.042 250.592 299.104 251.208C298.18 251.824 297.072 252.132 295.782 252.132ZM296.244 250.284C297.124 250.284 297.908 250.071 298.598 249.646C299.287 249.221 299.822 248.641 300.204 247.908C300.6 247.16 300.798 246.309 300.798 245.356C300.798 244.329 300.497 243.53 299.896 242.958C299.294 242.371 298.436 242.078 297.322 242.078C296.456 242.078 295.679 242.291 294.99 242.716C294.3 243.127 293.758 243.706 293.362 244.454C292.966 245.187 292.768 246.038 292.768 247.006C292.768 248.018 293.068 248.817 293.67 249.404C294.271 249.991 295.129 250.284 296.244 250.284ZM299.61 252L300.226 248.986L300.93 246.28L301.216 243.508L301.832 240.34H303.944L301.634 252H299.61ZM306.394 252.132C305.998 252.132 305.661 252 305.382 251.736C305.118 251.457 304.986 251.12 304.986 250.724C304.986 250.24 305.14 249.851 305.448 249.558C305.756 249.265 306.123 249.118 306.548 249.118C306.944 249.118 307.274 249.25 307.538 249.514C307.802 249.778 307.934 250.123 307.934 250.548C307.934 250.856 307.861 251.135 307.714 251.384C307.568 251.619 307.377 251.802 307.142 251.934C306.922 252.066 306.673 252.132 306.394 252.132ZM311.52 241.682L313.5 237.216L313.698 238.558C313.302 238.558 312.965 238.426 312.686 238.162C312.422 237.883 312.29 237.539 312.29 237.128C312.29 236.659 312.444 236.277 312.752 235.984C313.075 235.691 313.441 235.544 313.852 235.544C314.248 235.544 314.578 235.676 314.842 235.94C315.106 236.204 315.238 236.541 315.238 236.952C315.238 237.187 315.194 237.407 315.106 237.612C315.033 237.817 314.915 238.074 314.754 238.382L312.906 241.682H311.52ZM315.678 241.682L317.658 237.216L317.856 238.558C317.46 238.558 317.123 238.426 316.844 238.162C316.58 237.883 316.448 237.539 316.448 237.128C316.448 236.659 316.602 236.277 316.91 235.984C317.233 235.691 317.599 235.544 318.01 235.544C318.406 235.544 318.736 235.676 319 235.94C319.264 236.204 319.396 236.541 319.396 236.952C319.396 237.187 319.352 237.407 319.264 237.612C319.191 237.817 319.073 238.074 318.912 238.382L317.064 241.682H315.678Z" fill="#F5F5F5"/>
</svg>
