<svg width="414" height="500" viewBox="0 0 414 500" fill="none" xmlns="http://www.w3.org/2000/svg">
<rect width="414" height="500" rx="22" fill="#3C6279"/>
<path d="M44.448 237L48.368 217.4H58.28C60.5013 217.4 62.1907 217.801 63.348 218.604C64.5053 219.388 65.084 220.517 65.084 221.992C65.084 223.205 64.748 224.232 64.076 225.072C63.404 225.912 62.4987 226.556 61.36 227.004C60.2213 227.433 58.9427 227.648 57.524 227.648L58.308 226.304C60.1187 226.304 61.556 226.696 62.62 227.48C63.684 228.264 64.216 229.365 64.216 230.784C64.216 232.203 63.8147 233.369 63.012 234.284C62.228 235.199 61.1547 235.88 59.792 236.328C58.448 236.776 56.9267 237 55.228 237H44.448ZM50.72 232.996H55.536C56.5067 232.996 57.272 232.8 57.832 232.408C58.4107 232.016 58.7 231.437 58.7 230.672C58.7 230.093 58.4853 229.673 58.056 229.412C57.6267 229.151 57.076 229.02 56.404 229.02H51.056L51.812 225.184H56.264C56.9173 225.184 57.468 225.1 57.916 224.932C58.3827 224.764 58.728 224.512 58.952 224.176C59.176 223.84 59.288 223.429 59.288 222.944C59.288 222.403 59.0827 222.011 58.672 221.768C58.2613 221.525 57.692 221.404 56.964 221.404H53.044L50.72 232.996ZM74.1995 237.252C72.5755 237.252 71.1662 236.963 69.9715 236.384C68.7769 235.805 67.8435 235.003 67.1715 233.976C66.5182 232.931 66.1915 231.717 66.1915 230.336C66.1915 228.656 66.5929 227.163 67.3955 225.856C68.1982 224.531 69.3089 223.485 70.7275 222.72C72.1462 221.955 73.7702 221.572 75.5995 221.572C77.3169 221.572 78.8009 221.936 80.0515 222.664C81.3209 223.392 82.2355 224.4 82.7955 225.688L78.2595 227.844C77.9795 227.135 77.5782 226.621 77.0555 226.304C76.5515 225.987 75.9729 225.828 75.3195 225.828C74.6102 225.828 73.9662 226.015 73.3875 226.388C72.8275 226.743 72.3889 227.228 72.0715 227.844C71.7542 228.46 71.5955 229.188 71.5955 230.028C71.5955 230.905 71.8475 231.615 72.3515 232.156C72.8555 232.697 73.5929 232.968 74.5635 232.968C75.2542 232.968 75.8702 232.819 76.4115 232.52C76.9715 232.203 77.4475 231.689 77.8395 230.98L81.7315 233.332C81.0035 234.564 79.9769 235.525 78.6515 236.216C77.3449 236.907 75.8609 237.252 74.1995 237.252ZM91.4014 237.252C89.7774 237.252 88.3587 236.972 87.1454 236.412C85.9507 235.833 85.0174 235.031 84.3454 234.004C83.6734 232.959 83.3374 231.736 83.3374 230.336C83.3374 228.656 83.72 227.163 84.4854 225.856C85.2507 224.531 86.324 223.485 87.7054 222.72C89.0867 221.955 90.692 221.572 92.5214 221.572C94.0707 221.572 95.396 221.852 96.4974 222.412C97.6174 222.972 98.476 223.756 99.0734 224.764C99.6894 225.753 99.9974 226.911 99.9974 228.236C99.9974 228.684 99.9694 229.113 99.9134 229.524C99.8574 229.935 99.7827 230.336 99.6894 230.728H87.5094L88.0134 227.928H97.2254L95.0134 228.74C95.1627 228.012 95.1347 227.405 94.9294 226.92C94.7427 226.416 94.416 226.033 93.9494 225.772C93.5014 225.492 92.9414 225.352 92.2694 225.352C91.4107 225.352 90.7014 225.567 90.1414 225.996C89.6 226.425 89.1894 227.013 88.9094 227.76C88.648 228.488 88.5174 229.281 88.5174 230.14C88.5174 231.185 88.8067 231.96 89.3854 232.464C89.964 232.949 90.832 233.192 91.9894 233.192C92.6614 233.192 93.3147 233.089 93.9494 232.884C94.6027 232.66 95.172 232.352 95.6574 231.96L97.8694 235.292C96.9174 236.001 95.8814 236.505 94.7614 236.804C93.66 237.103 92.54 237.252 91.4014 237.252ZM100.8 237L103.852 221.824H116.536L115.696 226.052H107.072L108.444 224.904L106.092 237H100.8ZM125.393 234.676L127.101 226.052H123.041L122.649 227.732C122.481 228.46 122.313 229.141 122.145 229.776C121.977 230.392 121.781 230.952 121.557 231.456C121.333 231.96 121.053 232.389 120.717 232.744C120.399 233.099 119.989 233.36 119.485 233.528L114.081 232.744C114.585 232.744 115.033 232.595 115.425 232.296C115.835 231.979 116.199 231.549 116.517 231.008C116.834 230.448 117.114 229.823 117.357 229.132C117.599 228.423 117.814 227.676 118.001 226.892L119.233 221.824H133.261L130.685 234.676H125.393ZM112.289 240.136L113.773 232.744H133.177L131.721 240.136H126.793L127.409 237H117.833L117.245 240.136H112.289ZM141.512 237.252C140.429 237.252 139.393 236.981 138.404 236.44C137.414 235.899 136.612 235.115 135.996 234.088C135.398 233.061 135.1 231.811 135.1 230.336C135.1 229.067 135.314 227.9 135.744 226.836C136.173 225.772 136.761 224.848 137.508 224.064C138.273 223.28 139.15 222.673 140.14 222.244C141.148 221.796 142.212 221.572 143.332 221.572C144.564 221.572 145.618 221.815 146.496 222.3C147.392 222.767 148.045 223.532 148.456 224.596C148.866 225.641 148.96 227.06 148.736 228.852C148.568 230.551 148.166 232.035 147.532 233.304C146.897 234.573 146.076 235.553 145.068 236.244C144.06 236.916 142.874 237.252 141.512 237.252ZM143.36 232.968C144.069 232.968 144.694 232.791 145.236 232.436C145.777 232.081 146.197 231.587 146.496 230.952C146.813 230.317 146.972 229.58 146.972 228.74C146.972 227.863 146.72 227.163 146.216 226.64C145.712 226.099 145.002 225.828 144.088 225.828C143.397 225.828 142.772 226.015 142.212 226.388C141.67 226.743 141.241 227.237 140.924 227.872C140.625 228.507 140.476 229.244 140.476 230.084C140.476 230.961 140.728 231.661 141.232 232.184C141.736 232.707 142.445 232.968 143.36 232.968ZM145.6 237L146.132 234.452L147.14 229.44L147.812 224.428L148.344 221.824H153.664L150.64 237H145.6ZM162.378 237L165.43 221.824H181.11L178.058 237H172.766L175.118 224.904L176.07 226.052H168.622L170.022 224.904L167.67 237H162.378ZM190.026 237.252C188.421 237.252 187.021 236.963 185.826 236.384C184.632 235.805 183.708 235.003 183.054 233.976C182.401 232.931 182.074 231.717 182.074 230.336C182.074 228.656 182.476 227.163 183.278 225.856C184.081 224.531 185.182 223.485 186.582 222.72C187.982 221.955 189.588 221.572 191.398 221.572C193.022 221.572 194.422 221.861 195.598 222.44C196.793 223 197.717 223.793 198.37 224.82C199.024 225.847 199.35 227.06 199.35 228.46C199.35 230.14 198.949 231.643 198.146 232.968C197.344 234.293 196.242 235.339 194.842 236.104C193.442 236.869 191.837 237.252 190.026 237.252ZM190.334 233.024C191.044 233.024 191.669 232.847 192.21 232.492C192.752 232.119 193.172 231.615 193.47 230.98C193.788 230.345 193.946 229.599 193.946 228.74C193.946 227.9 193.694 227.2 193.19 226.64C192.705 226.08 192.005 225.8 191.09 225.8C190.381 225.8 189.756 225.977 189.214 226.332C188.673 226.687 188.244 227.191 187.926 227.844C187.628 228.479 187.478 229.225 187.478 230.084C187.478 230.98 187.73 231.699 188.234 232.24C188.738 232.763 189.438 233.024 190.334 233.024ZM211.006 234.676L212.714 226.052H208.654L208.262 227.732C208.094 228.46 207.926 229.141 207.758 229.776C207.59 230.392 207.394 230.952 207.17 231.456C206.946 231.96 206.666 232.389 206.33 232.744C206.013 233.099 205.602 233.36 205.098 233.528L199.694 232.744C200.198 232.744 200.646 232.595 201.038 232.296C201.449 231.979 201.813 231.549 202.13 231.008C202.447 230.448 202.727 229.823 202.97 229.132C203.213 228.423 203.427 227.676 203.614 226.892L204.846 221.824H218.874L216.298 234.676H211.006ZM197.902 240.136L199.386 232.744H218.79L217.334 240.136H212.406L213.022 237H203.446L202.858 240.136H197.902ZM238.717 237.252C237.504 237.252 236.449 237.019 235.553 236.552C234.657 236.067 234.004 235.292 233.593 234.228C233.183 233.164 233.089 231.745 233.313 229.972C233.5 228.236 233.901 226.743 234.517 225.492C235.152 224.241 235.973 223.28 236.981 222.608C238.008 221.917 239.193 221.572 240.537 221.572C241.639 221.572 242.675 221.843 243.645 222.384C244.635 222.925 245.428 223.709 246.025 224.736C246.641 225.744 246.949 226.985 246.949 228.46C246.949 229.729 246.735 230.896 246.305 231.96C245.876 233.024 245.279 233.957 244.513 234.76C243.767 235.544 242.899 236.16 241.909 236.608C240.92 237.037 239.856 237.252 238.717 237.252ZM227.293 242.432L231.409 221.824H236.449L235.917 224.372L234.937 229.384L234.237 234.368L232.613 242.432H227.293ZM237.961 232.968C238.671 232.968 239.296 232.791 239.837 232.436C240.379 232.081 240.799 231.587 241.097 230.952C241.415 230.317 241.573 229.58 241.573 228.74C241.573 227.863 241.321 227.163 240.817 226.64C240.313 226.099 239.604 225.828 238.689 225.828C237.999 225.828 237.373 226.015 236.813 226.388C236.272 226.743 235.843 227.237 235.525 227.872C235.227 228.507 235.077 229.244 235.077 230.084C235.077 230.961 235.329 231.661 235.833 232.184C236.337 232.707 237.047 232.968 237.961 232.968ZM249.541 242.684C248.738 242.684 247.945 242.563 247.161 242.32C246.358 242.077 245.723 241.76 245.257 241.368L247.637 237.616C247.954 237.877 248.309 238.083 248.701 238.232C249.093 238.4 249.522 238.484 249.989 238.484C250.511 238.484 250.959 238.353 251.333 238.092C251.706 237.831 252.061 237.42 252.397 236.86L253.489 235.096L253.937 234.564L261.581 221.824H266.789L257.073 237.672C256.289 238.96 255.523 239.968 254.777 240.696C254.03 241.424 253.237 241.937 252.397 242.236C251.557 242.535 250.605 242.684 249.541 242.684ZM252.341 237.644L248.785 221.824H254.077L256.597 234.088L252.341 237.644ZM276.158 237L273.218 229.916L277.614 227.872L282.318 237H276.158ZM265.518 237L268.57 221.824H273.89L270.838 237H265.518ZM270.39 231.596L271.174 227.424H276.662L275.85 231.596H270.39ZM277.81 230.056L272.77 229.496L279.434 221.824H285.202L277.81 230.056ZM292.046 237.252C290.441 237.252 289.041 236.963 287.846 236.384C286.651 235.805 285.727 235.003 285.074 233.976C284.421 232.931 284.094 231.717 284.094 230.336C284.094 228.656 284.495 227.163 285.298 225.856C286.101 224.531 287.202 223.485 288.602 222.72C290.002 221.955 291.607 221.572 293.418 221.572C295.042 221.572 296.442 221.861 297.618 222.44C298.813 223 299.737 223.793 300.39 224.82C301.043 225.847 301.37 227.06 301.37 228.46C301.37 230.14 300.969 231.643 300.166 232.968C299.363 234.293 298.262 235.339 296.862 236.104C295.462 236.869 293.857 237.252 292.046 237.252ZM292.354 233.024C293.063 233.024 293.689 232.847 294.23 232.492C294.771 232.119 295.191 231.615 295.49 230.98C295.807 230.345 295.966 229.599 295.966 228.74C295.966 227.9 295.714 227.2 295.21 226.64C294.725 226.08 294.025 225.8 293.11 225.8C292.401 225.8 291.775 225.977 291.234 226.332C290.693 226.687 290.263 227.191 289.946 227.844C289.647 228.479 289.498 229.225 289.498 230.084C289.498 230.98 289.75 231.699 290.254 232.24C290.758 232.763 291.458 233.024 292.354 233.024ZM302.323 237L305.375 221.824H310.667L308.987 229.888L316.911 221.824H321.923L318.871 237H313.551L315.259 228.908L307.335 237H302.323ZM313.803 220.34C311.974 220.34 310.676 219.957 309.911 219.192C309.164 218.427 308.931 217.279 309.211 215.748H312.627C312.496 216.401 312.562 216.896 312.823 217.232C313.103 217.568 313.542 217.736 314.139 217.736C314.736 217.736 315.203 217.577 315.539 217.26C315.894 216.924 316.146 216.42 316.295 215.748H319.795C319.496 217.335 318.862 218.501 317.891 219.248C316.92 219.976 315.558 220.34 313.803 220.34Z" fill="white"/>
<path d="M60.126 302.6H61.248L58.168 318H57.046L60.126 302.6ZM46.75 318H45.628L48.708 302.6H49.83L46.75 318ZM58.652 310.674H48.07L48.268 309.684H58.85L58.652 310.674ZM68.2498 318.088C67.2672 318.088 66.4018 317.897 65.6538 317.516C64.9058 317.135 64.3265 316.585 63.9158 315.866C63.5052 315.147 63.2998 314.297 63.2998 313.314C63.2998 312.317 63.4538 311.4 63.7618 310.564C64.0845 309.728 64.5392 309.002 65.1258 308.386C65.7125 307.77 66.4018 307.293 67.1938 306.956C67.9858 306.604 68.8512 306.428 69.7898 306.428C70.8018 306.428 71.6598 306.611 72.3638 306.978C73.0678 307.33 73.6032 307.851 73.9698 308.54C74.3512 309.215 74.5418 310.036 74.5418 311.004C74.5565 312.368 74.2998 313.585 73.7718 314.656C73.2585 315.727 72.5252 316.57 71.5718 317.186C70.6332 317.787 69.5258 318.088 68.2498 318.088ZM68.4698 317.098C69.5112 317.098 70.4352 316.849 71.2418 316.35C72.0485 315.851 72.6865 315.162 73.1558 314.282C73.6252 313.387 73.8598 312.383 73.8598 311.268C73.8598 310.036 73.5005 309.09 72.7818 308.43C72.0778 307.755 71.0805 307.418 69.7898 307.418C68.7632 307.418 67.8392 307.675 67.0178 308.188C66.2112 308.687 65.5732 309.376 65.1038 310.256C64.6345 311.136 64.3998 312.133 64.3998 313.248C64.3998 314.465 64.7518 315.411 65.4558 316.086C66.1745 316.761 67.1792 317.098 68.4698 317.098ZM72.6498 318L73.3538 314.414L73.9918 312.412L74.1458 310.3L74.8938 306.516H75.9938L73.7058 318H72.6498ZM86.4323 317.472L88.4343 307.506H82.4503L81.7243 310.41C81.519 311.217 81.299 312.023 81.0643 312.83C80.8443 313.622 80.5877 314.348 80.2943 315.008C80.0157 315.668 79.693 316.203 79.3263 316.614C78.9743 317.01 78.5637 317.237 78.0943 317.296L76.9503 317.032C77.4197 317.061 77.8377 316.893 78.2043 316.526C78.5857 316.145 78.923 315.631 79.2163 314.986C79.5243 314.326 79.7957 313.585 80.0303 312.764C80.2797 311.943 80.5143 311.107 80.7343 310.256L81.6583 306.516H89.7323L87.5323 317.472H86.4323ZM75.7403 320.86L76.5103 317.032H89.4683L88.7203 320.86H87.6643L88.2143 318H77.3463L76.7963 320.86H75.7403ZM97.7116 318.088C96.641 318.088 95.7096 317.897 94.9176 317.516C94.1256 317.12 93.517 316.563 93.0916 315.844C92.681 315.125 92.4756 314.267 92.4756 313.27C92.4756 311.965 92.747 310.799 93.2896 309.772C93.847 308.745 94.595 307.931 95.5336 307.33C96.487 306.729 97.5576 306.428 98.7456 306.428C99.7576 306.428 100.623 306.619 101.342 307C102.06 307.381 102.618 307.931 103.014 308.65C103.424 309.354 103.63 310.212 103.63 311.224C103.63 311.444 103.615 311.664 103.586 311.884C103.556 312.104 103.527 312.309 103.498 312.5H93.3116L93.4656 311.642H102.97L102.53 312.016C102.691 311.004 102.625 310.161 102.332 309.486C102.038 308.797 101.576 308.276 100.946 307.924C100.33 307.557 99.589 307.374 98.7236 307.374C97.7263 307.374 96.8316 307.631 96.0396 308.144C95.2623 308.643 94.6536 309.332 94.2136 310.212C93.7736 311.077 93.5536 312.082 93.5536 313.226C93.5536 314.473 93.913 315.433 94.6316 316.108C95.3503 316.768 96.4063 317.098 97.7996 317.098C98.621 317.098 99.369 316.966 100.044 316.702C100.733 316.423 101.298 316.042 101.738 315.558L102.244 316.328C101.745 316.871 101.092 317.303 100.286 317.626C99.4936 317.934 98.6356 318.088 97.7116 318.088ZM119.478 318L116.464 312.236L117.432 311.818L120.754 318H119.478ZM113.648 312.632L113.824 311.73H117.388L117.212 312.632H113.648ZM117.498 312.368L116.442 312.192L121.502 306.516H122.778L117.498 312.368ZM105.354 318H103.968L109.754 311.752L110.612 312.236L105.354 318ZM112.922 318H111.822L114.132 306.516H115.232L112.922 318ZM113.252 312.632H109.71L109.908 311.73H113.428L113.252 312.632ZM109.578 312.368L106.63 306.516H107.796L110.612 312.192L109.578 312.368ZM123.606 318L125.894 306.516H126.994L125.938 311.752H133.748L134.804 306.516H135.904L133.594 318H132.494L133.572 312.72H125.762L124.706 318H123.606ZM149.345 318L151.655 306.516H152.755L150.445 318H149.345ZM144.219 310.674C145.495 310.674 146.449 310.923 147.079 311.422C147.725 311.921 148.047 312.683 148.047 313.71C148.047 314.575 147.827 315.331 147.387 315.976C146.962 316.621 146.353 317.12 145.561 317.472C144.769 317.824 143.845 318 142.789 318H138.323L140.611 306.538H141.711L140.897 310.674H144.219ZM142.789 317.142C143.625 317.142 144.351 317.003 144.967 316.724C145.598 316.431 146.089 316.035 146.441 315.536C146.793 315.037 146.969 314.451 146.969 313.776C146.969 312.28 145.943 311.532 143.889 311.532H140.721L139.599 317.142H142.789ZM155.167 318L157.477 306.516H158.577L156.597 316.372L166.673 306.516H167.751L165.441 318H164.319L166.321 308.122L156.223 318H155.167ZM163.021 304.734C162.068 304.734 161.342 304.492 160.843 304.008C160.359 303.509 160.183 302.857 160.315 302.05H161.129C161.026 302.637 161.151 303.113 161.503 303.48C161.87 303.847 162.39 304.03 163.065 304.03C163.725 304.03 164.297 303.854 164.781 303.502C165.28 303.135 165.602 302.651 165.749 302.05H166.541C166.38 302.886 165.984 303.546 165.353 304.03C164.722 304.499 163.945 304.734 163.021 304.734ZM175.792 318L178.08 306.516H188.134L185.824 318H184.724L186.88 307.176L187.122 307.506H178.674L179.026 307.176L176.892 318H175.792ZM195.48 318.088C194.498 318.088 193.632 317.897 192.884 317.516C192.136 317.135 191.557 316.585 191.146 315.866C190.736 315.147 190.53 314.297 190.53 313.314C190.53 312.317 190.684 311.4 190.992 310.564C191.315 309.728 191.77 309.002 192.356 308.386C192.943 307.77 193.632 307.293 194.424 306.956C195.216 306.604 196.082 306.428 197.02 306.428C198.032 306.428 198.89 306.611 199.594 306.978C200.298 307.33 200.834 307.851 201.2 308.54C201.582 309.215 201.772 310.036 201.772 311.004C201.787 312.368 201.53 313.585 201.002 314.656C200.489 315.727 199.756 316.57 198.802 317.186C197.864 317.787 196.756 318.088 195.48 318.088ZM195.7 317.098C196.742 317.098 197.666 316.849 198.472 316.35C199.279 315.851 199.917 315.162 200.386 314.282C200.856 313.387 201.09 312.383 201.09 311.268C201.09 310.036 200.731 309.09 200.012 308.43C199.308 307.755 198.311 307.418 197.02 307.418C195.994 307.418 195.07 307.675 194.248 308.188C193.442 308.687 192.804 309.376 192.334 310.256C191.865 311.136 191.63 312.133 191.63 313.248C191.63 314.465 191.982 315.411 192.686 316.086C193.405 316.761 194.41 317.098 195.7 317.098ZM199.88 318L200.584 314.414L201.222 312.412L201.376 310.3L202.124 306.516H203.224L200.936 318H199.88ZM211.903 318.088C210.905 318.088 210.047 317.912 209.329 317.56C208.625 317.193 208.089 316.673 207.723 315.998C207.356 315.309 207.165 314.48 207.151 313.512C207.151 312.133 207.407 310.916 207.921 309.86C208.449 308.789 209.182 307.953 210.121 307.352C211.074 306.736 212.181 306.428 213.443 306.428C214.44 306.428 215.305 306.619 216.039 307C216.787 307.381 217.366 307.931 217.777 308.65C218.202 309.369 218.415 310.219 218.415 311.202C218.415 312.199 218.253 313.116 217.931 313.952C217.608 314.788 217.153 315.514 216.567 316.13C215.995 316.746 215.313 317.23 214.521 317.582C213.729 317.919 212.856 318.088 211.903 318.088ZM204.841 322.268L207.987 306.516H209.065L208.339 310.102L207.723 312.104L207.569 314.216L205.941 322.268H204.841ZM211.925 317.098C212.966 317.098 213.89 316.849 214.697 316.35C215.503 315.851 216.134 315.162 216.589 314.282C217.058 313.387 217.293 312.383 217.293 311.268C217.293 310.036 216.933 309.09 216.215 308.43C215.511 307.755 214.513 307.418 213.223 307.418C212.196 307.418 211.272 307.667 210.451 308.166C209.644 308.665 209.006 309.354 208.537 310.234C208.067 311.114 207.833 312.119 207.833 313.248C207.833 314.465 208.192 315.411 208.911 316.086C209.629 316.761 210.634 317.098 211.925 317.098ZM222.527 318L224.661 307.176L224.925 307.506H220.151L220.349 306.516H230.403L230.205 307.506H225.409L225.761 307.176L223.627 318H222.527ZM230.448 318L232.736 306.516H233.836L232.78 311.752H240.59L241.646 306.516H242.746L240.436 318H239.336L240.414 312.72H232.604L231.548 318H230.448ZM250.401 318.088C249.33 318.088 248.399 317.897 247.607 317.516C246.815 317.12 246.206 316.563 245.781 315.844C245.37 315.125 245.165 314.267 245.165 313.27C245.165 311.965 245.436 310.799 245.979 309.772C246.536 308.745 247.284 307.931 248.223 307.33C249.176 306.729 250.247 306.428 251.435 306.428C252.447 306.428 253.312 306.619 254.031 307C254.75 307.381 255.307 307.931 255.703 308.65C256.114 309.354 256.319 310.212 256.319 311.224C256.319 311.444 256.304 311.664 256.275 311.884C256.246 312.104 256.216 312.309 256.187 312.5H246.001L246.155 311.642H255.659L255.219 312.016C255.38 311.004 255.314 310.161 255.021 309.486C254.728 308.797 254.266 308.276 253.635 307.924C253.019 307.557 252.278 307.374 251.413 307.374C250.416 307.374 249.521 307.631 248.729 308.144C247.952 308.643 247.343 309.332 246.903 310.212C246.463 311.077 246.243 312.082 246.243 313.226C246.243 314.473 246.602 315.433 247.321 316.108C248.04 316.768 249.096 317.098 250.489 317.098C251.31 317.098 252.058 316.966 252.733 316.702C253.422 316.423 253.987 316.042 254.427 315.558L254.933 316.328C254.434 316.871 253.782 317.303 252.975 317.626C252.183 317.934 251.325 318.088 250.401 318.088ZM265.098 318.088C264.101 318.088 263.243 317.912 262.524 317.56C261.82 317.193 261.285 316.673 260.918 315.998C260.551 315.309 260.361 314.48 260.346 313.512C260.346 312.133 260.603 310.916 261.116 309.86C261.644 308.789 262.377 307.953 263.316 307.352C264.269 306.736 265.377 306.428 266.638 306.428C267.635 306.428 268.501 306.619 269.234 307C269.982 307.381 270.561 307.931 270.972 308.65C271.397 309.369 271.61 310.219 271.61 311.202C271.61 312.199 271.449 313.116 271.126 313.952C270.803 314.788 270.349 315.514 269.762 316.13C269.19 316.746 268.508 317.23 267.716 317.582C266.924 317.919 266.051 318.088 265.098 318.088ZM258.036 322.268L261.182 306.516H262.26L261.534 310.102L260.918 312.104L260.764 314.216L259.136 322.268H258.036ZM265.12 317.098C266.161 317.098 267.085 316.849 267.892 316.35C268.699 315.851 269.329 315.162 269.784 314.282C270.253 313.387 270.488 312.383 270.488 311.268C270.488 310.036 270.129 309.09 269.41 308.43C268.706 307.755 267.709 307.418 266.418 307.418C265.391 307.418 264.467 307.667 263.646 308.166C262.839 308.665 262.201 309.354 261.732 310.234C261.263 311.114 261.028 312.119 261.028 313.248C261.028 314.465 261.387 315.411 262.106 316.086C262.825 316.761 263.829 317.098 265.12 317.098ZM279.69 318L282 306.516H286.796C287.97 306.516 288.857 306.729 289.458 307.154C290.074 307.579 290.382 308.203 290.382 309.024C290.382 310.007 289.972 310.799 289.15 311.4C288.344 312.001 287.288 312.302 285.982 312.302L286.268 311.972C287.471 311.972 288.344 312.17 288.886 312.566C289.429 312.947 289.7 313.563 289.7 314.414C289.7 315.529 289.26 316.409 288.38 317.054C287.5 317.685 286.276 318 284.706 318H279.69ZM280.944 317.098H284.794C285.997 317.098 286.936 316.863 287.61 316.394C288.285 315.91 288.622 315.243 288.622 314.392C288.622 313.747 288.41 313.292 287.984 313.028C287.574 312.749 286.892 312.61 285.938 312.61H281.846L280.944 317.098ZM282.022 311.752H285.718C286.774 311.752 287.625 311.517 288.27 311.048C288.93 310.579 289.26 309.955 289.26 309.178C289.26 308.577 289.04 308.137 288.6 307.858C288.16 307.565 287.5 307.418 286.62 307.418H282.88L282.022 311.752ZM45.21 345L47.498 333.516H57.552L55.242 345H54.142L56.298 334.176L56.54 334.506H48.092L48.444 334.176L46.31 345H45.21ZM65.0303 345.088C64.0036 345.088 63.1089 344.897 62.3463 344.516C61.5836 344.12 60.9896 343.563 60.5643 342.844C60.1536 342.125 59.9483 341.282 59.9483 340.314C59.9483 338.994 60.2269 337.821 60.7843 336.794C61.3563 335.753 62.1336 334.931 63.1163 334.33C64.1136 333.729 65.2503 333.428 66.5263 333.428C67.5676 333.428 68.4623 333.626 69.2103 334.022C69.9729 334.403 70.5596 334.953 70.9703 335.672C71.3956 336.376 71.6083 337.219 71.6083 338.202C71.6083 339.522 71.3223 340.703 70.7503 341.744C70.1929 342.771 69.4156 343.585 68.4183 344.186C67.4356 344.787 66.3063 345.088 65.0303 345.088ZM65.1183 344.098C66.1596 344.098 67.0836 343.849 67.8903 343.35C68.6969 342.851 69.3349 342.162 69.8043 341.282C70.2736 340.387 70.5083 339.383 70.5083 338.268C70.5083 337.036 70.1489 336.09 69.4303 335.43C68.7263 334.755 67.7289 334.418 66.4383 334.418C65.4116 334.418 64.4876 334.675 63.6663 335.188C62.8596 335.687 62.2216 336.376 61.7523 337.256C61.2829 338.136 61.0483 339.133 61.0483 340.248C61.0483 341.465 61.4003 342.411 62.1043 343.086C62.8229 343.761 63.8276 344.098 65.1183 344.098ZM81.9636 344.472L83.9656 334.506H77.9816L77.2556 337.41C77.0502 338.217 76.8302 339.023 76.5956 339.83C76.3756 340.622 76.1189 341.348 75.8256 342.008C75.5469 342.668 75.2242 343.203 74.8576 343.614C74.5056 344.01 74.0949 344.237 73.6256 344.296L72.4816 344.032C72.9509 344.061 73.3689 343.893 73.7356 343.526C74.1169 343.145 74.4542 342.631 74.7476 341.986C75.0556 341.326 75.3269 340.585 75.5616 339.764C75.8109 338.943 76.0456 338.107 76.2656 337.256L77.1896 333.516H85.2636L83.0636 344.472H81.9636ZM71.2716 347.86L72.0416 344.032H84.9996L84.2516 347.86H83.1956L83.7456 345H72.8776L72.3276 347.86H71.2716ZM88.0069 345L90.2949 333.516H98.1709L97.9729 334.506H90.8889L91.2409 334.198L89.1069 345H88.0069ZM102.757 345.088C101.73 345.088 100.836 344.897 100.073 344.516C99.3102 344.12 98.7162 343.563 98.2908 342.844C97.8802 342.125 97.6748 341.282 97.6748 340.314C97.6748 338.994 97.9535 337.821 98.5108 336.794C99.0828 335.753 99.8602 334.931 100.843 334.33C101.84 333.729 102.977 333.428 104.253 333.428C105.294 333.428 106.189 333.626 106.937 334.022C107.7 334.403 108.286 334.953 108.697 335.672C109.122 336.376 109.335 337.219 109.335 338.202C109.335 339.522 109.049 340.703 108.477 341.744C107.92 342.771 107.142 343.585 106.145 344.186C105.162 344.787 104.033 345.088 102.757 345.088ZM102.845 344.098C103.886 344.098 104.81 343.849 105.617 343.35C106.424 342.851 107.062 342.162 107.531 341.282C108 340.387 108.235 339.383 108.235 338.268C108.235 337.036 107.876 336.09 107.157 335.43C106.453 334.755 105.456 334.418 104.165 334.418C103.138 334.418 102.214 334.675 101.393 335.188C100.586 335.687 99.9482 336.376 99.4788 337.256C99.0095 338.136 98.7748 339.133 98.7748 340.248C98.7748 341.465 99.1268 342.411 99.8308 343.086C100.55 343.761 101.554 344.098 102.845 344.098ZM113.429 345L115.563 334.176L115.827 334.506H111.053L111.251 333.516H121.305L121.107 334.506H116.311L116.663 334.176L114.529 345H113.429ZM125.896 345.088C124.869 345.088 123.974 344.897 123.212 344.516C122.449 344.12 121.855 343.563 121.43 342.844C121.019 342.125 120.814 341.282 120.814 340.314C120.814 338.994 121.092 337.821 121.65 336.794C122.222 335.753 122.999 334.931 123.982 334.33C124.979 333.729 126.116 333.428 127.392 333.428C128.433 333.428 129.328 333.626 130.076 334.022C130.838 334.403 131.425 334.953 131.836 335.672C132.261 336.376 132.474 337.219 132.474 338.202C132.474 339.522 132.188 340.703 131.616 341.744C131.058 342.771 130.281 343.585 129.284 344.186C128.301 344.787 127.172 345.088 125.896 345.088ZM125.984 344.098C127.025 344.098 127.949 343.849 128.756 343.35C129.562 342.851 130.2 342.162 130.67 341.282C131.139 340.387 131.374 339.383 131.374 338.268C131.374 337.036 131.014 336.09 130.296 335.43C129.592 334.755 128.594 334.418 127.304 334.418C126.277 334.418 125.353 334.675 124.532 335.188C123.725 335.687 123.087 336.376 122.618 337.256C122.148 338.136 121.914 339.133 121.914 340.248C121.914 341.465 122.266 342.411 122.97 343.086C123.688 343.761 124.693 344.098 125.984 344.098ZM134.886 345L137.196 333.516H141.992C143.165 333.516 144.052 333.729 144.654 334.154C145.27 334.579 145.578 335.203 145.578 336.024C145.578 337.007 145.167 337.799 144.346 338.4C143.539 339.001 142.483 339.302 141.178 339.302L141.464 338.972C142.666 338.972 143.539 339.17 144.082 339.566C144.624 339.947 144.896 340.563 144.896 341.414C144.896 342.529 144.456 343.409 143.576 344.054C142.696 344.685 141.471 345 139.902 345H134.886ZM136.14 344.098H139.99C141.192 344.098 142.131 343.863 142.806 343.394C143.48 342.91 143.818 342.243 143.818 341.392C143.818 340.747 143.605 340.292 143.18 340.028C142.769 339.749 142.087 339.61 141.134 339.61H137.042L136.14 344.098ZM137.218 338.752H140.914C141.97 338.752 142.82 338.517 143.466 338.048C144.126 337.579 144.456 336.955 144.456 336.178C144.456 335.577 144.236 335.137 143.796 334.858C143.356 334.565 142.696 334.418 141.816 334.418H138.076L137.218 338.752ZM156.612 345L152.85 339.236L153.774 338.818L157.866 345H156.612ZM148.12 345L150.43 333.516H151.53L149.22 345H148.12ZM149.946 339.676L150.122 338.73H153.73L153.554 339.676H149.946ZM153.796 339.368L152.718 339.192L158.592 333.516H159.89L153.796 339.368ZM165.409 345.088C164.338 345.088 163.407 344.897 162.615 344.516C161.823 344.12 161.214 343.563 160.789 342.844C160.378 342.125 160.173 341.267 160.173 340.27C160.173 338.965 160.444 337.799 160.987 336.772C161.544 335.745 162.292 334.931 163.231 334.33C164.184 333.729 165.255 333.428 166.443 333.428C167.455 333.428 168.32 333.619 169.039 334C169.758 334.381 170.315 334.931 170.711 335.65C171.122 336.354 171.327 337.212 171.327 338.224C171.327 338.444 171.312 338.664 171.283 338.884C171.254 339.104 171.224 339.309 171.195 339.5H161.009L161.163 338.642H170.667L170.227 339.016C170.388 338.004 170.322 337.161 170.029 336.486C169.736 335.797 169.274 335.276 168.643 334.924C168.027 334.557 167.286 334.374 166.421 334.374C165.424 334.374 164.529 334.631 163.737 335.144C162.96 335.643 162.351 336.332 161.911 337.212C161.471 338.077 161.251 339.082 161.251 340.226C161.251 341.473 161.61 342.433 162.329 343.108C163.048 343.768 164.104 344.098 165.497 344.098C166.318 344.098 167.066 343.966 167.741 343.702C168.43 343.423 168.995 343.042 169.435 342.558L169.941 343.328C169.442 343.871 168.79 344.303 167.983 344.626C167.191 344.934 166.333 345.088 165.409 345.088ZM188.022 345L184.26 339.236L185.184 338.818L189.276 345H188.022ZM179.53 345L181.84 333.516H182.94L180.63 345H179.53ZM181.356 339.676L181.532 338.73H185.14L184.964 339.676H181.356ZM185.206 339.368L184.128 339.192L190.002 333.516H191.3L185.206 339.368ZM205.232 345.11C203.721 345.11 202.438 344.846 201.382 344.318C200.34 343.79 199.548 343.049 199.006 342.096C198.463 341.143 198.192 340.035 198.192 338.774C198.192 337.527 198.404 336.347 198.83 335.232C199.255 334.117 199.864 333.127 200.656 332.262C201.462 331.397 202.43 330.722 203.56 330.238C204.704 329.739 205.987 329.49 207.41 329.49C208.92 329.49 210.204 329.754 211.26 330.282C212.316 330.81 213.115 331.551 213.658 332.504C214.2 333.457 214.472 334.565 214.472 335.826C214.472 337.073 214.259 338.253 213.834 339.368C213.408 340.483 212.792 341.473 211.986 342.338C211.179 343.203 210.204 343.885 209.06 344.384C207.93 344.868 206.654 345.11 205.232 345.11ZM205.342 344.076C206.559 344.076 207.659 343.863 208.642 343.438C209.624 342.998 210.46 342.404 211.15 341.656C211.854 340.893 212.389 340.021 212.756 339.038C213.137 338.041 213.328 336.985 213.328 335.87C213.328 334.799 213.1 333.868 212.646 333.076C212.191 332.269 211.516 331.646 210.622 331.206C209.742 330.751 208.642 330.524 207.322 330.524C206.104 330.524 205.004 330.744 204.022 331.184C203.039 331.609 202.196 332.203 201.492 332.966C200.802 333.714 200.267 334.587 199.886 335.584C199.504 336.567 199.314 337.615 199.314 338.73C199.314 339.786 199.541 340.717 199.996 341.524C200.45 342.331 201.125 342.961 202.02 343.416C202.914 343.856 204.022 344.076 205.342 344.076ZM217.03 345L220.11 329.6H225.478C227.179 329.6 228.499 329.974 229.438 330.722C230.376 331.455 230.846 332.497 230.846 333.846C230.846 335.166 230.56 336.281 229.988 337.19C229.416 338.099 228.594 338.789 227.524 339.258C226.468 339.727 225.214 339.962 223.762 339.962H218.658L219.274 339.434L218.152 345H217.03ZM219.252 339.5L218.856 338.95H223.762C225.654 338.95 227.113 338.532 228.14 337.696C229.181 336.845 229.702 335.591 229.702 333.934C229.702 332.863 229.328 332.042 228.58 331.47C227.846 330.898 226.79 330.612 225.412 330.612H220.55L221.144 330.04L219.252 339.5ZM234.889 345L237.837 330.26L238.101 330.612H232.227L232.447 329.6H244.635L244.437 330.612H238.541L238.959 330.26L236.011 345H234.889ZM243.446 345.088C243.211 345.088 242.998 345 242.808 344.824C242.632 344.648 242.544 344.435 242.544 344.186C242.544 343.907 242.639 343.68 242.83 343.504C243.035 343.313 243.262 343.218 243.512 343.218C243.761 343.218 243.974 343.306 244.15 343.482C244.326 343.643 244.414 343.856 244.414 344.12C244.414 344.311 244.37 344.479 244.282 344.626C244.194 344.773 244.076 344.89 243.93 344.978C243.783 345.051 243.622 345.088 243.446 345.088ZM253.633 343.812C254.087 343.988 254.557 344.083 255.041 344.098C255.525 344.098 256.009 343.973 256.493 343.724C256.991 343.475 257.475 343.057 257.945 342.47L258.935 341.238L259.111 341.062L267.493 329.6H268.681L258.957 342.8C258.37 343.607 257.739 344.193 257.065 344.56C256.39 344.927 255.723 345.11 255.062 345.11C254.403 345.11 253.779 344.978 253.193 344.714L253.633 343.812ZM258.913 342.14L254.777 329.6H255.987L259.705 341.15L258.913 342.14ZM275.559 344.472L277.561 334.506H271.577L270.851 337.41C270.646 338.217 270.426 339.023 270.191 339.83C269.971 340.622 269.715 341.348 269.421 342.008C269.143 342.668 268.82 343.203 268.453 343.614C268.101 344.01 267.691 344.237 267.221 344.296L266.077 344.032C266.547 344.061 266.965 343.893 267.331 343.526C267.713 343.145 268.05 342.631 268.343 341.986C268.651 341.326 268.923 340.585 269.157 339.764C269.407 338.943 269.641 338.107 269.861 337.256L270.785 333.516H278.859L276.659 344.472H275.559ZM264.867 347.86L265.637 344.032H278.595L277.847 347.86H276.791L277.341 345H266.473L265.923 347.86H264.867ZM286.685 345.088C285.658 345.088 284.763 344.897 284.001 344.516C283.238 344.12 282.644 343.563 282.219 342.844C281.808 342.125 281.603 341.282 281.603 340.314C281.603 338.994 281.881 337.821 282.439 336.794C283.011 335.753 283.788 334.931 284.771 334.33C285.768 333.729 286.905 333.428 288.181 333.428C289.222 333.428 290.117 333.626 290.865 334.022C291.627 334.403 292.214 334.953 292.625 335.672C293.05 336.376 293.263 337.219 293.263 338.202C293.263 339.522 292.977 340.703 292.405 341.744C291.847 342.771 291.07 343.585 290.073 344.186C289.09 344.787 287.961 345.088 286.685 345.088ZM286.773 344.098C287.814 344.098 288.738 343.849 289.545 343.35C290.351 342.851 290.989 342.162 291.459 341.282C291.928 340.387 292.163 339.383 292.163 338.268C292.163 337.036 291.803 336.09 291.085 335.43C290.381 334.755 289.383 334.418 288.093 334.418C287.066 334.418 286.142 334.675 285.321 335.188C284.514 335.687 283.876 336.376 283.407 337.256C282.937 338.136 282.703 339.133 282.703 340.248C282.703 341.465 283.055 342.411 283.759 343.086C284.477 343.761 285.482 344.098 286.773 344.098ZM301.241 345.11C299.642 345.11 298.388 344.626 297.479 343.658C296.57 342.69 296.115 341.311 296.115 339.522C296.115 338.305 296.291 337.146 296.643 336.046C297.01 334.931 297.53 333.919 298.205 333.01C298.88 332.086 299.679 331.316 300.603 330.7C301.527 330.069 302.539 329.637 303.639 329.402L308.897 328.28L308.941 329.248L303.881 330.348C302.693 330.597 301.63 331.096 300.691 331.844C299.767 332.577 299.004 333.494 298.403 334.594C297.802 335.679 297.406 336.889 297.215 338.224L296.863 338.092C297.523 336.757 298.403 335.738 299.503 335.034C300.603 334.33 301.835 333.978 303.199 333.978C304.651 333.978 305.788 334.381 306.609 335.188C307.445 335.995 307.863 337.117 307.863 338.554C307.863 339.801 307.57 340.923 306.983 341.92C306.411 342.903 305.626 343.68 304.629 344.252C303.632 344.824 302.502 345.11 301.241 345.11ZM301.329 344.186C302.341 344.186 303.25 343.944 304.057 343.46C304.864 342.976 305.502 342.323 305.971 341.502C306.455 340.666 306.697 339.727 306.697 338.686C306.697 337.513 306.36 336.603 305.685 335.958C305.025 335.298 304.101 334.968 302.913 334.968C302.18 334.968 301.468 335.107 300.779 335.386C300.104 335.65 299.496 336.017 298.953 336.486C298.41 336.941 297.978 337.469 297.655 338.07C297.347 338.671 297.193 339.302 297.193 339.962C297.193 341.253 297.567 342.279 298.315 343.042C299.063 343.805 300.068 344.186 301.329 344.186ZM310.263 345L312.551 333.516H313.651L312.595 338.752H320.405L321.461 333.516H322.561L320.251 345H319.151L320.229 339.72H312.419L311.363 345H310.263ZM336.002 345L338.312 333.516H339.412L337.102 345H336.002ZM330.876 337.674C332.152 337.674 333.105 337.923 333.736 338.422C334.381 338.921 334.704 339.683 334.704 340.71C334.704 341.575 334.484 342.331 334.044 342.976C333.618 343.621 333.01 344.12 332.218 344.472C331.426 344.824 330.502 345 329.446 345H324.98L327.268 333.538H328.368L327.554 337.674H330.876ZM329.446 344.142C330.282 344.142 331.008 344.003 331.624 343.724C332.254 343.431 332.746 343.035 333.098 342.536C333.45 342.037 333.626 341.451 333.626 340.776C333.626 339.28 332.599 338.532 330.546 338.532H327.378L326.256 344.142H329.446ZM341.823 345L344.133 333.516H345.233L343.253 343.372L353.329 333.516H354.407L352.097 345H350.975L352.977 335.122L342.879 345H341.823ZM349.677 331.734C348.724 331.734 347.998 331.492 347.499 331.008C347.015 330.509 346.839 329.857 346.971 329.05H347.785C347.683 329.637 347.807 330.113 348.159 330.48C348.526 330.847 349.047 331.03 349.721 331.03C350.381 331.03 350.953 330.854 351.437 330.502C351.936 330.135 352.259 329.651 352.405 329.05H353.197C353.036 329.886 352.64 330.546 352.009 331.03C351.379 331.499 350.601 331.734 349.677 331.734ZM53.196 371.472L55.198 361.506H49.214L48.488 364.41C48.2827 365.217 48.0627 366.023 47.828 366.83C47.608 367.622 47.3513 368.348 47.058 369.008C46.7793 369.668 46.4567 370.203 46.09 370.614C45.738 371.01 45.3273 371.237 44.858 371.296L43.714 371.032C44.1833 371.061 44.6013 370.893 44.968 370.526C45.3493 370.145 45.6867 369.631 45.98 368.986C46.288 368.326 46.5593 367.585 46.794 366.764C47.0433 365.943 47.278 365.107 47.498 364.256L48.422 360.516H56.496L54.296 371.472H53.196ZM42.504 374.86L43.274 371.032H56.232L55.484 374.86H54.428L54.978 372H44.11L43.56 374.86H42.504ZM64.3213 372.088C63.2946 372.088 62.4 371.897 61.6373 371.516C60.8746 371.12 60.2806 370.563 59.8553 369.844C59.4446 369.125 59.2393 368.282 59.2393 367.314C59.2393 365.994 59.518 364.821 60.0753 363.794C60.6473 362.753 61.4246 361.931 62.4073 361.33C63.4046 360.729 64.5413 360.428 65.8173 360.428C66.8586 360.428 67.7533 360.626 68.5013 361.022C69.264 361.403 69.8506 361.953 70.2613 362.672C70.6866 363.376 70.8993 364.219 70.8993 365.202C70.8993 366.522 70.6133 367.703 70.0413 368.744C69.484 369.771 68.7066 370.585 67.7093 371.186C66.7266 371.787 65.5973 372.088 64.3213 372.088ZM64.4093 371.098C65.4506 371.098 66.3746 370.849 67.1813 370.35C67.988 369.851 68.626 369.162 69.0953 368.282C69.5646 367.387 69.7993 366.383 69.7993 365.268C69.7993 364.036 69.44 363.09 68.7213 362.43C68.0173 361.755 67.02 361.418 65.7293 361.418C64.7026 361.418 63.7786 361.675 62.9573 362.188C62.1506 362.687 61.5126 363.376 61.0433 364.256C60.574 365.136 60.3393 366.133 60.3393 367.248C60.3393 368.465 60.6913 369.411 61.3953 370.086C62.114 370.761 63.1186 371.098 64.4093 371.098ZM78.4816 372.088C77.4256 372.088 76.5089 371.897 75.7316 371.516C74.9542 371.12 74.3529 370.563 73.9276 369.844C73.5169 369.125 73.3116 368.282 73.3116 367.314C73.3116 365.979 73.5902 364.799 74.1476 363.772C74.7196 362.731 75.5042 361.917 76.5016 361.33C77.4989 360.729 78.6356 360.428 79.9116 360.428C80.9382 360.428 81.8182 360.611 82.5516 360.978C83.2996 361.33 83.8716 361.865 84.2676 362.584L83.3656 363.134C83.0136 362.547 82.5442 362.115 81.9576 361.836C81.3709 361.557 80.6669 361.418 79.8456 361.418C78.7896 361.418 77.8509 361.675 77.0296 362.188C76.2229 362.687 75.5849 363.376 75.1156 364.256C74.6462 365.136 74.4116 366.133 74.4116 367.248C74.4116 368.465 74.7709 369.411 75.4896 370.086C76.2082 370.761 77.2349 371.098 78.5696 371.098C79.3322 371.098 80.0436 370.959 80.7036 370.68C81.3782 370.387 81.9356 369.969 82.3756 369.426L83.1456 370.042C82.6469 370.687 81.9796 371.193 81.1436 371.56C80.3222 371.912 79.4349 372.088 78.4816 372.088ZM87.6911 372L89.8251 361.176L90.0891 361.506H85.3151L85.5131 360.516H95.5671L95.3691 361.506H90.5731L90.9251 361.176L88.7911 372H87.6911ZM94.6663 376.356C94.153 376.356 93.6617 376.268 93.1923 376.092C92.723 375.916 92.349 375.667 92.0703 375.344L92.7083 374.53C92.9577 374.823 93.2583 375.036 93.6103 375.168C93.9477 375.315 94.3363 375.388 94.7763 375.388C95.2897 375.388 95.759 375.249 96.1843 374.97C96.6243 374.691 97.0937 374.171 97.5923 373.408L98.8023 371.582L98.9783 371.384L105.996 360.516H107.14L98.5603 373.694C98.1203 374.369 97.695 374.897 97.2843 375.278C96.8883 375.674 96.4777 375.953 96.0523 376.114C95.6417 376.275 95.1797 376.356 94.6663 376.356ZM98.6483 372.286L95.6563 360.516H96.7783L99.4843 371.318L98.6483 372.286ZM107.622 372L109.91 360.516H119.964L117.654 372H116.554L118.71 361.176L118.952 361.506H110.504L110.856 361.176L108.722 372H107.622ZM128.011 372L130.321 360.516H131.421L129.441 370.372L139.517 360.516H140.595L138.285 372H137.163L139.165 362.122L129.067 372H128.011ZM157.128 372L153.366 366.236L154.29 365.818L158.382 372H157.128ZM148.636 372L150.946 360.516H152.046L149.736 372H148.636ZM150.462 366.676L150.638 365.73H154.246L154.07 366.676H150.462ZM154.312 366.368L153.234 366.192L159.108 360.516H160.406L154.312 366.368ZM165.771 372.088C164.744 372.088 163.849 371.897 163.087 371.516C162.324 371.12 161.73 370.563 161.305 369.844C160.894 369.125 160.689 368.282 160.689 367.314C160.689 365.994 160.967 364.821 161.525 363.794C162.097 362.753 162.874 361.931 163.857 361.33C164.854 360.729 165.991 360.428 167.267 360.428C168.308 360.428 169.203 360.626 169.951 361.022C170.713 361.403 171.3 361.953 171.711 362.672C172.136 363.376 172.349 364.219 172.349 365.202C172.349 366.522 172.063 367.703 171.491 368.744C170.933 369.771 170.156 370.585 169.159 371.186C168.176 371.787 167.047 372.088 165.771 372.088ZM165.859 371.098C166.9 371.098 167.824 370.849 168.631 370.35C169.437 369.851 170.075 369.162 170.545 368.282C171.014 367.387 171.249 366.383 171.249 365.268C171.249 364.036 170.889 363.09 170.171 362.43C169.467 361.755 168.469 361.418 167.179 361.418C166.152 361.418 165.228 361.675 164.407 362.188C163.6 362.687 162.962 363.376 162.493 364.256C162.023 365.136 161.789 366.133 161.789 367.248C161.789 368.465 162.141 369.411 162.845 370.086C163.563 370.761 164.568 371.098 165.859 371.098ZM174.761 372L177.049 360.516H178.127L181.713 369.602H181.229L188.533 360.516H189.567L187.257 372H186.245L188.291 361.836L188.489 361.924L181.581 370.526H181.053L177.577 361.858L177.819 361.814L175.773 372H174.761ZM191.991 372L194.279 360.516H204.333L202.023 372H200.923L203.079 361.176L203.321 361.506H194.873L195.225 361.176L193.091 372H191.991ZM211.68 372.088C210.697 372.088 209.832 371.897 209.084 371.516C208.336 371.135 207.756 370.585 207.346 369.866C206.935 369.147 206.73 368.297 206.73 367.314C206.73 366.317 206.884 365.4 207.192 364.564C207.514 363.728 207.969 363.002 208.556 362.386C209.142 361.77 209.832 361.293 210.624 360.956C211.416 360.604 212.281 360.428 213.22 360.428C214.232 360.428 215.09 360.611 215.794 360.978C216.498 361.33 217.033 361.851 217.4 362.54C217.781 363.215 217.972 364.036 217.972 365.004C217.986 366.368 217.73 367.585 217.202 368.656C216.688 369.727 215.955 370.57 215.002 371.186C214.063 371.787 212.956 372.088 211.68 372.088ZM211.9 371.098C212.941 371.098 213.865 370.849 214.672 370.35C215.478 369.851 216.116 369.162 216.586 368.282C217.055 367.387 217.29 366.383 217.29 365.268C217.29 364.036 216.93 363.09 216.212 362.43C215.508 361.755 214.51 361.418 213.22 361.418C212.193 361.418 211.269 361.675 210.448 362.188C209.641 362.687 209.003 363.376 208.534 364.256C208.064 365.136 207.83 366.133 207.83 367.248C207.83 368.465 208.182 369.411 208.886 370.086C209.604 370.761 210.609 371.098 211.9 371.098ZM216.08 372L216.784 368.414L217.422 366.412L217.576 364.3L218.324 360.516H219.424L217.136 372H216.08ZM230.368 372L226.606 366.236L227.53 365.818L231.622 372H230.368ZM221.876 372L224.186 360.516H225.286L222.976 372H221.876ZM223.702 366.676L223.878 365.73H227.486L227.31 366.676H223.702ZM227.552 366.368L226.474 366.192L232.348 360.516H233.646L227.552 366.368ZM236.17 372L238.304 361.176L238.568 361.506H233.794L233.992 360.516H244.046L243.848 361.506H239.052L239.404 361.176L237.27 372H236.17ZM244.091 372L246.379 360.516H247.479L246.423 365.752H254.233L255.289 360.516H256.389L254.079 372H252.979L254.057 366.72H246.247L245.191 372H244.091ZM269.83 372L272.14 360.516H273.24L270.93 372H269.83ZM264.704 364.674C265.98 364.674 266.933 364.923 267.564 365.422C268.209 365.921 268.532 366.683 268.532 367.71C268.532 368.575 268.312 369.331 267.872 369.976C267.446 370.621 266.838 371.12 266.046 371.472C265.254 371.824 264.33 372 263.274 372H258.808L261.096 360.538H262.196L261.382 364.674H264.704ZM263.274 371.142C264.11 371.142 264.836 371.003 265.452 370.724C266.082 370.431 266.574 370.035 266.926 369.536C267.278 369.037 267.454 368.451 267.454 367.776C267.454 366.28 266.427 365.532 264.374 365.532H261.206L260.084 371.142H263.274ZM280.887 372.088C279.817 372.088 278.885 371.897 278.093 371.516C277.301 371.12 276.693 370.563 276.267 369.844C275.857 369.125 275.651 368.267 275.651 367.27C275.651 365.965 275.923 364.799 276.465 363.772C277.023 362.745 277.771 361.931 278.709 361.33C279.663 360.729 280.733 360.428 281.921 360.428C282.933 360.428 283.799 360.619 284.517 361C285.236 361.381 285.793 361.931 286.189 362.65C286.6 363.354 286.805 364.212 286.805 365.224C286.805 365.444 286.791 365.664 286.761 365.884C286.732 366.104 286.703 366.309 286.673 366.5H276.487L276.641 365.642H286.145L285.705 366.016C285.867 365.004 285.801 364.161 285.507 363.486C285.214 362.797 284.752 362.276 284.121 361.924C283.505 361.557 282.765 361.374 281.899 361.374C280.902 361.374 280.007 361.631 279.215 362.144C278.438 362.643 277.829 363.332 277.389 364.212C276.949 365.077 276.729 366.082 276.729 367.226C276.729 368.473 277.089 369.433 277.807 370.108C278.526 370.768 279.582 371.098 280.975 371.098C281.797 371.098 282.545 370.966 283.219 370.702C283.909 370.423 284.473 370.042 284.913 369.558L285.419 370.328C284.921 370.871 284.268 371.303 283.461 371.626C282.669 371.934 281.811 372.088 280.887 372.088ZM45.21 399L47.498 387.516H48.576L52.162 396.602H51.678L58.982 387.516H60.016L57.706 399H56.694L58.74 388.836L58.938 388.924L52.03 397.526H51.502L48.026 388.858L48.268 388.814L46.222 399H45.21ZM67.3905 399.088C66.4078 399.088 65.5425 398.897 64.7945 398.516C64.0465 398.135 63.4671 397.585 63.0565 396.866C62.6458 396.147 62.4405 395.297 62.4405 394.314C62.4405 393.317 62.5945 392.4 62.9025 391.564C63.2251 390.728 63.6798 390.002 64.2665 389.386C64.8531 388.77 65.5425 388.293 66.3345 387.956C67.1265 387.604 67.9918 387.428 68.9305 387.428C69.9425 387.428 70.8005 387.611 71.5045 387.978C72.2085 388.33 72.7438 388.851 73.1105 389.54C73.4918 390.215 73.6825 391.036 73.6825 392.004C73.6971 393.368 73.4405 394.585 72.9125 395.656C72.3991 396.727 71.6658 397.57 70.7125 398.186C69.7738 398.787 68.6665 399.088 67.3905 399.088ZM67.6105 398.098C68.6518 398.098 69.5758 397.849 70.3825 397.35C71.1891 396.851 71.8271 396.162 72.2965 395.282C72.7658 394.387 73.0005 393.383 73.0005 392.268C73.0005 391.036 72.6411 390.09 71.9225 389.43C71.2185 388.755 70.2211 388.418 68.9305 388.418C67.9038 388.418 66.9798 388.675 66.1585 389.188C65.3518 389.687 64.7138 390.376 64.2445 391.256C63.7751 392.136 63.5405 393.133 63.5405 394.248C63.5405 395.465 63.8925 396.411 64.5965 397.086C65.3151 397.761 66.3198 398.098 67.6105 398.098ZM71.7905 399L72.4945 395.414L73.1325 393.412L73.2865 391.3L74.0345 387.516H75.1345L72.8465 399H71.7905ZM79.699 399L81.833 388.176L82.097 388.506H77.323L77.521 387.516H87.575L87.377 388.506H82.581L82.933 388.176L80.799 399H79.699ZM92.319 399.088C91.2484 399.088 90.317 398.897 89.525 398.516C88.733 398.12 88.1244 397.563 87.699 396.844C87.2884 396.125 87.083 395.267 87.083 394.27C87.083 392.965 87.3544 391.799 87.897 390.772C88.4544 389.745 89.2024 388.931 90.141 388.33C91.0944 387.729 92.165 387.428 93.353 387.428C94.365 387.428 95.2304 387.619 95.949 388C96.6677 388.381 97.225 388.931 97.621 389.65C98.0317 390.354 98.237 391.212 98.237 392.224C98.237 392.444 98.2224 392.664 98.193 392.884C98.1637 393.104 98.1344 393.309 98.105 393.5H87.919L88.073 392.642H97.577L97.137 393.016C97.2984 392.004 97.2324 391.161 96.939 390.486C96.6457 389.797 96.1837 389.276 95.553 388.924C94.937 388.557 94.1964 388.374 93.331 388.374C92.3337 388.374 91.439 388.631 90.647 389.144C89.8697 389.643 89.261 390.332 88.821 391.212C88.381 392.077 88.161 393.082 88.161 394.226C88.161 395.473 88.5204 396.433 89.239 397.108C89.9577 397.768 91.0137 398.098 92.407 398.098C93.2284 398.098 93.9764 397.966 94.651 397.702C95.3404 397.423 95.905 397.042 96.345 396.558L96.851 397.328C96.3524 397.871 95.6997 398.303 94.893 398.626C94.101 398.934 93.243 399.088 92.319 399.088ZM107.016 399.088C106.019 399.088 105.161 398.912 104.442 398.56C103.738 398.193 103.203 397.673 102.836 396.998C102.469 396.309 102.279 395.48 102.264 394.512C102.264 393.133 102.521 391.916 103.034 390.86C103.562 389.789 104.295 388.953 105.234 388.352C106.187 387.736 107.295 387.428 108.556 387.428C109.553 387.428 110.419 387.619 111.152 388C111.9 388.381 112.479 388.931 112.89 389.65C113.315 390.369 113.528 391.219 113.528 392.202C113.528 393.199 113.367 394.116 113.044 394.952C112.721 395.788 112.267 396.514 111.68 397.13C111.108 397.746 110.426 398.23 109.634 398.582C108.842 398.919 107.969 399.088 107.016 399.088ZM99.9541 403.268L103.1 387.516H104.178L103.452 391.102L102.836 393.104L102.682 395.216L101.054 403.268H99.9541ZM107.038 398.098C108.079 398.098 109.003 397.849 109.81 397.35C110.617 396.851 111.247 396.162 111.702 395.282C112.171 394.387 112.406 393.383 112.406 392.268C112.406 391.036 112.047 390.09 111.328 389.43C110.624 388.755 109.627 388.418 108.336 388.418C107.309 388.418 106.385 388.667 105.564 389.166C104.757 389.665 104.119 390.354 103.65 391.234C103.181 392.114 102.946 393.119 102.946 394.248C102.946 395.465 103.305 396.411 104.024 397.086C104.743 397.761 105.747 398.098 107.038 398.098ZM115.958 399L118.268 387.516H119.368L117.388 397.372L127.464 387.516H128.542L126.232 399H125.11L127.112 389.122L117.014 399H115.958ZM135.883 399.088C134.9 399.088 134.035 398.897 133.287 398.516C132.539 398.135 131.959 397.585 131.549 396.866C131.138 396.147 130.933 395.297 130.933 394.314C130.933 393.317 131.087 392.4 131.395 391.564C131.717 390.728 132.172 390.002 132.759 389.386C133.345 388.77 134.035 388.293 134.827 387.956C135.619 387.604 136.484 387.428 137.423 387.428C138.435 387.428 139.293 387.611 139.997 387.978C140.701 388.33 141.236 388.851 141.603 389.54C141.984 390.215 142.175 391.036 142.175 392.004C142.189 393.368 141.933 394.585 141.405 395.656C140.891 396.727 140.158 397.57 139.205 398.186C138.266 398.787 137.159 399.088 135.883 399.088ZM136.103 398.098C137.144 398.098 138.068 397.849 138.875 397.35C139.681 396.851 140.319 396.162 140.789 395.282C141.258 394.387 141.493 393.383 141.493 392.268C141.493 391.036 141.133 390.09 140.415 389.43C139.711 388.755 138.713 388.418 137.423 388.418C136.396 388.418 135.472 388.675 134.651 389.188C133.844 389.687 133.206 390.376 132.737 391.256C132.267 392.136 132.033 393.133 132.033 394.248C132.033 395.465 132.385 396.411 133.089 397.086C133.807 397.761 134.812 398.098 136.103 398.098ZM140.283 399L140.987 395.414L141.625 393.412L141.779 391.3L142.527 387.516H143.627L141.339 399H140.283ZM143.857 398.956L144.121 398.01C144.238 398.025 144.341 398.047 144.429 398.076C144.517 398.091 144.59 398.098 144.649 398.098C145.177 398.098 145.646 397.863 146.057 397.394C146.468 396.91 146.856 396.177 147.223 395.194C147.59 394.211 147.964 392.957 148.345 391.432L149.335 387.516H157.409L155.099 399H153.999L156.155 388.132L156.419 388.484H149.841L150.193 388.132L149.335 391.586C149.012 392.891 148.69 394.021 148.367 394.974C148.044 395.913 147.7 396.69 147.333 397.306C146.981 397.922 146.6 398.377 146.189 398.67C145.793 398.963 145.338 399.11 144.825 399.11C144.664 399.11 144.51 399.095 144.363 399.066C144.216 399.051 144.048 399.015 143.857 398.956ZM170.83 399L173.14 387.516H174.24L171.93 399H170.83ZM165.704 391.674C166.98 391.674 167.933 391.923 168.564 392.422C169.209 392.921 169.532 393.683 169.532 394.71C169.532 395.575 169.312 396.331 168.872 396.976C168.446 397.621 167.838 398.12 167.046 398.472C166.254 398.824 165.33 399 164.274 399H159.808L162.096 387.538H163.196L162.382 391.674H165.704ZM164.274 398.142C165.11 398.142 165.836 398.003 166.452 397.724C167.082 397.431 167.574 397.035 167.926 396.536C168.278 396.037 168.454 395.451 168.454 394.776C168.454 393.28 167.427 392.532 165.374 392.532H162.206L161.084 398.142H164.274ZM187.384 399.088C186.357 399.088 185.462 398.897 184.7 398.516C183.937 398.12 183.343 397.563 182.918 396.844C182.507 396.125 182.302 395.282 182.302 394.314C182.302 392.994 182.58 391.821 183.138 390.794C183.71 389.753 184.487 388.931 185.47 388.33C186.467 387.729 187.604 387.428 188.88 387.428C189.921 387.428 190.816 387.626 191.564 388.022C192.326 388.403 192.913 388.953 193.324 389.672C193.749 390.376 193.962 391.219 193.962 392.202C193.962 393.522 193.676 394.703 193.104 395.744C192.546 396.771 191.769 397.585 190.772 398.186C189.789 398.787 188.66 399.088 187.384 399.088ZM187.472 398.098C188.513 398.098 189.437 397.849 190.244 397.35C191.05 396.851 191.688 396.162 192.158 395.282C192.627 394.387 192.862 393.383 192.862 392.268C192.862 391.036 192.502 390.09 191.784 389.43C191.08 388.755 190.082 388.418 188.792 388.418C187.765 388.418 186.841 388.675 186.02 389.188C185.213 389.687 184.575 390.376 184.106 391.256C183.636 392.136 183.402 393.133 183.402 394.248C183.402 395.465 183.754 396.411 184.458 397.086C185.176 397.761 186.181 398.098 187.472 398.098ZM201.94 399.11C200.341 399.11 199.087 398.626 198.178 397.658C197.269 396.69 196.814 395.311 196.814 393.522C196.814 392.305 196.99 391.146 197.342 390.046C197.709 388.931 198.229 387.919 198.904 387.01C199.579 386.086 200.378 385.316 201.302 384.7C202.226 384.069 203.238 383.637 204.338 383.402L209.596 382.28L209.64 383.248L204.58 384.348C203.392 384.597 202.329 385.096 201.39 385.844C200.466 386.577 199.703 387.494 199.102 388.594C198.501 389.679 198.105 390.889 197.914 392.224L197.562 392.092C198.222 390.757 199.102 389.738 200.202 389.034C201.302 388.33 202.534 387.978 203.898 387.978C205.35 387.978 206.487 388.381 207.308 389.188C208.144 389.995 208.562 391.117 208.562 392.554C208.562 393.801 208.269 394.923 207.682 395.92C207.11 396.903 206.325 397.68 205.328 398.252C204.331 398.824 203.201 399.11 201.94 399.11ZM202.028 398.186C203.04 398.186 203.949 397.944 204.756 397.46C205.563 396.976 206.201 396.323 206.67 395.502C207.154 394.666 207.396 393.727 207.396 392.686C207.396 391.513 207.059 390.603 206.384 389.958C205.724 389.298 204.8 388.968 203.612 388.968C202.879 388.968 202.167 389.107 201.478 389.386C200.803 389.65 200.195 390.017 199.652 390.486C199.109 390.941 198.677 391.469 198.354 392.07C198.046 392.671 197.892 393.302 197.892 393.962C197.892 395.253 198.266 396.279 199.014 397.042C199.762 397.805 200.767 398.186 202.028 398.186ZM216.198 399.088C215.127 399.088 214.196 398.897 213.404 398.516C212.612 398.12 212.003 397.563 211.578 396.844C211.167 396.125 210.962 395.267 210.962 394.27C210.962 392.965 211.233 391.799 211.776 390.772C212.333 389.745 213.081 388.931 214.02 388.33C214.973 387.729 216.044 387.428 217.232 387.428C218.244 387.428 219.109 387.619 219.828 388C220.547 388.381 221.104 388.931 221.5 389.65C221.911 390.354 222.116 391.212 222.116 392.224C222.116 392.444 222.101 392.664 222.072 392.884C222.043 393.104 222.013 393.309 221.984 393.5H211.798L211.952 392.642H221.456L221.016 393.016C221.177 392.004 221.111 391.161 220.818 390.486C220.525 389.797 220.063 389.276 219.432 388.924C218.816 388.557 218.075 388.374 217.21 388.374C216.213 388.374 215.318 388.631 214.526 389.144C213.749 389.643 213.14 390.332 212.7 391.212C212.26 392.077 212.04 393.082 212.04 394.226C212.04 395.473 212.399 396.433 213.118 397.108C213.837 397.768 214.893 398.098 216.286 398.098C217.107 398.098 217.855 397.966 218.53 397.702C219.219 397.423 219.784 397.042 220.224 396.558L220.73 397.328C220.231 397.871 219.579 398.303 218.772 398.626C217.98 398.934 217.122 399.088 216.198 399.088ZM229.839 399.088C228.783 399.088 227.866 398.897 227.089 398.516C226.312 398.12 225.71 397.563 225.285 396.844C224.874 396.125 224.669 395.282 224.669 394.314C224.669 392.979 224.948 391.799 225.505 390.772C226.077 389.731 226.862 388.917 227.859 388.33C228.856 387.729 229.993 387.428 231.269 387.428C232.296 387.428 233.176 387.611 233.909 387.978C234.657 388.33 235.229 388.865 235.625 389.584L234.723 390.134C234.371 389.547 233.902 389.115 233.315 388.836C232.728 388.557 232.024 388.418 231.203 388.418C230.147 388.418 229.208 388.675 228.387 389.188C227.58 389.687 226.942 390.376 226.473 391.256C226.004 392.136 225.769 393.133 225.769 394.248C225.769 395.465 226.128 396.411 226.847 397.086C227.566 397.761 228.592 398.098 229.927 398.098C230.69 398.098 231.401 397.959 232.061 397.68C232.736 397.387 233.293 396.969 233.733 396.426L234.503 397.042C234.004 397.687 233.337 398.193 232.501 398.56C231.68 398.912 230.792 399.088 229.839 399.088ZM237.194 399L239.482 387.516H249.536L247.226 399H246.126L248.282 388.176L248.524 388.506H240.076L240.428 388.176L238.294 399H237.194ZM257.169 399.088C256.098 399.088 255.167 398.897 254.375 398.516C253.583 398.12 252.974 397.563 252.549 396.844C252.138 396.125 251.933 395.267 251.933 394.27C251.933 392.965 252.204 391.799 252.747 390.772C253.304 389.745 254.052 388.931 254.991 388.33C255.944 387.729 257.015 387.428 258.203 387.428C259.215 387.428 260.08 387.619 260.799 388C261.517 388.381 262.075 388.931 262.471 389.65C262.881 390.354 263.087 391.212 263.087 392.224C263.087 392.444 263.072 392.664 263.043 392.884C263.013 393.104 262.984 393.309 262.955 393.5H252.769L252.923 392.642H262.427L261.987 393.016C262.148 392.004 262.082 391.161 261.789 390.486C261.495 389.797 261.033 389.276 260.403 388.924C259.787 388.557 259.046 388.374 258.181 388.374C257.183 388.374 256.289 388.631 255.497 389.144C254.719 389.643 254.111 390.332 253.671 391.212C253.231 392.077 253.011 393.082 253.011 394.226C253.011 395.473 253.37 396.433 254.089 397.108C254.807 397.768 255.863 398.098 257.257 398.098C258.078 398.098 258.826 397.966 259.501 397.702C260.19 397.423 260.755 397.042 261.195 396.558L261.701 397.328C261.202 397.871 260.549 398.303 259.743 398.626C258.951 398.934 258.093 399.088 257.169 399.088ZM273.934 394.028C273.156 394.351 272.394 394.593 271.646 394.754C270.898 394.915 270.201 394.996 269.556 394.996C268.236 394.996 267.231 394.688 266.542 394.072C265.867 393.441 265.654 392.517 265.904 391.3L266.652 387.516H267.752L267.004 391.322C266.828 392.246 266.989 392.935 267.488 393.39C268.001 393.845 268.756 394.072 269.754 394.072C270.384 394.072 271.059 393.991 271.778 393.83C272.511 393.654 273.266 393.405 274.044 393.082L273.934 394.028ZM272.79 399L275.1 387.516H276.2L273.89 399H272.79ZM278.595 399L280.905 387.516H282.005L280.025 397.372L290.101 387.516H291.179L288.869 399H287.747L289.749 389.122L279.651 399H278.595ZM293.569 399L295.879 387.516H300.675C301.849 387.516 302.736 387.729 303.337 388.154C303.953 388.579 304.261 389.203 304.261 390.024C304.261 391.007 303.851 391.799 303.029 392.4C302.223 393.001 301.167 393.302 299.861 393.302L300.147 392.972C301.35 392.972 302.223 393.17 302.765 393.566C303.308 393.947 303.579 394.563 303.579 395.414C303.579 396.529 303.139 397.409 302.259 398.054C301.379 398.685 300.155 399 298.585 399H293.569ZM294.823 398.098H298.673C299.876 398.098 300.815 397.863 301.489 397.394C302.164 396.91 302.501 396.243 302.501 395.392C302.501 394.747 302.289 394.292 301.863 394.028C301.453 393.749 300.771 393.61 299.817 393.61H295.725L294.823 398.098ZM295.901 392.752H299.597C300.653 392.752 301.504 392.517 302.149 392.048C302.809 391.579 303.139 390.955 303.139 390.178C303.139 389.577 302.919 389.137 302.479 388.858C302.039 388.565 301.379 388.418 300.499 388.418H296.759L295.901 392.752ZM311.754 399.088C310.771 399.088 309.906 398.897 309.158 398.516C308.41 398.135 307.83 397.585 307.42 396.866C307.009 396.147 306.804 395.297 306.804 394.314C306.804 393.317 306.958 392.4 307.266 391.564C307.588 390.728 308.043 390.002 308.63 389.386C309.216 388.77 309.906 388.293 310.698 387.956C311.49 387.604 312.355 387.428 313.294 387.428C314.306 387.428 315.164 387.611 315.868 387.978C316.572 388.33 317.107 388.851 317.474 389.54C317.855 390.215 318.046 391.036 318.046 392.004C318.06 393.368 317.804 394.585 317.276 395.656C316.762 396.727 316.029 397.57 315.076 398.186C314.137 398.787 313.03 399.088 311.754 399.088ZM311.974 398.098C313.015 398.098 313.939 397.849 314.746 397.35C315.552 396.851 316.19 396.162 316.66 395.282C317.129 394.387 317.364 393.383 317.364 392.268C317.364 391.036 317.004 390.09 316.286 389.43C315.582 388.755 314.584 388.418 313.294 388.418C312.267 388.418 311.343 388.675 310.522 389.188C309.715 389.687 309.077 390.376 308.608 391.256C308.138 392.136 307.904 393.133 307.904 394.248C307.904 395.465 308.256 396.411 308.96 397.086C309.678 397.761 310.683 398.098 311.974 398.098ZM316.154 399L316.858 395.414L317.496 393.412L317.65 391.3L318.398 387.516H319.498L317.21 399H316.154ZM321.972 399L324.26 387.516H325.36L324.326 392.664H327.868L327.67 393.676H324.15L323.072 399H321.972ZM332.026 399.088C331.014 399.088 330.127 398.897 329.364 398.516C328.616 398.12 328.037 397.563 327.626 396.844C327.216 396.125 327.01 395.289 327.01 394.336C327.01 393.016 327.289 391.835 327.846 390.794C328.418 389.753 329.188 388.931 330.156 388.33C331.139 387.729 332.261 387.428 333.522 387.428C334.549 387.428 335.436 387.626 336.184 388.022C336.932 388.403 337.512 388.953 337.922 389.672C338.333 390.376 338.538 391.212 338.538 392.18C338.538 393.5 338.26 394.681 337.702 395.722C337.145 396.763 336.375 397.585 335.392 398.186C334.41 398.787 333.288 399.088 332.026 399.088ZM332.136 398.098C333.148 398.098 334.05 397.849 334.842 397.35C335.649 396.851 336.28 396.162 336.734 395.282C337.204 394.387 337.438 393.375 337.438 392.246C337.438 391.029 337.086 390.09 336.382 389.43C335.693 388.755 334.71 388.418 333.434 388.418C332.422 388.418 331.513 388.675 330.706 389.188C329.9 389.687 329.269 390.376 328.814 391.256C328.36 392.136 328.132 393.141 328.132 394.27C328.132 395.487 328.484 396.433 329.188 397.108C329.892 397.768 330.875 398.098 332.136 398.098ZM342.646 399L344.78 388.176L345.044 388.506H340.27L340.468 387.516H350.522L350.324 388.506H345.528L345.88 388.176L343.746 399H342.646ZM47.718 420.588L47.894 419.73H54.736L54.56 420.588H47.718ZM50.27 414.428C51.3113 414.428 52.2207 414.626 52.998 415.022C53.7753 415.418 54.3767 415.975 54.802 416.694C55.242 417.413 55.462 418.263 55.462 419.246C55.462 420.185 55.264 421.065 54.868 421.886C54.4867 422.707 53.9587 423.433 53.284 424.064C52.6093 424.695 51.832 425.193 50.952 425.56C50.072 425.927 49.1333 426.11 48.136 426.11C47.256 426.11 46.4493 425.963 45.716 425.67C44.9827 425.362 44.4107 424.951 44 424.438L44.704 423.844C45.0707 424.269 45.5547 424.599 46.156 424.834C46.772 425.069 47.432 425.186 48.136 425.186C48.9867 425.186 49.786 425.032 50.534 424.724C51.282 424.401 51.942 423.969 52.514 423.426C53.086 422.869 53.5333 422.238 53.856 421.534C54.1933 420.83 54.362 420.082 54.362 419.29C54.362 418.073 53.9807 417.112 53.218 416.408C52.47 415.689 51.4433 415.33 50.138 415.33C49.4047 415.33 48.6933 415.455 48.004 415.704C47.3293 415.939 46.7133 416.283 46.156 416.738L45.606 416.078C46.1633 415.565 46.86 415.161 47.696 414.868C48.532 414.575 49.39 414.428 50.27 414.428ZM63.6969 426.088C61.7022 426.073 60.1842 425.67 59.1429 424.878C58.1162 424.086 57.6029 422.898 57.6029 421.314C57.6029 419.95 57.9549 418.755 58.6589 417.728C59.3775 416.701 60.3675 415.895 61.6289 415.308C62.8902 414.721 64.3495 414.428 66.0069 414.428H66.2049C68.2142 414.443 69.7322 414.846 70.7589 415.638C71.8002 416.43 72.3209 417.625 72.3209 419.224C72.3209 420.573 71.9689 421.769 71.2649 422.81C70.5609 423.837 69.5855 424.643 68.3389 425.23C67.0922 425.802 65.6402 426.088 63.9829 426.088H63.6969ZM63.8729 425.142H64.0049C65.4422 425.142 66.7035 424.9 67.7889 424.416C68.8742 423.917 69.7249 423.228 70.3409 422.348C70.9569 421.468 71.2649 420.456 71.2649 419.312C71.2649 418.007 70.8322 417.031 69.9669 416.386C69.1015 415.726 67.7962 415.396 66.0509 415.396H65.8969C64.4742 415.396 63.2129 415.645 62.1129 416.144C61.0275 416.643 60.1769 417.325 59.5609 418.19C58.9595 419.055 58.6589 420.06 58.6589 421.204C58.6589 422.553 59.1062 423.543 60.0009 424.174C60.8955 424.79 62.1862 425.113 63.8729 425.142ZM62.4649 430.268L66.5789 409.676H67.5909L63.4769 430.268H62.4649ZM80.5406 426.088C78.546 426.073 77.028 425.67 75.9866 424.878C74.96 424.086 74.4466 422.898 74.4466 421.314C74.4466 419.95 74.7986 418.755 75.5026 417.728C76.2213 416.701 77.2113 415.895 78.4726 415.308C79.734 414.721 81.1933 414.428 82.8506 414.428H83.0486C85.058 414.443 86.576 414.846 87.6026 415.638C88.644 416.43 89.1646 417.625 89.1646 419.224C89.1646 420.573 88.8126 421.769 88.1086 422.81C87.4046 423.837 86.4293 424.643 85.1826 425.23C83.936 425.802 82.484 426.088 80.8266 426.088H80.5406ZM80.7166 425.142H80.8486C82.286 425.142 83.5473 424.9 84.6326 424.416C85.718 423.917 86.5686 423.228 87.1846 422.348C87.8006 421.468 88.1086 420.456 88.1086 419.312C88.1086 418.007 87.676 417.031 86.8106 416.386C85.9453 415.726 84.64 415.396 82.8946 415.396H82.7406C81.318 415.396 80.0566 415.645 78.9566 416.144C77.8713 416.643 77.0206 417.325 76.4046 418.19C75.8033 419.055 75.5026 420.06 75.5026 421.204C75.5026 422.553 75.95 423.543 76.8446 424.174C77.7393 424.79 79.03 425.113 80.7166 425.142ZM79.3086 430.268L83.4226 409.676H84.4346L80.3206 430.268H79.3086ZM96.6804 426.088C95.6097 426.088 94.6784 425.897 93.8864 425.516C93.0944 425.12 92.4857 424.563 92.0604 423.844C91.6497 423.125 91.4444 422.267 91.4444 421.27C91.4444 419.965 91.7157 418.799 92.2584 417.772C92.8157 416.745 93.5637 415.931 94.5024 415.33C95.4557 414.729 96.5264 414.428 97.7144 414.428C98.7264 414.428 99.5917 414.619 100.31 415C101.029 415.381 101.586 415.931 101.982 416.65C102.393 417.354 102.598 418.212 102.598 419.224C102.598 419.444 102.584 419.664 102.554 419.884C102.525 420.104 102.496 420.309 102.466 420.5H92.2804L92.4344 419.642H101.938L101.498 420.016C101.66 419.004 101.594 418.161 101.3 417.486C101.007 416.797 100.545 416.276 99.9144 415.924C99.2984 415.557 98.5577 415.374 97.6924 415.374C96.695 415.374 95.8004 415.631 95.0084 416.144C94.231 416.643 93.6224 417.332 93.1824 418.212C92.7424 419.077 92.5224 420.082 92.5224 421.226C92.5224 422.473 92.8817 423.433 93.6004 424.108C94.319 424.768 95.375 425.098 96.7684 425.098C97.5897 425.098 98.3377 424.966 99.0124 424.702C99.7017 424.423 100.266 424.042 100.706 423.558L101.212 424.328C100.714 424.871 100.061 425.303 99.2544 425.626C98.4624 425.934 97.6044 426.088 96.6804 426.088ZM113.643 426L109.881 420.236L110.805 419.818L114.897 426H113.643ZM105.151 426L107.461 414.516H108.561L106.251 426H105.151ZM106.977 420.676L107.153 419.73H110.761L110.585 420.676H106.977ZM110.827 420.368L109.749 420.192L115.623 414.516H116.921L110.827 420.368ZM119.445 426L121.579 415.176L121.843 415.506H117.069L117.267 414.516H127.321L127.123 415.506H122.327L122.679 415.176L120.545 426H119.445ZM127.366 426L129.676 414.516H130.776L128.796 424.372L138.872 414.516H139.95L137.64 426H136.518L138.52 416.122L128.422 426H127.366ZM142.341 426L144.651 414.516H149.447C150.62 414.516 151.508 414.729 152.109 415.154C152.725 415.579 153.033 416.203 153.033 417.024C153.033 418.007 152.622 418.799 151.801 419.4C150.994 420.001 149.938 420.302 148.633 420.302L148.919 419.972C150.122 419.972 150.994 420.17 151.537 420.566C152.08 420.947 152.351 421.563 152.351 422.414C152.351 423.529 151.911 424.409 151.031 425.054C150.151 425.685 148.926 426 147.357 426H142.341ZM143.595 425.098H147.445C148.648 425.098 149.586 424.863 150.261 424.394C150.936 423.91 151.273 423.243 151.273 422.392C151.273 421.747 151.06 421.292 150.635 421.028C150.224 420.749 149.542 420.61 148.589 420.61H144.497L143.595 425.098ZM144.673 419.752H148.369C149.425 419.752 150.276 419.517 150.921 419.048C151.581 418.579 151.911 417.955 151.911 417.178C151.911 416.577 151.691 416.137 151.251 415.858C150.811 415.565 150.151 415.418 149.271 415.418H145.531L144.673 419.752ZM155.575 426L157.863 414.516H158.963L157.907 419.752H165.717L166.773 414.516H167.873L165.563 426H164.463L165.541 420.72H157.731L156.675 426H155.575ZM175.374 426.088C174.347 426.088 173.453 425.897 172.69 425.516C171.927 425.12 171.333 424.563 170.908 423.844C170.497 423.125 170.292 422.282 170.292 421.314C170.292 419.994 170.571 418.821 171.128 417.794C171.7 416.753 172.477 415.931 173.46 415.33C174.457 414.729 175.594 414.428 176.87 414.428C177.911 414.428 178.806 414.626 179.554 415.022C180.317 415.403 180.903 415.953 181.314 416.672C181.739 417.376 181.952 418.219 181.952 419.202C181.952 420.522 181.666 421.703 181.094 422.744C180.537 423.771 179.759 424.585 178.762 425.186C177.779 425.787 176.65 426.088 175.374 426.088ZM175.462 425.098C176.503 425.098 177.427 424.849 178.234 424.35C179.041 423.851 179.679 423.162 180.148 422.282C180.617 421.387 180.852 420.383 180.852 419.268C180.852 418.036 180.493 417.09 179.774 416.43C179.07 415.755 178.073 415.418 176.782 415.418C175.755 415.418 174.831 415.675 174.01 416.188C173.203 416.687 172.565 417.376 172.096 418.256C171.627 419.136 171.392 420.133 171.392 421.248C171.392 422.465 171.744 423.411 172.448 424.086C173.167 424.761 174.171 425.098 175.462 425.098ZM189.6 426.088C188.53 426.088 187.598 425.897 186.806 425.516C186.014 425.12 185.406 424.563 184.98 423.844C184.57 423.125 184.364 422.267 184.364 421.27C184.364 419.965 184.636 418.799 185.178 417.772C185.736 416.745 186.484 415.931 187.422 415.33C188.376 414.729 189.446 414.428 190.634 414.428C191.646 414.428 192.512 414.619 193.23 415C193.949 415.381 194.506 415.931 194.902 416.65C195.313 417.354 195.518 418.212 195.518 419.224C195.518 419.444 195.504 419.664 195.474 419.884C195.445 420.104 195.416 420.309 195.386 420.5H185.2L185.354 419.642H194.858L194.418 420.016C194.58 419.004 194.514 418.161 194.22 417.486C193.927 416.797 193.465 416.276 192.834 415.924C192.218 415.557 191.478 415.374 190.612 415.374C189.615 415.374 188.72 415.631 187.928 416.144C187.151 416.643 186.542 417.332 186.102 418.212C185.662 419.077 185.442 420.082 185.442 421.226C185.442 422.473 185.802 423.433 186.52 424.108C187.239 424.768 188.295 425.098 189.688 425.098C190.51 425.098 191.258 424.966 191.932 424.702C192.622 424.423 193.186 424.042 193.626 423.558L194.132 424.328C193.634 424.871 192.981 425.303 192.174 425.626C191.382 425.934 190.524 426.088 189.6 426.088ZM208.804 426.088C207.777 426.088 206.882 425.897 206.12 425.516C205.357 425.12 204.763 424.563 204.338 423.844C203.927 423.125 203.722 422.282 203.722 421.314C203.722 419.994 204 418.821 204.558 417.794C205.13 416.753 205.907 415.931 206.89 415.33C207.887 414.729 209.024 414.428 210.3 414.428C211.341 414.428 212.236 414.626 212.984 415.022C213.746 415.403 214.333 415.953 214.744 416.672C215.169 417.376 215.382 418.219 215.382 419.202C215.382 420.522 215.096 421.703 214.524 422.744C213.966 423.771 213.189 424.585 212.192 425.186C211.209 425.787 210.08 426.088 208.804 426.088ZM208.892 425.098C209.933 425.098 210.857 424.849 211.664 424.35C212.47 423.851 213.108 423.162 213.578 422.282C214.047 421.387 214.282 420.383 214.282 419.268C214.282 418.036 213.922 417.09 213.204 416.43C212.5 415.755 211.502 415.418 210.212 415.418C209.185 415.418 208.261 415.675 207.44 416.188C206.633 416.687 205.995 417.376 205.526 418.256C205.056 419.136 204.822 420.133 204.822 421.248C204.822 422.465 205.174 423.411 205.878 424.086C206.596 424.761 207.601 425.098 208.892 425.098ZM223.36 426.11C221.761 426.11 220.507 425.626 219.598 424.658C218.689 423.69 218.234 422.311 218.234 420.522C218.234 419.305 218.41 418.146 218.762 417.046C219.129 415.931 219.649 414.919 220.324 414.01C220.999 413.086 221.798 412.316 222.722 411.7C223.646 411.069 224.658 410.637 225.758 410.402L231.016 409.28L231.06 410.248L226 411.348C224.812 411.597 223.749 412.096 222.81 412.844C221.886 413.577 221.123 414.494 220.522 415.594C219.921 416.679 219.525 417.889 219.334 419.224L218.982 419.092C219.642 417.757 220.522 416.738 221.622 416.034C222.722 415.33 223.954 414.978 225.318 414.978C226.77 414.978 227.907 415.381 228.728 416.188C229.564 416.995 229.982 418.117 229.982 419.554C229.982 420.801 229.689 421.923 229.102 422.92C228.53 423.903 227.745 424.68 226.748 425.252C225.751 425.824 224.621 426.11 223.36 426.11ZM223.448 425.186C224.46 425.186 225.369 424.944 226.176 424.46C226.983 423.976 227.621 423.323 228.09 422.502C228.574 421.666 228.816 420.727 228.816 419.686C228.816 418.513 228.479 417.603 227.804 416.958C227.144 416.298 226.22 415.968 225.032 415.968C224.299 415.968 223.587 416.107 222.898 416.386C222.223 416.65 221.615 417.017 221.072 417.486C220.529 417.941 220.097 418.469 219.774 419.07C219.466 419.671 219.312 420.302 219.312 420.962C219.312 422.253 219.686 423.279 220.434 424.042C221.182 424.805 222.187 425.186 223.448 425.186ZM231.114 430.356C230.6 430.356 230.109 430.268 229.64 430.092C229.17 429.916 228.796 429.667 228.518 429.344L229.156 428.53C229.405 428.823 229.706 429.036 230.058 429.168C230.395 429.315 230.784 429.388 231.224 429.388C231.737 429.388 232.206 429.249 232.632 428.97C233.072 428.691 233.541 428.171 234.04 427.408L235.25 425.582L235.426 425.384L242.444 414.516H243.588L235.008 427.694C234.568 428.369 234.142 428.897 233.732 429.278C233.336 429.674 232.925 429.953 232.5 430.114C232.089 430.275 231.627 430.356 231.114 430.356ZM235.096 426.286L232.104 414.516H233.226L235.932 425.318L235.096 426.286ZM252.363 421.028C251.586 421.351 250.823 421.593 250.075 421.754C249.327 421.915 248.631 421.996 247.985 421.996C246.665 421.996 245.661 421.688 244.971 421.072C244.297 420.441 244.084 419.517 244.333 418.3L245.081 414.516H246.181L245.433 418.322C245.257 419.246 245.419 419.935 245.917 420.39C246.431 420.845 247.186 421.072 248.183 421.072C248.814 421.072 249.489 420.991 250.207 420.83C250.941 420.654 251.696 420.405 252.473 420.082L252.363 421.028ZM251.219 426L253.529 414.516H254.629L252.319 426H251.219ZM262.26 426.088C261.19 426.088 260.258 425.897 259.466 425.516C258.674 425.12 258.066 424.563 257.64 423.844C257.23 423.125 257.024 422.267 257.024 421.27C257.024 419.965 257.296 418.799 257.838 417.772C258.396 416.745 259.144 415.931 260.082 415.33C261.036 414.729 262.106 414.428 263.294 414.428C264.306 414.428 265.172 414.619 265.89 415C266.609 415.381 267.166 415.931 267.562 416.65C267.973 417.354 268.178 418.212 268.178 419.224C268.178 419.444 268.164 419.664 268.134 419.884C268.105 420.104 268.076 420.309 268.046 420.5H257.86L258.014 419.642H267.518L267.078 420.016C267.24 419.004 267.174 418.161 266.88 417.486C266.587 416.797 266.125 416.276 265.494 415.924C264.878 415.557 264.138 415.374 263.272 415.374C262.275 415.374 261.38 415.631 260.588 416.144C259.811 416.643 259.202 417.332 258.762 418.212C258.322 419.077 258.102 420.082 258.102 421.226C258.102 422.473 258.462 423.433 259.18 424.108C259.899 424.768 260.955 425.098 262.348 425.098C263.17 425.098 263.918 424.966 264.592 424.702C265.282 424.423 265.846 424.042 266.286 423.558L266.792 424.328C266.294 424.871 265.641 425.303 264.834 425.626C264.042 425.934 263.184 426.088 262.26 426.088ZM270.731 426L273.019 414.516H274.119L273.063 419.752H280.873L281.929 414.516H283.029L280.719 426H279.619L280.697 420.72H272.887L271.831 426H270.731ZM285.448 426L287.758 414.516H288.858L286.878 424.372L296.954 414.516H298.032L295.722 426H294.6L296.602 416.122L286.504 426H285.448ZM305.659 426.088C304.588 426.088 303.657 425.897 302.865 425.516C302.073 425.12 301.464 424.563 301.039 423.844C300.628 423.125 300.423 422.267 300.423 421.27C300.423 419.965 300.694 418.799 301.237 417.772C301.794 416.745 302.542 415.931 303.481 415.33C304.434 414.729 305.505 414.428 306.693 414.428C307.705 414.428 308.57 414.619 309.289 415C310.008 415.381 310.565 415.931 310.961 416.65C311.372 417.354 311.577 418.212 311.577 419.224C311.577 419.444 311.562 419.664 311.533 419.884C311.504 420.104 311.474 420.309 311.445 420.5H301.259L301.413 419.642H310.917L310.477 420.016C310.638 419.004 310.572 418.161 310.279 417.486C309.986 416.797 309.524 416.276 308.893 415.924C308.277 415.557 307.536 415.374 306.671 415.374C305.674 415.374 304.779 415.631 303.987 416.144C303.21 416.643 302.601 417.332 302.161 418.212C301.721 419.077 301.501 420.082 301.501 421.226C301.501 422.473 301.86 423.433 302.579 424.108C303.298 424.768 304.354 425.098 305.747 425.098C306.568 425.098 307.316 424.966 307.991 424.702C308.68 424.423 309.245 424.042 309.685 423.558L310.191 424.328C309.692 424.871 309.04 425.303 308.233 425.626C307.441 425.934 306.583 426.088 305.659 426.088ZM319.78 426L322.09 414.516H326.886C328.06 414.516 328.947 414.729 329.548 415.154C330.164 415.579 330.472 416.203 330.472 417.024C330.472 418.007 330.062 418.799 329.24 419.4C328.434 420.001 327.378 420.302 326.072 420.302L326.358 419.972C327.561 419.972 328.434 420.17 328.976 420.566C329.519 420.947 329.79 421.563 329.79 422.414C329.79 423.529 329.35 424.409 328.47 425.054C327.59 425.685 326.366 426 324.796 426H319.78ZM321.034 425.098H324.884C326.087 425.098 327.026 424.863 327.7 424.394C328.375 423.91 328.712 423.243 328.712 422.392C328.712 421.747 328.5 421.292 328.074 421.028C327.664 420.749 326.982 420.61 326.028 420.61H321.936L321.034 425.098ZM322.112 419.752H325.808C326.864 419.752 327.715 419.517 328.36 419.048C329.02 418.579 329.35 417.955 329.35 417.178C329.35 416.577 329.13 416.137 328.69 415.858C328.25 415.565 327.59 415.418 326.71 415.418H322.97L322.112 419.752ZM42.988 452.956L43.252 452.01C43.3693 452.025 43.472 452.047 43.56 452.076C43.648 452.091 43.7213 452.098 43.78 452.098C44.308 452.098 44.7773 451.863 45.188 451.394C45.5987 450.91 45.9873 450.177 46.354 449.194C46.7207 448.211 47.0947 446.957 47.476 445.432L48.466 441.516H56.54L54.23 453H53.13L55.286 442.132L55.55 442.484H48.972L49.324 442.132L48.466 445.586C48.1433 446.891 47.8207 448.021 47.498 448.974C47.1753 449.913 46.8307 450.69 46.464 451.306C46.112 451.922 45.7307 452.377 45.32 452.67C44.924 452.963 44.4693 453.11 43.956 453.11C43.7947 453.11 43.6407 453.095 43.494 453.066C43.3473 453.051 43.1787 453.015 42.988 452.956ZM58.9605 453L61.2485 441.516H62.3485L61.3145 446.664H64.8565L64.6585 447.676H61.1385L60.0605 453H58.9605ZM69.0145 453.088C68.0025 453.088 67.1152 452.897 66.3525 452.516C65.6045 452.12 65.0252 451.563 64.6145 450.844C64.2038 450.125 63.9985 449.289 63.9985 448.336C63.9985 447.016 64.2772 445.835 64.8345 444.794C65.4065 443.753 66.1765 442.931 67.1445 442.33C68.1272 441.729 69.2492 441.428 70.5105 441.428C71.5372 441.428 72.4245 441.626 73.1725 442.022C73.9205 442.403 74.4998 442.953 74.9105 443.672C75.3212 444.376 75.5265 445.212 75.5265 446.18C75.5265 447.5 75.2478 448.681 74.6905 449.722C74.1332 450.763 73.3632 451.585 72.3805 452.186C71.3978 452.787 70.2758 453.088 69.0145 453.088ZM69.1245 452.098C70.1365 452.098 71.0385 451.849 71.8305 451.35C72.6372 450.851 73.2678 450.162 73.7225 449.282C74.1919 448.387 74.4265 447.375 74.4265 446.246C74.4265 445.029 74.0745 444.09 73.3705 443.43C72.6812 442.755 71.6985 442.418 70.4225 442.418C69.4105 442.418 68.5012 442.675 67.6945 443.188C66.8878 443.687 66.2572 444.376 65.8025 445.256C65.3478 446.136 65.1205 447.141 65.1205 448.27C65.1205 449.487 65.4725 450.433 66.1765 451.108C66.8805 451.768 67.8632 452.098 69.1245 452.098ZM83.5182 453.11C81.9195 453.11 80.6655 452.626 79.7562 451.658C78.8469 450.69 78.3922 449.311 78.3922 447.522C78.3922 446.305 78.5682 445.146 78.9202 444.046C79.2869 442.931 79.8075 441.919 80.4822 441.01C81.1569 440.086 81.9562 439.316 82.8802 438.7C83.8042 438.069 84.8162 437.637 85.9162 437.402L91.1742 436.28L91.2182 437.248L86.1582 438.348C84.9702 438.597 83.9069 439.096 82.9682 439.844C82.0442 440.577 81.2815 441.494 80.6802 442.594C80.0789 443.679 79.6829 444.889 79.4922 446.224L79.1402 446.092C79.8002 444.757 80.6802 443.738 81.7802 443.034C82.8802 442.33 84.1122 441.978 85.4762 441.978C86.9282 441.978 88.0649 442.381 88.8862 443.188C89.7222 443.995 90.1402 445.117 90.1402 446.554C90.1402 447.801 89.8469 448.923 89.2602 449.92C88.6882 450.903 87.9035 451.68 86.9062 452.252C85.9089 452.824 84.7795 453.11 83.5182 453.11ZM83.6062 452.186C84.6182 452.186 85.5275 451.944 86.3342 451.46C87.1409 450.976 87.7789 450.323 88.2482 449.502C88.7322 448.666 88.9742 447.727 88.9742 446.686C88.9742 445.513 88.6369 444.603 87.9622 443.958C87.3022 443.298 86.3782 442.968 85.1902 442.968C84.4569 442.968 83.7455 443.107 83.0562 443.386C82.3815 443.65 81.7729 444.017 81.2302 444.486C80.6875 444.941 80.2549 445.469 79.9322 446.07C79.6242 446.671 79.4702 447.302 79.4702 447.962C79.4702 449.253 79.8442 450.279 80.5922 451.042C81.3402 451.805 82.3449 452.186 83.6062 452.186ZM97.6221 453.088C96.5954 453.088 95.7007 452.897 94.9381 452.516C94.1754 452.12 93.5814 451.563 93.1561 450.844C92.7454 450.125 92.5401 449.282 92.5401 448.314C92.5401 446.994 92.8187 445.821 93.3761 444.794C93.9481 443.753 94.7254 442.931 95.7081 442.33C96.7054 441.729 97.8421 441.428 99.1181 441.428C100.159 441.428 101.054 441.626 101.802 442.022C102.565 442.403 103.151 442.953 103.562 443.672C103.987 444.376 104.2 445.219 104.2 446.202C104.2 447.522 103.914 448.703 103.342 449.744C102.785 450.771 102.007 451.585 101.01 452.186C100.027 452.787 98.8981 453.088 97.6221 453.088ZM97.7101 452.098C98.7514 452.098 99.6754 451.849 100.482 451.35C101.289 450.851 101.927 450.162 102.396 449.282C102.865 448.387 103.1 447.383 103.1 446.268C103.1 445.036 102.741 444.09 102.022 443.43C101.318 442.755 100.321 442.418 99.0301 442.418C98.0034 442.418 97.0794 442.675 96.2581 443.188C95.4514 443.687 94.8134 444.376 94.3441 445.256C93.8747 446.136 93.6401 447.133 93.6401 448.248C93.6401 449.465 93.9921 450.411 94.6961 451.086C95.4147 451.761 96.4194 452.098 97.7101 452.098ZM106.612 453L108.9 441.516H109.978L113.564 450.602H113.08L120.384 441.516H121.418L119.108 453H118.096L120.142 442.836L120.34 442.924L113.432 451.526H112.904L109.428 442.858L109.67 442.814L107.624 453H106.612ZM129.493 453L131.781 441.516H132.859L136.445 450.602H135.961L143.265 441.516H144.299L141.989 453H140.977L143.023 442.836L143.221 442.924L136.313 451.526H135.785L132.309 442.858L132.551 442.814L130.505 453H129.493ZM151.96 453.088C150.889 453.088 149.958 452.897 149.166 452.516C148.374 452.12 147.765 451.563 147.34 450.844C146.929 450.125 146.724 449.267 146.724 448.27C146.724 446.965 146.995 445.799 147.538 444.772C148.095 443.745 148.843 442.931 149.782 442.33C150.735 441.729 151.806 441.428 152.994 441.428C154.006 441.428 154.871 441.619 155.59 442C156.308 442.381 156.866 442.931 157.262 443.65C157.672 444.354 157.878 445.212 157.878 446.224C157.878 446.444 157.863 446.664 157.834 446.884C157.804 447.104 157.775 447.309 157.746 447.5H147.56L147.714 446.642H157.218L156.778 447.016C156.939 446.004 156.873 445.161 156.58 444.486C156.286 443.797 155.824 443.276 155.194 442.924C154.578 442.557 153.837 442.374 152.972 442.374C151.974 442.374 151.08 442.631 150.288 443.144C149.51 443.643 148.902 444.332 148.462 445.212C148.022 446.077 147.802 447.082 147.802 448.226C147.802 449.473 148.161 450.433 148.88 451.108C149.598 451.768 150.654 452.098 152.048 452.098C152.869 452.098 153.617 451.966 154.292 451.702C154.981 451.423 155.546 451.042 155.986 450.558L156.492 451.328C155.993 451.871 155.34 452.303 154.534 452.626C153.742 452.934 152.884 453.088 151.96 453.088ZM165.601 453.088C164.545 453.088 163.628 452.897 162.851 452.516C162.073 452.12 161.472 451.563 161.047 450.844C160.636 450.125 160.431 449.282 160.431 448.314C160.431 446.979 160.709 445.799 161.267 444.772C161.839 443.731 162.623 442.917 163.621 442.33C164.618 441.729 165.755 441.428 167.031 441.428C168.057 441.428 168.937 441.611 169.671 441.978C170.419 442.33 170.991 442.865 171.387 443.584L170.485 444.134C170.133 443.547 169.663 443.115 169.077 442.836C168.49 442.557 167.786 442.418 166.965 442.418C165.909 442.418 164.97 442.675 164.149 443.188C163.342 443.687 162.704 444.376 162.235 445.256C161.765 446.136 161.531 447.133 161.531 448.248C161.531 449.465 161.89 450.411 162.609 451.086C163.327 451.761 164.354 452.098 165.689 452.098C166.451 452.098 167.163 451.959 167.823 451.68C168.497 451.387 169.055 450.969 169.495 450.426L170.265 451.042C169.766 451.687 169.099 452.193 168.263 452.56C167.441 452.912 166.554 453.088 165.601 453.088ZM174.81 453L176.944 442.176L177.208 442.506H172.434L172.632 441.516H182.686L182.488 442.506H177.692L178.044 442.176L175.91 453H174.81ZM187.43 453.088C186.36 453.088 185.428 452.897 184.636 452.516C183.844 452.12 183.236 451.563 182.81 450.844C182.4 450.125 182.194 449.267 182.194 448.27C182.194 446.965 182.466 445.799 183.008 444.772C183.566 443.745 184.314 442.931 185.252 442.33C186.206 441.729 187.276 441.428 188.464 441.428C189.476 441.428 190.342 441.619 191.06 442C191.779 442.381 192.336 442.931 192.732 443.65C193.143 444.354 193.348 445.212 193.348 446.224C193.348 446.444 193.334 446.664 193.304 446.884C193.275 447.104 193.246 447.309 193.216 447.5H183.03L183.184 446.642H192.688L192.248 447.016C192.41 446.004 192.344 445.161 192.05 444.486C191.757 443.797 191.295 443.276 190.664 442.924C190.048 442.557 189.308 442.374 188.442 442.374C187.445 442.374 186.55 442.631 185.758 443.144C184.981 443.643 184.372 444.332 183.932 445.212C183.492 446.077 183.272 447.082 183.272 448.226C183.272 449.473 183.632 450.433 184.35 451.108C185.069 451.768 186.125 452.098 187.518 452.098C188.34 452.098 189.088 451.966 189.762 451.702C190.452 451.423 191.016 451.042 191.456 450.558L191.962 451.328C191.464 451.871 190.811 452.303 190.004 452.626C189.212 452.934 188.354 453.088 187.43 453.088ZM195.879 453.088C195.645 453.088 195.432 453 195.241 452.824C195.065 452.648 194.977 452.435 194.977 452.186C194.977 451.907 195.073 451.68 195.263 451.504C195.469 451.313 195.696 451.218 195.945 451.218C196.195 451.218 196.407 451.306 196.583 451.482C196.759 451.643 196.847 451.856 196.847 452.12C196.847 452.311 196.803 452.479 196.715 452.626C196.627 452.773 196.51 452.89 196.363 452.978C196.217 453.051 196.055 453.088 195.879 453.088Z" fill="#E5DADA"/>
<path d="M234.354 272.354C234.549 272.158 234.549 271.842 234.354 271.646L231.172 268.464C230.976 268.269 230.66 268.269 230.464 268.464C230.269 268.66 230.269 268.976 230.464 269.172L233.293 272L230.464 274.828C230.269 275.024 230.269 275.34 230.464 275.536C230.66 275.731 230.976 275.731 231.172 275.536L234.354 272.354ZM44 272.5H234V271.5H44V272.5Z" fill="#012D30"/>
<path d="M82.575 45.475C79.975 46.425 78.075 48.15 76.8 50.75L76.125 52.125L76.05 65.675C76.025 73.15 75.925 79.25 75.85 79.25C75.775 79.25 75.425 79.025 75.075 78.75C73.7 77.675 71.775 77.175 68.5 77.05C65.575 76.95 65.325 76.975 64.7 77.5L64 78.025V88.125V98.2L62.1 106.9C60.375 114.8 60.2 115.95 60.075 119.125C59.9 123.875 60.225 125.5 63.225 134.975L65.7 142.825L60.85 152.55C55.725 162.8 55.475 163.475 56.5 164.5C57 165 58.275 165.175 59.125 164.85C59.725 164.6 70 143.95 70 142.975C70 142.525 68.875 138.625 67.525 134.275C66.15 129.925 64.9 125.925 64.75 125.375C64.6 124.825 64.4 122.85 64.325 121L64.2 117.625L66.1 108.775L68 99.925V90.55V81.175L69.45 81.325C73.3 81.65 75.275 84.25 75.75 89.6C75.875 91 75.975 96.425 76 101.675V111.225L78.225 113.1C81.225 115.65 83.175 117.825 85.375 121.125C88.9 126.375 90.825 131.7 91.625 138.5C91.85 140.3 92.475 141 93.875 141C96 141 96.3 139.45 95.25 133.925C93.525 124.9 88.575 116.2 82.05 110.65L79.975 108.9L80.05 81.375C80.125 55.5 80.15 53.825 80.575 52.875C81.15 51.625 82.325 50.375 83.625 49.675L84.625 49.125H103.75C119.3 49.125 123.05 49.2 123.85 49.475C125.175 49.925 126.725 51.4 127.35 52.75C127.85 53.825 127.875 54.3 127.95 66.55L128.025 79.2L126.175 81.05C123.8 83.425 123.175 84.925 123.3 87.875C123.425 90.65 124.4 92.55 126.55 94.125L127.225 94.625L125.475 96.625C123.075 99.375 122.25 101.1 122.25 103.425C122.25 106.525 123.55 109.025 125.9 110.4L127 111.05L126.425 111.725C126.125 112.1 125.225 113.2 124.425 114.125C122.525 116.425 121.925 118.025 122.05 120.5C122.15 121.875 122.35 122.725 122.825 123.65C123.625 125.225 125.7 127.15 127.05 127.55L128.075 127.85L127.925 130.05C127.75 132.55 127.225 134 125.975 135.175C124.175 136.875 124.325 136.85 111.925 137C101.2 137.125 100.7 137.15 100.35 137.6C99.825 138.35 99.9 139.9 100.5 140.5C101 141 101.225 141.025 112.95 140.95L124.875 140.875L126.375 140.15C128.3 139.2 130.2 137.3 131.125 135.375C131.775 134.05 131.875 133.525 132 130.95L132.125 128.025L133.75 127.2C135.05 126.525 135.8 125.9 137.575 123.875C140.175 120.9 141 119.35 141.175 117.175C141.425 114.175 140.1 111.425 137.7 109.875C137.05 109.45 136.525 109.075 136.525 109C136.525 108.925 137.4 107.8 138.525 106.5C140.9 103.675 141.675 101.75 141.4 99.3C141.125 96.9 139.775 94.525 138.1 93.475L137.25 92.95L138.15 91.875C140.675 88.775 140.625 84.15 138 81.175C136.85 79.875 135.45 79.125 133.425 78.725L132 78.425V70.375V62.3L133.875 60.15C134.925 58.975 136.1 57.825 136.5 57.625C138.75 56.45 141.65 58.15 141.925 60.775C142.075 62.225 141.725 62.775 138.475 66.575C137 68.275 135.675 69.9 135.525 70.225C134.85 71.475 136.025 73.25 137.525 73.25C138.4 73.25 138.875 72.825 142.125 69C145.7 64.825 146.1 64.025 146.125 61.125C146.125 58.35 145.6 57.05 143.775 55.275C140.925 52.5 136.325 52.225 133.2 54.6L132.075 55.475L131.95 53.75C131.7 50.525 129.5 47.4 126.375 45.85L124.875 45.125L104.375 45.075C84.875 45.025 83.8 45.025 82.575 45.475ZM133.975 83.425C135.925 84.875 136.275 86.925 134.95 88.9C133.825 90.55 133.025 91.075 131.45 91.175C129.9 91.3 128.8 90.75 128 89.45C127.45 88.525 127.35 86.775 127.775 85.925C128.375 84.8 129.625 83.425 130.35 83.1C131.35 82.65 133.125 82.8 133.975 83.425ZM135.2 96.75C136.775 97.7 137.55 99.775 136.925 101.275C136.425 102.5 133.125 106.275 132.075 106.85C128.55 108.75 124.85 104.55 127.225 101.35C128.65 99.4 130.8 97.125 131.575 96.675C132.625 96.1 134.175 96.125 135.2 96.75ZM135.325 113.4C136.125 113.975 137 115.65 137 116.6C137 117.6 136.4 118.625 134.45 120.875C132.45 123.2 131.575 123.75 129.975 123.75C127.25 123.75 125.425 120.825 126.65 118.425C127.4 117 130.675 113.45 131.75 112.95C132.425 112.6 134.625 112.875 135.325 113.4Z" fill="#0D2A2D"/>
<path d="M96.5 53.5C96.175 53.825 96 54.325 96 55C96 55.675 96.175 56.175 96.5 56.5C96.975 56.975 97.325 57 104 57C110.675 57 111.025 56.975 111.5 56.5C111.825 56.175 112 55.675 112 55C112 54.325 111.825 53.825 111.5 53.5C111.025 53.025 110.675 53 104 53C97.325 53 96.975 53.025 96.5 53.5Z" fill="#0D2A2D"/>
<path d="M99.3 69.5C93.425 71.075 88.725 75.6 86.7 81.625C86.2 83.125 86.125 83.875 86.125 87C86.125 90.125 86.2 90.875 86.7 92.375C88.3 97.15 91.4 100.825 95.775 103.125C100.15 105.425 106.425 105.675 111.075 103.7C117.325 101.075 121.875 94.7 122.05 88.325C122.075 87.075 122.025 86.85 121.375 86.325C120.8 85.825 120.475 85.725 119.775 85.85C118.625 86.025 118.075 86.725 117.875 88.2C117.225 92.95 114.625 96.925 110.75 99.075C101.6 104.125 90.25 97.45 90.25 87C90.25 79.45 96.425 73.225 103.95 73.225C106.15 73.225 108.4 73.675 109.75 74.375C110.75 74.9 111.55 74.85 112.35 74.225C112.875 73.825 113 73.5 113 72.65C113 71.25 112.425 70.725 109.875 69.85C108.15 69.25 107.425 69.15 104.5 69.075C101.775 69.025 100.775 69.1 99.3 69.5Z" fill="#0D2A2D"/>
<path d="M110.625 82.25L104.15 88.75L101.6 86.25C99.25 83.925 99 83.75 98.075 83.75C96.775 83.75 96 84.525 96 85.875C96 86.775 96.225 87.05 99.2 90.05C102.625 93.55 103.425 94.125 104.475 93.875C105.225 93.7 119.65 79.475 120.025 78.525C120.325 77.775 119.9 76.35 119.25 76C119 75.85 118.4 75.75 117.95 75.75C117.2 75.75 116.525 76.35 110.625 82.25Z" fill="#0D2A2D"/>
<path d="M118.725 145.3C118.5 145.475 117.8 146.375 117.175 147.3C114.65 150.9 111.825 152.3 106.2 152.75C104.6 152.875 103.075 153.075 102.825 153.2C102.575 153.35 101.525 155.15 100.5 157.225L98.65 161H89.825C81.325 161 80.975 161.025 80.5 161.5C80.175 161.825 80 162.325 80 163C80 163.675 80.175 164.175 80.5 164.5C81 165 81.325 165 106 165C130.675 165 131 165 131.5 164.5C131.825 164.175 132 163.675 132 163C132 162.325 131.825 161.825 131.5 161.5C131 161 130.675 161 117.25 161C109.7 161 103.5 160.95 103.5 160.875C103.5 160.825 103.925 159.925 104.425 158.875L105.35 157H106.75C108.875 157 112.55 156.125 114.55 155.175C117.925 153.55 122 149.05 122 146.95C122 145.7 121.325 145 120.05 145C119.525 145 118.925 145.15 118.725 145.3Z" fill="#0D2A2D"/>
<path d="M136.5 161.5C136.175 161.825 136 162.325 136 163C136 164.425 136.65 165 138.225 165C139.275 165 139.55 164.9 139.975 164.35C140.275 163.975 140.5 163.375 140.5 163C140.5 162.625 140.275 162.025 139.975 161.65C139.55 161.1 139.275 161 138.225 161C137.325 161 136.875 161.125 136.5 161.5Z" fill="#0D2A2D"/>
</svg>
