<svg width="96" height="63" viewBox="0 0 96 63" fill="none" xmlns="http://www.w3.org/2000/svg">
<path d="M17.071 31.344C14.0897 31.344 11.5383 30.8137 9.417 29.753C7.29567 28.6923 5.676 27.216 4.558 25.324C3.46867 23.4033 2.924 21.1817 2.924 18.659C2.924 16.165 3.354 13.8287 4.214 11.65C5.074 9.44267 6.30667 7.50767 7.912 5.845C9.51733 4.18233 11.438 2.89233 13.674 1.975C15.91 1.029 18.4183 0.556 21.199 0.556C24.209 0.556 26.7747 1.08633 28.896 2.147C31.0173 3.20767 32.6227 4.69833 33.712 6.619C34.83 8.511 35.389 10.7183 35.389 13.241C35.389 15.735 34.959 18.0857 34.099 20.293C33.239 22.4717 32.0063 24.3923 30.401 26.055C28.7957 27.7177 26.8607 29.022 24.596 29.968C22.36 30.8853 19.8517 31.344 17.071 31.344ZM17.458 27.517C19.522 27.517 21.3997 27.1587 23.091 26.442C24.7823 25.6967 26.2157 24.679 27.391 23.389C28.5663 22.0703 29.4693 20.5653 30.1 18.874C30.7307 17.1827 31.046 15.391 31.046 13.499C31.046 11.693 30.659 10.1163 29.885 8.769C29.111 7.393 27.9643 6.318 26.445 5.544C24.9257 4.77 23.0623 4.383 20.855 4.383C18.7623 4.383 16.8703 4.75567 15.179 5.501C13.5163 6.21767 12.083 7.23533 10.879 8.554C9.70367 9.844 8.80067 11.3347 8.17 13.026C7.53933 14.7173 7.224 16.509 7.224 18.401C7.224 20.207 7.611 21.798 8.385 23.174C9.18767 24.5213 10.3343 25.582 11.825 26.356C13.3443 27.13 15.222 27.517 17.458 27.517ZM39.0642 31L45.0842 0.899998H56.2642C59.7902 0.899998 62.5135 1.674 64.4342 3.222C66.3548 4.77 67.3152 6.93433 67.3152 9.715C67.3152 12.2663 66.7418 14.4593 65.5952 16.294C64.4772 18.1 62.8575 19.4903 60.7362 20.465C58.6148 21.411 56.1065 21.884 53.2112 21.884H43.3212L45.6002 19.82L43.3642 31H39.0642ZM45.5142 20.293L44.0092 18.143H53.2972C56.3645 18.143 58.7438 17.4693 60.4352 16.122C62.1552 14.746 63.0152 12.7393 63.0152 10.102C63.0152 8.296 62.3988 6.93433 61.1662 6.017C59.9335 5.09967 58.1705 4.641 55.8772 4.641H46.8042L49.0832 2.448L45.5142 20.293ZM74.9466 31L80.3646 3.523L81.2246 4.641H69.9586L70.6896 0.899998H95.5007L94.7696 4.641H83.3316L84.6216 3.523L79.2036 31H74.9466Z" fill="#0F3F42"/>
<path d="M0.88 58L3.212 46.34H5.368L8.646 54.964H7.766L14.652 46.34H16.632L14.322 58H12.408L14.256 48.716L14.586 48.914L8.338 56.68H7.414L4.268 48.76L4.664 48.672L2.816 58H0.88ZM23.6693 58.132C22.6866 58.132 21.8066 57.934 21.0293 57.538C20.2519 57.1273 19.6359 56.548 19.1813 55.8C18.7413 55.052 18.5213 54.15 18.5213 53.094C18.5213 52.0967 18.6826 51.18 19.0053 50.344C19.3426 49.508 19.8046 48.782 20.3913 48.166C20.9926 47.55 21.6966 47.0733 22.5033 46.736C23.3099 46.3987 24.1826 46.23 25.1213 46.23C26.1333 46.23 26.9913 46.406 27.6953 46.758C28.3993 47.11 28.9419 47.6307 29.3233 48.32C29.7046 48.9947 29.8953 49.8233 29.8953 50.806C29.8953 52.2433 29.6459 53.5193 29.1472 54.634C28.6486 55.734 27.9299 56.592 26.9913 57.208C26.0673 57.824 24.9599 58.132 23.6693 58.132ZM24.1313 56.284C25.0113 56.284 25.7959 56.0713 26.4853 55.646C27.1746 55.2207 27.7099 54.6413 28.0913 53.908C28.4873 53.16 28.6853 52.3093 28.6853 51.356C28.6853 50.3293 28.3846 49.53 27.7833 48.958C27.1819 48.3713 26.3239 48.078 25.2093 48.078C24.3439 48.078 23.5666 48.2907 22.8773 48.716C22.1879 49.1267 21.6453 49.706 21.2493 50.454C20.8533 51.1873 20.6553 52.038 20.6553 53.006C20.6553 54.018 20.9559 54.8173 21.5573 55.404C22.1586 55.9907 23.0166 56.284 24.1313 56.284ZM27.4973 58L28.1133 54.986L28.8173 52.28L29.1033 49.508L29.7193 46.34H31.8313L29.5213 58H27.4973ZM39.2542 58.132C38.1249 58.132 37.1422 57.9267 36.3062 57.516C35.4849 57.0907 34.8469 56.504 34.3922 55.756C33.9375 54.9933 33.7102 54.106 33.7102 53.094C33.7102 51.774 34.0035 50.6007 34.5902 49.574C35.1769 48.5327 35.9909 47.7187 37.0322 47.132C38.0735 46.5307 39.2542 46.23 40.5742 46.23C41.7035 46.23 42.6715 46.4427 43.4782 46.868C44.2849 47.2787 44.9155 47.9093 45.3702 48.76L43.5882 49.75C43.2949 49.178 42.8769 48.76 42.3342 48.496C41.8062 48.2173 41.1682 48.078 40.4202 48.078C39.5402 48.078 38.7555 48.2907 38.0662 48.716C37.3769 49.1267 36.8342 49.706 36.4382 50.454C36.0422 51.1873 35.8442 52.038 35.8442 53.006C35.8442 54.018 36.1449 54.8173 36.7462 55.404C37.3622 55.9907 38.2275 56.284 39.3422 56.284C40.0315 56.284 40.6769 56.1447 41.2782 55.866C41.8942 55.5873 42.4075 55.1767 42.8182 54.634L44.3582 55.734C43.8302 56.482 43.1115 57.0687 42.2022 57.494C41.2929 57.9193 40.3102 58.132 39.2542 58.132ZM48.6515 58L50.6755 47.638L51.0715 48.188H46.3415L46.6935 46.34H57.3415L56.9895 48.188H52.1715L52.7875 47.638L50.7635 58H48.6515ZM62.3514 58.132C61.2074 58.132 60.2174 57.9267 59.3814 57.516C58.5454 57.0907 57.9001 56.504 57.4454 55.756C56.9908 54.9933 56.7634 54.0987 56.7634 53.072C56.7634 51.752 57.0494 50.5787 57.6214 49.552C58.1934 48.5253 58.9708 47.7187 59.9534 47.132C60.9508 46.5307 62.0801 46.23 63.3414 46.23C64.3974 46.23 65.3141 46.4353 66.0914 46.846C66.8688 47.242 67.4701 47.814 67.8954 48.562C68.3354 49.31 68.5554 50.212 68.5554 51.268C68.5554 51.532 68.5408 51.8033 68.5114 52.082C68.4821 52.346 68.4454 52.5953 68.4014 52.83H58.3034L58.5674 51.29H67.3894L66.5314 51.818C66.6634 50.9967 66.6048 50.3073 66.3554 49.75C66.1061 49.178 65.7101 48.7453 65.1674 48.452C64.6394 48.144 64.0014 47.99 63.2534 47.99C62.3734 47.99 61.5961 48.2027 60.9214 48.628C60.2614 49.0387 59.7481 49.618 59.3814 50.366C59.0148 51.0993 58.8314 51.9647 58.8314 52.962C58.8314 54.018 59.1321 54.8393 59.7334 55.426C60.3494 55.998 61.2808 56.284 62.5274 56.284C63.2608 56.284 63.9428 56.1667 64.5734 55.932C65.2041 55.6827 65.7248 55.3527 66.1354 54.942L67.0374 56.46C66.4801 57.0027 65.7834 57.4207 64.9474 57.714C64.1114 57.9927 63.2461 58.132 62.3514 58.132ZM77.0925 58.132C76.0951 58.132 75.2371 57.956 74.5185 57.604C73.8145 57.2373 73.2718 56.7167 72.8905 56.042C72.5091 55.3527 72.3185 54.524 72.3185 53.556C72.3185 52.0893 72.5678 50.8133 73.0665 49.728C73.5651 48.628 74.2765 47.77 75.2005 47.154C76.1391 46.538 77.2538 46.23 78.5445 46.23C79.5418 46.23 80.4218 46.428 81.1845 46.824C81.9618 47.22 82.5705 47.7993 83.0105 48.562C83.4651 49.31 83.6925 50.2047 83.6925 51.246C83.6925 52.2433 83.5238 53.16 83.1865 53.996C82.8638 54.832 82.4018 55.558 81.8005 56.174C81.2138 56.79 80.5171 57.274 79.7105 57.626C78.9038 57.9633 78.0311 58.132 77.0925 58.132ZM69.5245 62.268L72.6925 46.34H74.7165L74.1005 49.354L73.4185 52.06L73.1105 54.832L71.6365 62.268H69.5245ZM77.0045 56.284C77.8845 56.284 78.6618 56.0713 79.3365 55.646C80.0258 55.2207 80.5685 54.6413 80.9645 53.908C81.3605 53.16 81.5585 52.3093 81.5585 51.356C81.5585 50.3293 81.2578 49.53 80.6565 48.958C80.0551 48.3713 79.1971 48.078 78.0825 48.078C77.2171 48.078 76.4325 48.2907 75.7285 48.716C75.0391 49.1267 74.4965 49.706 74.1005 50.454C73.7191 51.1873 73.5285 52.038 73.5285 53.006C73.5285 54.018 73.8291 54.8173 74.4305 55.404C75.0318 55.9907 75.8898 56.284 77.0045 56.284Z" fill="#BDDDDF"/>
</svg>
