<svg width="642" height="443" viewBox="0 0 642 443" fill="none" xmlns="http://www.w3.org/2000/svg">
<rect width="642" height="443" rx="16" fill="#4699FF"/>
<path d="M33.096 56L42.888 33.6H50.312L60.104 56H52.296L45.064 37.184H48.008L40.776 56H33.096ZM38.92 52.096L40.84 46.656H51.144L53.064 52.096H38.92ZM73.9795 56L69.1795 47.968L75.0035 44.576L82.4915 56H73.9795ZM61.8835 56V38.496H69.1155V56H61.8835ZM67.0035 50.176V44.64H73.5315V50.176H67.0035ZM75.7395 48.032L68.9555 47.392L74.5235 38.496H82.1395L75.7395 48.032ZM88.1343 56V42.592L89.7023 44.128H82.7903V38.496H100.678V44.128H93.7663L95.3343 42.592V56H88.1343ZM102.759 56V38.496H109.959V46.4L116.007 38.496H122.663V56H115.463V48.064L109.447 56H102.759ZM126.04 56V38.496H135.864C138.21 38.496 140.034 38.9013 141.336 39.712C142.637 40.5013 143.288 41.6213 143.288 43.072C143.288 44.48 142.69 45.6107 141.496 46.464C140.301 47.296 138.69 47.712 136.664 47.712L137.208 46.24C139.362 46.24 140.994 46.6347 142.104 47.424C143.234 48.2133 143.8 49.3653 143.8 50.88C143.8 52.4373 143.181 53.6853 141.944 54.624C140.728 55.5413 138.872 56 136.376 56H126.04ZM132.376 51.52H135.736C136.269 51.52 136.664 51.4027 136.92 51.168C137.176 50.9333 137.304 50.6133 137.304 50.208C137.304 49.7813 137.176 49.472 136.92 49.28C136.664 49.0667 136.269 48.96 135.736 48.96H132.376V51.52ZM132.376 45.408H135.224C135.778 45.408 136.173 45.3013 136.408 45.088C136.664 44.8747 136.792 44.5653 136.792 44.16C136.792 43.7333 136.664 43.4347 136.408 43.264C136.173 43.072 135.778 42.976 135.224 42.976H132.376V45.408ZM146.165 56V38.496H153.365V44.64H158.293V38.496H165.493V56H158.293V50.304H153.365V56H146.165ZM177.908 56.32C175.924 56.32 174.164 55.936 172.628 55.168C171.113 54.3787 169.918 53.3013 169.044 51.936C168.169 50.5707 167.732 49.0027 167.732 47.232C167.732 45.4613 168.169 43.8933 169.044 42.528C169.918 41.1627 171.113 40.096 172.628 39.328C174.164 38.56 175.924 38.176 177.908 38.176C179.892 38.176 181.652 38.56 183.188 39.328C184.724 40.096 185.918 41.1627 186.772 42.528C187.646 43.8933 188.084 45.4613 188.084 47.232C188.084 49.0027 187.646 50.5707 186.772 51.936C185.918 53.3013 184.724 54.3787 183.188 55.168C181.652 55.936 179.892 56.32 177.908 56.32ZM177.908 50.688C178.441 50.688 178.921 50.56 179.348 50.304C179.774 50.048 180.116 49.664 180.372 49.152C180.628 48.6187 180.756 47.9787 180.756 47.232C180.756 46.464 180.628 45.8347 180.372 45.344C180.116 44.832 179.774 44.448 179.348 44.192C178.921 43.936 178.441 43.808 177.908 43.808C177.374 43.808 176.894 43.936 176.468 44.192C176.041 44.448 175.7 44.832 175.444 45.344C175.188 45.8347 175.06 46.464 175.06 47.232C175.06 47.9787 175.188 48.6187 175.444 49.152C175.7 49.664 176.041 50.048 176.468 50.304C176.894 50.56 177.374 50.688 177.908 50.688ZM199.505 56.32C197.5 56.32 195.718 55.936 194.161 55.168C192.604 54.4 191.377 53.3333 190.481 51.968C189.606 50.5813 189.169 49.0027 189.169 47.232C189.169 45.4613 189.606 43.8933 190.481 42.528C191.377 41.1627 192.604 40.096 194.161 39.328C195.718 38.56 197.5 38.176 199.505 38.176C201.638 38.176 203.462 38.6347 204.977 39.552C206.492 40.4693 207.537 41.7387 208.113 43.36L202.513 46.112C202.15 45.3013 201.702 44.7147 201.169 44.352C200.657 43.9893 200.092 43.808 199.473 43.808C198.94 43.808 198.438 43.936 197.969 44.192C197.521 44.448 197.158 44.832 196.881 45.344C196.625 45.8347 196.497 46.464 196.497 47.232C196.497 48 196.625 48.64 196.881 49.152C197.158 49.664 197.521 50.048 197.969 50.304C198.438 50.56 198.94 50.688 199.473 50.688C200.092 50.688 200.657 50.5067 201.169 50.144C201.702 49.7813 202.15 49.1947 202.513 48.384L208.113 51.136C207.537 52.7573 206.492 54.0267 204.977 54.944C203.462 55.8613 201.638 56.32 199.505 56.32ZM214.291 56V42.592L215.859 44.128H208.947V38.496H226.835V44.128H219.923L221.491 42.592V56H214.291ZM239.987 43.776C242.333 43.776 244.136 44.288 245.395 45.312C246.653 46.336 247.283 47.7867 247.283 49.664C247.283 51.6267 246.547 53.1733 245.075 54.304C243.624 55.4347 241.629 56 239.091 56H228.915V38.496H236.115V43.776H239.987ZM238.355 51.136C238.845 51.136 239.229 51.008 239.507 50.752C239.784 50.496 239.923 50.0907 239.923 49.536C239.923 48.9813 239.784 48.5867 239.507 48.352C239.229 48.1173 238.845 48 238.355 48H236.115V51.136H238.355Z" fill="white"/>
<rect x="521.6" y="57.6" width="17.2" height="27.2" rx="4.4" transform="rotate(180 521.6 57.6)" stroke="#F0F0F0" stroke-width="0.8"/>
<path d="M516.88 40.288L516.88 41.28L510.336 43.856L510.336 43.344L516.88 45.92L516.88 46.912L509.92 44.128L509.92 43.072L516.88 40.288Z" fill="#FEFEFE"/>
<rect x="527.5" y="27.5" width="58" height="33" rx="5.5" stroke="#F0F0F0"/>
<path d="M532.78 51V49.98L538.6 44.28C539.133 43.76 539.533 43.3067 539.8 42.92C540.067 42.52 540.247 42.1467 540.34 41.8C540.433 41.4533 540.48 41.1267 540.48 40.82C540.48 40.0067 540.2 39.3667 539.64 38.9C539.093 38.4333 538.28 38.2 537.2 38.2C536.373 38.2 535.64 38.3267 535 38.58C534.373 38.8333 533.833 39.2267 533.38 39.76L532.36 38.88C532.907 38.24 533.607 37.7467 534.46 37.4C535.313 37.0533 536.267 36.88 537.32 36.88C538.267 36.88 539.087 37.0333 539.78 37.34C540.473 37.6333 541.007 38.0667 541.38 38.64C541.767 39.2133 541.96 39.8867 541.96 40.66C541.96 41.1133 541.893 41.56 541.76 42C541.64 42.44 541.413 42.9067 541.08 43.4C540.76 43.88 540.287 44.4267 539.66 45.04L534.32 50.28L533.92 49.72H542.6V51H532.78ZM549.948 51.12C548.868 51.12 547.908 50.84 547.068 50.28C546.228 49.7067 545.568 48.8933 545.088 47.84C544.608 46.7733 544.368 45.4933 544.368 44C544.368 42.5067 544.608 41.2333 545.088 40.18C545.568 39.1133 546.228 38.3 547.068 37.74C547.908 37.1667 548.868 36.88 549.948 36.88C551.028 36.88 551.988 37.1667 552.828 37.74C553.668 38.3 554.328 39.1133 554.808 40.18C555.301 41.2333 555.548 42.5067 555.548 44C555.548 45.4933 555.301 46.7733 554.808 47.84C554.328 48.8933 553.668 49.7067 552.828 50.28C551.988 50.84 551.028 51.12 549.948 51.12ZM549.948 49.8C550.775 49.8 551.495 49.58 552.108 49.14C552.721 48.6867 553.201 48.0333 553.548 47.18C553.895 46.3133 554.068 45.2533 554.068 44C554.068 42.7467 553.895 41.6933 553.548 40.84C553.201 39.9733 552.721 39.32 552.108 38.88C551.495 38.4267 550.775 38.2 549.948 38.2C549.148 38.2 548.435 38.4267 547.808 38.88C547.181 39.32 546.695 39.9733 546.348 40.84C546.001 41.6933 545.828 42.7467 545.828 44C545.828 45.2533 546.001 46.3133 546.348 47.18C546.695 48.0333 547.181 48.6867 547.808 49.14C548.435 49.58 549.148 49.8 549.948 49.8ZM557.35 51V49.98L563.17 44.28C563.704 43.76 564.104 43.3067 564.37 42.92C564.637 42.52 564.817 42.1467 564.91 41.8C565.004 41.4533 565.05 41.1267 565.05 40.82C565.05 40.0067 564.77 39.3667 564.21 38.9C563.664 38.4333 562.85 38.2 561.77 38.2C560.944 38.2 560.21 38.3267 559.57 38.58C558.944 38.8333 558.404 39.2267 557.95 39.76L556.93 38.88C557.477 38.24 558.177 37.7467 559.03 37.4C559.884 37.0533 560.837 36.88 561.89 36.88C562.837 36.88 563.657 37.0333 564.35 37.34C565.044 37.6333 565.577 38.0667 565.95 38.64C566.337 39.2133 566.53 39.8867 566.53 40.66C566.53 41.1133 566.464 41.56 566.33 42C566.21 42.44 565.984 42.9067 565.65 43.4C565.33 43.88 564.857 44.4267 564.23 45.04L558.89 50.28L558.49 49.72H567.17V51H557.35ZM568.288 47.32V46.28L575.708 37H577.308L569.948 46.28L569.168 46.04H580.428V47.32H568.288ZM576.188 51V47.32L576.228 46.04V42.8H577.628V51H576.188Z" fill="#FEFEFE"/>
<rect x="591.4" y="30.4" width="17.2" height="27.2" rx="4.4" stroke="#F0F0F0" stroke-width="0.8"/>
<path d="M596.12 47.712V46.72L602.664 44.144V44.656L596.12 42.08V41.088L603.08 43.872V44.928L596.12 47.712Z" fill="#FEFEFE"/>
<path d="M50.36 148V134H62.14V148H60.68V134.88L61.06 135.28H51.44L51.82 134.88V148H50.36ZM66.5239 148V137.5H67.9439V142.14H74.5639V137.5H75.9839V148H74.5639V143.36H67.9439V148H66.5239Z" fill="#FEFEFE"/>
<path d="M50.36 178V164H56.18C57.66 164 58.82 164.307 59.66 164.92C60.5133 165.52 60.94 166.407 60.94 167.58C60.94 168.74 60.5333 169.62 59.72 170.22C58.9067 170.807 57.84 171.1 56.52 171.1L56.86 170.6C58.42 170.6 59.6067 170.907 60.42 171.52C61.2333 172.133 61.64 173.033 61.64 174.22C61.64 175.42 61.2133 176.353 60.36 177.02C59.52 177.673 58.2533 178 56.56 178H50.36ZM51.82 176.82H56.56C57.7467 176.82 58.6467 176.6 59.26 176.16C59.8733 175.72 60.18 175.04 60.18 174.12C60.18 173.213 59.8733 172.547 59.26 172.12C58.6467 171.693 57.7467 171.48 56.56 171.48H51.82V176.82ZM51.82 170.34H56.1C57.18 170.34 58.0067 170.127 58.58 169.7C59.1667 169.26 59.46 168.613 59.46 167.76C59.46 166.907 59.1667 166.267 58.58 165.84C58.0067 165.4 57.18 165.18 56.1 165.18H51.82V170.34ZM67.0005 178V168.36L67.3605 168.74H63.0205V167.5H72.4005V168.74H68.0605L68.4205 168.36V178H67.0005Z" fill="#FEFEFE"/>
<path d="M56.48 208.12C55.4267 208.12 54.4533 207.947 53.56 207.6C52.6667 207.24 51.8933 206.74 51.24 206.1C50.5867 205.46 50.0733 204.707 49.7 203.84C49.34 202.973 49.16 202.027 49.16 201C49.16 199.973 49.34 199.027 49.7 198.16C50.0733 197.293 50.5867 196.54 51.24 195.9C51.9067 195.26 52.6867 194.767 53.58 194.42C54.4733 194.06 55.4467 193.88 56.5 193.88C57.5133 193.88 58.4667 194.053 59.36 194.4C60.2533 194.733 61.0067 195.24 61.62 195.92L60.68 196.86C60.1067 196.273 59.4733 195.853 58.78 195.6C58.0867 195.333 57.34 195.2 56.54 195.2C55.7 195.2 54.92 195.347 54.2 195.64C53.48 195.92 52.8533 196.327 52.32 196.86C51.7867 197.38 51.3667 197.993 51.06 198.7C50.7667 199.393 50.62 200.16 50.62 201C50.62 201.84 50.7667 202.613 51.06 203.32C51.3667 204.013 51.7867 204.627 52.32 205.16C52.8533 205.68 53.48 206.087 54.2 206.38C54.92 206.66 55.7 206.8 56.54 206.8C57.34 206.8 58.0867 206.667 58.78 206.4C59.4733 206.133 60.1067 205.707 60.68 205.12L61.62 206.06C61.0067 206.74 60.2533 207.253 59.36 207.6C58.4667 207.947 57.5067 208.12 56.48 208.12ZM69.7564 208.1C68.8497 208.1 68.0297 207.893 67.2964 207.48C66.5631 207.053 65.9764 206.447 65.5364 205.66C65.1097 204.86 64.8964 203.887 64.8964 202.74C64.8964 201.593 65.1097 200.627 65.5364 199.84C65.9631 199.04 66.5431 198.433 67.2764 198.02C68.0097 197.607 68.8364 197.4 69.7564 197.4C70.7564 197.4 71.6497 197.627 72.4364 198.08C73.2364 198.52 73.8631 199.147 74.3164 199.96C74.7697 200.76 74.9964 201.687 74.9964 202.74C74.9964 203.807 74.7697 204.74 74.3164 205.54C73.8631 206.34 73.2364 206.967 72.4364 207.42C71.6497 207.873 70.7564 208.1 69.7564 208.1ZM64.3364 211.88V197.5H65.6964V200.66L65.5564 202.76L65.7564 204.88V211.88H64.3364ZM69.6564 206.84C70.4031 206.84 71.0697 206.673 71.6564 206.34C72.2431 205.993 72.7097 205.513 73.0564 204.9C73.4031 204.273 73.5764 203.553 73.5764 202.74C73.5764 201.927 73.4031 201.213 73.0564 200.6C72.7097 199.987 72.2431 199.507 71.6564 199.16C71.0697 198.813 70.4031 198.64 69.6564 198.64C68.9097 198.64 68.2364 198.813 67.6364 199.16C67.0497 199.507 66.5831 199.987 66.2364 200.6C65.9031 201.213 65.7364 201.927 65.7364 202.74C65.7364 203.553 65.9031 204.273 66.2364 204.9C66.5831 205.513 67.0497 205.993 67.6364 206.34C68.2364 206.673 68.9097 206.84 69.6564 206.84Z" fill="#FEFEFE"/>
<path d="M59.06 232.08C58.26 232.44 57.46 232.713 56.66 232.9C55.8733 233.087 55.1133 233.18 54.38 233.18C52.74 233.18 51.46 232.787 50.54 232C49.6333 231.2 49.18 230.073 49.18 228.62V224H50.64V228.46C50.64 229.54 50.98 230.38 51.66 230.98C52.3533 231.58 53.3067 231.88 54.52 231.88C55.24 231.88 55.9867 231.787 56.76 231.6C57.5333 231.4 58.3 231.12 59.06 230.76V232.08ZM58.8 238V224H60.24V238H58.8ZM66.6489 238V228.36L67.0089 228.74H62.6689V227.5H72.0489V228.74H67.7089L68.0689 228.36V238H66.6489Z" fill="#FEFEFE"/>
<path d="M50.36 268V254H62.14V268H60.68V254.88L61.06 255.28H51.44L51.82 254.88V268H50.36ZM68.5239 268V258.36L68.8839 258.74H64.5439V257.5H73.9239V258.74H69.5839L69.9439 258.36V268H68.5239Z" fill="#FEFEFE"/>
<path d="M56.48 298.12C55.4267 298.12 54.4533 297.947 53.56 297.6C52.6667 297.24 51.8933 296.74 51.24 296.1C50.5867 295.46 50.0733 294.707 49.7 293.84C49.34 292.973 49.16 292.027 49.16 291C49.16 289.973 49.34 289.027 49.7 288.16C50.0733 287.293 50.5867 286.54 51.24 285.9C51.9067 285.26 52.6867 284.767 53.58 284.42C54.4733 284.06 55.4467 283.88 56.5 283.88C57.5133 283.88 58.4667 284.053 59.36 284.4C60.2533 284.733 61.0067 285.24 61.62 285.92L60.68 286.86C60.1067 286.273 59.4733 285.853 58.78 285.6C58.0867 285.333 57.34 285.2 56.54 285.2C55.7 285.2 54.92 285.347 54.2 285.64C53.48 285.92 52.8533 286.327 52.32 286.86C51.7867 287.38 51.3667 287.993 51.06 288.7C50.7667 289.393 50.62 290.16 50.62 291C50.62 291.84 50.7667 292.613 51.06 293.32C51.3667 294.013 51.7867 294.627 52.32 295.16C52.8533 295.68 53.48 296.087 54.2 296.38C54.92 296.66 55.7 296.8 56.54 296.8C57.34 296.8 58.0867 296.667 58.78 296.4C59.4733 296.133 60.1067 295.707 60.68 295.12L61.62 296.06C61.0067 296.74 60.2533 297.253 59.36 297.6C58.4667 297.947 57.5067 298.12 56.48 298.12ZM68.7634 298.12C67.9101 298.12 67.1501 297.98 66.4834 297.7C65.8301 297.42 65.2701 296.993 64.8034 296.42C64.3368 295.847 63.9834 295.14 63.7434 294.3C63.5034 293.447 63.3834 292.46 63.3834 291.34C63.3834 290.34 63.4768 289.467 63.6634 288.72C63.8501 287.96 64.1101 287.307 64.4434 286.76C64.7768 286.213 65.1634 285.753 65.6034 285.38C66.0568 284.993 66.5434 284.687 67.0634 284.46C67.5968 284.22 68.1434 284.04 68.7034 283.92L73.4234 282.82L73.6634 284.14L69.2234 285.14C68.9434 285.207 68.6034 285.3 68.2034 285.42C67.8168 285.54 67.4168 285.72 67.0034 285.96C66.6034 286.2 66.2301 286.533 65.8834 286.96C65.5368 287.387 65.2568 287.94 65.0434 288.62C64.8434 289.287 64.7434 290.12 64.7434 291.12C64.7434 291.333 64.7501 291.507 64.7634 291.64C64.7768 291.76 64.7901 291.893 64.8034 292.04C64.8301 292.173 64.8501 292.373 64.8634 292.64L64.2434 292.12C64.3901 291.307 64.6901 290.6 65.1434 290C65.5968 289.387 66.1634 288.913 66.8434 288.58C67.5368 288.233 68.3034 288.06 69.1434 288.06C70.1168 288.06 70.9834 288.273 71.7434 288.7C72.5034 289.113 73.0968 289.693 73.5234 290.44C73.9634 291.187 74.1834 292.053 74.1834 293.04C74.1834 294.013 73.9568 294.887 73.5034 295.66C73.0634 296.433 72.4368 297.04 71.6234 297.48C70.8101 297.907 69.8568 298.12 68.7634 298.12ZM68.9234 296.94C69.6701 296.94 70.3301 296.773 70.9034 296.44C71.4768 296.093 71.9234 295.627 72.2434 295.04C72.5768 294.453 72.7434 293.793 72.7434 293.06C72.7434 292.34 72.5768 291.7 72.2434 291.14C71.9234 290.58 71.4768 290.14 70.9034 289.82C70.3301 289.487 69.6634 289.32 68.9034 289.32C68.1568 289.32 67.4968 289.48 66.9234 289.8C66.3501 290.107 65.8968 290.54 65.5634 291.1C65.2434 291.66 65.0834 292.307 65.0834 293.04C65.0834 293.773 65.2434 294.433 65.5634 295.02C65.8968 295.607 66.3501 296.073 66.9234 296.42C67.5101 296.767 68.1768 296.94 68.9234 296.94Z" fill="#FEFEFE"/>
<path d="M50.36 328V314H56.18C57.66 314 58.82 314.307 59.66 314.92C60.5133 315.52 60.94 316.407 60.94 317.58C60.94 318.74 60.5333 319.62 59.72 320.22C58.9067 320.807 57.84 321.1 56.52 321.1L56.86 320.6C58.42 320.6 59.6067 320.907 60.42 321.52C61.2333 322.133 61.64 323.033 61.64 324.22C61.64 325.42 61.2133 326.353 60.36 327.02C59.52 327.673 58.2533 328 56.56 328H50.36ZM51.82 326.82H56.56C57.7467 326.82 58.6467 326.6 59.26 326.16C59.8733 325.72 60.18 325.04 60.18 324.12C60.18 323.213 59.8733 322.547 59.26 322.12C58.6467 321.693 57.7467 321.48 56.56 321.48H51.82V326.82ZM51.82 320.34H56.1C57.18 320.34 58.0067 320.127 58.58 319.7C59.1667 319.26 59.46 318.613 59.46 317.76C59.46 316.907 59.1667 316.267 58.58 315.84C58.0067 315.4 57.18 315.18 56.1 315.18H51.82V320.34ZM69.4005 328.1C68.3605 328.1 67.4271 327.873 66.6005 327.42C65.7871 326.953 65.1471 326.32 64.6805 325.52C64.2138 324.707 63.9805 323.78 63.9805 322.74C63.9805 321.687 64.2138 320.76 64.6805 319.96C65.1471 319.16 65.7871 318.533 66.6005 318.08C67.4271 317.627 68.3605 317.4 69.4005 317.4C70.2938 317.4 71.1005 317.573 71.8205 317.92C72.5405 318.267 73.1071 318.787 73.5205 319.48L72.4605 320.2C72.1005 319.667 71.6538 319.273 71.1205 319.02C70.5871 318.767 70.0071 318.64 69.3805 318.64C68.6338 318.64 67.9605 318.813 67.3605 319.16C66.7605 319.493 66.2871 319.967 65.9405 320.58C65.5938 321.193 65.4205 321.913 65.4205 322.74C65.4205 323.567 65.5938 324.287 65.9405 324.9C66.2871 325.513 66.7605 325.993 67.3605 326.34C67.9605 326.673 68.6338 326.84 69.3805 326.84C70.0071 326.84 70.5871 326.713 71.1205 326.46C71.6538 326.207 72.1005 325.82 72.4605 325.3L73.5205 326.02C73.1071 326.7 72.5405 327.22 71.8205 327.58C71.1005 327.927 70.2938 328.1 69.4005 328.1Z" fill="#FEFEFE"/>
<path d="M91.832 117V100.2H93.296L100.976 113.304H100.208L107.816 100.2H109.28V117H107.576V102.864H107.984L100.976 114.864H100.136L93.08 102.864H93.536V117H91.832ZM122.357 117V114.216L122.285 113.76V109.104C122.285 108.032 121.981 107.208 121.373 106.632C120.781 106.056 119.893 105.768 118.709 105.768C117.893 105.768 117.117 105.904 116.381 106.176C115.645 106.448 115.021 106.808 114.509 107.256L113.741 105.984C114.381 105.44 115.149 105.024 116.045 104.736C116.941 104.432 117.885 104.28 118.877 104.28C120.509 104.28 121.765 104.688 122.645 105.504C123.541 106.304 123.989 107.528 123.989 109.176V117H122.357ZM118.013 117.12C117.069 117.12 116.245 116.968 115.541 116.664C114.853 116.344 114.325 115.912 113.957 115.368C113.589 114.808 113.405 114.168 113.405 113.448C113.405 112.792 113.557 112.2 113.861 111.672C114.181 111.128 114.693 110.696 115.397 110.376C116.117 110.04 117.077 109.872 118.277 109.872H122.621V111.144H118.325C117.109 111.144 116.261 111.36 115.781 111.792C115.317 112.224 115.085 112.76 115.085 113.4C115.085 114.12 115.365 114.696 115.925 115.128C116.485 115.56 117.269 115.776 118.277 115.776C119.237 115.776 120.061 115.56 120.749 115.128C121.453 114.68 121.965 114.04 122.285 113.208L122.669 114.384C122.349 115.216 121.789 115.88 120.989 116.376C120.205 116.872 119.213 117.12 118.013 117.12ZM135.03 117.12C133.942 117.12 132.958 116.872 132.078 116.376C131.198 115.864 130.494 115.136 129.966 114.192C129.454 113.232 129.198 112.064 129.198 110.688C129.198 109.312 129.454 108.152 129.966 107.208C130.478 106.248 131.174 105.52 132.054 105.024C132.934 104.528 133.926 104.28 135.03 104.28C136.23 104.28 137.302 104.552 138.246 105.096C139.206 105.624 139.958 106.376 140.502 107.352C141.046 108.312 141.318 109.424 141.318 110.688C141.318 111.968 141.046 113.088 140.502 114.048C139.958 115.008 139.206 115.76 138.246 116.304C137.302 116.848 136.23 117.12 135.03 117.12ZM128.526 121.656V104.4H130.158V108.192L129.99 110.712L130.23 113.256V121.656H128.526ZM134.91 115.608C135.806 115.608 136.606 115.408 137.31 115.008C138.014 114.592 138.574 114.016 138.99 113.28C139.406 112.528 139.614 111.664 139.614 110.688C139.614 109.712 139.406 108.856 138.99 108.12C138.574 107.384 138.014 106.808 137.31 106.392C136.606 105.976 135.806 105.768 134.91 105.768C134.014 105.768 133.206 105.976 132.486 106.392C131.782 106.808 131.222 107.384 130.806 108.12C130.406 108.856 130.206 109.712 130.206 110.688C130.206 111.664 130.406 112.528 130.806 113.28C131.222 114.016 131.782 114.592 132.486 115.008C133.206 115.408 134.014 115.608 134.91 115.608ZM146.91 117V105.432L147.342 105.888H142.134V104.4H153.39V105.888H148.182L148.614 105.432V117H146.91Z" fill="#FEFEFE"/>
<path d="M211.36 117L219.04 100.2H220.792L228.472 117H226.6L219.544 101.232H220.264L213.208 117H211.36ZM214.384 112.512L214.912 111.072H224.68L225.208 112.512H214.384ZM231.283 117V104.4H242.611V117H240.907V105.432L241.339 105.888H232.555L232.987 105.432V117H231.283ZM253.959 117.12C252.871 117.12 251.887 116.872 251.007 116.376C250.127 115.864 249.423 115.136 248.895 114.192C248.383 113.232 248.127 112.064 248.127 110.688C248.127 109.312 248.383 108.152 248.895 107.208C249.407 106.248 250.103 105.52 250.983 105.024C251.863 104.528 252.855 104.28 253.959 104.28C255.159 104.28 256.231 104.552 257.175 105.096C258.135 105.624 258.887 106.376 259.431 107.352C259.975 108.312 260.247 109.424 260.247 110.688C260.247 111.968 259.975 113.088 259.431 114.048C258.887 115.008 258.135 115.76 257.175 116.304C256.231 116.848 255.159 117.12 253.959 117.12ZM247.455 121.656V104.4H249.087V108.192L248.919 110.712L249.159 113.256V121.656H247.455ZM253.839 115.608C254.735 115.608 255.535 115.408 256.239 115.008C256.943 114.592 257.503 114.016 257.919 113.28C258.335 112.528 258.543 111.664 258.543 110.688C258.543 109.712 258.335 108.856 257.919 108.12C257.503 107.384 256.943 106.808 256.239 106.392C255.535 105.976 254.735 105.768 253.839 105.768C252.943 105.768 252.135 105.976 251.415 106.392C250.711 106.808 250.151 107.384 249.735 108.12C249.335 108.856 249.135 109.712 249.135 110.688C249.135 111.664 249.335 112.528 249.735 113.28C250.151 114.016 250.711 114.592 251.415 115.008C252.135 115.408 252.943 115.608 253.839 115.608ZM269.308 117.12C267.996 117.12 266.844 116.848 265.852 116.304C264.86 115.744 264.084 114.984 263.524 114.024C262.964 113.048 262.684 111.936 262.684 110.688C262.684 109.44 262.948 108.336 263.476 107.376C264.02 106.416 264.756 105.664 265.684 105.12C266.628 104.56 267.684 104.28 268.852 104.28C270.036 104.28 271.084 104.552 271.996 105.096C272.924 105.624 273.652 106.376 274.18 107.352C274.708 108.312 274.972 109.424 274.972 110.688C274.972 110.768 274.964 110.856 274.948 110.952C274.948 111.032 274.948 111.12 274.948 111.216H263.98V109.944H274.036L273.364 110.448C273.364 109.536 273.164 108.728 272.764 108.024C272.38 107.304 271.852 106.744 271.18 106.344C270.508 105.944 269.732 105.744 268.852 105.744C267.988 105.744 267.212 105.944 266.524 106.344C265.836 106.744 265.3 107.304 264.916 108.024C264.532 108.744 264.34 109.568 264.34 110.496V110.76C264.34 111.72 264.548 112.568 264.964 113.304C265.396 114.024 265.988 114.592 266.74 115.008C267.508 115.408 268.38 115.608 269.356 115.608C270.124 115.608 270.836 115.472 271.492 115.2C272.164 114.928 272.74 114.512 273.22 113.952L274.18 115.056C273.62 115.728 272.916 116.24 272.068 116.592C271.236 116.944 270.316 117.12 269.308 117.12ZM276.183 116.976L276.303 115.512C276.415 115.528 276.519 115.552 276.615 115.584C276.727 115.6 276.823 115.608 276.903 115.608C277.415 115.608 277.823 115.416 278.127 115.032C278.447 114.648 278.687 114.136 278.847 113.496C279.007 112.856 279.119 112.136 279.183 111.336C279.247 110.52 279.303 109.704 279.351 108.888L279.567 104.4H288.807V117H287.103V105.384L287.535 105.888H280.671L281.079 105.36L280.887 109.008C280.839 110.096 280.751 111.136 280.623 112.128C280.511 113.12 280.327 113.992 280.071 114.744C279.831 115.496 279.495 116.088 279.062 116.52C278.631 116.936 278.079 117.144 277.407 117.144C277.215 117.144 277.015 117.128 276.807 117.096C276.615 117.064 276.407 117.024 276.183 116.976ZM299.075 108.84C300.659 108.856 301.859 109.208 302.675 109.896C303.507 110.584 303.923 111.576 303.923 112.872C303.923 114.216 303.475 115.248 302.579 115.968C301.699 116.688 300.419 117.04 298.739 117.024L293.651 117V104.4H295.355V108.792L299.075 108.84ZM298.643 115.728C299.811 115.744 300.691 115.512 301.283 115.032C301.891 114.536 302.195 113.816 302.195 112.872C302.195 111.928 301.899 111.24 301.307 110.808C300.715 110.36 299.827 110.128 298.643 110.112L295.355 110.064V115.68L298.643 115.728Z" fill="#FEFEFE"/>
<path d="M360.832 117V100.2H362.296L369.976 113.304H369.208L376.816 100.2H378.28V117H376.576V102.864H376.984L369.976 114.864H369.136L362.08 102.864H362.536V117H360.832ZM391.357 117V114.216L391.285 113.76V109.104C391.285 108.032 390.981 107.208 390.373 106.632C389.781 106.056 388.893 105.768 387.709 105.768C386.893 105.768 386.117 105.904 385.381 106.176C384.645 106.448 384.021 106.808 383.509 107.256L382.741 105.984C383.381 105.44 384.149 105.024 385.045 104.736C385.941 104.432 386.885 104.28 387.877 104.28C389.509 104.28 390.765 104.688 391.645 105.504C392.541 106.304 392.989 107.528 392.989 109.176V117H391.357ZM387.013 117.12C386.069 117.12 385.245 116.968 384.541 116.664C383.853 116.344 383.325 115.912 382.957 115.368C382.589 114.808 382.405 114.168 382.405 113.448C382.405 112.792 382.557 112.2 382.861 111.672C383.181 111.128 383.693 110.696 384.397 110.376C385.117 110.04 386.077 109.872 387.277 109.872H391.621V111.144H387.325C386.109 111.144 385.261 111.36 384.781 111.792C384.317 112.224 384.085 112.76 384.085 113.4C384.085 114.12 384.365 114.696 384.925 115.128C385.485 115.56 386.269 115.776 387.277 115.776C388.237 115.776 389.061 115.56 389.749 115.128C390.453 114.68 390.965 114.04 391.285 113.208L391.669 114.384C391.349 115.216 390.789 115.88 389.989 116.376C389.205 116.872 388.213 117.12 387.013 117.12ZM397.526 117V104.4H399.23V114.408L407.654 104.4H409.166V117H407.462V106.968L399.062 117H397.526ZM403.238 102.576C402.182 102.576 401.326 102.312 400.67 101.784C400.03 101.24 399.694 100.464 399.662 99.456H400.886C400.902 100.096 401.126 100.6 401.558 100.968C401.99 101.336 402.55 101.52 403.238 101.52C403.926 101.52 404.486 101.336 404.918 100.968C405.366 100.6 405.598 100.096 405.614 99.456H406.838C406.822 100.464 406.486 101.24 405.83 101.784C405.174 102.312 404.31 102.576 403.238 102.576Z" fill="#FEFEFE"/>
<path d="M481.832 117V100.2H483.584V114.12L494.336 100.2H495.944V117H494.192V103.104L483.44 117H481.832ZM501.205 117V104.4H502.909V109.824H506.749V111.384H502.909V117H501.205ZM512.053 117.12C510.853 117.12 509.773 116.848 508.813 116.304C507.869 115.744 507.125 114.984 506.581 114.024C506.037 113.048 505.765 111.936 505.765 110.688C505.765 109.424 506.037 108.312 506.581 107.352C507.125 106.392 507.869 105.64 508.813 105.096C509.773 104.552 510.853 104.28 512.053 104.28C513.253 104.28 514.325 104.552 515.269 105.096C516.213 105.64 516.957 106.392 517.501 107.352C518.045 108.312 518.317 109.424 518.317 110.688C518.317 111.936 518.045 113.048 517.501 114.024C516.957 114.984 516.213 115.744 515.269 116.304C514.325 116.848 513.253 117.12 512.053 117.12ZM512.053 115.632C512.933 115.632 513.717 115.424 514.405 115.008C515.093 114.592 515.637 114.016 516.037 113.28C516.437 112.528 516.637 111.664 516.637 110.688C516.637 109.696 516.437 108.832 516.037 108.096C515.637 107.36 515.093 106.792 514.405 106.392C513.717 105.976 512.933 105.768 512.053 105.768C511.189 105.768 510.405 105.976 509.701 106.392C509.013 106.792 508.469 107.36 508.069 108.096C507.669 108.832 507.469 109.696 507.469 110.688C507.469 111.664 507.669 112.528 508.069 113.28C508.469 114.016 509.013 114.592 509.701 115.008C510.405 115.424 511.189 115.632 512.053 115.632ZM521.971 117V104.4H523.675V109.968H531.619V104.4H533.323V117H531.619V111.432H523.675V117H521.971ZM543.59 108.84C545.174 108.856 546.374 109.208 547.19 109.896C548.022 110.584 548.438 111.576 548.438 112.872C548.438 114.216 547.99 115.248 547.094 115.968C546.214 116.688 544.934 117.04 543.254 117.024L538.166 117V104.4H539.87V108.792L543.59 108.84ZM543.158 115.728C544.326 115.744 545.206 115.512 545.798 115.032C546.406 114.536 546.71 113.816 546.71 112.872C546.71 111.928 546.414 111.24 545.822 110.808C545.23 110.36 544.342 110.128 543.158 110.112L539.87 110.064V115.68L543.158 115.728Z" fill="#FEFEFE"/>
<rect x="114" y="129" width="25" height="25" rx="4" transform="rotate(90 114 129)" fill="#00BD7B"/>
<rect x="114" y="159" width="25" height="25" rx="4" transform="rotate(90 114 159)" fill="#EFEFEF"/>
<rect x="114" y="189" width="25" height="25" rx="4" transform="rotate(90 114 189)" fill="#00EA98"/>
<rect x="114" y="219" width="25" height="25" rx="4" transform="rotate(90 114 219)" fill="#EFEFEF"/>
<rect x="114" y="249" width="25" height="25" rx="4" transform="rotate(90 114 249)" fill="#00BD7B"/>
<rect x="114" y="279" width="25" height="25" rx="4" transform="rotate(90 114 279)" fill="#EFEFEF"/>
<rect x="114" y="309" width="25" height="25" rx="4" transform="rotate(90 114 309)" fill="#00D58B"/>
<rect x="144" y="129" width="25" height="25" rx="4" transform="rotate(90 144 129)" fill="#00D58B"/>
<rect x="144" y="159" width="25" height="25" rx="4" transform="rotate(90 144 159)" fill="#EFEFEF"/>
<rect x="144" y="189" width="25" height="25" rx="4" transform="rotate(90 144 189)" fill="#00D58B"/>
<rect x="144" y="219" width="25" height="25" rx="4" transform="rotate(90 144 219)" fill="#00D58B"/>
<rect x="144" y="249" width="25" height="25" rx="4" transform="rotate(90 144 249)" fill="#00D58B"/>
<rect x="144" y="279" width="25" height="25" rx="4" transform="rotate(90 144 279)" fill="#EFEFEF"/>
<rect x="144" y="309" width="25" height="25" rx="4" transform="rotate(90 144 309)" fill="#EFEFEF"/>
<rect x="174" y="129" width="25" height="25" rx="4" transform="rotate(90 174 129)" fill="#EFEFEF"/>
<rect x="174" y="159" width="25" height="25" rx="4" transform="rotate(90 174 159)" fill="#EFEFEF"/>
<rect x="174" y="189" width="25" height="25" rx="4" transform="rotate(90 174 189)" fill="#EFEFEF"/>
<rect x="174" y="219" width="25" height="25" rx="4" transform="rotate(90 174 219)" fill="#EFEFEF"/>
<rect x="174" y="249" width="25" height="25" rx="4" transform="rotate(90 174 249)" fill="#EFEFEF"/>
<rect x="174" y="279" width="25" height="25" rx="4" transform="rotate(90 174 279)" fill="#00BD7B"/>
<rect x="174" y="309" width="25" height="25" rx="4" transform="rotate(90 174 309)" fill="#EFEFEF"/>
<rect x="204" y="129" width="25" height="25" rx="4" transform="rotate(90 204 129)" fill="#00EA98"/>
<rect x="204" y="159" width="25" height="25" rx="4" transform="rotate(90 204 159)" fill="#00D58B"/>
<rect x="204" y="189" width="25" height="25" rx="4" transform="rotate(90 204 189)" fill="#EFEFEF"/>
<rect x="204" y="219" width="25" height="25" rx="4" transform="rotate(90 204 219)" fill="#EFEFEF"/>
<rect x="204" y="249" width="25" height="25" rx="4" transform="rotate(90 204 249)" fill="#EFEFEF"/>
<rect x="204" y="279" width="25" height="25" rx="4" transform="rotate(90 204 279)" fill="#00D58B"/>
<rect x="204" y="309" width="25" height="25" rx="4" transform="rotate(90 204 309)" fill="#00EA98"/>
<rect x="234" y="129" width="25" height="25" rx="4" transform="rotate(90 234 129)" fill="#EFEFEF"/>
<rect x="234" y="159" width="25" height="25" rx="4" transform="rotate(90 234 159)" fill="#EFEFEF"/>
<rect x="234" y="189" width="25" height="25" rx="4" transform="rotate(90 234 189)" fill="#00BD7B"/>
<rect x="234" y="219" width="25" height="25" rx="4" transform="rotate(90 234 219)" fill="#00D58B"/>
<rect x="234" y="249" width="25" height="25" rx="4" transform="rotate(90 234 249)" fill="#00BD7B"/>
<rect x="234" y="279" width="25" height="25" rx="4" transform="rotate(90 234 279)" fill="#EFEFEF"/>
<rect x="234" y="309" width="25" height="25" rx="4" transform="rotate(90 234 309)" fill="#EFEFEF"/>
<rect x="264" y="129" width="25" height="25" rx="4" transform="rotate(90 264 129)" fill="#00BD7B"/>
<rect x="264" y="159" width="25" height="25" rx="4" transform="rotate(90 264 159)" fill="#EFEFEF"/>
<rect x="264" y="189" width="25" height="25" rx="4" transform="rotate(90 264 189)" fill="#00D58B"/>
<rect x="264" y="219" width="25" height="25" rx="4" transform="rotate(90 264 219)" fill="#EFEFEF"/>
<rect x="264" y="249" width="25" height="25" rx="4" transform="rotate(90 264 249)" fill="#EFEFEF"/>
<rect x="264" y="279" width="25" height="25" rx="4" transform="rotate(90 264 279)" fill="#EFEFEF"/>
<rect x="264" y="309" width="25" height="25" rx="4" transform="rotate(90 264 309)" fill="#EFEFEF"/>
<rect x="294" y="129" width="25" height="25" rx="4" transform="rotate(90 294 129)" fill="#00D58B"/>
<rect x="294" y="159" width="25" height="25" rx="4" transform="rotate(90 294 159)" fill="#EFEFEF"/>
<rect x="294" y="189" width="25" height="25" rx="4" transform="rotate(90 294 189)" fill="#EFEFEF"/>
<rect x="294" y="219" width="25" height="25" rx="4" transform="rotate(90 294 219)" fill="#EFEFEF"/>
<rect x="294" y="249" width="25" height="25" rx="4" transform="rotate(90 294 249)" fill="#00BD7B"/>
<rect x="294" y="279" width="25" height="25" rx="4" transform="rotate(90 294 279)" fill="#00D58B"/>
<rect x="294" y="309" width="25" height="25" rx="4" transform="rotate(90 294 309)" fill="#00EA98"/>
<rect x="324" y="129" width="25" height="25" rx="4" transform="rotate(90 324 129)" fill="#EFEFEF"/>
<rect x="324" y="159" width="25" height="25" rx="4" transform="rotate(90 324 159)" fill="#EFEFEF"/>
<rect x="324" y="189" width="25" height="25" rx="4" transform="rotate(90 324 189)" fill="#00D58B"/>
<rect x="324" y="219" width="25" height="25" rx="4" transform="rotate(90 324 219)" fill="#00EA98"/>
<rect x="324" y="249" width="25" height="25" rx="4" transform="rotate(90 324 249)" fill="#EFEFEF"/>
<rect x="324" y="279" width="25" height="25" rx="4" transform="rotate(90 324 279)" fill="#EFEFEF"/>
<rect x="324" y="309" width="25" height="25" rx="4" transform="rotate(90 324 309)" fill="#EFEFEF"/>
<rect x="354" y="129" width="25" height="25" rx="4" transform="rotate(90 354 129)" fill="#00BD7B"/>
<rect x="354" y="159" width="25" height="25" rx="4" transform="rotate(90 354 159)" fill="#00D58B"/>
<rect x="354" y="189" width="25" height="25" rx="4" transform="rotate(90 354 189)" fill="#EFEFEF"/>
<rect x="354" y="219" width="25" height="25" rx="4" transform="rotate(90 354 219)" fill="#EFEFEF"/>
<rect x="354" y="249" width="25" height="25" rx="4" transform="rotate(90 354 249)" fill="#EFEFEF"/>
<rect x="354" y="279" width="25" height="25" rx="4" transform="rotate(90 354 279)" fill="#00D58B"/>
<rect x="354" y="309" width="25" height="25" rx="4" transform="rotate(90 354 309)" fill="#EFEFEF"/>
<rect x="384" y="129" width="25" height="25" rx="4" transform="rotate(90 384 129)" fill="#EFEFEF"/>
<rect x="384" y="159" width="25" height="25" rx="4" transform="rotate(90 384 159)" fill="#EFEFEF"/>
<rect x="384" y="189" width="25" height="25" rx="4" transform="rotate(90 384 189)" fill="#00EA98"/>
<rect x="384" y="219" width="25" height="25" rx="4" transform="rotate(90 384 219)" fill="#EFEFEF"/>
<rect x="384" y="249" width="25" height="25" rx="4" transform="rotate(90 384 249)" fill="#EFEFEF"/>
<rect x="384" y="279" width="25" height="25" rx="4" transform="rotate(90 384 279)" fill="#EFEFEF"/>
<rect x="384" y="309" width="25" height="25" rx="4" transform="rotate(90 384 309)" fill="#EFEFEF"/>
<rect x="414" y="129" width="25" height="25" rx="4" transform="rotate(90 414 129)" fill="#EFEFEF"/>
<rect x="414" y="159" width="25" height="25" rx="4" transform="rotate(90 414 159)" fill="#EFEFEF"/>
<rect x="414" y="189" width="25" height="25" rx="4" transform="rotate(90 414 189)" fill="#00EA98"/>
<rect x="414" y="219" width="25" height="25" rx="4" transform="rotate(90 414 219)" fill="#EFEFEF"/>
<rect x="414" y="249" width="25" height="25" rx="4" transform="rotate(90 414 249)" fill="#EFEFEF"/>
<rect x="414" y="279" width="25" height="25" rx="4" transform="rotate(90 414 279)" fill="#EFEFEF"/>
<rect x="414" y="309" width="25" height="25" rx="4" transform="rotate(90 414 309)" fill="#EFEFEF"/>
<rect x="444" y="129" width="25" height="25" rx="4" transform="rotate(90 444 129)" fill="#EFEFEF"/>
<rect x="444" y="159" width="25" height="25" rx="4" transform="rotate(90 444 159)" fill="#EFEFEF"/>
<rect x="444" y="189" width="25" height="25" rx="4" transform="rotate(90 444 189)" fill="#00EA98"/>
<rect x="444" y="219" width="25" height="25" rx="4" transform="rotate(90 444 219)" fill="#EFEFEF"/>
<rect x="444" y="249" width="25" height="25" rx="4" transform="rotate(90 444 249)" fill="#EFEFEF"/>
<rect x="444" y="279" width="25" height="25" rx="4" transform="rotate(90 444 279)" fill="#EFEFEF"/>
<rect x="444" y="309" width="25" height="25" rx="4" transform="rotate(90 444 309)" fill="#EFEFEF"/>
<rect x="474" y="129" width="25" height="25" rx="4" transform="rotate(90 474 129)" fill="#EFEFEF"/>
<rect x="474" y="159" width="25" height="25" rx="4" transform="rotate(90 474 159)" fill="#EFEFEF"/>
<rect x="474" y="189" width="25" height="25" rx="4" transform="rotate(90 474 189)" fill="#00EA98"/>
<rect x="474" y="219" width="25" height="25" rx="4" transform="rotate(90 474 219)" fill="#EFEFEF"/>
<rect x="474" y="249" width="25" height="25" rx="4" transform="rotate(90 474 249)" fill="#EFEFEF"/>
<rect x="474" y="279" width="25" height="25" rx="4" transform="rotate(90 474 279)" fill="#EFEFEF"/>
<rect x="474" y="309" width="25" height="25" rx="4" transform="rotate(90 474 309)" fill="#EFEFEF"/>
<rect x="504" y="129" width="25" height="25" rx="4" transform="rotate(90 504 129)" fill="#EFEFEF"/>
<rect x="504" y="159" width="25" height="25" rx="4" transform="rotate(90 504 159)" fill="#EFEFEF"/>
<rect x="504" y="189" width="25" height="25" rx="4" transform="rotate(90 504 189)" fill="#00EA98"/>
<rect x="504" y="219" width="25" height="25" rx="4" transform="rotate(90 504 219)" fill="#EFEFEF"/>
<rect x="504" y="249" width="25" height="25" rx="4" transform="rotate(90 504 249)" fill="#EFEFEF"/>
<rect x="504" y="279" width="25" height="25" rx="4" transform="rotate(90 504 279)" fill="#EFEFEF"/>
<rect x="504" y="309" width="25" height="25" rx="4" transform="rotate(90 504 309)" fill="#EFEFEF"/>
<rect x="534" y="129" width="25" height="25" rx="4" transform="rotate(90 534 129)" fill="#EFEFEF"/>
<rect x="534" y="159" width="25" height="25" rx="4" transform="rotate(90 534 159)" fill="#EFEFEF"/>
<rect x="534" y="189" width="25" height="25" rx="4" transform="rotate(90 534 189)" fill="#00EA98"/>
<rect x="534" y="219" width="25" height="25" rx="4" transform="rotate(90 534 219)" fill="#EFEFEF"/>
<rect x="534" y="249" width="25" height="25" rx="4" transform="rotate(90 534 249)" fill="#EFEFEF"/>
<rect x="534" y="279" width="25" height="25" rx="4" transform="rotate(90 534 279)" fill="#EFEFEF"/>
<rect x="534" y="309" width="25" height="25" rx="4" transform="rotate(90 534 309)" fill="#EFEFEF"/>
<rect x="564" y="129" width="25" height="25" rx="4" transform="rotate(90 564 129)" fill="#EFEFEF"/>
<rect x="564" y="159" width="25" height="25" rx="4" transform="rotate(90 564 159)" fill="#EFEFEF"/>
<rect x="564" y="189" width="25" height="25" rx="4" transform="rotate(90 564 189)" fill="#00EA98"/>
<rect x="564" y="219" width="25" height="25" rx="4" transform="rotate(90 564 219)" fill="#EFEFEF"/>
<rect x="564" y="249" width="25" height="25" rx="4" transform="rotate(90 564 249)" fill="#EFEFEF"/>
<rect x="564" y="279" width="25" height="25" rx="4" transform="rotate(90 564 279)" fill="#EFEFEF"/>
<rect x="564" y="309" width="25" height="25" rx="4" transform="rotate(90 564 309)" fill="#EFEFEF"/>
<rect x="594" y="129" width="25" height="25" rx="4" transform="rotate(90 594 129)" fill="#EFEFEF"/>
<rect x="594" y="159" width="25" height="25" rx="4" transform="rotate(90 594 159)" fill="#EFEFEF"/>
<rect x="594" y="189" width="25" height="25" rx="4" transform="rotate(90 594 189)" fill="#00EA98"/>
<rect x="594" y="219" width="25" height="25" rx="4" transform="rotate(90 594 219)" fill="#EFEFEF"/>
<rect x="594" y="249" width="25" height="25" rx="4" transform="rotate(90 594 249)" fill="#EFEFEF"/>
<rect x="594" y="279" width="25" height="25" rx="4" transform="rotate(90 594 279)" fill="#EFEFEF"/>
<rect x="594" y="309" width="25" height="25" rx="4" transform="rotate(90 594 309)" fill="#EFEFEF"/>
<rect x="310.6" y="417.6" width="32.2" height="59.2" rx="9.6" transform="rotate(180 310.6 417.6)" stroke="#F0F0F0" stroke-width="0.8"/>
<path d="M302.48 380.148L302.48 382.38L287.756 388.176L287.756 387.024L302.48 392.82L302.48 395.052L286.82 388.788L286.82 386.412L302.48 380.148Z" fill="#FEFEFE"/>
<rect x="0.4" y="-0.4" width="32.2" height="59.2" rx="9.6" transform="matrix(1 8.74228e-08 8.74228e-08 -1 331 417.2)" stroke="#F0F0F0" stroke-width="0.8"/>
<path d="M339.52 380.148L339.52 382.38L354.244 388.176L354.244 387.024L339.52 392.82L339.52 395.052L355.18 388.788L355.18 386.412L339.52 380.148Z" fill="#FEFEFE"/>
</svg>
