<svg width="130" height="130" viewBox="0 0 130 130" fill="none" xmlns="http://www.w3.org/2000/svg">
<rect width="130" height="130" rx="24" fill="#0072FF"/>
<rect width="130" height="130" rx="24" fill="black" fill-opacity="0.3"/>
<g filter="url(#filter0_f_452_114)">
<path d="M87.8125 41.2501L83.1875 35.0001C82.89 34.6034 82.5025 34.2832 82.0572 34.0658C81.6115 33.8485 81.1206 33.7403 80.625 33.7501H50C49.5484 33.7501 49.1025 33.8478 48.6925 34.0367C48.2825 34.2255 47.9184 34.5008 47.625 34.8438L42.2499 41.0939C41.7883 41.6687 41.5448 42.3881 41.5624 43.1251V65.9064C41.5707 71.3489 43.7364 76.5664 47.585 80.4149C51.4337 84.2636 56.6509 86.4292 62.0937 86.4377H67.9062C73.3487 86.4292 78.5662 84.2636 82.415 80.4149C86.2634 76.5664 88.429 71.3489 88.4375 65.9064V43.1251C88.4375 42.4489 88.2181 41.791 87.8125 41.2501Z" fill="#FFCC80"/>
<path d="M108.062 103.687L95.5624 88.0624C95.1999 87.6002 94.7142 87.2493 94.1617 87.0505C93.6089 86.8514 93.0114 86.8124 92.4374 86.9374L64.9999 93.1249L37.5623 86.8749C36.9884 86.7499 36.3907 86.7889 35.838 86.988C35.2853 87.1868 34.7998 87.5377 34.4373 87.9999L21.9373 103.625C21.5746 104.082 21.3472 104.632 21.281 105.212C21.2147 105.792 21.3121 106.379 21.5623 106.906C21.8066 107.45 22.2011 107.912 22.6994 108.239C23.1977 108.565 23.779 108.743 24.3748 108.75H105.625C106.214 108.748 106.79 108.58 107.288 108.265C107.785 107.95 108.184 107.501 108.437 106.969C108.687 106.441 108.785 105.854 108.719 105.275C108.652 104.695 108.425 104.145 108.062 103.687Z" fill="#01579B"/>
<path d="M106.531 33.75L65.9062 21.25C65.3121 21.0937 64.6877 21.0937 64.0937 21.25L23.4687 33.75C22.8044 33.9506 22.2257 34.3666 21.824 34.9325C21.4223 35.4983 21.2203 36.1817 21.2499 36.875C21.224 37.5764 21.4349 38.2661 21.8488 38.833C22.2626 39.3999 22.8552 39.811 23.5312 40L64.1562 51.2499C64.7062 51.4168 65.2937 51.4168 65.8437 51.2499L106.469 40C107.145 39.811 107.737 39.3999 108.151 38.833C108.565 38.2661 108.776 37.5764 108.75 36.875C108.78 36.1817 108.577 35.4983 108.176 34.9325C107.774 34.3666 107.196 33.9506 106.531 33.75Z" fill="#01579B"/>
<path d="M50.0625 33.75C49.6113 33.75 49.165 33.8477 48.755 34.0365C48.345 34.2253 47.9809 34.5007 47.6875 34.8437L42.3125 41.0938C41.8284 41.6598 41.5624 42.3802 41.5625 43.125V65.9063C41.5708 71.3491 43.7365 76.5663 47.585 80.415C51.4338 84.2634 56.6509 86.4294 62.0937 86.4375H65V33.75H50.0625Z" fill="#FFE0B2"/>
<path d="M37.5623 86.8749C36.9884 86.7499 36.3907 86.7889 35.838 86.988C35.2853 87.1868 34.7998 87.5377 34.4373 87.9999L21.9373 103.625C21.5746 104.082 21.3472 104.632 21.281 105.212C21.2147 105.792 21.3121 106.379 21.5623 106.906C21.8066 107.45 22.2011 107.912 22.6994 108.239C23.1977 108.565 23.779 108.743 24.3748 108.75H64.9999V93.1249L37.5623 86.8749Z" fill="#0277BD"/>
<path d="M64.0937 21.2503L23.4687 33.7503C22.8044 33.9509 22.2257 34.3669 21.824 34.9327C21.4223 35.4986 21.2203 36.182 21.2499 36.8753C21.224 37.5767 21.4349 38.2664 21.8488 38.8333C22.2626 39.4002 22.8552 39.8113 23.5312 40.0003L64.1562 51.2502C64.4355 51.2958 64.7205 51.2958 64.9999 51.2502V21.2503C64.6996 21.2024 64.394 21.2024 64.0937 21.2503Z" fill="#0277BD"/>
<path d="M23.5312 40L41.5624 44.875V65.9062C41.5707 71.349 43.7365 76.5665 47.5849 80.4149C51.4337 84.2634 56.6509 86.4293 62.0937 86.4374H67.9062C73.349 86.4293 78.5662 84.2634 82.4149 80.4149C86.2634 76.5665 88.4293 71.349 88.4374 65.9062V44.875L106.469 40C107.145 39.811 107.737 39.3999 108.151 38.833C108.565 38.2661 108.776 37.5764 108.75 36.875C108.78 36.1817 108.577 35.4983 108.176 34.9325C107.774 34.3666 107.196 33.9506 106.531 33.75L65.9062 21.25C65.3121 21.0937 64.6877 21.0937 64.0937 21.25L23.4687 33.75C22.8044 33.9506 22.2257 34.3666 21.824 34.9325C21.4223 35.4983 21.2203 36.1817 21.2499 36.875C21.224 37.5764 21.4349 38.2661 21.8488 38.833C22.2626 39.3999 22.8552 39.811 23.5312 40ZM82.1874 65.9062C82.1793 69.6915 80.6718 73.319 77.9955 75.9956C75.319 78.6721 71.6912 80.1793 67.9062 80.1874H62.0937C58.3087 80.1793 54.6809 78.6721 52.0043 75.9956C49.328 73.319 47.8205 69.6915 47.8124 65.9062V46.5937L64.1562 51.1249C64.7062 51.2918 65.2937 51.2918 65.8437 51.1249L82.1874 46.5937V65.9062ZM64.9999 27.6563L94.4999 36.875L64.9999 44.875L35.4999 36.875L64.9999 27.6563Z" fill="#263238"/>
<path d="M95.5624 88.0624C95.1999 87.6002 94.7142 87.2493 94.1617 87.0505C93.6089 86.8514 93.0114 86.8124 92.4374 86.9374L64.9999 93.1249L37.5623 86.8749C36.9884 86.7499 36.3907 86.7889 35.838 86.988C35.2853 87.1868 34.7998 87.5377 34.4373 87.9999L21.9373 103.625C21.5746 104.082 21.3472 104.632 21.281 105.212C21.2147 105.792 21.3121 106.379 21.5623 106.906C21.8066 107.45 22.2011 107.912 22.6994 108.239C23.1977 108.565 23.779 108.743 24.3748 108.75H105.625C106.214 108.748 106.79 108.58 107.288 108.265C107.785 107.95 108.184 107.501 108.437 106.969C108.687 106.441 108.785 105.854 108.719 105.275C108.652 104.695 108.425 104.145 108.062 103.687L95.5624 88.0624ZM30.8748 102.5L38.0936 93.4686L64.3124 99.3749C64.7658 99.4683 65.2336 99.4683 65.6874 99.3749L91.9061 93.5311L99.1249 102.5H30.8748Z" fill="#263238"/>
</g>
<path fill-rule="evenodd" clip-rule="evenodd" d="M91.7705 38.5628C88.3533 35.1457 82.8134 35.1457 79.3962 38.5628L74.4968 43.4622L51.4376 66.5213C51.0638 66.8952 50.7986 67.3636 50.6704 67.8763L47.7538 79.543C47.5053 80.537 47.7965 81.5885 48.5209 82.3127C49.2454 83.0372 50.2968 83.3285 51.2907 83.08L62.9573 80.1634C63.4703 80.035 63.9385 79.7699 64.3124 79.396L87.2038 56.5048L92.271 51.4376C95.6881 48.0205 95.6881 42.4803 92.271 39.0632L91.7705 38.5628ZM83.521 42.6876C84.6599 41.5486 86.5067 41.5486 87.6457 42.6876L88.1462 43.188C89.2852 44.3271 89.2852 46.1738 88.1462 47.3128L85.1814 50.2777L80.6448 45.5638L83.521 42.6876ZM76.5192 49.6893L81.0558 54.4032L60.759 74.7002L54.5919 76.2419L56.1336 70.0749L76.5192 49.6893ZM41.8333 54.0004C41.8333 52.3896 43.1392 51.0837 44.75 51.0837H59.3333C60.9442 51.0837 62.25 49.7779 62.25 48.1671C62.25 46.5563 60.9442 45.2504 59.3333 45.2504H44.75C39.9175 45.2504 36 49.1679 36 54.0004V86.0836C36 90.9163 39.9175 94.8336 44.75 94.8336H76.8333C81.666 94.8336 85.5833 90.9163 85.5833 86.0836V71.5003C85.5833 69.8897 84.2775 68.5836 82.6667 68.5836C81.0558 68.5836 79.75 69.8897 79.75 71.5003V86.0836C79.75 87.6945 78.4442 89.0003 76.8333 89.0003H44.75C43.1392 89.0003 41.8333 87.6945 41.8333 86.0836V54.0004Z" fill="#FEFEFE"/>
<defs>
<filter id="filter0_f_452_114" x="13" y="13" width="104" height="104" filterUnits="userSpaceOnUse" color-interpolation-filters="sRGB">
<feFlood flood-opacity="0" result="BackgroundImageFix"/>
<feBlend mode="normal" in="SourceGraphic" in2="BackgroundImageFix" result="shape"/>
<feGaussianBlur stdDeviation="1" result="effect1_foregroundBlur_452_114"/>
</filter>
</defs>
</svg>
