<svg width="451" height="541" viewBox="0 0 451 541" fill="none" xmlns="http://www.w3.org/2000/svg">
<g filter="url(#filter0_d_175_2)">
<rect x="22" y="22" width="399" height="489" fill="#296388"/>
</g>
<path d="M49.934 72L61.842 53.8H64.416L69.018 72H66.444L62.388 55.204H63.428L52.742 72H49.934ZM54.354 67.45L55.498 65.37H65.716L66.08 67.45H54.354ZM81.7531 72L77.8531 65.24L79.9331 64.304L84.6391 72H81.7531ZM71.7431 72L74.5251 58.22H77.0211L74.2391 72H71.7431ZM74.6811 66.176L75.0711 64.044H79.6211L79.2311 66.176H74.6811ZM80.0111 65.396L77.6451 65.084L84.3271 58.22H87.1091L80.0111 65.396ZM89.7589 72L92.1509 59.754L92.6189 60.404H87.0289L87.4449 58.22H100.029L99.6129 60.404H93.9189L94.6469 59.754L92.2549 72H89.7589ZM99.8252 72L102.607 58.22H105.129L103.049 68.516L113.449 58.22H115.815L113.085 72H110.537L112.643 61.704L102.243 72H99.8252ZM117.929 72L120.711 58.22H127.003C128.511 58.22 129.655 58.4887 130.435 59.026C131.215 59.5633 131.605 60.3433 131.605 61.366C131.605 62.5273 131.102 63.472 130.097 64.2C129.109 64.9107 127.809 65.266 126.197 65.266L126.535 64.642C127.991 64.642 129.065 64.8933 129.759 65.396C130.452 65.8813 130.799 66.6527 130.799 67.71C130.799 69.0447 130.261 70.0933 129.187 70.856C128.112 71.6187 126.613 72 124.689 72H117.929ZM120.789 70.076H124.767C125.893 70.076 126.777 69.8593 127.419 69.426C128.06 68.9927 128.381 68.386 128.381 67.606C128.381 67.0167 128.181 66.592 127.783 66.332C127.384 66.072 126.734 65.942 125.833 65.942H121.595L120.789 70.076ZM121.959 64.148H125.703C126.691 64.148 127.497 63.94 128.121 63.524C128.745 63.0907 129.057 62.5187 129.057 61.808C129.057 61.2533 128.84 60.8373 128.407 60.56C127.991 60.2827 127.367 60.144 126.535 60.144H122.739L121.959 64.148ZM133.899 72L136.655 58.22H139.151L137.981 64.07H145.833L147.003 58.22H149.499L146.743 72H144.247L145.417 66.228H137.565L136.395 72H133.899ZM158.149 72.156C156.832 72.156 155.688 71.9133 154.717 71.428C153.764 70.9253 153.019 70.232 152.481 69.348C151.944 68.4467 151.675 67.398 151.675 66.202C151.675 64.642 152.022 63.2553 152.715 62.042C153.409 60.8113 154.362 59.8493 155.575 59.156C156.806 58.4453 158.201 58.09 159.761 58.09C161.061 58.09 162.197 58.3327 163.167 58.818C164.138 59.3033 164.883 59.988 165.403 60.872C165.941 61.756 166.209 62.8047 166.209 64.018C166.209 65.578 165.863 66.9733 165.169 68.204C164.476 69.4173 163.523 70.3793 162.309 71.09C161.113 71.8007 159.727 72.156 158.149 72.156ZM158.305 69.972C159.345 69.972 160.273 69.7207 161.087 69.218C161.902 68.7153 162.535 68.0307 162.985 67.164C163.453 66.28 163.687 65.2747 163.687 64.148C163.687 62.9347 163.332 61.99 162.621 61.314C161.911 60.6207 160.897 60.274 159.579 60.274C158.557 60.274 157.638 60.5253 156.823 61.028C156.009 61.5133 155.367 62.198 154.899 63.082C154.431 63.9487 154.197 64.954 154.197 66.098C154.197 67.294 154.553 68.2387 155.263 68.932C155.974 69.6253 156.988 69.972 158.305 69.972ZM175.087 72.156C173.752 72.156 172.591 71.9133 171.603 71.428C170.632 70.9253 169.878 70.232 169.341 69.348C168.803 68.4467 168.535 67.398 168.535 66.202C168.535 64.642 168.881 63.2553 169.575 62.042C170.268 60.8113 171.23 59.8493 172.461 59.156C173.691 58.4453 175.087 58.09 176.647 58.09C177.981 58.09 179.125 58.3413 180.079 58.844C181.032 59.3293 181.777 60.0747 182.315 61.08L180.209 62.25C179.862 61.574 179.368 61.08 178.727 60.768C178.103 60.4387 177.349 60.274 176.465 60.274C175.425 60.274 174.497 60.5253 173.683 61.028C172.868 61.5133 172.227 62.198 171.759 63.082C171.291 63.9487 171.057 64.954 171.057 66.098C171.057 67.294 171.412 68.2387 172.123 68.932C172.851 69.6253 173.873 69.972 175.191 69.972C176.005 69.972 176.768 69.8073 177.479 69.478C178.207 69.1487 178.813 68.6633 179.299 68.022L181.119 69.322C180.495 70.206 179.645 70.8993 178.571 71.402C177.496 71.9047 176.335 72.156 175.087 72.156ZM186.192 72L188.584 59.754L189.052 60.404H183.462L183.878 58.22H196.462L196.046 60.404H190.352L191.08 59.754L188.688 72H186.192ZM204.267 62.874C205.827 62.874 206.997 63.1947 207.777 63.836C208.574 64.46 208.973 65.4047 208.973 66.67C208.973 67.7447 208.704 68.6893 208.167 69.504C207.629 70.3013 206.867 70.9167 205.879 71.35C204.908 71.7833 203.755 72 202.421 72H196.259L199.041 58.22H201.511L200.575 62.874H204.267ZM202.421 70.128C203.235 70.128 203.946 69.998 204.553 69.738C205.159 69.4607 205.627 69.0793 205.957 68.594C206.303 68.1087 206.477 67.5367 206.477 66.878C206.477 65.4393 205.489 64.72 203.513 64.72H200.211L199.145 70.128H202.421Z" fill="white"/>
<rect x="233" y="149" width="25" height="25" transform="rotate(90 233 149)" fill="#EFEFEF"/>
<rect x="233" y="223" width="25" height="25" transform="rotate(90 233 223)" fill="#EFEFEF"/>
<rect x="233" y="334" width="25" height="25" transform="rotate(90 233 334)" fill="#EFEFEF"/>
<rect x="233" y="186" width="25" height="25" transform="rotate(90 233 186)" fill="#6BC3FC"/>
<rect x="233" y="297" width="25" height="25" transform="rotate(90 233 297)" fill="#EFEFEF"/>
<rect x="233" y="260" width="25" height="25" transform="rotate(90 233 260)" fill="#EFEFEF"/>
<rect x="233" y="371" width="25" height="25" transform="rotate(90 233 371)" fill="#EFEFEF"/>
<rect x="197" y="149" width="25" height="25" transform="rotate(90 197 149)" fill="#EFEFEF"/>
<rect x="197" y="223" width="25" height="25" transform="rotate(90 197 223)" fill="#EFEFEF"/>
<rect x="197" y="334" width="25" height="25" transform="rotate(90 197 334)" fill="#EFEFEF"/>
<rect x="161" y="149" width="25" height="25" transform="rotate(90 161 149)" fill="#EFEFEF"/>
<rect x="161" y="223" width="25" height="25" transform="rotate(90 161 223)" fill="#EFEFEF"/>
<rect x="161" y="334" width="25" height="25" transform="rotate(90 161 334)" fill="#EFEFEF"/>
<rect x="125" y="149" width="25" height="25" transform="rotate(90 125 149)" fill="#359EE3"/>
<rect x="125" y="223" width="25" height="25" transform="rotate(90 125 223)" fill="#359EE3"/>
<rect x="125" y="334" width="25" height="25" transform="rotate(90 125 334)" fill="#EFEFEF"/>
<rect x="197" y="186" width="25" height="25" transform="rotate(90 197 186)" fill="#EFEFEF"/>
<rect x="197" y="297" width="25" height="25" transform="rotate(90 197 297)" fill="#EFEFEF"/>
<rect x="197" y="260" width="25" height="25" transform="rotate(90 197 260)" fill="#EFEFEF"/>
<rect x="197" y="371" width="25" height="25" transform="rotate(90 197 371)" fill="#EFEFEF"/>
<rect x="161" y="186" width="25" height="25" transform="rotate(90 161 186)" fill="#EFEFEF"/>
<rect x="161" y="297" width="25" height="25" transform="rotate(90 161 297)" fill="#EFEFEF"/>
<rect x="161" y="260" width="25" height="25" transform="rotate(90 161 260)" fill="#EFEFEF"/>
<rect x="161" y="371" width="25" height="25" transform="rotate(90 161 371)" fill="#EFEFEF"/>
<rect x="124" y="186" width="25" height="25" transform="rotate(90 124 186)" fill="#EFEFEF"/>
<rect x="124" y="297" width="25" height="25" transform="rotate(90 124 297)" fill="#359EE3"/>
<rect x="124" y="260" width="25" height="25" transform="rotate(90 124 260)" fill="#329DEA"/>
<rect x="124" y="371" width="25" height="25" transform="rotate(90 124 371)" fill="#EFEFEF"/>
<rect x="375" y="149" width="25" height="25" transform="rotate(90 375 149)" fill="#EFEFEF"/>
<rect x="375" y="223" width="25" height="25" transform="rotate(90 375 223)" fill="#EFEFEF"/>
<rect x="375" y="334" width="25" height="25" transform="rotate(90 375 334)" fill="#EFEFEF"/>
<rect x="375" y="186" width="25" height="25" transform="rotate(90 375 186)" fill="#EFEFEF"/>
<rect x="375" y="297" width="25" height="25" transform="rotate(90 375 297)" fill="#EFEFEF"/>
<rect x="375" y="260" width="25" height="25" transform="rotate(90 375 260)" fill="#EFEFEF"/>
<rect x="375" y="371" width="25" height="25" transform="rotate(90 375 371)" fill="#EFEFEF"/>
<rect x="339" y="149" width="25" height="25" transform="rotate(90 339 149)" fill="#EFEFEF"/>
<rect x="339" y="223" width="25" height="25" transform="rotate(90 339 223)" fill="#EFEFEF"/>
<rect x="339" y="334" width="25" height="25" transform="rotate(90 339 334)" fill="#EFEFEF"/>
<rect x="303" y="149" width="25" height="25" transform="rotate(90 303 149)" fill="#EFEFEF"/>
<rect x="303" y="223" width="25" height="25" transform="rotate(90 303 223)" fill="#EFEFEF"/>
<rect x="303" y="334" width="25" height="25" transform="rotate(90 303 334)" fill="#EFEFEF"/>
<rect x="267" y="149" width="25" height="25" transform="rotate(90 267 149)" fill="#EFEFEF"/>
<rect x="267" y="223" width="25" height="25" transform="rotate(90 267 223)" fill="#EFEFEF"/>
<rect x="267" y="334" width="25" height="25" transform="rotate(90 267 334)" fill="#EFEFEF"/>
<rect x="339" y="186" width="25" height="25" transform="rotate(90 339 186)" fill="#EFEFEF"/>
<rect x="339" y="297" width="25" height="25" transform="rotate(90 339 297)" fill="#EFEFEF"/>
<rect x="339" y="260" width="25" height="25" transform="rotate(90 339 260)" fill="#EFEFEF"/>
<rect x="339" y="371" width="25" height="25" transform="rotate(90 339 371)" fill="#EFEFEF"/>
<rect x="303" y="186" width="25" height="25" transform="rotate(90 303 186)" fill="#EFEFEF"/>
<rect x="303" y="297" width="25" height="25" transform="rotate(90 303 297)" fill="#EFEFEF"/>
<rect x="303" y="260" width="25" height="25" transform="rotate(90 303 260)" fill="#EFEFEF"/>
<rect x="303" y="371" width="25" height="25" transform="rotate(90 303 371)" fill="#EFEFEF"/>
<rect x="266" y="186" width="25" height="25" transform="rotate(90 266 186)" fill="#EFEFEF"/>
<rect x="266" y="297" width="25" height="25" transform="rotate(90 266 297)" fill="#EFEFEF"/>
<rect x="266" y="260" width="25" height="25" transform="rotate(90 266 260)" fill="#EFEFEF"/>
<rect x="266" y="371" width="25" height="25" transform="rotate(90 266 371)" fill="#EFEFEF"/>
<path d="M138.596 128V112.6H139.938L146.978 124.612H146.274L153.248 112.6H154.59V128H153.028V115.042H153.402L146.978 126.042H146.208L139.74 115.042H140.158V128H138.596ZM166.578 128V125.448L166.512 125.03V120.762C166.512 119.779 166.233 119.024 165.676 118.496C165.133 117.968 164.319 117.704 163.234 117.704C162.486 117.704 161.774 117.829 161.1 118.078C160.425 118.327 159.853 118.657 159.384 119.068L158.68 117.902C159.266 117.403 159.97 117.022 160.792 116.758C161.613 116.479 162.478 116.34 163.388 116.34C164.884 116.34 166.035 116.714 166.842 117.462C167.663 118.195 168.074 119.317 168.074 120.828V128H166.578ZM162.596 128.11C161.73 128.11 160.975 127.971 160.33 127.692C159.699 127.399 159.215 127.003 158.878 126.504C158.54 125.991 158.372 125.404 158.372 124.744C158.372 124.143 158.511 123.6 158.79 123.116C159.083 122.617 159.552 122.221 160.198 121.928C160.858 121.62 161.738 121.466 162.838 121.466H166.82V122.632H162.882C161.767 122.632 160.99 122.83 160.55 123.226C160.124 123.622 159.912 124.113 159.912 124.7C159.912 125.36 160.168 125.888 160.682 126.284C161.195 126.68 161.914 126.878 162.838 126.878C163.718 126.878 164.473 126.68 165.104 126.284C165.749 125.873 166.218 125.287 166.512 124.524L166.864 125.602C166.57 126.365 166.057 126.973 165.324 127.428C164.605 127.883 163.696 128.11 162.596 128.11ZM178.194 128.11C177.196 128.11 176.294 127.883 175.488 127.428C174.681 126.959 174.036 126.291 173.552 125.426C173.082 124.546 172.848 123.475 172.848 122.214C172.848 120.953 173.082 119.889 173.552 119.024C174.021 118.144 174.659 117.477 175.466 117.022C176.272 116.567 177.182 116.34 178.194 116.34C179.294 116.34 180.276 116.589 181.142 117.088C182.022 117.572 182.711 118.261 183.21 119.156C183.708 120.036 183.958 121.055 183.958 122.214C183.958 123.387 183.708 124.414 183.21 125.294C182.711 126.174 182.022 126.863 181.142 127.362C180.276 127.861 179.294 128.11 178.194 128.11ZM172.232 132.268V116.45H173.728V119.926L173.574 122.236L173.794 124.568V132.268H172.232ZM178.084 126.724C178.905 126.724 179.638 126.541 180.284 126.174C180.929 125.793 181.442 125.265 181.824 124.59C182.205 123.901 182.396 123.109 182.396 122.214C182.396 121.319 182.205 120.535 181.824 119.86C181.442 119.185 180.929 118.657 180.284 118.276C179.638 117.895 178.905 117.704 178.084 117.704C177.262 117.704 176.522 117.895 175.862 118.276C175.216 118.657 174.703 119.185 174.322 119.86C173.955 120.535 173.772 121.319 173.772 122.214C173.772 123.109 173.955 123.901 174.322 124.59C174.703 125.265 175.216 125.793 175.862 126.174C176.522 126.541 177.262 126.724 178.084 126.724ZM189.084 128V117.396L189.48 117.814H184.706V116.45H195.024V117.814H190.25L190.646 117.396V128H189.084Z" fill="#D4D4D4"/>
<path d="M267.33 128L274.37 112.6H275.976L283.016 128H281.3L274.832 113.546H275.492L269.024 128H267.33ZM270.102 123.886L270.586 122.566H279.54L280.024 123.886H270.102ZM285.593 128V116.45H295.977V128H294.415V117.396L294.811 117.814H286.759L287.155 117.396V128H285.593ZM306.379 128.11C305.382 128.11 304.48 127.883 303.673 127.428C302.867 126.959 302.221 126.291 301.737 125.426C301.268 124.546 301.033 123.475 301.033 122.214C301.033 120.953 301.268 119.889 301.737 119.024C302.207 118.144 302.845 117.477 303.651 117.022C304.458 116.567 305.367 116.34 306.379 116.34C307.479 116.34 308.462 116.589 309.327 117.088C310.207 117.572 310.897 118.261 311.395 119.156C311.894 120.036 312.143 121.055 312.143 122.214C312.143 123.387 311.894 124.414 311.395 125.294C310.897 126.174 310.207 126.863 309.327 127.362C308.462 127.861 307.479 128.11 306.379 128.11ZM300.417 132.268V116.45H301.913V119.926L301.759 122.236L301.979 124.568V132.268H300.417ZM306.269 126.724C307.091 126.724 307.824 126.541 308.469 126.174C309.115 125.793 309.628 125.265 310.009 124.59C310.391 123.901 310.581 123.109 310.581 122.214C310.581 121.319 310.391 120.535 310.009 119.86C309.628 119.185 309.115 118.657 308.469 118.276C307.824 117.895 307.091 117.704 306.269 117.704C305.448 117.704 304.707 117.895 304.047 118.276C303.402 118.657 302.889 119.185 302.507 119.86C302.141 120.535 301.957 121.319 301.957 122.214C301.957 123.109 302.141 123.901 302.507 124.59C302.889 125.265 303.402 125.793 304.047 126.174C304.707 126.541 305.448 126.724 306.269 126.724ZM320.449 128.11C319.247 128.11 318.191 127.861 317.281 127.362C316.372 126.849 315.661 126.152 315.147 125.272C314.634 124.377 314.377 123.358 314.377 122.214C314.377 121.07 314.619 120.058 315.103 119.178C315.602 118.298 316.277 117.609 317.127 117.11C317.993 116.597 318.961 116.34 320.031 116.34C321.117 116.34 322.077 116.589 322.913 117.088C323.764 117.572 324.431 118.261 324.915 119.156C325.399 120.036 325.641 121.055 325.641 122.214C325.641 122.287 325.634 122.368 325.619 122.456C325.619 122.529 325.619 122.61 325.619 122.698H315.565V121.532H324.783L324.167 121.994C324.167 121.158 323.984 120.417 323.617 119.772C323.265 119.112 322.781 118.599 322.165 118.232C321.549 117.865 320.838 117.682 320.031 117.682C319.239 117.682 318.528 117.865 317.897 118.232C317.267 118.599 316.775 119.112 316.423 119.772C316.071 120.432 315.895 121.187 315.895 122.038V122.28C315.895 123.16 316.086 123.937 316.467 124.612C316.863 125.272 317.406 125.793 318.095 126.174C318.799 126.541 319.599 126.724 320.493 126.724C321.197 126.724 321.85 126.599 322.451 126.35C323.067 126.101 323.595 125.719 324.035 125.206L324.915 126.218C324.402 126.834 323.757 127.303 322.979 127.626C322.217 127.949 321.373 128.11 320.449 128.11ZM326.751 127.978L326.861 126.636C326.963 126.651 327.059 126.673 327.147 126.702C327.249 126.717 327.337 126.724 327.411 126.724C327.88 126.724 328.254 126.548 328.533 126.196C328.826 125.844 329.046 125.375 329.193 124.788C329.339 124.201 329.442 123.541 329.501 122.808C329.559 122.06 329.611 121.312 329.655 120.564L329.853 116.45H338.323V128H336.761V117.352L337.157 117.814H330.865L331.239 117.33L331.063 120.674C331.019 121.671 330.938 122.625 330.821 123.534C330.718 124.443 330.549 125.243 330.315 125.932C330.095 126.621 329.787 127.164 329.391 127.56C328.995 127.941 328.489 128.132 327.873 128.132C327.697 128.132 327.513 128.117 327.323 128.088C327.147 128.059 326.956 128.022 326.751 127.978ZM347.735 120.52C349.187 120.535 350.287 120.857 351.035 121.488C351.798 122.119 352.179 123.028 352.179 124.216C352.179 125.448 351.768 126.394 350.947 127.054C350.14 127.714 348.967 128.037 347.427 128.022L342.763 128V116.45H344.325V120.476L347.735 120.52ZM347.339 126.834C348.41 126.849 349.216 126.636 349.759 126.196C350.316 125.741 350.595 125.081 350.595 124.216C350.595 123.351 350.324 122.72 349.781 122.324C349.238 121.913 348.424 121.701 347.339 121.686L344.325 121.642V126.79L347.339 126.834Z" fill="#D4D4D4"/>
<path d="M54.596 169V153.6H67.554V169H65.948V154.568L66.366 155.008H55.784L56.202 154.568V169H54.596ZM72.3763 169V157.45H73.9383V162.554H81.2203V157.45H82.7823V169H81.2203V163.896H73.9383V169H72.3763Z" fill="#D4D4D4"/>
<path d="M63.328 244.132C62.1693 244.132 61.0987 243.941 60.116 243.56C59.1333 243.164 58.2827 242.614 57.564 241.91C56.8453 241.206 56.2807 240.377 55.87 239.424C55.474 238.471 55.276 237.429 55.276 236.3C55.276 235.171 55.474 234.129 55.87 233.176C56.2807 232.223 56.8453 231.394 57.564 230.69C58.2973 229.986 59.1553 229.443 60.138 229.062C61.1207 228.666 62.1913 228.468 63.35 228.468C64.4647 228.468 65.5133 228.659 66.496 229.04C67.4787 229.407 68.3073 229.964 68.982 230.712L67.948 231.746C67.3173 231.101 66.6207 230.639 65.858 230.36C65.0953 230.067 64.274 229.92 63.394 229.92C62.47 229.92 61.612 230.081 60.82 230.404C60.028 230.712 59.3387 231.159 58.752 231.746C58.1653 232.318 57.7033 232.993 57.366 233.77C57.0433 234.533 56.882 235.376 56.882 236.3C56.882 237.224 57.0433 238.075 57.366 238.852C57.7033 239.615 58.1653 240.289 58.752 240.876C59.3387 241.448 60.028 241.895 60.82 242.218C61.612 242.526 62.47 242.68 63.394 242.68C64.274 242.68 65.0953 242.533 65.858 242.24C66.6207 241.947 67.3173 241.477 67.948 240.832L68.982 241.866C68.3073 242.614 67.4787 243.179 66.496 243.56C65.5133 243.941 64.4573 244.132 63.328 244.132ZM77.932 244.11C76.9347 244.11 76.0327 243.883 75.226 243.428C74.4194 242.959 73.774 242.291 73.29 241.426C72.8207 240.546 72.586 239.475 72.586 238.214C72.586 236.953 72.8207 235.889 73.29 235.024C73.7594 234.144 74.3974 233.477 75.204 233.022C76.0107 232.567 76.92 232.34 77.932 232.34C79.032 232.34 80.0147 232.589 80.88 233.088C81.76 233.572 82.4494 234.261 82.948 235.156C83.4467 236.036 83.696 237.055 83.696 238.214C83.696 239.387 83.4467 240.414 82.948 241.294C82.4494 242.174 81.76 242.863 80.88 243.362C80.0147 243.861 79.032 244.11 77.932 244.11ZM71.97 248.268V232.45H73.466V235.926L73.312 238.236L73.532 240.568V248.268H71.97ZM77.822 242.724C78.6434 242.724 79.3767 242.541 80.022 242.174C80.6674 241.793 81.1807 241.265 81.562 240.59C81.9434 239.901 82.134 239.109 82.134 238.214C82.134 237.319 81.9434 236.535 81.562 235.86C81.1807 235.185 80.6674 234.657 80.022 234.276C79.3767 233.895 78.6434 233.704 77.822 233.704C77.0007 233.704 76.26 233.895 75.6 234.276C74.9547 234.657 74.4414 235.185 74.06 235.86C73.6934 236.535 73.51 237.319 73.51 238.214C73.51 239.109 73.6934 239.901 74.06 240.59C74.4414 241.265 74.9547 241.793 75.6 242.174C76.26 242.541 77.0007 242.724 77.822 242.724Z" fill="#D4D4D4"/>
<path d="M56.596 317V301.6H69.554V317H67.948V302.568L68.366 303.008H57.784L58.202 302.568V317H56.596ZM76.5763 317V306.396L76.9723 306.814H72.1983V305.45H82.5163V306.814H77.7423L78.1383 306.396V317H76.5763Z" fill="#D4D4D4"/>
<path d="M56.596 389V373.6H62.998C64.626 373.6 65.902 373.937 66.826 374.612C67.7647 375.272 68.234 376.247 68.234 377.538C68.234 378.814 67.7867 379.782 66.892 380.442C65.9973 381.087 64.824 381.41 63.372 381.41L63.746 380.86C65.462 380.86 66.7673 381.197 67.662 381.872C68.5567 382.547 69.004 383.537 69.004 384.842C69.004 386.162 68.5347 387.189 67.596 387.922C66.672 388.641 65.2787 389 63.416 389H56.596ZM58.202 387.702H63.416C64.7213 387.702 65.7113 387.46 66.386 386.976C67.0607 386.492 67.398 385.744 67.398 384.732C67.398 383.735 67.0607 383.001 66.386 382.532C65.7113 382.063 64.7213 381.828 63.416 381.828H58.202V387.702ZM58.202 380.574H62.91C64.098 380.574 65.0073 380.339 65.638 379.87C66.2833 379.386 66.606 378.675 66.606 377.736C66.606 376.797 66.2833 376.093 65.638 375.624C65.0073 375.14 64.098 374.898 62.91 374.898H58.202V380.574ZM77.5405 389.11C76.3965 389.11 75.3698 388.861 74.4605 388.362C73.5658 387.849 72.8618 387.152 72.3485 386.272C71.8352 385.377 71.5785 384.358 71.5785 383.214C71.5785 382.055 71.8352 381.036 72.3485 380.156C72.8618 379.276 73.5658 378.587 74.4605 378.088C75.3698 377.589 76.3965 377.34 77.5405 377.34C78.5232 377.34 79.4105 377.531 80.2025 377.912C80.9945 378.293 81.6178 378.865 82.0725 379.628L80.9065 380.42C80.5105 379.833 80.0192 379.401 79.4325 379.122C78.8458 378.843 78.2078 378.704 77.5185 378.704C76.6972 378.704 75.9565 378.895 75.2965 379.276C74.6365 379.643 74.1158 380.163 73.7345 380.838C73.3532 381.513 73.1625 382.305 73.1625 383.214C73.1625 384.123 73.3532 384.915 73.7345 385.59C74.1158 386.265 74.6365 386.793 75.2965 387.174C75.9565 387.541 76.6972 387.724 77.5185 387.724C78.2078 387.724 78.8458 387.585 79.4325 387.306C80.0192 387.027 80.5105 386.602 80.9065 386.03L82.0725 386.822C81.6178 387.57 80.9945 388.142 80.2025 388.538C79.4105 388.919 78.5232 389.11 77.5405 389.11Z" fill="#D4D4D4"/>
<defs>
<filter id="filter0_d_175_2" x="0" y="0" width="451" height="541" filterUnits="userSpaceOnUse" color-interpolation-filters="sRGB">
<feFlood flood-opacity="0" result="BackgroundImageFix"/>
<feColorMatrix in="SourceAlpha" type="matrix" values="0 0 0 0 0 0 0 0 0 0 0 0 0 0 0 0 0 0 127 0" result="hardAlpha"/>
<feOffset dx="4" dy="4"/>
<feGaussianBlur stdDeviation="13"/>
<feComposite in2="hardAlpha" operator="out"/>
<feColorMatrix type="matrix" values="0 0 0 0 0 0 0 0 0 0 0 0 0 0 0 0 0 0 0.25 0"/>
<feBlend mode="normal" in2="BackgroundImageFix" result="effect1_dropShadow_175_2"/>
<feBlend mode="normal" in="SourceGraphic" in2="effect1_dropShadow_175_2" result="shape"/>
</filter>
</defs>
</svg>
