<svg width="59" height="59" viewBox="0 0 59 59" fill="none" xmlns="http://www.w3.org/2000/svg">
<path fill-rule="evenodd" clip-rule="evenodd" d="M55.7705 2.56282C52.3533 -0.854259 46.8134 -0.854288 43.3962 2.56282L38.4968 7.46224L15.4376 30.5213C15.0638 30.8952 14.7986 31.3636 14.6704 31.8763L11.7538 43.543C11.5053 44.537 11.7965 45.5885 12.5209 46.3127C13.2454 47.0372 14.2968 47.3285 15.2907 47.08L26.9573 44.1634C27.4703 44.035 27.9385 43.7699 28.3124 43.396L51.2038 20.5048L56.271 15.4376C59.6881 12.0205 59.6881 6.48031 56.271 3.06323L55.7705 2.56282ZM47.521 6.6876C48.6599 5.54858 50.5067 5.54858 51.6457 6.6876L52.1462 7.18801C53.2852 8.32706 53.2852 10.1738 52.1462 11.3128L49.1814 14.2777L44.6448 9.56378L47.521 6.6876ZM40.5192 13.6893L45.0558 18.4032L24.759 38.7002L18.5919 40.2419L20.1336 34.0749L40.5192 13.6893ZM5.83333 18.0004C5.83333 16.3896 7.13918 15.0837 8.75 15.0837H23.3333C24.9442 15.0837 26.25 13.7779 26.25 12.1671C26.25 10.5563 24.9442 9.25041 23.3333 9.25041H8.75C3.91752 9.25041 0 13.1679 0 18.0004V50.0836C0 54.9163 3.91752 58.8336 8.75 58.8336H40.8333C45.666 58.8336 49.5833 54.9163 49.5833 50.0836V35.5003C49.5833 33.8897 48.2775 32.5836 46.6667 32.5836C45.0558 32.5836 43.75 33.8897 43.75 35.5003V50.0836C43.75 51.6945 42.4442 53.0003 40.8333 53.0003H8.75C7.13918 53.0003 5.83333 51.6945 5.83333 50.0836V18.0004Z" fill="#FEFEFE"/>
</svg>
